<svg width="335" height="325" viewBox="0 0 335 325" fill="none" xmlns="http://www.w3.org/2000/svg">
<path d="M5.49511 193.013C4.97232 191.158 4.54233 189.493 4.03311 187.853C3.63905 186.58 3.85621 185.455 4.77741 184.544C6.27766 183.065 7.85074 181.656 9.62822 179.997C9.42267 179.512 9.1503 178.812 8.83013 178.132C7.19281 174.664 5.28023 171.329 4.29681 167.562C4.00992 166.46 3.07945 165.538 2.53561 164.488C1.75048 162.966 0.765365 161.471 0.374704 159.841C-0.513142 156.159 0.0923429 152.897 3.10343 150.067C8.25855 145.222 12.2058 139.389 15.9179 133.382C19.5431 127.518 23.3269 121.746 27.1428 116.002C28.4596 114.021 30.1096 112.267 31.5606 110.375C32.8503 108.689 34.0409 106.923 35.3334 105.238C39.7749 99.4445 44.1592 93.6054 48.7249 87.9097C52.4648 83.2461 56.5752 78.8563 61.2114 75.1005C65.8084 71.3803 69.8746 67.252 73.001 62.2789C76.0342 57.4532 80.1879 53.7608 84.5757 50.3207C87.2019 48.2623 89.7152 46.1217 91.9623 43.6679C96.2805 38.9532 100.985 34.6798 106.116 30.854C108.236 29.2718 110.241 27.5009 112.137 25.6541C115.776 22.1067 119.691 19.0222 124.333 16.8382C128.533 14.8667 132.558 12.5207 136.741 10.5157C142.682 7.66781 149.028 6.33768 155.587 5.9776C156.647 5.91892 157.71 5.88017 158.768 5.78474C159.857 5.68587 160.802 5.27909 161.573 4.45068C164.208 1.62506 167.631 0.715746 171.316 0.817876C173.554 0.878386 175.864 1.10125 177.996 1.74048C182.803 3.18013 187.401 2.89569 192.036 1.09078C195.325 -0.18918 198.645 -0.326424 202.181 0.593536C205.548 1.46723 208.811 2.48928 211.929 4.00006C214.507 5.2493 217.11 6.02719 219.987 4.90859C220.684 4.63866 221.564 4.72763 222.346 4.80107C225.121 5.05824 227.903 5.29989 230.655 5.71566C231.807 5.88953 232.967 6.34977 233.999 6.91001C236.672 8.37 239.374 9.77848 241.695 11.8396C242.751 12.7782 244.191 13.3079 245.505 13.9239C249.229 15.6675 252.99 17.336 256.706 19.0978C257.403 19.4289 258.022 19.988 258.571 20.5472C261.088 23.1147 263.885 25.2817 266.897 27.2818C273.211 31.4757 279.186 36.1162 283.732 42.331C284.433 43.2889 285.317 44.1163 286.106 45.0127C287.517 46.6197 288.749 48.3435 289.46 50.3876C290.159 52.399 291.14 54.2034 292.482 55.9168C293.5 57.2184 294.055 58.9946 294.453 60.6454C295.082 63.2466 296.033 65.6808 297.124 68.1148C299.85 74.1898 302.033 80.4249 302.554 87.1713C303.077 93.9685 305.196 100.386 307.333 106.841C309.876 114.516 311.941 122.368 313.862 130.228C315.593 137.308 316.913 144.494 318.288 151.655C318.938 155.04 319.264 158.488 319.79 161.897C320.62 167.273 321.464 172.644 322.359 178.011C323.514 184.936 324.689 191.858 325.924 198.771C326.693 203.077 327.606 207.359 328.422 211.658C330.057 220.264 331.687 228.868 333.287 237.48C334.091 241.802 334.511 246.146 333.965 250.549C333.56 253.836 333.356 257.153 332.871 260.43C332.543 262.648 331.881 264.819 331.336 267.151C331.536 267.493 331.833 267.931 332.06 268.403C332.775 269.891 332.665 270.64 331.566 271.528C329.409 273.272 327.216 274.974 325.078 276.738C324.58 277.149 324.208 277.73 323.827 278.265C322.454 280.198 321.1 282.147 319.451 284.5C319.441 285.163 319.366 286.356 319.417 287.541C319.601 292.085 317.791 295.874 314.75 299.033C312.924 300.93 310.809 302.599 308.631 304.088C306.227 305.735 303.618 307.083 301.069 308.508C300.263 308.959 299.396 309.386 298.505 309.589C295.102 310.357 292.102 312.113 288.892 313.321C283.435 315.376 277.826 317.077 272.203 318.645C267.354 319.997 262.397 320.96 257.487 322.084C251.12 323.542 244.684 324.26 238.141 324.091C232.971 323.958 227.795 324.045 222.625 323.892C219.18 323.792 215.74 323.485 212.304 323.188C209.533 322.948 206.767 322.605 204.004 322.274C201.763 322.004 199.52 321.747 197.296 321.373C191.406 320.379 185.487 319.597 179.659 318.194C176.453 317.421 173.049 317.484 169.816 316.788C163.458 315.419 157.19 313.641 150.829 312.291C140.79 310.161 131.221 306.503 121.451 303.501C117.783 302.373 114.271 300.736 110.712 299.278C107.761 298.071 104.9 296.626 101.901 295.564C92.5594 292.258 84.1695 287.247 75.858 281.935C67.2239 276.418 59.1291 270.195 50.9539 264.074C45.2103 259.775 40.0005 254.858 34.9943 249.697C28.7886 243.301 22.9507 236.594 17.4865 229.574C14.2292 225.392 11.3643 220.902 8.33647 216.54C7.95841 215.997 7.54661 215.437 7.34225 214.82C6.315 211.737 4.31979 209.224 2.58966 206.555C1.86828 205.443 1.13272 204.331 0.518869 203.158C-0.13558 201.905 -0.145932 200.646 0.711206 199.398C1.30728 198.528 1.78643 197.566 2.22967 196.602C3.22574 194.423 3.20485 194.414 5.49511 193.013ZM63.7374 78.5694C64.0898 78.4798 64.0061 78.5672 63.7999 78.7219C63.0682 79.0002 62.5363 79.4304 62.5907 80.3055C62.2332 80.2685 61.7262 80.0625 61.5442 80.2238C57.9663 83.3504 54.3814 86.4509 51.4926 90.2931C48.5508 94.2052 45.3568 97.9264 42.3648 101.803C41.2011 103.31 39.6326 104.585 38.8386 107.218C42.1469 104.312 44.8788 101.831 47.267 98.9805C50.5847 95.0245 53.9546 91.1102 57.2298 87.1223C59.0719 84.8783 60.7756 82.5203 62.5349 80.1989C62.9367 79.6559 63.3356 79.1124 63.7374 78.5694ZM245.617 133.02C245.168 133.645 244.88 134.287 245.411 135.011C243.921 143.049 244.461 151.138 245.048 159.195C245.329 163.038 245.547 166.871 245.637 170.721C245.703 173.507 245.813 176.291 245.959 179.076C246.148 182.654 246.71 186.239 246.55 189.798C246.188 197.794 246.544 205.719 247.737 213.623C247.933 214.929 247.928 216.267 247.964 217.592C248.041 220.377 247.959 223.173 248.163 225.948C248.768 234.155 249.484 242.353 250.14 250.557C250.203 251.345 250.228 252.156 250.1 252.93C249.967 253.736 249.332 253.915 248.585 253.688L248.688 253.727C247.703 253.468 247.635 252.596 247.558 251.843C247.342 249.743 247.178 247.635 247.065 245.526C246.739 239.456 246.63 233.376 245.871 227.327C245.325 223.003 245.382 218.595 244.697 214.299C243.45 206.443 243.762 198.497 242.939 190.624L242.937 190.708C243.635 190.55 244.242 190.199 244.25 189.44C244.26 188.684 244.283 187.446 243.896 187.259C242.719 186.695 243.018 185.739 242.949 184.921C242.765 182.815 242.714 180.699 242.578 178.589C242.444 176.471 242.139 174.355 242.141 172.236C242.146 165.352 242.974 158.456 241.796 151.591C241.728 151.206 241.784 150.795 241.811 150.397C242.098 146.143 241.846 141.908 241.553 137.663C241.476 136.544 240.993 135.282 241.929 134.206C242.13 133.678 242.328 133.151 242.529 132.623C242.462 132.604 242.395 132.586 242.326 132.566C242.184 133.125 242.042 133.687 241.898 134.246C241.722 133.217 241.426 132.192 241.396 131.161C241.286 127.457 241.243 123.752 241.212 120.046C241.164 114.078 241.13 108.108 241.137 102.141C241.137 101.224 241.408 100.308 241.523 99.3871C242.171 94.2625 242.806 89.1357 243.452 84.0079C243.601 82.8378 243.78 81.6697 243.943 80.4991C244.479 81.2967 244.025 82.6141 245.298 83.2068C245.625 82.4647 246.01 81.8856 246.141 81.2549C246.938 77.3614 247.598 73.4404 248.471 69.5672C248.907 67.6403 249.668 65.7816 250.369 63.9247C250.484 63.6269 251.07 63.5072 251.896 63.0565C250.973 67.6206 249.874 71.5614 248.907 75.5371C248.13 78.7351 247.602 82.034 247.402 85.3175C247.087 90.4725 247.134 95.6514 247.04 100.819C246.988 103.732 246.681 106.677 246.995 109.553C247.371 113.006 247.167 116.437 247.106 119.86C246.995 126.252 247.529 132.576 248.217 138.915C248.603 142.465 248.684 146.056 248.722 149.631C248.773 154.011 248.748 158.354 250.125 162.617C251.189 165.913 251.364 169.312 250.943 172.84C250.426 177.169 250.274 181.573 250.378 185.936C250.469 189.78 250.554 193.607 250.396 197.45C250.297 199.825 250.319 202.266 250.769 204.582C251.361 207.622 251.292 210.638 251.223 213.674C251.081 219.731 252.064 225.654 254.421 231.167C256.247 235.436 257.975 239.71 259.416 244.117C260.943 248.781 262.566 253.415 264.267 258.017C264.764 259.362 265.52 260.68 266.43 261.789C268.652 264.491 271.479 266.448 274.698 267.832C277.451 269.017 280.27 269.485 283.252 268.839C284.806 268.5 286.388 268.292 287.968 268.078C288.851 267.958 288.966 268.767 289.276 269.316C288.963 269.298 288.65 269.279 288.337 269.26C288.381 269.373 288.425 269.484 288.468 269.597C288.724 269.467 288.979 269.336 289.234 269.206C289.733 269.324 290.235 269.56 290.728 269.538C297.589 269.228 303.605 266.842 308.784 262.023C308.721 260.954 308.652 259.783 308.58 258.612C309.058 259.157 309.536 259.705 310.048 260.289C311.273 258.954 311.372 257.48 311.429 256.043C311.481 254.724 311.353 253.395 311.255 252.074C310.855 246.65 310.427 241.229 310.036 235.803C309.98 235.056 309.684 234.21 310.679 233.47C311.367 234.524 311.325 235.708 311.422 236.827C311.776 240.92 311.871 245.049 312.471 249.105C313.25 254.361 313.069 259.408 310.765 264.271C310.71 264.391 310.655 264.525 310.657 264.651C310.689 265.811 310.259 266.606 309.114 267.076C308.862 267.182 308.661 268.12 308.843 268.453C309.751 270.112 311.058 271.535 312.825 272.17C314.365 272.721 316.084 272.774 317.821 273.063C319.419 270.596 321.599 268.956 324.507 268.035C324.932 262.328 325.605 256.659 325.709 250.979C325.812 245.421 325.348 239.852 325.105 234.287C325.041 232.832 324.986 231.358 324.743 229.928C322.879 218.938 320.976 207.959 319.06 196.978C318.904 196.086 318.576 195.227 318.097 193.541C317.785 194.945 317.598 195.528 317.531 196.126C317.082 200.075 316.617 204.021 316.243 207.976C316.083 209.659 315.507 211.343 316.06 213.057L316.056 213.045C315.16 212.118 315.031 211.027 315.14 209.772C315.592 204.513 315.775 199.225 316.415 193.993C317.106 188.333 317.54 182.71 316.747 177.036C316.18 172.985 315.748 168.911 315.092 164.875C314.631 162.031 313.899 159.235 313.285 156.418L313.36 156.584C313.169 155.013 313.045 153.434 312.777 151.876C312.436 149.916 311.893 147.991 311.589 146.028C310.796 140.899 309.681 135.856 308.135 130.895C307.506 128.881 307.248 126.747 306.854 124.66C306.682 123.75 306.709 122.787 306.446 121.907C304.836 116.567 303.488 111.163 302.344 105.708C302.263 105.317 302.159 104.932 302.044 104.55C300.962 100.997 299.799 97.4667 298.804 93.8908C297.029 87.4993 295.308 81.0942 293.655 74.669C292.529 70.3007 291.572 65.8892 290.502 61.5045C290.188 60.2194 289.773 58.9546 289.357 57.6952C288.68 55.6341 287.599 53.8641 285.808 52.5298C284.973 51.9085 284.25 51.087 283.611 50.2534C281.108 46.9895 276.999 43.3316 273.415 41.6214C271.281 40.6045 268.995 39.9075 266.593 38.9964C266.539 38.6832 266.49 38.1611 266.354 37.6615C265.885 35.941 264.239 35.1661 263.158 36.4319C262.029 37.7517 260.75 37.8008 259.341 38.0449C258.749 38.1469 258.055 38.4899 258.331 39.3946C263.715 41.0764 263.876 41.1495 267.609 44.3787C268.602 45.2403 269.553 46.1566 270.478 47.0913C272.339 48.9706 274.219 50.8307 275.989 52.7933C277.078 54.0027 281.853 63.9994 282.291 65.5922C282.645 66.8725 282.91 68.1835 283.364 69.4267C283.911 70.9165 284.505 72.4109 285.273 73.7958C288.058 78.8263 290.322 84.0232 290.92 89.8202C290.974 90.3459 291.121 90.8612 291.223 91.3833C292.156 96.1935 293.121 101 294.007 105.82C294.393 107.905 294.473 110.053 294.952 112.111C296.467 118.598 297.363 125.146 297.544 131.809C297.617 134.456 297.948 137.1 298.176 139.744C298.541 143.972 298.963 148.198 299.282 152.433C299.612 156.801 299.899 161.171 300.106 165.548C300.287 169.387 300.458 173.238 300.396 177.077C300.329 181.332 300.241 185.584 300.954 189.786C301.907 195.41 303.063 200.997 304.004 206.621C305.469 215.39 306.907 224.166 307.269 233.076C307.392 236.117 307.767 239.153 308.167 242.171C308.499 244.667 309.065 247.132 309.462 249.622C309.553 250.195 309.383 250.814 309.336 251.354C308.406 251.333 307.755 251.317 307.105 251.303C305.176 242.615 304.556 233.742 303.341 224.949C301.837 214.033 300.262 203.122 298.378 192.269C297.647 188.058 297.22 183.882 297.09 179.632C296.978 175.924 296.906 172.189 296.41 168.525C295.387 161.011 295.226 153.463 294.962 145.908C294.805 141.405 294.702 136.857 293.954 132.434C293.399 129.157 292.952 125.922 292.767 122.605C292.551 118.772 291.949 114.962 291.537 111.137C291.296 108.896 291.097 106.651 290.871 104.41C290.738 103.092 290.652 101.764 290.433 100.46C289.333 93.9159 287.687 87.4947 285.84 81.1338C285.225 79.0127 283.935 77.0783 282.875 75.0993C282.45 74.3053 281.818 73.6183 281.266 72.8684C281.771 72.2719 282.159 71.8161 282.517 71.3946C282.046 69.931 281.668 68.5211 281.139 67.171C280.509 65.5675 279.833 63.9707 279.019 62.4554C278.46 61.4165 277.73 60.4261 276.902 59.5823C275.855 58.5165 276.6 57.1082 275.884 55.9131C274.424 53.474 272.686 51.4071 270.289 49.9099C269.875 50.2859 269.522 50.6075 268.973 51.1077C268.497 50.054 268.084 49.1333 267.609 48.0854C265.359 48.5484 263.166 48.9982 260.961 49.4544C260.799 48.6909 260.287 48.2353 259.556 48.402C257.761 48.8113 255.978 49.3035 254.222 49.8559C253.843 49.9748 253.152 50.173 253.41 50.9575C255.973 50.432 258.532 49.9089 261.089 49.3853C260.321 50.6027 258.972 50.8394 257.792 51.3934C256.379 52.056 254.948 52.741 253.675 53.6298C250.422 55.9049 248.519 59.1176 247.358 62.8865C246.764 64.8219 246.752 67.1066 244.644 68.3637C244.323 68.5561 244.267 69.2655 244.17 69.7507C244.018 70.5177 243.937 71.2959 243.826 72.0694C243.333 69.6545 242.489 67.2512 242.414 64.8243C242.234 58.8976 240.846 53.3948 237.817 48.295C237.488 47.7399 237.382 47.0522 237.173 46.4266C237.808 46.429 238.708 46.7085 239.038 46.3917C241.832 43.7114 245.323 42.5695 248.928 41.6192C249.427 41.4885 250.122 41.3357 250.322 40.9704C251.181 39.4123 252.773 39.1022 254.158 38.3682C255.763 37.5152 257.456 36.7291 258.917 35.216C258.284 34.6043 257.796 33.996 257.182 33.5634C254.118 31.3931 250.547 30.3082 247.141 28.8498C244.688 27.7992 242.836 28.2526 241.298 30.2344C241.287 31.647 243.113 31.8353 243.096 33.5127C241.777 32.8931 240.643 32.3614 239.347 31.7538C238.703 32.5185 238.084 33.1782 237.556 33.8998C236.822 34.9017 238.356 35.4211 238.127 36.3717C237.504 36.3486 236.879 36.3279 236.253 36.3072C234.851 37.2706 234.253 38.7527 233.647 40.2193C233.251 41.1826 233.459 42.0597 234.214 42.7466C234.798 43.2778 235.487 43.6943 236.088 44.2086C236.802 44.8192 237.426 45.5021 237.258 46.5657C236.682 46.2482 236.002 46.0372 235.553 45.5916C234.402 44.4563 233.265 44.1506 231.614 44.6191C228.952 45.3719 226.166 45.6831 223.463 46.315C222.471 46.5465 221.434 46.9863 220.644 47.6161C217.065 50.4685 214.365 54.1226 212.238 58.0993C210.682 61.0036 209.72 64.2253 208.505 67.312C208.066 68.4223 207.843 69.6587 207.215 70.6412C205.616 73.136 204.744 75.9053 203.783 78.6577C202.648 81.9107 201.656 85.2507 200.148 88.3302C198.14 92.4348 196.855 96.6901 196.053 101.161C194.954 107.291 193.796 113.414 192.465 119.496C191.104 125.713 189.405 131.856 188.031 138.071C186.685 144.153 185.41 150.258 185.512 156.552C185.539 158.133 185.257 159.721 185.098 161.306C184.901 163.282 184.692 165.256 184.48 167.229C184.124 170.524 183.803 173.825 183.386 177.114C183.121 179.216 182.617 181.288 182.382 183.392C181.88 187.872 181.471 192.361 181.05 196.848C180.975 197.636 181.028 198.435 180.994 199.229C180.863 202.409 180.845 205.599 180.549 208.761C180.28 211.642 179.292 214.446 179.751 217.412C179.845 218.019 179.506 218.695 179.367 219.339C177.894 226.158 178.861 232.824 181.036 239.29C182.34 243.169 184.142 246.904 185.973 250.579C187.955 254.554 190.818 257.727 194.739 260.083C199.737 263.088 205.117 264.688 210.787 265.582L210.732 265.54C210.236 265.688 209.707 266.026 209.246 265.953C203.818 265.106 198.719 263.287 193.927 260.606C192.073 259.569 190.178 258.596 188.77 256.928C186.011 253.657 183.686 250.125 182.165 246.096C181.414 244.11 180.615 242.142 179.861 240.158C178.108 235.537 176.736 230.811 177.009 225.817C177.198 222.378 177.533 218.92 178.149 215.534C178.865 211.592 178.934 207.628 179.231 203.663C179.824 195.723 180.642 187.797 181.478 179.878C182.257 172.485 183.183 165.109 184.033 157.724C184.127 156.898 184.184 156.06 183.451 155.125C183.197 155.795 183.004 156.15 182.931 156.524C181.752 162.512 180.591 168.504 179.418 174.493C177.602 183.743 175.938 193.023 174.98 202.404C174.114 210.882 172.61 219.226 170.535 227.482C169.758 230.571 169.062 233.678 168.345 236.779C168.109 237.796 167.67 238.839 169.035 239.541C169.278 239.666 169.283 240.556 169.158 241.028C168.855 242.179 168.435 243.301 168.017 244.42C167.098 246.888 166.153 249.347 165.241 251.757C166.421 252.618 167.421 253.346 168.511 254.142C168.985 252.898 169.398 251.806 169.811 250.714L169.742 250.748C169.936 253.107 170.13 255.466 170.324 257.828C170.424 259.049 170.758 260.189 171.606 261.1C173.049 262.653 174.461 264.241 176.011 265.685C177.199 266.793 178.652 267.386 180.478 266.834C180.469 263.85 180.46 260.969 180.453 257.943C181.318 257.736 181.339 256.261 182.841 256.697C182.458 258.66 182.876 260.666 182.375 262.737C182.022 264.193 182.503 265.851 182.611 267.414C183.663 267.813 184.489 268.125 185.854 268.646C184.8 268.985 184.093 268.859 183.611 269.146C182.978 269.527 182.521 270.19 181.946 270.683C181.765 270.836 181.452 270.837 181.194 270.911C180.814 269.073 180.814 269.073 178.76 268.748C179.099 269.26 179.287 269.767 179.652 270.038C180.139 270.403 180.765 270.583 181.33 270.843C181.413 271.873 182.029 272.714 182.874 273.01C186.101 274.136 189.378 275.154 192.693 274.2C192.7 271.369 192.703 268.751 192.707 266.073C190.981 265.236 190.981 265.236 189.311 265.771C188.484 267.745 190.321 269.85 189.176 271.947C186.704 269.689 188.113 266.825 187.57 264.355C187.495 264.016 188.104 263.525 188.263 263.294C190.621 264.186 192.775 265.005 194.624 265.706C194.534 268.291 194.397 270.52 194.416 272.748C194.42 273.341 194.737 274.252 195.178 274.467C197.397 275.551 199.655 276.666 202.395 276.221C202.411 275.022 202.354 273.97 202.462 272.933C202.584 271.754 202.778 270.568 203.116 269.436C203.211 269.119 204.015 268.737 204.339 268.844C204.663 268.952 204.998 269.659 204.959 270.066C204.913 270.537 204.407 270.943 204.2 271.419C203.543 272.942 203.441 274.5 204.101 276.055C204.427 276.82 204.947 277.455 205.829 277.516C207.524 277.634 209.226 277.676 211.05 277.755C211.141 275.609 211.222 273.682 211.3 271.81C210.382 271.464 209.683 271.197 208.578 270.779C210.318 270.632 211.608 270.411 212.889 270.457C213.79 270.49 214.694 271.137 215.565 271.073C217.652 270.92 219.575 272.65 221.76 271.472C222.335 271.16 223.26 272.489 222.786 272.973C221.537 274.246 221.798 275.584 222.288 277.023C222.443 277.478 222.735 278.052 221.827 278.345C220.432 276.794 220.862 274.623 220.111 272.712C218.025 271.792 215.842 271.791 213.654 271.931C212.395 273.848 212.041 275.695 212.915 277.804C213.472 278.066 214.037 278.451 214.661 278.606C216.84 279.144 219.087 279.449 221.219 280.122C226.262 281.71 231.39 281.756 236.567 281.28C237.35 281.209 238.256 281.19 238.867 280.786C241.522 279.043 244.326 277.415 246.618 275.262C248.601 273.401 249.959 270.876 251.617 268.662C251.947 268.222 252.061 267.373 253.081 267.803C252.964 268.31 252.958 268.882 252.713 269.316C251.746 271.027 251.897 272.849 251.93 274.707C251.957 276.319 252.583 277.402 253.801 278.427C257.195 281.287 261.095 282.681 265.476 282.907C268.656 283.072 271.833 283.276 275.014 283.402C275.622 283.425 276.243 283.174 276.963 283.025C276.481 281.372 276.868 279.401 274.794 278.975C273.002 278.608 271.075 278.404 270.002 280.839C268.846 279.186 267.312 278.773 265.483 278.922C264.036 279.04 262.535 279.077 261.115 278.827C259.807 278.598 258.833 279.131 257.918 279.582C257.305 278.842 256.79 278.123 256.177 277.495C255.443 276.744 254.581 276.116 253.869 275.349C253.559 275.015 253.253 274.436 253.998 274.095C255.283 274.418 255.502 276.368 257.132 276.153C257.903 273.488 258.047 271.183 257.652 268.381C257.505 267.332 257.312 266.272 257.335 265.225C257.343 264.855 257.882 264.4 258.286 264.182C258.454 264.091 259.019 264.44 259.195 264.723C259.47 265.157 259.648 265.692 259.724 266.204C260.001 268.042 260.1 269.853 259.752 271.735C259.431 273.479 258.692 275.31 259.555 277.079C263.467 277.656 265.102 277.587 267.851 276.767C267.908 275.024 267.908 275.024 266.302 274.415C266.157 271.409 268.879 269.19 268.586 266.001C264.656 262.646 262.267 258.293 260.922 253.297C260.509 251.767 259.808 250.317 259.28 248.814C258.268 245.934 257.342 243.023 256.277 240.162C255.355 237.685 254.439 235.184 253.243 232.834C252.206 230.8 251.334 228.75 250.887 226.521C250.392 224.05 249.94 221.572 249.444 219.103C248.997 216.877 248.928 214.661 249.126 212.384C249.31 210.288 249.102 208.153 249.004 206.038C248.859 202.996 248.529 199.956 248.507 196.914C248.483 193.601 248.723 190.284 248.842 186.968C248.957 183.786 248.883 180.582 249.212 177.419C249.753 172.219 249.653 167.034 248.478 161.985C247.263 156.752 247.05 151.505 246.944 146.189C246.875 142.751 246.345 139.321 245.97 135.893C245.937 135.589 245.54 135.328 245.319 135.041C245.89 134.435 245.797 133.753 245.542 133.053C245.382 132.91 245.735 132.256 245.089 132.606C245.268 132.747 245.452 132.879 245.617 133.02ZM244.903 109.278C244.912 108.991 244.921 108.705 244.929 108.421C244.856 108.496 244.703 108.598 244.719 108.637C244.798 108.845 244.922 109.035 245.028 109.23C244.869 110.939 244.713 112.65 244.555 114.358C243.777 117.737 244.092 121.116 244.429 124.465C244.928 124.653 245.294 124.792 245.624 124.953C244.311 126.853 244.33 126.857 245.128 128.266C245.278 127.244 245.445 126.099 245.615 124.952C245.521 123.923 245.362 122.894 245.344 121.862C245.304 119.891 245.359 117.915 245.339 115.941C245.334 115.3 245.322 114.599 244.5 114.388C245.662 112.766 245.803 111.064 244.903 109.278ZM40.6038 235.23C40.8188 235.267 41.0335 235.323 41.2501 235.332C41.35 235.337 41.4545 235.242 41.5545 235.193C41.4439 235.167 41.3327 235.111 41.2252 235.119C40.9957 235.138 40.7668 235.189 40.5401 235.226C40.6771 234.766 41.0789 234.117 40.9067 233.88C39.902 232.491 38.795 231.167 37.6627 229.879C34.5143 226.297 31.3208 222.754 28.166 219.177C26.061 216.792 24.0046 214.365 21.8996 211.98C21.5083 211.538 21.0596 210.947 20.1751 211.626C20.4478 212.058 20.6671 212.526 20.9898 212.907C23.5604 215.935 26.1897 218.912 28.7215 221.973C32.3446 226.354 35.6846 230.986 40.1924 234.561C40.3816 234.709 40.4458 235.009 40.6038 235.23ZM85.2451 236.626C84.7871 238.602 86.1271 240.151 86.5493 241.917C87.547 246.089 90.8445 247.561 94.6447 248.595C96.3013 246.322 96.7681 243.849 97.0889 241.362C97.1589 240.831 96.7492 239.975 96.2951 239.682C92.9431 237.511 89.5755 235.262 85.2346 236.621L85.2451 236.626ZM124.695 258.49C123.761 256.455 122.944 254.358 121.855 252.408C120.969 250.82 120.043 249.004 118.628 248.018C116.624 246.619 114.17 245.822 111.213 245.659C111.435 246.569 111.751 247.156 111.665 247.679C111.566 248.29 110.878 248.84 110.867 249.423C110.822 252.161 111.711 254.65 113.412 256.78C113.874 257.359 114.662 257.856 115.384 258.023C120.189 259.124 124.649 261.113 129.116 263.108C130.93 263.918 132.801 264.622 134.69 265.228C135.326 265.432 136.102 265.192 137.246 265.132C134.785 261.447 133.23 257.83 131.997 254.063C131.809 253.485 131.299 252.932 130.797 252.551C129.887 251.853 125.135 250.632 123.11 250.485C123.122 251.13 122.973 251.81 123.176 252.363C123.724 253.844 124.397 255.284 125.076 256.714C125.422 257.442 125.252 257.969 124.687 258.452L124.695 258.49ZM223.076 37.0487C222.202 36.3011 221.33 35.5538 220.284 34.656C219.737 35.1676 219.218 35.7257 218.621 36.1791C218.293 36.4291 217.834 36.5074 217.22 36.7458C217.543 34.5466 218.856 33.3846 219.975 32.1052C222.495 29.2166 225.206 26.5175 227.482 23.3834C230.077 19.8133 233.416 16.9592 237.879 15.7785C238.457 15.6266 239.248 15.6233 239.395 14.6261C239.218 14.3857 239.053 14.0103 238.766 13.7943C233.819 10.0653 228.144 9.27108 222.183 9.84319C220.372 10.0179 218.593 10.5219 216.682 10.9017C217.398 14.347 218.114 17.7868 218.83 21.2348C219.469 21.2072 220.105 21.1765 220.744 21.1685C220.755 21.1675 220.769 21.4157 220.781 21.5491C217.918 24.0675 218.013 24.0826 217.363 28.1896C216.93 30.9275 216.172 33.6142 215.57 36.3254C215.437 36.922 215.344 37.5252 215.182 38.4108C217.857 38.6047 220.166 38.056 222.395 38.0843C222.646 37.5734 222.82 37.2152 222.992 36.8565C225.398 38.7885 227.999 40.1896 231.3 40.0661C232.494 38.0495 233.729 36.2014 234.175 34.1084C233.375 32.0614 231.715 30.446 232.371 27.8941C233.925 29.1659 233.246 31.5827 235.528 32.2343C236.141 31.4285 236.815 30.5428 237.388 29.7891C236.615 27.8137 234.812 26.6842 234.855 24.3485C237.089 24.7662 239.155 25.1572 241.218 25.5397C243.364 25.9377 245.363 25.7369 247.143 24.1875C245.865 21.791 245.157 19.1967 243.311 17.3505C237.996 17.5831 234.56 19.0718 231.216 22.6994C229.242 24.8414 227.417 27.1161 225.484 29.2982C224.525 30.3819 222.966 31.2395 222.61 32.4689C222.212 33.8344 222.875 35.5075 223.076 37.0487ZM42.0272 195.84C40.3348 195.6 38.6401 195.357 36.9468 195.123C36.0989 195.005 35.1803 195.123 34.9948 196.03C34.4325 198.789 34.4294 201.565 35.5855 204.205C35.8358 204.778 36.4171 205.239 37.1286 204.611C36.8895 197.093 36.8895 197.093 38.2159 196.324C38.3601 196.526 38.6123 196.717 38.6318 196.93C38.7351 198.114 38.773 199.306 38.8532 200.495C38.9505 201.947 38.9844 203.412 39.2137 204.843C39.3102 205.434 39.7193 206.223 40.2064 206.448C41.3916 206.996 42.6861 207.366 43.9745 207.614C44.802 207.773 45.8153 208.082 46.3932 207.203C45.7585 203.723 45.1453 200.372 44.5362 197.031C43.5827 196.609 42.7393 196.232 41.8928 195.858C45.0121 195.348 47.9878 194.438 50.8608 193.081C54.0512 191.573 56.7826 189.609 58.7931 186.654C60.5089 184.13 62.2709 181.633 64.1316 179.219C66.815 175.738 69.0925 172.031 71.0281 168.083C73.245 163.559 75.6305 159.117 78.4744 154.94C80.1898 152.419 82.0281 149.951 83.4713 147.278C85.8725 142.825 88.4517 138.52 91.7105 134.635C92.1308 134.134 92.3933 133.5 92.7323 132.93C96.7253 126.207 100.207 119.18 104.843 112.832C106.477 110.592 107.696 108.051 109.122 105.66C111.232 102.128 113.238 98.5291 115.515 95.11C117.48 92.1588 118.838 88.9324 121.021 85.0624C115.59 90.1658 111.112 94.8132 107.58 100.32C103.784 106.238 99.8508 112.068 96.06 117.99C92.703 123.237 88.9422 128.227 86.0424 133.764C84.0645 137.538 81.5977 140.974 78.8223 144.206C77.7878 145.409 76.9013 146.736 75.9454 148.008C74.5117 149.914 73.0604 151.809 71.6441 153.729C69.1226 157.14 66.4155 160.435 64.1814 164.026C62.622 166.532 60.9276 168.85 58.8988 170.966C55.9591 174.035 52.8479 176.897 49.4346 179.443C47.7104 180.73 45.9118 181.762 43.8388 182.373C41.9329 182.936 40.0031 183.508 38.2171 184.355C33.6725 186.507 29.1232 187.098 24.3976 185.023C23.8381 184.778 23.184 184.389 22.6176 185.283C22.9917 186.064 23.3148 186.937 23.8023 187.707C25.664 190.64 28.0683 192.776 31.7862 192.864C34.0894 192.918 36.1624 193.844 38.282 194.599C39.5262 195.039 40.79 195.426 42.0272 195.84ZM268.662 300.566C267.202 300.537 265.738 300.425 264.281 300.494C256.187 300.877 248.185 301.987 240.223 303.478C235.268 304.405 230.265 305.017 225.208 305.038C216.979 305.073 208.752 305.11 200.523 305.159C189.357 305.223 178.253 304.889 167.332 302.06C160.503 300.292 153.646 298.744 147.527 295.028C146.964 294.687 146.334 294.445 145.714 294.207C137.159 290.914 128.519 287.873 119.632 285.578C116.536 284.778 113.587 283.643 110.69 282.271C108.123 281.057 105.605 279.644 102.718 279.126C103.372 279.802 104.091 280.363 104.862 280.837C108.368 282.991 111.912 285.083 115.402 287.262C126.24 294.028 137.731 299.474 149.549 304.268C151.272 304.965 152.962 305.752 154.71 306.381C159.199 307.991 163.617 309.786 168.389 310.544C172.048 311.125 175.643 312.111 179.264 312.935C182.5 313.67 185.694 314.648 188.965 315.14C196.445 316.268 203.957 317.185 211.462 318.14C212.906 318.324 214.377 318.322 215.834 318.354C221.54 318.491 227.249 318.729 232.955 318.692C237.726 318.661 242.554 318.69 247.254 317.994C254.464 316.929 261.593 315.3 268.742 313.84C272.506 313.071 276.28 312.29 279.797 310.627C280.226 310.424 280.916 310.357 281.309 310.562C282.696 311.296 283.903 310.648 285.133 310.222C288.27 309.139 291.388 308.002 294.52 306.902C299.054 305.31 303.341 303.249 307.289 300.469C309.387 298.989 311.029 297.091 312.578 295.114C313.274 294.226 314.018 293.2 313.617 291.675C313.125 291.723 312.492 291.592 312.166 291.851C310.419 293.243 308.305 293.515 306.247 294.014C302.117 295.013 297.998 296.044 293.887 297.118C289.134 298.36 284.397 299.662 279.657 300.944C276.544 301.785 273.345 301.673 270.171 301.837C269.25 301.884 268.657 301.463 268.625 300.482C268.728 300.535 268.825 300.609 268.933 300.634C269.024 300.657 269.13 300.626 269.229 300.62C269.036 300.603 268.849 300.585 268.662 300.566ZM283.052 295.421C282.57 295.588 282.089 295.892 281.603 295.905C273.912 296.105 266.224 296.645 258.532 295.895C256.95 295.739 255.349 295.679 253.759 295.71C247.111 295.838 240.5 295.273 233.898 294.636C230.864 294.344 227.852 293.786 224.813 293.577C208.27 292.43 191.72 291.363 175.175 290.244C165.487 289.589 155.893 288.144 146.494 285.78C134.735 282.824 123.606 278.094 112.8 272.631C102.61 267.477 92.3374 262.509 81.8717 257.932C75.9106 255.326 70.1258 252.331 64.6259 248.842C62.5935 247.553 60.6242 246.095 59.321 243.944C60.6682 244.545 61.8815 245.322 63.1177 246.059C66.423 248.03 69.6236 250.222 73.0771 251.892C80.6019 255.534 88.1896 259.06 95.8775 262.342C101.505 264.745 106.97 267.446 112.417 270.208C115.848 271.947 119.288 273.674 122.791 275.26C136.076 281.272 150.012 285.028 164.448 286.934C168.391 287.455 172.368 287.72 176.337 288.027C185.329 288.72 194.323 289.363 203.319 290.025C211.524 290.627 219.738 291.096 227.927 291.861C237.712 292.774 247.497 293.467 257.319 293.794C269.674 294.202 282.005 293.366 294.349 293.264C300.38 293.215 306.172 291.8 311.856 289.889C312.608 289.637 313.412 289.431 314.069 289.01C314.579 288.682 315.193 288.086 315.249 287.558C315.461 285.493 315.467 283.408 315.563 280.997C314.539 281.268 313.79 281.39 313.104 281.665C310.147 282.841 307.271 284.27 304.245 285.217C299.19 286.796 294.071 288.233 288.644 287.551C287.754 287.438 286.812 287.68 285.899 287.799C284.192 288.021 282.492 288.274 280.789 288.508C277.637 288.94 274.445 289.187 271.338 289.834C264.395 291.279 257.409 291.72 250.352 291.241C248.615 291.122 246.855 291.059 245.246 289.675C256.628 290.9 266.9 290.182 272.219 287.795C270.933 287.005 269.586 287.303 268.292 287.28C263.142 287.184 258.319 286.167 254.207 282.757C252.613 281.434 250.805 280.371 248.983 279.11C247.33 280.193 245.824 281.465 244.465 282.916C242.16 285.38 239.367 286.624 235.96 286.512C235.115 286.485 234.262 286.694 233.414 286.792C233.398 286.962 233.382 287.136 233.363 287.306C234.211 287.583 235.06 287.857 235.908 288.134L235.868 288.03C235.414 288.195 234.919 288.57 234.509 288.494C229.937 287.622 225.332 287.112 220.679 286.946C219.506 286.903 218.35 286.458 217.177 286.236C214.705 285.766 212.243 285.215 209.75 284.89C203.566 284.085 197.326 283.861 191.157 282.801C185.915 281.902 180.761 280.729 175.604 279.455C168.901 277.796 162.173 276.276 155.845 273.425C154.269 272.714 152.678 272.628 151.248 273.452C149.157 274.653 146.933 274.645 144.682 274.616C139.067 274.541 133.643 273.186 128.199 272.014C127.445 271.853 126.755 271.386 126.043 271.047C124.013 270.078 121.997 269.074 119.952 268.13C117.183 266.85 114.365 265.672 111.616 264.354C105.152 261.252 98.7295 258.061 92.2615 254.966C87.9582 252.907 83.5442 251.018 79.5706 248.377C73.9301 244.628 68.7294 240.289 63.9683 235.452C62.7594 234.223 61.5941 232.949 60.3352 231.771C58.095 229.675 56.1106 227.377 54.4416 224.798C53.2039 222.886 51.6265 221.284 49.836 219.879C46.081 216.935 42.3465 213.965 38.5874 211.028C38.0748 210.628 37.4993 210.202 36.8889 210.049C33.7736 209.28 30.8825 208.048 28.396 205.919C27.8974 206.544 27.5352 206.996 27.0536 207.602C26.261 205.614 25.7653 203.641 24.7386 202.002C23.7014 200.343 22.1394 199.014 20.8076 197.537C20.7197 197.439 20.6331 197.333 20.5609 197.224C17.6759 192.773 14.7939 188.32 11.9092 183.866C11.563 183.333 11.2038 182.813 10.8596 182.303C8.49949 183.598 7.38866 184.417 6.98766 185.715C6.74055 186.518 6.9781 187.472 7.00107 188.44C8.35883 188.286 9.50656 187.321 10.6262 188.619C10.5187 190.006 10.54 191.479 10.2684 192.896C9.68091 195.956 10.7807 198.369 12.8971 200.434C16.7744 204.214 19.6456 208.965 24.2173 212.084C24.8532 212.517 25.2841 213.256 25.8038 213.858C29.3526 217.984 32.8784 222.131 36.4592 226.23C38.8141 228.926 41.253 231.551 43.6538 234.203C45.4308 236.17 47.1817 238.16 48.9979 240.091C50.3621 241.54 51.8383 242.88 53.2156 244.317C54.6931 245.862 56.3454 247.132 58.208 248.204C65.2359 252.248 72.0106 256.655 77.8426 262.374C80.4249 264.904 83.3928 266.889 86.7671 268.247C87.8733 268.693 89.0064 269.146 89.9972 269.792C93.2584 271.918 96.8927 273.189 100.47 274.608C105.407 276.563 110.336 278.542 115.224 280.615C120.607 282.898 126.047 284.98 131.668 286.646C136.241 288.004 140.714 289.735 145.14 291.531C152.713 294.602 160.503 296.617 168.679 297.043C171.463 297.19 174.259 297.199 177.024 297.497C185.198 298.379 193.377 299.262 201.521 300.372C205.614 300.93 209.707 301.155 213.818 301.285C217.133 301.391 220.453 301.558 223.77 301.532C229.205 301.489 234.651 301.517 240.071 301.15C249.87 300.484 259.657 299.617 269.437 298.687C273.262 298.325 277.046 297.557 280.856 297.008C281.869 296.861 282.569 296.373 282.991 295.47C283.173 295.558 283.358 295.646 283.54 295.733C283.54 295.733 283.534 295.749 283.533 295.76C283.376 295.654 283.216 295.537 283.052 295.421ZM124.922 34.7069C123.432 35.1364 121.916 35.4948 120.458 36.0188C118.967 36.5545 117.541 37.2793 116.061 37.8503C115.788 37.9552 115.389 37.7383 114.574 37.573C115.374 36.9504 115.795 36.4944 116.315 36.2327C121.547 33.6054 126.232 30.1061 131.12 26.9323C134.372 24.822 134.96 23.2239 134.318 18.8734C133.69 19.1627 133.083 19.3796 132.537 19.7014C129.564 21.4477 126.695 23.3951 123.622 24.9384C119.559 26.9791 115.908 29.5072 112.46 32.4698C103.181 40.4446 94.8023 49.2522 87.2097 58.8326C85.4842 61.0111 83.6714 63.1228 81.9431 65.3009C78.5657 69.5633 73.9747 72.6806 70.7899 77.1217C64.8587 82.4729 60.041 88.8249 54.8218 94.817C51.167 99.0133 47.6442 103.311 43.5692 107.142C41.0707 109.489 38.9071 112.211 36.7248 114.873C34.9682 117.019 33.4121 119.327 31.7686 121.606C31.7057 121.898 31.6455 122.19 31.5826 122.482C31.6126 122.487 31.6429 122.489 31.6733 122.491C31.7101 122.169 31.7498 121.849 31.7866 121.527C32.6178 121.645 33.449 121.762 34.2806 121.877L34.259 121.801C31.4328 125.477 28.6634 129.201 25.7604 132.815C23.4528 135.687 21.6977 139.06 18.4173 141.101C17.9364 141.403 17.5063 142.212 17.5047 142.788C17.5049 145.226 16.0325 147.729 17.8185 150.117C18.0883 150.478 17.9609 151.143 18.0125 151.665C18.0906 152.443 18.0334 153.265 18.2799 153.986C18.4799 154.576 19.0376 155.045 19.8499 156.113C17.3443 155.129 16.4139 153.836 16.4642 151.909C16.5084 150.27 16.2487 148.82 14.8838 147.835C14.45 148.016 14.1037 148.047 13.9827 148.23C12.4375 150.54 10.561 152.72 9.50469 155.245C8.40342 157.877 7.8741 160.728 8.69998 163.777C9.82653 167.947 12.1736 171.469 13.8627 175.264C15.5864 175.235 16.2137 173.849 17.2648 173.107C18.0956 172.52 18.9044 172.249 20.0665 173.137C18.8815 176.298 19.3302 179.452 20.9349 182.102C22.7385 182.787 24.2452 183.282 25.6875 183.919C28.6429 185.222 31.6174 185.167 34.6202 184.191C37.7705 183.166 40.9347 182.16 44.0409 181.008C45.3863 180.508 46.7269 179.825 47.8549 178.95C51.7384 175.942 55.4161 172.697 58.735 169.051C60.0818 167.57 61.339 166.072 62.3647 164.342C64.605 160.571 67.2512 157.095 70.0338 153.695C73.8073 149.084 77.3391 144.27 80.9444 139.521C81.6646 138.573 82.3454 137.573 82.8845 136.515C85.9086 130.581 89.7559 125.169 93.4361 119.646C96.8226 114.566 100.163 109.456 103.565 104.39C105.927 100.87 108.197 97.2675 110.804 93.9315C114.803 88.8141 119.108 83.9352 123.175 78.8677C125.323 76.1914 127.393 73.4272 129.227 70.5278C131.921 66.2719 134.386 61.8735 136.92 57.5167C138.721 54.4193 140.461 51.287 142.262 48.1895C143.044 46.8458 143.916 45.5581 144.829 44.1203C143.246 43.6967 142.34 44.5344 141.384 45.1351C137.789 47.3953 134.246 49.7364 130.628 51.9537C124.975 55.4175 119.258 58.7787 113.611 62.2488C112.035 63.2155 110.525 64.3296 109.129 65.5399C107.296 67.1283 105.22 68.2648 103.037 69.236C102.773 69.3535 102.359 69.1427 102.059 69.0925C101.78 67.891 102.696 67.5635 103.287 67.1624C108.006 63.9619 112.698 60.718 117.521 57.6764C123.806 53.7118 130.207 49.9304 136.548 46.0529C139.708 44.1208 142.843 42.1485 145.915 40.2416C146.689 40.666 147.247 40.9751 147.951 41.3633C148.683 40.9256 149.55 40.5512 150.243 39.9704C151.969 38.5272 153.672 37.0438 155.284 35.4762C157.871 32.9561 160.702 30.8238 163.973 29.2448C165.256 28.626 166.372 27.6676 167.505 26.902C167.345 25.7222 167.249 24.8125 167.095 23.9105C166.357 19.5812 164.318 16.2172 160.097 14.4482C159.119 14.0391 158.215 13.446 157.231 13.0611C156.122 12.6285 154.972 12.2872 153.815 11.998C152.592 11.6927 151.379 10.9837 150.006 11.5324C149.948 13.3123 150.656 15.1462 148.757 16.3525C148.368 15.5613 148.004 14.8217 147.524 13.8484C143.892 15.1411 140.847 16.9125 138.493 19.7295C138.031 20.2825 137.571 21.3167 137.787 21.8569C138.248 23.006 138.065 23.7234 137.378 24.705C136.515 25.9409 136.659 26.0391 138.418 27.5502C139.176 27.1277 139.975 26.6672 140.79 26.237C142.609 25.2669 144.18 23.6761 146.616 24.3745C147.207 24.5435 148.039 23.7722 148.787 23.516C150.513 22.9225 151.947 21.5085 153.945 21.6904C153.927 21.9139 153.908 22.1401 153.889 22.3663C154.028 22.1927 154.17 22.0195 154.31 21.8431C155.925 21.8611 156.866 20.5955 158.079 19.8538C158.838 19.3895 159.567 18.8787 160.594 18.1998C160.544 18.9773 160.657 19.448 160.471 19.6647C159.785 20.4675 159.029 21.2172 158.246 21.9291C156.676 23.3551 154.805 24.5407 153.543 26.1943C151.772 28.5167 149.47 29.9387 147.007 31.2514C146.54 31.5017 146.047 31.7173 145.612 32.0146C136.727 38.1173 127.07 42.9156 117.872 48.4907C115.26 50.0733 112.499 51.4479 110.055 53.2528C108.466 54.4271 106.957 55.1863 105.165 54.8329C100.36 59.725 97.2182 63.6669 94.1008 68.6358C93.3266 69.8719 92.5515 71.1133 91.6723 72.2713C91.4042 72.623 90.7868 72.7098 90.3291 72.917C90.1892 72.4588 89.8496 71.955 89.9416 71.5502C90.4526 69.2914 91.7813 67.447 93.2309 65.7056C95.4395 63.0528 97.6994 60.4473 99.9574 57.8359C100.474 57.2383 101.035 56.6645 101.631 56.1467C104.539 53.6157 107.545 51.2541 111.077 49.5849C113.349 48.5103 115.449 47.0759 117.636 45.8173C122.236 43.1683 126.827 40.4981 131.451 37.8921C134.803 36.0043 138.216 34.2213 141.576 32.3461C142.051 32.0803 142.895 31.8868 142.543 30.9673C139.087 30.4961 139.054 30.4237 136.081 31.7592C133.439 32.9457 130.863 34.2825 128.289 35.6169C126.17 36.7156 124.068 37.8618 122.012 39.074C120.875 39.7411 119.499 40.3648 118.835 41.3975C117.353 43.7011 114.861 44.4307 112.816 45.8348C112.124 46.3094 111.288 46.113 110.866 45.1405C111.21 43.8531 112.382 43.4067 113.371 42.789C114.382 42.1578 115.441 41.5985 116.436 40.9452C118.651 39.4898 120.823 37.969 123.049 36.5321C123.833 36.0245 124.716 35.6777 124.872 34.6011C128.698 33.5264 131.834 31.1124 135.249 29.2404C135.356 29.1819 135.465 29.0594 135.5 28.9447C135.577 28.708 135.726 28.385 135.631 28.2246C135.448 27.9134 135.157 27.5626 134.837 27.4618C134.51 27.3596 134.006 27.4168 133.729 27.6134C130.654 29.8076 127.492 31.8904 124.922 34.7069ZM65.9728 209.386C67.2289 211.095 68.4214 212.851 69.754 214.499C72.0003 217.281 74.3201 220.004 76.6399 222.728C77.4365 223.664 78.1763 224.589 77.9272 225.917C77.7249 226.983 78.2428 227.702 79.0175 228.3C80.0664 229.109 81.0909 229.967 82.2016 230.685C85.3472 232.712 88.6397 234.393 92.4011 235.019C93.5697 235.212 94.6619 235.888 95.8293 236.036C97.0543 236.191 98.329 235.979 99.2156 235.94C100.243 237.134 100.901 238.412 101.95 239.011C104.121 240.255 106.454 241.25 108.797 242.149C114.233 244.239 119.696 246.263 125.189 248.208C127.177 248.912 129.25 249.522 131.334 249.795C137.518 250.603 143.724 251.233 149.928 251.898C150.557 251.967 151.209 251.822 151.978 251.767C152.693 250.413 153.465 249.171 154.025 247.839C155.003 245.512 155.894 243.148 156.74 240.769C157.359 239.03 158.072 237.312 157.739 235.356C157.564 234.325 158.339 233.732 159.262 233.341C159.54 236.641 158.904 239.758 157.823 242.777C156.886 245.396 155.769 247.947 154.745 250.536C154.541 251.049 154.503 251.554 155.431 251.888C156.097 251.281 156.849 250.573 157.635 249.9C157.748 249.804 158.017 249.891 158.254 249.892C158.235 250.454 158.218 250.971 158.199 251.496C158.855 251.695 159.517 251.895 160.175 252.094C157.207 253.455 155.025 255.57 152.741 257.546C152.347 257.886 151.863 258.184 151.369 258.338C149.293 258.988 148.218 260.584 147.223 262.515C149.356 264.046 151.765 263.804 154.105 263.855C155.582 263.887 156.629 263.167 157.286 261.859C158.536 259.365 159.775 256.867 161.031 254.373C162.902 250.655 163.901 246.676 164.656 242.608C165.841 236.213 167.056 229.819 168.353 223.444C169.647 217.066 171.015 210.719 171.628 204.21C172.238 197.735 172.989 191.254 174.103 184.85C175.877 174.643 178.013 164.501 179.975 154.326C180.275 152.763 180.513 151.185 180.699 149.605C181.597 141.951 182.566 134.305 184.246 126.777C184.968 123.54 185.646 120.259 186.774 117.156C188.605 112.123 189.622 106.928 190.515 101.691C190.573 101.36 190.31 100.974 190.207 100.65C189.988 100.624 189.827 100.548 189.734 100.601C186.053 102.685 182.387 104.797 178.694 106.866C178.145 107.173 177.488 107.318 176.861 107.445C176.702 107.479 176.386 107.199 176.295 106.995C176.206 106.794 176.217 106.41 176.353 106.277C176.724 105.911 177.156 105.582 177.612 105.33C181.225 103.358 184.879 101.451 188.459 99.4207C189.464 98.85 190.409 98.0492 191.14 97.1557C191.872 96.2568 192.146 93.5047 192.036 91.2456C191.135 91.6034 190.266 91.8489 189.497 92.2751C186.012 94.2003 182.526 96.1256 179.104 98.1588C177.824 98.9179 176.572 99.6255 175.069 99.656C174.763 99.6635 174.3 99.3528 174.18 99.0737C174.057 98.7888 174.144 98.1707 174.356 98.0282C175.565 97.2271 176.8 96.4497 178.098 95.8081C182.623 93.5692 187.169 91.3756 191.721 89.1914C192.586 88.7776 193.333 88.3143 193.742 87.3895C194.47 85.738 195.253 80.615 195.103 77.9581C192.963 78.3688 191.133 79.3567 189.381 80.4465C189.465 81.153 189.535 81.7344 189.618 82.4323C187.043 83.2297 184.662 84.0383 182.241 84.6924C180.355 85.2018 179.062 84.8743 179.079 84.0916C179.114 82.7273 180.352 82.462 181.239 82.0293C185.3 80.0553 189.416 78.1961 193.489 76.2493C194.314 75.8543 195.294 75.4223 195.753 74.7149C196.38 73.752 196.646 72.5278 196.931 71.382C197.133 70.5642 197.577 69.6337 196.591 68.7117C191.759 70.93 186.968 73.1714 182.319 75.715C181.453 76.1901 180.634 77.2514 179.464 76.4458C178.819 75.9999 179.672 74.849 181.371 73.9158C181.837 73.6596 182.323 73.4459 182.804 73.2172C187.13 71.1761 191.453 69.1317 195.781 67.0965C198.738 65.7053 199.368 64.7066 199.51 61.0196C199.119 61.1031 198.723 61.1159 198.391 61.2703C194.065 63.2806 189.579 64.9694 185.581 67.6437C185.252 67.8657 184.894 68.1333 184.526 68.184C184.049 68.2455 183.383 68.2855 183.092 68.0188C182.609 67.5734 183.004 67.0041 183.459 66.7099C184.461 66.0634 185.471 65.4041 186.55 64.9095C190.649 63.031 194.763 61.1772 198.902 59.3859C201.362 58.3216 202.029 57.446 202.037 54.6407C199.624 55.0641 197.648 56.4817 195.452 57.3223C194.476 57.6962 193.602 58.3407 192.673 58.845C190.697 59.9189 188.757 61.0656 186.723 62.0157C185.588 62.5461 184.266 62.952 183.065 61.4985C183.633 61.1216 184.028 60.7647 184.489 60.572C189.869 58.3121 195.269 56.0914 200.644 53.8165C201.602 53.4119 202.877 53.0405 203.321 52.2638C204.552 50.1048 205.89 47.879 205.629 45.2044C205.527 44.1708 205.618 42.9776 205.125 42.1533C203.997 40.2725 203.136 38.1348 200.666 37.3136C199.516 36.9305 198.369 36.0166 198.492 34.3198C198.529 33.8057 197.989 33.0857 197.508 32.7328C195.588 31.3138 193.614 29.9589 191.6 28.6786C191.092 28.3551 190.362 28.3766 189.728 28.2651C187.961 27.9493 186.608 26.4829 184.698 26.4687C184.441 26.4672 184.277 25.5299 183.918 25.1797C183.48 24.7498 182.86 24.1485 182.364 24.1903C178.551 24.5123 174.659 24.5171 171.329 26.9254C168.428 29.0242 165.448 31.0211 162.469 33.0125C160.24 34.5048 158.367 36.3387 156.674 38.4189C155.088 40.3707 153.424 42.3045 151.557 43.9799C147.849 47.3068 144.925 51.2524 142.467 55.4955C139.206 61.1238 136.33 66.9722 133.218 72.6882C130.87 76.999 128.546 81.3304 125.974 85.5077C122.22 91.5976 119.414 98.2594 114.892 103.892C114.237 104.706 113.884 105.757 113.363 106.683C111.869 109.343 110.574 112.151 108.809 114.62C105.553 119.175 102.935 124.095 100.061 128.87C97.3974 133.302 94.4102 137.536 91.5836 141.869C88.3212 146.871 85.0507 151.872 81.8368 156.904C80.3387 159.252 78.9319 161.66 77.5383 164.073C75.2134 168.096 73.0468 172.215 70.6074 176.168C65.7841 183.986 61.3387 191.979 58.364 200.711C57.904 202.064 57.0909 203.369 57.4433 204.87C58.5533 206.158 59.9886 206.22 61.4834 206.225C62.7181 206.23 63.8631 206.537 64.3275 207.913C63.6119 207.506 62.8023 207.146 62.1506 207.82C61.7397 208.244 61.3747 208.997 61.4382 209.55C61.7791 212.519 62.7273 215.308 65.5011 216.84C66.8842 217.604 67.8016 218.713 68.3959 219.939C69.7267 222.677 72.2213 223.711 74.7353 225.171C74.8709 224.544 75.1227 224.101 74.9959 223.86C74.439 222.821 73.9482 221.648 73.1093 220.872C70.3425 218.324 68.7089 214.974 66.5704 211.988C66.1009 211.316 66.1612 210.263 65.9728 209.386ZM132.327 302.178C131.354 301.423 130.985 301.032 130.53 300.8C126.273 298.626 122.515 295.572 118.034 293.789C117.064 293.404 116.234 292.674 115.329 292.123C110.234 289.008 105.287 285.609 100 282.861C93.977 279.727 88.5662 275.64 82.6294 272.403C80.3014 269.785 77.0027 268.514 74.2112 266.546C70.9672 264.258 67.7335 261.957 64.5483 259.58C58.8181 255.303 53.8435 250.066 47.6978 246.312C47.2516 246.04 46.9068 245.605 46.5063 245.257C44.4997 243.522 42.5555 241.711 40.4717 240.076C31.5849 233.099 25.0466 224.017 18.2585 215.189C15.2769 211.312 13.0836 206.853 9.85125 203.113C8.91542 202.032 8.36613 200.609 7.69002 199.317C7.32334 198.613 7.17109 197.773 6.71067 197.149C6.39946 196.731 5.71835 196.584 5.11386 196.27C4.38653 197.846 3.77877 199.162 3.17093 200.477C2.6184 201.673 2.72023 202.796 3.53593 203.842C6.3129 207.404 8.85552 211.121 10.9856 215.114C11.2936 215.694 11.7535 216.197 12.1564 216.725C16.0232 221.773 19.628 227.012 24.0984 231.601C28.5395 236.164 32.7217 240.985 36.9291 245.771C46.1411 256.241 57.5252 264.13 68.6042 272.356C73.7095 276.15 79.2251 279.398 84.6171 282.792C86.9711 284.274 89.4088 285.669 91.9389 286.815C97.9873 289.559 104.158 292.039 110.202 294.795C117.103 297.944 124.06 300.864 132.327 302.178ZM215.551 17.9096C215.963 15.8894 214.794 14.3934 214.553 12.7173C214.125 9.73128 212.293 8.04377 209.59 7.09061C208.467 6.69498 207.385 6.06254 206.233 5.88594C201.099 5.099 195.974 4.6488 190.89 6.3798C189.282 6.92779 188.039 7.68156 187.247 9.47109C188.603 11.1335 189.811 13.0913 191.476 14.5119C192.776 15.6205 194.171 16.5623 195.273 17.9304C196.454 19.3945 197.63 19.4856 199.513 18.7324C200.99 18.1415 202.469 17.5423 203.966 17.0021C204.405 16.8423 204.996 16.6059 205.2 17.3818C203.852 19.2063 201.254 19.497 200.032 21.389C200.411 22.3659 201.236 22.0826 201.783 22.3705C202.474 22.737 203.152 23.1349 203.858 23.5317C208.118 22.1874 212.019 20.3055 215.551 17.9096ZM170.06 24.905C171.076 24.0873 171.915 23.4653 172.692 22.7749C173.996 21.6171 175.435 20.6678 177.105 20.1829C180.566 19.1761 183.584 17.2048 186.857 15.7911C187.31 15.5944 187.682 15.2059 188.226 14.8056C187.804 14.0093 187.593 13.1709 187.062 12.69C184.838 10.6861 182.946 8.4104 180.201 6.85251C176.905 4.98369 173.839 4.60772 170.395 5.79319C169.395 6.13824 168.38 6.47799 167.347 6.68079C165.85 6.97503 164.626 7.50532 163.892 8.99933C163.298 10.208 162.179 10.4447 160.845 10.27C159.725 10.1208 158.507 9.86947 157.148 10.809C158.477 11.4943 159.577 12.1185 160.722 12.6405C164.966 14.5755 167.709 17.7544 168.943 22.2657C169.175 23.1157 169.627 23.9 170.06 24.905ZM164.26 252.958C163.218 255.231 162.508 256.77 161.815 258.321C161.793 258.371 161.968 258.505 162.05 258.602C162.302 258.655 162.551 258.759 162.803 258.757C163.433 258.751 164.236 258.444 164.397 259.367C164.473 259.807 164.234 260.384 163.964 260.783C162.926 262.31 161.649 263.701 160.776 265.313C159.425 267.811 159.953 269.507 162.339 271.07C164.138 272.249 166.155 272.853 168.275 273.253C171.006 273.766 173.796 274.21 176.388 275.159C180.042 276.498 183.763 277.201 187.602 277.652C192.476 278.225 197.319 279.066 202.176 279.795C207.558 280.605 212.938 281.436 218.325 282.216C219.336 282.362 220.377 282.303 222.103 282.364C220.471 281.745 219.517 281.216 218.501 281.031C215.763 280.528 212.989 280.215 210.246 279.741C207.767 279.316 205.217 279.038 202.854 278.231C198.518 276.751 194.098 275.993 189.559 276.08C186.29 276.142 183.602 274.965 181.2 272.921C179.281 271.287 177.383 269.628 175.508 267.945C171.62 264.46 168.179 260.642 166.229 255.671C165.919 254.875 165.211 254.241 164.26 252.958ZM57.2307 220.527C58.7815 224.171 59.6263 225.632 61.6182 227.3C63.6476 228.997 65.716 230.677 67.9401 232.097C72.3049 234.881 76.672 237.632 80.4888 241.176C81.3538 241.981 82.3984 242.605 83.3974 243.252C83.8109 243.519 84.3283 243.623 84.816 243.809C84.9506 243.347 85.1528 243.041 85.0729 242.874C83.7067 240.025 82.3838 237.149 80.8562 234.383C80.4738 233.691 79.4 233.392 78.6713 232.875C78.4704 232.731 78.3638 232.451 78.2163 232.235C77.1534 230.666 75.6774 229.589 74.1146 228.548C69.3244 225.361 65.3357 221.331 61.8776 216.739C60.0693 214.334 58.8367 211.788 58.9011 208.695C58.9127 208.127 58.5896 207.36 58.1588 207.027C57.733 206.696 56.9726 206.803 56.2341 206.7C55.4543 208.572 54.7452 210.28 54.0312 211.984C53.2055 213.952 53.938 215.631 55.1098 217.147C55.6645 217.864 56.4226 218.478 57.1947 218.969C59.6538 220.53 62.1692 221.998 64.643 223.536C65.2818 223.933 65.8404 224.466 67.0704 225.438C62.8827 224.574 60.4972 221.913 57.2307 220.527ZM208.068 49.4366C207.522 50.8737 206.937 52.081 206.607 53.351C205.535 57.4611 204.533 61.5877 203.56 65.7219C203.227 67.1395 203.008 68.592 202.857 70.0413C202.811 70.4756 203.044 71.1554 203.373 71.3584C203.908 71.6862 204.319 71.2062 204.535 70.6729C204.635 70.4288 204.704 70.1685 204.804 69.9244C206.495 65.7417 208.222 61.5731 209.873 57.3757C211.626 52.9206 214.729 49.5065 218.152 46.3135C219.372 45.1759 220.836 44.6164 222.467 44.4858C223.26 44.4212 224.07 44.5297 224.853 44.4216C226.554 44.1847 228.256 43.9201 229.926 43.5273C230.294 43.4403 230.759 42.7619 230.749 42.3661C230.739 41.9899 230.174 41.621 229.833 41.268C229.749 41.182 229.594 41.1519 229.464 41.1258C225.009 40.217 220.517 39.8501 216.026 40.7051C213.775 41.1345 211.829 42.2132 210.528 44.2884C209.472 45.9829 208.305 47.6013 208.068 49.4366ZM266.748 47.0966C265.114 44.8478 263.881 43.1154 261.751 42.96C256.154 42.5555 250.602 42.8959 245.267 44.8977C243.502 45.5604 241.95 46.5197 240.697 48.0071C240.637 49.9989 240.411 51.9172 241.715 53.7335C242.28 54.5218 242.227 55.7601 242.441 56.7946C242.918 59.0925 243.388 61.3918 243.834 63.5561C244.822 63.7935 245.201 63.3559 245.172 62.8174C245.099 61.5089 244.701 60.2103 245.373 58.9329C246.421 56.9379 247.28 54.8265 248.498 52.9422C251.413 48.4388 255.533 46.2142 261.011 46.874C262.064 47.0014 263.125 47.0798 264.184 47.1355C264.825 47.1697 265.47 47.1208 266.748 47.0966ZM304.495 267.467C301.898 268.21 299.849 268.901 298.364 270.852C297.69 271.735 296.475 272.244 295.438 272.804C293.696 273.745 291.924 274.63 290.126 275.461C289.071 275.948 288.46 276.735 288.171 277.801C287.824 279.077 287.448 280.376 288.789 281.67C289.535 281.478 290.521 281.449 291.235 280.995C292.786 280.01 294.257 278.873 295.655 277.674C296.648 276.82 297.455 275.748 298.371 274.797C299.241 273.895 299.594 273.962 300.908 275.14C301.082 275.296 301.337 275.364 301.881 275.637C303.228 273.198 305.097 270.995 304.495 267.467ZM111.201 257.029C111.233 256.332 111.352 255.929 111.252 255.592C110.571 253.323 109.822 251.075 109.142 248.803C108.62 247.063 107.607 245.785 105.956 244.984C104.653 244.35 103.401 243.604 102.093 242.984C101.693 242.792 101.176 242.842 100.53 242.756C100.529 246.225 101.364 249.256 102.267 252.258C102.684 253.647 103.769 254.355 105.035 254.443C105.869 254.03 106.531 253.701 107.256 253.341C107.466 254.344 107.623 255.099 107.82 256.047C108.891 256.359 109.966 256.671 111.201 257.029ZM106.851 257.526C109.812 259.479 112.006 260.826 114.389 261.863C118.515 263.659 122.641 265.461 126.773 267.246C127.623 267.613 128.492 267.938 129.366 268.238C130.771 268.723 131.923 267.84 133.169 267.476C133.817 267.285 134.442 267.059 134.305 265.908C131.497 264.804 128.577 263.602 125.614 262.504C122.274 261.265 119.02 259.725 115.34 259.629C114.586 259.608 113.853 259.117 113.095 258.905C111.356 258.417 109.646 257.758 106.851 257.526ZM256.137 23.5055C255.531 24.5668 255.65 25.455 254.552 25.5385C252.846 25.6684 251.149 25.9366 249.461 26.2174C248.838 26.3201 248.148 26.5297 248.247 27.5683C248.781 27.8122 249.356 28.1324 249.968 28.3494C253.106 29.4496 256.068 30.9077 258.856 32.7212C259.523 33.1538 260.172 33.6255 260.884 33.9646C262.044 34.5143 263.175 34.4164 264.363 33.4638C263.16 29.0135 260.102 26.1482 256.137 23.5055ZM139.342 264.022C140.76 260.71 142.055 257.703 143.327 254.684C143.416 254.469 143.341 254.183 143.346 253.641C140.068 253.333 136.816 252.424 133.295 252.929C133.228 255.865 134.696 258.118 135.798 260.45C136.454 261.848 137.32 263.215 139.342 264.022ZM167.417 299.351C174.509 302.637 196.387 304.762 202.079 302.814C198.481 302.373 195.147 302.245 191.95 301.516C183.88 299.677 175.657 299.883 167.417 299.351ZM214.765 32.7738C211.038 34.1382 207.423 35.2433 203.813 36.9254C204.672 39.1856 206.22 40.7276 207.449 42.4959C209.285 41.4948 210.929 40.6424 212.523 39.7037C213.065 39.3842 213.672 38.9239 213.907 38.3768C214.63 36.7022 215.197 34.9581 214.765 32.7738ZM315.111 276.962C314.825 276.525 314.733 276.223 314.534 276.102C312.516 274.899 310.48 273.725 308.281 272.443C306.025 275.891 304.579 279.464 302.851 283.906C305.942 282.706 308.434 282.206 310.364 280.376C310.135 279.951 309.999 279.731 309.891 279.496C309.301 278.192 309.911 276.947 311.152 277.054C311.922 277.12 312.663 277.578 313.422 277.6C313.964 277.619 314.519 277.206 315.111 276.962ZM294.847 271.26C294.827 271.053 294.804 270.845 294.783 270.638C294.293 270.61 293.795 270.504 293.318 270.568C289.511 271.081 285.7 271.565 281.91 272.179C279.101 272.635 278.25 274.043 278.62 277.305C279.775 277.742 280.929 277.357 282.075 277.125C283.915 276.751 285.668 276.287 286.658 274.381C286.89 273.934 287.835 273.474 288.296 273.6C289.77 274.001 290.876 273.338 292.044 272.723C292.979 272.236 293.911 271.749 294.847 271.26ZM270.265 277.107C272.185 277.285 273.985 277.503 275.729 277.005C276.679 275.844 276.925 274.625 276.745 273.109C276.213 272.977 275.735 272.852 275.255 272.742C274.845 272.649 274.159 272.938 274.337 271.92C275.054 271.768 275.817 271.643 276.559 271.442C277.061 271.306 277.57 271.096 277.378 270.115C275.501 269.368 273.58 268.326 271.286 268.497C270.516 269.848 270.304 271.028 271.337 272.187C270.509 273.322 269.54 274.407 269.855 275.986C269.9 276.233 270.028 276.469 270.265 277.107ZM282.458 43.8626C280.727 39.818 276.307 35.3003 269.261 30.1324C268.58 29.6333 267.943 28.979 266.655 29.3287C267.987 32.3236 268.975 35.1579 272.43 35.9728C273.05 36.1183 273.691 36.463 274.166 36.8876C276.412 38.8976 279.199 40.289 280.972 42.8504C281.222 43.2142 281.74 43.3856 282.458 43.8626ZM215.886 19.5727C215.357 19.7042 215.078 19.716 214.863 19.8385C211.43 21.7833 208.165 24.0286 204.371 25.3095C202.826 25.8311 202.038 26.8721 200.951 28.9895C204.68 27.5557 208.235 26.2032 211.778 24.8153C212.636 24.4787 213.457 24.0439 214.281 23.6263C214.752 23.3877 215.213 23.1252 215.644 22.8216C216.883 21.9471 216.774 20.904 215.886 19.5727ZM186.332 23.4567C188.667 22.3194 191.008 21.1802 193.294 20.0715C192.753 17.9453 192.753 17.9621 190.967 17.8892C190.625 17.8743 190.304 17.6055 189.956 17.5476C189.474 17.4685 188.903 17.3084 188.504 17.4856C187.424 17.9661 186.397 18.5751 185.38 19.1886C184.169 19.9194 182.991 20.703 181.527 21.637C183.241 22.2856 184.565 22.7858 186.332 23.4567ZM286.507 283.037C286.106 281.223 285.749 279.613 285.351 277.817C282.734 278.264 280.306 278.676 277.879 279.092C277.388 280.655 277.874 281.841 278.55 283.134C281.148 283.483 283.732 283.35 286.507 283.037ZM215.491 29.6376C216.193 28.0267 216.235 26.6301 215.903 24.7132C211.607 26.7255 207.238 27.9967 202.701 30.8598C207.408 30.4079 211.316 30.0338 215.491 29.6376ZM153.259 266.5C150.653 265.761 148.527 265.136 146.389 264.552C143.943 263.883 143.044 264.207 141.36 266.423C143.362 267.182 145.3 267.938 147.253 268.652C149.723 269.555 151.573 268.657 153.259 266.5ZM49.9068 195.311C48.7588 195.748 47.8281 196.101 46.6887 196.535C46.8161 198.222 46.8988 199.766 47.0613 201.302C47.1495 202.14 47.6248 202.758 48.4885 202.97C49.2503 203.155 50.0132 203.351 50.7852 203.453C51.7213 203.579 52.6175 202.597 52.303 201.67C51.5968 199.596 50.7638 197.563 49.9068 195.311ZM133.776 268.866C134.12 269.133 134.306 269.4 134.525 269.429C136.204 269.652 137.859 269.794 139.519 270.361C140.951 270.851 142.634 270.65 144.207 270.656C144.836 270.657 145.536 270.494 145.765 269.485C143.312 267.867 140.523 267.28 137.608 267.225C136.145 267.197 134.876 267.815 133.776 268.866ZM32.3557 200.538C33.0284 198.017 33.219 196.3 32.9706 194.583C30.2195 193.933 27.6866 193.334 24.4961 192.58C27.2353 195.356 29.5268 197.675 32.3557 200.538ZM188.853 25.1022C190.65 26.854 192.409 28.0351 194.691 28.684C195.364 26.4034 195.813 24.3779 194.874 22.1664C192.498 22.2936 190.784 23.5851 188.853 25.1022ZM71.8367 236.392C75.4131 240.236 79.1685 243.726 83.6513 246.294C84.574 246.823 85.4695 247.7 87.2375 247.426C86.4663 246.717 86.0802 246.173 85.5519 245.907C82.3298 244.294 79.6168 241.989 76.8979 239.686C75.7908 238.75 74.6399 237.861 73.4551 237.028C72.9918 236.706 72.3799 236.598 71.8367 236.392ZM49.1592 217.125C49.1778 215.417 49.5731 214.155 48.9899 212.947C48.7312 212.409 48.2045 211.674 47.7319 211.622C45.8705 211.408 43.966 211.026 41.9452 211.59C43.6921 214.365 46.5188 215.209 49.1592 217.125ZM51.7357 194.318C52.0889 195.76 52.2741 196.798 52.6158 197.783C52.7981 198.31 53.2462 198.747 53.7855 199.525C55.2621 196.553 56.5481 193.972 57.824 191.384C57.8772 191.278 57.8681 191.106 57.8181 190.997C57.7719 190.901 57.629 190.85 57.3948 190.687C55.609 191.833 53.7734 193.01 51.7357 194.318ZM196.706 23.6134C196.669 24.5524 196.638 25.4029 196.595 26.5421C198.492 26.0008 199.962 25.3836 201.397 24.0704C199.884 23.0121 198.585 22.8122 196.706 23.6134ZM144.507 255.541C143.998 256.643 143.645 257.197 143.482 257.803C143.176 258.923 143.56 260.046 144.503 260.483C145.69 261.034 146.462 260.415 146.988 259.176C146.307 258.18 145.599 257.14 144.507 255.541ZM243.592 97.1036C243.332 97.1212 243.071 97.1415 242.811 97.1618C242.547 99.376 242.259 101.589 242.039 103.81C241.984 104.366 241.927 105.061 242.936 105.386C243.159 102.545 243.377 99.823 243.592 97.1036ZM201.485 79.3171C202.461 77.5987 203.24 75.8211 203.427 73.8577C203.438 73.7391 203.076 73.5842 202.689 73.2964C201.742 75.2179 201.639 77.2646 201.485 79.3171ZM98.0372 246.27C97.7911 246.253 97.5454 246.234 97.3019 246.218C97.0775 246.805 96.7913 247.378 96.6447 247.987C96.2071 249.799 96.5306 250.121 98.8901 250.296C98.8974 249.914 98.9882 249.517 98.8986 249.165C98.6531 248.19 98.3293 247.233 98.0372 246.27ZM100.762 254.684C98.5807 252.005 98.3605 251.895 95.5711 251.945C97.0013 253.259 98.4651 253.901 100.762 254.684ZM199.298 30.0027C197.634 29.2112 197.63 29.2244 195.865 29.2276C196.549 30.0458 197.026 30.7809 197.669 31.3076C197.963 31.5498 198.769 31.5795 199.02 31.3536C199.302 31.0907 199.224 30.4355 199.298 30.0027ZM297.911 278.551C296.129 279.357 295.213 280.274 294.341 281.612C297.532 281.057 297.532 281.057 297.911 278.551ZM149.508 254.309C148.872 254.174 148.488 254.038 148.104 254.028C147.267 254.002 146.914 254.463 147.046 255.275C147.157 255.966 147.432 256.58 148.23 256.645C149.124 256.719 149.253 255.971 149.443 255.352C149.521 255.107 149.481 254.83 149.508 254.309ZM251.351 18.0717C250.481 17.5428 250.013 17.1081 249.476 16.9841C249.09 16.8979 248.533 17.1367 248.206 17.4149C248.032 17.5634 248.039 18.2243 248.222 18.4321C248.508 18.7597 249.041 19.118 249.41 19.0645C249.957 18.9833 250.458 18.5539 251.351 18.0717ZM236.986 26.3544C238.074 27.3037 238.591 27.8328 239.201 28.2226C239.33 28.3046 239.924 27.943 240.049 27.6691C240.161 27.4158 239.995 26.7549 239.837 26.7131C239.144 26.5336 238.412 26.5129 236.986 26.3544ZM93.3841 249.796C92.4911 249.398 91.5954 248.999 90.1015 248.335C91.0084 250.147 91.775 250.85 93.3841 249.796ZM6.0296 154.558C6.32587 153.551 6.51802 152.902 6.77808 152.018C5.34386 152.532 5.16261 153.182 6.0296 154.558ZM157.919 272.598C157.593 272.13 157.426 271.668 157.219 271.649C156.938 271.621 156.623 271.935 156.323 272.1C156.472 272.272 156.594 272.543 156.778 272.597C157.059 272.678 157.381 272.606 157.919 272.598ZM143.016 262.92C142.911 262.593 142.844 262.186 142.766 262.184C142.479 262.178 142.154 262.252 141.92 262.408C141.836 262.465 141.966 262.841 141.997 263.069C142.332 263.021 142.664 262.973 143.016 262.92ZM21.9472 187.878C21.8387 187.875 21.7334 187.869 21.6249 187.866C21.6571 188.086 21.6536 188.32 21.7428 188.516C21.7742 188.583 22.0313 188.548 22.1857 188.561C22.1072 188.333 22.0285 188.106 21.9472 187.878ZM48.4622 205.451C48.5578 205.429 48.6995 205.435 48.734 205.376C48.7881 205.281 48.7734 205.145 48.7865 205.027C48.6329 205.061 48.4798 205.093 48.3262 205.127C48.3738 205.233 48.4182 205.34 48.4622 205.451ZM208.62 32.5871C208.499 32.431 208.396 32.2526 208.247 32.1367C208.185 32.0878 207.917 32.1712 207.918 32.2021C207.907 32.3933 207.949 32.5872 207.972 32.7781C208.186 32.7142 208.4 32.6529 208.62 32.5871ZM16.9076 179.005C16.7417 179.029 16.5475 179.054 16.353 179.082C16.3961 179.181 16.4367 179.366 16.4867 179.369C16.6779 179.379 16.8699 179.331 17.064 179.306C17.0123 179.209 16.9634 179.111 16.9076 179.005ZM20.3159 185.643C20.2661 185.552 20.2369 185.418 20.1599 185.375C20.0778 185.329 19.9487 185.367 19.842 185.37C19.8941 185.465 19.9238 185.595 20.0031 185.641C20.0802 185.684 20.2097 185.643 20.3159 185.643ZM50.1747 206.04C50.2855 205.993 50.4882 205.95 50.4905 205.9C50.4964 205.686 50.4437 205.471 50.4138 205.253C50.3011 205.294 50.0904 205.336 50.0893 205.378C50.088 205.599 50.1397 205.819 50.1747 206.04Z" fill="#FFD9C2"/>
<path d="M248.585 253.692C248.551 254.26 248.517 254.827 248.481 255.392L248.598 255.338C247.799 254.756 248.149 254.238 248.688 253.73L248.585 253.692Z" fill="#FFD9C2"/>
<path d="M77.06 209.097C75.8176 208.716 75.8379 207.81 75.8699 207.114C76.0081 204.066 76.1503 201.011 76.4898 197.982C76.8842 194.463 78.682 191.458 80.4857 188.52C81.7318 186.492 83.2227 184.612 84.6568 182.703C87.1447 179.398 89.3524 175.957 90.6654 171.986C92.0379 167.834 93.3825 163.664 94.9894 159.602C97.3314 153.686 99.7356 147.782 102.412 142.011C105.034 136.36 107.384 130.551 110.871 125.33C111.681 124.117 112.44 122.867 113.27 121.668C116.364 117.198 119.466 112.733 122.596 108.289C123.807 106.568 125.099 104.903 126.627 102.844C126.397 105.002 125.43 106.221 124.475 107.527C122.447 110.292 120.569 113.165 118.664 116.019C112.242 125.64 106.343 135.544 102.042 146.333C100.763 149.538 99.1977 152.631 98.0011 155.866C96.7153 159.346 95.4498 162.875 94.6467 166.486C93.3513 172.324 90.5769 177.37 87.2031 182.175C85.6804 184.344 84.0559 186.449 82.624 188.679C79.1682 194.056 77.4824 199.995 77.2704 206.371C77.2418 207.258 77.1356 208.141 77.06 209.097Z" fill="#FFD9C2"/>
<path d="M171.329 164.077C171.71 165.116 172.064 166.091 172.347 166.866C171.559 168.648 170.443 170.171 170.289 171.784C170.102 173.745 169.616 175.65 169.491 177.606C169.112 183.447 167.765 189.132 166.568 194.83C165.609 199.388 164.852 203.942 164.863 208.612C164.871 213.028 164.103 217.317 162.434 221.422C162.259 221.853 161.953 222.232 161.384 223.165C161.996 220.495 162.627 218.47 162.893 216.396C163.163 214.303 163.177 212.161 163.115 210.047C162.956 204.71 163.627 199.514 164.816 194.293C166.14 188.49 166.861 182.549 167.826 176.664C167.952 175.882 168.116 175.058 167.997 174.292C167.702 172.39 167.978 170.614 168.779 168.887C168.834 168.77 168.834 168.627 168.882 168.504C169.651 166.537 168.719 164.394 169.864 162.33C170.787 160.668 170.816 158.503 171.2 156.554C171.321 155.93 171.306 155.279 171.364 154.492C170.629 154.865 170.075 155.146 169.537 155.419C168.699 154.867 168.962 154.182 169.44 153.757C170.819 152.527 172.32 151.42 172.722 149.298C173.728 149.868 173.768 150.548 173.624 151.305C173.175 153.644 172.711 155.98 172.287 158.325C172.117 159.257 172.561 159.808 173.726 159.972C172.901 161.385 172.122 162.724 171.329 164.077Z" fill="#FFD9C2"/>
<path d="M157.756 57.5393C159.487 58.062 160.647 56.5599 162.716 55.8865C162.211 56.7989 162.097 57.2924 161.791 57.5123C159.337 59.2766 156.839 60.9808 154.367 62.7225C152.004 64.3865 149.648 66.0627 147.306 67.7579C146.57 68.2901 145.876 68.8287 144.82 68.438C144.771 67.1025 145.964 66.6483 146.403 65.7591L146.294 65.8507C147.557 65.1308 147.557 65.1308 146.907 64.2342L146.954 64.3256C147.116 63.9738 147.18 63.4976 147.451 63.2888C150.822 60.7081 154.221 58.1654 157.622 55.6258C158.05 55.3077 158.662 55.0076 158.987 55.5705C159.158 55.8686 158.903 56.5244 158.668 56.9149C158.493 57.2059 158.043 57.3304 157.715 57.5328C157.53 57.8335 157.317 58.1212 157.163 58.438C157.005 58.7652 156.128 58.4642 156.569 59.4592C157.026 58.7264 157.391 58.1329 157.756 57.5393Z" fill="#FFD9C2"/>
<path d="M143.914 72.745C145.188 71.7277 146.021 70.9482 146.963 70.3285C154.567 65.3425 162.046 60.1579 170.006 55.6615C170.556 56.8666 169.949 57.4331 169.31 57.866C167.23 59.2813 165.136 60.6776 162.998 62.0025C157.041 65.6948 151.06 69.3469 145.084 73.0053C145.006 73.0546 144.84 72.9584 143.914 72.745Z" fill="#FFD9C2"/>
<path d="M166.418 55.0168C165.167 55.0929 164.435 55.36 163.917 55.1355C157.635 52.417 155.216 42.5833 161.017 37.8628C161.886 37.1561 162.808 36.7541 163.922 37.9981C163.242 39.1122 162.562 40.2122 161.896 41.3171C158.769 46.5026 159.871 50.8475 165.135 54.1123C165.359 54.2511 165.563 54.4147 166.418 55.0168Z" fill="#FFD9C2"/>
<path d="M167.997 61.095C168.348 62.7467 167.421 63.215 166.686 63.6913C164.024 65.4087 161.321 67.0579 158.634 68.7351C156.395 70.1307 154.142 71.5102 151.923 72.937C149.826 74.2852 147.765 75.6867 145.678 77.0729C144.551 76.6038 144.73 75.8942 145.511 75.3412C147.019 74.2743 148.603 73.3202 150.164 72.3287C155.292 69.0672 160.423 65.8062 165.558 62.5541C166.323 62.063 167.118 61.6157 167.997 61.095Z" fill="#FFD9C2"/>
<path d="M162.625 77.6291C162.137 78.2591 161.918 78.7416 161.543 78.9952C158.056 81.3844 154.543 83.733 151.039 86.0915C149.944 86.8268 148.858 87.5774 147.748 88.2878C146.467 89.1082 145.264 90.1032 143.393 90.5171C146.958 86.7597 159.066 78.609 162.625 77.6291Z" fill="#FFD9C2"/>
<path d="M189.119 84.6614C186.697 87.448 183.424 88.8953 180.408 90.7132C179.821 91.0676 178.95 90.9495 177.796 91.1079C178.103 90.2983 178.145 89.6956 178.469 89.4337C179.175 88.8605 179.973 88.3356 180.818 88.0163C183.606 86.9647 186.006 84.9962 189.119 84.6614Z" fill="#FFD9C2"/>
<path d="M138.161 129.277C139.087 124.8 141.583 121.268 144.352 117.904C144.712 117.466 145.339 117.247 145.93 116.871C146.055 117.408 146.222 117.691 146.142 117.86C145.804 118.564 145.49 119.314 144.993 119.898C142.476 122.854 140.95 126.526 138.161 129.277Z" fill="#FFD9C2"/>
<path d="M183.994 116.442C181.924 118.08 179.851 119.714 177.783 121.355C177.076 121.917 176.448 122.421 176.189 123.462C175.863 124.763 175.211 124.942 173.752 124.625C173.425 124.554 173.007 124.264 172.901 123.976C172.792 123.679 172.918 123.196 173.114 122.914C173.407 122.491 173.812 122.107 174.241 121.817C176.976 119.966 179.727 118.132 182.492 116.325C182.869 116.077 183.36 116.001 183.8 115.847C183.867 116.042 183.931 116.242 183.994 116.442Z" fill="#FFD9C2"/>
<path d="M170.637 66.2678C169.019 69.1595 164.024 72.2325 156.03 75.3955C160.493 71.7605 165.527 69.0208 170.637 66.2678Z" fill="#FFD9C2"/>
<path d="M180.857 127.583C178.865 129.658 177.343 130.834 175.594 131.765C174.468 132.364 173.279 132.931 172.797 134.355C172.577 135.003 171.802 135.201 171.139 134.764C170.511 134.349 170.231 133.116 170.69 132.672C171.344 132.037 172.022 131.34 172.827 130.969C175.194 129.874 177.628 128.928 180.857 127.583Z" fill="#FFD9C2"/>
<path d="M150.146 104.506C149.113 108.527 145.514 110.591 143.319 114.289C142.879 113.481 142.611 113.109 142.475 112.693C142.41 112.487 142.523 112.145 142.672 111.961C144.882 109.233 147.229 106.636 150.146 104.506Z" fill="#FFD9C2"/>
<path d="M146.06 96.5023C149.185 92.9854 154.565 89.0006 157.088 88.1391C155.768 90.6025 152.259 93.3264 146.06 96.5023Z" fill="#FFD9C2"/>
<path d="M186.014 109.609C185.296 110.398 185.087 110.768 184.769 110.958C182.633 112.25 180.461 113.485 178.325 114.78C177.555 115.245 176.796 115.187 176.083 114.817C175.876 114.708 175.83 114.137 175.86 113.789C175.877 113.591 176.164 113.351 176.384 113.249C179.014 112.035 181.65 110.833 184.303 109.665C184.612 109.53 185.024 109.631 186.014 109.609Z" fill="#FFD9C2"/>
<path d="M142.997 103.642C145.152 101.236 147.427 98.9986 150.833 97.5415C149.148 100.202 148.021 101.108 142.997 103.642Z" fill="#FFD9C2"/>
<path d="M176.147 141.06C175.523 142.387 174.016 143.043 173.965 144.709C173.934 145.686 173.204 144.841 172.872 144.978C171.949 145.366 171.078 145.874 170.103 146.379C170.209 144.456 171.057 143.69 176.147 141.06Z" fill="#FFD9C2"/>
<path d="M189.072 54.4983C187.161 56.1191 185.653 57.3313 183.291 57.3267C184.843 55.4673 185.174 55.3016 189.072 54.4983Z" fill="#FFD9C2"/>
<path d="M146.406 65.7589C145.834 65.8362 145.264 65.9109 144.064 66.0733C145.098 64.6966 145.797 64.128 146.956 64.3281L146.909 64.2369C146.704 64.7746 146.501 65.3128 146.296 65.8533L146.406 65.7589Z" fill="#FFD9C2"/>
<path d="M228.936 74.6254C229.615 74.3248 229.992 73.7665 229.902 73.0618C229.488 69.7761 228.829 66.5411 227.473 63.5006C227.31 63.1365 226.725 62.963 225.843 62.3706C225.982 63.793 226.062 64.6443 226.145 65.5015L226.146 65.4961C225.092 64.4712 225.154 63.1561 225.145 61.6061C226.075 61.5798 226.999 61.3906 227.841 61.5825C228.54 61.7406 229.279 62.2292 229.739 62.7855C230.227 63.3743 230.497 64.1915 230.701 64.9533C231.944 69.5694 232.792 74.2459 232.885 79.0516C232.935 81.7039 233.239 84.3546 233.245 87.0054C233.255 92.047 233.131 97.0925 233.068 102.134C233.004 107.437 232.947 112.742 232.89 118.047C232.874 119.638 232.946 121.229 232.863 122.815C232.289 133.67 231.658 144.517 230.511 155.335C229.883 161.268 229.755 167.255 228.744 173.152C228.638 173.768 228.475 174.373 227.877 174.922C227.865 174.148 227.787 173.37 227.852 172.603C228.371 166.656 228.914 160.712 229.452 154.768C229.465 154.636 229.508 154.503 229.503 154.374C229.027 144.271 230.542 134.255 230.81 124.187C230.967 118.352 230.815 112.509 230.817 106.667C230.816 100.43 230.844 94.1926 230.836 87.9577C230.832 85.7348 230.899 83.4952 230.235 81.1008C227.64 81.4785 225.815 83.2389 223.533 83.8115C221.169 84.4075 218.823 84.3411 216.332 83.8855C215.933 82.9977 215.617 82.0253 215.083 81.1973C214.609 80.4626 213.889 79.8902 213.194 79.157C212.874 79.998 212.663 80.5545 212.423 81.1901C211.015 80.5481 210.742 79.303 210.728 78.191C210.713 76.9111 211.043 75.5992 211.405 74.3538C211.635 73.5685 213.244 73.5629 213.786 74.3587C214.221 74.9979 214.416 75.7975 214.788 76.4853C215.598 77.9915 216.314 79.5779 217.329 80.9403C218.415 82.398 219.274 82.4472 220.761 81.5112C221.543 81.02 222.226 80.3762 222.984 79.8447C223.389 79.5622 223.863 79.3744 224.552 79.0138C224.491 80.0551 224.447 80.7917 224.391 81.7082C226.502 81.3544 228.185 80.36 229.616 78.9679C230.033 78.5613 230.227 77.8263 230.322 77.2095C230.502 76.0333 229.85 75.1948 228.943 74.5314L228.936 74.6254Z" fill="#FFD9C2"/>
<path d="M212.788 206.37C211.653 205.24 212.224 203.838 212.333 202.603C213.018 194.686 213.736 186.772 214.586 178.869C215.324 172.012 216.291 165.179 217.078 158.327C217.728 152.663 218.31 146.988 218.831 141.312C219.168 137.628 219.336 133.931 219.887 130.203C220.007 131.105 220.225 132.006 220.227 132.909C220.248 139.406 220.409 145.911 219.485 152.37C218.285 160.771 217.093 169.169 215.863 177.565C214.939 183.865 214.572 190.216 213.998 196.549C213.701 199.84 213.213 203.114 212.812 206.394L212.788 206.37Z" fill="#FFD9C2"/>
<path d="M218.654 88.0464C217.512 89.2887 216.368 90.5305 215.17 91.8336C217.087 91.4633 217.082 91.457 220.591 88.6296C222.218 87.3161 223.87 86.0288 225.436 84.7894C226.334 85.3675 225.951 85.8605 225.669 86.2296C225.193 86.8558 224.685 87.4883 224.074 87.9758C218.794 92.1973 213.502 96.4056 208.172 100.566C207.643 100.98 206.844 101.049 205.775 101.409C206.227 99.1851 207.8 98.5535 208.929 97.5691C210.019 96.6178 211.17 95.7377 212.308 94.8136C212.041 94.12 211.812 93.5304 211.507 92.7386C213.584 90.7778 216.029 89.2442 218.654 88.0464Z" fill="#FFD9C2"/>
<path d="M226.927 194.672C227.115 195.124 227.484 195.585 227.467 196.03C227.173 202.91 226.758 209.788 226.519 216.671C226.385 220.505 226.532 224.347 226.543 228.183C226.549 229.772 226.576 231.364 226.51 232.953C226.465 233.994 226.273 235.028 225.946 236.075C224.771 232.37 224.601 228.564 224.817 224.727C225.042 220.762 225.31 216.802 225.574 212.84C225.953 207.156 226.343 201.473 226.744 195.792C226.772 195.403 226.925 195.019 227.028 194.632C227.035 194.628 226.927 194.672 226.927 194.672Z" fill="#FFD9C2"/>
<path d="M225.232 91.8953C224.809 94.0173 223.741 94.5862 222.77 95.2433C218.496 98.1424 214.255 101.094 209.939 103.925C208.486 104.878 207.118 105.855 205.959 107.17C205.09 108.159 204.067 109.079 202.639 109.16C202.318 109.179 201.846 108.909 201.681 108.629C201.522 108.363 201.52 107.77 201.711 107.571C202.35 106.909 203.057 106.291 203.823 105.781C210.1 101.58 216.391 97.404 222.691 93.2376C223.318 92.8253 224.028 92.5267 225.232 91.8953Z" fill="#FFD9C2"/>
<path d="M221.98 100.981C221.805 102.335 220.93 102.92 220.097 103.521C217.087 105.689 214.05 107.817 211.066 110.02C207.977 112.298 204.941 114.647 201.878 116.961C201.564 117.199 201.25 117.521 200.892 117.596C200.573 117.663 200.157 117.505 199.865 117.319C199.735 117.237 199.698 116.767 199.808 116.597C200.162 116.057 200.517 115.457 201.026 115.087C207.026 110.728 213.045 106.397 219.084 102.094C219.875 101.532 220.681 100.782 221.98 100.981Z" fill="#FFD9C2"/>
<path d="M244.31 267.959C240.734 269.605 237.628 272.185 233.834 272.879C232.246 274.702 232.514 276.682 232.909 279.151C230.55 277.28 231.515 275.171 231.05 273.252C231.773 272.707 232.445 271.785 233.214 271.694C235.691 271.407 237.623 269.959 239.782 269.012C241.197 268.392 242.623 267.804 244.044 267.202C244.132 267.456 244.221 267.708 244.31 267.959Z" fill="#FFD9C2"/>
<path d="M214.33 118.063C213.172 120.435 211.591 121.77 203.35 127.449C203.893 125.57 205.201 124.776 206.29 123.847C207.586 122.738 208.905 121.647 210.298 120.668C211.531 119.801 212.552 118.542 214.33 118.063Z" fill="#FFD9C2"/>
<path d="M255.049 259.198C254.116 257.477 253.554 255.643 253.037 253.837C252.316 251.324 251.821 248.747 251.267 246.188C251.232 246.023 251.523 245.79 251.672 245.57C251.857 245.695 252.163 245.788 252.205 245.948C253.348 250.227 254.467 254.513 255.575 258.803C255.585 258.847 255.387 258.947 255.049 259.198Z" fill="#FFD9C2"/>
<path d="M201.787 143.422C202.601 139.657 204.96 136.916 207.817 133.718C207.883 134.715 208.028 135.09 207.906 135.328C206.347 138.363 204.195 140.96 201.787 143.422Z" fill="#FFD9C2"/>
<path d="M202.676 159.391C203.228 156.326 203.705 153.225 206.062 150.057C205.769 153.974 204.368 156.738 202.676 159.391Z" fill="#FFD9C2"/>
<path d="M243.77 71.9274C244.501 74.2681 244.1 76.6114 243.777 78.9531C242.747 76.6126 243.433 74.2696 243.77 71.9274Z" fill="#FFD9C2"/>
<path d="M175.027 241.56C176.072 242.852 175.755 244.401 176.103 246.354C175.028 244.381 175.028 244.381 175.13 241.509L175.027 241.56Z" fill="#FFD9C2"/>
<path d="M239.27 278.435C238.445 276.638 238.084 275.438 239.37 273.578C239.463 275.097 239.538 275.981 239.557 276.867C239.564 277.198 239.441 277.534 239.27 278.435Z" fill="#FFD9C2"/>
<path d="M210.788 265.591C212.671 265.722 214.557 265.849 216.44 265.98C214.422 267.002 212.56 266.584 210.747 265.565C210.733 265.549 210.788 265.591 210.788 265.591Z" fill="#FFD9C2"/>
<path d="M227.319 189.627C227.812 191.354 227.871 193.046 226.935 194.668C226.93 194.67 227.035 194.625 227.029 194.627C226.708 192.904 226.654 191.202 227.451 189.57L227.319 189.627Z" fill="#FFD9C2"/>
<path d="M182.984 232.455C183.435 233.596 183.927 234.731 183.84 236.249C182.646 234.699 182.646 234.699 183.116 232.397L182.984 232.455Z" fill="#FFD9C2"/>
<path d="M224.877 68.9909C225.885 69.7011 225.519 70.44 225.01 71.0778C224.971 70.4454 224.928 69.7118 224.882 68.9777L224.877 68.9909Z" fill="#FFD9C2"/>
<path d="M169.806 250.724C169.546 250.728 169.267 250.79 169.026 250.724C167.819 250.388 167.821 250.374 168.425 248.977C168.844 249.577 169.261 250.174 169.707 250.767C169.734 250.758 169.806 250.724 169.806 250.724Z" fill="#FFD9C2"/>
<path d="M176.104 249.737C176.151 249.669 176.198 249.604 176.245 249.536C176.314 249.628 176.402 249.712 176.447 249.814C176.464 249.85 176.378 249.932 176.338 249.99C176.259 249.905 176.183 249.823 176.104 249.737Z" fill="#FFD9C2"/>
<path d="M212.812 206.398C212.693 206.617 212.575 206.836 212.459 207.058C212.402 207.169 212.358 207.288 212.306 207.403C212.368 207.292 212.438 207.186 212.491 207.068C212.594 206.839 212.687 206.605 212.785 206.371L212.812 206.398Z" fill="#FFD9C2"/>
<path d="M252.51 258.298C252.287 258.419 252.03 258.56 251.773 258.698C251.729 258.465 251.571 258.158 251.664 258.013C251.818 257.778 252.136 257.646 252.381 257.472C252.419 257.708 252.457 257.943 252.51 258.298Z" fill="#FFD9C2"/>
<path d="M176.223 238.474C175.876 238.355 175.512 238.267 175.199 238.089C175.138 238.054 175.281 237.663 175.33 237.438C175.437 237.486 175.582 237.506 175.645 237.589C175.852 237.868 176.031 238.17 176.204 238.468C176.187 238.474 176.223 238.474 176.223 238.474Z" fill="#FFD9C2"/>
<path d="M175.131 241.505C174.718 240.23 175.149 239.25 176.208 238.478C176.223 238.472 176.187 238.472 176.204 238.466C175.827 239.488 175.435 240.519 175.034 241.554C175.027 241.559 175.131 241.505 175.131 241.505Z" fill="#FFD9C2"/>
<path d="M224.884 68.9766C225.306 67.8161 225.727 66.6556 226.148 65.4951C225.727 66.6529 225.306 67.8161 224.881 68.9817C224.877 68.9894 224.884 68.9766 224.884 68.9766Z" fill="#FFD9C2"/>
<path d="M227.448 189.572C227.34 189.387 227.23 189.199 227.122 189.015C227.188 189.218 227.254 189.421 227.319 189.627L227.448 189.572Z" fill="#FFD9C2"/>
<path d="M242.939 190.624C243.03 190.488 243.121 190.351 243.21 190.214C243.155 190.281 243.089 190.341 243.05 190.416C243.002 190.503 242.979 190.6 242.94 190.7C242.936 190.708 242.939 190.624 242.939 190.624Z" fill="#FFD9C2"/>
<path d="M183.116 232.397C182.978 232.247 182.842 232.097 182.703 231.946C182.797 232.115 182.888 232.283 182.981 232.454L183.116 232.397Z" fill="#FFD9C2"/>
<path d="M248.481 255.392C248.612 255.958 248.746 256.526 248.865 257.098C248.853 257.105 248.96 257.043 248.96 257.043C248.061 256.644 248.373 255.983 248.592 255.339C248.598 255.337 248.481 255.392 248.481 255.392Z" fill="#FFD9C2"/>
<path d="M249.02 258.873C248.331 258.297 248.484 257.684 248.951 257.05C248.96 257.044 248.853 257.105 248.868 257.099C248.892 257.704 248.902 258.315 248.906 258.927C248.899 258.932 249.02 258.873 249.02 258.873Z" fill="#FFD9C2"/>
<path d="M249.131 260.685C248.354 260.132 248.694 259.504 249.017 258.875C249.023 258.874 248.9 258.929 248.906 258.927C248.948 259.527 248.983 260.131 249.017 260.734C249.011 260.736 249.131 260.685 249.131 260.685Z" fill="#FFD9C2"/>
<path d="M249.282 262.361C248.64 261.86 248.87 261.275 249.128 260.687L249.017 260.734C249.078 261.297 249.138 261.86 249.196 262.425L249.282 262.361Z" fill="#FFD9C2"/>
<path d="M249.196 262.425C249.462 262.94 249.727 263.457 249.991 263.974L249.976 263.946C249.744 263.42 249.51 262.897 249.281 262.366C249.282 262.361 249.196 262.425 249.196 262.425Z" fill="#FFD9C2"/>
<path d="M249.988 263.974C249.81 264.253 249.634 264.533 249.456 264.812C249.627 264.523 249.801 264.238 249.972 263.949L249.988 263.974Z" fill="#FFD9C2"/>
<path d="M243.739 78.7448C243.815 79.3996 243.89 80.0545 243.962 80.7116C243.246 80.1288 243.45 79.4426 243.739 78.7448Z" fill="#FFD9C2"/>
<path d="M228.946 74.5311C228.865 74.7419 228.787 74.9531 228.769 74.995C228.772 74.99 228.86 74.8249 228.944 74.6454C228.936 74.6246 228.946 74.5311 228.946 74.5311Z" fill="#FFD9C2"/>
<path d="M259.924 101.225C261.566 100.509 262.38 98.9183 263.561 97.7243C264.772 96.5015 265.872 95.166 266.979 93.8428C267.773 92.8894 268.693 92.2663 269.926 92.193C270.942 93.3013 270.312 94.5938 270.628 95.692C270.945 96.7987 271.458 97.8471 271.887 98.9211C270.433 103.513 270.416 103.513 271.034 108.606C271.162 109.652 271.475 110.675 271.674 111.713C271.798 112.358 272.078 113.065 271.931 113.657C271.26 116.365 272.47 118.911 272.499 121.554C272.506 122.167 272.763 122.909 273.163 123.364C274.275 124.622 274.251 125.996 273.916 127.475C273.651 128.641 273.524 129.848 273.152 130.977C271.984 134.513 272.611 137.986 273.182 141.551C274.062 141.257 274.758 141.023 275.584 140.748C276.116 142.35 276.086 143.746 275.676 145.191C273.747 151.977 274.245 158.882 274.885 165.757C275.276 169.978 276.042 174.169 276.698 178.362C276.813 179.099 277.23 179.788 277.5 180.499C277.495 180.498 277.513 180.507 277.513 180.507C276.933 180.038 276.135 179.855 275.98 178.889C275.627 176.667 275.177 174.46 274.726 172.253C274.638 171.822 274.374 171.426 273.696 171.095C273.647 174.889 273.592 178.684 273.55 182.479C273.51 186.143 274.302 189.83 273.227 194.417C272.872 192.863 272.646 192.204 272.577 191.528C271.675 182.566 270.916 173.582 270.963 164.574C270.991 159.287 271.507 153.993 272.041 148.725C272.303 146.155 272.189 143.745 271.192 141.376C271.413 140.65 271.589 139.943 270.091 139.27C270.702 140.283 271.014 140.802 271.326 141.321C271.096 141.928 270.866 142.534 270.67 143.049C269.791 143.48 269.246 143.142 268.906 142.521C268.046 140.956 267.748 139.252 268.165 137.52C268.629 135.595 269.005 133.586 269.872 131.836C272.021 127.488 271.546 123.159 270.484 118.831C269.588 118.379 269.335 119.01 269.15 119.414C268.335 121.197 267.144 122.859 267.462 125.017C267.558 125.667 266.693 126.182 266.046 126.054C265.241 125.893 264.941 125.242 265.017 124.588C265.124 123.683 265.391 122.772 265.73 121.92C266.566 119.83 267.284 117.657 268.424 115.738C269.526 113.88 269.717 112.015 269.46 110.015C269.317 108.888 269.501 107.659 268.621 106.346C266.494 108.696 265.294 111.262 264.302 113.943C264.074 114.558 264.004 115.232 263.868 115.878C263.713 116.608 263.272 117.204 262.539 116.976C262.004 116.81 261.353 116.241 261.221 115.731C261.037 115.022 261.159 114.161 261.378 113.433C262.383 110.1 264.219 107.173 266.04 104.247C266.741 103.122 267.49 102.027 268.139 100.872C268.867 99.5756 268.829 99.5528 268.772 96.754C266.212 98.0933 261.85 103.452 257.528 110.573C256.316 110.762 256.127 109.91 256.346 109.123C256.769 107.599 257.395 106.133 257.938 104.642L257.78 104.74C259.168 103.937 259.505 102.458 260.083 101.138L259.924 101.225Z" fill="#FFD9C2"/>
<path d="M257.938 104.646C257.55 104.713 257.157 104.847 256.774 104.831C255.755 104.787 255.189 104.194 255.414 103.369C255.621 102.611 255.85 101.819 256.266 101.164C257.331 99.4876 258.503 97.8783 259.635 96.2489C260.149 95.5084 260.677 94.7728 261.16 94.0861C260.574 93.2499 260.167 93.8061 259.772 94.0037C258.825 94.4799 257.919 95.0438 256.954 95.4753C255.997 95.9026 254.666 95.516 254.527 94.8399C254.329 93.8692 255.041 93.3781 255.693 92.967C258.047 91.4832 260.447 90.0739 262.805 88.5992C263.906 87.9097 265.173 87.3945 265.874 85.9652C265.254 84.9894 264.121 85.0169 263.196 84.6945C260.997 83.9301 259.766 82.2735 259.045 80.1887C258.894 79.7483 258.939 79.0203 259.215 78.7062C259.584 78.2864 260.264 78.1396 261.111 77.7286C261.359 78.5868 261.52 79.1742 261.699 79.7587C262.513 82.4396 264.249 83.374 266.828 82.4821C268.765 81.8129 270.264 80.5323 271.569 78.9832C272.226 78.2038 272.933 77.4658 273.749 76.5662C274.303 77.1431 274.797 77.4504 274.947 77.8768C275.104 78.3181 275.106 78.9949 274.863 79.3618C273.845 80.9058 272.793 82.4447 271.593 83.8482C270.128 85.5647 268.843 87.3406 267.907 89.4259C267.212 90.9708 266.147 92.3705 265.125 93.7407C263.308 96.1787 261.147 98.3749 259.93 101.226L260.089 101.14C258.569 101.858 258.45 103.475 257.786 104.742L257.938 104.646Z" fill="#FFD9C2"/>
<path d="M279.763 205.742C280.5 205.834 280.98 206.229 281.08 206.977C281.36 209.073 281.669 211.165 281.87 213.271C282.16 216.297 282.274 219.339 282.63 222.356C283.013 225.609 283.584 228.835 284.074 232.08C283.209 232.267 283.229 231.611 283.105 231.158C281.899 226.802 281.406 222.336 281.088 217.843C280.881 214.946 280.742 212.042 280.47 209.153C280.359 207.995 279.974 206.863 279.716 205.721C279.721 205.722 279.763 205.742 279.763 205.742Z" fill="#FFD9C2"/>
<path d="M278.625 194.206C277.258 192.349 277.388 190.187 277.356 188.054L277.242 188.103C277.509 188.643 277.922 189.159 278.011 189.723C278.246 191.228 278.343 192.753 278.494 194.27L278.625 194.206Z" fill="#FFD9C2"/>
<path d="M253.161 87.4333C253.382 86.8451 253.393 86.6874 253.481 86.6118C254.228 85.9529 254.908 85.0486 256.096 85.6475C256.236 85.7171 256.341 86.1865 256.245 86.3307C255.57 87.3644 254.641 87.7793 253.161 87.4333Z" fill="#FFD9C2"/>
<path d="M307.12 251.214C307.969 252.066 308.034 253.105 307.828 254.208C307.052 253.336 307.042 252.286 307.12 251.214Z" fill="#FFD9C2"/>
<path d="M278.495 194.267C278.893 195.073 279.291 195.88 279.686 196.688L279.691 196.673C278.26 195.84 278.259 195.831 278.622 194.208L278.495 194.267Z" fill="#FFD9C2"/>
<path d="M280.604 201.339C279.167 201.484 279.365 199.919 278.574 199.389L278.57 199.393C280.024 199.229 279.949 200.657 280.566 201.35C280.544 201.366 280.604 201.339 280.604 201.339Z" fill="#FFD9C2"/>
<path d="M279.507 203.825C279.593 204.465 279.679 205.102 279.765 205.742L279.718 205.721C280.204 205.037 280.02 204.399 279.587 203.777L279.507 203.825Z" fill="#FFD9C2"/>
<path d="M307.771 254.003C307.974 254.7 308.177 255.397 308.38 256.092C307.913 255.473 307.458 254.85 307.771 254.003Z" fill="#FFD9C2"/>
<path d="M279.587 203.777C279.913 202.973 280.238 202.17 280.586 201.352C280.607 201.342 280.547 201.366 280.569 201.353C280.245 202.16 279.898 202.98 279.531 203.813C279.507 203.826 279.587 203.777 279.587 203.777Z" fill="#FFD9C2"/>
<path d="M308.579 256.473C308.6 257.245 308.62 258.014 308.641 258.786C308.62 258.014 308.6 257.242 308.579 256.473Z" fill="#FFD9C2"/>
<path d="M279.686 196.688C279.314 197.588 278.942 198.489 278.57 199.392L278.574 199.389C278.945 198.488 279.314 197.589 279.687 196.681C279.691 196.673 279.686 196.688 279.686 196.688Z" fill="#FFD9C2"/>
<path d="M276.752 186.479C277.492 186.842 277.811 187.334 277.246 188.098L277.356 188.051C277.172 187.519 276.988 186.983 276.829 186.438C276.85 186.428 276.752 186.479 276.752 186.479Z" fill="#FFD9C2"/>
<path d="M276.539 184.896C277.389 185.299 277.449 185.823 276.767 186.472C276.752 186.481 276.847 186.429 276.825 186.44C276.721 185.914 276.635 185.381 276.55 184.845L276.539 184.896Z" fill="#FFD9C2"/>
<path d="M276.552 184.847C276.555 184.191 276.559 183.535 276.565 182.879L276.47 182.945C276.807 183.571 277.051 184.202 276.552 184.884C276.539 184.896 276.552 184.847 276.552 184.847Z" fill="#FFD9C2"/>
<path d="M276.565 182.876C276.427 181.909 276.711 181.107 277.503 180.503C277.511 180.501 277.49 180.493 277.496 180.493C277.166 181.305 276.831 182.113 276.481 182.93C276.468 182.944 276.565 182.876 276.565 182.876Z" fill="#FFD9C2"/>
<path d="M259.133 85.0737C258.97 85.224 258.807 85.3715 258.643 85.519C258.59 85.4128 258.462 85.2526 258.494 85.2102C258.616 85.0421 258.79 84.9104 258.944 84.7671C259.009 84.8696 259.071 84.9716 259.133 85.0737Z" fill="#FFD9C2"/>
<path d="M150.153 33.2373C150.526 34.8756 149.686 35.2402 149.056 35.6353C143.445 39.1532 137.834 42.6765 132.176 46.1226C128.786 48.1887 125.293 50.0877 121.88 52.1222C118.012 54.4287 114.189 56.8066 110.337 59.1407C110.006 59.3399 109.593 59.5875 109.25 59.5445C108.787 59.488 108.168 59.2811 107.965 58.936C107.759 58.5818 107.786 57.7727 108.048 57.5291C108.817 56.8205 109.718 56.2307 110.632 55.7071C116.949 52.0858 123.288 48.5042 129.607 44.886C135.355 41.5967 141.085 38.2766 146.833 34.9846C147.838 34.4084 148.88 33.9023 150.153 33.2373Z" fill="#FFD9C2"/>
<path d="M65.9902 112.215C65.7354 113.189 65.6503 114.258 65.1917 115.124C63.9653 117.435 63.0759 120 60.717 121.553C60.3179 121.814 60.091 122.382 59.8533 122.842C58.2195 126.013 56.7014 129.248 54.9445 132.349C54.0407 133.945 52.6741 135.269 51.6053 136.777C49.2291 140.136 47.437 143.83 45.542 147.469C44.4455 149.576 43.1985 151.61 41.9474 153.634C41.6133 154.174 41.0665 154.627 40.5224 154.974C40.2831 155.126 39.8152 154.921 39.2113 154.851C39.6236 153.764 39.8713 152.763 40.3529 151.892C43.87 145.527 47.4059 139.185 51.7842 133.331C54.6338 129.524 57.1847 125.486 59.7379 121.468C61.2973 119.014 62.6026 116.4 64.0346 113.868C64.4154 113.193 64.845 112.545 65.254 111.886C65.4995 111.995 65.745 112.103 65.9902 112.215Z" fill="#FFD9C2"/>
<path d="M94.4375 90.6801C94.3645 89.3212 95.2417 88.6884 96.0695 88.0674C98.1907 86.4798 100.337 84.9269 102.477 83.3646C109.433 78.2845 116.389 73.2045 123.354 68.1371C123.778 67.8295 124.245 67.5233 124.74 67.403C124.984 67.3438 125.331 67.7145 125.829 68.0086C124.47 69.4987 122.983 70.5746 121.518 71.6538C118.002 74.2452 114.198 76.5085 110.985 79.4301C108.592 81.6064 105.549 82.6011 103.188 84.7545C100.846 86.8886 98.1753 88.6633 95.6203 90.5541C95.3699 90.7409 94.9106 90.6403 94.4375 90.6801Z" fill="#FFD9C2"/>
<path d="M105.808 88.3362C106.098 89.366 105.596 89.8177 105.097 90.2504C100.116 94.561 95.7172 99.5174 90.2968 103.353C88.2665 104.79 86.591 106.722 84.6844 108.35C84.3869 108.604 83.623 108.609 83.241 108.409C82.6059 108.077 82.4693 107.367 82.7933 106.697C82.9597 106.352 83.2475 106.054 83.5234 105.776C84.0794 105.213 84.6293 104.634 85.2439 104.142C88.7445 101.327 92.2588 98.5314 95.7754 95.7389C98.5691 93.5225 101.363 91.3034 104.182 89.1218C104.635 88.7713 105.231 88.6083 105.808 88.3362Z" fill="#FFD9C2"/>
<path d="M124.728 61.6403C124.455 63.1373 123.243 63.7842 122.217 64.4913C120.046 65.9899 117.768 67.3318 115.61 68.8494C112.587 70.9764 109.66 73.2389 106.638 75.366C105.354 76.2699 103.949 77.0063 102.559 77.7368C102.351 77.8465 101.749 77.5892 101.609 77.3434C101.46 77.0823 101.508 76.4441 101.711 76.2917C103.823 74.711 105.944 73.1402 108.141 71.679C112.537 68.749 116.96 65.8624 121.417 63.0285C122.363 62.4234 123.164 61.3536 124.728 61.6403Z" fill="#FFD9C2"/>
<path d="M87.5004 76.0222C87.7123 77.0677 87.9611 77.5264 87.824 77.7395C85.6234 81.207 83.3873 84.6521 81.1183 88.0752C80.7515 88.6266 80.1736 89.0103 79.1936 88.5618C80.5914 83.7541 83.8709 80.2169 87.5004 76.0222Z" fill="#FFD9C2"/>
<path d="M67.5622 108.747C68.1007 105.52 72.0344 98.9414 75.2179 95.9397C75.9237 96.0905 75.8929 96.6027 75.7811 97.1329C75.7269 97.3871 75.6607 97.6646 75.5209 97.8773C73.1232 101.495 70.7177 105.109 68.2844 108.705C68.2014 108.823 67.8099 108.736 67.5622 108.747Z" fill="#FFD9C2"/>
<path d="M86.652 121.356C89.6117 116.2 93.4458 111.735 97.2867 107.423C98.1988 107.665 98.4325 108.08 98.1452 108.641C97.8468 109.22 97.4915 109.787 97.0643 110.278C94.2254 113.558 91.3663 116.824 88.4953 120.076C87.9948 120.643 87.5785 121.418 86.6043 121.25L86.652 121.356Z" fill="#FFD9C2"/>
<path d="M34.5788 165.087C34.7796 164.559 34.9439 164.015 35.199 163.516C35.2767 163.361 35.5919 163.329 35.799 163.239C35.849 163.471 36.0136 163.757 35.931 163.925C35.6909 164.418 35.355 164.863 35.0556 165.324C34.8974 165.246 34.7397 165.165 34.5788 165.087Z" fill="#FFD9C2"/>
<path d="M32.8151 182.191C32.603 181.57 32.3905 180.953 32.1608 180.285C33.8787 180.098 33.1386 181.348 33.6531 181.806C33.3732 181.933 33.0955 182.062 32.8151 182.191Z" fill="#FFD9C2"/>
<path d="M86.6043 121.25C86.5201 121.712 86.4391 122.171 86.3067 122.902C86.074 122.482 85.8934 122.263 85.9333 122.205C86.1451 121.909 86.4149 121.652 86.6581 121.369C86.6516 121.357 86.6043 121.25 86.6043 121.25Z" fill="#FFD9C2"/>
<path d="M34.2821 121.885C34.3237 121.587 34.3631 121.285 34.4047 120.987C34.4401 121.046 34.5205 121.12 34.5058 121.16C34.429 121.363 34.3282 121.559 34.2483 121.781C34.2608 121.809 34.2821 121.885 34.2821 121.885Z" fill="#FFD9C2"/>
<path d="M238.916 289.132C239.736 287.89 240.668 288.487 241.716 289.033C240.708 289.066 239.814 289.093 238.905 289.1C238.889 289.075 238.916 289.132 238.916 289.132Z" fill="#FFD9C2"/>
<path d="M235.909 288.137C237.183 287.581 238.057 288.275 238.903 289.111C238.916 289.133 238.889 289.075 238.905 289.1C237.907 288.763 236.89 288.404 235.874 288.039C235.87 288.033 235.909 288.137 235.909 288.137Z" fill="#FFD9C2"/>
<path d="M313.299 156.421C313.196 157.722 312.979 159.026 313.008 160.325C313.182 167.727 313.336 175.125 312.613 182.508C312.474 183.934 312.497 185.416 311.543 187.169C310.926 184.776 310.796 182.74 310.747 180.714C310.601 174.5 310.427 168.283 310.454 162.068C310.465 159.864 311.02 157.663 311.301 155.636C312.731 154.973 312.647 156.441 313.37 156.586L313.299 156.421Z" fill="#FFD9C2"/>
<path d="M301.753 119.531C301.496 119.269 301.064 119.045 301.003 118.744C300.139 114.361 299.319 109.969 298.516 105.573C298.476 105.349 298.663 105.085 298.747 104.838L298.655 104.874C298.924 105.135 299.348 105.35 299.436 105.663C300.612 109.855 301.47 114.113 301.928 118.446C301.966 118.807 301.751 119.195 301.655 119.568L301.753 119.531Z" fill="#FFD9C2"/>
<path d="M296.19 95.4671C296.311 95.5115 296.506 95.5198 296.546 95.6044C297.982 98.5235 299.003 101.542 298.655 104.869L298.747 104.833C297.402 101.834 296.506 98.715 296.307 95.4185L296.19 95.4671Z" fill="#FFD9C2"/>
<path d="M293.369 86.8459C293.605 86.9084 293.96 86.8918 294.059 87.0444C294.754 88.1104 295.131 89.2743 295.206 91.4552C294.041 89.4708 293.594 88.1953 293.486 86.7918L293.369 86.8459Z" fill="#FFD9C2"/>
<path d="M293.486 86.7937C293.163 85.9403 292.84 85.0841 292.423 83.9895C293.612 85.2062 293.612 85.2062 293.378 86.8436C293.369 86.8451 293.486 86.7937 293.486 86.7937Z" fill="#FFD9C2"/>
<path d="M296.307 95.4208C296.009 94.8118 295.714 94.2033 295.416 93.5943C295.545 93.5252 295.67 93.4557 295.799 93.3865C296.003 93.6145 296.355 93.8267 296.378 94.0707C296.418 94.527 296.268 94.9981 296.194 95.4672L296.307 95.4208Z" fill="#FFD9C2"/>
<path d="M301.656 119.565C301.828 120.051 301.999 120.539 302.332 121.478C301.189 120.643 301.416 120.089 301.751 119.527L301.656 119.565Z" fill="#FFD9C2"/>
<path d="M289.313 74.4965L289.087 74.6368L289.054 74.3325L289.313 74.4965Z" fill="#FFD9C2"/>
<path d="M316.073 213.065C316.025 213.935 315.979 214.809 315.931 215.679L315.923 215.638C314.886 214.717 315.731 213.903 316.072 213.057C316.072 213.051 316.073 213.065 316.073 213.065Z" fill="#FFD9C2"/>
<path d="M315.931 215.679C315.814 215.94 315.698 216.198 315.581 216.459C315.693 216.191 315.806 215.924 315.919 215.648C315.924 215.638 315.931 215.679 315.931 215.679Z" fill="#FFD9C2"/>
<path d="M124.69 258.447C124.982 258.529 125.276 258.612 125.568 258.695C125.277 258.626 124.989 258.556 124.698 258.487L124.69 258.447Z" fill="#FFD9C2"/>
<path d="M226.933 30.0525C228.353 31.0766 227.848 32.6962 228.452 33.9491C229.065 35.2172 229.796 36.4259 230.628 37.9356C229.929 37.6713 229.286 37.6171 228.953 37.2681C227.024 35.2522 226.853 32.6786 226.933 30.0525Z" fill="#FFD9C2"/>
<path d="M85.2367 236.622C86.1989 236.83 87.2408 236.958 87.02 238.371C87.0286 238.37 87.0625 238.367 87.0625 238.367C86.914 237.309 86.0685 236.982 85.2435 236.631C85.2444 236.626 85.2367 236.622 85.2367 236.622Z" fill="#FFD9C2"/>
<path d="M89.6415 239.72C88.7993 239.265 87.9576 238.808 87.0892 238.36C87.063 238.367 87.0286 238.37 87.02 238.371C88.173 238.257 89.2015 238.384 89.5144 239.781C89.5235 239.777 89.6415 239.72 89.6415 239.72Z" fill="#FFD9C2"/>
<path d="M91.2688 240.921C91.4553 241.085 91.6451 241.246 91.8307 241.416C91.924 241.497 92.0074 241.589 92.097 241.676C91.9248 241.651 91.6622 241.685 91.6016 241.592C91.4769 241.39 91.4578 241.122 91.395 240.883L91.2688 240.921Z" fill="#FFD9C2"/>
<path d="M91.395 240.883C90.6373 240.76 89.931 240.556 89.65 239.717C89.6409 239.721 89.5229 239.778 89.5166 239.783C90.3589 239.759 90.8878 240.215 91.2555 240.93C91.2677 240.924 91.395 240.883 91.395 240.883Z" fill="#FFD9C2"/>
</svg>
