<svg width="120" height="120" viewBox="0 0 120 120" fill="none" xmlns="http://www.w3.org/2000/svg">
<path d="M79.8649 35.4401L66.5955 29.1286C66.3692 29.0203 66.1214 28.964 65.8705 28.964C65.6195 28.964 65.3718 29.0203 65.1454 29.1286L51.8744 35.4401C51.59 35.5816 51.3498 35.7985 51.1801 36.0672C51.0105 36.3358 50.9177 36.6458 50.9121 36.9635V55.9856C50.9121 56.3251 51.0145 56.6566 51.2058 56.937C51.3972 57.2173 51.6687 57.4334 51.9848 57.5571L65.2558 62.7448C65.6525 62.891 66.0884 62.891 66.4851 62.7448L79.7545 57.5571C80.0706 57.4334 80.3421 57.2173 80.5335 56.937C80.7248 56.6566 80.8272 56.3251 80.8272 55.9856V36.9637C80.8213 36.6461 80.7285 36.3361 80.5589 36.0675C80.3892 35.7989 80.1492 35.5819 79.8649 35.4401ZM65.8704 32.5207L74.8938 36.8121L65.8704 40.3394L56.8469 36.8121L65.8704 32.5207ZM54.2871 39.4347L64.1829 43.3024V58.7008L54.2871 54.8337V39.4347ZM77.4522 54.8332L67.5579 58.7004V43.3019L77.4522 39.4347V54.8332ZM90.5222 4.31201H34.1737C31.2365 4.31542 28.4207 5.48384 26.3439 7.56089C24.2672 9.63794 23.0992 12.454 23.0962 15.3912V92.8687C23.0988 95.1837 24.0195 97.403 25.6562 99.0401C27.293 100.677 29.5122 101.598 31.8272 101.601H34.8347V114C34.8351 114.305 34.9183 114.604 35.0754 114.866C35.2324 115.128 35.4575 115.342 35.7266 115.486C35.9958 115.63 36.2989 115.698 36.6038 115.684C36.9087 115.669 37.204 115.573 37.4583 115.404L43.5654 111.331L49.6727 115.404C49.9273 115.571 50.2223 115.666 50.5266 115.68C50.8309 115.694 51.1332 115.625 51.4018 115.481C51.6703 115.338 51.8952 115.124 52.0526 114.863C52.21 114.603 52.2942 114.304 52.2963 114V101.601H90.5229C90.8563 101.6 91.1822 101.501 91.4593 101.316C91.7364 101.13 91.9523 100.867 92.0799 100.559C92.2075 100.25 92.241 99.9114 92.1762 99.5843C92.1114 99.2572 91.9512 98.9566 91.7158 98.7204C88.6526 95.7804 88.5002 90.5381 91.3811 87.4268C92.9073 87.2221 94.3077 86.4717 95.3232 85.3143C96.3388 84.1569 96.9008 82.6708 96.9054 81.131V10.6955C96.9038 9.00299 96.2307 7.38031 95.034 6.18354C93.8373 4.98677 92.2146 4.31369 90.5222 4.31201ZM34.1737 7.68701H34.8347V84.1378C31.51 84.1244 29.223 83.8819 26.4712 86.04V15.3912C26.4734 13.3488 27.2855 11.3908 28.7295 9.94648C30.1735 8.50219 32.1314 7.68962 34.1737 7.68701ZM31.8272 98.2261C24.7132 97.9179 24.7322 87.8388 31.8272 87.5135H87.2179C86.6279 88.6626 86.2353 89.9027 86.0566 91.1819H36.5222C36.0746 91.1819 35.6454 91.3597 35.3289 91.6762C35.0124 91.9927 34.8347 92.4219 34.8347 92.8694V98.2261H31.8272ZM48.9213 110.847L44.5015 107.9C44.2243 107.716 43.8986 107.617 43.5655 107.617C43.2324 107.617 42.9067 107.716 42.6295 107.9L38.2097 110.847V94.5579H48.9206L48.9213 110.847ZM52.2963 98.2261V94.5562H86.0564C86.2352 95.8357 86.6279 97.076 87.2179 98.2254L52.2963 98.2261ZM93.5297 81.131C93.5287 81.9284 93.2116 82.6928 92.6477 83.2566C92.0839 83.8204 91.3195 84.1376 90.5222 84.1385H38.2097V7.68701H90.5222C91.3196 7.68819 92.084 8.00556 92.6478 8.56952C93.2116 9.13348 93.5287 9.89801 93.5297 10.6955V81.131Z" fill="#4A443D"/>
<path d="M79.8649 35.4401L66.5955 29.1286C66.3692 29.0203 66.1214 28.964 65.8705 28.964C65.6195 28.964 65.3718 29.0203 65.1454 29.1286L51.8744 35.4401C51.59 35.5816 51.3498 35.7985 51.1801 36.0672C51.0105 36.3358 50.9177 36.6458 50.9121 36.9635V55.9856C50.9121 56.3251 51.0145 56.6566 51.2058 56.937C51.3972 57.2173 51.6687 57.4334 51.9848 57.5571L65.2558 62.7448C65.6525 62.891 66.0884 62.891 66.4851 62.7448L79.7545 57.5571C80.0706 57.4334 80.3421 57.2173 80.5335 56.937C80.7248 56.6566 80.8272 56.3251 80.8272 55.9856V36.9637C80.8213 36.6461 80.7285 36.3361 80.5589 36.0675C80.3892 35.7989 80.1492 35.5819 79.8649 35.4401ZM65.8704 32.5207L74.8938 36.8121L65.8704 40.3394L56.8469 36.8121L65.8704 32.5207ZM54.2871 39.4347L64.1829 43.3024V58.7008L54.2871 54.8337V39.4347ZM77.4522 54.8332L67.5579 58.7004V43.3019L77.4522 39.4347V54.8332Z" fill="#FF5F1F"/>
<path d="M48.9213 110.847L44.5015 107.9C44.2243 107.716 43.8986 107.617 43.5655 107.617C43.2324 107.617 42.9067 107.716 42.6295 107.9L38.2097 110.847V94.5579H48.9206L48.9213 110.847Z" fill="#FF5F1F"/>
</svg>
