<svg width="120" height="120" viewBox="0 0 120 120" fill="none" xmlns="http://www.w3.org/2000/svg">
<path d="M80.9818 70.0351H41.458M80.9818 70.0351H70.2362M80.9818 70.0351V57.1866M41.458 70.0351V32.9705M41.458 70.0351L41.4581 48.4381H70.2363L70.2362 70.0351M41.458 70.0351H70.2362M41.458 32.9705L48.9242 17.5144M41.458 32.9705H80.9818M48.9242 17.5144V8.65601H75.2738V17.5144M48.9242 17.5144H75.2738M75.2738 17.5144L80.9818 32.9705M75.2738 17.5144L70.2492 32.9706L80.9818 32.9705M80.9818 32.9705V35.1558M80.9818 32.9705L70.2362 32.9708V70.0351" stroke="#4A443D" stroke-width="4.6875" stroke-miterlimit="10" stroke-linecap="round" stroke-linejoin="round"/>
<path d="M97.0722 38.8273C97.7673 37.2429 100.076 33.4507 106.111 33.4507C112.248 33.4507 117.656 37.6446 117.656 45.3028C117.656 48.4017 117.03 51.0565 115.279 54.0195C111.682 60.1048 97.0712 70.0353 97.0712 70.0353C97.0712 70.0353 82.4643 60.0572 78.8959 54.0195C77.1447 51.0565 76.5137 48.4017 76.5137 45.3028C76.5137 37.6446 81.913 33.4507 88.0506 33.4507C94.0855 33.4507 96.3775 37.2429 97.0722 38.8273ZM97.0722 38.8273C95.151 41.7784 95.9835 45.7292 98.9318 47.6522" stroke="#FF5F1F" stroke-width="4.6875" stroke-miterlimit="10" stroke-linecap="round" stroke-linejoin="round"/>
<path d="M29.336 38.1568C29.6958 37.8797 30.0422 37.5765 30.3717 37.2467C33.3075 34.3079 34.1381 30.0605 32.865 26.3806C29.1886 25.1058 24.9452 25.9374 22.009 28.876C19.4372 31.4506 18.4812 35.0293 19.1393 38.3511M41.2235 41.8094C37.1915 38.129 31.3807 37.3279 29.1586 38.2635C28.721 38.4477 28.2358 38.6317 27.7338 38.8028C26.34 39.2774 24.8175 39.6513 23.8282 39.6513C22.4829 39.6513 20.1511 38.9599 18.4978 38.2635C14.7968 36.7052 0.488614 39.9646 2.54479 53.3228C3.55401 59.8802 4.593 65.7538 6.50432 70.0354H40.6828M4.45929 90.6892V101.556C4.45929 106.961 8.83718 111.344 14.2377 111.344H107.878C113.279 111.344 117.656 106.961 117.656 101.556V90.6892M4.45929 90.6892L4.45935 70.0351H117.656V90.6892M4.45929 90.6892H77.9441M117.656 90.6892H103.305" stroke="#4A443D" stroke-width="4.6875" stroke-miterlimit="10" stroke-linecap="round" stroke-linejoin="round"/>
</svg>
