<svg width="188" height="48" viewBox="0 0 188 48" fill="none" xmlns="http://www.w3.org/2000/svg">
<path d="M14.7266 47.7144C14.6494 47.6763 14.5916 47.6191 14.5531 47.5429C14.3987 47.3525 14.2637 47.2572 14.148 47.2572C14.1093 47.2572 14.0708 47.2382 14.0322 47.2C13.9937 47.162 13.9551 47.1239 13.9165 47.0857C13.878 47.0096 13.8201 46.9524 13.7429 46.9143C13.7429 46.9143 13.7236 46.9143 13.6851 46.9143C13.6851 46.9524 13.6851 46.9906 13.6851 47.0286L13.4536 47.0857C13.2993 47.0857 13.1835 47.0667 13.1064 47.0286L12.9328 46.9714L12.8171 47.0857C12.5085 47.2 12.2963 47.2 12.1805 47.0857C12.142 47.0096 12.0842 46.9143 12.0069 46.8001C11.9684 46.6858 11.9491 46.5715 11.9491 46.4572C11.9491 46.3429 11.9298 46.2858 11.8912 46.2858C11.8141 46.2858 11.7562 46.2667 11.7177 46.2286L11.6019 46.1143L11.5441 46.1715L11.3126 46.2858C11.1968 46.2858 11.1004 46.1524 11.0232 45.8858C11.0232 45.6952 10.9847 45.581 10.9076 45.5429C10.9461 45.5048 10.9461 45.4286 10.9076 45.3143C10.9076 45.162 10.9076 45.0477 10.9076 44.9715C10.9076 44.8191 10.8882 44.6858 10.8497 44.5715C10.8111 44.4572 10.7918 44.362 10.7918 44.2857C10.6761 43.8286 10.6182 43.5049 10.6182 43.3143L10.5025 42.8572C10.4639 42.7429 10.4446 42.4572 10.4446 42.0001C10.4832 41.8476 10.5025 41.7143 10.5025 41.6C10.5025 41.4477 10.5217 41.3144 10.5603 41.2001V40.3429C10.599 40.1905 10.6182 40.0572 10.6182 39.9429C10.6182 39.7906 10.6375 39.6571 10.6761 39.5429C10.6375 39.4667 10.6182 39.3715 10.6182 39.2572C10.6567 39.1429 10.6761 39.0476 10.6761 38.9715L10.7918 37.9429L10.8497 36.9143V36.1714L11.0811 35.0287C11.1197 34.8762 11.1197 34.6858 11.0811 34.4572C11.0811 34.1905 11.0811 34.0381 11.0811 34.0001L11.139 33.2001C11.139 32.8572 11.1583 32.6286 11.1968 32.5143L11.2547 31.5429L11.3126 30.5714V30.0572C11.3512 29.9048 11.3704 29.7143 11.3704 29.4858C11.4091 29.4095 11.4283 29.2952 11.4283 29.1429C11.4283 28.9905 11.4669 28.8191 11.5441 28.6286C11.5441 28.2096 11.5441 27.8667 11.5441 27.6001C11.5827 27.2953 11.5827 27.0667 11.5441 26.9143C11.5827 26.8381 11.5827 26.781 11.5441 26.7429C11.5441 26.6667 11.5248 26.6286 11.4862 26.6286C11.4091 26.6667 11.2933 26.7619 11.139 26.9143C10.9847 27.0667 10.8303 27.219 10.6761 27.3715C10.0589 28.1333 9.75025 28.5144 9.75025 28.5144C9.67312 28.5524 9.55738 28.6477 9.40303 28.8C9.28728 28.9524 9.09441 29.1239 8.82441 29.3143C8.43867 29.8096 7.87932 30.3619 7.14631 30.9715L6.10475 31.8858L5.75755 32.1715C5.64182 32.2095 5.5261 32.2477 5.41037 32.2857C5.33321 32.2857 5.27535 32.3048 5.23677 32.3429L5.00531 32.5143C4.92816 32.5906 4.79314 32.6667 4.60026 32.7429L4.1952 32.9715C4.1952 33.0095 4.17592 33.0286 4.13734 33.0286C4.09876 33.0286 4.06018 33.0477 4.02161 33.0858C3.8673 33.0858 3.77086 33.1048 3.73228 33.1429L3.55869 33.2001C3.52012 33.2001 3.42367 33.2381 3.26936 33.3143C3.23079 33.4286 3.11506 33.5048 2.92218 33.5429C2.76787 33.581 2.63285 33.581 2.51712 33.5429C2.47855 33.5429 2.42068 33.5047 2.34353 33.4286C2.30495 33.3524 2.28567 33.2953 2.28567 33.2571C2.24708 33.181 2.16993 33.0858 2.0542 32.9715C1.93847 32.8572 1.84203 32.7619 1.76488 32.6857C1.7263 32.6476 1.66844 32.6286 1.59128 32.6286C1.51413 32.6286 1.45626 32.6096 1.41769 32.5714L0.954769 32.4571C0.839037 32.381 0.742602 32.381 0.665443 32.4571C0.549721 32.4571 0.433989 32.4381 0.318256 32.4C0.241108 32.362 0.183237 32.3048 0.144663 32.2286V31.8286V31.0286V30.3429V29.8286C0.106089 29.7524 0.0867918 29.581 0.0867918 29.3143V28.6857C0.0867918 28.5715 0.106089 28.4762 0.144663 28.4001C0.183237 28.3239 0.202524 28.1905 0.202524 28C0.202524 27.8477 0.16395 27.7334 0.0867918 27.6572C-0.0289306 27.5048 -0.0289306 27.3524 0.0867918 27.2C0.125376 27.1239 0.241108 26.9714 0.433988 26.7429C0.665443 26.4762 0.81975 26.3048 0.896908 26.2286L1.24409 26L1.93847 25.6L2.4014 25.3714C2.82573 24.8381 3.13435 24.5143 3.32724 24.4C3.59726 24.1714 3.92516 23.8667 4.31094 23.4857C4.6967 23.1048 4.96674 22.8 5.12104 22.5714C5.27535 22.3428 6.16261 21.4286 7.78283 19.8286C8.05283 19.5619 8.2457 19.2952 8.36145 19.0286L8.76654 18.6857C9.11377 18.4191 9.51877 18.019 9.98174 17.4858C10.4446 16.9524 10.8111 16.5143 11.0811 16.1714C11.1583 16.0953 11.2354 16.0191 11.3126 15.9428C11.3897 15.8285 11.4476 15.7524 11.4862 15.7143L11.8334 15.2571C11.8719 15.181 11.9684 15.0667 12.1227 14.9143L12.2963 14.6857L12.3542 14.4571C12.4313 14.1905 12.5085 14.0191 12.5856 13.9429C12.5856 13.9048 12.6049 13.8666 12.6435 13.8286C12.7206 13.7523 12.7978 13.6953 12.8749 13.6572C13.1064 13.3524 13.2221 13.1619 13.2221 13.0858C13.2221 13.0476 13.145 12.9905 12.9906 12.9143C12.9521 12.9143 12.7593 12.8572 12.412 12.7429C12.3349 12.6667 12.2384 12.6286 12.1227 12.6286L11.7177 12.4571L11.4283 12.3428H11.3704C11.2162 12.3428 10.9268 12.2285 10.5025 12L10.1553 11.7714C9.96238 11.619 9.67312 11.5048 9.28728 11.4285L8.94016 11.2572C8.90154 11.2191 8.84367 11.2 8.76654 11.2C8.72793 11.2 8.68941 11.1809 8.6508 11.1429C8.57367 11.1048 8.45793 11.0095 8.30358 10.8571L8.18783 10.6857V10.4V9.82856C8.18783 9.48567 8.20719 9.27619 8.2457 9.20002C8.2457 8.93329 8.26506 8.70479 8.30358 8.51423C8.26506 8.3619 8.22645 8.30475 8.18783 8.34288C8.18783 8.38092 8.20719 8.32377 8.2457 8.17143V6.9714L8.18783 6.68566C8.22645 6.60949 8.34219 6.53333 8.53506 6.45716L8.88229 6.34286C8.95941 6.2667 9.07516 6.22856 9.22941 6.22856L9.69238 6.17141L10.0395 6.11426L10.5025 5.99997L11.1968 5.88567C11.5441 5.88567 11.7177 5.86665 11.7177 5.82852C11.7562 5.82852 11.8912 5.8095 12.1227 5.77147C12.3542 5.73334 12.5856 5.73334 12.8171 5.77147L14.0322 5.48572C14.6881 5.37143 15.0931 5.31428 15.2474 5.31428C15.4017 5.35241 15.5945 5.37142 15.826 5.37142C16.0575 5.33329 16.2696 5.31428 16.4626 5.31428C16.7712 5.19998 17.292 5.14283 18.0249 5.14283C18.7193 4.9905 19.0858 4.89522 19.1244 4.85708C19.1244 4.74288 19.2208 4.55232 19.4136 4.28569C19.568 4.01906 19.703 3.7143 19.8187 3.3714C19.973 3.02851 20.0887 2.76188 20.166 2.57141C20.3588 1.96189 20.5517 1.54283 20.7446 1.31423L21.2074 0.74284C21.2461 0.704708 21.3425 0.609525 21.4968 0.457095C21.6512 0.266631 21.7668 0.152331 21.844 0.114297L22.1912 0L22.5384 0.0571485C22.577 0.0571485 22.6349 0.0951837 22.712 0.171447C22.712 0.171447 22.7891 0.247612 22.9435 0.399945C23.0206 0.476209 23.2135 0.628542 23.5221 0.857139C23.5221 0.857139 23.6378 0.971436 23.8693 1.19994C23.9464 1.31423 23.985 2.01904 23.985 3.31425L23.9272 3.99995L23.7536 4.39999C23.7536 4.47615 23.85 4.49527 24.0428 4.45714C24.2357 4.41901 24.4865 4.39999 24.7952 4.39999C25.1038 4.36186 25.3352 4.34284 25.4895 4.34284H25.721C25.9524 4.34284 26.126 4.36186 26.2417 4.39999C26.7818 4.39999 27.0711 4.41901 27.1097 4.45714L28.3249 4.57144C28.5949 4.57144 28.7492 4.59045 28.7878 4.62858C28.865 4.59045 28.9421 4.59045 29.0192 4.62858C29.0964 4.62858 29.1735 4.62858 29.2507 4.62858C29.4822 4.70475 29.5979 4.7619 29.5979 4.80003C29.7136 4.80003 29.8101 4.81905 29.8872 4.85708C30.1572 4.85708 30.5431 4.93335 31.0445 5.08568C31.276 5.19998 31.4881 5.25713 31.681 5.25713C31.9896 5.44759 32.2404 5.58091 32.4332 5.65717C32.6261 5.73334 32.8769 5.84763 33.1856 5.99997C33.4941 6.1524 33.8028 6.28571 34.1113 6.40001C34.3043 6.59047 34.4007 6.68566 34.4007 6.68566C34.4393 6.72379 34.555 6.81907 34.7479 6.9714C34.8636 7.00953 35.0758 7.16187 35.3844 7.42859L35.6159 7.60004C35.7701 7.67621 35.8859 7.86667 35.963 8.17143C35.963 8.40003 35.9437 8.53335 35.9052 8.57138C35.9052 8.60951 35.9245 8.62853 35.963 8.62853C36.0016 8.62853 35.9823 8.68568 35.9052 8.79998C35.7895 9.02857 35.7316 9.18091 35.7316 9.25717C35.7316 9.7524 35.6545 10.1143 35.5001 10.3428C35.3458 10.6477 35.2686 10.9143 35.2686 11.1429V11.4285C35.2686 11.7714 35.2108 12.019 35.095 12.1714C34.8636 12.4 34.7285 12.5524 34.69 12.6286C34.5743 12.7809 34.4585 12.8762 34.3428 12.9143C34.2657 12.9905 34.2078 13.0286 34.1692 13.0286L33.7642 13.1428L33.417 13.2C33.3398 13.2381 32.7419 13.2571 31.6231 13.2571L29.8872 13.3714C29.6557 13.4857 29.1735 13.5238 28.4406 13.4857H27.5148C27.0518 13.4857 26.7818 13.5238 26.7046 13.6C26.7046 13.6 26.6661 13.619 26.589 13.6572C26.5117 13.6572 26.4153 13.6381 26.2996 13.6C26.0681 13.5619 25.8752 13.5619 25.721 13.6C25.5666 13.6381 25.393 13.6381 25.2001 13.6C25.0844 13.6381 24.9687 13.6572 24.8529 13.6572C24.7373 13.619 24.6794 13.6 24.6794 13.6C24.5637 13.6 24.4672 13.581 24.3901 13.5429L24.0428 13.6C23.85 13.6762 23.4063 13.7333 22.712 13.7715H22.1333C21.5933 13.7715 21.2653 13.7905 21.1496 13.8286C20.8796 13.8286 20.6867 13.8095 20.571 13.7715C20.3395 13.6953 20.166 13.6953 20.0502 13.7715L19.8766 14.2286L19.5294 15.0285C19.4136 15.2953 19.1436 15.7715 18.7193 16.4572C18.5264 16.8 18.3143 17.1429 18.0828 17.4858C17.8899 17.7905 17.7742 18 17.7356 18.1143L17.5041 18.5143C17.3884 18.6285 17.2341 18.8571 17.0412 19.2C16.8869 19.5048 16.694 19.8096 16.4626 20.1143L15.9996 20.6286L15.826 21.0286L15.5368 21.3714C15.4982 21.4477 15.4789 21.5429 15.4789 21.6571C15.4789 21.7714 15.4982 21.9048 15.5368 22.0572L15.5945 22.5143C15.6332 22.6286 15.6524 22.7619 15.6524 22.9143C15.691 23.0667 15.7296 23.2953 15.7682 23.6C15.8068 23.8667 15.8454 24.1714 15.8839 24.5143C15.9225 25.3905 15.9418 26.7238 15.9418 28.5144C15.9804 30.2667 15.9804 31.2381 15.9418 31.4286V33.4857V35.3715V37.2572V39.2001C15.9418 39.2001 15.9225 39.3334 15.8839 39.6C15.8839 39.8667 15.9033 40.2286 15.9418 40.6857L15.8839 42.1715C15.9225 42.2477 15.9033 42.4 15.826 42.6286C15.826 43.8096 15.7682 44.9144 15.6524 45.943C15.6524 46.2096 15.6139 46.381 15.5368 46.4572L15.4789 46.7429C15.5174 46.781 15.4982 46.8763 15.421 47.0286L15.3053 47.2572L15.0159 47.7144C14.9773 47.7524 14.9195 47.7715 14.8423 47.7715C14.8038 47.7715 14.7652 47.7524 14.7266 47.7144ZM33.1277 42.343C32.9347 42.343 32.8191 42.3238 32.7805 42.2858C32.7419 42.2858 32.684 42.2667 32.6069 42.2287C32.5683 42.1905 32.5297 42.1524 32.4911 42.1144C32.3369 42.1144 32.2211 42.0952 32.144 42.0572H32.0282C31.8354 42.0952 31.5846 42.1334 31.276 42.1715C30.9674 42.1715 30.7359 42.1524 30.5816 42.1144C30.5816 42.0762 30.5623 42.0572 30.5237 42.0572C30.4852 42.0572 30.4466 42.0572 30.408 42.0572C30.2923 42.0572 30.1958 42.0381 30.1187 42.0001C30.003 42.0001 29.7715 42.0001 29.4243 42.0001C29.1157 41.9619 28.9035 41.9619 28.7878 42.0001C28.7106 42.0381 28.6335 42.0572 28.5563 42.0572C28.5178 42.0191 28.4791 42.0001 28.4406 42.0001C28.2477 41.9619 27.9777 41.9429 27.6305 41.9429C27.3218 41.9429 27.0711 41.9619 26.8782 42.0001H26.589C26.5503 41.9619 26.4732 41.9048 26.3575 41.8286C26.2803 41.7143 25.9331 41.6763 25.3159 41.7143L24.7373 41.7715C24.6987 41.8096 24.6215 41.8096 24.5058 41.7715H24.1586L23.7536 41.7143C23.1363 41.7143 22.7312 41.7334 22.5384 41.7715C22.384 41.7715 22.2876 41.7525 22.249 41.7143C22.1719 41.6763 22.0369 41.6763 21.844 41.7143L21.4968 41.7715C21.4583 41.7334 21.4004 41.7143 21.3232 41.7143H20.7446C20.5131 41.7143 20.3395 41.7143 20.2238 41.7143C20.1466 41.6763 20.0502 41.6 19.9345 41.4857C19.7416 41.2953 19.568 41.1619 19.4136 41.0858C19.2594 41.0096 19.0665 40.9715 18.835 40.9715C18.7579 40.9333 18.6807 40.9143 18.6035 40.9143C18.5264 40.9143 18.4685 40.8953 18.4299 40.8572H18.1985C17.8513 40.8572 17.6392 40.819 17.562 40.7429C17.5234 40.7048 17.5041 40.5144 17.5041 40.1715L17.4462 38.5144C17.4077 38.5144 17.3884 38.4572 17.3884 38.3429C17.427 38.3048 17.4077 38.1905 17.3306 38L17.2148 37.4286C17.2148 37.0477 17.1955 36.8191 17.157 36.7429C17.1183 36.6667 17.0991 36.5715 17.0991 36.4572C17.1377 36.4572 17.157 36.4762 17.157 36.5143C17.157 36.6286 17.1183 36.8001 17.0412 37.0286C17.0412 37.0667 17.022 37.0857 16.9833 37.0857C16.9447 37.0857 16.8869 36.8763 16.8097 36.4572C16.7712 36.0381 16.7905 35.8667 16.8676 35.9428H16.9255C17.0026 35.9428 17.1377 35.8667 17.3306 35.7144C17.5234 35.5239 17.6584 35.4096 17.7356 35.3715C17.7742 35.3715 17.8706 35.2953 18.0249 35.1429C18.3335 34.9144 18.5264 34.7809 18.6035 34.7429C18.6422 34.7048 18.7772 34.6476 19.0086 34.5715C19.0858 34.5715 19.1823 34.5333 19.2979 34.4572C19.4136 34.381 19.4909 34.3429 19.5294 34.3429C19.9537 34.1524 20.6674 33.9619 21.6704 33.7715L22.3648 33.7143H23.0012L23.58 33.6C23.6571 33.5619 23.7536 33.5429 23.8693 33.5429C24.0236 33.5048 24.1972 33.4667 24.3901 33.4286C25.2773 33.3524 25.7402 33.2953 25.7789 33.2571C25.7789 33.2571 25.7789 33.2001 25.7789 33.0858C25.8174 32.9715 25.8174 32.8 25.7789 32.5714L25.8945 31.3144V30.8572C25.8945 29.8286 25.8752 29.2952 25.8366 29.2572C25.8366 29.2191 25.7595 29.2 25.6052 29.2L25.3738 29.1429H24.8529C24.1586 29.1429 23.7728 29.1239 23.6957 29.0857C23.58 28.9714 23.1749 28.8571 22.4805 28.7428C22.3648 28.7428 22.2298 28.7048 22.0755 28.6286L21.844 28.5144C21.5739 28.4001 21.3811 28.2476 21.2653 28.0572C21.2653 27.981 21.1882 27.9048 21.0339 27.8286C20.8411 27.6762 20.6674 27.5809 20.5131 27.5429L19.9923 27.3143C19.9151 27.2382 19.7995 27.2 19.6451 27.2L19.2979 27.0286C19.2594 27.0286 19.2208 27.0096 19.1823 26.9714C19.1823 26.8953 19.2015 26.8191 19.2401 26.7429V26.3429L19.2979 25.9428C19.2979 25.8286 19.3173 25.7524 19.3558 25.7143C19.3944 25.6381 19.4136 25.5619 19.4136 25.4857L19.5294 25.0857L19.4715 24.8001V24.8572C19.4715 24.6286 19.4909 24.419 19.5294 24.2286C19.6066 23.9619 19.6259 23.9619 19.5872 24.2286L19.6451 23.7715C19.7222 23.619 19.7222 23.4096 19.6451 23.1428L19.5872 22.8572L19.703 22.6857C19.9345 22.4571 20.166 22.3048 20.3973 22.2286C20.706 22.1143 20.9182 22.0572 21.0339 22.0572C21.1882 22.0572 21.4004 22 21.6704 21.8857C21.9404 21.7333 22.2105 21.6381 22.4805 21.6C22.6734 21.6381 22.8277 21.6381 22.9435 21.6C23.0206 21.5238 23.117 21.4857 23.2327 21.4857L23.6378 21.3714C23.6763 21.2952 23.7342 21.2572 23.8114 21.2572C23.85 21.2952 23.9078 21.2762 23.985 21.2001C24.1393 21.1238 24.2936 21.0858 24.4479 21.0858L25.0265 20.9143L25.4895 20.8572C25.9524 20.781 26.2031 20.7047 26.2417 20.6286C26.2803 20.5905 26.2996 20.5143 26.2996 20.4001C26.2996 20.2476 26.3189 20.1333 26.3575 20.0572C26.3575 19.981 26.3382 19.8857 26.2996 19.7714C26.2996 19.6571 26.3189 19.5428 26.3575 19.4286L26.4732 18.9143L26.5311 18.3429C26.5311 18.1524 26.5503 18.019 26.589 17.9428L26.7046 17.4858L26.8203 17.1429C26.8203 17.0286 26.8976 16.9714 27.0518 16.9714C27.129 16.9714 27.1868 16.9524 27.2254 16.9143C27.2641 16.8381 27.3026 16.7238 27.3412 16.5715C27.4183 16.419 27.4762 16.3239 27.5148 16.2857H27.6305L27.8041 16.3429H27.9198C28.2284 16.3429 28.4599 16.419 28.6141 16.5715L28.9035 16.7429C29.0192 16.7809 29.135 16.8381 29.2507 16.9143C29.405 16.9905 29.5207 17.0667 29.5979 17.1429C29.7522 17.2953 29.8293 18.019 29.8293 19.3143C29.868 19.9619 29.9065 20.3238 29.9451 20.4001C29.9837 20.4762 30.0994 20.5334 30.2923 20.5714L30.8131 20.6286H31.1603C31.8932 20.6286 32.6455 20.8 33.417 21.1429L34.227 21.5428C34.5357 21.6191 34.7479 21.7333 34.8636 21.8857L35.963 22.6286C36.2717 22.9333 36.4838 23.2 36.5996 23.4286C36.7153 23.5429 36.7732 23.6953 36.7732 23.8858L36.7153 24.9714L36.6574 25.2571C36.6574 25.2571 36.6381 25.3143 36.5996 25.4286L36.4838 25.7143L36.3102 26.1714C36.2331 26.4 36.1945 26.6476 36.1945 26.9143C36.1945 27.181 36.156 27.3143 36.0787 27.3143C36.0016 27.5429 35.8666 27.7144 35.6737 27.8286L35.3844 28.1143C35.2686 28.2667 35.095 28.3429 34.8636 28.3429C34.7093 28.3429 34.6129 28.3619 34.5743 28.4001C34.3428 28.5144 34.1692 28.5715 34.0535 28.5715C33.9763 28.5715 33.8799 28.5905 33.7642 28.6286C33.6871 28.6667 33.5906 28.6857 33.4748 28.6857L32.8383 28.7428C32.7612 28.7048 32.6647 28.7048 32.549 28.7428C32.4719 28.7428 32.4332 28.7428 32.4332 28.7428C32.3947 28.781 32.3175 28.8 32.2019 28.8C32.1246 28.8 32.0475 28.8191 31.9704 28.8571C31.4689 28.9334 31.1795 28.9905 31.1024 29.0286L30.5237 29.1429C30.2537 29.1429 30.0994 29.1619 30.0608 29.2C30.0222 29.2381 29.9837 29.2952 29.9451 29.3715C29.9451 29.4477 29.9643 29.5429 30.003 29.6571C30.003 29.7714 30.003 30.3048 30.003 31.2572C30.0416 32.1715 30.0416 32.6667 30.003 32.7429C29.9643 32.8191 29.9643 32.9143 30.003 33.0286C30.0416 33.1429 30.0994 33.2191 30.1766 33.2571C30.2537 33.2953 30.408 33.3143 30.6394 33.3143C30.9095 33.2763 31.2374 33.2571 31.6231 33.2571C33.6292 33.2571 34.7093 33.2763 34.8636 33.3143H35.3265L35.963 33.3714C36.0402 33.4857 36.156 33.5429 36.3102 33.5429C36.3488 33.581 36.5224 33.6 36.831 33.6L37.4097 33.7143C37.9111 33.8667 38.2005 33.9619 38.2776 34.0001L39.2035 34.4572H39.2613C39.4156 34.4572 39.6086 34.5333 39.84 34.6858L40.4187 34.8572C40.6115 34.9334 40.7079 35.0667 40.7079 35.2572L40.8237 35.6001C40.9008 35.7524 40.9394 35.981 40.9394 36.2857V36.5715L41.1709 36.9143C41.248 37.1048 41.3059 37.1619 41.3445 37.0857C41.383 37.0096 41.383 37.0096 41.3445 37.0857C41.3059 37.1239 41.2866 37.2953 41.2866 37.6001C41.3251 38.1715 41.3251 38.5144 41.2866 38.6287C41.2095 38.7429 41.1709 38.9143 41.1709 39.1429C41.1709 39.3715 41.1901 39.562 41.2288 39.7143C41.3445 39.8286 41.4024 39.9619 41.4024 40.1143C41.4024 40.1905 41.383 40.2858 41.3445 40.4001C41.3059 40.5144 41.248 40.6096 41.1709 40.6857L41.0551 40.8572C41.0551 40.8953 41.0165 40.9333 40.9394 40.9715C40.9008 41.0096 40.8815 41.0668 40.8815 41.1429C40.8044 41.2953 40.65 41.4286 40.4187 41.5429C40.1872 41.6953 40.0714 41.7334 40.0714 41.6572C39.9943 41.6572 39.9364 41.6763 39.8978 41.7143L39.7821 41.7715L39.6663 41.8286C39.6278 41.8667 39.57 41.8858 39.4928 41.8858C39.4156 41.8096 39.2035 41.7715 38.8562 41.7715L38.3355 41.8286L38.1619 41.9429L37.9883 42.1144H37.5254H36.831C36.7153 42.1905 36.4838 42.2287 36.1366 42.2287C35.7895 42.2287 35.4809 42.2477 35.2108 42.2858L34.5743 42.343C34.4971 42.381 34.3428 42.4 34.1113 42.4C33.8799 42.362 33.7063 42.343 33.5906 42.343H33.1277ZM75.8019 41.4286H75.3968C75.3583 41.3905 75.146 41.3715 74.7603 41.3715C74.1045 41.3715 73.738 41.3524 73.6609 41.3144C73.6222 41.2762 73.5451 41.2572 73.4294 41.2572C73.3909 41.2191 73.333 41.2001 73.2559 41.2001C73.1786 41.1619 73.0822 41.1239 72.9665 41.0858L72.5614 40.9143C72.4457 40.9143 72.1949 40.8382 71.8092 40.6857C71.462 40.5334 71.2498 40.4381 71.1727 40.4001C70.9412 40.2095 70.7483 40.0953 70.594 40.0572C70.5555 40.0191 70.4783 39.981 70.3626 39.9429C70.2469 39.9049 70.1311 39.8667 70.0154 39.8286C69.8611 39.7143 69.6681 39.6571 69.4368 39.6571C69.1667 39.5429 68.9738 39.3715 68.858 39.1429C68.6652 38.9524 68.5109 38.762 68.3952 38.5715C68.2794 38.3429 68.183 38.0382 68.1058 37.6572C67.9516 37.3143 67.8743 36.9905 67.8743 36.6858V36.4572C67.8358 36.3429 67.8165 36.1524 67.8165 35.8858C67.8165 35.6191 67.7972 35.3715 67.7586 35.1429C67.7586 33.8476 67.7008 32.7429 67.5851 31.8286C67.5465 31.5238 67.5079 31.2381 67.4693 30.9715C67.4307 30.6667 67.4115 30.381 67.4115 30.1143C67.4886 29.6571 67.5272 28.9334 67.5272 27.9429C67.5657 27.8667 67.5851 27.7714 67.5851 27.6572C67.5851 27.5429 67.6043 27.4476 67.643 27.3715L67.7586 25.7143C67.8358 25.5619 67.8743 25.3143 67.8743 24.9714L67.9322 24.3429L67.9901 23.8858C68.0672 23.581 68.1058 23.4286 68.1058 23.4286V22.9143C68.1058 22.1905 68.1444 21.6571 68.2216 21.3143C68.2987 20.9715 68.3373 20.7619 68.3373 20.6857L68.3952 20.3429C68.3952 20.1905 68.3758 20.0952 68.3373 20.0572H68.1637C67.8551 20.0572 67.6043 20.019 67.4115 19.9429C67.4115 19.9047 67.315 19.8857 67.1221 19.8857C67.0836 19.8857 66.9485 19.8476 66.7171 19.7714L66.2541 19.6571L65.8491 19.4857C65.7719 19.4476 65.714 19.3715 65.6755 19.2572C65.6755 19.1048 65.6562 18.8571 65.6177 18.5143C65.6177 18.4762 65.5983 18.4952 65.5598 18.5715C65.5598 18.6095 65.5405 18.5905 65.5019 18.5143C65.4248 18.2096 65.3862 17.8667 65.3862 17.4858C65.3862 17.2572 65.4054 17.0857 65.444 16.9714C65.5212 16.8191 65.6369 16.6476 65.7913 16.4572C65.9069 16.381 66.0034 16.3239 66.0805 16.2857C66.1578 16.2096 66.2155 16.1714 66.2541 16.1714C66.6785 15.981 66.9292 15.8095 67.0064 15.6572C67.1607 15.5809 67.2765 15.5429 67.3536 15.5429L67.5851 15.4286L67.7586 15.3714L67.8743 15.3143C68.2602 15.0095 68.6844 14.7429 69.1474 14.5143C69.3789 14.4381 69.4946 14.381 69.4946 14.3429C69.5718 14.3429 69.6681 14.0191 69.7839 13.3714C69.9768 12.6096 70.1504 12.019 70.3047 11.6L70.594 10.5143C70.7097 10.4 70.7676 10.2286 70.7676 10L70.9412 9.59997C71.0183 9.44763 71.0569 9.27619 71.0569 9.08572L71.1727 8.79998C71.1727 8.64764 71.2112 8.57138 71.2884 8.57138C71.3656 8.38092 71.4619 8.20957 71.5777 8.05714C71.732 7.90471 71.867 7.80952 71.9828 7.77139H72.0985C72.3685 7.77139 72.5614 7.82854 72.6771 7.94284L73.0244 8.17143L73.3715 8.45718C73.7187 8.87614 73.9116 9.94286 73.9502 11.6571C73.9502 12.0762 73.9695 12.381 74.0081 12.5714H74.2395C74.3552 12.4571 74.471 12.4 74.5867 12.4C74.741 12.4 74.9532 12.3428 75.2232 12.2285C75.5318 12.1143 76.1876 11.9238 77.1906 11.6571L77.885 11.2572C77.885 11.1429 77.9428 10.9714 78.0586 10.7428C78.1743 10.3619 78.2129 10.1905 78.1743 10.2286L78.3479 9.77141L78.4058 9.42862C78.5215 9.27619 78.6373 9.08572 78.753 8.85713C78.9073 8.66666 79.0423 8.55236 79.158 8.51423C79.2351 8.51423 79.3316 8.41905 79.4474 8.22858C79.5631 8.07615 79.6595 7.99999 79.7367 7.99999C79.9681 7.92382 80.161 7.94284 80.3153 8.05714C80.8554 8.43807 81.164 8.66666 81.2412 8.74283C81.2412 8.78096 81.2604 8.85713 81.299 8.97142C81.3376 9.08572 81.3569 9.21904 81.3569 9.37147C81.3569 9.82856 81.3183 10.1333 81.2412 10.2858C81.2026 10.3238 81.1833 10.3809 81.1833 10.4571C81.1833 10.5334 81.2219 10.5714 81.299 10.5714H81.4148L82.6299 10.5143C83.2086 10.4762 84.1344 10.4571 85.4074 10.4571C85.446 10.4952 85.5039 10.5334 85.581 10.5714C85.6968 10.6095 85.8125 10.6477 85.9282 10.6857L87.0856 11.1429L87.6642 11.6571C87.7799 11.7714 87.8957 11.8667 88.0114 11.9429C88.1657 11.9809 88.2621 12.0381 88.3007 12.1143C88.6093 12.3048 88.7829 12.6096 88.8215 13.0286C88.8986 13.2952 88.9372 13.5238 88.9372 13.7143V14.2857C88.9372 14.7809 88.8215 15.6762 88.59 16.9714C88.5514 17.0476 88.5321 17.2 88.5321 17.4286C88.4935 17.6952 88.3393 18.0762 88.0693 18.5715C87.992 18.7238 87.8957 18.9143 87.7799 19.1429C87.7028 19.3333 87.6063 19.5619 87.4906 19.8286L87.3748 20.1715C87.1819 20.6667 86.8348 21.1238 86.3332 21.5428L86.1597 21.7714C86.0825 21.9238 85.9282 22.1143 85.6968 22.3428C85.5039 22.5333 85.3303 22.6857 85.176 22.8C84.9445 22.9905 84.7902 22.9524 84.713 22.6857C84.6745 22.5714 84.5394 22.4191 84.308 22.2286L84.0187 22.1715C83.8643 22.2095 83.7487 22.2095 83.6715 22.1715C83.5943 22.0952 83.4786 22.0572 83.3243 22.0572C83.0928 22.0572 82.9771 22.0191 82.9771 21.9429C82.9 21.9429 82.8614 21.8857 82.8614 21.7714L82.9771 20.8572L83.035 20.0572V19.0857C83.035 18.5905 83.0736 18.2286 83.1507 18C83.1892 17.7714 83.1507 17.6001 83.035 17.4858C82.9192 17.4095 82.7456 17.4095 82.5142 17.4858L82.1091 17.5429C82.032 17.5429 81.7619 17.6191 81.299 17.7714C81.2219 17.8477 81.164 18.1143 81.1254 18.5715L81.0676 19.6C81.0676 19.8667 81.0483 20.0952 81.0097 20.2858C81.0097 20.4762 80.9904 20.6667 80.9518 20.8572C80.9133 21.0476 80.8939 21.2001 80.8939 21.3143C80.8168 21.6191 80.7782 21.9048 80.7782 22.1715C80.7397 22.3238 80.7203 22.4953 80.7203 22.6857C80.6818 22.7239 80.6626 22.8762 80.6626 23.1428L80.5468 23.8286L80.4311 24.5143L80.2575 26.1714L80.1417 26.5715C80.0646 26.8762 79.9489 27.2 79.7945 27.5429C79.6789 27.8857 79.5438 28.0953 79.3895 28.1715C79.3124 28.2476 79.2351 28.3048 79.158 28.3429C79.0809 28.3429 79.023 28.3048 78.9844 28.2286C78.9073 28.1524 78.8301 28.1143 78.753 28.1143C78.6373 28.1143 78.5408 28.0953 78.4637 28.0572C78.3865 28.019 78.2708 27.962 78.1164 27.8857C78.0007 27.7714 77.885 27.7144 77.7693 27.7144H77.7114C77.6342 27.7905 77.5764 27.8286 77.5378 27.8286C77.3063 27.7905 77.1713 27.7905 77.1327 27.8286L76.9592 27.8857C76.882 27.8857 76.8049 27.8286 76.7277 27.7144L76.612 27.3143L76.5541 26.8L76.4962 26.4C76.4962 26.2096 76.4384 26.0571 76.3226 25.9428C76.3226 25.8667 76.2841 25.7524 76.2069 25.6L76.149 25.2571C76.1105 25.181 76.0911 25.0477 76.0911 24.8572C76.0911 24.6286 76.014 24.4572 75.8598 24.3429C75.7825 24.2667 75.7248 24.1905 75.6861 24.1143C75.6861 24.0381 75.7054 23.9238 75.744 23.7715C75.7825 23.6953 75.8019 23.5619 75.8019 23.3714C75.8019 23.0286 75.8404 22.6476 75.9176 22.2286C75.9561 22.1905 75.9755 22.1334 75.9755 22.0572C75.9755 21.9429 75.9948 21.8476 76.0334 21.7714L76.0911 21.2572C76.2069 20.3429 76.2648 19.7143 76.2648 19.3715C76.2648 19.2572 76.2455 19.181 76.2069 19.1429C76.1684 19.1047 76.0911 19.0857 75.9755 19.0857C75.8983 19.1239 75.7633 19.1429 75.5704 19.1429C75.3389 19.1429 75.1653 19.181 75.0497 19.2572C74.9339 19.3333 74.7603 19.3715 74.5288 19.3715C74.4903 19.4095 74.4131 19.4476 74.2973 19.4857C74.1817 19.4857 74.1045 19.5048 74.0659 19.5428L73.6609 19.6C73.468 19.6 73.333 19.6571 73.2559 19.7714C73.1401 19.8857 73.0822 20.4381 73.0822 21.4286V21.8286C73.0822 22.2857 73.0244 22.7429 72.9086 23.2L72.7929 23.6572L72.735 24.0572C72.6964 24.1714 72.6771 24.3619 72.6771 24.6286C72.6771 24.8572 72.6579 25.0286 72.6193 25.1429L72.4457 25.8286C72.4071 25.981 72.3878 26.1524 72.3878 26.3429C72.4264 26.5333 72.4264 26.7048 72.3878 26.8571C72.3107 27.3525 72.2721 27.6001 72.2721 27.6001L72.2143 28.1715C72.1757 28.2858 72.1564 28.4191 72.1564 28.5715C72.1564 28.6857 72.137 28.8 72.0985 28.9143V29.4858L72.0407 30.0572C72.0407 30.9333 72.0792 31.562 72.1564 31.9429L72.2721 32.5714L72.3878 32.9143C72.3878 32.9524 72.4071 33.0286 72.4457 33.1429C72.5229 33.2191 72.5614 33.2953 72.5614 33.3714L72.6771 34.1143C72.7929 34.2286 72.9858 34.381 73.2559 34.5715C73.5259 34.7238 73.7187 34.7809 73.8345 34.7429H74.0659L74.5288 34.6286L75.1075 34.4572C75.4547 34.381 75.8019 34.2667 76.149 34.1143C76.2262 34.0381 76.3998 34.0001 76.6699 34.0001L77.0748 33.8858C77.4221 33.6953 77.8078 33.5619 78.2322 33.4857L78.5794 33.3714L78.8687 33.3143L80.3732 33.0858C80.4117 33.0477 80.5082 33.0286 80.6626 33.0286C80.8168 33.0286 80.9326 33.0095 81.0097 32.9715C81.704 32.7429 82.1477 32.6286 82.3406 32.6286L82.572 32.5143C82.6492 32.4381 83.0542 32.362 83.7872 32.2857L84.1344 32.2286C84.2116 32.1905 84.3466 32.1524 84.5394 32.1143C84.7323 32.0762 84.9059 32.0191 85.0603 31.9429L86.2176 31.6572C86.3718 31.5429 86.4876 31.4857 86.5647 31.4857L86.6226 31.4286L86.8541 31.2572C87.0083 31.1809 87.2012 30.9715 87.4327 30.6286C87.4713 30.4001 87.6256 30.2858 87.8957 30.2858C88.0499 30.2858 88.1657 30.3048 88.2428 30.3429C88.3971 30.4191 88.5321 30.4571 88.6479 30.4571C88.8407 30.4571 88.9758 30.4762 89.0529 30.5143C89.3615 30.5905 89.5545 30.6286 89.6316 30.6286C89.7858 30.6286 89.9402 30.6857 90.0945 30.8L90.3838 31.0286C90.4609 31.1429 90.5767 31.2001 90.731 31.2001C90.8468 31.2001 90.9432 31.2191 91.0203 31.2572C91.5604 31.562 91.8883 31.7333 92.004 31.7715C92.1197 31.7715 92.1969 31.8096 92.2355 31.8858C92.3126 31.9239 92.3512 31.981 92.3512 32.0572C92.4284 32.1334 92.467 32.2857 92.467 32.5143C92.5441 32.6667 92.5827 32.9143 92.5827 33.2571C92.6212 33.6762 92.6791 33.9429 92.7562 34.0572C92.7948 34.2096 92.7948 34.3429 92.7562 34.4572C92.7562 34.5333 92.7562 34.5905 92.7562 34.6286V34.8572C92.7562 35.2 92.6791 35.5239 92.5248 35.8286C92.4862 35.9428 92.467 36 92.467 36C92.5055 36.0763 92.5248 36.2286 92.5248 36.4572C92.5248 36.6477 92.467 36.8572 92.3512 37.0857L92.1197 37.4286C92.0426 37.6191 91.9847 37.7905 91.9461 37.9429C91.9076 38.0953 91.8497 38.2096 91.7726 38.2858L91.4254 38.6287C91.3483 38.7048 91.2904 38.7429 91.2518 38.7429L90.9624 38.9143C90.8468 38.9905 90.7503 39.0667 90.6732 39.1429C90.5959 39.181 90.4803 39.2382 90.3259 39.3143L89.8631 39.4858C89.7858 39.562 89.6701 39.6 89.5158 39.6C89.4387 39.6763 89.2844 39.7143 89.0529 39.7143C88.6671 39.7906 88.3971 39.8286 88.2428 39.8286C88.0885 39.8286 87.8957 39.8667 87.6642 39.9429C87.587 39.981 87.4906 40 87.3748 40L87.0856 40.1143C87.0469 40.1525 86.9891 40.1715 86.9119 40.1715C86.8733 40.1715 86.8348 40.1905 86.7962 40.2286C86.4105 40.2286 86.179 40.2667 86.1018 40.3429C86.0632 40.381 85.6581 40.4381 84.8867 40.5144C84.6552 40.5144 84.5202 40.5334 84.4816 40.5714L84.1923 40.6286L84.0187 40.6857L83.5557 40.8L83.035 40.8572C82.572 41.0476 82.0705 41.1429 81.5305 41.1429L81.0676 41.2001C80.9904 41.2762 80.8939 41.3144 80.7782 41.3144C80.6239 41.2381 80.2767 41.2001 79.7367 41.2001L79.3316 41.2572C78.753 41.3715 78.1937 41.4286 77.6536 41.4286H76.8435H76.4962H76.2648H75.8019ZM51.9616 39.6C51.3443 39.6 50.9779 39.581 50.8621 39.5429L50.5728 39.2572C50.457 39.1429 50.322 39.0476 50.1677 38.9715C50.0134 38.9715 49.8977 38.9334 49.8205 38.8572C49.8205 38.8191 49.6469 38.781 49.2997 38.7429H48.8368C48.3739 38.7429 48.0846 38.7238 47.9689 38.6858C47.8917 38.6095 47.8531 38.4381 47.8531 38.1715C47.776 37.3715 47.7181 36.9143 47.6795 36.8001C47.641 36.762 47.6216 36.6667 47.6216 36.5143C47.6602 36.3619 47.6602 36.2667 47.6216 36.2286V35.8858L47.5059 35.5429C47.4674 35.4286 47.448 35.2572 47.448 35.0287C47.448 34.9905 47.4288 34.9334 47.3901 34.8572C47.3516 34.7429 47.3324 34.6096 47.3324 34.4572L47.2745 33.0858C47.3902 32.8952 47.5253 32.7429 47.6795 32.6286C47.7566 32.5906 47.8145 32.5334 47.8531 32.4571C47.8917 32.3428 47.9302 32.2667 47.9689 32.2286L48.2582 31.8858L48.5475 31.7715C48.6632 31.6572 48.9718 31.4667 49.4733 31.2001L49.8205 31.0286L50.1677 30.8572C50.2449 30.781 50.322 30.7239 50.3992 30.6857C50.5149 30.6096 50.6114 30.5714 50.6885 30.5714L51.0935 30.4001L51.7301 30.1143C51.7686 30.0762 51.8458 30.019 51.9616 29.9429C52.1158 29.8667 52.2123 29.7905 52.2508 29.7143C52.5594 29.6381 52.7523 29.562 52.8295 29.4858C52.9838 29.4095 53.0803 29.3524 53.1188 29.3143C53.196 29.2381 53.2345 29.1239 53.2345 28.9714C53.3117 28.8191 53.3503 28.4762 53.3503 27.9429V26.4572C53.3503 25.8477 53.3695 25.4667 53.4081 25.3143C53.4081 24.8952 53.4274 24.6476 53.466 24.5715C53.5431 24.1143 53.5818 23.8095 53.5818 23.6572V23.3714L53.466 23.3143C53.4274 23.2762 53.2924 23.2571 53.0609 23.2571C52.8295 23.2191 52.6173 23.2191 52.4244 23.2571C52.2702 23.2953 52.0193 23.3334 51.6722 23.3714C51.3636 23.3714 51.0935 23.3524 50.8621 23.3143L50.2255 23.2C50.2255 23.1619 50.1292 23.1428 49.9363 23.1428C49.8591 23.1048 49.7241 23.0858 49.5312 23.0858L49.1841 23.0286C49.1841 23.0286 49.0683 22.9905 48.8368 22.9143L48.4317 22.6286C48.316 22.5524 48.0074 22.4191 47.5059 22.2286C47.1973 22.1905 47.0044 22.0952 46.9273 21.9429V21.5428C46.9659 21.3143 46.9852 21.0476 46.9852 20.7429C46.9852 20.4381 46.9659 20.2286 46.9273 20.1143V19.8286L46.8694 19.2572V18.8L46.9852 18.5715C47.0623 18.3429 47.2359 18.0762 47.5059 17.7714C47.7374 17.5429 48.1231 17.2953 48.6632 17.0286C49.0876 16.6476 49.8977 16.2667 51.0935 15.8857C51.2865 15.8857 51.46 15.8476 51.6143 15.7715C51.7686 15.6952 51.8651 15.6572 51.9037 15.6572C52.1737 15.6572 52.3858 15.5809 52.5402 15.4286C52.5402 15.4286 52.7331 15.3524 53.1188 15.2C53.4274 15.162 53.6203 15.1048 53.6975 15.0285C53.8132 15.0285 53.8904 15.0095 53.9289 14.9714C54.0446 14.9714 54.1025 14.9524 54.1025 14.9143C54.1411 14.8 54.1411 14.4762 54.1025 13.9429C54.1025 13.4095 54.1219 12.6286 54.1604 11.6C54.1604 11.1429 54.1604 10.7429 54.1604 10.4C54.199 10.019 54.2182 9.7524 54.2182 9.59997C54.2569 9.44763 54.2954 9.35235 54.334 9.31432L54.5655 9.25717C54.7583 9.25717 54.9705 9.2952 55.202 9.37147C55.4334 9.44763 55.5877 9.5238 55.6649 9.59997L55.8963 9.71426C56.0121 9.7524 56.1471 9.82856 56.3014 9.94286C56.4943 10.0572 56.6485 10.1715 56.7643 10.2858C56.88 10.4381 57.015 10.7428 57.1694 11.2C57.3622 11.6571 57.478 12.0572 57.5166 12.4L57.5744 12.8572L57.6322 14.1714C57.6322 14.2477 57.6516 14.2857 57.6901 14.2857C57.6901 14.3238 58.1531 14.3619 59.0789 14.4L59.5997 14.4571C59.754 14.4953 60.2555 14.6476 61.1042 14.9143L61.5671 15.1428C61.6057 15.1048 61.6636 15.1048 61.7407 15.1428C61.8178 15.181 61.8757 15.2 61.9143 15.2L62.2614 15.4857C62.3772 15.5239 62.4544 15.5809 62.4929 15.6572C62.5701 15.6952 62.6279 15.7333 62.6665 15.7715L63.0138 15.9428C63.1294 15.981 63.2259 16.0381 63.303 16.1143C63.3802 16.1904 63.438 16.2857 63.4766 16.4C63.5152 16.4762 63.5345 16.7238 63.5345 17.1429C63.5345 17.4095 63.5731 17.6191 63.6502 17.7714V18.1143C63.5731 18.3429 63.5345 18.7238 63.5345 19.2572C63.5345 19.3333 63.5152 19.4095 63.4766 19.4857C63.438 19.5238 63.3995 19.581 63.3609 19.6571L63.2451 19.8857V19.6V19.4286C63.2451 19.6953 63.2066 19.8476 63.1294 19.8857L62.898 20.3429C62.7437 20.5714 62.5122 20.7619 62.2036 20.9143L61.9143 21.0858L61.5092 21.3714C61.355 21.4857 61.2006 21.5428 61.0463 21.5428C60.7377 21.5428 60.4291 21.6191 60.1205 21.7714L58.9632 22.2857C58.6932 22.362 58.5196 22.4571 58.4424 22.5714C58.3652 22.6476 58.346 22.7619 58.3846 22.9143L58.3267 23.2C58.3267 23.2381 58.3073 23.3524 58.2688 23.5429C58.2688 23.6953 58.2688 24.0381 58.2688 24.5715C58.2688 26.2096 58.2495 27.3143 58.211 27.8857C58.211 28.0762 58.2688 28.2286 58.3846 28.3429C58.5002 28.4191 58.7124 28.4572 59.0211 28.4572C59.3683 28.4572 59.619 28.5334 59.7733 28.6857C59.8119 28.762 59.9083 28.8 60.0626 28.8L60.4676 28.9143L61.2777 29.3143C61.4321 29.3143 61.5286 29.3524 61.5671 29.4286C61.6442 29.5048 61.6828 29.5429 61.6828 29.5429C61.6828 29.6571 61.76 29.7714 61.9143 29.8857C61.9914 30.0382 62.03 30.2095 62.03 30.4001C62.03 30.6667 62.0686 30.8382 62.1458 30.9143C62.2614 31.1048 62.3193 31.2572 62.3193 31.3715C62.3579 31.4857 62.3579 31.6 62.3193 31.7143C62.2808 31.7905 62.2808 31.9429 62.3193 32.1715C62.3579 32.4381 62.3579 32.6857 62.3193 32.9143C62.2808 33.1429 62.2808 33.3143 62.3193 33.4286L62.0879 34.4572C62.0493 34.6476 61.9914 34.7809 61.9143 34.8572C61.8372 34.8952 61.7793 34.9334 61.7407 34.9715L61.3935 35.3715C61.1621 35.6001 60.892 35.7524 60.5834 35.8286L60.3519 35.9428C60.1205 36.0571 59.9276 36.1906 59.7733 36.3429L59.5418 36.4L59.3104 36.5143L59.1947 36.5715L58.9053 36.6858L58.5581 36.8572L58.4424 36.9143L58.2688 37.0286L58.0952 37.0857C58.0952 37.1619 58.0181 37.219 57.8637 37.2572C57.8252 37.2953 57.7866 37.3143 57.748 37.3143C57.7095 37.3143 57.6901 37.3333 57.6901 37.3715C57.6516 37.3715 57.613 37.3905 57.5744 37.4286C57.5359 37.4668 57.4972 37.5048 57.4587 37.5429C57.4201 37.581 57.3622 37.6381 57.2851 37.7144C57.208 37.7524 57.1308 37.7714 57.0536 37.7714L56.9379 37.8857L56.8221 38L56.5908 38.1143C56.3978 38.1143 56.2628 38.1333 56.1857 38.1715L55.8963 38.2286C55.8192 38.2286 55.7421 38.2667 55.6649 38.3429C55.5492 38.4572 55.4913 38.5144 55.4913 38.5144C55.3756 38.5524 55.3177 38.5905 55.3177 38.6287H55.202C54.8547 38.781 54.6812 38.8763 54.6812 38.9143H54.5655L54.334 39.0286L53.6396 39.2001L53.4081 39.3143L53.0609 39.3715C52.9067 39.3715 52.7909 39.4095 52.7138 39.4858L51.9616 39.6Z" fill="#FF5F1F"/>
<path d="M127.098 43.7714C126.404 43.7714 125.979 43.7524 125.825 43.7143H125.477C125.362 43.7143 125.266 43.6952 125.188 43.657L124.9 43.5999L124.437 43.5428L124.032 43.4857L123.336 43.3141L122.816 43.257C122.585 43.257 122.141 43.1999 121.485 43.0856C121.177 43.0094 120.946 42.9333 120.791 42.8571C120.675 42.7428 120.598 42.5904 120.559 42.3998L120.328 41.7143L120.212 41.3143C120.212 41.0095 120.135 40.7809 119.981 40.6284C119.904 40.5523 119.865 40.4952 119.865 40.4572C119.788 39.9618 119.653 39.4856 119.46 39.0284C119.305 38.6856 119.286 38.419 119.402 38.2286L119.46 37.8856C119.46 37.6951 119.479 37.5619 119.518 37.4857C119.595 37.3714 119.711 37.238 119.865 37.0856C119.942 37.0094 119.981 36.9333 119.981 36.8572C120.019 36.7428 120.019 36.6095 119.981 36.4571L119.922 35.9999C119.922 34.3238 120 33.2571 120.155 32.8C120.193 32.6475 120.212 32.3618 120.212 31.9427C120.212 31.4475 120.212 31.1047 120.212 30.9143C120.25 30.6857 120.27 30.5523 120.27 30.5142C120.309 30.5142 120.328 30.419 120.328 30.2286C120.328 29.2761 120.367 28.7237 120.444 28.5713C120.482 28.4951 120.501 28.2856 120.501 27.9427C120.501 27.6379 120.521 27.4475 120.559 27.3713C120.598 27.2189 120.598 27.0476 120.559 26.8571C120.559 26.6286 120.579 26.4571 120.618 26.3428C120.733 25.9999 120.791 25.4856 120.791 24.7999V24.3999C120.907 24.2856 120.964 24.019 120.964 23.6C120.926 23.5618 120.907 23.5047 120.907 23.4285C120.946 23.3142 120.964 23.257 120.964 23.257L121.023 22.5714C121.023 22.1904 121.041 21.9617 121.08 21.8856V21.4856L121.138 20.8571C121.177 20.7428 121.196 20.6095 121.196 20.4571C121.196 20.3047 121.215 20.1713 121.254 20.057L121.312 19.2571V18.9713C121.312 18.8189 121.273 18.6665 121.196 18.5142C121.08 18.3999 121.023 18.1903 121.023 17.8855C121.023 17.7332 121.003 17.6379 120.964 17.5999C120.887 17.5236 120.79 17.4856 120.675 17.4856C120.521 17.4856 120.309 17.4476 120.039 17.3714C119.768 17.2952 119.518 17.2189 119.286 17.1427L118.129 16.6856L117.781 16.4571C117.627 16.419 117.512 16.3427 117.435 16.2284C117.396 16.1141 117.377 15.9618 117.377 15.7713L117.261 14.9143L117.204 14.3998C117.126 14.3237 117.087 14.1142 117.087 13.7714C117.049 13.5428 117.03 13.2951 117.03 13.0285C117.107 12.9142 117.107 12.8 117.03 12.6857V12.3998C117.184 12.1712 117.415 11.9808 117.724 11.8284C118.226 11.638 118.572 11.5428 118.766 11.5428C118.882 11.5428 118.959 11.5237 118.997 11.4855L119.46 11.3712C119.884 11.257 120.232 11.1999 120.501 11.1999C120.772 11.1999 120.946 11.1618 121.023 11.0856C121.138 10.9713 121.196 10.4762 121.196 9.59991C121.196 9.02851 121.215 8.70464 121.254 8.62837C121.292 8.55221 121.312 8.36184 121.312 8.05708V7.54273C121.35 7.5046 121.369 7.2761 121.369 6.85704C121.369 6.43798 121.389 6.17135 121.427 6.05705C121.466 6.01902 121.485 5.96177 121.485 5.88551C121.485 5.77131 121.505 5.67603 121.543 5.59986C121.543 5.44743 121.582 5.2952 121.659 5.14277L121.832 4.85702L121.948 4.62852H122.006L122.122 4.68558C122.199 4.72361 122.314 4.72361 122.469 4.68558C122.585 4.64744 122.7 4.64744 122.816 4.68558C122.855 4.68558 122.893 4.70469 122.932 4.74282C123.009 4.74282 123.087 4.72361 123.164 4.68558C123.395 4.68558 123.587 4.76184 123.742 4.91417L123.973 5.02847C124.127 5.0666 124.283 5.14277 124.437 5.25707C124.629 5.33323 124.783 5.4095 124.9 5.48566L125.015 5.71426C125.015 5.82846 125.054 5.92374 125.131 5.99991C125.169 6.03804 125.188 6.1142 125.188 6.2285C125.15 6.30467 125.131 6.36182 125.131 6.39995C125.169 6.43798 125.188 6.47602 125.188 6.51415C125.343 6.85695 125.42 7.18092 125.42 7.48568L125.477 8.05708L125.536 9.37131C125.536 10.1332 125.555 10.5142 125.594 10.5142L125.71 10.5712L126.867 10.5142C127.638 10.438 128.274 10.3999 128.776 10.3999C129.201 10.3999 129.605 10.3809 129.992 10.3427C130.415 10.3047 130.647 10.2856 130.686 10.2856C130.763 10.2475 130.801 10.1333 130.801 9.9428L130.86 9.48561C130.937 9.25711 130.975 8.91412 130.975 8.45702C130.975 8.15226 131.014 7.96179 131.091 7.88563C131.168 7.7333 131.206 7.42853 131.206 6.97134C131.206 6.74275 131.245 6.5714 131.322 6.4571C131.438 6.3428 131.496 6.2284 131.496 6.11411C131.496 5.96177 131.515 5.80944 131.554 5.65711C131.631 5.46655 131.708 5.33323 131.785 5.25707C131.824 5.14277 131.92 5.0666 132.074 5.02847C132.19 5.02847 132.287 4.99043 132.364 4.91417C132.556 4.79997 132.75 4.79997 132.942 4.91417L133.29 5.02847C133.675 5.14277 133.926 5.27608 134.042 5.42851C134.158 5.58085 134.274 5.84757 134.389 6.2285C134.505 6.5714 134.582 6.81901 134.62 6.97134L134.852 8.85707C134.852 9.19996 134.871 9.39042 134.91 9.42856V9.9428C134.91 10.2476 134.929 10.3999 134.968 10.3999L135.083 10.5142C136.087 10.5905 136.8 10.7428 137.224 10.9714C137.263 10.9714 137.591 11.1046 138.208 11.3712L138.613 11.5428C138.729 11.6571 138.825 11.9046 138.902 12.2855L138.961 12.8571C139.076 13.0476 139.096 13.2952 139.018 13.5999C138.941 13.7523 138.922 13.8665 138.961 13.9427C139.038 14.0189 139.076 14.1712 139.076 14.3998C139.076 14.5903 139.038 14.7237 138.961 14.8L138.902 15.0856C138.902 15.2381 138.941 15.3904 139.018 15.5428L139.076 15.8285C139.115 15.9047 139.056 16.019 138.902 16.1714C138.748 16.438 138.536 16.5713 138.266 16.5713C138.111 16.5713 137.996 16.6093 137.919 16.6856C137.842 16.7618 137.765 16.7999 137.688 16.7999L137.456 16.857C137.456 16.9332 137.36 16.9713 137.166 16.9713C136.974 17.0094 136.607 17.0285 136.067 17.0285L135.604 17.1427L135.142 17.2571C134.987 17.2952 134.891 17.3524 134.852 17.4285C134.814 17.5047 134.794 17.6569 134.794 17.8855L134.736 18.7428C134.659 19.5047 134.62 19.9047 134.62 19.9428L134.736 22.9713C134.775 23.2379 134.814 23.3905 134.852 23.4285C135.045 23.619 135.142 23.8093 135.142 23.9999C135.142 24.1522 135.18 24.2856 135.257 24.3999C135.334 24.5142 135.373 24.7047 135.373 24.9713C135.373 25.2381 135.393 25.4284 135.431 25.5427C135.508 25.8094 135.527 25.9618 135.488 25.9998L135.547 26.457L135.604 26.7999L135.488 27.0284C135.373 27.1808 135.257 27.2761 135.142 27.3143C135.064 27.3524 135.006 27.3904 134.968 27.4286C134.929 27.4666 134.91 27.5237 134.91 27.6C134.871 27.6762 134.852 28.3046 134.852 29.4856V31.3714C134.814 31.4476 134.794 31.7714 134.794 32.3428L134.679 34.4C134.64 34.5143 134.62 34.6666 134.62 34.8571C134.62 35.0475 134.602 35.238 134.563 35.4284C134.563 36.0761 134.543 36.419 134.505 36.4571L134.389 37.8285C134.389 38.0952 134.408 38.2476 134.446 38.2857C134.446 38.438 134.466 38.5522 134.505 38.6285C134.505 38.7808 134.525 38.8762 134.563 38.9142L134.736 39.5998V40.7428L134.852 41.0286L134.968 41.4856C134.968 41.6761 134.871 41.9238 134.679 42.2286C134.563 42.4191 134.466 42.5713 134.389 42.6856C134.312 42.7618 134.158 42.819 133.926 42.8571L133.463 42.9713C133.424 43.0094 133.329 43.0285 133.174 43.0285C133.019 43.0285 132.904 43.0666 132.827 43.1429H132.422L132.017 43.2C131.978 43.2381 131.901 43.257 131.785 43.257C131.708 43.257 131.631 43.2761 131.554 43.3141C131.322 43.3141 131.168 43.3332 131.091 43.3713C130.975 43.4094 130.878 43.4094 130.801 43.3713C130.724 43.3332 130.628 43.3141 130.512 43.3141C130.474 43.3141 130.165 43.3714 129.587 43.4857L128.429 43.657C128.314 43.6952 128.197 43.7143 128.082 43.7143C128.005 43.6761 127.928 43.6761 127.851 43.7143C127.774 43.7524 127.523 43.7714 127.098 43.7714ZM98.281 16.057C98.2425 15.8284 98.281 15.6951 98.3976 15.657C98.4746 15.657 98.5319 15.5999 98.5704 15.4856C98.6089 15.3713 98.6869 15.2952 98.8025 15.2571L99.0918 15.1427C99.2074 15.1427 99.2844 15.1238 99.3229 15.0856C99.477 15.0095 99.7861 14.9523 100.249 14.9143L100.711 14.8L102.101 14.6285C102.409 14.5524 102.698 14.5142 102.968 14.5142L103.779 14.3998C104.357 14.3237 104.647 14.2665 104.647 14.2284C104.685 14.2284 104.704 13.8094 104.704 12.9714L104.762 11.5999V11.5428C104.762 11.4666 104.57 11.4285 104.184 11.4285H103.547L103.085 11.3142L102.795 11.2571L102.621 11.1999L102.39 11.0856C102.351 11.0475 102.293 11.0285 102.216 11.0285C102.178 11.0285 102.101 11.0094 101.984 10.9714C101.907 10.9333 101.83 10.8761 101.753 10.7999L101.464 10.6856C101.425 10.6856 101.233 10.6285 100.885 10.5142L100.539 10.3999C100.499 10.3999 100.288 10.3047 99.9016 10.1142C99.6705 9.96182 99.554 9.77125 99.554 9.54266C99.5935 9.46649 99.5935 9.39042 99.554 9.31426C99.554 9.23799 99.554 9.16173 99.554 9.08556C99.554 8.74267 99.5352 8.49506 99.4967 8.34272C99.4967 7.99983 99.477 7.80946 99.4384 7.77133C99.3614 7.46657 99.3229 7.02849 99.3229 6.4571C99.3229 6.19037 99.3041 6.01902 99.2646 5.94276L99.1491 5.71426C99.1491 5.56183 99.4582 5.39028 100.075 5.19982L101.116 4.97122L101.753 4.74282C101.984 4.74282 102.178 4.70469 102.332 4.62852L104.068 4.34278C104.376 4.34278 104.57 4.30465 104.647 4.22848L105.052 4.17133C105.244 4.17133 105.457 4.1332 105.688 4.05694C106.383 3.9046 107.212 3.82854 108.176 3.82854C108.523 3.7904 108.89 3.77129 109.276 3.77129C109.585 3.77129 109.951 3.82844 110.375 3.94283C110.799 4.05703 111.05 4.15231 111.127 4.22848C111.59 4.45708 111.938 4.60931 112.169 4.68558C112.439 4.79987 112.594 4.9523 112.632 5.14277C112.671 5.25707 112.671 5.39038 112.632 5.54281C112.594 5.65711 112.613 5.80944 112.69 5.99991C112.767 6.2285 112.786 6.39985 112.748 6.51415L112.69 7.14279C112.69 7.33325 112.651 7.54283 112.574 7.77133C112.535 7.8476 112.516 7.94278 112.516 8.05708C112.555 8.13324 112.574 8.22843 112.574 8.34272V8.74267L112.458 8.91412L112.4 9.08556L112.226 9.25701C111.957 9.52364 111.764 9.65696 111.649 9.65696C111.455 9.65696 111.263 9.71411 111.07 9.8284C111.031 9.9427 110.953 9.99985 110.838 9.99985L110.491 10.1142L109.797 10.2856C109.797 10.3236 109.642 10.3808 109.334 10.4569C109.063 10.5332 108.89 10.6095 108.812 10.6856C108.735 10.6856 108.658 10.7046 108.581 10.7427C108.504 10.7808 108.427 10.819 108.35 10.8571C108.235 10.8571 108.157 10.876 108.118 10.9141C108.08 10.9522 108.061 10.9904 108.061 11.0285C108.061 11.1428 108.08 11.238 108.118 11.3142L108.235 11.5999C108.235 11.7524 108.253 11.8856 108.292 11.9999C108.369 12.1522 108.427 12.6666 108.466 13.5428C108.466 13.7333 108.485 13.8665 108.523 13.9427C108.563 14.0189 108.601 14.057 108.64 14.057C108.64 14.057 108.871 14.0952 109.334 14.1713C110.144 14.1713 110.781 14.2285 111.243 14.3428L111.532 14.5142L112.054 14.6857C112.362 14.8 112.574 14.8952 112.69 14.9713C112.844 15.0095 112.96 15.0856 113.037 15.1999C113.114 15.5047 113.153 15.6761 113.153 15.7143C113.153 15.9047 113.191 16.0571 113.268 16.1714C113.345 16.3238 113.384 16.4761 113.384 16.6286C113.345 16.8571 113.327 17.0284 113.327 17.1427C113.365 17.257 113.384 17.3524 113.384 17.4285C113.422 17.619 113.422 17.7712 113.384 17.8855C113.268 18.1141 113.268 18.3618 113.384 18.6285C113.5 18.8952 113.481 19.1237 113.327 19.3142C113.211 19.4285 113.153 19.5047 113.153 19.5428C113.114 19.5428 113.037 19.5998 112.922 19.7141C112.805 19.8284 112.748 19.8856 112.748 19.8856L112.458 20C112.42 20.0381 112.362 20.057 112.285 20.057C112.246 20.057 112.208 20.0761 112.169 20.1143C112.054 20.1143 111.977 20.1333 111.938 20.1714C111.86 20.2094 111.744 20.2285 111.59 20.2285L111.301 20.2857L110.549 20.5714L109.97 20.6284C109.662 20.6284 109.469 20.6476 109.391 20.6856L109.044 20.7428C108.929 20.7428 108.774 20.7999 108.581 20.9142L108.292 21.0285V21.257C108.292 21.4094 108.273 21.5047 108.235 21.5427L108.176 22.5714L108.118 23.6L108.061 23.9999C108.061 24.2284 108.08 24.3618 108.118 24.3999C108.157 24.4381 108.253 24.457 108.407 24.457H108.64C109.257 24.457 109.642 24.4952 109.797 24.5714L110.202 24.6284C110.279 24.6284 110.51 24.7047 110.896 24.8571L111.417 25.0285L111.821 25.1428C112.131 25.3333 112.362 25.5809 112.516 25.8857C112.671 26.1904 112.825 26.7808 112.979 27.6571C112.979 27.8475 113.017 27.9809 113.094 28.0571C113.094 28.2857 113.114 28.438 113.153 28.5143L113.211 29.0284C113.249 29.257 113.268 30.1904 113.268 31.8285V34.5714C113.268 35.3714 113.307 35.8476 113.384 35.9999C113.461 36.1524 113.5 36.2857 113.5 36.4C113.5 36.5904 113.519 36.7047 113.558 36.7429C113.558 36.7809 113.558 36.8571 113.558 36.9713C113.596 37.0856 113.616 37.3143 113.616 37.6572C113.616 38.1524 113.635 38.4379 113.673 38.5142C113.79 38.6665 113.79 38.8952 113.673 39.2L113.558 39.4857L113.5 39.5998C113.422 39.7141 113.327 39.8284 113.211 39.9427C113.094 40.057 112.999 40.1523 112.922 40.2285C112.651 40.3046 112.477 40.4572 112.4 40.6857C112.362 40.8381 112.208 41.0285 111.938 41.2571C111.667 41.4856 111.436 41.6191 111.243 41.6571L110.838 41.7143L110.202 41.7713C110.125 41.7713 110.008 41.7903 109.854 41.8285C109.739 41.8285 109.662 41.8094 109.623 41.7713C109.391 41.7713 109.218 41.7903 109.102 41.8285L108.755 41.8857C108.717 41.9238 108.658 41.9429 108.581 41.9429C108.543 41.9429 108.504 41.9619 108.466 42L108.003 42.1142C107.656 42.1142 107.135 42.2666 106.44 42.5714C106.286 42.6857 105.9 42.7619 105.283 42.8C105.167 42.8381 105.052 42.8571 104.936 42.8571C104.82 42.8571 104.724 42.8762 104.647 42.9143H104.357C104.048 42.9143 103.836 42.9713 103.721 43.0856L103.431 43.4857C103.2 43.8286 103.046 43.9999 102.968 43.9999C102.891 43.9999 102.757 43.9047 102.563 43.7143C102.255 43.4095 102.023 43.257 101.869 43.257L101.753 43.3141C101.599 43.4666 101.445 43.4856 101.29 43.3713C101.213 43.3332 101.098 43.3332 100.943 43.3713C100.673 43.5237 100.499 43.5237 100.422 43.3713C100.345 43.2951 100.268 43.0286 100.191 42.5714L100.133 42.1713C100.094 42.0951 100.075 42.019 100.075 41.9429C100.075 41.8286 100.056 41.7334 100.017 41.6571C100.017 41.4666 99.9786 41.2951 99.9016 41.1428C99.8631 41.0666 99.8048 40.876 99.7278 40.5713C99.6508 40.2665 99.6123 40.1143 99.6123 40.1143L99.554 39.657C99.554 39.2761 99.4582 39.0666 99.2646 39.0284C99.1876 38.9523 99.1491 38.8761 99.1491 38.7998V38.5714C99.1491 38.1904 99.1688 37.9238 99.2074 37.7714C99.2459 37.619 99.2459 37.5046 99.2074 37.4285C99.1303 37.1237 99.1491 36.8952 99.2646 36.7429L99.3812 36.3427V36.057C99.4197 36.057 99.4384 35.9809 99.4384 35.8286C99.477 35.6762 99.4967 35.5427 99.4967 35.4284C99.4967 35.0094 99.5155 34.7809 99.554 34.7429C99.554 34.5904 99.5737 34.4761 99.6123 34.4C99.6123 34.1714 99.632 34.038 99.6705 34L99.7278 33.4857L99.9599 32.1714L100.017 31.7713L100.075 31.3142C100.114 31.2761 100.133 31.219 100.133 31.1429C100.133 31.0286 100.152 30.9332 100.191 30.857C100.229 30.7808 100.249 30.7048 100.249 30.6285C100.249 30.5523 100.268 30.4952 100.307 30.4571L100.48 29.2571L100.596 28.6856C100.634 28.6476 100.693 28.3238 100.77 27.7143C100.847 27.257 100.924 26.9332 101.001 26.7428C101.001 26.5522 101.059 26.3238 101.175 26.0571C101.29 25.5618 101.406 25.2952 101.522 25.2571L101.812 25.0285L102.101 24.8571C102.371 24.8571 102.544 24.8761 102.621 24.9142L103.316 25.1998L103.431 25.2571C103.47 25.3714 103.643 25.3904 103.953 25.3142L104.357 25.1998L104.82 25.0855L104.993 24.9713V24.0571C104.993 23.5238 104.955 23.1428 104.878 22.9143C104.801 22.6095 104.762 22.3618 104.762 22.1713L104.704 21.6571L104.299 21.5999C103.875 21.5999 103.489 21.5619 103.142 21.4856H102.852L102.448 21.4284L101.984 21.3142L101.175 21.0857C100.943 20.9714 100.634 20.876 100.249 20.7998C99.632 20.7237 99.2261 20.5904 99.0336 20.4C98.9565 20.3237 98.8795 20.2286 98.8025 20.1143C98.7639 19.9618 98.7639 19.8666 98.8025 19.8285L98.6869 19.2L98.6286 18.6855C98.6286 18.3427 98.5901 18.0952 98.5131 17.9428L98.3976 17.4285L98.3393 17.0857C98.3008 17.0095 98.3008 16.7999 98.3393 16.4571C98.3393 16.2666 98.3195 16.1332 98.281 16.057ZM104.299 34.7429C104.299 34.7809 104.338 34.8 104.415 34.8C104.647 34.8 105.013 34.7237 105.515 34.5714L106.151 34.4571L107.077 34.2857C107.27 34.2476 107.482 34.2284 107.713 34.2284C107.79 34.2284 107.867 34.2095 107.945 34.1714C108.061 34.1333 108.138 34.0951 108.176 34.0571C108.176 33.9428 108.195 33.8475 108.235 33.7713C108.235 33.5427 108.253 33.3714 108.292 33.2571L108.35 32.5141C108.466 31.4855 108.543 30.9332 108.581 30.857C108.658 30.4761 108.658 30.2476 108.581 30.1714L108.35 30.0571C108.195 30.019 108.022 30 107.829 30C107.636 30 107.482 30.019 107.367 30.0571C107.057 30.2095 106.807 30.2476 106.614 30.1714H106.266L105.109 30.2856L104.647 30.3999C104.531 30.3999 104.435 30.438 104.357 30.5142C104.319 30.5523 104.299 31.2572 104.299 32.6285V34.7429ZM125.594 19.9428C125.633 20.1333 125.651 20.3618 125.651 20.6284C125.651 20.8951 125.671 21.1618 125.71 21.4284C125.71 22.3808 125.748 22.9332 125.825 23.0856L126.056 23.1428L126.693 23.0286C127.387 22.9143 128.178 22.819 129.065 22.7428C129.528 22.7428 129.798 22.7046 129.876 22.6284L129.992 22.5714V22C129.992 21.5809 130.01 21.3332 130.049 21.257C130.087 21.2189 130.107 21.1619 130.107 21.0857C130.107 21.0095 130.087 20.9141 130.049 20.7998C130.049 20.6856 130.03 20.5904 129.992 20.5141C129.992 20.4379 130.01 20.3619 130.049 20.2857C130.087 20.2094 130.107 19.9047 130.107 19.3714C130.146 19.1047 130.165 18.7619 130.165 18.3428C130.204 18.2666 130.204 18.1904 130.165 18.1142C130.165 18.0381 130.165 17.9999 130.165 17.9999C130.126 17.9619 130.049 17.9619 129.933 17.9999C129.818 17.9999 129.702 18.0189 129.587 18.057C129.509 18.0951 129.374 18.1142 129.181 18.1142C128.988 18.1142 128.853 18.1333 128.776 18.1714C128.66 18.2095 128.468 18.2284 128.197 18.2284C127.966 18.1903 127.754 18.2095 127.561 18.2857C127.329 18.3237 127.079 18.3237 126.809 18.2857C126.655 18.2476 126.423 18.2476 126.114 18.2857C126.037 18.3237 125.941 18.3428 125.825 18.3428C125.748 18.3428 125.671 18.3618 125.594 18.3999C125.555 18.5142 125.536 18.7428 125.536 19.0857C125.536 19.3904 125.555 19.6762 125.594 19.9428ZM125.941 34.9713C125.941 35.3903 125.96 35.619 125.999 35.6571C126.037 35.6952 126.655 35.6952 127.851 35.6571C128.352 35.6571 128.622 35.638 128.66 35.5999C128.737 35.5237 128.776 35.3524 128.776 35.0856C128.853 34.4761 128.931 34.1142 129.008 34L129.065 33.5428C129.104 33.1238 129.162 32.7238 129.239 32.3428L129.355 31.7142L129.413 31.0285C129.567 30.3428 129.644 29.9428 129.644 29.8285C129.644 29.5999 129.683 29.4475 129.76 29.3713C129.838 29.0284 129.856 28.8381 129.818 28.7999C128.891 28.7999 128.352 28.819 128.197 28.857C128.159 28.8951 128.082 28.8951 127.966 28.857C127.812 28.857 127.677 28.8381 127.561 28.7999L127.156 28.7427L126.519 28.6856C126.173 28.6856 125.979 28.7047 125.941 28.7427C125.902 28.7808 125.902 29.8474 125.941 31.9427C125.941 33.1237 125.922 33.7714 125.883 33.8857V34.2284L125.941 34.9713ZM176.774 45.3143C176.581 45.1619 176.408 45.1619 176.253 45.3143L175.906 45.2571C175.829 45.2191 175.713 45.1999 175.559 45.1999C175.443 45.1999 175.366 45.1808 175.328 45.1427L174.923 45.0856C174.614 45.0094 174.44 44.9332 174.401 44.8571C174.17 44.7428 173.978 44.6857 173.823 44.6857C173.784 44.6476 173.745 44.6476 173.707 44.6857C173.668 44.6857 173.63 44.6667 173.591 44.6286L173.187 44.5142C172.954 44.476 172.762 44.4191 172.608 44.3428L172.318 44.2284C172.126 44.038 172.009 43.8857 171.971 43.7714L171.855 43.5999C171.74 43.4475 171.663 43.1809 171.624 42.8C171.586 42.4191 171.547 41.7903 171.509 40.9142C171.47 40.076 171.45 38.9524 171.45 37.5429C171.45 36.0191 171.47 35.2381 171.509 35.1999L171.566 34.5142C171.566 34.3237 171.586 34.2095 171.624 34.1714C171.663 34.0952 171.701 33.8286 171.74 33.3714L171.798 33.0285C171.837 32.9522 171.855 32.8571 171.855 32.7428C171.855 32.5905 171.875 32.4571 171.914 32.3428C171.991 31.8857 172.029 31.5618 172.029 31.3714C172.068 31.2952 172.087 31.219 172.087 31.1429C172.087 31.0666 172.106 31.0095 172.145 30.9714C172.183 30.8952 172.203 30.7999 172.203 30.6856V30.3999L172.377 29.8285L172.492 29.2571C172.492 28.9142 172.511 28.6666 172.55 28.5143L172.608 28.2285L172.723 27.3143V27.0284C172.8 27.0284 172.839 26.9523 172.839 26.7999C172.8 26.6476 172.8 26.3618 172.839 25.9428V25.6C172.839 25.2952 172.916 24.9905 173.071 24.6857L173.244 24.3999C173.282 24.3238 173.379 24.2666 173.533 24.2285C173.572 24.2285 173.63 24.2285 173.707 24.2285C173.823 24.1905 173.919 24.1905 173.996 24.2285C174.073 24.2666 174.189 24.2856 174.344 24.2856C174.846 24.2856 175.231 24.1904 175.501 23.9999L175.674 23.8856L175.732 22.3427C175.771 21.4665 175.791 20.2856 175.791 18.7998C175.791 17.7332 175.809 17.1999 175.848 17.1999C175.848 17.1618 175.868 17.0666 175.906 16.9142C175.945 16.7237 175.945 16.495 175.906 16.2284L175.848 15.8285C175.887 15.7904 175.906 15.3332 175.906 14.4571C175.983 14.1142 176.041 13.9237 176.08 13.8857C176.119 13.8476 176.119 13.7523 176.08 13.5999C176.041 13.4857 176.002 13.2762 175.964 12.9714C175.925 12.6285 175.925 12.3809 175.964 12.2285C176.002 12.1523 176.022 11.8475 176.022 11.3142V11.0856L176.08 10.4569C176.08 10.4189 176.06 10.2665 176.022 9.99985C176.022 9.69509 176.041 9.35229 176.08 8.97136L176.196 6.85704C176.273 6.85704 176.273 6.70471 176.196 6.39995C176.234 6.24752 176.253 6.03804 176.253 5.77141C176.291 5.69514 176.311 5.61898 176.311 5.54281C176.311 5.42851 176.33 5.33323 176.368 5.25707V4.97122C176.368 4.81889 176.427 4.62852 176.542 4.39993L176.716 4.05694C176.716 3.86647 176.755 3.73325 176.832 3.65709C176.986 3.58092 177.159 3.58092 177.353 3.65709C177.353 3.69512 177.372 3.71424 177.41 3.71424C177.449 3.71424 177.487 3.73316 177.526 3.77129C177.681 3.77129 177.796 3.88568 177.873 4.11418C177.989 4.22848 178.066 4.28553 178.105 4.28553C178.182 4.3617 178.22 4.43806 178.22 4.51423C178.22 4.66656 178.298 4.74282 178.452 4.74282C178.452 4.78086 178.471 4.79997 178.509 4.79997C178.588 4.79997 178.645 4.838 178.683 4.91417C178.837 5.0666 178.934 5.27608 178.973 5.54281C179.05 5.77141 179.088 6.07617 179.088 6.4571C179.166 6.79989 179.205 6.97134 179.205 6.97134L179.262 7.37138V7.99983C179.262 8.30459 179.282 8.59044 179.32 8.85707C179.397 9.08566 179.436 9.27613 179.436 9.42856C179.436 9.65705 179.474 9.77135 179.551 9.77135C179.551 9.77135 179.551 9.8285 179.551 9.9428C179.59 10.0571 179.61 10.3427 179.61 10.7999C179.648 11.1809 179.687 11.4476 179.725 11.5999C179.802 11.7524 179.899 11.8475 180.015 11.8857H180.188C180.496 11.8857 180.94 11.8285 181.519 11.7142C181.596 11.6761 181.674 11.6761 181.751 11.7142C181.828 11.7142 181.905 11.6951 181.982 11.657L182.387 11.5428L182.908 11.4855L184.643 11.1999C184.76 11.1618 184.875 11.1428 184.991 11.1428C185.145 11.1428 185.28 11.1618 185.396 11.1999C185.473 11.2379 185.647 11.2571 185.916 11.2571C186.302 11.2952 186.65 11.4095 186.958 11.5999L187.421 11.9428L187.826 12.2855L188 12.3998V12.6285C188 12.7808 187.98 12.876 187.942 12.9142C187.903 13.0285 187.903 13.1618 187.942 13.3141V13.5999C187.942 14.2095 187.903 14.5903 187.826 14.7427C187.826 14.7808 187.807 14.8189 187.768 14.857C187.768 14.857 187.788 14.8761 187.826 14.9143L187.768 15.1427L187.652 15.3141C187.652 15.4284 187.729 15.5618 187.884 15.7143C187.961 15.7904 187.961 15.9046 187.884 16.057L187.826 16.1714L187.479 16.2284L187.074 16.3428L186.727 16.4571C186.573 16.6094 186.456 16.6856 186.379 16.6856L185.743 16.857C185.743 16.9332 185.608 16.9713 185.338 16.9713L184.875 17.0857C184.412 17.2381 184.084 17.3141 183.892 17.3141L183.544 17.3714C183.236 17.5619 182.908 17.657 182.56 17.657C182.483 17.657 182.368 17.6951 182.213 17.7712C182.136 17.8094 182.059 17.8475 181.982 17.8855C181.905 17.8855 181.846 17.9048 181.808 17.9428H181.577L181.172 17.9999C181.056 17.9999 180.921 18.0381 180.767 18.1142L180.535 18.1714C180.496 18.1714 180.439 18.2095 180.361 18.2857C180.284 18.438 180.246 18.7237 180.246 19.1427C180.246 19.9427 180.265 20.5142 180.304 20.8571C180.304 21.9237 180.284 22.6095 180.246 22.9143L180.188 23.3142L180.246 23.4285L181.519 23.3713H182.271C182.734 23.3713 183.004 23.3905 183.081 23.4285C183.274 23.5047 183.447 23.5618 183.602 23.6C183.795 23.6 183.93 23.619 184.007 23.6571C184.238 23.6952 184.489 23.7904 184.76 23.9429L185.396 24.2856C185.82 24.476 186.187 24.7619 186.495 25.1428C186.804 25.3714 187.035 25.9238 187.19 26.7999C187.19 26.9905 187.209 27.1618 187.247 27.3143C187.286 27.4286 187.324 27.5046 187.363 27.5428L187.479 28.457L187.595 29.0284L187.711 30.2856C187.711 30.5522 187.729 30.7048 187.768 30.7428L187.884 33.1428C187.923 33.9808 187.942 34.7619 187.942 35.4857C187.942 36.2095 187.923 36.7238 187.884 37.0285C187.923 36.9905 187.884 37.1618 187.768 37.5429C187.768 38.1143 187.749 38.4952 187.711 38.6857L187.537 39.657C187.537 39.8856 187.518 40.0571 187.479 40.1714C187.44 40.4 187.401 40.6095 187.363 40.8C187.324 40.9524 187.286 41.0666 187.247 41.1428L187.132 41.5427C187.093 41.8094 186.861 42.2476 186.438 42.8571C186.399 42.9714 186.264 43.1237 186.033 43.3141C185.839 43.5047 185.666 43.6381 185.511 43.7143C185.357 43.7904 185.242 43.8286 185.165 43.8286C185.049 43.9429 184.933 43.9999 184.817 43.9999C184.663 43.9237 184.528 43.9429 184.412 44.0572L183.949 44.1715L183.718 44.2284C183.679 44.2284 183.602 44.2475 183.487 44.2856C183.409 44.3237 183.313 44.3428 183.197 44.3428C182.965 44.3428 182.811 44.3619 182.734 44.4C182.58 44.4381 182.464 44.4381 182.387 44.4H182.097C182.059 44.4381 182.002 44.4571 181.923 44.4571C181.885 44.4571 181.846 44.476 181.808 44.5142L181.635 44.5713C181.596 44.6094 181.48 44.6286 181.287 44.6286L180.535 44.6857L180.304 44.7429L179.61 44.9142L178.799 45.1427C178.722 45.1808 178.568 45.1999 178.337 45.1999C178.028 45.1999 177.738 45.1999 177.469 45.1999C177.198 45.1999 177.044 45.2191 177.005 45.2571L176.832 45.4285L176.774 45.3143ZM145.122 46.1714C145.122 46.0571 145.141 45.9237 145.179 45.7713C145.219 45.657 145.219 45.5618 145.179 45.4856C145.064 44.1142 145.045 43.3333 145.122 43.1429L145.238 42.7427L145.585 41.8285C145.624 41.7523 145.642 41.6762 145.642 41.6C145.642 41.5238 145.662 41.4665 145.701 41.4284L145.816 40.9714L146.164 40.1714C146.164 40.0571 146.183 39.9809 146.221 39.9427C146.221 39.8666 146.241 39.8095 146.279 39.7714C146.318 39.6952 146.337 39.638 146.337 39.5998L146.511 39.3713C146.626 39.1809 146.684 39.0476 146.684 38.9714C146.684 38.8191 146.703 38.7427 146.742 38.7427L146.8 38.4L147.379 36.9713L147.552 36.5142C147.668 36.3999 147.726 36.2856 147.726 36.1713L147.783 35.9999C147.783 35.8857 147.842 35.7714 147.957 35.6571L148.188 35.4284C148.188 35.3903 148.188 35.3714 148.188 35.3714C148.227 35.3333 148.265 35.3333 148.305 35.3714C148.42 35.3714 148.516 35.3903 148.593 35.4284C148.748 35.4666 148.883 35.5428 148.999 35.6571C149.153 35.7333 149.327 35.8665 149.52 36.057C149.635 36.1713 149.712 36.2857 149.751 36.4C149.828 36.5143 149.886 36.7046 149.925 36.9713C149.963 37.4285 149.963 38 149.925 38.6857C149.886 39.3714 149.809 39.981 149.693 40.5143C149.423 42.038 149.25 42.9333 149.172 43.2C149.095 43.4285 149.018 43.7143 148.941 44.0572C148.864 44.3619 148.767 44.6475 148.652 44.9142L148.478 45.2571C148.362 45.6 148.227 45.8856 148.073 46.1141L147.726 46.9713C147.302 47.5808 147.031 47.9047 146.915 47.9427C146.915 47.9809 146.877 48 146.8 48C146.684 47.8857 146.626 47.7523 146.626 47.5999C146.549 47.5237 146.492 47.4857 146.453 47.4857L146.279 47.3142C146.241 47.3142 146.202 47.2952 146.164 47.257C146.164 47.257 146.144 47.276 146.106 47.3142H145.527C145.411 47.238 145.334 47.181 145.296 47.1428L145.179 46.9713L145.122 46.3427V46.1714ZM150.272 15.9427C150.272 15.0665 150.291 14.5904 150.329 14.5142V14.3998C150.329 14.0951 150.349 13.8475 150.388 13.657V12.5713L150.445 11.7142L150.619 9.88565C150.657 9.80948 150.657 9.7142 150.619 9.59991C150.619 9.48561 150.639 9.37131 150.677 9.25701C150.677 8.95225 150.696 8.7808 150.734 8.74267C150.734 8.28557 150.793 7.79045 150.908 7.25709C150.947 7.06662 150.966 6.79989 150.966 6.4571L151.024 5.88551L151.14 5.37127L151.197 4.79997C151.43 3.65709 151.564 3.06658 151.602 3.02845C151.719 2.91425 151.834 2.89513 151.95 2.9714L152.47 3.14265C152.509 3.14265 152.586 3.0856 152.703 2.9714C152.78 2.89513 152.857 2.857 152.934 2.857C153.049 2.81887 153.203 2.79995 153.397 2.79995C153.628 2.79995 153.782 2.76182 153.86 2.68565L154.67 2.57135L155.364 2.5142C155.403 2.47607 155.461 2.47607 155.538 2.5142C155.615 2.5142 155.653 2.5142 155.653 2.5142C155.692 2.55234 155.73 2.57135 155.769 2.57135C155.846 2.53322 155.904 2.5142 155.943 2.5142C156.058 2.43804 156.212 2.39991 156.406 2.39991H157.736L158.373 2.34276L159.067 2.39991C159.26 2.39991 159.492 2.36187 159.762 2.28561L160.514 2.22836L161.15 2.11426H161.267L161.903 2.17131L162.597 2.22836L162.945 2.28561C163.6 2.36187 164.275 2.57135 164.97 2.91425C165.895 3.67611 166.474 4.26651 166.705 4.68558C166.822 4.87604 166.917 5.08562 166.995 5.31421C167.11 5.50468 167.168 5.65701 167.168 5.77141V6.05705C167.322 6.47611 167.399 6.85695 167.399 7.19984V10.0571L167.227 10.8571C167.15 11.0476 167.15 11.2189 167.227 11.3712L167.11 11.7714L167.053 12.1142C166.937 12.7237 166.84 13.1236 166.763 13.3141L166.705 13.5428C166.705 13.7333 166.628 13.9047 166.474 14.057L166.3 14.857C166.223 15.238 165.954 15.8285 165.49 16.6286C165.375 16.7809 165.24 16.9333 165.086 17.0857C164.97 17.1999 164.853 17.2952 164.738 17.3714L164.507 17.4856C164.43 17.5236 164.333 17.5236 164.218 17.4856C164.024 17.4093 163.89 17.2951 163.813 17.1427C163.813 17.0284 163.774 16.9332 163.696 16.857C163.542 16.7046 163.407 16.6286 163.291 16.6286L162.886 16.6856L161.961 16.7999C161.922 16.838 161.844 16.857 161.729 16.857C161.575 16.857 161.478 16.8762 161.439 16.9142L160.977 16.9713C160.591 17.0094 160.321 17.0856 160.167 17.1999C160.128 17.2381 160.109 17.5808 160.109 18.2284C160.109 18.3808 160.109 18.6095 160.109 18.9142C160.148 19.219 160.148 19.4095 160.109 19.4856C160.109 19.8666 160.148 20.057 160.225 20.057L160.688 20.1143C161.035 20.1143 161.247 20.1333 161.324 20.1714C161.71 20.1714 162.095 20.3619 162.481 20.7428L163.002 21.1427C163.157 21.2189 163.234 21.2952 163.234 21.3713C163.272 21.4095 163.253 21.5048 163.176 21.6571L163.06 21.8856L163.176 22.057C163.253 22.2094 163.291 22.3238 163.291 22.3999C163.33 22.5142 163.311 22.6285 163.234 22.7428C163.157 22.819 163.118 22.9143 163.118 23.0286C163.118 23.1809 163.099 23.2951 163.06 23.3713L163.002 23.5427C163.04 23.5808 163.022 23.638 162.945 23.7142C162.906 23.7522 162.848 23.7714 162.771 23.7714C162.694 23.8094 162.655 23.8856 162.655 23.9999C162.694 24.1141 162.751 24.1905 162.829 24.2285C162.868 24.2666 162.886 24.3427 162.886 24.457C162.886 24.6094 162.829 24.6857 162.712 24.6857C162.635 24.6857 162.597 24.7047 162.597 24.7428C162.289 24.8952 161.961 24.9522 161.613 24.9142C161.536 24.9522 161.439 24.9713 161.324 24.9713C161.247 24.9713 161.17 24.9905 161.093 25.0285L160.688 25.0855C160.533 25.1237 160.379 25.1428 160.225 25.1428C160.071 25.1428 159.954 25.1618 159.877 25.1998C159.8 25.2761 159.762 25.5808 159.762 26.1141V26.6857C159.685 26.7619 159.646 26.9904 159.646 27.3713C159.608 27.4093 159.608 27.4665 159.646 27.5428C159.723 27.6189 159.916 27.6189 160.225 27.5428L161.208 27.4286C161.517 27.5429 161.884 27.6 162.308 27.6C162.771 27.6 163.022 27.6189 163.06 27.6571C163.6 27.7713 163.967 27.8856 164.159 27.9999C164.275 28.0381 164.372 28.0952 164.449 28.1714C164.564 28.2095 164.641 28.2475 164.681 28.2856C165.066 28.4379 165.258 28.6284 165.258 28.857C165.413 28.9713 165.452 29.1238 165.375 29.3143C165.375 29.3143 165.394 29.4285 165.432 29.657C165.471 29.8094 165.49 29.9428 165.49 30.0571C165.49 30.1333 165.432 30.2094 165.317 30.2856C165.278 30.3618 165.278 30.5333 165.317 30.8L165.258 31.2571L165.201 31.8857C165.24 32.038 165.24 32.2094 165.201 32.3998C164.931 32.6666 164.699 32.8189 164.507 32.857C164.468 32.8951 164.41 32.9143 164.333 32.9143C164.295 32.9143 164.275 32.9333 164.275 32.9714C163.967 33.1238 163.677 33.219 163.407 33.2571C163.33 33.2952 163.234 33.3141 163.118 33.3141C163.04 33.3141 162.963 33.3333 162.886 33.3714H162.655C162.617 33.4095 162.558 33.4476 162.481 33.4857C162.443 33.4857 162.404 33.5047 162.366 33.5428L162.192 33.5999C162.076 33.5999 161.98 33.619 161.903 33.6571L161.555 33.7143C161.478 33.7904 161.344 33.8286 161.15 33.8286C160.996 33.9047 160.842 33.9428 160.688 33.9428C160.379 33.9428 160.128 33.9808 159.935 34.0571C159.781 34.1332 159.434 34.1904 158.894 34.2284H158.43C158.353 34.2665 158.276 34.2665 158.199 34.2284H158.025C157.987 34.2665 157.891 34.2857 157.736 34.2857C157.544 34.2857 157.408 34.3238 157.331 34.4L156.868 34.4571C156.598 34.4571 156.444 34.476 156.406 34.5142C156.058 34.6666 155.75 34.7236 155.48 34.6856C155.403 34.6475 155.287 34.6286 155.133 34.6286C154.978 34.6667 154.785 34.6856 154.554 34.6856C154.361 34.6475 154.11 34.6286 153.802 34.6286L152.934 34.5714H152.818C152.664 34.5714 152.393 34.4761 152.008 34.2857C151.892 34.1714 151.796 34.1142 151.719 34.1142L151.256 34C151.024 33.9237 150.87 33.8475 150.793 33.7713C150.716 33.6952 150.677 33.5618 150.677 33.3714C150.754 33.2952 150.793 33.1619 150.793 32.9714C150.716 32.781 150.716 32.6475 150.793 32.5714V32.1142C150.677 31.7713 150.619 31.2762 150.619 30.6285C150.619 30.2476 150.657 30.0189 150.734 29.9427C150.774 29.9046 150.831 29.8474 150.908 29.7713C151.024 29.6951 151.12 29.619 151.197 29.5429L151.487 29.3143C151.641 29.1618 151.815 29.0666 152.008 29.0284L152.47 28.9142C152.509 28.8762 152.547 28.857 152.586 28.857C152.664 28.857 152.721 28.8381 152.76 28.7999L152.875 28.7427L153.107 28.6856C153.262 28.6856 153.358 28.6666 153.397 28.6285L154.611 28.3428C154.689 28.3047 154.766 28.2856 154.844 28.2856C154.921 28.2856 154.978 28.2667 155.016 28.2285C155.055 28.2285 155.094 28.2285 155.133 28.2285C155.21 28.1904 155.267 28.1904 155.306 28.2285L155.595 28.1714C155.672 28.1714 155.75 28.1523 155.827 28.1141C155.943 28.076 156 28.0381 156 27.9999C156.04 27.7713 156.078 27.4286 156.117 26.9714C156.155 26.5143 156.155 26.1524 156.117 25.8857L156.058 25.7142C155.981 25.7522 155.884 25.7714 155.769 25.7714C155.692 25.7714 155.615 25.7903 155.538 25.8285C155.267 25.7903 155.094 25.7522 155.016 25.7142C154.939 25.676 154.844 25.676 154.727 25.7142C154.689 25.7522 154.631 25.7522 154.554 25.7142H153.86C153.628 25.676 153.435 25.5238 153.281 25.2571C153.203 25.1048 153.049 25.0095 152.818 24.9713L152.355 24.9142C152.124 24.7999 152.008 24.7237 152.008 24.6857V24.2856C152.047 24.2094 152.047 24.1333 152.008 24.0571C152.008 23.9809 152.008 23.9047 152.008 23.8286C152.008 23.7523 152.027 23.6761 152.066 23.6C152.104 23.5238 152.124 23.4666 152.124 23.4285C152.162 23.3523 152.181 23.2762 152.181 23.1999C152.181 23.0857 152.201 22.9904 152.239 22.9143L152.181 22.2856C152.22 22.2095 152.239 22.0571 152.239 21.8285L152.355 21.3142C152.393 21.2 152.413 21.0666 152.413 20.9142V20.7428C152.49 20.6666 152.606 20.5904 152.76 20.5141C152.953 20.3999 153.146 20.3237 153.339 20.2857C153.725 20.2094 154.419 20.1714 155.422 20.1714C155.769 20.1714 156.135 20.1332 156.521 20.057C156.598 20.0189 156.657 19.8094 156.695 19.4285V18.8571C156.695 18.4 156.714 18.0952 156.753 17.9428C156.753 17.7523 156.714 17.619 156.637 17.5428H156.406C155.904 17.5428 155.576 17.5618 155.422 17.5999L154.38 17.7142H153.976C153.705 17.7142 153.551 17.7905 153.512 17.9428C153.512 18.0571 153.493 18.1333 153.454 18.1714C153.454 18.2095 153.397 18.2666 153.281 18.3428L153.049 18.5142C152.972 18.6284 152.837 18.7428 152.644 18.8571C152.567 18.8571 152.49 18.7618 152.413 18.5714L152.124 18.1714C152.047 18.0952 151.989 17.9998 151.95 17.8855C151.95 17.7332 151.93 17.6379 151.892 17.5999C151.853 17.4093 151.757 17.3904 151.602 17.5428L151.487 17.657C151.448 17.657 151.391 17.6379 151.313 17.5999C151.236 17.5618 151.179 17.5236 151.14 17.4856C151.14 17.4475 151.024 17.4285 150.793 17.4285C150.6 17.4285 150.465 17.4094 150.388 17.3714L150.272 17.2571V15.9427ZM152.47 45.2571C152.47 45.1428 152.452 44.3238 152.413 42.8C152.413 41.2762 152.432 40.3809 152.47 40.1143V39.9427C152.47 39.6761 152.509 39.4286 152.586 39.2C152.626 39.1238 152.644 39.0095 152.644 38.8571L152.703 38.4L152.76 38.1143L152.875 37.8285C152.914 37.7905 152.934 37.7142 152.934 37.5999L153.165 36.5714C153.281 36.4953 153.339 36.4381 153.339 36.4L153.628 36.057C153.898 35.7904 154.053 35.6571 154.091 35.6571C154.13 35.619 154.188 35.5999 154.265 35.5999C154.342 35.5999 154.399 35.581 154.438 35.5428C154.631 35.619 154.862 35.7523 155.133 35.9428L155.364 36.1142C155.48 36.1524 155.595 36.2095 155.712 36.2857C155.866 36.3618 155.981 36.419 156.058 36.4571C156.212 36.7619 156.309 37.0667 156.348 37.3714C156.386 37.5237 156.406 38.0381 156.406 38.9142C156.406 39.5999 156.367 40.1333 156.289 40.5143C156.251 40.8571 156.212 41.0856 156.174 41.1999C156.097 41.3142 156.097 41.4666 156.174 41.6571L156.058 42.1142L155.943 42.6285C155.789 43.0857 155.653 43.5427 155.538 43.9999L155.364 44.6286C155.364 44.781 155.326 44.9332 155.248 45.0856C155.094 45.3904 155.016 45.5999 155.016 45.7142C154.824 46.2476 154.631 46.5143 154.438 46.5143C154.361 46.5143 154.265 46.4953 154.148 46.4571C154.071 46.419 154.014 46.3809 153.976 46.3427L153.917 46.1141L153.743 45.8285C153.666 45.7522 153.628 45.7142 153.628 45.7142L153.512 45.7713C153.474 45.7713 153.416 45.7904 153.339 45.8285C153.3 45.8665 153.243 45.8475 153.165 45.7713L153.049 45.7142L152.992 45.7713C152.953 45.8094 152.914 45.8094 152.875 45.7713C152.837 45.7713 152.798 45.7713 152.76 45.7713C152.606 45.6951 152.509 45.5238 152.47 45.2571ZM153.917 9.08556C154.033 9.77125 154.11 10.5142 154.148 11.3142L154.207 12.4571L154.265 12.9714C154.265 13.1619 154.303 13.2952 154.38 13.3714C154.457 13.4475 154.554 13.4475 154.67 13.3714C154.708 13.3333 154.824 13.3141 155.016 13.3141C155.133 13.3141 155.21 13.2952 155.248 13.2571C155.287 13.219 155.326 13.1998 155.364 13.1998H155.48L155.422 12.8571C155.344 12.5904 155.287 12.0951 155.248 11.3712C155.248 10.6094 155.267 9.90457 155.306 9.25701C155.383 8.79982 155.48 8.57132 155.595 8.57132C155.712 8.57132 155.884 8.68552 156.117 8.91412C156.386 9.25701 156.521 9.48561 156.521 9.59991L156.637 9.88565L156.695 10.3999C156.734 10.4762 156.734 10.5713 156.695 10.6856C156.695 10.7618 156.714 10.838 156.753 10.9141L156.868 11.3712L156.926 11.7714C156.965 11.8475 156.985 11.9428 156.985 12.0571C156.985 12.2476 157.023 12.3428 157.1 12.3428C157.177 12.3428 157.234 12.1904 157.274 11.8857V11.4285C157.274 11.1618 157.293 10.9523 157.331 10.7999L157.447 10.2285L157.505 9.77135V9.02851C157.505 8.91422 157.524 8.81893 157.563 8.74267C157.602 8.51407 157.621 8.28567 157.621 8.05708C157.659 7.79045 157.659 7.59998 157.621 7.48568H156.868H155.884C155.653 7.48568 155.441 7.48568 155.248 7.48568C155.094 7.44755 154.959 7.44755 154.844 7.48568L154.554 7.54273C154.207 7.6189 153.994 7.71408 153.917 7.82838C153.879 7.86651 153.86 7.92366 153.86 7.99983C153.898 8.076 153.917 8.19029 153.917 8.34272V9.08556ZM158.894 39.9427C158.894 39.4094 158.913 38.9904 158.952 38.6857V37.9999C159.029 37.3142 159.164 36.8189 159.357 36.5142C159.434 36.3617 159.626 36.1714 159.935 35.9428C159.935 35.9048 160.032 35.8856 160.225 35.8856C160.379 35.9237 160.514 35.9808 160.63 36.057L160.919 36.2857C161.112 36.4381 161.208 36.5904 161.208 36.7429C161.362 36.9333 161.498 37.3523 161.613 37.9999V39.4857C161.613 40.3619 161.595 40.9523 161.555 41.2571C161.555 41.5237 161.555 41.6951 161.555 41.7713L161.382 42.7427L161.267 43.4285L161.093 44.1715C161.016 44.5143 160.881 44.7237 160.688 44.7999C160.61 44.7999 160.514 44.7237 160.399 44.5713L160.167 44.2284H159.935C159.703 44.2284 159.569 44.2095 159.531 44.1715C159.415 44.1333 159.318 44.0761 159.241 43.9999C159.164 43.8856 159.126 43.7713 159.126 43.657C159.086 43.5047 159.067 43.2951 159.067 43.0285C159.067 42.7237 159.048 42.438 159.009 42.1713C158.971 41.8666 158.952 41.5618 158.952 41.2571C158.952 40.9142 158.932 40.6285 158.894 40.4V39.9427ZM159.82 8.05708C159.82 9.04753 159.839 9.56187 159.877 9.59991C159.916 9.63804 159.935 9.65696 159.935 9.65696L160.109 9.31426L160.282 8.97136L160.456 8.68562L160.571 8.45702C160.649 8.30459 160.707 8.15226 160.745 7.99983C160.822 7.80936 160.861 7.67615 160.861 7.59998C160.822 7.59998 160.784 7.59998 160.745 7.59998C160.745 7.56185 160.726 7.54273 160.688 7.54273H160.167C159.935 7.54273 159.82 7.56185 159.82 7.59998V8.05708ZM161.439 7.54273C161.401 7.58077 161.421 7.65703 161.498 7.77133C161.69 7.88563 161.826 7.98091 161.903 8.05708C161.98 8.13324 162.038 8.22843 162.076 8.34272L162.25 8.62837C162.25 8.6665 162.269 8.72375 162.308 8.79992C162.346 8.83805 162.366 8.8952 162.366 8.97136C162.443 9.08566 162.481 9.23799 162.481 9.42856C162.481 9.99995 162.385 10.5713 162.192 11.1428V11.4285C162.192 11.5428 162.134 11.7524 162.018 12.0571C161.98 12.2476 161.999 12.4189 162.076 12.5713C162.115 12.6094 162.289 12.6285 162.597 12.6285C162.674 12.5523 162.751 12.4571 162.829 12.3428C162.945 12.1904 163.022 12.038 163.06 11.8857C163.06 11.6952 163.079 11.5617 163.118 11.4855L163.234 10.6285L163.291 9.8284V8.97136C163.291 8.6666 163.272 8.45702 163.234 8.34272C163.195 8.22843 163.079 8.07609 162.886 7.88563C162.732 7.69516 162.52 7.59998 162.25 7.59998C161.749 7.52372 161.478 7.5046 161.439 7.54273ZM163.291 36.1142C163.253 36.0381 163.234 35.9237 163.234 35.7713C163.272 35.5809 163.291 35.4476 163.291 35.3714L163.407 35.3142C163.446 35.2762 163.542 35.257 163.696 35.257C163.967 35.257 164.198 35.2762 164.391 35.3142C164.738 35.4285 165.086 35.5809 165.432 35.7713C165.818 35.9237 166.088 36.0762 166.243 36.2285L166.416 36.4C166.532 36.4761 166.686 36.6285 166.879 36.8572C167.11 37.0475 167.284 37.219 167.399 37.3714L167.863 38.1143L167.978 38.4571C168.056 38.5333 168.095 38.6475 168.095 38.7998L168.21 39.2571L168.384 39.7141V40.0571L168.441 40.6284C168.48 40.8189 168.5 41.0476 168.5 41.3143C168.538 41.3905 168.538 41.4665 168.5 41.5427C168.5 41.5808 168.5 41.6191 168.5 41.6571C168.5 41.7334 168.557 42.038 168.673 42.5714C168.712 42.8381 168.692 43.0094 168.615 43.0856C168.615 43.1237 168.595 43.1619 168.557 43.2C168.518 43.2 168.5 43.238 168.5 43.3141C168.423 43.5427 168.345 43.6953 168.267 43.7714C168.19 43.8096 168.056 43.7333 167.863 43.5428C167.516 43.2762 167.322 43.1429 167.284 43.1429C167.245 43.1809 167.207 43.1809 167.168 43.1429C167.168 43.1048 167.15 43.0665 167.11 43.0285C167.033 42.9142 166.956 42.8571 166.879 42.8571C166.802 42.8571 166.725 42.9142 166.648 43.0285C166.571 43.1047 166.493 43.1429 166.416 43.1429C166.377 43.1429 166.32 43.1237 166.243 43.0856L166.069 42.9713L165.895 43.0856C165.741 43.1999 165.587 43.257 165.432 43.257C165.317 43.2189 165.258 43.1428 165.258 43.0285C165.181 42.9142 165.066 42.6284 164.912 42.1713L164.853 41.8285L164.507 40.6857L164.391 40.2285C164.275 39.9237 164.236 39.7523 164.275 39.7141L164.218 39.4285L164.159 39.1428C164.082 38.9524 163.947 38.5523 163.754 37.9428C163.639 37.638 163.542 37.2761 163.465 36.8572C163.349 36.819 163.33 36.7238 163.407 36.5714C163.368 36.5333 163.349 36.457 163.349 36.3427C163.349 36.2284 163.33 36.1524 163.291 36.1142ZM176.196 35.9999C176.196 36.5714 176.214 36.8572 176.253 36.8572C176.253 36.8952 176.619 36.8952 177.353 36.8572C177.623 36.8572 177.796 36.8572 177.873 36.8572C177.989 36.819 178.066 36.7999 178.105 36.7999C178.182 36.7618 178.278 36.7429 178.394 36.7429C178.549 36.7047 178.78 36.6476 179.088 36.5714L181.519 36.5142C181.866 36.5142 182.097 36.4761 182.213 36.4C182.329 36.3238 182.464 36.1714 182.619 35.9428C182.657 35.8286 182.676 35.7333 182.676 35.6571C182.715 35.5428 182.753 35.4666 182.792 35.4284L182.908 35.0856C182.985 34.8952 183.024 34.6857 183.024 34.4571C183.062 34.3048 183.081 34.1332 183.081 33.9428C183.119 33.9046 183.139 33.6761 183.139 33.2571C183.178 33.1047 183.178 32.9523 183.139 32.8C183.139 32.6475 183.158 32.5141 183.197 32.3998V31.4856C183.158 31.2951 183.139 31.1428 183.139 31.0285C183.178 30.9142 183.178 30.7999 183.139 30.6856L183.024 30.3429H182.213C181.596 30.3429 181.268 30.3236 181.229 30.2856C181.075 30.2856 180.998 30.3047 180.998 30.3429H180.361L179.783 30.4571C179.474 30.4571 179.301 30.4762 179.262 30.5142L178.509 30.6285C178.278 30.5905 178.086 30.5905 177.932 30.6285C177.815 30.6285 177.758 30.6285 177.758 30.6285C177.681 30.7048 177.507 30.7428 177.237 30.7428C176.928 30.7809 176.562 30.876 176.137 31.0285V31.7713L176.196 35.9999Z" fill="#4A443D"/>
</svg>
