<svg width="120" height="120" viewBox="0 0 120 120" fill="none" xmlns="http://www.w3.org/2000/svg">
<path fill-rule="evenodd" clip-rule="evenodd" d="M67.1012 60.7737C70.9311 70.0991 59.1221 78.1616 50.7723 77.8803C48.0742 77.9199 45.347 77.2196 42.8171 76.2254C38.1172 74.5348 34.0794 71.3253 31.0874 67.2957C25.6234 60.477 25.1671 50.7673 29.9804 43.6859C30.642 42.7004 31.4957 41.8586 32.4905 41.211C33.4853 40.5634 34.6005 40.1233 35.7695 39.9172C36.9858 39.7073 38.2318 39.7418 39.4346 40.0188C40.6374 40.2959 41.773 40.8098 42.775 41.5306C43.8955 42.3401 44.8273 43.3829 45.5061 44.5871L49.0393 50.8119C49.4656 51.5895 50.0598 52.2625 50.7787 52.7818C51.4975 53.3011 52.3231 53.6538 53.1953 53.8142L60.1021 55.0909C61.6505 55.3783 63.1023 56.0489 64.3249 57.0416C65.5475 58.0343 66.502 59.3174 67.1012 60.7737ZM52.5901 57.1334C49.326 56.5684 46.9499 54.3657 45.4989 51.4093C43.1082 56.6042 49.7242 61.7178 53.8651 57.3699L52.5901 57.1334ZM32.7716 45.5816C28.4214 51.8937 29.4064 60.6594 34.6609 66.3603C37.4193 69.8234 41.1918 72.2323 45.3528 73.553C48.595 74.7598 52.1491 74.8396 55.4422 73.7797C59.946 72.3334 66.2865 67.4115 63.9896 62.0785C63.6062 61.1401 62.9937 60.3127 62.2081 59.6719C61.4226 59.031 60.489 58.5972 59.4927 58.4101L57.4684 58.0351C56.1034 60.7121 53.2042 62.3813 50.2206 62.3649C43.0649 62.4268 38.9366 53.5107 43.6475 48.1459L42.5725 46.2528C42.0546 45.3195 41.2981 44.5405 40.3803 43.9957C39.4626 43.4508 38.4165 43.1596 37.3492 43.1518C36.445 43.1479 35.5538 43.3677 34.7552 43.7917C33.9565 44.2156 33.2751 44.8305 32.7716 45.5816ZM36.6589 30.0554C34.3801 38.0513 24.4766 43.2528 16.5397 40.4579C7.15791 37.3236 2.72541 26.1226 4.81486 16.1284C7.08525 4.82234 13.0243 1.72414 23.5864 6.42125C32.9504 10.5005 39.5235 20.5841 36.6589 30.0554ZM9.33244 12.6338C8.79272 13.9616 8.38947 15.3408 8.12892 16.7502C5.99517 26.4793 11.466 38.2594 21.876 37.798C19.7994 36.8858 17.6164 35.5299 16.1493 33.5262C14.8874 31.6869 17.5 29.7762 18.8706 31.5341C20.2632 33.4362 22.6925 34.6046 24.7203 35.2939L22.1221 30.2682C21.9266 29.8717 21.8945 29.4143 22.0327 28.9943C22.1709 28.5744 22.4684 28.2255 22.8612 28.0226C23.254 27.8197 23.7107 27.7791 24.1332 27.9095C24.5556 28.0398 24.91 28.3307 25.1202 28.7197L27.7194 33.7473C28.3316 31.6941 28.7858 29.0354 28.041 26.7985C27.4009 24.6605 30.4721 23.6373 31.2397 25.7312C32.0244 28.0836 31.8683 30.6444 31.4118 32.8634C34.7155 28.647 34.6813 23.453 32.0617 18.3359C29.8351 13.8596 24.2279 9.66992 18.7961 8.26648C21.5103 9.97086 24.4593 12.3793 26.2946 15.5555C26.9607 16.6384 26.0907 18.1177 24.8352 18.0868C24.5389 18.0871 24.2477 18.0095 23.9909 17.8615C23.7341 17.7136 23.5208 17.5007 23.3725 17.2442C21.5528 14.0944 18.2771 11.7812 15.5928 10.2938L18.7032 16.3079C18.8051 16.5048 18.8671 16.7198 18.8859 16.9407C18.9046 17.1615 18.8796 17.3839 18.8124 17.5952C18.7452 17.8064 18.637 18.0023 18.4941 18.1717C18.3512 18.3412 18.1763 18.4808 17.9794 18.5826C17.7825 18.6844 17.5675 18.7465 17.3466 18.7652C17.1257 18.784 16.9033 18.759 16.6921 18.6918C16.4809 18.6246 16.2849 18.5164 16.1155 18.3735C15.9461 18.2305 15.8065 18.0556 15.7046 17.8587L12.7457 12.1353C12.5432 15.1555 12.7159 19.0062 14.2813 22.1375C14.4668 22.5359 14.4897 22.9909 14.3449 23.4058C14.2002 23.8207 13.8993 24.1628 13.5062 24.3594C13.1131 24.5559 12.6589 24.5913 12.2401 24.4581C11.8214 24.3249 11.471 24.0336 11.2637 23.6462C9.4965 20.1104 9.1822 15.9816 9.33244 12.6338ZM104.087 35.7399C117.412 41.8482 119.239 60.0523 109.004 71.0007C105.776 74.5006 104.954 77.6712 105.964 82.5699C108.545 92.4723 102.334 108.182 92.2138 113.236C86.7885 116.145 80.5133 116.375 74.7322 114.2C50.8803 105.261 54.3135 80.1416 71.6516 67.6114L71.6855 67.5851C75.1687 64.8769 75.5134 64.609 76.1584 59.652C76.5421 56.6916 77.02 53.008 79.6703 47.3869C84.1363 37.9339 95.7327 32.4205 104.087 35.7399ZM82.6909 112.272C96.4185 112.501 105.449 94.644 102.635 83.1087C101.706 77.3666 101.981 74.0471 106.434 68.8133C113.818 60.9582 114.647 47.8927 105.979 40.7677C105.932 41.1753 105.738 41.5516 105.432 41.8253C105.126 42.0989 104.731 42.251 104.321 42.2525C103.126 42.2335 102.673 41.2918 102.516 40.2249C101.526 41.0703 100.544 41.641 99.5811 40.5493C99.4349 40.3823 99.323 40.188 99.252 39.9777C99.181 39.7674 99.1521 39.5451 99.1671 39.3236C99.1821 39.1021 99.2407 38.8858 99.3394 38.687C99.4382 38.4882 99.5752 38.3108 99.7426 38.165C93.2181 37.7089 85.9079 42.1981 82.7218 48.8251C80.2972 53.9675 79.8564 57.3594 79.5048 60.0847C78.7206 66.1259 77.8485 67.067 73.7235 70.2744C63.1939 77.4298 54.6346 95.5824 67.5707 106.169C67.663 103.979 70.9208 103.978 70.9443 106.233C70.9286 106.968 70.942 107.712 70.9555 108.455L70.9586 108.626C73.3429 110.064 75.8605 111.212 78.5324 111.805L78.6353 111.697C79.1474 111.157 79.6595 110.617 80.1456 110.066C81.6596 108.456 84.0751 110.546 82.6909 112.272ZM100.925 68.0778C102.099 65.9964 103.129 63.8364 104.005 61.6133C104.753 59.5081 101.735 58.3395 100.862 60.3861C100.043 62.4637 99.0812 64.4822 97.9834 66.4271C96.9446 68.3884 99.7806 69.9934 100.925 68.0778ZM97.4776 80.4411C97.8031 78.0899 97.9978 75.7224 98.0607 73.3496C98.0521 71.1202 94.8168 71.0326 94.6876 73.2598C94.6288 75.5071 94.445 77.7494 94.1371 79.9763C93.8964 82.1891 97.0998 82.6442 97.4776 80.4411ZM106.053 54.6941C106.529 52.3182 106.768 49.9008 106.765 47.4777C106.653 45.2354 103.434 45.3978 103.391 47.6159C103.387 49.7706 103.171 51.9197 102.745 54.032C102.373 56.2248 105.543 56.8716 106.053 54.6941ZM87.092 106.716C88.4622 104.774 89.7179 102.753 90.8525 100.665C91.8559 98.6712 89.0082 97.1302 87.8875 99.057C86.8151 101.029 85.6288 102.938 84.3346 104.772C83.0999 106.619 85.7589 108.503 87.092 106.716ZM93.872 94.2066C94.7456 91.9937 95.4859 89.7306 96.0892 87.4292C96.586 85.2549 93.4571 84.4344 92.8243 86.574C92.2576 88.7443 91.5601 90.8784 90.7356 92.9645C89.9788 95.0551 92.98 96.26 93.872 94.2066ZM94.7417 43.2233C93.2022 45.0257 91.7924 46.935 90.523 48.9369C89.7941 50.015 90.6632 51.5598 91.9464 51.527C92.2309 51.5274 92.5109 51.4558 92.7604 51.3189C93.0098 51.1819 93.2205 50.984 93.3728 50.7437C94.5552 48.8766 95.8691 47.0961 97.3046 45.4159C98.7027 43.6775 96.2399 41.5719 94.7417 43.2233ZM74.8975 86.739C75.7524 84.6963 76.743 82.7131 77.8625 80.8025C78.9325 78.8431 76.1357 77.2065 74.9532 79.096C73.7563 81.1367 72.6976 83.2553 71.7842 85.4377C70.9787 87.5044 73.9792 88.7755 74.8975 86.739ZM87.1407 55.1651C86.1569 57.3066 85.3012 59.5047 84.5783 61.7478L84.5776 61.7499C84.5004 61.9629 84.4669 62.1892 84.479 62.4154C84.4911 62.6415 84.5486 62.863 84.6481 63.0665C84.7477 63.2699 84.8871 63.4513 85.0582 63.5997C85.2293 63.7482 85.4285 63.8606 85.644 63.9305C85.8595 64.0003 86.0868 64.026 86.3125 64.0061C86.5381 63.9861 86.7574 63.921 86.9574 63.8145C87.1573 63.708 87.3337 63.5624 87.4762 63.3863C87.6186 63.2101 87.7241 63.0071 87.7864 62.7894C88.4685 60.6729 89.2759 58.5989 90.2045 56.5784C91.075 54.522 88.1375 53.173 87.1407 55.1651ZM71.4514 99.5429C71.7493 97.3436 72.1851 95.1653 72.7562 93.0207C72.8539 92.5948 72.7821 92.1477 72.5568 91.7733C72.3315 91.399 71.9698 91.1266 71.5477 91.0135C71.1257 90.9004 70.6763 90.9554 70.294 91.1669C69.9117 91.3784 69.6263 91.73 69.4979 92.1477C68.8901 94.4293 68.4257 96.7468 68.1076 99.0866C67.8749 101.301 71.0764 101.746 71.4514 99.5429ZM81.5919 75.2959C82.8085 73.7258 84.1061 72.2201 85.4792 70.7848C85.8206 70.4721 85.925 69.9362 86.0147 69.476C86.0294 69.4006 86.0437 69.3272 86.0586 69.2572C86.4374 66.8839 83.0174 66.407 82.7071 68.8058C81.3547 70.2437 80.083 71.7313 78.9233 73.2334C78.0503 74.2897 78.9074 75.9936 80.256 75.9521C80.5141 75.9526 80.7688 75.8937 81.0005 75.7799C81.2322 75.6661 81.4345 75.5005 81.5919 75.2959ZM74.7261 41.1484C71.8164 42.691 68.5515 43.6677 65.3256 43.6208C55.4891 43.9974 42.047 33.3723 51.2516 23.72C53.1008 22.0467 55.41 21.5222 56.8093 21.2044C57.4086 21.0683 57.841 20.9701 57.9988 20.8358C58.4695 20.6964 58.9295 20.5722 59.3758 20.4516C61.9625 19.7529 64.0843 19.1797 65.1179 16.5249C65.114 16.5351 65.3694 15.9061 65.7288 15.0209C66.3735 13.4332 67.353 11.021 67.7717 9.99218C68.3388 8.55985 69.2662 7.29827 70.4641 6.32973C71.662 5.36118 73.0899 4.7185 74.6092 4.46398C82.6077 3.15828 87.3308 12.1944 87.9749 19.0445C88.4645 23.8264 87.0655 28.4483 84.4021 32.3827C82.0691 36.1596 78.7144 39.1987 74.7261 41.1484ZM59.251 23.9996C57.9526 24.301 54.8366 25.0243 53.5166 26.2196C51.1379 28.3759 50.9682 32.1582 53.1395 34.6501C61.8718 44.668 73.2786 38.1331 73.2552 38.1116C77.1081 36.2745 80.2016 33.1105 82.295 29.3633C86.1055 23.367 85.2121 15.0141 80.5211 9.75898C77.7826 6.51078 72.4367 7.25445 70.8981 11.2571C70.7774 11.5545 70.5088 12.216 70.1856 13.0119C69.4716 14.7704 68.4913 17.1845 68.2527 17.7751C66.6006 22.0162 62.9608 22.9836 60.4988 23.6379C60.242 23.7061 59.998 23.771 59.7704 23.8358C59.9568 23.8358 59.725 23.8896 59.251 23.9996ZM79.3632 13.7391C78.0027 11.9659 75.3779 13.8619 76.6222 15.7079C78.556 18.3973 79.0946 21.5773 78.271 25.4246C78.2224 25.642 78.2173 25.8668 78.256 26.0862C78.2948 26.3055 78.3766 26.515 78.4968 26.7025C78.6169 26.8901 78.773 27.052 78.9561 27.1789C79.1392 27.3057 79.3456 27.3951 79.5633 27.4418C79.7811 27.4884 80.006 27.4915 80.225 27.4508C80.444 27.41 80.6527 27.3263 80.8392 27.2045C81.0256 27.0826 81.1861 26.9251 81.3113 26.7409C81.4365 26.5566 81.524 26.3495 81.5687 26.1312C82.5901 21.3666 81.8476 17.1976 79.3632 13.7391ZM31.4832 115.432C31.2244 115.583 30.93 115.663 30.6301 115.663C15.17 115.238 7.25775 107.639 7.14502 93.1351C6.5347 92.8991 5.91408 92.6338 5.27353 92.3148C5.0466 92.1996 4.84847 92.0349 4.69385 91.8328C4.53922 91.6307 4.43205 91.3964 4.38028 91.1472C4.32851 90.8981 4.33347 90.6405 4.39478 90.3935C4.45609 90.1465 4.57219 89.9165 4.73447 89.7205C4.9897 89.4153 10.7593 82.6257 18.4998 79.6873L21.722 78.7091C29.5492 76.8137 37.4467 77.8269 37.8025 77.8737C38.0521 77.909 38.2908 77.9994 38.5012 78.1385C38.7115 78.2775 38.8883 78.4616 39.0186 78.6775C39.1489 78.8933 39.2295 79.1355 39.2545 79.3864C39.2795 79.6373 39.2483 79.8906 39.1632 80.128C38.7893 81.1537 38.3292 82.1459 37.7879 83.094C47.6947 95.9947 45.5947 107.193 31.4832 115.432ZM35.0891 81.0261C32.0005 80.8473 26.2353 80.8145 20.9659 82.4056C15.7424 83.9832 11.2044 87.9282 8.90916 90.2033C12.0639 91.2922 14.4437 90.8441 16.4467 88.8362C16.6753 88.6084 16.9643 88.4509 17.2796 88.3823C17.5948 88.3137 17.9232 88.3368 18.2257 88.4489C18.5283 88.561 18.7924 88.7574 18.9869 89.0149C19.1813 89.2724 19.2979 89.5802 19.3229 89.9019C19.648 94.2606 21.5802 96.8944 25.7214 98.5135C28.8539 93.0447 27.6194 90.3551 26.7753 88.5161C26.3413 87.5705 26.0104 86.8497 26.4296 86.0916C26.5865 85.8205 26.8152 85.598 27.0904 85.4486C27.3657 85.2992 27.6769 85.2287 27.9896 85.2448C31.3417 85.2448 33.5127 83.9919 35.0891 81.0261ZM16.4298 93.0587C14.6675 94.0299 12.7016 94.3412 10.5236 94.0377C10.915 105.935 17.2089 111.76 30.1939 112.275C41.8953 105.203 43.6365 96.7895 35.6375 85.8371C34.1988 87.192 32.3893 88.088 30.4396 88.411C31.8243 92.3799 30.97 96.6784 27.8633 101.472C27.7103 101.708 27.5006 101.902 27.2535 102.036C27.0063 102.171 26.7295 102.241 26.4482 102.241C21.1077 100.956 17.5862 97.5821 16.4298 93.0587Z" fill="#4A443D"/>
<path d="M21.722 78.7091C19.8765 72.6704 13.877 70.5962 9.33361 69.5659C9.11434 69.5076 8.88558 69.4941 8.66099 69.5263C8.43641 69.5585 8.22062 69.6356 8.02652 69.7531C7.83242 69.8705 7.664 70.0259 7.53133 70.21C7.39866 70.394 7.30447 70.6029 7.25438 70.8242C7.20429 71.0455 7.19934 71.2746 7.23981 71.4978C7.28029 71.7211 7.36536 71.9338 7.48995 72.1234C7.61454 72.313 7.77608 72.4756 7.96492 72.6013C8.15376 72.7271 8.36602 72.8135 8.589 72.8553C14.4057 74.1748 17.4564 76.2606 18.4998 79.6873L21.722 78.7091Z" fill="#FF5F1F"/>
<path d="M45.4989 51.4093C46.9499 54.3657 49.326 56.5684 52.5901 57.1334L53.8651 57.3699C49.7242 61.7178 43.1082 56.6042 45.4989 51.4093ZM104.005 61.6133C103.129 63.8364 102.099 65.9964 100.925 68.0778C99.7806 69.9934 96.9446 68.3884 97.9834 66.4271C99.0812 64.4822 100.043 62.4637 100.862 60.3861C101.735 58.3395 104.753 59.5081 104.005 61.6133ZM98.0607 73.3496C97.9978 75.7224 97.8031 78.0899 97.4776 80.4411C97.0998 82.6442 93.8964 82.1891 94.1371 79.9763C94.445 77.7494 94.6288 75.5071 94.6876 73.2598C94.8168 71.0326 98.0521 71.1202 98.0607 73.3496ZM106.765 47.4777C106.768 49.9008 106.529 52.3182 106.053 54.6941C105.543 56.8716 102.373 56.2248 102.745 54.032C103.171 51.9197 103.387 49.7706 103.391 47.6159C103.434 45.3978 106.653 45.2354 106.765 47.4777ZM90.8525 100.665C89.7179 102.753 88.4622 104.774 87.092 106.716C85.7589 108.503 83.0999 106.619 84.3346 104.772C85.6288 102.938 86.8151 101.029 87.8875 99.057C89.0082 97.1302 91.8559 98.6712 90.8525 100.665ZM96.0892 87.4292C95.4859 89.7306 94.7456 91.9937 93.872 94.2066C92.98 96.26 89.9788 95.0551 90.7356 92.9645C91.5601 90.8784 92.2576 88.7443 92.8243 86.574C93.4571 84.4344 96.586 85.2549 96.0892 87.4292ZM90.523 48.9369C91.7924 46.935 93.2022 45.0257 94.7417 43.2233C96.2399 41.5719 98.7027 43.6775 97.3046 45.4159C95.8691 47.0961 94.5552 48.8766 93.3728 50.7437C93.2205 50.984 93.0098 51.1819 92.7604 51.3189C92.5109 51.4558 92.2309 51.5274 91.9464 51.527C90.6632 51.5598 89.7941 50.015 90.523 48.9369ZM77.8625 80.8025C76.743 82.7131 75.7524 84.6963 74.8975 86.739C73.9792 88.7755 70.9787 87.5044 71.7842 85.4377C72.6976 83.2553 73.7563 81.1367 74.9532 79.096C76.1357 77.2065 78.9325 78.8431 77.8625 80.8025ZM84.5783 61.7478C85.3012 59.5047 86.1569 57.3066 87.1407 55.1651C88.1375 53.173 91.075 54.522 90.2045 56.5784C89.2759 58.5989 88.4685 60.6729 87.7864 62.7894C87.7241 63.0071 87.6186 63.2101 87.4762 63.3863C87.3337 63.5624 87.1573 63.708 86.9574 63.8145C86.7574 63.921 86.5381 63.9861 86.3125 64.0061C86.0868 64.026 85.8595 64.0003 85.644 63.9305C85.4285 63.8606 85.2293 63.7482 85.0582 63.5997C84.8871 63.4513 84.7477 63.2699 84.6481 63.0665C84.5486 62.863 84.4911 62.6415 84.479 62.4154C84.4669 62.1892 84.5004 61.9629 84.5776 61.7499L84.5783 61.7478ZM72.7562 93.0207C72.1851 95.1653 71.7493 97.3436 71.4514 99.5429C71.0764 101.746 67.8749 101.301 68.1076 99.0866C68.4257 96.7468 68.8901 94.4293 69.4979 92.1477C69.6263 91.73 69.9117 91.3784 70.294 91.1669C70.6763 90.9554 71.1257 90.9004 71.5477 91.0135C71.9698 91.1266 72.3315 91.399 72.5568 91.7733C72.7821 92.1477 72.8539 92.5948 72.7562 93.0207ZM85.4792 70.7848C84.1061 72.2201 82.8085 73.7258 81.5919 75.2959C81.4345 75.5005 81.2322 75.6661 81.0005 75.7799C80.7688 75.8937 80.5141 75.9526 80.256 75.9521C78.9074 75.9936 78.0503 74.2897 78.9233 73.2334C80.083 71.7313 81.3547 70.2437 82.7071 68.8058C83.0174 66.407 86.4374 66.8839 86.0586 69.2572C85.9529 69.7545 85.8764 70.4208 85.4792 70.7848ZM76.6222 15.7079C75.3779 13.8619 78.0027 11.9659 79.3632 13.7391C81.8476 17.1976 82.5901 21.3666 81.5687 26.1312C81.524 26.3495 81.4365 26.5566 81.3113 26.7409C81.1861 26.9251 81.0256 27.0826 80.8392 27.2045C80.6527 27.3263 80.444 27.41 80.225 27.4508C80.006 27.4915 79.7811 27.4884 79.5633 27.4418C79.3456 27.3951 79.1392 27.3057 78.9561 27.1789C78.773 27.052 78.6169 26.8901 78.4968 26.7025C78.3766 26.515 78.2948 26.3055 78.256 26.0862C78.2173 25.8668 78.2224 25.642 78.271 25.4246C79.0946 21.5773 78.556 18.3973 76.6222 15.7079Z" fill="#FF5F1F"/>
<path d="M31.4118 32.8634C32.5203 30.3073 32.0244 28.0837 31.2397 25.7312C30.4721 23.6373 27.4009 24.6605 28.041 26.7985C28.7858 29.0354 28.3316 31.6941 27.7194 33.7473L25.1202 28.7197C24.91 28.3307 24.5556 28.0398 24.1332 27.9095C23.7107 27.7791 23.254 27.8197 22.8612 28.0226C22.4684 28.2255 22.1709 28.5744 22.0327 28.9943C21.8945 29.4143 21.9266 29.8717 22.1221 30.2682L24.7203 35.2939C22.6925 34.6046 20.2632 33.4362 18.8706 31.5341C17.5 29.7762 14.8874 31.6869 16.1493 33.5262C17.6165 35.5299 19.1453 37.2253 21.876 37.798C25.9797 38.6588 29.7434 36.7102 31.4118 32.8634Z" fill="#FF5F1F"/>
<path d="M9.33244 12.6338C9.1822 15.9816 9.4965 20.1104 11.2637 23.6462C11.471 24.0336 11.8214 24.3249 12.2401 24.4581C12.6589 24.5913 13.1131 24.5559 13.5062 24.3594C13.8993 24.1628 14.2002 23.8207 14.3449 23.4058C14.4897 22.9909 14.4668 22.5359 14.2813 22.1375C12.7159 19.0062 12.5432 15.1555 12.7457 12.1353L15.7046 17.8587C15.8065 18.0556 15.9461 18.2305 16.1155 18.3735C16.2849 18.5164 16.4809 18.6246 16.6921 18.6918C16.9033 18.759 17.1257 18.784 17.3466 18.7652C17.5675 18.7465 17.7825 18.6844 17.9794 18.5826C18.1763 18.4808 18.3512 18.3412 18.4941 18.1717C18.637 18.0023 18.7452 17.8064 18.8124 17.5952C18.8796 17.3839 18.9046 17.1615 18.8859 16.9407C18.8671 16.7198 18.8051 16.5048 18.7032 16.3079L15.5928 10.2938C18.2771 11.7812 21.5528 14.0944 23.3725 17.2442C23.5208 17.5007 23.7341 17.7136 23.9909 17.8615C24.2477 18.0095 24.5389 18.0871 24.8352 18.0868C26.0907 18.1177 26.9607 16.6384 26.2946 15.5555C24.4593 12.3793 21.5103 9.97086 18.7961 8.26648C16.3441 7.1002 11.0187 6.34085 9.33244 12.6338Z" fill="#FF5F1F"/>
</svg>
