<svg width="120" height="120" viewBox="0 0 120 120" fill="none" xmlns="http://www.w3.org/2000/svg">
<path d="M29.6775 81.8621C31.5525 80.4793 32.9165 78.2762 33.0105 75.2338C33.0105 75.1991 33.0105 75.1635 33.0105 75.13C32.8425 69.666 28.6411 66.8064 24.5775 66.8064C20.5139 66.8064 16.3125 69.6643 16.1442 75.2321C16.2379 78.275 17.6022 80.4784 19.4772 81.8617C14.8971 85.2132 11.2003 93.3901 11.0831 107.215C11.0812 107.438 11.1235 107.659 11.2075 107.865C11.2915 108.072 11.4155 108.259 11.5723 108.418C11.7292 108.576 11.9159 108.701 12.1215 108.787C12.3272 108.873 12.5478 108.917 12.7706 108.917H36.3848C36.6077 108.917 36.8285 108.873 37.0342 108.787C37.24 108.701 37.4267 108.575 37.5836 108.417C37.7405 108.259 37.8645 108.071 37.9484 107.864C38.0323 107.658 38.0744 107.436 38.0723 107.214C37.9429 93.3885 34.2489 85.2121 29.6775 81.8621ZM24.5775 70.18C27.007 70.18 29.5059 71.7268 29.6369 75.1811C29.5324 77.9396 27.8477 80.0734 24.5814 80.0734H24.5782C21.3168 80.0748 19.6024 77.964 19.5157 75.2338C19.6242 71.7421 22.1362 70.18 24.5775 70.18ZM25.7165 83.6096L24.5765 87.5964L23.4384 83.612C24.1905 83.4643 24.9641 83.4635 25.7165 83.6096ZM14.4911 105.543C14.823 95.3244 17.3376 88.5603 20.4527 85.4403L22.9539 94.1985C23.0552 94.5504 23.2681 94.8599 23.5607 95.0801C23.8532 95.3004 24.2095 95.4195 24.5757 95.4195C24.9419 95.4195 25.2982 95.3004 25.5907 95.0801C25.8833 94.8599 26.0962 94.5504 26.1975 94.1985L28.7013 85.4406C31.8096 88.5608 34.3221 95.326 34.6619 105.543H14.4911ZM65.1 81.8621C66.975 80.4793 68.339 78.2762 68.433 75.2338C68.433 75.1991 68.433 75.1635 68.433 75.13C68.265 69.666 64.0638 66.8064 60 66.8064C55.9361 66.8064 51.7357 69.6643 51.5669 75.2321C51.6607 78.275 53.0247 80.4784 54.8997 81.8617C50.3198 85.2132 46.623 93.3901 46.5056 107.215C46.5037 107.438 46.546 107.659 46.63 107.865C46.714 108.072 46.838 108.259 46.9948 108.418C47.1517 108.576 47.3384 108.701 47.544 108.787C47.7497 108.873 47.9703 108.917 48.1931 108.917H71.8075C72.0305 108.917 72.2512 108.873 72.457 108.787C72.6627 108.701 72.8495 108.575 73.0064 108.417C73.1633 108.259 73.2872 108.071 73.3711 107.864C73.455 107.658 73.4971 107.436 73.495 107.214C73.3654 93.3885 69.6717 85.2121 65.1 81.8621ZM60 70.18C62.4297 70.18 64.9286 71.7268 65.0594 75.1811C64.9549 77.9396 63.2704 80.0734 60.0042 80.0734H60C56.7384 80.0748 55.0242 77.964 54.9375 75.2338C55.0467 71.7421 57.5587 70.18 60 70.18ZM61.139 83.6096L60 87.5964L58.8618 83.612C59.6135 83.4631 60.387 83.4623 61.139 83.6096ZM49.9139 105.543C50.2455 95.3244 52.7603 88.5603 55.8754 85.4403L58.3767 94.1985C58.4772 94.551 58.6899 94.8611 58.9825 95.0819C59.2751 95.3028 59.6317 95.4222 59.9983 95.4222C60.3649 95.4222 60.7215 95.3028 61.0141 95.0819C61.3067 94.8611 61.5194 94.551 61.62 94.1985L64.125 85.4406C67.2335 88.5608 69.746 95.326 70.0856 105.543H49.9139ZM100.523 81.8621C102.398 80.4793 103.763 78.2762 103.857 75.2338C103.857 75.1991 103.857 75.1635 103.857 75.13C103.689 69.666 99.4872 66.8064 95.4234 66.8064C91.3596 66.8064 87.1591 69.6643 86.9903 75.2321C87.0841 78.275 88.4484 80.4784 90.3232 81.8617C85.7432 85.2132 82.0464 93.3901 81.9293 107.215C81.9274 107.438 81.9697 107.659 82.0537 107.865C82.1376 108.072 82.2616 108.259 82.4185 108.418C82.5754 108.576 82.7621 108.701 82.9677 108.787C83.1734 108.873 83.394 108.917 83.6168 108.917H107.23C107.453 108.917 107.674 108.873 107.88 108.787C108.085 108.701 108.272 108.575 108.429 108.417C108.586 108.259 108.71 108.071 108.794 107.864C108.878 107.658 108.92 107.436 108.918 107.214C108.788 93.3885 105.094 85.2121 100.523 81.8621ZM95.4234 70.18C97.8532 70.18 100.352 71.7268 100.483 75.1811C100.379 77.9396 98.6939 80.0734 95.4276 80.0734H95.4243C92.1628 80.0748 90.4486 77.964 90.3618 75.2338C90.4687 71.7421 92.9821 70.18 95.4234 70.18ZM96.5625 83.6096L95.4227 87.5964L94.2843 83.612C95.0365 83.4643 95.81 83.4635 96.5625 83.6096ZM85.3359 105.543C85.6675 95.3244 88.1824 88.5603 91.2975 85.4403L93.7987 94.1985C93.8999 94.5504 94.1129 94.8599 94.4054 95.0801C94.698 95.3004 95.0543 95.4195 95.4205 95.4195C95.7867 95.4195 96.1429 95.3004 96.4355 95.0801C96.728 94.8599 96.941 94.5504 97.0422 94.1985L99.5461 85.4406C102.654 88.5608 105.167 95.326 105.507 105.543H85.3359ZM107.23 11.083H85.3014C83.9872 11.0866 82.6922 11.3984 81.5204 11.9934C80.3485 12.5884 79.3326 13.4499 78.5543 14.5089C77.7759 13.45 76.7599 12.5884 75.5881 11.9934C74.4163 11.3985 73.1213 11.0866 71.8071 11.083H48.1924C46.8706 11.0863 45.5682 11.4014 44.3911 12.0025C43.2139 12.6036 42.195 13.4739 41.4173 14.5426C40.6383 13.4935 39.6254 12.6406 38.4589 12.0518C37.2924 11.4629 36.0047 11.1543 34.698 11.1505H12.7699C10.5339 11.1531 8.39019 12.0425 6.80907 13.6236C5.22796 15.2048 4.33854 17.3485 4.33594 19.5845V43.1994C4.33873 45.4353 5.22823 47.5788 6.80932 49.1598C8.39042 50.7408 10.534 51.6301 12.7699 51.6327H17.7527L22.2876 59.1796C22.4376 59.4291 22.6497 59.6356 22.9031 59.779C23.1565 59.9224 23.4428 59.9977 23.7339 59.9977C24.0251 59.9977 24.3113 59.9224 24.5648 59.779C24.8182 59.6356 25.0303 59.4291 25.1803 59.1796L29.7152 51.6327H34.698C36.0198 51.6294 37.3221 51.3144 38.4993 50.7133C39.6765 50.1123 40.6953 49.242 41.4731 48.1733C42.2521 49.2223 43.2651 50.0751 44.4316 50.664C45.598 51.2528 46.8857 51.5614 48.1924 51.5652H53.9843L58.5546 59.1805C58.7046 59.4301 58.9166 59.6366 59.1701 59.7799C59.4235 59.9233 59.7097 59.9986 60.0009 59.9986C60.2921 59.9986 60.5783 59.9233 60.8317 59.7799C61.0852 59.6366 61.2972 59.4301 61.4472 59.1805L66.0175 51.5652H71.8094C73.1232 51.5614 74.4178 51.2496 75.5892 50.6548C76.7607 50.0601 77.7764 49.1989 78.5547 48.1405C79.3331 49.1994 80.3491 50.0609 81.5209 50.6558C82.6927 51.2508 83.9877 51.5626 85.3019 51.5661H90.2503L94.8206 59.1814C94.9706 59.431 95.1826 59.6375 95.4361 59.7809C95.6895 59.9242 95.9757 59.9996 96.2669 59.9996C96.5581 59.9996 96.8443 59.9242 97.0978 59.7809C97.3512 59.6375 97.5632 59.431 97.7132 59.1814L102.284 51.5661H107.232C109.468 51.563 111.611 50.6734 113.192 49.0923C114.772 47.5111 115.662 45.3677 115.664 43.1319V19.517C115.662 17.281 114.772 15.1373 113.191 13.5561C111.61 11.975 109.466 11.0856 107.23 11.083ZM39.7584 43.1994C39.7569 44.5411 39.2233 45.8273 38.2746 46.776C37.3259 47.7247 36.0396 48.2583 34.698 48.2598H28.7606C28.4694 48.2601 28.1832 48.3356 27.9298 48.479C27.6764 48.6225 27.4644 48.8289 27.3143 49.0785L23.7339 55.0384L20.1536 49.078C20.0035 48.8285 19.7915 48.622 19.5381 48.4785C19.2847 48.3351 18.9985 48.2596 18.7073 48.2593H12.7699C11.4282 48.2578 10.142 47.7242 9.19333 46.7755C8.24465 45.8269 7.71102 44.5406 7.70953 43.1989V19.5845C7.71102 18.2428 8.24465 16.9566 9.19333 16.0079C10.142 15.0592 11.4282 14.5256 12.7699 14.5241H34.698C36.0396 14.5256 37.3259 15.0592 38.2746 16.0079C39.2233 16.9566 39.7569 18.2428 39.7584 19.5845V43.1994ZM76.8679 43.1319C76.8664 44.4736 76.3328 45.7598 75.3841 46.7085C74.4354 47.6572 73.1492 48.1908 71.8075 48.1923H65.0604C64.7691 48.1924 64.4829 48.2678 64.2294 48.4112C63.976 48.5547 63.764 48.7613 63.614 49.011L60 55.0351L56.3859 49.0117C56.236 48.762 56.0239 48.5554 55.7705 48.4119C55.5171 48.2685 55.2308 48.1931 54.9396 48.193H48.1924C46.8506 48.1915 45.5642 47.6578 44.6155 46.709C43.6668 45.7601 43.1333 44.4737 43.132 43.1319V19.517C43.1335 18.1754 43.6671 16.8891 44.6158 15.9404C45.5645 14.9917 46.8507 14.4581 48.1924 14.4566H71.8075C73.1492 14.4581 74.4354 14.9917 75.3841 15.9404C76.3328 16.8891 76.8664 18.1754 76.8679 19.517V43.1319ZM112.291 43.1319C112.289 44.4736 111.755 45.7598 110.807 46.7085C109.858 47.6572 108.572 48.1908 107.23 48.1923H101.326C101.035 48.1924 100.749 48.2678 100.496 48.4112C100.242 48.5547 100.03 48.7613 99.88 49.011L96.266 55.0344L92.6519 49.011C92.502 48.7613 92.29 48.5547 92.0365 48.4112C91.7831 48.2678 91.4968 48.1924 91.2056 48.1923H85.3019C83.9603 48.1908 82.674 47.6572 81.7253 46.7085C80.7766 45.7598 80.243 44.4736 80.2415 43.1319V19.517C80.243 18.1754 80.7766 16.8891 81.7253 15.9404C82.674 14.9917 83.9603 14.4581 85.3019 14.4566H107.23C108.572 14.4581 109.858 14.9917 110.807 15.9404C111.755 16.8891 112.289 18.1754 112.291 19.517V43.1319ZM106.584 27.9625L100.422 27.2375L97.8382 20.5925C97.7148 20.2759 97.4987 20.0039 97.2181 19.8122C96.9376 19.6204 96.6057 19.5178 96.2659 19.5178C95.926 19.5178 95.5942 19.6204 95.3136 19.8122C95.0331 20.0039 94.817 20.2759 94.6936 20.5925L92.1093 27.2375L85.9479 27.9625C85.6101 28.0028 85.2925 28.1443 85.0366 28.3683C84.7806 28.5923 84.5984 28.8885 84.5137 29.2179C84.429 29.5473 84.4458 29.8946 84.562 30.2143C84.6781 30.534 84.8882 30.8111 85.1646 31.0093L90.0546 34.5032L87.918 40.911C87.8127 41.2275 87.8036 41.5681 87.8918 41.8898C87.98 42.2115 88.1615 42.4998 88.4135 42.7184C88.6655 42.937 88.9766 43.076 89.3075 43.1178C89.6384 43.1597 89.9743 43.1025 90.2728 42.9536L96.2655 39.9557L102.258 42.954C102.556 43.103 102.892 43.1601 103.223 43.1183C103.554 43.0764 103.865 42.9374 104.117 42.7189C104.369 42.5003 104.551 42.2119 104.639 41.8903C104.727 41.5686 104.718 41.228 104.613 40.9114L102.476 34.5036L107.367 31.0098C107.644 30.8116 107.854 30.5344 107.97 30.2147C108.087 29.8949 108.103 29.5475 108.019 29.2179C107.934 28.8884 107.752 28.5922 107.495 28.3681C107.239 28.1441 106.922 28.0027 106.584 27.9625ZM98.8828 34.3883L100.125 38.1149L97.0207 36.5614C96.7864 36.4445 96.5281 36.3836 96.2662 36.3836C96.0043 36.3836 95.746 36.4445 95.5118 36.5614L92.4075 38.1149L93.6496 34.3883C93.7638 34.0461 93.7651 33.6763 93.6535 33.3332C93.5419 32.9901 93.3232 32.6919 93.0295 32.4824L90.6796 30.8024L93.5109 30.4686C93.8152 30.4328 94.104 30.3149 94.3463 30.1274C94.5886 29.94 94.7754 29.6901 94.8864 29.4046L96.266 25.8564L97.6455 29.4046C97.7566 29.6901 97.9433 29.94 98.1857 30.1274C98.428 30.3149 98.7168 30.4328 99.021 30.4686L101.854 30.8014L99.5027 32.4814C99.2091 32.6912 98.9904 32.9896 98.8788 33.3328C98.7672 33.676 98.7686 34.046 98.8828 34.3883ZM59.9439 17.8318H59.9423C50.7703 18.1464 46.593 25.0452 46.5921 31.3227C46.5911 37.6002 50.7686 44.5009 60 44.8187C61.7719 44.815 63.5259 44.4624 65.1615 43.7809C66.7972 43.0994 68.2827 42.1024 69.5331 40.8468C70.7834 39.5912 71.7743 38.1016 72.449 36.4631C73.1237 34.8246 73.4691 33.0693 73.4654 31.2973C73.4617 29.5253 73.109 27.7714 72.4275 26.1357C71.746 24.5 70.749 23.0145 69.4935 21.7642C68.2379 20.5138 66.7483 19.523 65.1098 18.8482C63.4713 18.1735 61.7159 17.8282 59.9439 17.8318ZM60.0586 41.4468C53.0857 41.2046 49.965 36.1888 49.9657 31.3218C49.9664 26.4547 53.0859 21.4426 60 21.2038C62.6843 21.196 65.2619 22.2549 67.1655 24.1476C69.0692 26.0402 70.143 28.6116 70.1507 31.296C70.1585 33.9804 69.0996 36.5579 67.2069 38.4615C65.3143 40.3652 62.7429 41.439 60.0586 41.4468ZM54.9389 28.4087C54.7713 28.3986 54.6036 28.424 54.4465 28.483C54.2894 28.5421 54.1465 28.6336 54.0271 28.7516C53.9077 28.8695 53.8145 29.0113 53.7535 29.1676C53.6926 29.324 53.6652 29.4915 53.6732 29.6591C53.6675 29.9907 53.5318 30.3068 53.2954 30.5393C53.0589 30.7719 52.7407 30.9024 52.409 30.9027H52.3868C52.0513 30.8969 51.7318 30.7581 51.4986 30.5169C51.2654 30.2757 51.1376 29.9517 51.1432 29.6162C51.1851 27.1618 53.0836 25.8786 54.9377 25.8786C56.7925 25.8786 58.6919 27.1618 58.7329 29.6162C58.7385 29.9517 58.6106 30.2757 58.3775 30.5169C58.1443 30.7581 57.8248 30.8969 57.4893 30.9027C56.7932 30.8418 56.2143 30.3592 56.2028 29.6591C56.2109 29.4916 56.1836 29.3243 56.1227 29.1681C56.0618 29.0118 55.9687 28.8701 55.8495 28.7522C55.7303 28.6343 55.5876 28.5427 55.4307 28.4836C55.2739 28.4244 55.1063 28.3989 54.9389 28.4087ZM65.0604 25.8775C66.9152 25.8775 68.8143 27.1607 68.8556 29.615C68.8612 29.9505 68.7333 30.2745 68.5001 30.5157C68.2669 30.757 67.9475 30.8957 67.612 30.9015C66.925 30.8406 66.337 30.358 66.3255 29.6579C66.3255 29.3223 66.1922 29.0003 65.9548 28.763C65.7175 28.5256 65.3955 28.3923 65.0599 28.3923C64.7242 28.3923 64.4023 28.5256 64.165 28.763C63.9276 29.0003 63.7943 29.3223 63.7943 29.6579C63.7885 29.9895 63.6528 30.3056 63.4164 30.5382C63.1799 30.7707 62.8617 30.9012 62.53 30.9015H62.5078C62.1723 30.8957 61.8529 30.757 61.6197 30.5157C61.3865 30.2745 61.2586 29.9505 61.2642 29.615C61.3061 27.1607 63.2046 25.8775 65.0585 25.8775H65.0604ZM64.5682 35.957C63.8575 37.9961 62.0653 39.3125 60.0021 39.3125H60C57.9335 39.3109 56.1405 37.993 55.4322 35.9554C55.3304 35.6405 55.356 35.2982 55.5035 35.002C55.651 34.7057 55.9087 34.479 56.2213 34.3705C56.5339 34.2619 56.8767 34.2801 57.176 34.4212C57.4754 34.5623 57.7076 34.815 57.8229 35.1252C57.9611 35.598 58.2473 36.014 58.6394 36.3122C59.0315 36.6105 59.5088 36.7752 60.0014 36.7822H60.003C61.0045 36.7822 61.8182 36.163 62.1806 35.1236C62.231 34.9613 62.3135 34.8109 62.4233 34.6813C62.5331 34.5516 62.6678 34.4454 62.8195 34.3689C62.9712 34.2925 63.1367 34.2473 63.3063 34.2362C63.4758 34.2251 63.6458 34.2482 63.8062 34.3041C63.9666 34.3601 64.114 34.4478 64.2398 34.562C64.3656 34.6761 64.4671 34.8145 64.5383 34.9687C64.6095 35.1229 64.6489 35.2899 64.6542 35.4597C64.6595 35.6295 64.6296 35.7986 64.5682 35.957ZM29.6379 26.2642V23.7043C29.6392 23.1531 29.5304 22.6072 29.318 22.0985C29.1056 21.5898 28.7939 21.1287 28.401 20.742C28.008 20.3554 27.5419 20.0511 27.0299 19.847C26.5179 19.6428 25.9702 19.5429 25.4191 19.5531C24.866 19.5442 24.3167 19.6459 23.8035 19.8525C23.2903 20.059 22.8236 20.366 22.4308 20.7556C22.0381 21.1451 21.7272 21.6093 21.5165 22.1208C21.3058 22.6323 21.1995 23.1807 21.2039 23.7339C21.2034 24.405 20.9365 25.0486 20.4619 25.5232C19.9873 25.9978 19.3438 26.2646 18.6726 26.2651H14.4567C14.0091 26.2651 13.5799 26.4429 13.2634 26.7594C12.947 27.0758 12.7692 27.5051 12.7692 27.9526V41.4468C12.7692 41.8943 12.947 42.3235 13.2634 42.64C13.5799 42.9565 14.0091 43.1343 14.4567 43.1343H26.2643C28.5002 43.1316 30.6439 42.2421 32.225 40.661C33.806 39.0799 34.6954 36.9363 34.698 34.7003V31.3246C34.6966 29.9829 34.163 28.6967 33.2144 27.748C32.2657 26.7993 30.9795 26.2657 29.6379 26.2642ZM17.8303 39.7583H16.1428V29.6378H17.8303V39.7583ZM31.3246 34.6979C31.3232 36.0396 30.7895 37.3258 29.8409 38.2745C28.8922 39.2232 27.6059 39.7568 26.2643 39.7583H21.2039V29.0474C22.2077 28.5749 23.0572 27.8279 23.6542 26.8928C24.2512 25.9576 24.5713 24.8726 24.5775 23.7632C24.5889 23.0729 25.042 22.9279 25.42 22.9279C25.7981 22.9279 26.2525 23.0729 26.2638 23.735V27.9521C26.2638 28.3997 26.4416 28.8289 26.758 29.1454C27.0745 29.4619 27.5037 29.6396 27.9513 29.6396H29.6388C30.0863 29.6396 30.5156 29.8174 30.832 30.1339C31.1485 30.4504 31.3263 30.8796 31.3263 31.3271L31.3246 34.6979Z" fill="#4A443D"/>
<path d="M29.6379 26.2642V23.7043C29.6392 23.1531 29.5304 22.6072 29.318 22.0985C29.1056 21.5898 28.7939 21.1287 28.401 20.742C28.008 20.3554 27.5419 20.0511 27.0299 19.847C26.5179 19.6428 25.9702 19.5429 25.4191 19.5531C24.866 19.5442 24.3167 19.6459 23.8035 19.8525C23.2903 20.059 22.8236 20.366 22.4308 20.7556C22.0381 21.1451 21.7272 21.6093 21.5165 22.1208C21.3058 22.6323 21.1995 23.1807 21.2039 23.7339C21.2034 24.405 20.9365 25.0486 20.4619 25.5232C19.9873 25.9978 19.3438 26.2646 18.6726 26.2651H14.4567C14.0091 26.2651 13.5799 26.4429 13.2634 26.7594C12.947 27.0758 12.7692 27.5051 12.7692 27.9526V41.4468C12.7692 41.8943 12.947 42.3235 13.2634 42.64C13.5799 42.9565 14.0091 43.1343 14.4567 43.1343H26.2643C28.5002 43.1316 30.6439 42.2421 32.225 40.661C33.806 39.0799 34.6954 36.9363 34.698 34.7003V31.3246C34.6966 29.9829 34.163 28.6967 33.2144 27.748C32.2657 26.7993 30.9795 26.2657 29.6379 26.2642ZM17.8303 39.7583H16.1428V29.6378H17.8303V39.7583ZM31.3246 34.6979C31.3232 36.0396 30.7895 37.3258 29.8409 38.2745C28.8922 39.2232 27.6059 39.7568 26.2643 39.7583H21.2039V29.0474C22.2077 28.5749 23.0572 27.8279 23.6542 26.8928C24.2512 25.9576 24.5713 24.8726 24.5775 23.7632C24.5889 23.0729 25.042 22.9279 25.42 22.9279C25.7981 22.9279 26.2525 23.0729 26.2638 23.735V27.9521C26.2638 28.3997 26.4416 28.8289 26.758 29.1454C27.0745 29.4619 27.5037 29.6396 27.9513 29.6396H29.6388C30.0863 29.6396 30.5156 29.8174 30.832 30.1339C31.1485 30.4504 31.3263 30.8796 31.3263 31.3271L31.3246 34.6979Z" fill="#FF5F1F"/>
<path d="M59.9439 17.8318H59.9423C50.7703 18.1464 46.593 25.0452 46.5921 31.3227C46.5911 37.6002 50.7686 44.5009 60 44.8187C61.7719 44.815 63.5259 44.4624 65.1615 43.7809C66.7972 43.0994 68.2827 42.1024 69.5331 40.8468C70.7834 39.5912 71.7743 38.1016 72.449 36.4631C73.1237 34.8246 73.4691 33.0693 73.4654 31.2973C73.4617 29.5253 73.109 27.7714 72.4275 26.1357C71.746 24.5 70.749 23.0145 69.4935 21.7642C68.2379 20.5138 66.7483 19.523 65.1098 18.8482C63.4713 18.1735 61.7159 17.8282 59.9439 17.8318ZM60.0586 41.4468C53.0857 41.2046 49.965 36.1888 49.9657 31.3218C49.9664 26.4547 53.0859 21.4426 60 21.2038C62.6843 21.196 65.2619 22.2549 67.1655 24.1476C69.0692 26.0402 70.143 28.6116 70.1507 31.296C70.1585 33.9804 69.0996 36.5579 67.2069 38.4615C65.3143 40.3652 62.7429 41.439 60.0586 41.4468ZM54.9389 28.4087C54.7713 28.3986 54.6036 28.424 54.4465 28.483C54.2894 28.5421 54.1465 28.6336 54.0271 28.7516C53.9077 28.8695 53.8145 29.0113 53.7535 29.1676C53.6926 29.324 53.6652 29.4915 53.6732 29.6591C53.6675 29.9907 53.5318 30.3068 53.2954 30.5393C53.0589 30.7719 52.7407 30.9024 52.409 30.9027H52.3868C52.0513 30.8969 51.7318 30.7581 51.4986 30.5169C51.2654 30.2757 51.1376 29.9517 51.1432 29.6162C51.1851 27.1618 53.0836 25.8786 54.9377 25.8786C56.7925 25.8786 58.6919 27.1618 58.7329 29.6162C58.7385 29.9517 58.6106 30.2757 58.3775 30.5169C58.1443 30.7581 57.8248 30.8969 57.4893 30.9027C56.7932 30.8418 56.2143 30.3592 56.2028 29.6591C56.2109 29.4916 56.1836 29.3243 56.1227 29.1681C56.0618 29.0118 55.9687 28.8701 55.8495 28.7522C55.7303 28.6343 55.5876 28.5427 55.4307 28.4836C55.2739 28.4244 55.1063 28.3989 54.9389 28.4087ZM65.0604 25.8775C66.9152 25.8775 68.8143 27.1607 68.8556 29.615C68.8612 29.9505 68.7333 30.2745 68.5001 30.5157C68.2669 30.757 67.9475 30.8957 67.612 30.9015C66.925 30.8406 66.337 30.358 66.3255 29.6579C66.3255 29.3223 66.1922 29.0003 65.9548 28.763C65.7175 28.5256 65.3955 28.3923 65.0599 28.3923C64.7242 28.3923 64.4023 28.5256 64.165 28.763C63.9276 29.0003 63.7943 29.3223 63.7943 29.6579C63.7885 29.9895 63.6528 30.3056 63.4164 30.5382C63.1799 30.7707 62.8617 30.9012 62.53 30.9015H62.5078C62.1723 30.8957 61.8529 30.757 61.6197 30.5157C61.3865 30.2745 61.2586 29.9505 61.2642 29.615C61.3061 27.1607 63.2046 25.8775 65.0585 25.8775H65.0604ZM64.5682 35.957C63.8575 37.9961 62.0653 39.3125 60.0021 39.3125H60C57.9335 39.3109 56.1405 37.993 55.4322 35.9554C55.3304 35.6405 55.356 35.2982 55.5035 35.002C55.651 34.7057 55.9087 34.479 56.2213 34.3705C56.5339 34.2619 56.8767 34.2801 57.176 34.4212C57.4754 34.5623 57.7076 34.815 57.8229 35.1252C57.9611 35.598 58.2473 36.014 58.6394 36.3122C59.0315 36.6105 59.5088 36.7752 60.0014 36.7822H60.003C61.0045 36.7822 61.8182 36.163 62.1806 35.1236C62.231 34.9613 62.3135 34.8109 62.4233 34.6813C62.5331 34.5516 62.6678 34.4454 62.8195 34.3689C62.9712 34.2925 63.1367 34.2473 63.3063 34.2362C63.4758 34.2251 63.6458 34.2482 63.8062 34.3041C63.9666 34.3601 64.114 34.4478 64.2398 34.562C64.3656 34.6761 64.4671 34.8145 64.5383 34.9687C64.6095 35.1229 64.6489 35.2899 64.6542 35.4597C64.6595 35.6295 64.6296 35.7986 64.5682 35.957Z" fill="#FF5F1F"/>
<path d="M106.584 27.9625L100.422 27.2375L97.8382 20.5925C97.7148 20.2759 97.4987 20.0039 97.2181 19.8122C96.9376 19.6204 96.6057 19.5178 96.2659 19.5178C95.926 19.5178 95.5942 19.6204 95.3136 19.8122C95.0331 20.0039 94.817 20.2759 94.6936 20.5925L92.1093 27.2375L85.9479 27.9625C85.6101 28.0028 85.2925 28.1443 85.0366 28.3683C84.7806 28.5923 84.5984 28.8885 84.5137 29.2179C84.429 29.5473 84.4458 29.8946 84.562 30.2143C84.6781 30.534 84.8882 30.8111 85.1646 31.0093L90.0546 34.5032L87.918 40.911C87.8127 41.2275 87.8036 41.5681 87.8918 41.8898C87.98 42.2115 88.1615 42.4998 88.4135 42.7184C88.6655 42.937 88.9766 43.076 89.3075 43.1178C89.6384 43.1597 89.9743 43.1025 90.2728 42.9536L96.2655 39.9557L102.258 42.954C102.556 43.103 102.892 43.1601 103.223 43.1183C103.554 43.0764 103.865 42.9374 104.117 42.7189C104.369 42.5003 104.551 42.2119 104.639 41.8903C104.727 41.5686 104.718 41.228 104.613 40.9114L102.476 34.5036L107.367 31.0098C107.644 30.8116 107.854 30.5344 107.97 30.2147C108.086 29.8949 108.103 29.5474 108.019 29.2179C107.934 28.8884 107.752 28.5922 107.495 28.3681C107.239 28.1441 106.922 28.0027 106.584 27.9625ZM98.8828 34.3883L100.125 38.1149L97.0207 36.5614C96.7864 36.4445 96.5281 36.3836 96.2662 36.3836C96.0043 36.3836 95.746 36.4445 95.5118 36.5614L92.4075 38.1149L93.6496 34.3883C93.7638 34.0461 93.7651 33.6763 93.6535 33.3332C93.5419 32.9901 93.3232 32.6919 93.0295 32.4824L90.6796 30.8024L93.5109 30.4686C93.8152 30.4328 94.104 30.3149 94.3463 30.1274C94.5886 29.94 94.7754 29.6901 94.8864 29.4046L96.266 25.8564L97.6455 29.4046C97.7566 29.6901 97.9433 29.94 98.1857 30.1274C98.428 30.3149 98.7168 30.4328 99.021 30.4686L101.854 30.8014L99.5027 32.4814C99.2091 32.6912 98.9904 32.9896 98.8788 33.3328C98.7672 33.676 98.7686 34.046 98.8828 34.3883Z" fill="#FF5F1F"/>
</svg>
