<svg width="168" height="56" viewBox="0 0 168 56" fill="none" xmlns="http://www.w3.org/2000/svg">
<path d="M14.0516 56C13.617 56 13.1824 55.9409 12.7478 55.8228L12.3923 55.6455L11.9775 55.4684L11.3257 55.2912C10.8911 55.2123 10.5355 55.1139 10.2591 54.9958C9.27138 54.3657 8.5208 53.6962 8.00724 52.9873C7.88873 52.751 7.75041 52.5345 7.59247 52.3376C7.47396 52.1407 7.39489 51.9831 7.35545 51.8649L7.11834 51.5697C6.84189 51.0183 6.68375 50.5851 6.64421 50.27C6.64421 49.9944 6.60478 49.7384 6.52581 49.5021L6.4073 48.7342L6.28879 47.8481L6.22954 47.6118C6.30851 47.5331 6.4073 47.4937 6.52581 47.4937L6.99983 47.4346C7.23685 47.4346 7.43442 47.474 7.59247 47.5528L8.185 47.73C8.22454 47.73 8.30351 47.7693 8.42211 47.8481C8.58006 47.9269 8.7381 48.045 8.89604 48.2025C9.17259 48.5176 9.48868 48.8523 9.8442 49.2067C10.1998 49.5612 10.417 49.7581 10.496 49.7975C10.6145 49.7975 10.7529 49.7581 10.9109 49.6794C11.1083 49.6399 11.2467 49.5809 11.3257 49.5021L11.5626 49.384L11.9183 49.2067C12.5503 48.6554 12.9454 48.2616 13.1034 48.0253C13.3403 47.7102 13.538 47.3164 13.696 46.8439C13.854 46.3713 13.9528 45.9381 13.9923 45.5443L14.1108 44.5992C14.1898 44.0478 14.1898 43.7131 14.1108 43.5949C14.0713 43.5949 13.854 43.5753 13.459 43.5359C13.1034 43.4965 12.7478 43.4768 12.3923 43.4768C12.1947 43.4375 11.938 43.4177 11.6219 43.4177C11.5825 43.3784 11.5232 43.3586 11.4441 43.3586C11.4047 43.3586 11.3652 43.3784 11.3257 43.4177C11.1677 43.4177 11.0491 43.398 10.9701 43.3586L10.7923 43.2995H10.3776C10.18 43.2602 9.94298 43.2405 9.66644 43.2405C9.50839 43.2799 9.35035 43.2995 9.19241 43.2995C9.0739 43.2602 8.95529 43.2405 8.83679 43.2405C8.63931 43.2011 8.30351 43.1814 7.82938 43.1814C7.27628 43.1814 6.98012 43.1617 6.94058 43.1224L6.28879 43.0633C6.13065 43.0633 6.01214 43.0633 5.93317 43.0633C5.89374 43.0239 5.8542 43.0043 5.81467 43.0043C5.73569 42.9648 5.55789 42.9452 5.28136 42.9452C4.33323 42.9452 3.70114 42.9058 3.3851 42.827L2.85179 42.7679C2.2197 42.7285 1.66663 42.6301 1.19255 42.4725L0.837013 42.4135C0.718506 42.4135 0.540726 42.2953 0.303692 42.0591C0.303692 41.9803 0.283945 41.8622 0.244429 41.7046C0.204933 41.5472 0.185175 41.3699 0.185175 41.173V40.8186L0.00740554 39.6962C0.00740554 39.3811 0.0666586 39.1842 0.185175 39.1055L0.422209 38.9283C0.659242 38.8101 0.896276 38.7314 1.1333 38.692C1.44934 38.5738 1.80489 38.4754 2.19995 38.3967C2.595 38.2785 2.91104 38.1997 3.14807 38.1604C3.18758 38.1604 3.24684 38.1604 3.32584 38.1604C3.40487 38.1209 3.52337 38.1013 3.68139 38.1013C3.87892 37.9831 4.0567 37.924 4.21471 37.924L4.74804 37.865C4.98506 37.7862 5.24185 37.7468 5.51839 37.7468C6.1899 37.5893 6.70347 37.5105 7.05909 37.5105L7.53321 37.4515C7.57265 37.4515 7.69116 37.4515 7.88873 37.4515C8.08621 37.4121 8.56034 37.3727 9.31091 37.3334C10.3776 37.2545 11.1874 37.2152 11.7405 37.2152C11.9775 37.2152 12.1157 37.2152 12.1553 37.2152C12.2342 37.1758 12.2739 37.1561 12.2739 37.1561C12.3529 37.0774 12.3529 37.038 12.2739 37.038C12.2739 36.9592 12.2145 36.9198 12.096 36.9198C11.938 36.8017 11.859 36.6639 11.859 36.5064V36.3291C11.8195 36.2503 11.7998 36.1519 11.7998 36.0338C11.7998 35.8763 11.78 35.7384 11.7405 35.6202C11.7405 35.4627 11.7009 35.3053 11.6219 35.1477C11.5825 35.1083 11.5626 35.0492 11.5626 34.9705C11.5626 34.8917 11.5429 34.8326 11.5034 34.7932C11.464 34.242 11.4047 33.8481 11.3257 33.6119C11.2862 33.533 11.2665 33.4346 11.2665 33.3165C11.2665 33.1589 11.3454 32.9423 11.5034 32.6667C11.859 32.1941 12.0368 31.9185 12.0368 31.8396C12.0368 31.7609 11.9775 31.7018 11.859 31.6625C11.78 31.6231 11.6417 31.5836 11.4441 31.5443L10.9109 31.3671L10.4367 31.2489C10.1208 31.2095 9.88373 31.1111 9.72569 30.9535L9.48867 29.7131C9.48867 29.595 9.44914 29.4571 9.37017 29.2996C9.33063 29.1421 9.31091 28.9452 9.31091 28.7089C9.31091 28.4332 9.33063 28.2166 9.37017 28.059C9.52821 27.9016 9.78494 27.8031 10.1406 27.7637L10.7923 27.7047C11.2665 27.6259 12.1157 27.5865 13.3403 27.5865L14.0516 27.5274C14.091 27.5274 14.1108 27.488 14.1108 27.4093C14.1108 27.3305 14.0318 27.173 13.8737 26.9367C13.7948 26.9367 13.7552 26.8777 13.7552 26.7595C13.6762 26.6808 13.6367 26.6217 13.6367 26.5823C13.5972 26.5429 13.5182 26.5429 13.3997 26.5823L13.2219 26.6414L13.0442 26.5823L12.6293 26.405C12.1947 26.3263 11.9775 26.2672 11.9775 26.2278C11.8985 26.0703 11.7998 25.5584 11.6812 24.692C11.6022 23.7863 11.5429 22.7426 11.5034 21.5612C11.5034 20.9311 11.464 20.616 11.385 20.616C11.385 20.616 11.2665 20.6948 11.0294 20.8523C10.5552 21.2461 10.2393 21.5218 10.0813 21.6793L9.78494 21.9156L9.54793 22.1519C9.50839 22.1913 9.44914 22.2503 9.37017 22.3292C9.2911 22.3685 9.21213 22.4079 9.13315 22.4472C8.81707 22.6048 8.58006 22.7623 8.42211 22.9198C8.26397 22.9593 8.12575 23.0773 8.00724 23.2743C7.92827 23.3924 7.53321 23.6287 6.82207 23.9832L6.34805 24.2195C6.26907 24.3375 6.01214 24.4951 5.57764 24.692C5.53815 24.692 5.41962 24.7314 5.2221 24.8101C5.06408 24.8889 4.90606 24.9874 4.74804 25.1055C4.07645 25.4993 3.48387 25.6962 2.9703 25.6962C2.85179 25.6962 2.73326 25.6766 2.61475 25.6371C2.53574 25.5977 2.47649 25.519 2.43697 25.4008C2.27895 25.0465 2.10118 24.8692 1.90365 24.8692C1.82464 24.7905 1.68638 24.7511 1.48885 24.7511L1.01478 24.6329C0.777759 24.6329 0.659242 24.5936 0.659242 24.5148C0.659242 24.4754 0.659242 24.436 0.659242 24.3966C0.698738 24.3179 0.718506 24.2195 0.718506 24.1013L0.837013 23.6287L0.896276 23.038C0.896276 22.9986 0.896276 22.9198 0.896276 22.8017C0.935782 22.6835 0.935782 22.6048 0.896276 22.5654C0.896276 22.4079 0.916024 22.2701 0.955529 22.1519C0.995035 22.0732 1.01478 21.955 1.01478 21.7975C1.01478 21.64 1.0543 21.5021 1.1333 21.384L1.19255 20.9114C1.15306 20.872 1.1333 20.8327 1.1333 20.7932C1.1333 20.7539 1.0938 20.7145 1.01478 20.6751C1.01478 20.6358 1.03455 20.5963 1.07405 20.5569C1.11355 20.5176 1.19255 20.4782 1.31108 20.4389C1.5086 20.2026 1.78514 20.045 2.14069 19.9662C2.18019 19.9268 2.2592 19.8678 2.37772 19.789C2.49624 19.7103 2.595 19.6709 2.67401 19.6709L3.20733 19.4937L3.50362 19.4346C3.58264 19.3558 3.70114 19.2771 3.85916 19.1983C3.93818 19.1983 4.01719 19.1787 4.0962 19.1393C4.17521 19.0998 4.25422 19.0605 4.33323 19.0211L4.74804 18.8439C5.10359 18.7257 5.32087 18.647 5.39987 18.6076C5.67641 18.4895 5.87392 18.391 5.99243 18.3123C6.15047 18.1941 6.24926 18.135 6.28879 18.135C6.4073 18.135 6.50599 18.0956 6.58506 18.0169C6.6245 17.9381 6.82207 17.82 7.17759 17.6625C7.53321 17.5049 7.80966 17.3868 8.00724 17.308L8.48137 17.1308C8.87632 16.9339 9.0739 16.8158 9.0739 16.7763C9.0739 16.6976 8.48137 16.6583 7.2961 16.6583C6.46655 16.6583 6.03196 16.6385 5.99243 16.5992H5.69616L3.85916 16.481L2.49624 16.422L1.66663 16.3629C1.58762 16.3629 1.54811 16.3235 1.54811 16.2447C1.4296 16.0478 1.15306 15.91 0.718506 15.8312C0.32345 15.7131 0.106174 15.6146 0.0666587 15.5359C0.0271531 15.5359 0.00740554 15.339 0.00740554 14.9451L0.0666587 14.1772V13.7638V13.5275C0.0666587 13.0942 0.0864167 12.7989 0.125922 12.6414L0.0666587 12.2869C-0.0518481 12.09 -0.0123426 11.9522 0.185175 11.8735C0.580231 11.6765 0.817265 11.5781 0.896276 11.5781L1.31108 11.519C1.78514 11.3615 2.06168 11.2827 2.14069 11.2827L2.61475 11.2236L3.26659 11.1645C3.3456 11.1252 3.44436 11.1055 3.56289 11.1055C3.68139 11.1055 3.78016 11.0858 3.85916 11.0464H4.33323L4.51101 10.9874L5.57764 10.7511L6.05168 10.692C6.20972 10.5739 6.64421 10.4951 7.35545 10.4557C7.6319 10.4557 7.88873 10.4163 8.12575 10.3375C8.48137 10.2588 9.03437 10.1997 9.78494 10.1603C9.90345 10.121 10.0615 10.1013 10.2591 10.1013C10.338 10.0619 10.5948 10.0423 11.0294 10.0423C11.1479 10.0028 11.2467 9.98318 11.3257 9.98318C11.4441 9.94376 11.5232 9.90434 11.5626 9.86502C11.7602 9.74686 11.859 9.45147 11.859 8.97895C11.859 8.54574 11.8195 8.32909 11.7405 8.32909C11.5825 8.32909 11.464 8.34885 11.385 8.38817L9.90345 8.50633C9.66643 8.50633 9.50839 8.52609 9.42942 8.5654H8.95529L8.30351 8.50633H8.00724C7.61219 8.50633 7.17759 8.42759 6.70347 8.27001C6.66403 8.2307 6.50599 8.17162 6.22954 8.09288C6.11093 8.09288 5.93317 8.05346 5.69616 7.97472C5.45914 7.65968 4.96531 7.36429 4.21471 7.08865C3.85916 6.81292 3.68139 6.65545 3.68139 6.61603L3.74066 6.4388L3.79991 5.9072L3.85916 5.55273C3.93818 5.47399 3.97768 5.2771 3.97768 4.96205L4.03693 4.31229C4.07645 4.27287 4.0962 4.2138 4.0962 4.13506L4.15545 3.83967C4.27398 3.76093 4.33323 3.60336 4.33323 3.36714C4.33323 3.17015 4.37274 3.0521 4.45175 3.01268C4.57026 2.89452 4.76779 2.81578 5.04433 2.77636C5.28136 2.77636 5.41962 2.7567 5.45914 2.71729L6.11093 2.54015L6.4073 2.422C6.80235 2.34316 7.25657 2.30384 7.77013 2.30384C7.8492 2.26442 7.98752 2.24476 8.185 2.24476C8.22454 2.16603 8.30351 2.12661 8.42211 2.12661H8.65903C8.97511 2.04787 9.2911 2.00845 9.60718 2.00845C9.92317 1.92971 10.1406 1.85098 10.2591 1.77214L10.6738 1.65398C10.8713 1.65398 10.9701 1.63432 10.9701 1.59491L11.6219 1.35869L12.1553 1.29962C12.1947 1.2602 12.4121 1.20112 12.8071 1.12238L13.459 0.945147C13.538 0.905829 13.6762 0.88607 13.8737 0.88607C14.0318 0.88607 14.407 0.807332 14.9996 0.649858L15.5923 0.531703C15.7108 0.531703 15.7898 0.511942 15.8293 0.472624C15.9083 0.433205 15.9872 0.413546 16.0663 0.413546C16.6985 0.255971 17.0539 0.177234 17.1329 0.177234C17.212 0.137815 17.3107 0.118157 17.4292 0.118157C17.5477 0.118157 17.6662 0.0984964 17.7848 0.0590775L18.6736 0H19.1477C19.5033 0 19.9971 0.177235 20.6292 0.531703C20.7477 0.531703 20.8662 0.59078 20.9846 0.708835C21.1032 0.826992 21.281 0.945148 21.518 1.0633L22.0513 1.41777L22.1105 1.71306C22.3081 1.83122 22.3081 1.94937 22.1105 2.06753C22.0711 2.18568 22.0513 2.34316 22.0513 2.54015C22.0513 2.73705 22.0316 2.87486 21.992 2.9536C21.8735 3.18991 21.8143 3.36714 21.8143 3.4852C21.8143 3.56404 21.7946 3.64277 21.7551 3.72151C21.7156 3.80035 21.6761 3.87909 21.6366 3.95782C21.597 4.07598 21.5574 4.19414 21.518 4.31229C21.518 4.39103 21.4983 4.45011 21.4588 4.48942L21.3402 4.96205C21.3007 5.0802 21.0439 5.37549 20.57 5.84812C20.4909 5.88754 20.4118 5.96627 20.3328 6.08443L19.6811 6.32074L19.3847 6.49787C19.1082 6.65545 18.4564 6.872 17.4292 7.14773C17.3107 7.14773 17.1724 7.18705 17.0145 7.26579L16.6589 7.38394L16.0663 7.5021C15.9478 7.5021 15.8096 7.54152 15.6515 7.62026C15.3354 7.65967 15.138 7.71875 15.059 7.79749L15.1182 8.27001L15.2959 9.45147C15.2959 9.60905 15.3354 9.68778 15.4144 9.68778C15.4144 9.7272 15.8293 9.74686 16.6589 9.74686C17.0145 9.74686 17.37 9.76652 17.7255 9.80594C18.1206 9.84526 18.4762 9.86502 18.7922 9.86502C18.9897 9.86502 19.2069 9.88468 19.444 9.9241C19.6811 9.9241 19.8983 9.90434 20.0958 9.86502C20.5304 9.86502 21.0638 9.88468 21.6959 9.9241C22.3279 9.96341 22.6636 10.0028 22.7033 10.0423C22.8612 10.0816 23.434 10.1406 24.4217 10.2194C25.2908 10.2588 25.7648 10.2982 25.8438 10.3375L26.3179 10.4557C26.634 10.5344 26.8118 10.6329 26.8512 10.7511L27.029 10.9283C27.108 10.9283 27.187 10.948 27.2661 10.9874C27.3451 11.0267 27.424 11.0661 27.503 11.1055C27.7007 11.1843 27.8192 11.2827 27.8586 11.4008C27.9376 11.519 27.9968 11.7946 28.0364 12.2278C28.0364 12.8186 27.9376 13.2715 27.7401 13.5865L27.6809 14.1181C27.6809 14.3939 27.6413 14.571 27.5623 14.6498L27.3253 14.9451C27.1673 15.2209 26.9302 15.3783 26.6142 15.4177L26.1402 15.6541C25.7451 15.8115 25.4092 15.8903 25.1328 15.8903L24.8364 15.9493C24.7179 16.0282 24.2439 16.1266 23.4143 16.2447L22.8809 16.3038L22.3477 16.3629L21.6959 16.422C21.5377 16.4613 21.0835 16.481 20.3328 16.481C19.9773 16.4416 19.5823 16.422 19.1477 16.422C18.7526 16.422 18.3971 16.4613 18.081 16.5401L17.7255 16.5992L17.607 16.6583C17.607 16.737 17.9231 16.8552 18.5551 17.0127L19.3254 17.1899C19.6021 17.2686 19.9576 17.3277 20.3921 17.3671C20.7477 17.4853 20.9649 17.5444 21.0439 17.5444L21.518 17.6625C21.7156 17.6625 21.8538 17.6822 21.9328 17.7215L22.6439 17.8396C23.039 17.8396 23.2958 17.8987 23.4143 18.0169C24.1254 18.0956 24.5402 18.2138 24.6587 18.3713L24.8957 18.4304L26.1402 18.9029L26.4364 19.0802L26.8512 19.3165C26.9302 19.4346 27.0093 19.533 27.0882 19.6118C27.2068 19.6906 27.3253 19.7694 27.4438 19.8481C27.7994 20.1238 27.9968 20.3995 28.0364 20.6751C28.0759 20.872 28.0956 21.1477 28.0956 21.5021C28.0956 21.8171 28.0759 22.0732 28.0364 22.2701L27.9771 22.5654C27.9771 22.723 27.9376 22.8411 27.8586 22.9198L27.7994 23.2152C27.7994 23.3727 27.7796 23.4909 27.7401 23.5696C27.6215 23.7272 27.5623 23.9437 27.5623 24.2195C27.5623 24.4951 27.424 24.7511 27.1476 24.9874C26.9105 25.3417 26.634 25.5781 26.3179 25.6962C26.1205 25.8538 25.9031 25.9325 25.666 25.9325H25.3698C25.0143 25.9325 24.7179 25.8734 24.481 25.7553C24.2834 25.7553 24.1056 25.7159 23.9476 25.6371C23.4736 25.5977 23.0587 25.4797 22.7033 25.2827C22.3081 25.007 21.9328 24.8101 21.5773 24.692L21.2217 24.5148C21.1032 24.3966 21.0044 24.3375 20.9254 24.3375C20.8859 24.2195 20.7872 24.1604 20.6292 24.1604C20.5107 24.0422 20.3526 23.9635 20.1551 23.9241L19.6218 23.6878L19.1477 23.3334L18.7329 23.038C18.5354 22.8411 18.2588 22.6835 17.9034 22.5654C17.6662 22.4472 17.2515 22.1519 16.6589 21.6793C16.2639 21.3249 16.0465 21.1674 16.007 21.2068C15.9675 21.3643 15.9675 21.6597 16.007 22.0929C16.0465 22.1716 16.0465 22.2503 16.007 22.3292C16.007 22.4079 16.007 22.4866 16.007 22.5654L15.9478 23.5105C15.8687 24.3375 15.8096 24.8101 15.77 24.9283C15.6911 25.007 15.6515 25.1252 15.6515 25.2827C15.6515 25.4008 15.612 25.5386 15.5329 25.6962L15.4737 26.1687C15.3947 26.6414 15.2762 26.9564 15.1182 27.114C14.9601 27.1927 14.8811 27.3109 14.8811 27.4684C14.8022 27.5471 14.8022 27.5865 14.8811 27.5865L15.1775 27.6456C15.4934 27.7243 15.849 27.8425 16.2441 28.0001C16.6787 28.1181 17.0145 28.2363 17.2515 28.3544C17.3305 28.3938 17.4292 28.5513 17.5477 28.827C17.6662 29.0633 17.7452 29.2799 17.7848 29.4768C17.7848 29.6344 17.8046 29.7524 17.8441 29.8313C17.9231 30.1463 17.9626 30.7567 17.9626 31.6625C17.9626 32.1744 17.9231 32.5091 17.8441 32.6667L17.7848 32.962C17.7848 33.0014 17.6662 33.1983 17.4292 33.5528L17.1921 33.8481L16.7182 34.4979C16.4416 34.7341 16.2639 34.9114 16.1848 35.0295C16.1057 35.1477 16.1454 35.2658 16.3033 35.384C16.6589 35.7384 16.9157 36.211 17.0737 36.8017C17.1131 36.8804 17.1724 36.9395 17.2515 36.9789C17.37 37.0183 17.6662 37.038 18.1403 37.038C18.6144 37.038 19.2859 37.038 20.1551 37.038L24.7179 37.0971C24.7574 37.1365 24.8759 37.1561 25.0735 37.1561L26.555 37.2152C27.3055 37.3334 27.7401 37.4121 27.8586 37.4515C27.9771 37.4515 28.1944 37.4908 28.5104 37.5696C28.7475 37.6484 28.9056 37.7272 28.9845 37.8059C28.9845 37.8059 29.1623 37.865 29.5178 37.9831C30.1894 38.2982 30.545 38.4951 30.5845 38.5738C30.7425 38.7314 30.8215 38.9677 30.8215 39.2827C30.8215 39.4796 30.8412 39.6175 30.8807 39.6962C30.9203 39.7749 30.94 40.1097 30.94 40.7004C30.94 41.2124 30.9203 41.5274 30.8807 41.6456C30.8412 41.8425 30.8412 42.0984 30.8807 42.4135L30.94 42.6498C30.94 42.8074 30.861 42.9648 30.703 43.1224C30.5055 43.5162 30.3475 43.7327 30.229 43.7722L29.7548 43.8312C29.5969 43.8706 29.3402 43.8903 28.9845 43.8903C28.866 43.9296 28.5302 43.9494 27.9771 43.9494C27.4636 43.8706 27.0882 43.8706 26.8512 43.9494C25.429 44.0281 24.1846 44.0478 23.118 44.0085H22.4069C21.2217 44.0085 20.6094 43.9887 20.57 43.9494L18.6736 43.8903H18.081L17.9626 44.0085C17.9626 44.1266 18.002 44.2447 18.081 44.3628C18.081 44.5597 18.1008 45.0324 18.1403 45.7806C18.1798 46.4895 18.2193 47.3755 18.2588 48.4388C18.2588 49.5414 18.1995 50.3882 18.081 50.9789L17.9626 51.5106C17.9231 51.7862 17.8243 52.1209 17.6662 52.5148C17.5082 52.948 17.3503 53.3418 17.1921 53.6962C16.9157 54.3657 16.5008 54.8185 15.9478 55.0549L15.5923 55.3502L15.1775 55.7637C14.7823 55.9213 14.407 56 14.0516 56ZM55.4419 51.038C55.2444 50.9986 55.047 50.8805 54.8494 50.6836C54.5334 50.526 54.2173 50.4473 53.9013 50.4473C53.6248 50.4473 53.4075 50.4669 53.2494 50.5064H52.7754C52.5383 50.5064 52.3408 50.4669 52.1828 50.3882C52.0643 50.3488 51.9261 50.2504 51.768 50.0928C51.2149 49.699 50.8001 49.2067 50.5236 48.6161C50.326 48.2222 50.0298 47.5331 49.6347 46.5485L49.3384 45.9578L49.2199 45.8988C49.1014 45.8988 48.9632 46.0366 48.805 46.3122C48.7261 46.4698 48.6668 46.5485 48.6274 46.5485L48.2125 47.0801L46.4348 48.7342L46.3163 48.8523C46.3163 48.9311 46.2373 49.0098 46.0792 49.0886L45.783 49.443L45.3682 49.7384L45.1311 49.8565L44.9533 49.9746L44.7164 50.0928C44.5583 50.2504 44.3212 50.2897 44.0052 50.211C43.9262 50.1322 43.8076 50.0731 43.6497 50.0337C43.4917 49.9944 43.3731 49.9746 43.2941 49.9746C43.2546 49.9746 43.2151 49.9746 43.1756 49.9746C43.1361 50.0141 43.0769 50.0337 42.9978 50.0337C42.9188 50.0731 42.7608 50.0928 42.5238 50.0928L42.1089 49.9746C42.0299 49.8565 41.9114 49.6596 41.7534 49.384C41.6349 49.1477 41.5756 48.9704 41.5756 48.8523L41.4571 48.4388L41.3386 47.9662L41.2201 47.6709C41.1806 47.5921 41.1213 47.5331 41.0424 47.4937C41.0028 47.4149 40.9831 47.3559 40.9831 47.3164L40.6275 46.135C40.5485 46.0169 40.4497 45.7412 40.3312 45.308C40.2522 44.5992 40.2127 43.8312 40.2127 43.0043V42.4725C40.2127 41.7243 40.2325 41.2714 40.272 41.114L40.3312 40.346V39.578C40.4497 39.3811 40.509 39.0858 40.509 38.692C40.509 38.3376 40.5287 37.9635 40.5682 37.5696C40.6078 37.1365 40.6472 36.8017 40.6868 36.5655C40.7264 36.4866 40.7461 36.2701 40.7461 35.9156V35.3249C40.7855 35.1673 40.8053 34.9901 40.8053 34.7932C40.8053 34.557 40.8251 34.3404 40.8646 34.1435C40.8646 33.6315 40.904 33.1787 40.9831 32.7849V32.0759C40.9436 32.0366 40.9238 31.9972 40.9238 31.9578C40.9633 31.9185 40.9831 31.879 40.9831 31.8396C41.1015 31.7216 41.1608 31.052 41.1608 29.8313L41.2201 29.3586C41.2596 29.2012 41.2794 29.0239 41.2794 28.827C41.2399 28.7482 41.2201 28.6301 41.2201 28.4726C41.2201 27.7637 41.2597 27.2518 41.3386 26.9367C41.3386 26.5823 41.3584 26.3066 41.3979 26.1098L41.4571 25.2827C41.4571 24.9676 41.4768 24.8101 41.5164 24.8101L41.5756 24.1604C41.6546 23.6483 41.6941 23.3924 41.6941 23.3924V22.7426C41.6941 22.5457 41.7139 22.4079 41.7534 22.3292C41.7929 22.211 41.8127 22.1322 41.8127 22.0929L41.872 21.6202L41.9313 21.1477L41.872 20.9114L41.6941 20.5569L41.6349 20.2616L41.5756 19.8481C41.6152 19.6512 42.0892 19.4543 42.9978 19.2574L43.4127 19.1983L43.6497 19.1393H43.9459C44.3015 19.0605 44.6176 19.0014 44.894 18.962C45.1707 18.9227 45.4471 18.8833 45.7238 18.8439C46.0002 18.8045 46.2768 18.7651 46.5533 18.7257L46.9681 18.6666C46.9681 18.6273 47.2051 18.6076 47.6792 18.6076C47.8768 18.5682 48.094 18.5486 48.331 18.5486C48.5681 18.5486 48.7853 18.5288 48.9829 18.4895C49.8915 18.4107 50.7804 18.4304 51.6495 18.5486L52.2421 18.6666L52.7161 18.9029C52.9927 18.9424 53.2692 19.0408 53.5457 19.1983C53.7432 19.2771 53.8618 19.3756 53.9013 19.4937C53.9803 19.6512 54.0198 19.8284 54.0198 20.0253L54.1383 20.616C54.2569 20.9705 54.3161 21.4628 54.3161 22.0929C54.2766 22.4079 54.2766 22.5851 54.3161 22.6245C54.3555 22.6639 54.3753 22.782 54.3753 22.9789C54.4149 23.0182 54.4346 23.0773 54.4346 23.1562C54.4346 23.2349 54.3555 23.4909 54.1976 23.9241C54.1185 24.1604 54.0791 24.7116 54.0791 25.5781C54.0791 26.7201 54.0988 27.7243 54.1383 28.5907C54.1778 29.0633 54.1976 29.8509 54.1976 30.9535V31.8987C54.237 31.9381 54.237 32.3319 54.1976 33.0802C54.1581 33.8284 54.1383 34.2813 54.1383 34.4388C54.0988 34.6357 54.0198 34.8721 53.9013 35.1477C53.7827 35.384 53.6642 35.5415 53.5457 35.6202C53.4667 35.699 53.3681 35.7187 53.2494 35.6793H52.7754C52.6568 35.6793 52.5581 35.64 52.4791 35.5612C52.2816 35.5218 52.1235 35.5415 52.005 35.6202L51.7088 35.7384C51.4717 35.8172 51.3334 35.8763 51.294 35.9156C51.2545 35.955 51.1359 35.9747 50.9384 35.9747L50.7014 36.0338L50.4643 36.0928C50.3853 36.0928 50.326 36.1125 50.2866 36.1519C50.247 36.1913 50.2076 36.211 50.1681 36.211L50.0496 36.2701H49.931C49.3384 36.2701 48.9829 36.3291 48.8643 36.4473C48.5879 36.5655 48.2718 36.6244 47.9162 36.6244C47.7582 36.7033 47.6002 36.7426 47.4422 36.7426C47.4027 36.782 46.8891 36.8017 45.9014 36.8017C45.8225 36.8411 45.7238 36.8607 45.6053 36.8607C45.5261 36.8214 45.4471 36.8017 45.3682 36.8017L45.0125 36.7426L44.9533 36.8607L44.894 38.2785C44.894 39.6174 44.8743 40.602 44.8349 41.2321C44.7953 41.7834 44.7953 42.0984 44.8349 42.1773C44.8743 42.2166 45.0125 42.1575 45.2496 42C45.3682 41.9606 45.4669 41.9015 45.5459 41.8228C45.625 41.7441 45.7238 41.685 45.8422 41.6456L46.1978 41.3502C46.2768 41.3108 46.336 41.2714 46.3756 41.2321C46.4545 41.1533 46.5335 41.0745 46.6126 40.9958L46.9088 40.7004C46.9484 40.7004 47.0273 40.5823 47.1459 40.346L47.2645 39.9325C47.2645 39.7356 47.2248 39.4993 47.1459 39.2237C47.1063 38.9086 47.1063 38.692 47.1459 38.5738C47.1854 38.5345 47.2051 38.4951 47.2051 38.4558C47.2051 38.3769 47.2248 38.3178 47.2645 38.2785C47.2645 38.1604 47.304 38.0422 47.383 37.924C47.4619 37.7666 47.5212 37.6877 47.5607 37.6877C47.7187 37.609 47.9162 37.5696 48.1533 37.5696C48.3904 37.5696 48.6471 37.609 48.9237 37.6877C49.2002 37.7272 49.4371 37.7862 49.6347 37.865C49.8323 37.9044 50.01 38.0422 50.1681 38.2785C50.326 38.5147 50.5038 38.8495 50.7014 39.2827L51.1162 39.8143C51.3137 40.1688 51.5112 40.5429 51.7088 40.9367C51.9062 41.2911 52.0643 41.5865 52.1828 41.8228C52.4593 42.256 52.7951 42.7089 53.1902 43.1814C53.5853 43.654 53.9211 44.0478 54.1976 44.3628L55.0272 44.7764C55.1458 44.8157 55.2643 44.9142 55.3827 45.0717C55.5013 45.2293 55.5605 45.3671 55.5605 45.4852C55.5605 45.6034 55.679 45.8594 55.9161 46.2531C55.995 46.3713 56.0346 46.4895 56.0346 46.6076C56.0346 46.8439 56.0544 47.0014 56.0939 47.0801C56.2914 47.3559 56.3901 47.73 56.3901 48.2025C56.3901 48.4782 56.4691 48.7342 56.6272 48.9704L56.7457 49.2067L56.6864 49.7384C56.6075 50.0928 56.4889 50.3488 56.3308 50.5064C56.2124 50.7032 56.1333 50.8214 56.0939 50.8607C55.9358 50.9789 55.7186 51.038 55.4419 51.038ZM40.8646 10.3375C40.8646 10.1013 40.8843 9.8256 40.9238 9.51055C41.0028 9.15608 41.1015 8.91987 41.2201 8.80172C41.2992 8.52608 41.3584 8.28977 41.3979 8.09288C41.3979 7.89589 41.4374 7.67933 41.5164 7.44302C41.5954 7.12797 41.6349 6.91142 41.6349 6.79327C41.6744 6.59637 41.7732 6.28132 41.9313 5.84812C42.0102 5.72996 42.0497 5.57249 42.0497 5.37549C42.0497 5.02113 42.1287 4.56826 42.2867 4.0169C42.3657 3.85933 42.4053 3.70185 42.4053 3.54428C42.3657 3.46554 42.3856 3.34738 42.4645 3.18991L42.5238 2.65821L42.583 2.36292L42.6423 2.00845C42.6423 1.57525 42.662 1.29962 42.7015 1.18146C42.8201 0.945147 42.8794 0.748255 42.8794 0.590781C42.8794 0.472625 42.8991 0.374126 42.9387 0.295389C42.9781 0.177233 43.0374 0.0984964 43.1163 0.0590775C43.3929 0.0590775 43.6299 0.0787379 43.8275 0.118157C44.0645 0.157576 44.3212 0.255971 44.5979 0.413546C44.8743 0.531702 45.1311 0.669516 45.3682 0.82699L45.783 1.24054C45.941 1.63432 46.1187 2.38258 46.3163 3.4852L46.3756 3.66243C46.4545 3.74127 46.5533 3.76093 46.6718 3.72151C46.7509 3.72151 47.0472 3.64277 47.5607 3.4852L48.5089 3.18991C48.5879 3.18991 48.6471 3.17015 48.6865 3.13083C48.7261 3.09141 48.7853 3.07175 48.8643 3.07175C48.9829 3.07175 49.0619 3.0521 49.1014 3.01268C49.1804 3.01268 49.2792 2.99302 49.3977 2.9536C49.5163 2.91418 49.6742 2.89452 49.8717 2.89452C50.1088 2.77636 50.4445 2.71729 50.8791 2.71729C51.5507 2.71729 51.9853 2.79612 52.1828 2.9536C52.2223 2.99302 52.2816 3.03233 52.3606 3.07175C52.4396 3.07175 52.5186 3.11117 52.5976 3.18991L53.1902 3.4852C53.3482 3.56404 53.447 3.64277 53.4865 3.72151C53.5655 3.80035 53.605 3.9184 53.605 4.07598C53.605 4.39103 53.6642 4.60758 53.7827 4.72574C53.7827 4.80447 53.8024 4.90297 53.8421 5.02113C53.8816 5.09986 53.8618 5.1786 53.7827 5.25744C53.7038 5.41491 53.6445 5.59215 53.605 5.78904C53.605 5.94662 53.6248 6.08443 53.6642 6.20259C53.7038 6.24191 53.7235 6.30098 53.7235 6.37972C53.7235 6.41914 53.7038 6.47822 53.6642 6.55695C53.6248 6.67511 53.5655 6.73419 53.4865 6.73419C53.4075 6.73419 53.3482 6.81292 53.3088 6.9705L53.2494 7.08865C53.2494 7.16739 53.2889 7.20681 53.3681 7.20681C53.447 7.20681 53.5063 7.16739 53.5457 7.08865L53.605 6.9705V7.56118L53.0717 7.97472C52.9532 7.97472 52.7557 8.11254 52.4791 8.38817C52.4396 8.42759 52.3606 8.46701 52.2421 8.50633C52.163 8.54574 52.0643 8.5654 51.9458 8.5654C51.8273 8.5654 51.7483 8.58506 51.7088 8.62448C51.6297 8.6639 51.5507 8.72298 51.4717 8.80172C51.3927 8.84103 51.3532 8.88045 51.3532 8.91987C51.3532 8.95919 51.4125 9.05769 51.5309 9.21516C51.6494 9.33332 51.8075 9.54997 52.005 9.86502C52.4001 10.2588 52.5976 10.4557 52.5976 10.4557C52.6371 10.4951 52.6963 10.5542 52.7754 10.6329C52.8544 10.7117 52.9136 10.8102 52.9532 10.9283C52.9927 10.9676 53.0717 11.0858 53.1902 11.2827C53.2692 11.4008 53.3088 11.5781 53.3088 11.8144C53.2692 11.8931 53.2889 12.0309 53.3681 12.2278C53.4075 12.3066 53.4272 12.5429 53.4272 12.9367C53.4272 13.488 53.4075 13.8031 53.3681 13.8819C53.3285 14.0788 53.3482 14.315 53.4272 14.5908V15.0633C53.3482 15.2996 53.2692 15.4177 53.1902 15.4177L53.0124 15.5359C52.9335 15.5752 52.7951 15.595 52.5976 15.595C52.4396 15.595 52.2223 15.5161 51.9458 15.3587L51.294 15.1224C50.9779 15.0436 50.7212 14.9649 50.5236 14.886C50.326 14.768 50.0891 14.5908 49.8125 14.3544C49.4174 14.1576 48.8841 13.7243 48.2125 13.0548L47.7384 12.5823L47.4422 12.1097L46.7312 11.2236L46.4348 10.6329C46.3163 10.3573 46.2373 10.2194 46.1978 10.2194C46.1978 10.2194 46.1781 10.2391 46.1384 10.2785C46.099 10.3179 46.0595 10.3966 46.0199 10.5148C46.0199 10.948 45.9014 11.519 45.6645 12.2278L45.6053 12.6414C45.6053 12.7595 45.5853 12.8974 45.5459 13.0548C45.5064 13.173 45.4669 13.2715 45.4274 13.3502L45.3089 13.8819C45.0719 14.6301 44.8743 15.1224 44.7164 15.3587C44.6768 15.4374 44.499 15.5752 44.183 15.7722L43.8275 15.8903L43.4127 15.5359C43.2151 15.3783 43.0769 15.2799 42.9978 15.2405C42.9188 15.1618 42.8002 15.1618 42.6423 15.2405C42.5238 15.2799 42.425 15.2799 42.346 15.2405C42.267 15.2011 42.1682 15.1814 42.0497 15.1814L41.6941 15.2405C41.5361 15.2405 41.4374 15.2011 41.3979 15.1224C41.3979 15.0042 41.3979 14.7876 41.3979 14.4726C41.3979 13.488 41.3584 12.917 41.2794 12.7595C41.2399 12.6807 41.2201 12.5823 41.2201 12.4641C41.2201 12.3066 41.2003 12.1688 41.1608 12.0506C41.1213 11.6175 41.0818 11.3024 41.0424 11.1055C41.0424 10.8692 41.0225 10.7314 40.9831 10.692C40.904 10.6133 40.8646 10.4951 40.8646 10.3375ZM44.3607 23.6878C44.3607 23.9241 44.42 24.1406 44.5386 24.3375L44.6571 25.2237C44.6965 25.3024 44.7164 25.3812 44.7164 25.4599C44.7164 25.5386 44.7361 25.5977 44.7756 25.6371H44.894C45.1311 25.6371 45.3089 25.6175 45.4274 25.5781C45.5064 25.5781 45.6053 25.5584 45.7238 25.519C45.8422 25.4797 45.941 25.4599 46.0199 25.4599C46.2966 25.4599 46.4742 25.4402 46.5533 25.4008L48.2125 25.2827L49.3977 25.2237C49.5557 25.1843 49.773 25.1646 50.0496 25.1646C50.1681 25.1646 50.247 25.1449 50.2866 25.1055C50.326 25.0267 50.3458 24.9085 50.3458 24.7511V24.5148C50.3458 24.1997 50.3063 23.9635 50.2273 23.8059C50.1484 23.7272 50.0496 23.6681 49.931 23.6287C49.852 23.5894 49.7335 23.5696 49.5755 23.5696H47.2645C46.8299 23.5696 46.3953 23.5894 45.9607 23.6287C45.5656 23.6287 45.2299 23.609 44.9533 23.5696C44.8743 23.5303 44.7558 23.5105 44.5979 23.5105C44.5189 23.5105 44.4595 23.5303 44.42 23.5696C44.3805 23.5696 44.3607 23.609 44.3607 23.6878ZM44.894 29.4768C44.894 30.5007 44.9138 31.0324 44.9533 31.0717L45.0719 31.1308L45.783 31.0717L46.7312 31.0126L47.3237 30.9535L47.9162 30.8946L49.1607 30.7173L49.8125 30.6583L50.0496 30.5992C50.1285 30.5598 50.1681 30.4023 50.1681 30.1266C50.1681 29.8509 50.1484 29.6934 50.1088 29.654C50.0693 29.5753 49.8915 29.5753 49.5755 29.654C49.536 29.654 49.1607 29.6934 48.4496 29.7722H47.383H47.1459C46.8299 29.7722 46.5138 29.7524 46.1978 29.7131C45.9212 29.6737 45.704 29.6344 45.5459 29.595L45.2496 29.5359C45.0917 29.3783 44.9731 29.3586 44.894 29.4768ZM58.227 9.68778C58.3062 9.21516 58.3852 8.86079 58.4641 8.62448L58.6419 7.85657L58.7012 7.5021C58.7012 7.34463 58.7407 7.18705 58.8198 7.02958L58.879 6.49787C58.9185 6.30098 58.958 6.12375 58.9975 5.96627C59.0765 5.76938 59.1159 5.59215 59.1159 5.43457L59.1752 4.90297L59.2937 4.31229L59.4716 3.36714C59.5111 3.28831 59.5308 3.09141 59.5308 2.77636C59.5308 2.65821 59.6098 2.48108 59.7678 2.24476C59.8073 2.08719 59.8468 1.96903 59.8864 1.89029C59.9654 1.81156 60.0247 1.75248 60.0641 1.71306C60.1432 1.71306 60.2024 1.6934 60.2418 1.65398C60.2418 1.53593 60.2814 1.47685 60.3603 1.47685C60.5185 1.39801 60.6764 1.35869 60.8345 1.35869C61.0321 1.35869 61.2098 1.39801 61.3678 1.47685C61.4467 1.47685 61.5456 1.53593 61.6641 1.65398L61.9603 1.71306L62.1974 1.83122C62.2764 1.91006 62.3752 1.94937 62.4937 1.94937C62.6517 1.98879 62.7702 2.08719 62.8493 2.24476C62.9677 2.40224 63.0862 2.63855 63.2048 2.9536C63.3233 3.54428 63.3826 3.89875 63.3826 4.0169L63.4418 4.43045C63.4814 4.50918 63.5801 4.50918 63.7382 4.43045C64.1726 4.15472 64.5085 3.99724 64.7455 3.95782C64.9431 3.95782 65.1207 3.9184 65.2788 3.83967L66.2862 3.54428L66.7602 3.42622C66.8787 3.30807 67.0369 3.24899 67.2343 3.24899C67.4714 3.13083 67.6491 3.07175 67.7676 3.07175C68.3207 2.91418 68.9331 2.79612 69.6046 2.71729C69.9207 2.71729 70.1972 2.73705 70.4343 2.77636C70.6712 2.81578 70.9281 2.91418 71.2046 3.07175L71.8564 3.36714C72.2515 3.52462 72.4885 3.66243 72.5675 3.78059C72.6071 3.89875 72.6268 4.07598 72.6268 4.31229L72.6861 4.66666C72.7256 4.7455 72.7453 4.86355 72.7453 5.02113C72.7848 5.13928 72.7848 5.33618 72.7453 5.61181V7.26579L72.6268 7.44302C72.5874 7.52186 72.528 7.6006 72.4489 7.67934C72.37 7.71875 72.3107 7.77783 72.2713 7.85657C72.1132 8.01404 72.0145 8.09288 71.9749 8.09288C71.8959 8.09288 71.7576 8.19128 71.5601 8.38817C71.4021 8.46701 71.2639 8.50633 71.1454 8.50633C70.9873 8.50633 70.8687 8.54575 70.7897 8.62448C70.6318 8.74264 70.454 8.80172 70.2565 8.80172C70.0195 8.80172 69.9207 8.84103 69.9602 8.91987L70.4343 9.21516C70.5527 9.25458 70.6911 9.35308 70.849 9.51055C71.0071 9.62871 71.1256 9.70744 71.2046 9.74686L71.7972 10.1013L72.212 10.3375L72.3305 10.4557L72.8046 10.692L73.3378 11.1055C73.4959 11.263 73.6145 11.5387 73.6935 11.9325C73.6935 12.0506 73.7132 12.1688 73.7527 12.2869C73.7923 12.3657 73.812 12.4445 73.812 12.5232C73.8909 12.6807 73.9305 13.2518 73.9305 14.2363C73.9305 14.3544 73.9108 14.4332 73.8712 14.4726C73.7527 14.8664 73.7527 15.1814 73.8712 15.4177V15.595C73.8712 15.7525 73.7922 15.8903 73.6342 16.0084C73.5551 16.1266 73.4563 16.2251 73.3378 16.3038C73.2589 16.3432 73.1799 16.3826 73.1009 16.422C73.0218 16.422 72.9626 16.4416 72.9231 16.481C72.8441 16.5598 72.7256 16.5992 72.5675 16.5992C72.1725 16.4811 71.9354 16.4023 71.8564 16.3629L71.4416 16.3038C71.4812 16.3038 71.2441 16.2053 70.7305 16.0084C70.4935 15.851 70.059 15.7131 69.4269 15.595L68.9528 15.4177C68.8738 15.3783 68.6762 15.2996 68.3603 15.1814C68.2812 15.1814 68.1825 15.1224 68.0639 15.0042C68.0244 14.9649 67.8861 14.8467 67.6491 14.6498L67.1751 14.2954C67.1751 14.2954 66.9972 14.1772 66.6418 13.9409C66.4838 13.8228 66.3257 13.6849 66.1677 13.5275C66.0097 13.3306 65.9109 13.173 65.8713 13.0548C65.8319 13.0548 65.7726 13.0352 65.6937 12.9957C65.6541 12.9564 65.6146 12.917 65.5751 12.8777C65.5356 12.8383 65.4961 12.7989 65.4566 12.7595C65.4171 12.6807 65.3974 12.6217 65.3974 12.5823L65.0418 12.1097C64.7257 11.7946 64.5677 11.6372 64.5677 11.6372L64.2714 11.2236C64.1134 11.0661 64.0146 10.8692 63.9751 10.6329C63.8566 10.3573 63.7579 10.2194 63.6788 10.2194C63.5998 10.1406 63.5405 10.3179 63.5011 10.7511C63.5011 11.1843 63.4814 11.4599 63.4418 11.5781C63.4418 11.775 63.4221 11.9325 63.3826 12.0506C63.3826 12.3657 63.3629 12.5626 63.3233 12.6414L63.2641 13.1139C63.2245 13.5471 63.0468 14.2954 62.7308 15.3587L62.5529 15.7131C62.474 16.0282 62.3356 16.3235 62.1382 16.5992C61.9801 16.8748 61.8221 17.0127 61.6641 17.0127C61.5852 17.0127 61.4863 16.8945 61.3678 16.6583L61.0715 16.422C60.953 16.422 60.8147 16.2842 60.6567 16.0084L60.5975 15.9493L60.479 16.0084C60.2418 16.2053 60.0641 16.2251 59.9457 16.0675L59.7678 15.9493C59.6098 15.9493 59.5111 15.9691 59.4716 16.0084C59.3926 16.0478 59.274 16.0675 59.1159 16.0675C58.958 16.0282 58.8592 15.9691 58.8198 15.8903C58.8198 15.7722 58.8198 15.5752 58.8198 15.2996C58.7407 14.0394 58.6814 13.3502 58.6419 13.2321L58.4641 11.8144C58.4641 11.5387 58.4444 11.3221 58.4049 11.1645C58.4049 11.0071 58.3655 10.8692 58.2864 10.7511C58.2073 10.5148 58.1876 10.1603 58.227 9.68778ZM59.5308 49.0295C59.6493 48.9113 59.7283 48.8129 59.7678 48.7342C59.8468 48.6554 59.8864 48.557 59.8864 48.4388C60.0049 47.8481 60.0641 47.5331 60.0641 47.4937L60.1233 47.0211C60.1629 46.9423 60.1826 46.8439 60.1826 46.7258C60.1826 46.5682 60.2024 46.4304 60.2418 46.3122C60.2418 46.0759 60.2814 45.879 60.3603 45.7215V45.0717C60.3603 44.9536 60.3801 44.8748 60.4196 44.8355C60.4592 44.7567 60.479 44.6779 60.479 44.5992C60.5185 44.481 60.5777 43.8115 60.6567 42.5907L60.7752 40.8776C60.7752 40.3657 60.7949 39.8734 60.8345 39.4008C60.8739 38.9283 60.8937 38.5147 60.8937 38.1604C61.0122 37.2152 61.0715 36.3685 61.0715 35.6202C61.111 35.4233 61.1307 35.1871 61.1307 34.9114C61.1307 34.6357 61.1506 34.3994 61.19 34.2025L61.2493 32.9029V32.1941C61.3282 32.0759 61.3678 31.7609 61.3678 31.2489C61.3678 29.91 61.4073 29.2012 61.4863 29.1223L61.5456 28.5317L61.6049 27.5865C61.6838 27.4289 61.7234 27.0942 61.7234 26.5823L61.9011 25.9325L61.9603 25.6371C61.9603 25.3221 61.9801 25.0465 62.0195 24.8101L62.0788 24.0422C62.0788 23.609 62.0195 23.2546 61.9011 22.9789C61.7826 22.7426 61.7234 22.5063 61.7234 22.2701L61.6641 22.0338C61.5852 21.955 61.5456 21.8369 61.5456 21.6793L61.427 21.1477C61.348 21.0296 61.2888 20.8917 61.2493 20.7342C61.2493 20.5373 61.2888 20.3995 61.3678 20.3207C61.4073 20.2026 61.4665 20.1041 61.5456 20.0253C61.6641 19.9072 61.7826 19.8481 61.9011 19.8481C62.0591 19.7694 62.2172 19.7299 62.3752 19.7299C62.4937 19.7299 62.5924 19.7103 62.6715 19.6709C62.7505 19.6315 62.8295 19.6118 62.9084 19.6118C63.2245 19.533 63.4814 19.4937 63.6788 19.4937C64.5479 19.4149 64.9825 19.3756 64.9825 19.3756L66.8787 19.2574H67.4121C67.6491 19.218 68.1825 19.218 69.012 19.2574L70.3751 19.3756L70.6712 19.4937L72.3305 20.1435C72.6071 20.301 72.8046 20.4978 72.9231 20.7342C73.0416 20.8917 73.1602 21.2264 73.2787 21.7384C73.3971 22.211 73.4762 22.5851 73.5156 22.8608V23.1562C73.5947 23.6287 73.6342 24.5345 73.6342 25.8734C73.6342 26.9761 73.5551 28.2757 73.3971 29.7722C73.3577 29.8509 73.3378 29.9691 73.3378 30.1266C73.3378 30.2447 73.3181 30.3629 73.2787 30.481C73.2392 31.2686 73.0218 32.2926 72.6268 33.5528L72.5675 33.9071L72.0343 35.1477C71.9947 35.2658 71.9552 35.384 71.9157 35.5022C71.8761 35.5809 71.8367 35.64 71.7972 35.6793C71.7182 35.9943 71.5207 36.3094 71.2046 36.6244C70.849 36.9789 70.5923 37.1561 70.4343 37.1561C70.2762 37.1561 70.1774 37.1758 70.138 37.2152C69.9009 37.294 69.6244 37.3334 69.3084 37.3334C69.0713 37.3334 68.9133 37.3136 68.8343 37.2743L68.5972 37.1561L67.8269 36.9789C67.6294 36.9789 67.4911 36.9395 67.4121 36.8607C67.0566 36.6639 66.6615 36.2701 66.2269 35.6793L66.1084 35.5612C66.0689 35.6793 66.0492 35.8763 66.0492 36.1519C66.0492 36.3882 66.0689 36.6048 66.1084 36.8017L66.1677 37.9831L66.2269 39.0464C66.2665 39.0858 66.2862 39.3418 66.2862 39.8143C66.2862 40.0507 66.3059 40.287 66.3454 40.5232C66.3849 40.7201 66.4047 40.8382 66.4047 40.8776C66.4441 41.0351 66.464 41.2714 66.464 41.5865C66.464 41.9015 66.4837 42.1969 66.5233 42.4725C66.5233 43.0239 66.5233 43.398 66.5233 43.5949C66.5627 43.7918 66.5826 43.91 66.5826 43.9494L66.6418 44.7173L66.701 45.6034C66.701 45.6428 66.701 45.7609 66.701 45.9578C66.7405 46.1153 66.7602 46.4304 66.7602 46.903L66.8195 48.2025C66.859 48.557 66.8787 49.0098 66.8787 49.5612C66.8787 50.1519 66.859 50.6442 66.8195 51.038C66.78 51.1167 66.7602 51.2152 66.7602 51.3333C66.7602 51.4515 66.7405 51.5499 66.701 51.6287C66.701 51.9831 66.6615 52.2785 66.5826 52.5148C66.5826 52.7117 66.543 52.9282 66.464 53.1646C66.1874 53.8734 66.0097 54.2672 65.9306 54.346C65.8516 54.4642 65.7528 54.5626 65.6344 54.6413C65.5553 54.7202 65.4764 54.7595 65.3974 54.7595L65.1603 54.8185L64.9825 54.8776L64.627 54.8185C64.4295 54.8185 64.2714 54.7398 64.1529 54.5822L63.8566 54.4642L63.5603 54.5232C63.2838 54.5232 63.106 54.5429 63.027 54.5822L62.4937 54.6413C62.3752 54.6807 62.2369 54.7004 62.0788 54.7004C61.8023 54.7004 61.6246 54.5429 61.5456 54.2279C61.5456 54.1097 61.506 53.9719 61.427 53.8143C61.3875 53.7356 61.348 53.6568 61.3085 53.5781C61.2691 53.4993 61.2493 53.4205 61.2493 53.3418L61.19 53.2236C61.1506 53.1842 61.1307 53.1251 61.1307 53.0464C61.1307 53.007 61.111 52.9677 61.0715 52.9282C61.0715 52.7708 61.0321 52.6526 60.953 52.5739C60.9134 52.5345 60.8937 52.4557 60.8937 52.3376C60.8147 52.2588 60.7752 52.1407 60.7752 51.9831C60.5382 51.5106 60.3999 51.2546 60.3603 51.2152L60.2418 50.9198C60.1629 50.8411 60.1233 50.7032 60.1233 50.5064C60.0839 50.1519 59.9851 49.8959 59.8271 49.7384C59.5505 49.6596 59.4123 49.5021 59.4123 49.2658L59.5308 49.0295ZM65.5751 26.5232C65.5751 26.9958 65.5949 27.37 65.6344 27.6456L65.6937 28.6498C65.6937 28.6891 65.7134 28.7285 65.7528 28.768C65.7923 28.8073 65.8121 28.8664 65.8121 28.9452L65.9899 30.2447C66.1084 30.5598 66.2467 30.9142 66.4047 31.308C66.6023 31.7018 66.7602 31.9972 66.8787 32.1941L67.1158 32.2532C67.2343 32.2137 67.4515 31.9972 67.7676 31.6034C67.9257 31.3671 68.0836 31.1111 68.2417 30.8355C68.3997 30.5598 68.5182 30.3432 68.5972 30.1856C68.5972 30.0675 68.6564 29.7722 68.775 29.2996L68.8935 28.827L69.0713 28.059C69.1898 27.8228 69.2492 27.5865 69.2492 27.3502L69.3084 26.8777L69.4862 25.2827C69.5256 25.1646 69.5256 25.0465 69.4862 24.9283C69.4862 24.8101 69.4664 24.7314 69.4269 24.692C69.3478 24.6132 69.2492 24.5738 69.1306 24.5738H68.8935C68.775 24.5345 68.5182 24.5148 68.1231 24.5148C68.0046 24.5542 67.8467 24.5936 67.6491 24.6329C67.4911 24.6329 67.333 24.6132 67.1751 24.5738C66.2665 24.5738 65.7331 24.5936 65.5751 24.6329C65.5356 24.6329 65.4961 24.6723 65.4566 24.7511C65.4566 24.8298 65.4566 24.948 65.4566 25.1055L65.5751 26.5232Z" fill="#4A443D"/>
<path d="M101.75 50.3883C101.553 50.3883 101.316 50.2307 101.039 49.9157C101.039 49.8763 101.001 49.8173 100.922 49.7385C100.882 49.6991 100.841 49.64 100.802 49.5613C100.684 49.4825 100.565 49.4431 100.447 49.4431C100.368 49.4431 100.29 49.4235 100.21 49.3841C100.13 49.3446 100.052 49.3053 99.9729 49.2659L99.4989 49.0887C99.2618 49.0099 99.0836 48.9114 98.9651 48.7934C98.8476 48.6358 98.7679 48.4193 98.7291 48.1435L98.7878 45.8989V45.1308L98.8476 44.422C98.8476 44.4614 98.8864 43.7526 98.9651 42.2954C98.9262 42.0198 98.9063 41.7835 98.9063 41.5866C98.9452 41.3503 98.9651 41.2322 98.9651 41.2322C98.9651 41.1928 98.9651 41.0943 98.9651 40.9368C99.0049 40.7399 99.0049 40.543 98.9651 40.3461C99.0049 40.1886 99.0248 40.031 99.0248 39.8735C99.0248 39.6766 99.0447 39.519 99.0836 39.4009L99.1433 38.692L99.2021 36.3883C99.2021 35.9157 99.222 35.5022 99.2618 35.1478C99.3017 34.7933 99.3216 34.4586 99.3216 34.1435V32.903C99.3216 32.2336 99.3614 31.505 99.4401 30.7174C99.4401 30.1661 99.459 29.7919 99.4989 29.595L99.5586 28.8271C99.5586 28.8271 99.5377 28.7483 99.4989 28.5908C99.4989 28.4332 99.5188 28.2363 99.5586 28.0001C99.5586 27.8426 99.5586 27.6457 99.5586 27.4094C99.5974 27.173 99.5974 27.0156 99.5586 26.9368C99.6761 26.2673 99.7359 25.6569 99.7359 25.1056L99.7946 24.2195C99.7946 24.1801 99.7946 24.0816 99.7946 23.9242C99.8345 23.7666 99.8345 23.6288 99.7946 23.5106L99.9131 22.6836V21.9157C99.9131 21.7188 99.933 21.5612 99.9729 21.4432C100.013 21.325 100.033 21.2265 100.033 21.1478L100.091 20.4979C100.13 20.3799 100.13 20.242 100.091 20.0845C100.091 19.8876 100.111 19.7104 100.151 19.5529L100.27 18.6667C100.23 18.5487 100.23 18.4305 100.27 18.3124L100.447 17.19V17.0127C100.447 16.619 100.487 16.3039 100.565 16.0676C100.565 15.792 100.585 15.5557 100.625 15.3588C100.585 15.2406 100.565 15.1224 100.565 15.0043C100.605 14.8468 100.625 14.7483 100.625 14.709L100.684 14.2364C100.763 13.6457 100.802 13.3306 100.802 13.2912L100.98 12.0507V11.6372L101.098 11.1646L101.218 10.1604L101.336 9.68787C101.336 9.49098 101.376 9.31375 101.455 9.15617L101.573 8.62457C101.533 8.46709 101.553 8.28986 101.632 8.09297L101.691 7.62034L101.75 7.38403C101.869 7.26587 101.889 7.04932 101.809 6.73427C101.85 6.53738 101.889 6.37981 101.929 6.26175C102.007 6.14359 102.106 6.0451 102.226 5.96636C102.264 5.92694 102.402 5.86786 102.64 5.78913C102.718 5.78913 102.797 5.76947 102.877 5.73005C102.955 5.69073 103.015 5.67097 103.054 5.67097C103.173 5.59223 103.331 5.55281 103.529 5.55281L104.002 5.43466C104.397 5.23777 104.773 5.13937 105.128 5.13937C105.247 5.13937 105.347 5.09995 105.425 5.02121C105.464 4.98179 105.523 4.96213 105.601 4.96213C105.682 4.96213 105.761 4.94248 105.839 4.90306C106.076 4.90306 106.234 4.8834 106.313 4.84398L108.151 4.66675L110.521 4.54859C110.6 4.62743 110.758 4.66675 110.995 4.66675C111.746 4.82432 112.417 5.09995 113.01 5.49374C113.761 6.00568 114.156 6.32083 114.196 6.43888L114.313 7.14782C114.313 7.62034 114.333 7.89597 114.372 7.97481C114.412 8.28986 114.472 9.4319 114.55 11.4009L114.61 13.941C114.57 15.2406 114.531 15.9298 114.491 16.0085C114.491 16.0479 114.472 16.1463 114.432 16.3039C114.432 16.4614 114.451 16.6189 114.491 16.7764L114.372 18.7258L114.313 19.1393C114.235 20.0058 114.156 20.5177 114.076 20.6752L114.017 21.0887L113.899 21.5612C113.899 21.7188 113.879 21.8172 113.839 21.8566L113.779 22.2111C113.779 22.408 113.76 22.5458 113.721 22.6245L113.425 22.979C113.147 23.4122 112.971 23.6288 112.892 23.6288L112.773 23.5697L112.654 23.5106C112.536 23.5106 112.239 23.6484 111.765 23.9242C110.778 24.3179 110.244 24.5148 110.165 24.5148L109.928 24.633L109.632 24.7512L109.454 24.8102C109.415 24.8496 109.355 24.8693 109.276 24.8693C109.236 24.8299 109.197 24.8299 109.158 24.8693L108.743 24.9875L107.794 25.2238C107.597 25.2238 107.459 25.2631 107.38 25.3418H107.143C107.104 25.3025 107.025 25.2827 106.907 25.2827C106.511 25.3222 106.275 25.3812 106.195 25.46C106.115 25.46 105.998 25.4797 105.839 25.5191C105.682 25.5585 105.464 25.5781 105.187 25.5781H104.18C103.983 25.5781 103.825 25.5585 103.705 25.5191C103.508 25.3616 103.37 25.3616 103.291 25.5191L103.232 25.9326V26.5233C103.192 26.6414 103.173 26.8187 103.173 27.055C103.212 27.2519 103.232 27.4684 103.232 27.7047C103.192 28.0198 103.173 28.3743 103.173 28.768C103.212 29.1224 103.212 29.4572 103.173 29.7723C103.212 30.4811 103.251 30.8552 103.291 30.8947C103.291 30.934 103.331 30.9734 103.411 31.0127C103.529 31.0521 103.726 31.0916 104.002 31.1309C104.122 31.1703 104.298 31.1899 104.536 31.1899L105.01 31.3081L105.544 31.4263L106.907 31.4853C106.986 31.4459 107.162 31.4263 107.44 31.4263C107.518 31.3868 107.597 31.3672 107.676 31.3672C107.755 31.3278 107.794 31.2884 107.794 31.249H107.973C108.012 31.249 108.071 31.2096 108.151 31.1309L108.387 31.0718C108.546 31.0718 108.704 30.9931 108.862 30.8356L109.276 30.4811L109.573 30.2448L109.928 29.8904C110.047 29.7723 110.126 29.6934 110.165 29.6541C110.244 29.6147 110.283 29.595 110.283 29.595C110.283 29.4769 110.323 29.3784 110.402 29.2997L111.054 28.4727L111.232 28.1182C111.389 27.8031 111.587 27.5275 111.825 27.2912L112.003 26.9959L112.121 26.7596L112.299 26.4642C112.338 26.3461 112.417 26.2279 112.536 26.1098C112.654 25.9917 112.753 25.9129 112.832 25.8735C112.871 25.8341 112.95 25.8145 113.068 25.8145C113.385 25.8145 113.661 25.8932 113.899 26.0508L114.196 26.287C114.393 26.3658 114.51 26.4642 114.55 26.5824C114.629 26.6611 114.669 26.8187 114.669 27.055V27.5866C114.669 28.2561 114.65 28.6302 114.61 28.709L114.55 29.1224C114.51 29.3587 114.432 29.6147 114.313 29.8904C114.274 30.1266 114.156 30.4417 113.958 30.8356C113.76 31.1899 113.642 31.4459 113.602 31.6035L113.425 32.1351C113.385 32.2533 113.267 32.4108 113.068 32.6077C112.99 32.8046 112.99 32.9228 113.068 32.9621C113.147 33.0015 113.267 33.0606 113.425 33.1393C113.622 33.1787 113.819 33.2181 114.017 33.2575L114.372 33.3166L115.676 33.6119H116.151C116.308 33.6907 116.466 33.73 116.625 33.73C116.703 33.7694 116.862 33.7891 117.099 33.7891L117.454 33.8482C117.493 33.8876 117.553 33.9072 117.631 33.9072C117.75 33.8679 117.849 33.8679 117.928 33.9072L118.699 34.0254C118.856 34.0648 119.093 34.0845 119.41 34.0845C119.489 34.1239 119.567 34.1435 119.646 34.1435C119.765 34.1435 119.864 34.1632 119.943 34.2026C120.614 34.2814 121.404 34.5177 122.313 34.9115C122.393 34.9509 122.471 34.9705 122.55 34.9705C122.668 34.9705 122.748 34.9902 122.788 35.0296C123.142 35.1872 123.439 35.3447 123.676 35.5022L124.209 35.9157L124.743 36.2111C124.86 36.2898 125 36.3685 125.157 36.4474L125.514 36.6836C125.631 36.8018 125.711 36.8608 125.75 36.8608C125.869 36.9396 125.967 37.1956 126.046 37.6287L126.106 38.2786L126.046 38.5739L126.166 39.4009C126.166 39.4797 126.166 39.5979 126.166 39.7554C126.166 39.8735 126.145 39.9522 126.106 39.9917L126.046 40.4642C126.046 40.8187 126.007 41.0352 125.928 41.114C125.888 41.2715 125.888 41.4291 125.928 41.5866C125.928 41.8229 125.849 42.0789 125.691 42.3545L125.514 42.6499V42.9453C125.514 43.2996 125.534 43.5556 125.572 43.7132C125.572 43.8706 125.552 44.0086 125.514 44.1267C125.434 44.3236 125.257 44.6387 124.98 45.0718C124.663 45.4262 124.407 45.6429 124.209 45.7216L123.973 45.8989L123.616 45.8398H123.261C123.064 45.8398 122.886 45.8594 122.728 45.8989C122.412 45.8989 122.156 45.8791 121.957 45.8398L121.246 45.4853L120.239 45.1308C119.765 45.0521 119.429 44.934 119.232 44.7765L118.995 44.6583L118.699 44.5992L118.461 44.422L118.224 44.3039L117.988 44.1857H117.81C117.691 44.1857 117.593 44.166 117.514 44.1267C117.474 44.0873 117.434 44.0676 117.395 44.0676C117.236 44.0676 117.157 44.0282 117.157 43.9495L116.979 43.8904L116.862 43.7723L116.684 43.7132L116.21 43.4769C115.104 43.0043 114.55 42.768 114.55 42.768L114.372 42.7089C114.253 42.6695 114.136 42.6105 114.017 42.5317C113.899 42.453 113.799 42.3939 113.721 42.3545L113.543 42.2364C113.425 42.1183 113.168 42.0001 112.773 41.882C112.496 41.7244 112.279 41.626 112.121 41.5866C112.003 41.5472 111.923 41.5078 111.883 41.4684L111.706 41.4093L111.351 41.2322C111.272 41.1928 111.192 41.1534 111.114 41.114C111.035 41.0352 110.955 40.9762 110.876 40.9368C110.718 40.8581 110.58 40.7792 110.461 40.7005L110.047 40.4642C109.928 40.4249 109.81 40.3854 109.69 40.3461C109.612 40.2673 109.553 40.2082 109.514 40.1689L108.684 39.7554C108.525 39.6372 108.289 39.4994 107.973 39.3419L107.617 39.1056L107.321 38.9284L107.025 38.7511L106.195 38.3377L105.544 37.9832C105.147 37.6682 104.812 37.4516 104.536 37.3335L103.705 36.9199L103.469 36.7427C103.429 36.6639 103.37 36.6245 103.291 36.6245C103.251 36.5852 103.212 36.5852 103.173 36.6245C103.134 36.6639 103.114 37.1366 103.114 38.0423C103.074 38.2786 103.054 38.5148 103.054 38.7511C103.094 38.948 103.114 39.0662 103.114 39.1056C103.074 39.3812 103.054 40.0507 103.054 41.114L103.114 41.1731C103.192 41.1731 103.429 41.0155 103.825 40.7005C103.983 40.543 104.101 40.4642 104.18 40.4642H104.24C104.397 40.4642 104.576 40.5036 104.773 40.5823C105.01 40.6218 105.187 40.6808 105.307 40.7596C105.464 40.8383 105.544 40.8974 105.544 40.9368C105.701 41.0943 105.78 41.1731 105.78 41.1731C106.136 41.3306 106.353 41.4882 106.432 41.6456C106.472 41.8032 106.491 42.0592 106.491 42.4136C106.531 42.7286 106.531 42.9846 106.491 43.1815C106.412 43.2996 106.412 43.4375 106.491 43.595L106.372 44.1267C106.255 44.2842 106.195 44.5007 106.195 44.7765L106.018 45.4853C105.78 46.076 105.444 46.6274 105.01 47.1393L104.654 47.5528L104.298 48.0254C104.141 48.1829 104.062 48.2813 104.062 48.3208L102.699 49.8566C102.264 50.2111 101.948 50.3883 101.75 50.3883ZM81.1881 44.8946C81.1486 44.8158 81.1289 44.4023 81.1289 43.6541C81.1289 43.1815 81.1486 42.8862 81.1881 42.768L81.2474 42.2954L81.1881 41.882C81.2276 41.8032 81.2474 41.7244 81.2474 41.6456C81.2474 41.5275 81.2672 41.4093 81.3067 41.2912L81.3659 40.4642C81.524 39.7554 81.6029 39.3221 81.6029 39.1647V38.633C81.6425 38.5542 81.6622 38.4755 81.6622 38.3968C81.6622 38.2786 81.6819 38.1801 81.7214 38.1014L81.7807 37.1562C81.8598 36.9986 81.8993 36.7821 81.8993 36.5065V35.6794L81.9586 34.7342C82.0375 34.3404 82.0771 34.1435 82.0771 34.1435C82.0375 33.9467 82.0375 33.73 82.0771 33.4938C82.0771 32.7061 82.0771 32.2138 82.0771 32.0169C82.1165 31.7807 82.1362 31.6428 82.1362 31.6035C82.1758 31.5641 82.1955 31.2884 82.1955 30.7765V20.439C82.1955 19.6119 82.2153 19.159 82.2547 19.0803V17.9579C82.2547 17.761 82.235 17.5444 82.1955 17.3081C82.1955 17.0718 82.2153 16.8749 82.2547 16.7173C82.2547 16.678 82.2547 16.5008 82.2547 16.1857C82.2943 15.8707 82.2943 15.5556 82.2547 15.2406L82.314 14.0591C82.3536 14.0198 82.3536 13.8622 82.314 13.5866C82.314 13.3109 82.314 13.0747 82.314 12.8778C82.314 12.2083 82.3536 11.5585 82.4326 10.9284C82.4721 10.889 82.4721 10.8299 82.4326 10.7512C82.4326 10.633 82.4326 10.5543 82.4326 10.5149L82.4918 10.1604L82.5511 9.86511L82.6696 8.50641L82.8474 8.09297L82.966 7.85665C83.0449 7.65976 83.3412 7.46287 83.8548 7.26588C84.0523 7.22656 84.4868 7.04932 85.1584 6.73427C85.6326 6.45864 86.3041 6.24199 87.1732 6.08452L87.5288 6.02544C87.5288 5.98602 87.6077 5.96636 87.7658 5.96636C87.9634 5.92694 88.1806 5.90728 88.4177 5.90728C88.6547 5.86786 88.8522 5.86786 89.0102 5.90728C89.0497 5.9467 89.109 5.96636 89.188 5.96636C89.2669 5.96636 89.346 5.98602 89.425 6.02544C89.9781 6.10418 90.3929 6.20267 90.6694 6.32083C90.9854 6.43888 91.2225 6.59646 91.3805 6.79335C91.6966 7.34471 91.8941 7.7385 91.9731 7.97481C92.2892 8.72307 92.4472 9.25467 92.4472 9.56972C92.4866 9.64845 92.5065 9.74695 92.5065 9.86511C92.5065 9.94384 92.5262 10.0029 92.5656 10.0423L92.6841 10.4558L92.862 12.5824C92.8225 12.7005 92.8027 12.8384 92.8027 12.9958C92.8027 13.1534 92.783 13.2716 92.7434 13.3503L92.6249 14.0001C92.5459 14.2758 92.4669 14.5711 92.3879 14.8861C92.3089 15.2012 92.2298 15.4572 92.1508 15.6541C91.9928 16.1267 91.9138 16.3826 91.9138 16.4221C91.9138 16.4614 91.9534 16.5205 92.0323 16.5993C92.1113 16.6386 92.1904 16.6584 92.2694 16.6584C92.7039 16.8158 93.0397 16.9931 93.2768 17.19C93.3558 17.3081 93.494 17.4854 93.6915 17.7216C93.8891 17.9579 94.0274 18.1155 94.1064 18.1942C94.3434 18.6274 94.62 19.415 94.9359 20.557C94.9756 20.6752 94.9953 20.8131 94.9953 20.9706C94.9953 21.0887 95.015 21.2069 95.0546 21.325L95.1138 21.9157C95.1532 21.9944 95.1731 22.1323 95.1731 22.3293C95.2125 22.4867 95.2125 22.6443 95.1731 22.8018C95.1335 22.8412 95.1138 22.9003 95.1138 22.979C95.1138 23.0577 95.094 23.1168 95.0546 23.1562C95.0546 23.3137 95.015 23.5106 94.9359 23.7469C94.857 23.9438 94.7582 24.1407 94.6397 24.3376L94.2842 24.8102C94.2051 24.8496 94.1261 24.9086 94.0471 24.9875C94.0076 25.0268 93.9879 25.0662 93.9879 25.1056C93.9484 25.2238 93.8497 25.3813 93.6915 25.5781C93.5336 25.7357 93.3755 25.8539 93.2175 25.9326L92.9212 26.1688L91.8546 26.8187L90.9657 27.2912L90.6103 27.4094C89.8596 27.4094 89.4052 27.3897 89.2472 27.3503C89.1682 27.311 89.0497 27.2912 88.8916 27.2912C88.5756 27.2125 88.2794 27.0746 88.0028 26.8778C87.8843 26.6809 87.7855 26.6218 87.7065 26.7005C87.667 26.7005 87.667 26.9565 87.7065 27.4684L87.7658 28.2364L87.8843 29.536C87.8843 30.5205 87.9435 31.4066 88.062 32.1942C88.141 33.4938 88.2003 34.8918 88.2398 36.3883C88.2793 37.8847 88.2991 39.0071 88.2991 39.7554C88.2201 39.9522 88.2201 40.3461 88.2991 40.9368C88.2595 41.0943 88.2398 41.2715 88.2398 41.4684C88.2398 41.6653 88.2201 41.8032 88.1806 41.882C88.1806 41.9213 88.1806 42.0001 88.1806 42.1183C88.2201 42.2364 88.2201 42.3545 88.1806 42.4726V43.1815C88.141 43.2603 88.1213 43.3587 88.1213 43.4769C88.1213 43.595 88.1016 43.7132 88.062 43.8313C88.1016 43.9888 88.1016 44.1267 88.062 44.2448C88.062 44.3629 88.062 44.422 88.062 44.422C87.9435 44.7765 87.8843 45.1899 87.8843 45.6625C87.8449 45.82 87.8052 45.9973 87.7658 46.1941C87.7263 46.391 87.6867 46.6471 87.6473 46.9621L87.588 47.4938L87.4695 47.9073L87.4103 48.2617C87.4103 48.498 87.351 48.8918 87.2324 49.4431L86.6991 50.5064C86.6201 50.6246 86.5214 50.7427 86.4029 50.8608C86.3239 51.0184 86.2448 51.1168 86.1657 51.1562C86.0078 51.2744 85.8893 51.2153 85.8103 50.979C85.6918 50.7821 85.5535 50.6837 85.3955 50.6837L85.1584 50.5655C84.9609 50.4079 84.8029 50.3883 84.6844 50.5064C84.6449 50.5852 84.5856 50.6246 84.5065 50.6246C84.4276 50.6246 84.2894 50.6246 84.0918 50.6246C84.0128 50.5852 83.9337 50.5655 83.8548 50.5655C83.7757 50.6048 83.7164 50.6246 83.677 50.6246L83.3214 50.6837C83.1634 50.6443 83.0449 50.5852 82.966 50.5064C82.9264 50.4277 82.8869 50.2701 82.8474 50.0338C82.8078 49.64 82.7288 49.3446 82.6103 49.1477C82.4918 48.9509 82.4326 48.754 82.4326 48.5571C82.4326 48.2026 82.3536 47.9073 82.1955 47.671C82.0375 47.356 81.9586 47.1 81.9586 46.9031L81.8993 46.4895C81.8993 46.3714 81.8795 46.273 81.8401 46.1941C81.8005 46.1154 81.7807 46.0367 81.7807 45.9579C81.7412 45.6429 81.6227 45.3869 81.4252 45.1899L81.1881 44.8946ZM86.4029 10.8103C86.4029 11.1646 86.4621 11.7554 86.5806 12.5824L86.6399 13.2912L86.6991 14.0001C86.7387 14.0789 86.7585 14.197 86.7585 14.3545L86.8177 14.5318C86.9361 14.6105 87.0349 14.4727 87.1139 14.1182L87.6473 12.7005C87.7263 12.5824 87.7658 12.4642 87.7658 12.3461C87.7658 12.2279 87.7855 12.1492 87.8249 12.1098L88.0028 11.7554C88.1213 11.6372 88.1806 11.5191 88.1806 11.4009C88.2201 11.3616 88.2398 11.3025 88.2398 11.2237C88.2398 11.145 88.2595 11.0859 88.2991 11.0465C88.3781 10.7708 88.3583 10.5149 88.2398 10.2786C88.2003 10.2392 88.0819 10.2195 87.8843 10.2195C87.6867 10.2195 87.588 10.2392 87.588 10.2786H87.2324C87.0745 10.2786 86.9164 10.318 86.7585 10.3967C86.6399 10.4361 86.5411 10.4952 86.4621 10.5739C86.4226 10.6134 86.4029 10.6921 86.4029 10.8103ZM86.9361 16.5993C86.9361 16.6386 86.956 16.7568 86.9954 16.9537C87.0349 17.1506 87.0546 17.4263 87.0546 17.7807L87.1139 18.9621C87.1534 19.0803 87.1732 19.2968 87.1732 19.6119C87.2127 19.8876 87.2521 20.242 87.2918 20.6752C87.3313 21.9354 87.4103 22.7624 87.5288 23.1562C87.6077 23.5106 87.7065 23.7075 87.8249 23.7469C87.9041 23.8257 88.0819 23.806 88.3583 23.6878L88.7139 23.5106C88.7929 23.5106 88.9312 23.4122 89.1287 23.2153C89.3657 23.0183 89.6028 22.8214 89.8398 22.6245C89.8793 22.5458 89.9188 22.4867 89.9583 22.4473C90.0372 22.3686 90.0769 22.3095 90.0769 22.2702L90.4324 21.8566C90.7089 21.5416 90.8867 21.2856 90.9657 21.0887L91.0842 20.7342C91.0842 20.6949 91.0249 20.6555 90.9064 20.6161C90.7879 20.5374 90.6694 20.4783 90.5509 20.439L90.0769 20.2617C89.9188 20.183 89.7805 20.1436 89.6621 20.1436C89.03 20.0648 88.6151 19.9467 88.4177 19.7891C88.2201 19.7104 88.1016 19.5331 88.062 19.2575C88.062 19.0212 88.0226 18.8637 87.9435 18.7849C87.8646 18.6274 87.8249 18.4698 87.8249 18.3124C87.7855 18.2729 87.7658 18.2139 87.7658 18.1351C87.7658 18.0564 87.746 17.9973 87.7065 17.9579C87.3905 17.0127 87.2324 16.4811 87.2324 16.363C87.1929 16.3236 87.1732 16.2842 87.1732 16.2448C87.1732 16.1661 87.1534 16.107 87.1139 16.0676C87.1139 16.0283 87.0942 15.9889 87.0546 15.9494C87.0152 15.9101 86.9757 15.9101 86.9361 15.9494C86.8967 16.0283 86.8769 16.1267 86.8769 16.2448C86.8769 16.363 86.8967 16.4811 86.9361 16.5993ZM104.595 19.3166C104.674 19.3953 104.793 19.415 104.95 19.3757C104.99 19.3757 105.09 19.3559 105.247 19.3166C105.444 19.2772 105.642 19.2575 105.839 19.2575L106.551 19.1393L107.025 19.0803L108.506 18.7849L109.099 18.7258L109.987 18.4896C110.383 18.4896 110.58 18.4502 110.58 18.3714C110.658 18.2927 110.699 18.0366 110.699 17.6035C110.738 17.1309 110.738 16.8749 110.699 16.8355C110.62 16.7568 110.422 16.7568 110.107 16.8355C110.067 16.8355 109.987 16.8553 109.869 16.8946C109.75 16.934 109.612 16.9537 109.454 16.9537C109.217 16.9537 108.941 16.9931 108.625 17.0718C108.506 17.0718 108.408 17.0915 108.328 17.1309C108.249 17.1703 108.171 17.19 108.091 17.19C107.578 17.19 107.243 17.2294 107.083 17.3081L105.898 17.4263C105.701 17.4656 105.484 17.4854 105.247 17.4854C105.01 17.4854 104.833 17.505 104.714 17.5444C104.674 17.5838 104.654 17.9579 104.654 18.6667C104.615 18.8637 104.595 19.0803 104.595 19.3166ZM104.773 12.5233C104.773 12.5627 104.793 12.5824 104.833 12.5824C104.911 12.5824 104.99 12.5824 105.069 12.5824H105.484C105.642 12.543 105.939 12.5037 106.372 12.4642C106.807 12.3855 107.301 12.3461 107.854 12.3461C108.289 12.3067 108.803 12.287 109.395 12.287C109.79 12.287 110.086 12.3067 110.283 12.3461L110.995 12.4642C111.075 12.3855 111.114 11.8145 111.114 10.7512C111.153 10.5149 111.132 10.377 111.054 10.3376C111.015 10.2589 110.935 10.2195 110.818 10.2195L110.521 10.1604L110.283 10.1014C110.126 10.1407 109.889 10.1802 109.573 10.2195C109.257 10.2589 109.019 10.2786 108.862 10.2786C108.782 10.2392 108.684 10.2195 108.565 10.2195C108.091 10.2195 107.814 10.2392 107.736 10.2786H107.499C107.262 10.2392 107.083 10.2392 106.965 10.2786C107.083 10.2786 107.143 10.2983 107.143 10.3376L105.839 10.3967L105.721 10.3376L105.247 10.4558L104.891 10.5149C104.812 10.5149 104.773 10.5345 104.773 10.5739C104.733 10.7708 104.714 11.0859 104.714 11.5191C104.714 11.9523 104.733 12.287 104.773 12.5233ZM164.948 51.0971C164.553 51.0971 164.335 51.0775 164.296 51.038C164.256 51.038 164.198 51.0184 164.119 50.979C164.079 50.979 163.999 50.979 163.881 50.979H163.348C163.308 50.9396 163.21 50.9199 163.051 50.9199C162.894 50.9199 162.756 50.9002 162.637 50.8608C162.519 50.9002 162.38 50.9002 162.223 50.8608C162.063 50.8608 161.966 50.8608 161.926 50.8608H161.452C161.255 50.7821 161.095 50.7427 160.978 50.7427C160.82 50.7427 160.681 50.723 160.563 50.6837L160.207 50.6246C160.167 50.6639 160.07 50.6443 159.91 50.5655C159.872 50.5261 159.813 50.5064 159.733 50.5064C159.694 50.5064 159.654 50.4867 159.616 50.4474C159.456 50.4474 159.359 50.4277 159.319 50.3883C159.278 50.3489 159.239 50.3292 159.199 50.3292C159.161 50.3686 159.121 50.3686 159.081 50.3292C158.924 50.3292 158.824 50.3095 158.785 50.2701C158.706 50.1914 158.588 50.152 158.43 50.152C158.391 50.152 158.331 50.1323 158.252 50.0929C158.173 50.0536 158.074 49.9945 157.956 49.9157L157.008 49.5613C156.692 49.4825 156.435 49.4037 156.238 49.325C156.078 49.2856 155.941 49.2462 155.822 49.2068C155.506 49.0494 155.27 48.9705 155.11 48.9705C155.072 48.9312 155.013 48.9114 154.934 48.9114C154.894 48.9114 154.853 48.8918 154.815 48.8524L154.459 48.7934L153.926 48.5571L153.452 48.3798L153.038 48.2026L152.386 47.9663C152.227 47.9663 152.109 47.927 152.03 47.8482C151.635 47.6512 151.338 47.5528 151.141 47.5528C151.102 47.5528 151.042 47.5332 150.964 47.4938C150.924 47.4543 150.884 47.415 150.845 47.3756C150.489 47.2575 150.311 47.1984 150.311 47.1984L149.778 46.9621L149.304 46.7259C149.265 46.7259 149.206 46.7061 149.125 46.6668C149.047 46.6274 148.949 46.6077 148.83 46.6077L148.238 46.3123L147.229 45.7807L146.282 45.3081C144.465 44.4811 143.24 43.7526 142.607 43.1225C142.489 43.0043 142.371 42.9058 142.253 42.8271C142.133 42.7484 142.035 42.7089 141.956 42.7089C141.917 42.7089 141.798 42.8271 141.601 43.0634C141.205 43.7722 140.968 44.166 140.89 44.2448L140.533 44.7174L140.237 45.1308L139.941 45.6035C139.625 45.9973 139.092 46.6077 138.341 47.4347C138.144 47.6316 137.887 47.8285 137.571 48.0254C137.295 48.1829 137.076 48.2617 136.919 48.2617C136.84 48.3011 136.761 48.3011 136.682 48.2617C136.603 48.1829 136.524 48.1239 136.445 48.0844C136.247 47.9663 136.148 47.8875 136.148 47.8482C136.07 47.6907 135.694 47.6119 135.023 47.6119H134.905C134.786 47.6119 134.707 47.5332 134.667 47.3756C134.667 47.2181 134.667 46.9621 134.667 46.6077L134.608 45.6625C134.569 45.505 134.529 45.3081 134.489 45.0718C134.45 44.8356 134.45 44.6189 134.489 44.422C134.489 44.3039 134.469 44.2055 134.43 44.1267C134.312 44.0086 134.272 43.8904 134.312 43.7723L135.2 42.5317L135.497 42.1183C135.616 42.0001 135.675 41.9016 135.675 41.8229L136.09 41.3503L136.386 40.9368L136.622 40.6414L136.919 40.3461C136.958 40.3461 137.018 40.2673 137.097 40.1098C137.136 40.031 137.61 39.4403 138.518 38.3377L138.875 37.7469C139.112 37.3925 139.23 37.2153 139.23 37.2153L139.764 36.3883L140.06 35.7975L140.357 35.2659C140.357 35.1478 140.376 35.069 140.416 35.0296C140.494 34.9509 140.533 34.8524 140.533 34.7342L140.711 34.3799L140.89 34.0254L141.008 33.671L141.364 32.6668L141.541 31.9579L141.896 30.8356C142.055 30.363 142.193 30.0676 142.312 29.9494C142.351 29.9101 142.469 29.8904 142.667 29.8904C142.904 29.8904 143.121 29.9494 143.318 30.0676C143.595 30.1857 143.773 30.2842 143.852 30.363C143.971 30.4417 144.049 30.5598 144.089 30.7174V31.0127C144.089 31.1309 144.049 31.3081 143.971 31.5444C143.932 31.6232 143.911 31.7217 143.911 31.8397L143.852 32.0169V32.3123C143.892 32.588 143.911 32.9621 143.911 33.4347C143.911 33.9072 143.892 34.2814 143.852 34.5571V34.9115L143.793 36.0338L143.675 36.5065C143.595 36.7821 143.556 37.0381 143.556 37.2744C143.556 37.4713 143.537 37.6287 143.497 37.7469C143.378 38.2195 143.358 38.4558 143.437 38.4558C143.477 38.4952 144.268 38.692 145.807 39.0465L147.822 39.519L148.297 39.5781H148.415C148.494 39.5781 148.533 39.4206 148.533 39.1056C148.494 38.9874 148.474 38.8299 148.474 38.633C148.395 38.1998 148.395 37.7469 148.474 37.2744V33.4347C148.514 33.3166 148.533 33.0802 148.533 32.7259L148.711 31.4263L149.068 29.536L149.304 28.3545C149.304 28.1576 149.323 28.0198 149.363 27.9411L149.482 27.4094L149.6 26.9368L149.896 25.6963C149.896 25.6569 149.857 25.6372 149.778 25.6372C149.699 25.5978 149.58 25.5781 149.422 25.5781C149.265 25.5781 149.106 25.5387 148.949 25.46H148.474L148 25.4009C147.961 25.3616 147.881 25.3418 147.763 25.3418C147.25 25.3418 146.914 25.3025 146.756 25.2238C146.716 25.1844 146.618 25.1647 146.459 25.1647L146.164 25.0465C146.124 25.0465 146.064 25.0268 145.985 24.9875C145.907 24.948 145.807 24.9284 145.69 24.9284L145.156 24.8693C144.997 24.7906 144.879 24.7512 144.8 24.7512C143.971 24.5148 143.221 24.1605 142.549 23.6878C142.153 23.4515 141.976 23.1759 142.015 22.8609C142.055 22.8214 142.075 22.5064 142.075 21.9157C142.075 21.2856 142.094 20.8918 142.133 20.7342C142.212 20.5768 142.371 20.439 142.607 20.3208C142.647 20.2814 142.707 20.2617 142.786 20.2617C142.864 20.2617 142.924 20.242 142.964 20.2026C143.082 20.2026 143.161 20.183 143.2 20.1436L143.437 20.0845H143.793C143.951 20.0058 144.168 19.9663 144.445 19.9663L145.037 19.9073C145.077 19.9073 145.176 19.8876 145.333 19.8482C145.492 19.8089 145.669 19.7891 145.867 19.7891L146.993 19.73C147.111 19.6907 147.368 19.6709 147.763 19.6709C148.158 19.6709 148.395 19.6513 148.474 19.6119C148.671 19.5725 149.206 19.5135 150.074 19.4347C150.114 19.4347 150.766 19.3953 152.03 19.3166C152.741 19.1984 153.254 19.1393 153.571 19.1393C154.953 19.0212 155.822 19.0015 156.178 19.0803C156.375 19.0803 156.652 19.159 157.008 19.3166C157.363 19.4347 157.58 19.5331 157.66 19.6119L158.371 20.0254L158.607 20.2617C158.687 20.4192 158.706 20.5964 158.667 20.7933C158.627 20.8721 158.627 20.9706 158.667 21.0887C158.706 21.2462 158.726 21.4234 158.726 21.6203C158.687 21.6992 158.667 21.8172 158.667 21.9748C158.588 22.3293 158.528 22.5261 158.488 22.5655C158.45 22.6049 158.41 22.7624 158.371 23.0381C158.371 23.2744 158.331 23.4319 158.252 23.5106L158.014 23.806C157.974 23.8847 157.877 23.9636 157.72 24.0423L157.363 24.2195C157.126 24.3376 156.77 24.4755 156.296 24.633C156.099 24.633 155.981 24.6527 155.941 24.6921C155.743 24.7708 155.486 24.8496 155.17 24.9284C154.934 24.9284 154.539 25.0071 153.985 25.1647H153.631C153.314 25.1647 153.117 25.204 153.038 25.2827C153.038 25.3222 153.017 25.4207 152.978 25.5781C152.978 25.6963 152.978 25.9326 152.978 26.287V27.4094L152.919 28.2364L152.86 29.2997L152.8 29.9494L152.86 30.1857H152.978C153.295 30.1857 153.807 30.1266 154.518 30.0085C155.27 29.8904 155.822 29.851 156.178 29.8904L156.652 29.9494C156.731 30.0282 156.869 30.0676 157.066 30.0676C157.343 30.1464 157.501 30.2251 157.541 30.3039L158.193 30.5993C158.548 30.7567 158.726 30.8749 158.726 30.9536C158.884 31.1112 158.963 31.3278 158.963 31.6035L159.023 32.0169C159.062 32.0564 159.081 32.1351 159.081 32.2532L159.023 32.903C158.942 33.3756 158.904 33.5922 158.904 33.5529C158.864 33.5922 158.845 33.7498 158.845 34.0254C158.845 34.3404 158.824 34.498 158.785 34.498C158.745 34.6162 158.687 34.754 158.607 34.9115C158.528 35.0296 158.45 35.1281 158.371 35.2069C158.331 35.2856 158.134 35.4234 157.777 35.6203C157.423 35.7779 157.146 35.8764 156.949 35.9157L156.474 36.0929L154.934 36.5065L154.578 36.5655C154.578 36.5655 154.459 36.6049 154.222 36.6836L153.867 36.7427L153.631 36.8018C153.55 36.8018 153.393 36.8608 153.156 36.979L152.682 37.0971C152.366 37.1366 152.188 37.3137 152.149 37.6287L152.089 37.9832L152.03 38.3377C152.03 38.6133 152.01 38.7905 151.97 38.8693C151.932 39.0662 151.872 39.4009 151.792 39.8735C151.792 39.9522 151.773 40.031 151.734 40.1098C151.734 40.1886 151.753 40.2476 151.792 40.2871C151.792 40.3264 152.129 40.3854 152.8 40.4642C152.957 40.543 153.195 40.5823 153.511 40.5823L154.282 40.7596L154.815 40.8187L154.993 40.8777H155.11L155.822 40.9368L156.238 40.9959L156.652 41.055C156.77 41.0943 156.949 41.114 157.185 41.114C157.423 41.114 157.639 41.1337 157.837 41.1731L159.616 41.2912C159.93 41.3306 160.603 41.3503 161.63 41.3503H162.874L163.111 41.4684L163.467 41.5275L163.762 41.5866C163.762 41.626 163.842 41.6456 163.999 41.6456C164.513 41.6851 164.928 41.8229 165.244 42.0592L165.422 42.1183L165.777 42.2954L166.963 42.768C167.397 42.8074 167.634 43.2209 167.674 44.0086C167.713 44.5598 167.813 44.9537 167.97 45.1899C168.01 45.3081 168.01 45.4262 167.97 45.5444C167.97 45.5838 167.951 45.6429 167.911 45.7216C167.911 45.8004 167.93 45.9185 167.97 46.076V46.5486L167.911 47.0211C167.832 47.3362 167.773 47.5332 167.733 47.6119C167.694 47.7301 167.674 47.8875 167.674 48.0844C167.634 48.1633 167.634 48.2617 167.674 48.3798C167.713 48.4586 167.733 48.5176 167.733 48.5571C167.891 48.9114 167.891 49.1872 167.733 49.3841C167.654 49.5415 167.536 49.7188 167.377 49.9157C167.259 50.152 167.14 50.3489 167.022 50.5064C166.904 50.6246 166.726 50.7427 166.488 50.8608C166.449 50.9002 166.351 50.9199 166.192 50.9199C166.074 50.9593 165.936 50.9987 165.777 51.038C165.263 51.038 164.987 51.0578 164.948 51.0971ZM133.244 18.1942C133.244 18.1548 133.225 18.1155 133.186 18.076C133.186 18.0366 133.186 17.9775 133.186 17.8988C133.186 16.8749 133.206 15.9889 133.244 15.2406C133.324 14.4923 133.383 13.941 133.423 13.5866C133.501 13.3503 133.541 13.0943 133.541 12.8187C133.581 12.1492 133.66 11.5387 133.779 10.9875L133.837 10.2195C133.877 9.78627 133.955 9.55006 134.075 9.51064C134.272 9.51064 134.529 9.4319 134.845 9.27433C135.2 9.03811 135.576 8.9002 135.971 8.86088C136.958 8.66399 137.512 8.56549 137.63 8.56549C137.709 8.52617 137.787 8.50641 137.867 8.50641C137.986 8.50641 138.084 8.48675 138.164 8.44733C138.637 8.32918 139.171 8.23078 139.764 8.15205C140.119 8.15205 140.692 8.07321 141.482 7.91573C141.561 7.91573 141.679 7.89597 141.837 7.85665C141.996 7.81724 142.153 7.79758 142.312 7.79758C142.509 7.75816 142.766 7.7385 143.082 7.7385C143.161 7.69908 143.338 7.67942 143.615 7.67942C144.208 7.67942 144.662 7.64 144.979 7.56126C145.136 7.48253 145.807 7.40379 146.993 7.32495L147.407 7.26588L147.349 6.73427C147.31 6.45864 147.289 6.00568 147.289 5.37558V2.59922C147.25 2.36301 147.31 2.16611 147.467 2.00854C147.546 1.9298 147.684 1.89038 147.881 1.89038C148.357 1.89038 148.692 1.96912 148.889 2.12669L149.245 2.363L149.6 2.54024L149.778 2.65829C150.174 2.97334 150.47 3.30815 150.667 3.66252C150.707 3.78067 150.746 3.93825 150.785 4.13514C150.864 4.33204 150.964 4.54859 151.082 4.7849C151.121 4.94248 151.141 5.23777 151.141 5.67097L151.2 6.91151C151.279 6.95082 151.438 6.97059 151.675 6.97059C152.899 6.97059 153.788 6.97059 154.342 6.97059C154.934 6.93117 155.348 6.91151 155.585 6.91151C156.02 6.91151 156.375 6.95083 156.652 7.02966C157.52 7.14782 158.094 7.24622 158.371 7.32495L160.444 7.50219L161.274 7.56126C161.748 7.64 162.282 7.75816 162.874 7.91573C163.467 8.07321 163.902 8.23078 164.178 8.38826C164.73 8.7033 165.184 8.97904 165.541 9.21525C165.896 9.45156 166.134 9.64845 166.252 9.80603C166.291 9.92418 166.409 10.2983 166.608 10.9284C166.686 11.716 166.726 12.6021 166.726 13.5866C166.726 14.453 166.686 15.0831 166.608 15.4769L166.548 16.0676C166.509 16.1463 166.488 16.2448 166.488 16.363C166.488 16.4417 166.469 16.5205 166.429 16.5993C166.429 16.7568 166.39 16.9537 166.312 17.19C166.231 17.8201 166.152 18.1942 166.074 18.3124C165.798 18.7061 165.64 18.903 165.6 18.903H165.363C165.244 18.903 165.166 18.8637 165.126 18.7849C164.928 18.5487 164.79 18.4305 164.711 18.4305L164.592 18.1942C164.553 18.076 164.513 18.017 164.473 18.017L164.356 18.1351C164.158 18.332 163.999 18.332 163.881 18.1351C163.802 18.0957 163.684 18.076 163.526 18.076C163.367 18.1155 163.249 18.1155 163.17 18.076C163.091 18.0366 162.993 17.8397 162.874 17.4854C162.874 17.2885 162.834 17.1112 162.756 16.9537L162.696 16.2448C162.656 15.851 162.617 15.5753 162.577 15.4178C162.577 15.2603 162.558 15.1619 162.519 15.1224L162.341 15.0634H162.223C161.906 15.0634 161.471 15.0043 160.919 14.8861C160.839 14.8468 160.701 14.8271 160.503 14.8271L160.089 14.709L159.792 14.6499C159.635 14.6105 159.417 14.5908 159.141 14.5908C158.904 14.5908 158.706 14.5711 158.548 14.5318H155.585L154.163 14.5908C153.966 14.6302 153.807 14.6302 153.689 14.5908C153.492 14.5514 152.978 14.5514 152.149 14.5908C151.318 14.709 150.47 14.7681 149.6 14.7681L147.881 14.8271C147.289 14.8665 146.756 14.8665 146.282 14.8271C145.847 14.7877 145.453 14.7681 145.097 14.7681H143.556C143.318 14.8074 143.062 14.8271 142.786 14.8271C142.589 14.8271 142.43 14.8074 142.312 14.7681H142.015C141.739 14.7681 141.541 14.7877 141.422 14.8271C141.304 14.9452 141.147 14.9452 140.948 14.8271H140.771C140.376 14.8271 140.139 14.8468 140.06 14.8861H139.348C138.716 14.8861 138.341 14.9059 138.223 14.9452C138.183 14.9452 138.124 15.0043 138.044 15.1224C137.926 15.3193 137.887 15.8313 137.926 16.6584C138.006 17.1309 138.044 17.8595 138.044 18.844C138.044 20.1041 137.966 20.9706 137.807 21.4432C137.69 21.7976 137.512 21.8566 137.275 21.6203C137.236 21.5416 137.176 21.4825 137.097 21.4432C137.018 21.4432 136.979 21.5219 136.979 21.6794C136.9 21.837 136.801 21.9748 136.682 22.0929C136.564 22.2111 136.465 22.2898 136.386 22.3293C136.228 22.3686 136.108 22.3095 136.03 22.152L135.437 21.5612C135.397 21.4432 135.34 21.4234 135.259 21.5022C135.259 21.5022 135.22 21.5416 135.141 21.6203C135.102 21.6597 135.003 21.6401 134.845 21.5612C134.766 21.4825 134.667 21.4432 134.548 21.4432C134.312 21.4825 134.134 21.4234 134.015 21.266C133.976 21.2265 133.955 21.1084 133.955 20.9115C133.955 20.754 133.937 20.6555 133.897 20.6161L133.779 20.557C133.7 20.4783 133.64 20.2223 133.601 19.7891C133.443 18.844 133.324 18.3124 133.244 18.1942Z" fill="#FF5F1F"/>
</svg>
