<svg width="120" height="120" viewBox="0 0 120 120" fill="none" xmlns="http://www.w3.org/2000/svg">
<path d="M69.5266 42.2995C75.1327 38.2743 83.1213 32.0388 85.8626 27.405C87.9984 23.7949 88.7625 20.5603 88.7625 16.7845C88.7625 7.45359 82.1672 2.34375 74.6817 2.34375C67.3216 2.34375 64.5063 6.96398 63.6581 8.89477M63.6581 8.89477C62.8111 6.96398 60.0162 2.34375 52.6561 2.34375C45.1706 2.34375 38.5859 7.45359 38.5859 16.7845C38.5859 20.5603 39.3553 23.7949 41.4909 27.405C44.49 32.4743 53.8812 39.5454 59.4309 43.4521M63.6581 8.89477C61.315 12.4905 62.3306 17.3037 65.9263 19.6467" stroke="#FF5F1F" stroke-width="4.6875" stroke-miterlimit="10" stroke-linecap="round" stroke-linejoin="round"/>
<path d="M31.2383 85.2879L39.5234 93.3068V100.977H60.6327V90.8526L67.7241 90.3394C69.6971 90.1966 71.3881 88.8752 72.0006 86.9944C73.7366 81.6626 77.0492 70.9676 77.0492 66.9783V50.7701C77.0492 47.0079 72.6995 44.9109 69.7522 47.2521L69.17 47.7145M69.17 47.7145V68.1867M69.17 47.7145V32.9126C69.17 30.2937 67.0468 28.1707 64.4279 28.1707C61.809 28.1707 59.6858 30.2937 59.6858 32.9126V51.296M59.6858 51.296C59.6881 51.2524 59.6858 55.1515 59.6858 55.1515V51.296ZM59.6858 51.296C59.506 48.848 57.4288 46.919 54.9303 46.919C52.4345 46.919 50.3567 48.848 50.1772 51.296M50.1772 51.296C49.9974 48.848 47.9527 46.9188 45.4543 46.919C44.146 46.919 42.9627 47.4487 42.1037 48.3051C41.3258 49.0844 40.8172 50.1312 40.7319 51.296L40.6988 56.3306C40.517 53.8387 38.4001 51.8855 35.8428 51.9558C33.3488 52.0258 31.3742 54.0687 31.2448 56.534L31.2399 65.2732M50.1772 51.296L50.1771 54.9264M63.1837 117.656H37.3366V100.977H63.1837V117.656Z" stroke="#4A443D" stroke-width="4.6875" stroke-miterlimit="10" stroke-linecap="round" stroke-linejoin="round"/>
</svg>
