<svg width="120" height="120" viewBox="0 0 120 120" fill="none" xmlns="http://www.w3.org/2000/svg">
<path d="M59.5063 117.656L23.9115 100.661V67.0024M59.5063 117.656V61.8652M59.5063 117.656L95.1011 100.661V89.7607M95.101 44.7195L76.6857 37.6189M95.101 44.7195L104.031 62.9287L71.7772 77.9313C70.4762 78.5364 68.9293 78.0168 68.2569 76.7493L59.5062 60.2466M95.101 44.7195L59.5062 60.2466M42.3294 37.6179L23.9115 44.7195M23.9115 44.7195L16.2987 58.6985C15.5757 60.0263 16.085 61.6887 17.4277 62.3836L47.1849 77.7835C48.4983 78.4631 50.1143 77.9583 50.8071 76.6517L59.5062 60.2466M23.9115 44.7195L59.5062 60.2466" stroke="#4A443D" stroke-width="4.6875" stroke-miterlimit="10" stroke-linecap="round" stroke-linejoin="round"/>
<path d="M59.4878 9.45821C60.4092 7.36149 63.4663 2.34375 71.4597 2.34375C79.589 2.34375 86.7517 7.89329 86.7517 18.0267C86.7517 22.1273 85.9218 25.6401 83.6024 29.5605C78.839 37.6125 59.4867 50.1178 59.4867 50.1178C59.4867 50.1178 40.1404 37.5501 35.414 29.5605C33.0946 25.6401 32.2588 22.1273 32.2588 18.0267C32.2588 7.89329 39.4099 2.34375 47.5392 2.34375C55.5325 2.34375 58.5679 7.36149 59.4878 9.45821ZM59.4878 9.45821C56.9432 13.3631 58.0462 18.591 61.9511 21.1354" stroke="#FF5F1F" stroke-width="4.6875" stroke-miterlimit="10" stroke-linecap="round" stroke-linejoin="round"/>
</svg>
