<svg width="40" height="40" viewBox="0 0 40 40" fill="none" xmlns="http://www.w3.org/2000/svg">
<path d="M12.2623 16.8018C14.2322 16.8018 19.4451 19.9555 19.4451 23.3665C19.4451 31.5292 19.2872 31.5292 12.9507 31.5292C5.26578 31.5292 5.00012 31.1508 5.00012 23.4609C5.00012 20.8243 9.77028 16.8018 12.2623 16.8018Z" fill="url(#paint0_linear_64_1397)"/>
<path d="M34.1774 20.8243C34.1774 19.0123 34.2668 17.4368 34.2668 13.9398C34.2668 10.9682 32.2534 9.33835 29.6528 9.33835C28.4323 9.33835 28.094 9.87301 27.2744 9.87301C26.5526 9.87301 26.1608 9.33835 24.6997 9.33835C23.0247 9.33835 20.709 11.0593 20.709 13.3241C20.709 17.0199 20.9362 18.4935 20.9362 19.8461V27.546C20.9362 29.104 21.8727 31.3688 24.4148 31.3688C25.4516 31.3688 26.4415 31.3145 27.3187 31.3145C28.1424 31.3145 30.0004 31.4415 30.9711 31.4415C35.4965 31.4415 34.1782 23.6388 34.1782 20.8252L34.1774 20.8243ZM27.4758 24.0749C26.0263 24.0749 25.2076 23.4216 25.2076 22.4433C25.2076 21.4166 27.2728 21.775 27.2728 20.217C27.2728 18.659 24.9746 19.0574 24.9746 17.4409C24.9746 16.3541 25.8709 15.1828 27.2936 15.1828C29.7222 15.1828 30.3738 16.4794 30.3738 17.258C30.3738 19.3841 27.8283 17.7901 27.8283 19.3841C27.8283 20.6405 30.3922 20.6297 30.3922 21.9379C30.3922 22.7558 29.9285 24.0757 27.4766 24.0757L27.4758 24.0749Z" fill="url(#paint1_linear_64_1397)"/>
<path d="M5.43445 12.0192C5.43445 9.65162 9.39594 9 12.6816 9C15.9672 9 19.445 10.5221 19.445 12.4786C19.445 14.4351 18.1886 15.6072 15.2663 15.6072C12.3441 15.6072 5.43445 15.8127 5.43445 12.02V12.0192Z" fill="url(#paint2_linear_64_1397)"/>
<defs>
<linearGradient id="paint0_linear_64_1397" x1="6.90194" y1="17.0302" x2="17.4089" y2="15.955" gradientUnits="userSpaceOnUse">
<stop stop-color="#FF5F1F"/>
<stop offset="1" stop-color="#FF8C5E"/>
</linearGradient>
<linearGradient id="paint1_linear_64_1397" x1="22.5059" y1="9.68111" x2="32.4955" y2="9.03756" gradientUnits="userSpaceOnUse">
<stop stop-color="#FF5F1F"/>
<stop offset="1" stop-color="#FF8C5E"/>
</linearGradient>
<linearGradient id="paint2_linear_64_1397" x1="7.27908" y1="9.10249" x2="17.0965" y2="6.93117" gradientUnits="userSpaceOnUse">
<stop stop-color="#FF5F1F"/>
<stop offset="1" stop-color="#FF8C5E"/>
</linearGradient>
</defs>
</svg>
