<svg width="40" height="40" viewBox="0 0 40 40" fill="none" xmlns="http://www.w3.org/2000/svg">
<path d="M12.2622 16.8027C14.2321 16.8027 19.445 19.9564 19.445 23.3674C19.445 31.5301 19.2871 31.5301 12.9506 31.5301C5.26566 31.5301 5 31.1517 5 23.4618C5 20.8252 9.77016 16.8027 12.2622 16.8027Z" fill="url(#paint0_linear_1392_44319)"/>
<path d="M34.1774 20.8238C34.1774 19.0118 34.2668 17.4363 34.2668 13.9393C34.2668 10.9677 32.2534 9.33789 29.6528 9.33789C28.4323 9.33789 28.094 9.87255 27.2744 9.87255C26.5526 9.87255 26.1608 9.33789 24.6997 9.33789C23.0247 9.33789 20.709 11.0588 20.709 13.3236C20.709 17.0194 20.9362 18.493 20.9362 19.8456V27.5455C20.9362 29.1035 21.8727 31.3683 24.4148 31.3683C25.4516 31.3683 26.4415 31.314 27.3187 31.314C28.1424 31.314 30.0004 31.441 30.9711 31.441C35.4965 31.441 34.1782 23.6383 34.1782 20.8247L34.1774 20.8238ZM27.4758 24.0744C26.0263 24.0744 25.2076 23.4211 25.2076 22.4428C25.2076 21.4161 27.2728 21.7745 27.2728 20.2165C27.2728 18.6585 24.9746 19.0569 24.9746 17.4404C24.9746 16.3536 25.8709 15.1823 27.2936 15.1823C29.7222 15.1823 30.3738 16.4789 30.3738 17.2575C30.3738 19.3836 27.8283 17.7896 27.8283 19.3836C27.8283 20.64 30.3922 20.6292 30.3922 21.9374C30.3922 22.7553 29.9285 24.0752 27.4766 24.0752L27.4758 24.0744Z" fill="url(#paint1_linear_1392_44319)"/>
<path d="M5.43359 12.0192C5.43359 9.65162 9.39508 9 12.6807 9C15.9663 9 19.4441 10.5221 19.4441 12.4786C19.4441 14.4351 18.1877 15.6072 15.2654 15.6072C12.3432 15.6072 5.43359 15.8119 5.43359 12.0192Z" fill="url(#paint2_linear_1392_44319)"/>
<defs>
<linearGradient id="paint0_linear_1392_44319" x1="6.90182" y1="17.0311" x2="17.4088" y2="15.9559" gradientUnits="userSpaceOnUse">
<stop stop-color="#FF5F1F"/>
<stop offset="1" stop-color="#FF8C5E"/>
</linearGradient>
<linearGradient id="paint1_linear_1392_44319" x1="22.5059" y1="9.68065" x2="32.4955" y2="9.0371" gradientUnits="userSpaceOnUse">
<stop stop-color="#FF5F1F"/>
<stop offset="1" stop-color="#FF8C5E"/>
</linearGradient>
<linearGradient id="paint2_linear_1392_44319" x1="7.27822" y1="9.10249" x2="17.0956" y2="6.93117" gradientUnits="userSpaceOnUse">
<stop stop-color="#FF5F1F"/>
<stop offset="1" stop-color="#FF8C5E"/>
</linearGradient>
</defs>
</svg>
