<?xml version="1.0" encoding="UTF-8"?>
<svg id="_圖層_1" data-name="圖層_1" xmlns="http://www.w3.org/2000/svg" version="1.1" xmlns:xlink="http://www.w3.org/1999/xlink" viewBox="0 0 45.35 45.35">
  <!-- Generator: Adobe Illustrator 29.6.1, SVG Export Plug-In . SVG Version: 2.1.1 Build 9)  -->
  <defs>
    <style>
      .st0 {
        fill: url(#_未命名漸層_21);
      }

      .st1 {
        fill: url(#_未命名漸層_31);
      }

      .st2 {
        fill: url(#_未命名漸層);
      }

      .st3 {
        fill: url(#_未命名漸層_2);
      }

      .st4 {
        fill: url(#_未命名漸層_3);
      }

      .st5 {
        fill: url(#_未命名漸層1);
      }
    </style>
    <linearGradient id="_未命名漸層" data-name="未命名漸層" x1="3.92" y1="15.72" x2="19.19" y2="17.29" gradientTransform="translate(0 45.24) scale(1 -1)" gradientUnits="userSpaceOnUse">
      <stop offset="0" stop-color="#ff5f1f"/>
      <stop offset="1" stop-color="#ff8c5e"/>
    </linearGradient>
    <linearGradient id="_未命名漸層_2" data-name="未命名漸層 2" x1="26.48" y1="21.69" x2="41" y2="22.62" gradientTransform="translate(0 45.24) scale(1 -1)" gradientUnits="userSpaceOnUse">
      <stop offset="0" stop-color="#ff5f1f"/>
      <stop offset="1" stop-color="#ff8c5e"/>
    </linearGradient>
    <linearGradient id="_未命名漸層_3" data-name="未命名漸層 3" x1="4.7" y1="32.24" x2="18.97" y2="35.4" gradientTransform="translate(0 45.24) scale(1 -1)" gradientUnits="userSpaceOnUse">
      <stop offset="0" stop-color="#ff5f1f"/>
      <stop offset="1" stop-color="#ff8c5e"/>
    </linearGradient>
    <linearGradient id="_未命名漸層1" data-name="未命名漸層" x1="69.36" y1="17.78" x2="79.87" y2="18.85" xlink:href="#_未命名漸層"/>
    <linearGradient id="_未命名漸層_21" data-name="未命名漸層 2" x1="84.88" y1="21.88" x2="94.87" y2="22.52" xlink:href="#_未命名漸層_2"/>
    <linearGradient id="_未命名漸層_31" data-name="未命名漸層 3" x1="69.9" y1="29.14" x2="79.72" y2="31.31" xlink:href="#_未命名漸層_3"/>
  </defs>
  <g>
    <path class="st2" d="M10.56,17.91c2.86,0,10.44,4.58,10.44,9.54,0,11.87-.23,11.87-9.44,11.87-11.17,0-11.56-.55-11.56-11.73,0-3.83,6.93-9.68,10.56-9.68Z"/>
    <path class="st3" d="M42.41,23.75c0-2.63.13-4.92.13-10.01,0-4.32-2.93-6.69-6.71-6.69-1.77,0-2.27.78-3.46.78-1.05,0-1.62-.78-3.74-.78-2.43,0-5.8,2.5-5.8,5.79,0,5.37.33,7.51.33,9.48v11.19c0,2.26,1.36,5.56,5.06,5.56,1.51,0,2.95-.08,4.22-.08,1.2,0,3.9.18,5.31.18,6.58,0,4.66-11.34,4.66-15.43h0ZM32.67,28.48c-2.11,0-3.3-.95-3.3-2.37,0-1.49,3-.97,3-3.24s-3.34-1.69-3.34-4.04c0-1.58,1.3-3.28,3.37-3.28,3.53,0,4.48,1.88,4.48,3.02,0,3.09-3.7.77-3.7,3.09,0,1.83,3.73,1.81,3.73,3.71,0,1.19-.67,3.11-4.24,3.11h0Z"/>
    <path class="st4" d="M.63,10.96c0-3.44,5.76-4.39,10.53-4.39s9.83,2.21,9.83,5.06-1.83,4.55-6.07,4.55S.63,16.47.63,10.96Z"/>
  </g>
  <g>
    <path class="st5" d="M73.93,19.48c1.97,0,7.18,3.15,7.18,6.56,0,8.16-.16,8.16-6.49,8.16-7.68,0-7.95-.38-7.95-8.07,0-2.64,4.77-6.66,7.26-6.66Z"/>
    <path class="st0" d="M95.84,23.5c0-1.81.09-3.39.09-6.88,0-2.97-2.01-4.6-4.61-4.6-1.22,0-1.56.53-2.38.53-.72,0-1.11-.53-2.57-.53-1.67,0-3.99,1.72-3.99,3.99,0,3.7.23,5.17.23,6.52v7.7c0,1.56.94,3.82,3.48,3.82,1.04,0,2.03-.05,2.9-.05.82,0,2.68.13,3.65.13,4.53,0,3.21-7.8,3.21-10.62h0ZM89.14,26.75c-1.45,0-2.27-.65-2.27-1.63,0-1.03,2.07-.67,2.07-2.23s-2.3-1.16-2.3-2.78c0-1.09.9-2.26,2.32-2.26,2.43,0,3.08,1.3,3.08,2.08,0,2.13-2.55.53-2.55,2.13,0,1.26,2.56,1.25,2.56,2.55,0,.82-.46,2.14-2.92,2.14h0Z"/>
    <path class="st1" d="M67.1,14.7c0-2.37,3.96-3.02,7.25-3.02s6.76,1.52,6.76,3.48-1.26,3.13-4.18,3.13-9.83.2-9.83-3.59Z"/>
  </g>
</svg>