<svg width="204" height="57" viewBox="0 0 204 57" fill="none" xmlns="http://www.w3.org/2000/svg">
<g clip-path="url(#clip0_290_5154)">
<path d="M192.006 56.2792C191.705 56.2792 191.511 56.2148 191.425 56.0861L191.166 56.0218H190.843C190.756 55.979 190.67 55.979 190.584 56.0218L190.067 56.0861C189.981 56.0861 189.895 56.1077 189.809 56.1505C189.766 56.1934 189.701 56.2148 189.615 56.2148C189.4 56.3435 189.271 56.3221 189.228 56.1505C189.228 56.1077 189.141 55.8503 188.969 55.3785C188.797 55.0782 188.689 54.7565 188.646 54.4134C188.517 54.156 188.388 53.963 188.259 53.8343C188.129 53.577 188.065 53.4054 188.065 53.3196L187.871 52.8692C187.785 52.6977 187.742 52.5047 187.742 52.2902C187.699 52.0758 187.613 51.9041 187.483 51.7755C187.354 51.6469 187.29 51.561 187.29 51.5182L187.354 50.746L187.548 49.7166C187.548 49.4164 187.57 49.202 187.613 49.0733V46.8858C187.613 44.9986 187.591 43.8833 187.548 43.5402C187.548 43.197 187.548 43.0041 187.548 42.9612C187.505 42.8754 187.505 42.7253 187.548 42.5108L187.483 41.5457C187.483 41.3742 187.505 41.2455 187.548 41.1597V39.5512L187.613 38.1358C187.656 38.0071 187.656 37.857 187.613 37.6854V37.1708L187.677 36.1414L187.742 34.9833C187.828 34.6829 187.828 34.49 187.742 34.4041C187.742 34.2755 187.677 34.1897 187.548 34.1469C187.505 34.1469 187.397 34.1469 187.225 34.1469C187.053 34.1039 186.772 34.0825 186.384 34.0825C185.738 34.0825 185.394 34.061 185.351 34.0182H184.899L183.025 33.7608L181.733 33.5034C181.259 33.4177 180.828 33.2676 180.441 33.0531C180.053 32.8387 179.838 32.667 179.795 32.5384C179.752 32.4097 179.709 32.3453 179.666 32.3453C179.666 32.3025 179.643 32.2596 179.6 32.2166C179.557 32.1309 179.514 32.0665 179.471 32.0237C179.385 31.8521 179.342 31.5733 179.342 31.1872L179.277 30.8013L179.342 30.6726L179.277 30.4795L179.148 30.2222C179.019 30.1364 178.933 30.0721 178.89 30.0292C178.846 29.9434 178.868 29.8576 178.954 29.7718C178.954 29.6861 178.976 29.6217 179.019 29.5788C179.105 29.4931 179.148 29.4287 179.148 29.3858C179.148 29.3858 179.191 29.343 179.277 29.2571C179.623 29.1284 179.858 28.9998 179.989 28.8711C180.204 28.5708 180.484 28.4207 180.828 28.4207C180.958 28.4207 181.13 28.3993 181.345 28.3564C181.56 28.3135 181.733 28.2492 181.862 28.1633C181.905 28.1633 181.948 28.1419 181.991 28.099C182.077 28.0562 182.185 28.0347 182.314 28.0347C182.917 27.9061 183.24 27.8202 183.283 27.7774L183.671 27.713L185.157 27.4556L187.03 27.327C187.376 27.327 187.591 27.327 187.677 27.327C187.806 27.2841 187.893 27.2626 187.936 27.2626C188.065 27.2626 188.129 26.8123 188.129 25.9116L188.194 24.6891C188.237 24.4318 188.259 24.2601 188.259 24.1744C188.259 24.0886 188.216 24.0243 188.129 23.9813H187.161C186.815 23.9813 186.578 23.9813 186.449 23.9813C186.32 23.9385 186.212 23.8956 186.126 23.8528C186.083 23.8098 185.954 23.7669 185.738 23.7241C185.006 23.6811 184.554 23.5954 184.382 23.4667C184.167 23.2522 183.865 23.1236 183.478 23.0806C182.96 23.0378 182.508 22.8662 182.12 22.566V22.2442L182.056 21.6652L181.991 20.7002C181.948 20.4857 181.926 20.2068 181.926 19.8637C181.84 19.6064 181.797 19.2418 181.797 18.7699C181.797 18.5127 181.819 18.2982 181.862 18.1266C181.862 17.8264 181.905 17.6334 181.991 17.5476C182.163 17.2902 182.379 17.2259 182.637 17.3546C182.938 17.3546 183.154 17.2473 183.283 17.0328C183.413 16.9041 183.499 16.8398 183.542 16.8398C183.715 16.8398 184.016 16.8184 184.447 16.7755C184.92 16.6897 185.566 16.6254 186.384 16.5825C186.729 16.5825 186.901 16.561 186.901 16.5182L187.806 16.4538C188.366 16.4538 188.689 16.4323 188.775 16.3895C188.861 16.3466 188.926 16.1535 188.969 15.8104V14.7166L189.034 13.7516C189.12 13.194 189.141 12.9152 189.098 12.9152C189.012 12.9152 188.969 12.9795 188.969 13.1082C188.969 13.2369 188.948 13.3227 188.905 13.3656L188.84 13.8159C188.84 14.0733 188.797 14.2449 188.711 14.3307C188.668 14.3735 188.539 14.4378 188.323 14.5237L188 14.6523C187.914 14.6952 187.806 14.7166 187.677 14.7166C187.548 14.6738 187.44 14.6309 187.354 14.5881L187.03 14.395L186.772 14.2663C186.514 14.1376 186.363 14.0733 186.32 14.0733C185.803 13.8588 185.415 13.6015 185.157 13.3013L184.834 13.0439C184.748 12.9581 184.683 12.9152 184.64 12.9152L184.382 12.5292L183.994 12.0788L183.607 11.6927C183.478 11.607 183.413 11.5212 183.413 11.4354L183.089 10.9851L182.572 10.3417L182.379 9.89131C182.336 9.89131 182.314 9.86987 182.314 9.82698C182.314 9.78409 182.292 9.74119 182.249 9.6983C182.249 9.61252 182.206 9.54817 182.12 9.50528C182.077 9.41949 182.056 9.35516 182.056 9.31227C181.969 9.18359 181.926 8.96913 181.926 8.66889C181.926 8.23997 181.948 7.91828 181.991 7.70381C181.991 7.01753 182.013 6.48138 182.056 6.09536V5.00161C182.099 4.95871 182.12 4.8086 182.12 4.55124C182.12 4.33678 182.142 4.2081 182.185 4.16521C182.228 4.12232 182.336 4.07942 182.508 4.03653C182.68 3.99364 182.895 4.01509 183.154 4.10088L183.994 4.42256L184.447 4.67992L185.351 5.25896C185.997 5.77366 186.514 6.30981 186.901 6.86742C187.03 7.12477 187.161 7.31778 187.29 7.44646C187.333 7.48935 187.527 7.93972 187.871 8.79757C188.345 9.61252 188.689 10.0629 188.905 10.1487C189.163 10.4489 189.249 10.7492 189.163 11.0494C189.12 11.1781 189.098 11.2853 189.098 11.3711C189.141 11.4569 189.184 11.5212 189.228 11.5641L189.292 11.2424L189.357 10.792C189.4 10.7492 189.421 10.599 189.421 10.3417V9.6983C189.507 9.05491 189.594 8.3043 189.68 7.44646L189.809 5.96668C189.852 5.79511 189.873 5.58065 189.873 5.3233C189.873 5.02306 189.895 4.72281 189.938 4.42256C189.981 3.82208 190.046 3.3717 190.132 3.07147C190.175 2.98568 190.196 2.83555 190.196 2.62109C190.196 2.32085 190.347 2.0206 190.65 1.72036C190.779 1.59168 190.886 1.52734 190.973 1.52734C191.188 1.52734 191.425 1.65602 191.683 1.91338C192.071 2.25651 192.286 2.59965 192.329 2.94279L192.523 3.71484L192.652 4.48691C192.652 4.65847 192.674 4.7657 192.717 4.8086C192.717 5.02306 192.738 5.19462 192.781 5.3233L192.846 6.03102L193.04 8.0255C193.04 8.19707 193.061 8.36864 193.104 8.54021C193.147 8.71178 193.169 8.81901 193.169 8.8619C193.212 8.9048 193.233 9.1407 193.233 9.56962C193.233 9.99855 193.276 10.213 193.363 10.213H193.427C193.47 10.213 193.513 10.1701 193.556 10.0843C193.642 9.99855 193.707 9.91276 193.75 9.82698L193.815 9.31227C193.901 8.92624 194.008 8.60455 194.138 8.34719C194.182 8.3043 194.202 8.23997 194.202 8.15418L194.397 7.70381C194.569 7.40357 194.698 7.232 194.785 7.18911C195.258 6.7173 195.581 6.30981 195.753 5.96668C195.84 5.75222 196.012 5.51632 196.27 5.25896C196.399 5.17318 196.593 4.93727 196.852 4.55124L197.045 4.29389L197.175 4.22955C197.175 4.22955 197.218 4.18666 197.304 4.10088C197.347 4.01509 197.454 3.9722 197.627 3.9722C197.799 4.01509 197.928 4.03653 198.014 4.03653C198.101 3.99364 198.166 3.95075 198.209 3.90785C198.252 3.82208 198.295 3.77919 198.338 3.77919C198.424 3.73629 198.554 3.71484 198.726 3.71484C198.898 3.71484 199.049 3.77919 199.178 3.90785L199.63 4.16521C200.104 4.37967 200.362 4.55124 200.405 4.67992C200.448 4.7657 200.47 4.89438 200.47 5.06594L200.534 5.51632C200.577 5.6021 200.599 6.05247 200.599 6.86742C200.599 7.46791 200.577 7.91828 200.534 8.21853C200.491 8.47587 200.405 8.69033 200.276 8.8619C200.233 8.94769 200.168 9.01202 200.082 9.05491C199.996 9.09781 199.932 9.16215 199.888 9.24794C199.716 9.50528 199.544 9.71974 199.372 9.89131C199.286 9.89131 199.221 9.91276 199.178 9.95566C199.178 9.99855 199.156 10.02 199.113 10.02C199.113 10.1487 198.812 10.4704 198.209 10.9851C197.605 11.4998 197.304 11.7786 197.304 11.8214C197.261 11.8214 197.218 11.8644 197.175 11.9501C197.175 11.9931 197.153 12.0145 197.11 12.0145L196.722 12.2718C196.55 12.4434 196.442 12.5292 196.399 12.5292L196.141 12.9152C195.969 13.1726 195.818 13.2369 195.689 13.1082L195.495 13.0439C195.366 13.1296 195.215 13.2583 195.043 13.43C194.871 13.6015 194.742 13.7516 194.655 13.8803L194.397 14.1376C194.311 14.2663 194.225 14.3521 194.138 14.395C194.095 14.395 194.052 14.3307 194.008 14.202L193.879 13.9446C193.836 13.9018 193.75 13.8803 193.621 13.8803C193.535 13.8803 193.449 13.9232 193.363 14.0089L193.233 14.0733V15.1027C193.233 15.4888 193.233 15.7676 193.233 15.9391C193.276 16.1107 193.319 16.1965 193.363 16.1965C193.363 16.2394 193.599 16.2608 194.073 16.2608C194.677 16.2179 195.387 16.2179 196.206 16.2608C197.024 16.2608 197.476 16.2822 197.562 16.3252L198.338 16.4538C198.424 16.4538 198.704 16.5182 199.178 16.6469C199.307 16.8184 199.501 16.9471 199.759 17.0328C200.233 17.3332 200.491 17.569 200.534 17.7406C200.577 17.8264 200.599 17.9336 200.599 18.0622C200.556 18.148 200.577 18.3196 200.664 18.577C200.75 18.7915 200.771 18.9416 200.728 19.0273L200.599 20.6358V21.1505C200.642 21.3221 200.642 21.4293 200.599 21.4722C200.513 21.6437 200.405 21.7939 200.276 21.9225C200.147 22.0512 200.018 22.1371 199.888 22.1799L199.566 22.3086C199.221 22.4802 198.855 22.566 198.467 22.566H198.144C197.885 22.7375 197.605 22.8233 197.304 22.8233H196.399C196.055 22.8233 195.84 22.8662 195.753 22.9519L195.431 23.0163L194.914 23.145C194.828 23.145 194.742 23.1665 194.655 23.2093C194.612 23.2093 194.569 23.1879 194.526 23.145H194.397C194.095 23.145 193.815 23.2093 193.556 23.338C193.427 23.4238 193.319 23.531 193.233 23.6597V24.0457C193.319 24.1315 193.363 24.6248 193.363 25.5255C193.363 26.4692 193.384 26.9624 193.427 27.0052C193.47 27.0482 194.008 27.0696 195.043 27.0696H196.852L198.274 27.1339L199.566 27.1983C199.609 27.2412 199.802 27.2626 200.147 27.2626C200.491 27.2626 200.75 27.2841 200.922 27.327L201.374 27.4556L202.925 27.9704C202.968 27.9704 203.055 28.0132 203.184 28.099C203.313 28.1849 203.399 28.2492 203.442 28.292C203.701 28.5494 203.787 28.7853 203.701 28.9998C203.701 29.1284 203.744 29.2571 203.83 29.3858C203.916 29.6861 203.937 29.9434 203.894 30.1578C203.851 30.2865 203.83 30.5225 203.83 30.8656L203.765 31.702L203.83 32.0881C203.959 32.4312 203.916 32.71 203.701 32.9244C203.571 33.1389 203.442 33.289 203.313 33.3747C203.184 33.4177 202.925 33.482 202.538 33.5678C202.193 33.6535 202 33.7179 201.956 33.7608C201.87 33.8037 201.482 33.8037 200.793 33.7608L200.405 33.8895C200.276 33.9323 199.91 33.9753 199.307 34.0182C198.704 34.0182 198.338 34.0396 198.209 34.0825C198.123 34.1254 198.014 34.1469 197.885 34.1469L197.368 34.0825C197.325 33.9967 197.196 33.9967 196.981 34.0825H196.529L195.043 34.2112C194.914 34.254 194.655 34.2755 194.268 34.2755C193.922 34.2755 193.75 34.297 193.75 34.3398C193.535 34.4685 193.47 34.8116 193.556 35.3692C193.642 35.7123 193.707 36.5702 193.75 37.9428C193.75 38.8006 193.772 39.5298 193.815 40.1303V42.5108C193.858 42.7681 193.879 43.0899 193.879 43.4758C193.965 45.5346 194.008 47.1217 194.008 48.2369C194.008 49.7382 193.965 50.7032 193.879 51.1321C193.879 51.4323 193.858 51.6683 193.815 51.8398C193.772 52.4403 193.621 53.2767 193.363 54.349C193.061 55.1211 192.824 55.6358 192.652 55.8931C192.566 56.0218 192.48 56.1077 192.394 56.1505C192.307 56.2362 192.178 56.2792 192.006 56.2792ZM158.408 15.8104L158.602 15.6175C158.688 15.4458 158.839 15.3172 159.054 15.2314C159.14 15.2314 159.226 15.1885 159.313 15.1027L159.765 14.9097C160.109 14.6952 160.368 14.5022 160.54 14.3307C160.755 13.9875 160.971 13.7731 161.186 13.6872C161.444 13.5157 161.616 13.4084 161.704 13.3656C161.79 13.2797 161.854 13.2155 161.897 13.1726L162.091 12.9795C162.134 12.9367 162.199 12.8938 162.285 12.8508C162.371 12.7651 162.457 12.7007 162.543 12.6578L163.06 12.2075L163.512 11.9501L164.287 11.4354L164.61 11.1781C164.998 10.9636 165.236 10.8349 165.322 10.792L165.968 10.406L166.743 9.95566L167.324 9.63396L168.229 9.11926C168.358 9.07636 168.552 9.01202 168.811 8.92624C169.112 8.79757 169.414 8.64744 169.715 8.47587L170.038 8.28286C170.34 8.11129 170.533 8.0255 170.62 8.0255L171.201 7.83249C171.459 7.74671 171.739 7.70381 172.041 7.70381C172.342 7.70381 172.623 7.72526 172.881 7.76815C173.527 7.98261 173.872 8.11129 173.915 8.15418C174.044 8.28286 174.238 8.43298 174.496 8.60455C174.755 8.73322 174.97 8.84045 175.142 8.92624C175.357 8.96913 175.53 9.37661 175.659 10.1487C175.702 10.5776 175.723 11.0708 175.723 11.6284C175.723 12.1432 175.702 12.5506 175.659 12.8508C175.616 13.0225 175.616 13.194 175.659 13.3656C175.702 13.7087 175.659 13.9875 175.53 14.202C175.357 14.5451 175.164 14.7166 174.948 14.7166C174.819 14.7166 174.518 14.8883 174.044 15.2314L173.527 15.6175L173.075 15.8747C172.774 16.1321 172.58 16.2608 172.494 16.2608C172.408 16.3037 172.342 16.3681 172.299 16.4538C171.825 16.754 171.545 16.9257 171.459 16.9685C171.33 17.0114 171.222 17.0972 171.136 17.2259C171.05 17.3116 170.986 17.4189 170.942 17.5476L170.878 17.6763L171.007 18.384C171.05 18.4269 171.072 18.4911 171.072 18.577C171.072 18.6628 171.093 18.7271 171.136 18.7699L171.395 20.3141L171.459 21.0218C171.502 21.1505 171.524 21.3649 171.524 21.6652C171.567 21.751 171.588 21.8583 171.588 21.9869C171.588 22.1155 171.61 22.2228 171.653 22.3086L171.718 23.145L171.782 23.7884L171.847 24.3031L171.911 25.1394C172.041 26.5979 172.105 29.4931 172.105 33.8252C172.105 38.3717 172.019 41.6744 171.847 43.7332L171.718 44.827C171.588 46.2424 171.502 47.0145 171.459 47.1432C171.416 47.2718 171.395 47.4649 171.395 47.7222C171.395 47.8938 171.373 48.1296 171.33 48.4299C171.287 48.6872 171.222 48.9232 171.136 49.1376L171.007 49.7166C171.007 49.974 170.964 50.1456 170.878 50.2314L170.749 50.8747C170.706 51.175 170.598 51.5182 170.426 51.9041C170.253 52.2902 170.103 52.569 169.974 52.7406C169.715 53.0837 169.478 53.0837 169.263 52.7406C169.177 52.569 169.026 52.4403 168.811 52.3546C168.724 52.3546 168.595 52.2688 168.422 52.0972L168.164 51.9685C168.078 51.9685 168.013 51.99 167.97 52.0328C167.884 52.1186 167.755 52.1615 167.583 52.1615C167.496 52.1615 167.389 52.1615 167.26 52.1615C167.174 52.1186 167.066 52.1186 166.937 52.1615C166.807 52.2045 166.678 52.2259 166.549 52.2259C166.463 52.2259 166.398 52.2045 166.355 52.1615C166.269 52.1615 166.226 52.1186 166.226 52.0328C166.14 51.9471 166.054 51.6469 165.968 51.1321C165.968 50.8747 165.925 50.6603 165.839 50.4888L165.645 49.5237C165.602 49.2663 165.516 49.0519 165.386 48.8803L165.257 48.3656L165.193 47.9795L164.933 46.8858C164.933 46.7143 164.826 46.4998 164.61 46.2424C164.438 45.8993 164.352 45.7063 164.352 45.6633V44.9556L164.417 43.7975V43.0255C164.46 42.9826 164.481 42.9182 164.481 42.8325C164.481 42.7467 164.503 42.6824 164.546 42.6394L164.61 41.9961C164.783 41.6959 164.912 41.1811 164.998 40.4519C164.998 40.2375 165.019 40.1088 165.062 40.066L165.127 39.6799L165.257 39.0366L165.322 38.4574L165.451 37.8141L165.774 36.3343C165.86 36.077 165.903 35.841 165.903 35.6266L166.097 34.9189C166.097 34.6615 166.14 34.3613 166.226 34.0182L166.42 33.1175C166.463 33.0316 166.485 32.9458 166.485 32.8601C166.485 32.7314 166.506 32.6241 166.549 32.5384L166.937 30.3508L167.001 29.8362L167.066 29.3858C167.109 29.2571 167.13 29.0641 167.13 28.8068C167.303 27.6057 167.41 26.8337 167.453 26.4906C167.453 26.0617 167.475 25.8043 167.518 25.7185C167.518 25.5041 167.561 25.1824 167.647 24.7535L167.712 24.2387C167.712 24.153 167.755 23.6811 167.841 22.8233C167.927 22.566 167.97 22.33 167.97 22.1156C168.013 22.0298 168.035 21.8153 168.035 21.4722L168.099 20.9574L168.229 20.5071C168.272 20.2927 168.293 20.0997 168.293 19.928C168.293 19.7136 168.272 19.5635 168.229 19.4777C168.229 19.392 168.142 19.4348 167.97 19.6064L167.389 19.928L167.13 19.9924L166.614 20.1854C166.528 20.1854 166.485 20.2498 166.485 20.3785C166.485 20.4642 166.42 20.5071 166.291 20.5071L165.903 20.7002C165.817 20.7002 165.774 20.7216 165.774 20.7645L165.257 21.0218C165.257 21.0647 165.213 21.0861 165.127 21.0861C164.998 21.0861 164.912 21.1077 164.869 21.1505L164.739 21.2148L164.417 21.3435C164.287 21.4293 164.05 21.4722 163.706 21.4722C163.361 21.4722 163.146 21.4936 163.06 21.5366C162.931 21.6223 162.629 21.6652 162.156 21.6652C162.07 21.6223 161.983 21.6009 161.897 21.6009C161.854 21.6009 161.811 21.5794 161.768 21.5366L161.51 21.4722L161.121 21.4079C160.949 21.4079 160.82 21.3649 160.734 21.2792L160.411 21.0861L159.765 20.9574C159.636 20.9574 159.528 20.936 159.442 20.8931C159.27 20.8503 159.119 20.7645 158.99 20.6358L158.796 20.4428V19.4134C158.753 19.4134 158.731 19.2847 158.731 19.0273C158.731 18.7699 158.688 18.4269 158.602 17.9979L158.537 17.4189L158.473 17.0972C158.473 17.0544 158.451 16.99 158.408 16.9041C158.408 16.8184 158.408 16.6469 158.408 16.3895V15.8104Z" fill="#4A443D"/>
<path d="M119.06 51.0679C118.931 51.1966 118.78 51.1752 118.608 51.0035L118.285 50.7462L118.026 50.6819C117.983 50.5961 117.919 50.5961 117.831 50.6819C117.745 50.7677 117.639 50.8105 117.508 50.8105C117.379 50.7677 117.272 50.7891 117.185 50.8749C116.97 50.9607 116.819 50.9178 116.733 50.7462L116.475 50.1028L116.152 48.9447L115.829 47.9797C115.829 47.851 115.786 47.7009 115.7 47.5293C115.441 47.0146 115.312 46.5857 115.312 46.2426L115.248 45.3418C115.205 45.0415 115.183 44.6984 115.183 44.3124C115.183 43.8834 115.205 43.5618 115.248 43.3474L115.312 43.0256V41.9962C115.398 41.1383 115.398 40.7094 115.312 40.7094C115.269 40.6666 115.097 40.7738 114.796 41.0311C114.494 41.2885 114.322 41.4815 114.279 41.6101C114.062 41.8246 113.955 41.9319 113.955 41.9319L113.05 43.09L112.469 43.7333L111.888 44.2481C111.328 44.8057 111.027 45.0845 110.983 45.0845C110.94 45.0845 110.876 45.1274 110.79 45.2131C110.79 45.2989 110.704 45.3847 110.53 45.4705C110.358 45.642 110.272 45.7278 110.272 45.7278C110.272 45.8565 110.057 46.0495 109.626 46.3069C109.54 46.3927 109.432 46.4356 109.303 46.4356C109.174 46.4356 109.066 46.3712 108.98 46.2426C108.722 45.9852 108.356 45.8565 107.882 45.8565L107.3 45.9208C107.171 45.9208 107.085 45.8994 107.042 45.8565C107.042 45.8565 106.999 45.7278 106.913 45.4705L106.848 44.8914L106.719 44.4411C106.719 44.1837 106.676 43.9693 106.59 43.7977L106.525 43.3474L106.396 42.8969L106.331 42.3823C106.331 42.1677 106.266 41.9962 106.137 41.8675C106.051 41.696 106.03 41.5244 106.073 41.3529C106.676 40.7524 106.977 40.452 106.977 40.452C106.977 40.3663 107.085 40.2805 107.3 40.1948L108.076 39.4226L109.045 38.7149C109.303 38.5005 109.562 38.3075 109.82 38.1359C110.079 37.9643 110.251 37.8356 110.338 37.7499L110.661 37.4925L111.371 36.9135L111.5 36.8492C111.543 36.7634 111.629 36.6561 111.759 36.5274C111.888 36.3987 112.039 36.2916 112.211 36.2058L112.728 35.6911C113.158 35.2622 113.46 35.0477 113.632 35.0477C113.718 35.0477 113.912 34.9404 114.214 34.726C114.516 34.4686 114.666 34.2971 114.666 34.2113L114.537 34.147C114.322 34.1041 114.127 34.1041 113.955 34.147C113.912 34.147 113.826 34.1684 113.696 34.2113C113.61 34.2113 113.481 34.1898 113.309 34.147C112.964 34.147 112.598 34.1255 112.211 34.0826C111.866 34.0397 111.608 33.9968 111.436 33.954L111.048 33.8896C110.747 33.8896 110.467 33.8253 110.208 33.6966L109.432 33.5035C108.657 33.332 108.205 33.2033 108.076 33.1176C107.86 32.903 107.753 32.7101 107.753 32.5385C107.753 32.4098 107.731 32.324 107.688 32.2811C107.645 32.1953 107.623 32.0882 107.623 31.9595C107.623 31.8308 107.602 31.7235 107.559 31.6378C107.559 31.3376 107.537 31.1445 107.494 31.0588L107.365 30.544L107.3 30.1579V29.3859C107.214 29.3001 107.171 29.2358 107.171 29.1929C107.171 29.15 107.193 29.1071 107.236 29.0642C107.279 29.0213 107.322 28.9784 107.365 28.9356C107.494 28.8069 107.796 28.6782 108.269 28.5495C108.528 28.4638 108.743 28.3994 108.916 28.3565C109.131 28.3137 109.282 28.2707 109.368 28.2278L109.756 28.1634C109.928 28.0777 110.186 27.9919 110.53 27.9062C110.876 27.8203 111.199 27.756 111.5 27.7131L112.857 27.4558C113.115 27.37 113.352 27.3271 113.567 27.3271L114.343 27.1984C114.429 27.1556 114.623 27.134 114.925 27.134C115.097 27.0912 115.291 27.0697 115.506 27.0697C115.764 27.0269 115.98 26.9839 116.152 26.9411C116.195 26.9411 116.238 26.6408 116.281 26.0403L116.346 25.2682C116.389 25.0538 116.41 24.8179 116.41 24.5606C116.41 24.3032 116.389 24.1101 116.346 23.9815H115.312C114.537 23.9815 114.084 23.96 113.955 23.9172C113.869 23.8314 113.761 23.7885 113.632 23.7885C113.503 23.7885 113.417 23.8957 113.373 24.1101C113.373 24.2388 113.33 24.3461 113.244 24.4319L113.05 24.8179C113.007 25.1181 112.9 25.2682 112.728 25.2682C112.555 25.3112 112.426 25.2039 112.34 24.9465C112.254 24.7321 112.146 24.5606 112.017 24.4319C111.802 24.3461 111.672 24.2174 111.629 24.0458L111.5 23.8529C111.457 23.8529 111.393 23.9172 111.306 24.0458C111.22 24.2174 111.027 24.2388 110.725 24.1101C110.596 24.0244 110.467 24.003 110.338 24.0458C110.251 24.0887 110.143 24.1101 110.014 24.1101C109.928 24.1101 109.863 24.0887 109.82 24.0458C109.734 23.96 109.669 23.6813 109.626 23.2094C109.583 22.7376 109.562 22.2014 109.562 21.601C109.562 21.3436 109.54 21.1721 109.497 21.0863L109.368 20.4429V19.7996C109.325 19.7137 109.303 19.6065 109.303 19.4778C109.346 19.1347 109.346 18.8773 109.303 18.7058C109.303 18.4913 109.26 18.3627 109.174 18.3197C109.045 18.3197 108.98 18.2554 108.98 18.1267V17.9337C108.98 17.5905 109.002 17.3333 109.045 17.1616L109.109 16.7112L109.174 16.3896C109.217 16.218 109.282 15.7891 109.368 15.1028C109.368 15.0171 109.432 14.7383 109.562 14.2664L109.626 13.816L109.691 13.4301L109.756 12.9153L109.82 12.272L109.885 11.8215C109.928 11.7358 109.949 11.4999 109.949 11.1139L110.014 10.4705L110.143 9.31239L110.208 7.76827C110.208 7.63959 110.208 7.46802 110.208 7.25356C110.251 6.9962 110.251 6.82464 110.208 6.73886C110.208 6.22415 110.143 5.51643 110.014 4.61569V4.35834L109.949 3.90797C109.906 3.7793 109.885 3.62918 109.885 3.45761C109.971 3.20025 110.1 3.05013 110.272 3.00724L110.661 2.87856C110.79 2.83567 111.005 2.81422 111.306 2.81422L111.888 2.74989L112.469 2.62121C112.641 2.62121 112.857 2.57832 113.115 2.49253L113.632 2.4282L115.312 2.1065C115.829 1.97782 116.26 1.91349 116.604 1.91349H116.992C117.164 1.8277 117.465 1.78481 117.897 1.78481C118.112 1.74192 118.306 1.72048 118.478 1.72048C118.694 1.72048 118.866 1.69903 118.995 1.65613L120.352 1.5918C121.946 1.5918 122.85 1.61324 123.066 1.65613L123.453 1.72048L124.099 1.97782C124.659 2.14939 125.026 2.32096 125.198 2.49253L125.586 2.74989C126.189 3.05013 126.576 3.28604 126.748 3.45761C126.921 3.62918 127.071 3.92941 127.201 4.35834C127.287 4.74437 127.373 5.45209 127.459 6.4815L127.523 8.86201C127.567 9.37672 127.588 10.0844 127.588 10.9852C127.588 12.4435 127.523 13.7303 127.394 14.8454L127.33 16.0035L127.265 16.7112C127.222 16.7971 127.201 16.9043 127.201 17.033C127.201 17.1187 127.179 17.2046 127.136 17.2903C127.05 18.2768 126.964 18.9631 126.878 19.3492C126.834 19.4349 126.813 19.5422 126.813 19.6709C126.813 19.7996 126.791 19.9282 126.748 20.0568L126.425 21.4723C126.296 21.7725 126.102 22.0943 125.844 22.4374C125.672 22.6518 125.478 22.7591 125.263 22.7591C125.089 22.7591 124.983 22.7805 124.939 22.8235L124.551 22.952C124.379 22.952 124.271 22.9736 124.228 23.0164C124.142 23.0593 124.013 23.0807 123.841 23.0807C123.755 23.1237 123.604 23.1451 123.388 23.1451C123.173 23.2309 122.915 23.2952 122.613 23.3381C122.355 23.3381 122.161 23.3167 122.032 23.2738H121.644L120.933 23.4025H120.416C120.33 23.4454 120.265 23.574 120.222 23.7885C120.222 24.003 120.222 24.4105 120.222 25.0109C120.179 25.4827 120.179 25.9545 120.222 26.4264C120.222 26.5121 120.265 26.555 120.352 26.555C120.438 26.6408 120.911 26.6408 121.774 26.555C124.013 26.4693 125.435 26.6194 126.038 27.0053L127.201 27.3914C127.373 27.4343 127.48 27.5415 127.523 27.7131C127.61 27.8418 127.653 27.9919 127.653 28.1634C127.653 28.2493 127.696 28.4208 127.782 28.6782C127.868 28.8497 127.911 28.9999 127.911 29.1285L127.976 29.772C127.976 30.0722 127.954 30.2652 127.911 30.351L127.846 30.737C127.846 30.9085 127.89 31.0802 127.976 31.2517V31.5091C127.976 31.6807 127.868 31.8736 127.653 32.0882C127.567 32.1739 127.523 32.2383 127.523 32.2811L126.942 32.4741L126.684 32.5385C126.684 32.5814 126.598 32.6242 126.425 32.6672L126.102 32.7959C125.844 32.9245 125.327 33.0103 124.551 33.0532L123.841 33.1176C123.755 33.1604 123.647 33.1818 123.518 33.1818L123.13 33.2462C123.001 33.2891 122.85 33.3105 122.678 33.3105C122.463 33.3105 122.312 33.332 122.226 33.3749L121.838 33.4392C121.623 33.4392 121.385 33.4821 121.127 33.5679L120.416 33.6966C120.244 33.6966 120.136 33.718 120.093 33.7609V34.2756C120.093 34.5759 120.115 34.7474 120.158 34.7903C120.201 34.8333 120.373 34.8761 120.675 34.919L121.514 35.1121L122.097 35.1764H122.42C122.592 35.2622 122.786 35.305 123.001 35.305L123.518 35.4337C123.862 35.4766 124.702 35.734 126.038 36.2058C126.598 36.4203 126.921 36.6132 127.007 36.7848C127.179 37.0422 127.265 37.2995 127.265 37.5568L127.459 38.0073C127.545 38.136 127.588 38.2861 127.588 38.4576C127.588 38.672 127.61 38.8436 127.653 38.9723C127.739 39.4012 127.782 39.7015 127.782 39.873C127.739 39.916 127.717 40.0231 127.717 40.1948C127.674 40.3663 127.696 40.5593 127.782 40.7738C127.868 41.1169 127.868 41.3314 127.782 41.4171L127.717 41.6745C127.588 41.9748 127.459 42.1893 127.33 42.3179C127.244 42.4037 127.114 42.4466 126.942 42.4466C126.856 42.4037 126.748 42.4037 126.619 42.4466C126.49 42.4466 126.382 42.4466 126.296 42.4466L125.392 42.3823L124.68 42.3179H124.357C124.314 42.275 124.25 42.2536 124.164 42.2536C124.121 42.2536 124.077 42.2321 124.034 42.1893C123.862 42.1893 123.776 42.1677 123.776 42.1249L123.453 42.0606L122.42 41.8032C122.075 41.7174 121.752 41.6101 121.451 41.4815C121.234 41.3957 120.976 41.3314 120.675 41.2885C120.416 41.2027 120.222 41.1598 120.093 41.1598L119.964 41.2242L119.899 43.1543C119.899 44.3552 119.878 44.9987 119.835 45.0845C119.835 45.4276 119.813 45.7064 119.77 45.9208L119.706 46.9502L119.641 48.044L119.447 49.5882C119.361 50.1886 119.232 50.6819 119.06 51.0679ZM113.761 9.76275C113.761 10.1488 113.783 10.449 113.826 10.6635C113.826 10.9208 113.826 11.1139 113.826 11.2425C113.869 11.3283 113.955 11.3712 114.084 11.3712H114.343C114.516 11.2854 114.903 11.1996 115.506 11.1139L115.958 10.9852L116.54 10.9208C117.056 10.8779 117.358 10.8136 117.444 10.7278L117.508 10.3418L117.573 9.82709C117.702 9.2695 117.725 8.9478 117.638 8.86201C117.638 8.81913 117.487 8.79768 117.185 8.79768C117.142 8.84057 117.013 8.86201 116.798 8.86201C116.54 8.86201 116.367 8.88346 116.281 8.92636C116.109 9.01214 115.7 9.05503 115.054 9.05503L114.279 9.11937C114.15 9.11937 113.998 9.16226 113.826 9.24805L113.696 9.37672L113.761 9.76275ZM113.955 17.6121C113.955 17.6978 114.214 17.6978 114.731 17.6121C114.86 17.5691 115.162 17.5477 115.635 17.5477C116.324 17.5048 116.712 17.4404 116.798 17.3547C116.884 17.3117 116.927 17.033 116.927 16.5183C116.97 16.218 116.97 16.0465 116.927 16.0035H115.764L114.279 15.9392H113.955V17.6121ZM120.029 10.0201C120.072 10.1059 120.093 10.1917 120.093 10.2775C120.093 10.3204 120.115 10.3632 120.158 10.4061C120.459 10.449 120.89 10.4705 121.451 10.4705C122.054 10.4705 122.506 10.449 122.807 10.4061L122.872 9.31239C122.872 9.01214 122.807 8.81913 122.678 8.73334H122.29C122.161 8.77624 122.032 8.79768 121.903 8.79768C121.774 8.75479 121.623 8.73334 121.451 8.73334C121.234 8.69045 121.041 8.69045 120.868 8.73334H120.352C120.136 8.73334 120.007 8.75479 119.964 8.79768C119.921 8.84057 119.921 8.99069 119.964 9.24805L120.029 10.0201ZM120.222 16.3896C120.222 16.8614 120.244 17.1402 120.287 17.226C120.373 17.2689 120.631 17.3117 121.062 17.3547H122.613C122.786 17.2689 122.786 17.1187 122.613 16.9043L122.484 16.7756L122.549 16.454C122.635 16.1536 122.678 15.832 122.678 15.4889V15.3602C122.678 15.2315 122.57 15.1672 122.355 15.1672C121.838 15.1672 121.558 15.1886 121.514 15.2315C121.256 15.3602 120.998 15.4245 120.739 15.4245C120.567 15.3816 120.438 15.403 120.352 15.4889L120.222 15.6176V16.3896ZM130.367 14.0734L130.431 13.3014C130.474 13.2156 130.496 12.851 130.496 12.2076L130.56 11.1782L130.625 10.9208L130.56 10.6635C130.474 10.4919 130.453 10.3847 130.496 10.3418C130.539 10.0844 130.948 9.65552 131.723 9.05503C131.852 8.92636 131.981 8.84057 132.111 8.79768C132.24 8.71189 132.326 8.64756 132.37 8.60467L132.822 8.34731L133.404 7.76827C133.92 7.25356 134.329 6.88898 134.631 6.67451L135.148 6.15982C135.32 5.98824 135.557 5.75233 135.858 5.45209C136.204 5.10895 136.527 4.76581 136.828 4.42267C137.043 4.20822 137.172 4.05809 137.216 3.97231L137.732 3.32893L138.249 2.81422L138.96 2.36385L139.476 2.1065C139.607 2.06361 139.8 2.12795 140.059 2.29952C140.231 2.47109 140.382 2.57832 140.511 2.62121C140.597 2.62121 140.662 2.64265 140.705 2.68554C140.748 2.72844 140.791 2.74989 140.834 2.74989C140.963 2.83567 141.114 2.92146 141.286 3.00724C141.501 3.17881 141.63 3.32893 141.674 3.45761C141.717 3.58628 141.76 3.95087 141.803 4.55135C141.803 5.19474 141.781 5.58077 141.738 5.70945C141.695 5.83812 141.652 5.98824 141.609 6.15982C141.609 6.28849 141.63 6.37428 141.674 6.41716C141.674 6.46005 142.083 6.4815 142.901 6.4815L144.387 6.54584C144.431 6.58873 144.495 6.61018 144.581 6.61018C144.71 6.61018 144.818 6.63162 144.904 6.67451C145.292 6.71741 145.722 6.86754 146.196 7.12488C146.713 7.33934 147.166 7.5967 147.554 7.89695L147.877 8.08996C147.963 8.13285 148.049 8.21864 148.135 8.34731C148.264 8.4331 148.35 8.54032 148.393 8.669L148.587 9.11937C148.63 9.33383 148.652 9.80565 148.652 10.5348L148.587 11.7572C148.458 12.1862 148.35 12.7223 148.264 13.3657C148.264 13.5802 148.221 13.7732 148.135 13.9447C148.092 14.1163 148.006 14.3308 147.877 14.5882C147.747 14.8454 147.64 15.0599 147.554 15.2315C147.51 15.2744 147.467 15.3387 147.424 15.4245C147.381 15.4674 147.36 15.5317 147.36 15.6176C147.188 15.7891 146.951 16.1752 146.648 16.7756L146.261 17.2903L145.356 18.5771L144.904 19.1561L144.387 19.7996L144 20.2499L143.742 20.5716C143.698 20.6574 143.548 20.8289 143.288 21.0863L143.03 21.4723L142.901 21.601L142.707 21.9226C142.535 22.18 142.298 22.4588 141.996 22.7591C141.695 23.0593 141.415 23.3167 141.157 23.5312C140.769 23.9172 140.317 24.2818 139.8 24.6249C139.714 24.7964 139.584 24.9251 139.412 25.0109C139.369 25.0967 139.304 25.1611 139.218 25.2039C139.218 25.2039 139.089 25.2898 138.83 25.4613L138.055 25.9117L137.668 26.169L136.57 26.7481C136.311 26.8338 136.161 26.8982 136.116 26.9411C135.987 26.9411 135.881 26.9839 135.793 27.0697L135.277 27.2627C134.975 27.3486 134.674 27.37 134.372 27.3271L133.985 27.0053C133.726 26.7481 133.468 26.598 133.21 26.555C132.779 26.5121 132.478 26.4478 132.304 26.362C132.175 26.2762 132.089 26.1476 132.046 25.976L131.981 24.6893C131.981 24.003 131.96 23.6383 131.917 23.5955C131.831 23.381 131.831 23.0379 131.917 22.5661C131.96 22.4374 131.96 22.3516 131.917 22.3087C131.917 22.2229 131.917 22.1586 131.917 22.1157C131.874 22.0299 131.852 21.9226 131.852 21.7941C131.852 21.5367 131.96 21.365 132.175 21.2793L132.693 21.2149C132.951 21.1721 133.145 21.0863 133.274 20.9576L133.726 20.6359L134.049 20.3786L134.437 20.0568L134.825 19.6709L135.406 19.2205C135.406 19.2205 135.901 18.7272 136.893 17.7407C137.28 17.5262 137.517 17.3117 137.603 17.0973C137.603 17.0973 137.431 16.9043 137.086 16.5183C136.742 16.1322 136.505 15.9392 136.376 15.9392C136.29 15.9392 136.182 15.8749 136.053 15.7462C135.967 15.5746 135.881 15.4889 135.793 15.4889C135.707 15.403 135.664 15.2959 135.664 15.1672L135.406 14.1378L135.212 14.0091C134.997 14.0091 134.76 14.1163 134.502 14.3308C134.243 14.5882 133.791 14.9313 133.145 15.3602C132.973 15.446 132.779 15.5317 132.564 15.6176C132.392 15.7033 132.24 15.7462 132.111 15.7462C132.025 15.7462 131.981 15.639 131.981 15.4245C131.938 15.3387 131.852 15.2529 131.723 15.1672C131.637 15.0814 131.551 15.0171 131.465 14.9741L131.271 14.9098C131.142 14.9098 131.056 14.8884 131.013 14.8454C130.969 14.7597 130.862 14.7167 130.69 14.7167C130.431 14.6739 130.302 14.6096 130.302 14.5238L130.367 14.0734ZM131.336 47.0146C131.422 46.9288 131.572 46.8645 131.788 46.8215L133.016 46.3069C133.36 46.0925 133.77 45.7921 134.243 45.4062C134.329 45.3203 134.394 45.2775 134.437 45.2775C134.523 45.2346 134.588 45.1917 134.631 45.1488C134.803 45.063 134.997 44.9128 135.212 44.6984C135.255 44.6556 135.298 44.6126 135.341 44.5697C135.427 44.5269 135.514 44.5055 135.6 44.5055L136.053 44.1194L136.505 43.862C136.591 43.8192 136.936 43.4975 137.539 42.8969L138.249 42.1893C138.464 42.1034 138.572 42.0176 138.572 41.9319L138.83 41.7388L139.089 41.4815C139.261 41.3099 139.369 41.1813 139.412 41.0955C139.584 40.9239 139.671 40.8167 139.671 40.7738C139.671 40.7308 139.627 40.6666 139.541 40.5807C139.498 40.495 139.433 40.4092 139.347 40.3235L138.895 39.7444C138.809 39.6157 138.615 39.4012 138.314 39.101L137.861 38.4576L137.345 37.9429C137.129 37.7285 136.979 37.5354 136.893 37.3638C136.85 37.1494 136.828 36.8921 136.828 36.5918C136.828 36.1629 136.806 35.8841 136.763 35.7554C136.763 35.3693 136.742 35.1549 136.699 35.1121C136.656 35.0691 136.634 35.0048 136.634 34.919C136.634 34.8333 136.613 34.7474 136.57 34.6616C136.57 34.3614 136.548 34.1898 136.505 34.147C136.505 34.1041 136.483 34.0397 136.44 33.954C136.44 33.8681 136.462 33.7609 136.505 33.6322C136.505 33.3749 136.483 33.2033 136.44 33.1176C136.397 33.0317 136.376 32.9245 136.376 32.7959C136.376 32.5814 136.462 32.4527 136.634 32.4098C136.72 32.324 136.785 32.2811 136.828 32.2811C136.828 32.2811 136.957 32.2811 137.216 32.2811C137.474 32.2383 137.818 32.2383 138.249 32.2811H138.701L138.766 32.2168C138.809 32.131 138.83 31.5734 138.83 30.544C138.744 30.2438 138.744 30.0078 138.83 29.8363C138.83 29.6647 138.809 29.536 138.766 29.4502L138.701 29.2572C138.701 29.1714 139.218 28.5066 140.252 27.2627C140.941 26.5765 141.351 26.1476 141.48 25.976C141.566 25.8474 141.867 25.5256 142.384 25.0109C142.384 25.0109 142.492 24.9037 142.707 24.6893L142.965 24.4319C143.225 24.2602 143.397 24.0673 143.483 23.8529C143.483 23.7242 143.569 23.5955 143.742 23.4668L144.194 23.0807L144.646 22.7591C144.775 22.6733 144.904 22.5232 145.033 22.3087L145.292 21.9226C145.507 21.7941 145.615 21.7297 145.615 21.7297C145.658 21.7297 145.765 21.6654 145.938 21.5367C146.11 21.365 146.239 21.2793 146.325 21.2793C146.541 21.2793 146.799 21.408 147.101 21.6654C147.274 21.8369 147.381 22.0299 147.424 22.2444C147.51 22.416 147.554 22.5232 147.554 22.5661C147.554 22.8235 147.575 22.995 147.618 23.0807V23.5312C147.661 23.6598 147.661 23.767 147.618 23.8529C147.618 23.8957 147.597 23.9386 147.554 23.9815C147.424 24.1101 147.36 24.2388 147.36 24.3675C147.231 24.6249 147.144 24.8394 147.101 25.0109L146.842 25.4613C146.799 25.5042 146.777 25.5686 146.777 25.6543C146.777 25.7401 146.908 25.783 147.166 25.783L147.812 25.7187C148.372 25.6757 148.867 25.6971 149.298 25.783C149.728 25.8688 150.245 26.0618 150.849 26.362C151.409 26.6623 151.796 26.9411 152.012 27.1984C152.227 27.4128 152.421 27.7346 152.593 28.1634C152.808 28.6353 152.916 29.3431 152.916 30.2866V31.8308C152.83 32.0882 152.787 32.3884 152.787 32.7315L152.722 33.5679C152.593 34.3399 152.378 35.3265 152.076 36.5274C151.775 37.6427 151.538 38.3718 151.366 38.7149C151.323 38.8866 151.236 39.101 151.107 39.3583C150.935 39.7444 150.439 40.6237 149.621 41.9962L149.233 42.5109C149.19 42.7254 149.104 42.8969 148.975 43.0256C148.845 43.1543 148.738 43.3474 148.652 43.6046L147.941 44.4411L147.747 44.7627C147.575 44.9343 147.467 45.063 147.424 45.1488L147.101 45.5348L146.971 45.7278C146.842 45.9422 146.67 46.1568 146.454 46.3712L146.131 46.7572C145.227 47.7866 144.732 48.3442 144.646 48.4301L144.452 48.6231C144.452 48.7517 144.151 49.1163 143.548 49.7168L142.965 50.2959C142.879 50.4674 142.729 50.6604 142.513 50.8749C142.341 51.0893 142.19 51.2395 142.061 51.3253C141.975 51.3682 141.695 51.6255 141.221 52.0973L140.769 52.419L140.188 52.7408C140.102 52.7836 139.994 52.8265 139.865 52.8693C139.779 52.9552 139.693 52.998 139.607 52.998L139.283 53.1911L138.701 53.5128C138.357 53.5556 138.12 53.6415 137.991 53.7701L137.797 53.8344C137.668 53.8344 137.56 53.8559 137.474 53.8987C137.302 53.8987 137.172 53.9417 137.086 54.0274C136.57 54.1133 136.247 54.1561 136.116 54.1561C135.815 54.1561 135.514 54.049 135.212 53.8344C134.868 53.62 134.631 53.4913 134.502 53.4484L133.339 53.3197C133.124 53.3197 132.951 53.2768 132.822 53.1911C132.693 53.1053 132.542 52.9766 132.37 52.805C132.283 52.6335 132.24 52.419 132.24 52.1616C132.197 52.033 132.175 51.9258 132.175 51.8399C132.175 51.7112 132.154 51.6041 132.111 51.5183L132.046 50.8749C132.003 50.7891 131.981 50.7033 131.981 50.6176C131.981 50.4889 131.96 50.3816 131.917 50.2959C131.831 50.0814 131.766 49.8026 131.723 49.4595C131.723 49.245 131.68 49.052 131.594 48.8804C131.551 48.7517 131.551 48.5372 131.594 48.237V47.851L131.4 47.6579C131.271 47.3577 131.249 47.1433 131.336 47.0146ZM138.701 12.0789C139.39 12.3791 140.037 12.7438 140.64 13.1727L140.963 13.3657L141.028 13.3014L141.415 12.851C142.061 12.1647 142.556 11.6929 142.901 11.4355C142.901 11.4355 142.965 11.3712 143.095 11.2425C143.095 11.1568 143.159 11.0495 143.288 10.9208C143.419 10.7064 143.483 10.5348 143.483 10.4061C143.44 10.3204 143.354 10.256 143.225 10.2131C143.095 10.1702 142.965 10.1488 142.836 10.1488L142.513 10.0844C142.47 10.0416 142.406 10.0201 142.319 10.0201C142.276 10.0201 142.233 9.99866 142.19 9.95577L141.609 9.89143C141.437 9.89143 141.114 9.95577 140.64 10.0844L140.188 10.2131C139.929 10.256 139.671 10.4061 139.412 10.6635C139.412 10.6635 139.175 10.8994 138.701 11.3712C138.4 11.6285 138.249 11.7787 138.249 11.8215C138.249 11.8645 138.4 11.9502 138.701 12.0789ZM141.286 33.0532C141.286 33.0961 141.437 33.2033 141.738 33.3749C142.384 33.6752 142.836 33.9324 143.095 34.147L144.258 35.1121C144.818 35.4552 145.12 35.6267 145.163 35.6267C145.249 35.5839 145.378 35.4766 145.55 35.305C145.722 35.1335 145.873 34.9404 146.002 34.726L146.454 34.147L146.971 33.5035L147.424 32.8602L147.683 32.5385L147.877 32.2168C147.92 32.1739 147.984 32.0882 148.07 31.9595C148.156 31.7879 148.243 31.5948 148.329 31.3804C148.544 30.9515 148.652 30.6298 148.652 30.4153V30.1579H148.522C148.135 30.0722 147.769 30.0722 147.424 30.1579C146.994 30.1579 146.648 30.1794 146.39 30.2223C145.787 30.2652 145.313 30.351 144.969 30.4797L144.517 30.6727C144.301 30.7156 144.021 30.8442 143.677 31.0588C143.331 31.2303 143.052 31.3804 142.836 31.5091C142.664 31.6807 142.578 31.7664 142.578 31.7664C142.363 31.8951 142.083 32.131 141.738 32.4741C141.437 32.7744 141.286 32.9674 141.286 33.0532Z" fill="#4A443D"/>
<path d="M87.2061 55.6358C87.0769 55.6358 86.883 55.5715 86.6246 55.4428C86.4092 55.357 86.2369 55.3141 86.1077 55.3141L83.9109 55.1211C83.7817 55.2068 83.674 55.2068 83.5878 55.1211L83.2648 55.2498L82.9417 55.3141C82.7694 55.3141 82.6403 55.164 82.554 54.8637C82.554 54.6922 82.5325 54.5635 82.4894 54.4777C82.4464 54.392 82.3603 53.9416 82.2311 53.1266C82.2311 52.9979 82.1664 52.8049 82.0372 52.5476L81.908 52.0972L81.8433 51.7111V51.3252C81.8433 51.2822 81.8218 51.1751 81.7787 51.0034C81.7356 50.789 81.6495 50.6389 81.5202 50.5531L81.3265 50.4244L81.391 50.1671V49.781C81.391 48.6658 81.4126 48.0653 81.4556 47.9795L81.5202 46.8858V45.7277C81.5202 45.4275 81.5419 45.1916 81.5849 45.02L81.6495 44.3767L81.7141 43.9906C81.7141 43.9048 81.7141 43.4758 81.7141 42.7038C81.7572 41.8888 81.7572 41.1168 81.7141 40.3877C81.8002 40.0874 81.8218 39.8729 81.7787 39.7442C81.8218 39.6156 81.8433 39.2296 81.8433 38.5861C81.8433 37.857 81.8648 37.471 81.908 37.428L81.9726 36.7204V35.884C82.0157 35.7553 82.0372 35.4979 82.0372 35.1119C82.0372 35.0261 82.0587 34.9403 82.1018 34.8546C82.1448 34.7259 82.1664 34.5758 82.1664 34.4042V33.1175C82.2094 32.9888 82.2311 32.8387 82.2311 32.6671C82.2311 32.4954 82.2526 32.3668 82.2957 32.281L82.3603 30.9943C82.4464 30.9084 82.4894 30.7799 82.4894 30.6082L82.554 30.0292C82.554 29.9863 82.5325 29.9005 82.4894 29.7719C82.4894 29.6432 82.511 29.5788 82.554 29.5788L82.6187 28.9355L82.6833 28.099L82.7479 27.6487C82.7049 27.52 82.7264 27.4127 82.8125 27.327C82.8986 27.1125 82.9202 26.748 82.8771 26.2332C82.8771 25.8901 82.9417 25.5684 83.071 25.2681C83.114 25.0966 83.1356 24.9464 83.1356 24.8178C83.1356 24.6891 83.114 24.539 83.071 24.3674C82.9417 23.9813 82.8771 23.7884 82.8771 23.7884C82.8771 23.7455 82.8771 23.7025 82.8771 23.6597C82.9202 23.5739 82.9202 23.4881 82.8771 23.4023C82.8771 23.3594 82.8556 23.3166 82.8125 23.2737C82.8125 23.1879 82.834 23.0806 82.8771 22.9519C82.8771 22.523 82.8125 22.2442 82.6833 22.1156V22.0512C82.6833 21.9655 82.7479 21.8583 82.8771 21.7296C83.0495 21.558 83.2002 21.4508 83.3295 21.4079C83.4586 21.4079 83.5448 21.2362 83.5878 20.8931C83.674 20.6787 83.6955 20.4857 83.6524 20.3141C83.6524 20.0997 83.6956 19.928 83.7817 19.7995C83.8248 19.7136 83.8248 19.6492 83.7817 19.6064C83.7817 19.5635 83.7817 19.5206 83.7817 19.4777V18.8986C83.9109 18.4697 83.997 17.8907 84.0401 17.1615C84.0401 17.0758 84.1048 16.7111 84.234 16.0678V14.9097H83.9109C83.6094 14.9097 83.4371 14.9526 83.3941 15.0384C83.2648 15.0384 83.1571 15.0169 83.071 14.974L84.1694 14.8453C84.0401 14.8453 83.9109 14.8453 83.7817 14.8453C83.6956 14.8025 83.6094 14.7166 83.5232 14.5881C83.3078 14.3735 83.0925 14.2663 82.8771 14.2663C82.791 14.2663 82.7049 14.3521 82.6187 14.5237C82.5756 14.6523 82.5325 14.8453 82.4894 15.1027C82.4894 15.2743 82.2526 15.789 81.7787 16.6469L81.5202 17.0328L81.391 17.4833L81.068 17.9979C81.0249 18.1266 80.8096 18.3196 80.4219 18.577C80.3788 18.6198 80.3357 18.6842 80.2927 18.7699C80.2496 18.8558 80.2065 18.9416 80.1635 19.0273C80.0343 19.3705 79.9265 19.5635 79.8404 19.6064C79.7543 19.7351 79.625 19.8637 79.4527 19.9924C79.3234 20.0783 79.2373 20.0997 79.1943 20.0567C79.1512 20.0997 79.1081 20.0783 79.0651 19.9924C79.022 19.8637 79.0005 19.7565 79.0005 19.6708C79.0005 19.5849 78.9573 19.5206 78.8712 19.4777C78.6989 19.5206 78.6128 19.4562 78.6128 19.2847C78.5266 19.0273 78.4405 18.9201 78.3543 18.963L78.1605 19.0917C78.1174 19.0917 78.0528 19.1346 77.9667 19.2204C77.9236 19.2633 77.8806 19.2418 77.8374 19.156C77.7513 19.0702 77.6436 19.0488 77.5144 19.0917C77.3851 19.1774 77.2775 19.1774 77.1914 19.0917C77.1483 18.9201 77.1267 18.6628 77.1267 18.3196C77.1267 17.9336 77.1483 17.6334 77.1914 17.4189V16.9041C77.1914 15.6603 77.1914 15.0384 77.1914 15.0384L77.0621 14.395L77.3205 13.3656L77.5144 12.7222C77.6005 12.2075 77.7082 11.8644 77.8374 11.6927C77.9236 11.5212 77.9667 11.3711 77.9667 11.2424C77.9667 11.0708 77.9882 10.9636 78.0313 10.9207L78.1605 10.406L78.3543 9.31227C78.3543 9.18359 78.3974 9.07636 78.4835 8.99058C78.4835 8.81901 78.5051 8.71178 78.5481 8.66889C78.5913 8.626 78.6128 8.56166 78.6128 8.47587C78.6128 8.39008 78.6343 8.32575 78.6774 8.28286C78.7635 8.0255 78.8066 7.81104 78.8066 7.63948L79.0005 6.99609C79.0866 6.73874 79.1297 6.58862 79.1297 6.54573L79.2589 6.1597L79.3234 5.64499C79.3234 5.34475 79.3451 5.15174 79.3881 5.06595C79.5173 4.67992 79.5819 4.46546 79.5819 4.42256C79.625 4.33678 79.6465 4.27244 79.6465 4.22955C79.6465 4.14377 79.668 4.07942 79.7112 4.03653L79.7758 3.65051C79.7758 3.35026 79.8619 3.07147 80.0342 2.81411L80.0989 2.42808C80.0989 2.21361 80.1419 2.0206 80.2281 1.84903C80.3142 1.76325 80.3572 1.61313 80.3572 1.39867C80.4435 1.18421 80.5727 1.05553 80.7449 1.01264C80.9173 0.969746 81.068 0.969746 81.1973 1.01264C81.7141 1.14131 82.0802 1.26999 82.2957 1.39867L82.7479 1.59168C82.834 1.63457 82.9632 1.72036 83.1356 1.84903C83.3078 1.97771 83.4371 2.08494 83.5232 2.17072C83.6524 2.2994 83.7602 2.49242 83.8463 2.74977C83.9755 3.00712 84.0186 3.20014 83.9755 3.32881C83.9755 3.45749 83.997 3.54327 84.0401 3.58616C84.1694 3.88641 84.234 4.46546 84.234 5.3233C84.234 6.52429 84.1909 7.33923 84.1048 7.76816V8.0255C84.1048 8.0684 84.1263 8.11129 84.1694 8.15418C84.2555 8.15418 84.3416 8.13274 84.4279 8.08985C84.9878 8.08985 85.3754 8.0684 85.5908 8.0255C85.8062 8.0255 86.0431 7.96117 86.3016 7.83249C86.3877 7.7896 86.9691 7.76816 88.046 7.76816C88.2614 7.68237 89.2306 7.63948 90.9535 7.63948L93.5381 7.70381C93.6242 7.74671 93.7319 7.76816 93.861 7.76816C93.9903 7.72527 94.141 7.72527 94.3134 7.76816C94.3995 7.76816 94.5287 7.7896 94.7011 7.83249C94.9164 7.83249 95.2179 7.83249 95.6056 7.83249C96.2086 7.96117 96.9194 8.28286 97.7378 8.79757L98.0608 9.05491C98.147 9.09781 98.19 9.20504 98.19 9.37661C98.2331 9.50529 98.2546 9.6983 98.2546 9.95566C98.2546 10.0843 98.2978 10.1701 98.3839 10.213C98.5131 10.4275 98.4916 10.6419 98.3193 10.8564C98.2761 10.9422 98.2546 11.1566 98.2546 11.4998C98.2546 11.843 98.2116 12.0788 98.1254 12.2075L97.9962 12.7865L98.1254 13.0439C98.1254 13.2583 98.0178 13.43 97.8024 13.5586C97.587 13.6872 97.3501 13.7516 97.0916 13.7516C96.8763 13.7516 96.7255 13.7731 96.6394 13.8159C96.3809 13.8588 96.101 13.9018 95.7995 13.9446C95.541 13.9446 95.3472 13.9232 95.2179 13.8803L94.8302 13.9446C94.3134 14.0304 94.0119 14.0733 93.9257 14.0733C93.6242 14.159 93.4734 14.202 93.4734 14.202L93.2796 14.2663C93.2365 14.2234 93.0857 14.202 92.8273 14.202L92.1812 14.3307L91.5351 14.2663C91.492 14.3093 91.4274 14.3307 91.3413 14.3307C91.2551 14.3307 91.1689 14.3521 91.0828 14.395L90.6306 14.4594L90.2428 14.5881H89.7259C89.5968 14.5881 89.489 14.6095 89.4029 14.6523C89.3167 14.6952 89.1876 14.7166 89.0152 14.7166C88.886 14.7166 88.7998 14.7596 88.7567 14.8453C88.7567 14.8883 88.7567 14.974 88.7567 15.1027C88.7998 15.1885 88.8214 15.4029 88.8214 15.746C88.8645 15.8747 88.886 16.4109 88.886 17.3546V20.6358L89.0798 20.5715C89.2522 20.5715 89.5537 20.55 89.9844 20.5071C90.4582 20.4214 90.9535 20.3785 91.4705 20.3785C91.6858 20.3355 91.9227 20.3141 92.1812 20.3141C92.4827 20.3141 92.7626 20.2927 93.0211 20.2498L94.3134 20.1854C95.0457 20.1425 95.6271 20.164 96.0578 20.2498C96.4887 20.3355 96.9624 20.4857 97.4793 20.7002L97.9316 20.9574C98.0608 21.0004 98.147 21.0647 98.19 21.1505C98.2761 21.1934 98.3193 21.3221 98.3193 21.5366L98.3839 21.9225C98.2978 22.0084 98.2978 22.0512 98.3839 22.0512C98.427 22.1371 98.47 22.2442 98.5131 22.3729C98.5992 22.5016 98.6639 22.6088 98.707 22.6947C98.6207 22.8233 98.5777 22.9949 98.5777 23.2093C98.4485 23.4238 98.427 23.6382 98.5131 23.8528C98.5131 24.11 98.4054 24.3674 98.19 24.6248L98.0608 25.0751C98.0608 25.3325 98.1039 25.4612 98.19 25.4612C98.19 25.5041 98.2331 25.5255 98.3193 25.5255C98.5346 25.4398 98.5992 25.4826 98.5131 25.6542L98.3193 25.7185C98.2761 25.7185 98.2331 25.7614 98.19 25.8472C98.19 26.0188 98.1254 26.1689 97.9962 26.2975C97.9101 26.3833 97.8024 26.4262 97.6732 26.4262C97.5008 26.3833 97.3716 26.4048 97.2855 26.4906L96.5102 26.6836L96.3163 26.748C96.1871 26.8337 96.0148 26.8981 95.7995 26.941C95.584 26.941 95.3903 26.9838 95.2179 27.0696L94.8302 27.1339C94.7872 27.1769 94.6365 27.2198 94.378 27.2626C94.1626 27.3055 93.9903 27.327 93.861 27.327H93.7964C93.5381 27.327 93.3442 27.3913 93.215 27.52C92.6981 27.6915 92.1381 27.7774 91.5351 27.7774C90.8459 27.8631 90.5228 27.9061 90.5659 27.9061C90.1351 28.0348 89.6829 28.099 89.2091 28.099H88.563C88.5199 28.1419 88.4768 28.7639 88.4338 29.9649V30.4152L88.3691 31.6376C88.3691 31.7234 88.3691 31.8521 88.3691 32.0237C88.4121 32.1952 88.4768 32.281 88.563 32.281C88.8214 32.2382 89.1444 32.1738 89.5322 32.0881C89.9629 32.0022 90.3075 31.9164 90.5659 31.8307C90.6521 31.7449 90.7382 31.702 90.8243 31.702C90.8674 31.702 91.2766 31.6376 92.0519 31.5089L92.8273 31.3159C93.215 31.3159 93.5596 31.2945 93.861 31.2516C94.1626 31.2087 94.4211 31.1872 94.6365 31.1872C95.0241 31.0586 95.3472 30.9943 95.6056 30.9943C95.864 30.9514 96.0578 30.93 96.1871 30.93H96.704C96.8763 30.93 97.0486 30.9943 97.2209 31.1229C97.5225 31.1658 97.8024 31.2516 98.0608 31.3803C98.147 31.4661 98.3839 31.5519 98.7716 31.6376L99.87 32.1524L99.9991 32.4097C100.042 32.5384 100.064 32.6885 100.064 32.8601C100.064 33.0745 100.085 33.2676 100.128 33.4391C100.258 33.6965 100.322 33.868 100.322 33.9538C100.322 34.1683 100.301 34.3184 100.258 34.4042C100.258 34.49 100.258 34.5543 100.258 34.5972C100.301 34.7259 100.301 34.8975 100.258 35.1119C100.258 35.3264 100.258 35.5408 100.258 35.7553C100.258 36.0127 100.279 36.1842 100.322 36.27C100.365 36.4845 100.365 36.6346 100.322 36.7204C100.322 36.8061 100.301 36.892 100.258 36.9777C100.128 37.3637 99.913 37.6211 99.6115 37.7498L99.0946 37.8785L98.7716 38.0071L98.5777 38.0715C98.5346 38.2002 98.3839 38.3503 98.1254 38.5218L97.7378 38.4575C97.6086 38.4575 97.4362 38.5218 97.2209 38.6505C97.0486 38.7362 96.8763 38.7792 96.704 38.7792C96.4887 38.7792 96.3163 38.8221 96.1871 38.9079C95.9286 38.9936 95.7779 39.0366 95.7349 39.0366C95.6486 39.0794 95.5625 39.1009 95.4764 39.1009C95.3903 39.058 95.3256 39.058 95.2825 39.1009C94.8948 39.4011 94.5718 39.5512 94.3134 39.5512C94.0549 39.6371 93.9042 39.7014 93.861 39.7442C93.818 39.83 93.7103 39.8515 93.5381 39.8086H93.0857L92.5689 40.0016C92.3535 40.0444 92.2027 40.0444 92.1166 40.0016C91.9873 40.0016 91.9012 40.023 91.8581 40.066C91.8581 40.066 91.5351 40.1088 90.8889 40.1947C90.8028 40.1947 90.7167 40.2375 90.6306 40.3233C90.5874 40.3662 90.5443 40.3877 90.5013 40.3877C90.4582 40.4305 90.329 40.4305 90.1136 40.3877L89.0152 40.3233L88.563 40.3877L88.4984 40.9023V42.2535L88.563 43.7332L88.4984 45.4061C88.5845 46.3496 88.6275 47.4434 88.6275 48.6872C88.6275 50.1456 88.563 51.1321 88.4338 51.6469C88.3906 51.6897 88.3691 51.8613 88.3691 52.1615C88.3691 52.7191 88.3475 52.9979 88.3045 52.9979L88.2399 53.384C88.1968 53.8986 88.1322 54.1989 88.046 54.2847L87.7229 55.0567C87.5937 55.357 87.4215 55.55 87.2061 55.6358ZM55.4819 19.9924C55.3957 19.8209 55.3527 19.6922 55.3527 19.6064C55.3527 19.349 55.5895 19.0273 56.0634 18.6414L56.4511 18.3196L56.7094 18.1909C56.7526 18.1909 56.8603 18.1052 57.0325 17.9336L58.0663 17.3546C58.1094 17.3546 58.1309 17.3332 58.1309 17.2902C58.1309 17.2473 58.1524 17.2045 58.1956 17.1615C58.2817 17.0328 58.5401 16.8398 58.9709 16.5825L59.3586 16.3252L59.8754 16.0034C60.3924 15.746 60.78 15.4888 61.0384 15.2314L61.4908 14.8453C61.7491 14.7596 61.9 14.6952 61.943 14.6523L62.3307 14.3307L62.7829 14.0733C62.9984 13.9446 63.1921 13.7945 63.3645 13.623C63.5798 13.4514 63.7306 13.3441 63.8167 13.3013C63.8598 13.3013 63.9244 13.2797 64.0105 13.2369C64.0968 13.1512 64.2044 13.0868 64.3336 13.0439L64.9797 12.5935L65.7551 12.2075L66.4012 11.8214C66.6597 11.6499 67.0043 11.4569 67.435 11.2424C67.9088 11.028 68.2749 10.8993 68.5334 10.8564C68.5765 10.8135 68.641 10.792 68.7272 10.792C68.8134 10.792 68.878 10.7706 68.9211 10.7277C69.0072 10.6848 69.1148 10.6634 69.2441 10.6634C69.4594 10.6634 69.761 10.7277 70.1486 10.8564C70.4932 10.9422 70.7517 11.0065 70.924 11.0494C71.1394 11.0494 71.2686 11.0708 71.3116 11.1137L71.764 11.3711C72.1086 11.7143 72.4962 11.9501 72.927 12.0788C73.0131 12.1646 73.0346 12.2933 72.9916 12.4649C72.9916 12.6364 72.9916 12.7651 72.9916 12.8508C72.9916 13.1082 73.0346 13.3441 73.1207 13.5586C73.207 13.8588 73.207 14.0519 73.1207 14.1376V14.5237C73.1207 15.21 73.0992 15.6389 73.0562 15.8104C72.8408 16.0678 72.7978 16.3252 72.927 16.5825L73.0562 16.8398L72.9916 17.2259L72.3454 18.1909L71.764 18.8986L71.3763 19.2847C70.8163 19.5421 70.5795 19.7779 70.6656 19.9924L71.1824 20.7002C71.0102 20.7859 70.8163 20.8717 70.601 20.9574C70.3856 21.0433 70.1917 21.1291 70.0194 21.2148L69.5026 21.5366L69.5672 21.9869C69.6103 22.0298 69.6318 22.1156 69.6318 22.2442C69.6318 22.3729 69.6533 22.4587 69.6964 22.5016L69.8256 24.8822L69.8903 25.7829C69.9333 25.8687 69.9549 26.2761 69.9549 27.0052L70.0194 27.9704C70.1056 28.1849 70.1702 29.343 70.2132 31.4446C70.2564 32.0022 70.2779 33.1603 70.2779 34.9189C70.2779 36.6346 70.2564 38.2216 70.2132 39.6799C70.1702 41.0954 70.1271 42.1248 70.084 42.7681C70.041 42.8968 70.0194 43.0684 70.0194 43.2829C70.0194 43.4544 69.9979 43.626 69.9549 43.7975C69.9549 44.9127 69.9118 45.5562 69.8256 45.7277C69.8256 45.9851 69.804 46.1995 69.761 46.3711V46.9501L69.6318 47.7865L69.5672 48.6872L69.5026 49.395C69.4594 49.4808 69.4379 49.6523 69.4379 49.9097C69.2226 50.8963 68.9856 51.5182 68.7272 51.7755C68.7272 51.7755 68.8134 51.8398 68.9856 51.9685C69.158 52.0544 69.2226 52.1186 69.1795 52.1615C69.1365 52.2045 68.878 52.2688 68.4042 52.3546C67.9303 52.4833 67.5857 52.569 67.3704 52.6119C67.2411 52.569 67.1335 52.5047 67.0473 52.4189C67.0043 52.3332 66.9612 52.2688 66.918 52.2259C66.8319 52.0544 66.7458 51.9471 66.6597 51.9042C66.5734 51.9042 66.4658 51.8398 66.3366 51.7111L66.0781 51.5182L66.0135 51.5825C65.7981 51.7111 65.6043 51.7326 65.432 51.6469C65.3459 51.561 65.2167 51.5182 65.0443 51.5182C64.6136 51.5182 64.3336 51.4323 64.2044 51.2608C64.1183 51.0892 64.0752 50.5959 64.0752 49.781C64.0752 48.0653 64.0105 47.0788 63.8813 46.8214L63.8167 46.1138C63.8167 45.6419 63.7952 45.2988 63.7522 45.0843L63.5583 44.6983V41.9961C63.6444 41.9961 63.6876 41.5672 63.6876 40.7093C63.7306 39.9802 63.7522 39.3797 63.7522 38.9079C63.7952 38.436 63.8383 38.0929 63.8813 37.8785C63.9244 37.7498 63.9675 37.1922 64.0105 36.2057C64.0537 35.0904 64.1183 34.3613 64.2044 34.0182C64.2044 33.9753 64.2044 33.9109 64.2044 33.8252C64.2475 33.6965 64.2475 33.5464 64.2044 33.3747C64.2044 33.0745 64.2259 32.9029 64.269 32.8601C64.269 32.6027 64.2905 32.3883 64.3336 32.2166C64.3336 31.9594 64.3336 31.7877 64.3336 31.702C64.3768 31.6162 64.3983 31.5519 64.3983 31.5089L64.4629 30.8013C64.4629 30.5439 64.4844 30.308 64.5275 30.0936C64.5705 29.879 64.5921 29.6646 64.5921 29.4501C64.7213 28.5494 64.786 27.9704 64.786 27.713L64.8505 25.9759C64.9367 24.9893 64.9367 24.4961 64.8505 24.4961C64.7644 24.4961 64.6351 24.5819 64.4629 24.7535C64.2044 25.0966 63.9244 25.2681 63.6229 25.2681C63.5367 25.3111 63.4291 25.3539 63.2999 25.3968C63.1706 25.4398 63.0414 25.5041 62.9121 25.5899L62.6538 25.8472L62.3953 25.9759C62.2661 26.1045 62.1368 26.1689 62.0076 26.1689C61.9646 26.126 61.9 26.126 61.8137 26.1689C61.7276 26.1689 61.6846 26.1689 61.6846 26.1689C61.6415 26.2118 61.5769 26.2547 61.4908 26.2975C61.4476 26.3405 61.383 26.3833 61.2969 26.4262C61.1246 26.4262 60.9954 26.4906 60.9092 26.6193C60.8662 26.748 60.8016 26.8123 60.7153 26.8123L60.3924 26.941H60.1339C59.8754 26.941 59.6601 26.9624 59.4878 27.0052C59.3155 27.0052 59.1862 26.9838 59.1001 26.941C59.057 26.9838 58.9709 26.9624 58.8416 26.8767C58.5833 26.748 58.4324 26.6622 58.3894 26.6193C58.0448 26.2761 57.7648 26.1045 57.5495 26.1045L57.1618 26.0402C56.6448 25.9544 56.3648 25.9116 56.3218 25.9116C56.1495 25.9116 56.0203 25.8901 55.9341 25.8472C55.891 25.8043 55.848 25.74 55.8049 25.6542C55.8049 25.5684 55.8049 25.4182 55.8049 25.2038V24.8822C55.8049 24.4961 55.7834 24.2817 55.7403 24.2387V23.531C55.7834 23.145 55.7619 22.8876 55.6757 22.759C55.6327 22.6303 55.611 22.3943 55.611 22.0512V21.2148C55.611 21.172 55.5895 21.1291 55.5464 21.0861C55.5034 21.0004 55.5034 20.936 55.5464 20.8931C55.5895 20.55 55.568 20.2498 55.4819 19.9924Z" fill="#4A443D"/>
<path d="M0.949772 32.0884C1.03592 30.8016 1.05746 30.0724 1.01438 29.9009L0.949772 29.5148V28.5498L1.01438 28.2281L1.079 27.9708C1.079 27.7562 0.992847 27.6061 0.820549 27.5204C0.648252 27.3917 0.562103 27.3059 0.562103 27.263L0.755937 27.0056C0.928235 26.6626 1.12207 26.3623 1.33744 26.1049C1.63896 25.5902 1.91894 25.29 2.17739 25.2042C2.26353 25.1613 2.56506 24.9897 3.08195 24.6895C3.64191 24.3892 4.0942 24.0676 4.43879 23.7244L4.95568 23.3384L5.08491 23.274C5.12798 23.2312 5.19259 23.1453 5.27874 23.0166C5.40797 22.888 5.53718 22.7594 5.66641 22.6307L6.1833 22.1803L6.50636 21.73L6.76481 21.4726C7.15248 21.0865 7.38938 20.8291 7.47554 20.7006C8.25087 20.1 8.94006 19.4352 9.5431 18.7061L10.1892 18.127L10.5123 17.9339C11.0292 17.4193 11.4168 16.9475 11.6753 16.5186L12.4506 15.7464C13.0537 15.0601 13.5705 14.5241 14.0013 14.138C14.432 13.7091 14.712 13.4088 14.8413 13.2373C14.9274 13.1086 15.0351 12.9799 15.1644 12.8512C15.2935 12.6797 15.4012 12.5724 15.4873 12.5296L15.8104 12.2079C15.8104 12.1649 16.0689 11.8647 16.5857 11.3071L17.4257 10.4064L17.9426 9.76301L18.0718 9.63434C18.3733 9.41987 18.5672 9.22686 18.6533 9.05529L19.2995 8.41191L20.0102 7.63985L20.204 7.31816L21.3024 6.09573C21.6039 5.96705 21.8408 5.70971 22.0131 5.32368C22.0131 5.36657 22.0562 5.38801 22.1424 5.38801C22.1424 5.4309 22.0992 5.45235 22.0131 5.45235C22.1424 5.45235 22.4438 5.34512 22.9177 5.13067C23.4346 4.9162 23.7576 4.78753 23.8868 4.74463C24.1453 4.95909 24.3607 5.08777 24.5329 5.13067C24.7053 5.25933 24.9206 5.4738 25.1791 5.77404C25.4806 6.0314 25.8468 6.2673 26.2775 6.48176C26.4497 6.61044 26.7297 6.8249 27.1174 7.12514C27.5051 7.3825 27.8281 7.61841 28.0866 7.83286L29.3142 8.86228C29.3572 8.86228 29.4435 8.92662 29.5727 9.05529L29.8311 9.31265L30.5419 9.76301L30.6711 9.89169L30.8649 10.0204C30.8649 10.0204 31.0587 10.149 31.4464 10.4064L31.9633 10.7924L32.6741 11.3071L33.2555 11.8218C33.7293 12.2079 34.0524 12.4437 34.2247 12.5296H34.2893C34.5047 12.7441 34.677 12.8727 34.8062 12.9156C34.8062 12.9156 34.8924 13.0013 35.0646 13.1729C35.1938 13.2587 35.3231 13.3874 35.4523 13.559C35.6246 13.6876 35.7754 13.8163 35.9045 13.945L36.7446 14.6527C36.9168 14.7385 37.0029 14.8243 37.0029 14.91L37.1322 14.9744L37.3906 15.1674C37.4338 15.1674 37.4122 15.1245 37.326 15.0387L37.9076 15.4892L38.8768 16.1325C39.1782 16.4327 39.5013 16.7115 39.8459 16.9689L40.6859 17.4836L41.4612 18.0626C41.7196 18.32 41.8489 18.4487 41.8489 18.4487C42.1072 18.5774 42.6242 18.8776 43.3995 19.3494C44.2179 19.8212 44.8425 20.1214 45.2732 20.2501L45.6609 20.3788L45.7255 20.4432L46.307 20.7006L48.3099 21.73L49.8607 22.8237L50.1191 24.8182C50.1621 24.9468 50.1838 25.1184 50.1838 25.3329C50.0975 25.676 50.0545 25.9334 50.0545 26.1049V26.684C50.0545 26.9414 50.0545 27.1343 50.0545 27.263C50.0975 27.3917 50.1191 27.4774 50.1191 27.5204C50.1191 27.6061 49.9899 27.8206 49.7314 28.1637L49.6668 28.9358C49.6668 29.279 49.6453 29.6006 49.6022 29.9009C49.5592 30.1582 49.4946 30.3727 49.4083 30.5443L48.633 30.6086H48.4392C48.3962 30.5657 48.3316 30.5443 48.2454 30.5443L48.1162 30.4799L47.5993 30.4156C47.5131 30.3727 47.4054 30.3512 47.2762 30.3512C47.0608 30.1368 46.6086 29.9437 45.9194 29.7722L45.7255 29.7079L45.4671 29.5792L45.1441 29.4505C45.0578 29.3647 44.9717 29.3218 44.8856 29.3218C44.8425 29.279 44.7995 29.2361 44.7564 29.1931L44.1748 28.9358L41.8489 27.7777L41.655 27.6491L41.5258 27.5847L41.3319 27.3917L39.7167 26.491C39.5443 26.3193 39.4151 26.2122 39.329 26.1692L39.0705 25.9763C38.9844 25.8904 38.8768 25.8261 38.7475 25.7833C38.6183 25.6974 38.5106 25.5902 38.4244 25.4615C37.9076 25.0755 37.6275 24.861 37.5845 24.8182L36.68 24.2391L36.163 23.8531L34.677 22.7594L34.2893 22.502L33.7078 22.3733C33.5355 22.3733 33.3416 22.4162 33.1263 22.502C32.954 22.5878 32.8463 22.7164 32.8032 22.888C32.6309 23.0596 32.5663 23.3384 32.6094 23.7244C32.6524 24.1104 32.6741 24.3034 32.6741 24.3034C32.6741 24.3464 32.4586 24.4965 32.0279 24.7539C31.6403 24.9683 31.3818 25.1398 31.2526 25.2685C31.2526 25.3114 31.1664 25.3329 30.9941 25.3329C30.7787 25.3329 30.5203 25.3758 30.2188 25.4615C29.9603 25.5473 29.7234 25.6331 29.5081 25.7189L26.3421 26.6196H26.0836C25.7822 26.6196 25.4376 26.6626 25.0499 26.7483C24.6622 26.8341 24.3607 26.8555 24.1453 26.8127C23.8437 26.7268 23.4991 26.684 23.1115 26.684H22.9823L22.1424 26.491C22.0131 26.448 21.7978 26.4052 21.4962 26.3623C21.2378 26.2765 20.8932 26.1478 20.4624 25.9763L19.6225 25.7189C19.0194 25.6331 18.6748 25.5045 18.5887 25.3329V25.2042L18.5241 24.8825L18.3948 24.3678C18.3948 24.282 18.3733 24.2391 18.3302 24.2391C18.3302 23.8531 18.2872 23.5958 18.2011 23.4671L18.1365 23.2097C18.1365 22.5663 17.9426 22.0945 17.5549 21.7943C17.3827 21.6656 17.1673 21.6013 16.9088 21.6013C16.3489 21.6013 15.918 21.8801 15.6166 22.4377C15.4443 22.6092 15.272 22.8022 15.0997 23.0166C14.9274 23.2312 14.7551 23.4457 14.5828 23.6601L14.2597 23.9817C14.1736 24.0676 14.1736 24.089 14.2597 24.0461C14.3459 23.9603 14.3889 23.9175 14.3889 23.9175L13.9367 24.3678C13.8505 24.5394 13.7644 24.6252 13.6782 24.6252C13.6782 24.7109 13.5705 24.861 13.3551 25.0755L13.1613 25.3329C13.1613 25.3758 13.1183 25.4186 13.0322 25.4615C12.9891 25.4615 12.9675 25.483 12.9675 25.5259L12.5798 25.912C12.4506 26.0405 12.386 26.1264 12.386 26.1692L11.8691 26.877L11.6753 27.0699C11.6322 27.1558 11.4599 27.3489 11.1583 27.6491L10.1246 28.6785L9.28465 29.7079L8.31549 30.4799L7.2817 31.5737L6.57097 32.0884C6.48482 32.1742 6.39867 32.2599 6.31253 32.3457C6.26945 32.4316 6.29099 32.4316 6.37713 32.3457L6.11869 32.6031L5.66641 32.8605L4.11573 33.9542L0.949772 32.0884ZM16.3919 44.6986C16.435 44.57 16.4565 44.3555 16.4565 44.0553L16.715 40.7097C16.7581 40.4952 16.7796 40.2594 16.7796 40.002C16.8227 39.7018 16.8657 39.4444 16.9088 39.23L16.9734 38.6509L17.0381 37.8145L17.1673 36.9781C17.2103 36.6778 17.1242 36.2275 16.9088 35.627C16.6935 34.8549 16.5857 34.3831 16.5857 34.2116C16.5857 33.8683 16.6719 33.5896 16.8442 33.3751L17.361 32.3457L17.878 32.41C18.2226 32.1528 18.4594 32.0455 18.5887 32.0884C18.7179 32.0884 18.804 32.0884 18.8472 32.0884H19.2349L20.0102 31.9597L20.204 31.831C20.204 31.7881 20.3117 31.7667 20.527 31.7667L21.69 31.5093C21.69 31.4665 21.8193 31.4236 22.0777 31.3806L22.2716 31.1876L24.5329 30.7373C24.7484 30.7373 24.8991 30.7159 24.9852 30.6729L26.6651 30.4799H27.2467L27.3759 30.4156H27.7635L28.4097 30.4799L28.8619 30.5443L29.1204 30.6086H29.4435C29.4865 30.6515 29.5296 30.6729 29.5727 30.6729C29.6588 30.6729 29.7234 30.6944 29.7665 30.7373L31.1233 31.1876C31.2094 31.2305 31.2957 31.2949 31.3818 31.3806C31.511 31.4236 31.6187 31.445 31.7049 31.445L31.9633 31.5737C31.8771 31.5737 31.9849 31.7238 32.2863 32.0241L32.5448 32.9248C32.5448 33.0106 32.5663 33.0963 32.6094 33.1821C32.6524 33.2679 32.6741 33.3537 32.6741 33.4395L32.8678 34.6619L32.997 35.048L33.1263 35.8843L33.1909 36.2704L33.4494 38.4578V39.1013L33.514 39.809L33.5786 40.3881L33.6432 45.2134C33.6432 46.6288 33.6216 47.3794 33.5786 47.4653C33.4924 47.8942 33.4494 48.1944 33.4494 48.366C33.4494 48.5804 33.4279 48.7305 33.3847 48.8163L33.3201 49.2024L33.0617 50.4248L32.9324 50.6822C32.8463 50.9824 32.7602 51.1754 32.6741 51.2612C32.6309 51.3469 32.5663 51.3899 32.4802 51.3899C32.2648 51.3899 31.9849 51.4327 31.6403 51.5186C31.2957 51.5614 31.0157 51.6043 30.8002 51.6472C30.5419 51.6472 29.8311 51.8617 28.668 52.2906H28.7327C28.6465 52.2906 28.5819 52.312 28.5389 52.3549C28.3666 52.3978 28.0435 52.4836 27.5698 52.6123C27.0959 52.7838 26.9236 52.8268 27.0528 52.741C26.6651 52.741 26.4497 52.7624 26.4067 52.8052H26.4714L25.9544 52.9983H25.373L22.9823 52.8696L22.8531 52.8052L19.2349 52.4193L18.9764 52.8052L17.7488 51.7115L17.6195 51.0038C17.5334 50.5749 17.4473 50.2961 17.361 50.1674L17.2964 49.8457L17.1673 49.138C17.1242 49.0093 17.1027 48.9664 17.1027 49.0093C17.0165 48.7519 16.8873 48.13 16.715 47.1435C16.5427 46.1571 16.435 45.4064 16.3919 44.8917V44.6986ZM18.3948 20.7006C18.4379 20.7863 18.5026 20.8291 18.5887 20.8291C18.761 20.8291 18.8903 20.8077 18.9764 20.7649L19.8809 20.6362C19.9241 20.5933 19.9887 20.5719 20.0748 20.5719C20.204 20.5289 20.2902 20.4861 20.3333 20.4432L20.9793 20.3788C21.0225 20.3359 21.1516 20.3145 21.3671 20.3145C21.5393 20.3145 21.647 20.2931 21.69 20.2501L22.7238 20.1214C22.7669 20.0786 23.0469 20.0571 23.5637 20.0571C23.693 20.0143 23.8222 19.9928 23.9515 19.9928C24.0807 19.9928 24.1883 19.9713 24.2746 19.9284C24.6191 19.8856 25.8468 19.8212 27.9574 19.7355L29.185 19.6711C29.2281 19.6282 29.2496 19.6068 29.2496 19.6068C29.2496 19.4781 29.0989 19.2421 28.7973 18.899C28.7973 18.899 28.6035 18.7061 28.2158 18.32L27.7635 17.741C27.462 17.3978 27.2682 17.2262 27.182 17.2262L26.9236 16.9045C26.8806 16.6473 26.6867 16.2826 26.3421 15.8108L25.9544 15.2961L25.5022 14.7814L25.1791 14.138C25.0499 14.0093 24.9852 13.9022 24.9852 13.8163L24.7914 13.366C24.7484 13.323 24.6838 13.2373 24.5975 13.1086C24.5114 12.9799 24.4684 12.8942 24.4684 12.8512L24.2746 12.5296C24.2314 12.358 24.1668 12.2722 24.0807 12.2722C24.0376 12.358 23.973 12.4653 23.8868 12.5938C23.8007 12.7225 23.7361 12.8512 23.693 12.9799L23.4346 13.3016C23.2623 13.559 23.1761 13.6876 23.1761 13.6876C23.1761 13.7305 23.1115 13.8378 22.9823 14.0093C22.8531 14.1809 22.7454 14.3525 22.6592 14.5241C22.3146 15.0387 22.1424 15.2961 22.1424 15.2961C22.1424 15.2961 21.8839 15.6822 21.3671 16.4542L21.1086 16.9689L20.6563 17.6123C20.3978 17.8696 20.2687 18.0626 20.2687 18.1913L20.0748 18.4487L19.2995 19.3494C19.2133 19.4781 18.9764 19.7998 18.5887 20.3145C18.4594 20.4432 18.3948 20.5719 18.3948 20.7006ZM20.9793 41.3531C20.9793 43.0688 21.0225 44.0124 21.1086 44.184C21.6254 44.2268 21.9916 44.2268 22.207 44.184C22.2931 44.1411 22.5946 44.1196 23.1115 44.1196C23.2838 44.0767 23.4561 44.0553 23.6284 44.0553C23.8007 44.0553 23.9515 44.0339 24.0807 43.991L24.9206 43.9266C25.136 43.8837 25.3945 43.8623 25.6959 43.8623L26.9882 43.7979L27.8927 43.7336C28.022 43.6907 28.1081 43.4548 28.1512 43.0259L28.2804 42.1252L28.5389 39.2943C28.5389 38.8653 28.4743 38.6294 28.3451 38.5865C28.2589 38.5437 28.1512 38.5222 28.022 38.5222C27.9359 38.5222 27.8497 38.5008 27.7635 38.4578L26.9882 38.3935C26.8159 38.3507 26.6005 38.3292 26.3421 38.3292C26.1268 38.3292 25.9329 38.3507 25.7606 38.3935C25.7175 38.3935 25.5883 38.415 25.373 38.4578C25.2006 38.4578 24.8345 38.4578 24.2746 38.4578L23.2408 38.5222L22.5946 38.5865L22.207 38.6509L21.6254 38.7152C21.2378 38.7152 21.0225 38.801 20.9793 38.9726V41.3531ZM31.9633 31.5737C31.9633 31.6166 31.9633 31.638 31.9633 31.638C32.0064 31.638 32.0495 31.638 32.0925 31.638L31.9633 31.5737Z" fill="#4A443D"/>
</g>
<defs>
<clipPath id="clip0_290_5154">
<rect width="204" height="56" fill="white" transform="translate(0 0.618164)"/>
</clipPath>
</defs>
</svg>
