<svg width="190" height="51" viewBox="0 0 190 51" fill="none" xmlns="http://www.w3.org/2000/svg">
<path d="M29.4648 48.1172C29.2695 48.1172 29.1523 48.0977 29.1133 48.0586L28.8789 48.1172C28.7617 48.1172 28.6641 48.0781 28.5859 48L28.2344 47.9414C28.1562 47.9023 28.0586 47.8438 27.9414 47.7656C27.8242 47.6875 27.7266 47.6094 27.6484 47.5312C27.6094 47.4141 27.4336 47.2773 27.1211 47.1211C26.8477 46.9648 26.5938 46.8477 26.3594 46.7695C26.2812 46.7305 26.1836 46.7109 26.0664 46.7109C25.9883 46.7109 25.9102 46.6914 25.832 46.6523L25.4219 46.5938C25.3828 46.5547 25.2656 46.5352 25.0703 46.5352C24.6406 46.3789 24.3477 46.2422 24.1914 46.125C23.9961 46.0078 23.8984 45.832 23.8984 45.5977C23.8984 45.4023 23.8984 45.168 23.8984 44.8945C23.9375 44.582 23.9375 44.1719 23.8984 43.6641L23.957 42.5508C23.918 42.2383 23.8594 42.0039 23.7812 41.8477C23.7422 41.6133 23.7422 41.457 23.7812 41.3789L23.7227 40.8516C23.6836 40.6172 23.6836 40.4414 23.7227 40.3242C23.7617 40.207 23.7617 40.1094 23.7227 40.0312L23.6641 39.7383L23.7227 39.3867C23.7617 39.0742 23.7422 38.8398 23.6641 38.6836L23.6055 38.2734C23.6055 38.1172 23.5469 37.9805 23.4297 37.8633C23.3906 37.8242 23.3711 37.7852 23.3711 37.7461C23.3711 37.707 23.3906 37.668 23.4297 37.6289C23.4297 37.5508 23.4688 37.4336 23.5469 37.2773C23.7031 37.082 23.9961 36.8672 24.4258 36.6328C24.582 36.5938 25.1094 36.5742 26.0078 36.5742C26.5547 36.6133 27.3164 36.5742 28.293 36.457C28.918 36.3398 29.3281 36.2422 29.5234 36.1641C29.7188 36.0859 29.9531 35.8906 30.2266 35.5781C30.9688 34.7188 31.4961 33.4883 31.8086 31.8867C31.8477 31.8086 31.8672 31.7109 31.8672 31.5938C31.8672 31.4766 31.8867 31.3789 31.9258 31.3008C31.8867 31.1836 31.9062 31.0469 31.9844 30.8906L32.043 30.4805V30.1875C32.082 30.1094 32.1406 29.6992 32.2188 28.957L32.2773 28.2539L32.3359 27.8438V27.4336L32.2773 25.6172L32.2188 21.8672V21.5156C32.2578 21.4375 32.2969 20.6953 32.3359 19.2891C32.3359 19.1328 32.3359 18.9766 32.3359 18.8203C32.375 18.625 32.375 18.4297 32.3359 18.2344L32.3945 17.2969C32.4336 17.0234 32.4531 16.7305 32.4531 16.418C32.4531 16.0664 32.4727 15.7734 32.5117 15.5391C32.5117 15.4219 32.4922 15.3438 32.4531 15.3047C32.4141 15.2656 32.3555 15.2461 32.2773 15.2461H31.9258C31.8477 15.207 31.7305 15.207 31.5742 15.2461C31.418 15.2461 31.2617 15.2461 31.1055 15.2461L29.5234 15.3047C29.0156 15.3047 28.7227 15.2852 28.6445 15.2461C28.6055 15.207 28.5273 15.1875 28.4102 15.1875C28.2539 15.1875 28.0586 15.168 27.8242 15.1289C27.5898 15.0898 27.4531 15.0898 27.4141 15.1289C27.4141 15.0508 27.3359 15.0117 27.1797 15.0117L26.8281 14.9531L26.418 14.8945C26.2617 14.8945 25.9883 14.7773 25.5977 14.543L25.3047 14.4258C25.1484 14.4258 24.8945 14.3086 24.543 14.0742C24.5039 14.0352 24.3281 13.9375 24.0156 13.7812L23.0781 13.3711C23 13.293 22.9414 13.2539 22.9023 13.2539C22.668 13.0977 22.5898 12.9219 22.668 12.7266L22.7266 12.0234C22.7266 11.7109 22.7656 11.4766 22.8438 11.3203C22.8047 11.2031 22.7852 11.1055 22.7852 11.0273C22.8242 10.9492 22.8242 10.8906 22.7852 10.8516C22.7852 9.91406 22.8242 9.34766 22.9023 9.15234L23.0195 8.74219C23.0195 8.66406 23.0586 8.54687 23.1367 8.39062L23.1953 8.27344C23.1953 8.11719 23.3125 8.01953 23.5469 7.98047L23.7227 7.80469L23.957 7.74609L24.25 7.51172C24.6406 7.31641 24.9922 7.21875 25.3047 7.21875L28.1172 6.75C28.2344 6.71094 28.3711 6.69141 28.5273 6.69141C28.6836 6.69141 28.8008 6.67187 28.8789 6.63281H29.4648L30.0508 6.57422L30.5781 6.51562L31.1641 6.39844L31.8672 6.33984C32.2188 6.30078 33.2148 6.28125 34.8555 6.28125H36.4961C37.3164 6.28125 37.8828 6.30078 38.1953 6.33984C38.5469 6.33984 38.7617 6.33984 38.8398 6.33984C38.8789 6.37891 38.9766 6.39844 39.1328 6.39844C39.25 6.4375 39.3867 6.45703 39.543 6.45703C39.7383 6.45703 39.875 6.47656 39.9531 6.51562C39.9922 6.55469 40.0312 6.57422 40.0703 6.57422C40.1484 6.57422 40.207 6.59375 40.2461 6.63281L41.0078 6.80859L42.0039 7.39453L42.7656 7.92188C43 8.03906 43.1562 8.13672 43.2344 8.21484C43.3516 8.29297 43.4297 8.42969 43.4688 8.625L43.5273 9.09375C43.4883 9.17188 43.4688 9.36719 43.4688 9.67969C43.5078 9.95312 43.5078 10.1289 43.4688 10.207C43.4297 10.2852 43.4102 10.3828 43.4102 10.5L43.3516 10.7344C43.3125 10.7734 43.293 10.832 43.293 10.9102C43.332 10.9883 43.3516 11.0273 43.3516 11.0273L43.2344 11.4375C43.0781 11.9844 43 12.2773 43 12.3164V12.668C43 12.707 42.8438 12.8828 42.5312 13.1953L42.1211 13.6055L41.7109 13.7227L41.2422 13.8398L41.0078 13.957L40.8906 14.0156L40.6562 14.0742C40.6172 14.1133 40.3828 14.1523 39.9531 14.1914C39.5625 14.2695 39.3672 14.3086 39.3672 14.3086L38.957 14.3672L38.5469 14.4258C38.4688 14.4648 38.332 14.4844 38.1367 14.4844L37.668 14.543L36.6133 14.6016C36.5742 14.5625 36.5156 14.5625 36.4375 14.6016C36.3984 14.6016 36.3594 14.6016 36.3203 14.6016C36.2812 14.6406 36.2031 14.6602 36.0859 14.6602L35.9102 14.7773C35.8711 14.7773 35.8711 15.0508 35.9102 15.5977C36.0273 15.8711 36.0859 16.3398 36.0859 17.0039C36.1641 17.3164 36.2031 17.7266 36.2031 18.2344L36.3203 19.1719C36.3203 19.4844 36.3398 19.6797 36.3789 19.7578C36.3789 19.7969 36.3984 19.9531 36.4375 20.2266C36.4766 20.4609 36.4961 20.7148 36.4961 20.9883C36.4961 21.3398 36.5156 21.6719 36.5547 21.9844C36.5938 22.2969 36.6133 22.5508 36.6133 22.7461C36.6914 23.293 36.7305 23.8594 36.7305 24.4453L37.0234 27.1406L37.1406 28.0781C37.1406 28.5859 37.1602 28.8789 37.1992 28.957L37.3164 31.6523C37.2383 32.1211 37.2383 32.6094 37.3164 33.1172C37.2773 33.2734 37.2578 33.4492 37.2578 33.6445C37.2578 33.8008 37.2383 33.9375 37.1992 34.0547L37.1406 34.6406C37.1406 35.0312 37.1211 35.2852 37.082 35.4023L37.0234 36.2227L36.9648 36.6914L36.9062 36.9258C36.9062 36.9648 36.9062 37.043 36.9062 37.1602C36.9453 37.2383 36.9453 37.3359 36.9062 37.4531L36.7891 38.0391L36.7305 38.4492L36.6133 39.0938C36.6523 39.1719 36.6523 39.2695 36.6133 39.3867C36.6133 39.5039 36.6133 39.582 36.6133 39.6211L36.3789 40.7344C36.3398 41.0469 36.1445 41.8477 35.793 43.1367C35.6758 43.3711 35.5586 43.625 35.4414 43.8984C35.3633 44.1328 35.3047 44.3086 35.2656 44.4258L35.0898 44.7773C34.8164 45.2852 34.6406 45.5781 34.5625 45.6562C34.4062 45.8125 34.2891 45.9883 34.2109 46.1836C33.8203 46.5742 33.625 46.7695 33.625 46.7695C33.5859 46.7695 33.4492 46.8867 33.2148 47.1211C33.1367 47.1992 33.0781 47.2383 33.0391 47.2383L32.5117 47.5312C32.3164 47.6484 32.0039 47.7461 31.5742 47.8242C31.3398 47.8242 31.2031 47.8438 31.1641 47.8828H30.9297C30.8516 47.8828 30.793 47.9023 30.7539 47.9414L30.5195 48C30.4023 48 30.3438 48.0195 30.3438 48.0586C30.3047 48.0977 30.1289 48.1172 29.8164 48.1172H29.4648ZM0.402344 12.5508C0.480469 12.1602 0.519531 11.8477 0.519531 11.6133V11.1445C0.558594 11.0664 0.558594 10.9492 0.519531 10.793C0.519531 10.5977 0.519531 10.4219 0.519531 10.2656L0.578125 9.5625C0.617188 9.52344 0.636719 9.36719 0.636719 9.09375C0.636719 9.05469 0.617188 8.99609 0.578125 8.91797C0.578125 8.80078 0.597656 8.70313 0.636719 8.625C0.753906 8.3125 0.753906 8.07812 0.636719 7.92188L0.578125 7.6875C0.578125 7.60937 0.65625 7.51172 0.8125 7.39453C1.00781 7.27734 1.20312 7.19922 1.39844 7.16016C1.59375 7.08203 1.82812 7.04297 2.10156 7.04297L2.33594 6.92578C2.49219 6.84766 2.6875 6.80859 2.92188 6.80859C3.15625 6.76953 3.37109 6.73047 3.56641 6.69141C4.03516 6.69141 4.30859 6.67187 4.38672 6.63281L5.20703 6.57422C6.18359 6.57422 6.71094 6.49609 6.78906 6.33984C6.90625 6.22266 6.96484 6.04688 6.96484 5.8125V4.52344C6.96484 3.50781 7.00391 2.88281 7.08203 2.64844C7.08203 2.49219 7.14062 2.39453 7.25781 2.35547C7.29688 2.31641 7.35547 2.29688 7.43359 2.29688C7.62891 2.29688 7.94141 2.43359 8.37109 2.70703C8.83984 2.98047 9.19141 3.35156 9.42578 3.82031C9.54297 4.17188 9.64062 4.48438 9.71875 4.75781C9.79688 5.03125 9.83594 5.36328 9.83594 5.75391C9.875 6.10547 9.91406 6.32031 9.95312 6.39844L10.1875 6.45703C10.5781 6.53516 10.9102 6.57422 11.1836 6.57422C11.2617 6.61328 11.4766 6.63281 11.8281 6.63281C12.3359 6.63281 12.6875 6.69141 12.8828 6.80859L13.293 6.98438C13.4102 7.02344 13.5078 7.0625 13.5859 7.10156C13.7031 7.14062 13.8203 7.21875 13.9375 7.33594L14.582 7.74609C14.9336 7.90234 15.1289 8.01953 15.168 8.09766C15.2461 8.17578 15.2852 8.3125 15.2852 8.50781C15.3242 8.70313 15.3047 8.83984 15.2266 8.91797C15.1875 8.99609 15.1875 9.11328 15.2266 9.26953C15.3438 9.62109 15.3438 9.875 15.2266 10.0312C15.1875 10.0703 15.168 10.168 15.168 10.3242C15.0898 10.8711 15.0312 11.1836 14.9922 11.2617C14.9141 11.4961 14.875 11.6914 14.875 11.8477C14.875 12.1602 14.8359 12.3945 14.7578 12.5508L14.5234 12.8438C14.2891 12.9609 14.0742 13.0195 13.8789 13.0195C13.7617 13.0195 13.6836 13.0586 13.6445 13.1367C13.5664 13.1758 13.4688 13.1953 13.3516 13.1953L13 13.3125C12.6484 13.4297 12.2578 13.4883 11.8281 13.4883C11.3594 13.4883 11.0469 13.5273 10.8906 13.6055C10.6953 13.6445 10.4805 13.6445 10.2461 13.6055C10.0898 13.5664 9.97266 13.5664 9.89453 13.6055C9.89453 13.6055 9.79688 13.6445 9.60156 13.7227C9.44531 13.7227 9.34766 13.7422 9.30859 13.7812H9.07422L8.83984 13.7227L8.66406 13.7812C8.50781 13.7812 8.41016 13.8008 8.37109 13.8398C8.13672 13.918 7.92188 13.957 7.72656 13.957H7.25781C7.17969 13.9961 7.0625 14.0352 6.90625 14.0742C6.78906 14.1133 6.67188 14.1719 6.55469 14.25H5.85156C5.65625 14.25 5.46094 14.2891 5.26562 14.3672L4.44531 14.4258C4.21094 14.4258 3.91797 14.4258 3.56641 14.4258C3.25391 14.3867 3.01953 14.3477 2.86328 14.3086C2.66797 14.1133 2.57031 13.9961 2.57031 13.957C2.53125 13.957 2.45312 13.8594 2.33594 13.6641L1.63281 13.4297C0.96875 13.2734 0.597656 13.1367 0.519531 13.0195C0.363281 12.8633 0.324219 12.707 0.402344 12.5508ZM1.45703 42.1992L1.51562 41.6133C1.55469 41.5352 1.57422 41.418 1.57422 41.2617C1.57422 41.1055 1.59375 40.9688 1.63281 40.8516V40.3828C1.63281 39.8359 1.65234 39.5039 1.69141 39.3867V38.332C1.76953 38.1758 1.80859 37.9414 1.80859 37.6289L1.86719 36.6328L1.92578 35.8711L1.98438 35.2266C2.02344 35.1484 2.04297 34.9531 2.04297 34.6406C2.04297 34.3672 2.08203 34.1523 2.16016 33.9961C2.19922 33.8398 2.23828 33.7227 2.27734 33.6445C2.31641 33.5664 2.375 33.5273 2.45312 33.5273C2.57031 33.4883 2.64844 33.4102 2.6875 33.293C2.72656 33.1367 2.82422 33.0391 2.98047 33C3.17578 32.9219 3.35156 32.8633 3.50781 32.8242L4.21094 32.5898L4.62109 32.4727L4.91406 32.4141L5.5 32.2383C5.85156 32.2383 6.18359 32.1797 6.49609 32.0625C6.49609 32.0234 6.71094 32.0039 7.14062 32.0039C7.33594 31.9648 7.55078 31.9453 7.78516 31.9453C7.86328 31.8672 8.07812 31.8086 8.42969 31.7695C8.78125 31.7305 9.03516 31.7109 9.19141 31.7109C9.38672 31.6328 9.5625 31.5938 9.71875 31.5938C9.79688 31.5547 9.91406 31.5352 10.0703 31.5352C10.2266 31.5352 10.3633 31.5547 10.4805 31.5938L11.0078 31.6523C11.3203 31.6914 11.5547 31.75 11.7109 31.8281C11.8672 31.8672 11.9844 31.9062 12.0625 31.9453L12.4141 32.0625L13.2344 32.3555C13.3516 32.4727 13.5078 32.7266 13.7031 33.1172C13.7422 33.1953 13.7617 33.293 13.7617 33.4102C13.7617 33.5273 13.7812 33.625 13.8203 33.7031C14.0156 34.3281 14.1328 34.8555 14.1719 35.2852C14.25 35.5977 14.3086 35.7539 14.3477 35.7539L14.5234 38.7422V40.6172L14.4648 41.6133L14.4062 42.1406V42.7266C14.3281 43.0391 14.2891 43.3125 14.2891 43.5469C14.2109 43.7812 14.1719 43.9766 14.1719 44.1328V44.543L14.1133 44.9531C13.918 45.5 13.6445 46.0469 13.293 46.5938C12.9805 46.9062 12.668 47.1016 12.3555 47.1797C12.1602 47.1797 12.0039 47.2383 11.8867 47.3555C11.6523 47.4336 11.457 47.4727 11.3008 47.4727C10.6758 47.5898 10.2852 47.668 10.1289 47.707L9.19141 47.8242H8.66406C8.54688 47.8242 8.42969 47.8438 8.3125 47.8828C8.19531 47.8828 8.03906 47.8828 7.84375 47.8828C7.375 47.9219 7.08203 47.9805 6.96484 48.0586L6.26172 48.2344C6.18359 48.2734 6.06641 48.2539 5.91016 48.1758L5.79297 48.0586C5.71484 48.0586 5.57813 48.2148 5.38281 48.5273C5.38281 48.6055 5.30469 48.7031 5.14844 48.8203C4.99219 48.8594 4.89453 48.8594 4.85547 48.8203C4.77734 48.8203 4.69922 48.7422 4.62109 48.5859C4.50391 48.4688 4.44531 48.4102 4.44531 48.4102L4.03516 48.1172L3.85938 48L3.74219 48.0586C3.66406 48.1367 3.58594 48.1758 3.50781 48.1758C3.42969 48.1758 3.33203 48.1172 3.21484 48H2.98047C2.66797 48.1953 2.45312 48.1367 2.33594 47.8242L2.27734 47.2383V46.6523C2.19922 46.5742 2.16016 46.3789 2.16016 46.0664L2.10156 45.4805C2.0625 45.4023 2.04297 45.2266 2.04297 44.9531C2.04297 44.6797 2.00391 44.3867 1.92578 44.0742L1.80859 43.4297L1.51562 42.9023L1.45703 42.375V42.1992ZM2.51172 18.5859C2.51172 18.3906 2.49219 18.2148 2.45312 18.0586C2.45312 17.8633 2.45312 17.7266 2.45312 17.6484C2.49219 17.5312 2.55078 17.4727 2.62891 17.4727L2.86328 17.3555C2.98047 17.1602 3.44922 16.9453 4.26953 16.7109C4.54297 16.7109 4.875 16.6133 5.26562 16.418C5.34375 16.418 5.61719 16.3594 6.08594 16.2422L7.375 16.0078C7.45312 15.9688 7.55078 15.9492 7.66797 15.9492C7.82422 15.9492 7.98047 15.9102 8.13672 15.832L8.78125 15.7734L9.48438 15.7148C9.95312 15.7148 10.4219 15.7539 10.8906 15.832C11.3594 15.832 11.7305 15.9297 12.0039 16.125C12.043 16.1641 12.3164 16.2812 12.8242 16.4766L13.1758 16.5938C13.2148 16.6719 13.2344 16.8867 13.2344 17.2383C13.2344 17.4336 13.2539 17.5898 13.293 17.707C13.3711 17.8633 13.3906 18 13.3516 18.1172V18.5859C13.3516 18.9375 13.3125 19.2305 13.2344 19.4648C13.1563 19.6992 13.1758 19.875 13.293 19.9922C13.3711 20.1484 13.332 20.3047 13.1758 20.4609C12.9805 20.7344 12.6484 20.9492 12.1797 21.1055L11.9453 21.2227C11.7891 21.3008 11.6719 21.3398 11.5938 21.3398C11.3203 21.457 11.1836 21.5352 11.1836 21.5742C11.1445 21.6133 11.0664 21.6328 10.9492 21.6328L10.7734 21.6914C10.5391 21.8477 10.3047 21.9258 10.0703 21.9258C9.95312 21.9258 9.875 21.9648 9.83594 22.043C9.64062 22.1602 9.36719 22.2773 9.01562 22.3945C8.66406 22.4727 8.41016 22.5117 8.25391 22.5117L7.96094 22.6875L7.19922 22.8633C7.12109 22.8633 7.04297 22.8828 6.96484 22.9219C6.88672 22.9609 6.82812 22.9805 6.78906 22.9805C6.71094 23.0195 6.59375 23.0391 6.4375 23.0391C6.4375 23.0391 6.35938 23.0391 6.20312 23.0391C6.20312 23.1172 6.10547 23.1562 5.91016 23.1562L5.5 23.2734L5.38281 23.2148L5.20703 23.0977L4.38672 22.7461C4.07422 22.5898 3.83984 22.5117 3.68359 22.5117H3.56641C3.41016 22.5117 3.23438 22.4922 3.03906 22.4531C2.88281 22.375 2.78516 22.3164 2.74609 22.2773C2.66797 22.1992 2.62891 22.0234 2.62891 21.75L2.57031 20.6367L2.51172 19.582C2.51172 19.2305 2.49219 19.0156 2.45312 18.9375L2.51172 18.5859ZM2.51172 25.9688C2.55078 25.8125 2.55078 25.6758 2.51172 25.5586C2.43359 25.4023 2.39453 25.3047 2.39453 25.2656C2.43359 25.1875 2.53125 25.1094 2.6875 25.0312L2.98047 24.9141C2.98047 24.875 3.03906 24.8555 3.15625 24.8555C3.19531 24.8555 3.23438 24.8359 3.27344 24.7969C3.3125 24.7578 3.37109 24.7383 3.44922 24.7383C3.60547 24.6992 3.74219 24.6992 3.85938 24.7383H4.09375C4.13281 24.6992 4.23047 24.6797 4.38672 24.6797C4.54297 24.6797 4.66016 24.6406 4.73828 24.5625L5.32422 24.5039L5.73438 24.4453C5.96875 24.3672 6.20312 24.3281 6.4375 24.3281L7.375 24.2109C7.45312 24.1719 7.57031 24.1523 7.72656 24.1523C7.88281 24.1523 8.01953 24.1328 8.13672 24.0938C8.52734 24.0938 8.83984 24.0547 9.07422 23.9766L9.71875 23.8594H10.0703C10.3047 23.7812 10.4219 23.7422 10.4219 23.7422C10.7734 23.7422 11.1836 23.8398 11.6523 24.0352L12.2383 24.2695C12.4336 24.3477 12.5703 24.4258 12.6484 24.5039C12.7266 24.543 12.7656 24.6016 12.7656 24.6797C12.8438 24.8359 12.8828 24.9531 12.8828 25.0312L12.9414 25.5C13.0586 25.6562 13.0977 25.8125 13.0586 25.9688L13 26.3203V27.0234C13 27.2188 13.0195 27.3555 13.0586 27.4336C13.0977 27.5117 13.1172 27.6094 13.1172 27.7266C13.1172 28 12.6094 28.3711 11.5938 28.8398L11.3008 28.957C10.9492 29.1133 10.6562 29.2305 10.4219 29.3086C10.1875 29.3086 10.0508 29.3281 10.0117 29.3672C9.85547 29.4453 9.69922 29.4844 9.54297 29.4844L8.95703 29.6602C8.91797 29.6992 8.85938 29.7188 8.78125 29.7188C8.74219 29.7188 8.70312 29.7383 8.66406 29.7773H8.42969C8.27344 29.6992 8.07812 29.7383 7.84375 29.8945C7.6875 29.9727 7.49219 30.0117 7.25781 30.0117C6.86719 30.0117 6.61328 30.0508 6.49609 30.1289H6.20312C6.04688 30.1289 5.91016 30.1094 5.79297 30.0703L5.5 30.0117C5.42188 29.9727 5.30469 29.9531 5.14844 29.9531C5.03125 29.9141 4.93359 29.8945 4.85547 29.8945C4.77734 29.8945 4.67969 29.8359 4.5625 29.7188C4.40625 29.6406 4.26953 29.6016 4.15234 29.6016C3.76172 29.6016 3.50781 29.543 3.39062 29.4258L3.21484 29.3086C3.17578 29.2695 3.09766 29.2109 2.98047 29.1328C2.90234 29.0156 2.86328 28.8203 2.86328 28.5469V28.1367C2.78516 27.9805 2.74609 27.8047 2.74609 27.6094L2.6875 27.1992L2.62891 26.8477L2.51172 26.3789V25.9688ZM6.14453 38.5078C6.14453 41.2422 6.16406 42.6484 6.20312 42.7266C6.20312 42.7656 6.30078 42.7852 6.49609 42.7852C6.88672 42.7852 7.14062 42.7656 7.25781 42.7266C7.29688 42.6875 7.375 42.668 7.49219 42.668C7.60938 42.668 7.72656 42.6289 7.84375 42.5508C8 42.5508 8.19531 42.5117 8.42969 42.4336C8.66406 42.3555 8.85938 42.2578 9.01562 42.1406C9.25 42.0625 9.50391 41.8867 9.77734 41.6133C9.85547 41.457 9.93359 41.3008 10.0117 41.1445C10.0898 40.9883 10.1484 40.8516 10.1875 40.7344C10.2656 40.5781 10.3242 40.3828 10.3633 40.1484C10.4023 39.875 10.4219 39.6602 10.4219 39.5039L10.5391 39.0938L10.7734 37.8047C10.7344 37.7266 10.6758 37.668 10.5977 37.6289C10.5195 37.5508 10.4219 37.5312 10.3047 37.5703L9.89453 37.6289H8.95703L8.25391 37.8047C8.17578 37.8438 7.88281 37.8828 7.375 37.9219C6.78906 38 6.47656 38.0781 6.4375 38.1562C6.32031 38.1562 6.24219 38.1953 6.20312 38.2734C6.16406 38.3125 6.14453 38.3906 6.14453 38.5078ZM81.0859 50.8125C81.0078 50.8516 80.9102 50.8711 80.793 50.8711C80.7148 50.8711 80.6172 50.832 80.5 50.7539L80.2656 50.6367L80.0898 50.5195C79.9727 50.4414 79.8359 50.4023 79.6797 50.4023L79.1523 50.4609C78.8398 50.4609 78.6641 50.4805 78.625 50.5195L78.2734 50.5781C78.0781 50.5781 77.9609 50.4805 77.9219 50.2852C77.9219 50.1289 77.8828 50.0117 77.8047 49.9336L77.6875 49.582L77.3945 48.5859L77.2773 48.293L76.9844 47.7656L76.8086 47.2383C76.7305 47.1602 76.6719 46.9648 76.6328 46.6523L76.5156 46.3594C76.4375 46.2812 76.3984 46.1641 76.3984 46.0078C76.3984 45.8906 76.4766 45.7734 76.6328 45.6562C76.75 45.5 76.9062 45.3828 77.1016 45.3047L77.2773 45.0703L77.4531 44.8945L77.5703 44.7188C77.5703 44.6406 77.6289 44.543 77.7461 44.4258C77.7461 44.3477 77.7656 44.2695 77.8047 44.1914C77.8438 44.1133 77.8828 44.0352 77.9219 43.957L78.0977 43.6055C78.1367 43.5273 78.332 42.9609 78.6836 41.9062L78.7422 41.6719C78.8984 41.5156 78.9766 41.3008 78.9766 41.0273L79.0938 40.5L79.2695 39.9727L79.3281 39.4453L79.5039 38.7422L79.6797 37.6289C79.7578 37.2383 79.7969 36.8867 79.7969 36.5742L79.9141 36.1055C79.9141 35.8711 79.9336 35.7539 79.9727 35.7539V35.1094C80.0117 34.9922 80.0312 34.875 80.0312 34.7578C80.0312 34.6016 80.0508 34.4844 80.0898 34.4062C80.0898 34.0547 80.1094 33.7227 80.1484 33.4102L80.207 32.5312L80.2656 31.8281V31.2422C80.3047 31.125 80.3047 31.0469 80.2656 31.0078V24.0352C80.2266 23.4102 80.207 22.7266 80.207 21.9844V20.8711C80.207 19.9727 80.1875 19.5039 80.1484 19.4648C80.1094 19.4258 80.0703 19.4258 80.0312 19.4648C79.9922 19.4648 79.9336 19.4648 79.8555 19.4648C79.6992 19.543 79.5234 19.582 79.3281 19.582C79.2109 19.582 79.1133 19.6016 79.0352 19.6406C78.957 19.6797 78.8789 19.6992 78.8008 19.6992L78.332 19.8164L77.9805 19.875C77.9023 19.9141 77.8047 19.9336 77.6875 19.9336C77.6484 19.9727 77.5898 19.9922 77.5117 19.9922L77.2773 20.0508C77.1602 20.0898 76.9258 20.1094 76.5742 20.1094L75.6367 20.168C75.0898 20.2461 74.6211 20.2461 74.2305 20.168L73.5859 20.1094C73.3516 20.1094 73.1367 20.0508 72.9414 19.9336L72.4727 19.8164C72.2383 19.7383 72.0234 19.6016 71.8281 19.4062C71.7891 19.3672 71.7109 19.2109 71.5938 18.9375L71.3594 18.3516L71.3008 17.9414H71.125C71.0078 17.9414 70.9297 17.8438 70.8906 17.6484C70.8516 17.4141 70.832 17.0625 70.832 16.5938C70.8711 16.2812 70.8711 16.0078 70.832 15.7734C70.832 15.5391 70.832 15.3828 70.832 15.3047C70.793 15.1484 70.7734 14.7578 70.7734 14.1328C70.7734 13.8594 70.7734 13.6641 70.7734 13.5469C70.7734 13.4297 70.7344 13.3516 70.6562 13.3125C70.6172 13.2734 70.5781 13.2148 70.5391 13.1367C70.5 13.0195 70.5 12.9414 70.5391 12.9023L70.5977 12.4922L70.6562 11.9062C70.7344 11.5938 70.793 11.1641 70.832 10.6172L70.8906 10.0312L70.9492 9.62109C70.9492 9.46484 70.9883 9.34766 71.0664 9.26953C71.0664 9.03516 71.0859 8.83984 71.125 8.68359L71.1836 8.09766L71.2422 7.74609C71.2812 7.70703 71.3008 7.53125 71.3008 7.21875C71.3398 7.14062 71.3594 7.0625 71.3594 6.98438C71.3594 6.86719 71.3789 6.76953 71.418 6.69141L71.6523 5.8125L71.7109 5.16797L71.8281 4.81641C71.8281 4.66016 71.8477 4.52344 71.8867 4.40625L72.0625 3.64453C72.1406 3.29297 72.2773 3.05859 72.4727 2.94141L72.6484 2.64844L72.8828 2.29688L73.1172 2.00391C73.3125 1.65234 74.0547 1.41797 75.3438 1.30078L75.9297 1.24219C76.0859 1.16406 76.2617 1.125 76.457 1.125L76.9844 1.06641C77.1016 1.02734 77.2773 1.00781 77.5117 1.00781C77.6289 1.00781 77.8438 0.96875 78.1562 0.890625C78.3125 0.851563 78.5664 0.832031 78.918 0.832031C79.1523 0.832031 79.2891 0.8125 79.3281 0.773438H80.0898C80.6367 0.773438 80.9492 0.792969 81.0273 0.832031L82.4336 1.06641L82.9023 1.24219C82.9805 1.32031 83.1367 1.41797 83.3711 1.53516L84.1328 1.82812L84.6016 2.12109L84.7773 2.41406C84.8555 2.53125 84.8945 2.6875 84.8945 2.88281C84.9336 3.03906 84.9727 3.21484 85.0117 3.41016C85.0898 4.26953 85.168 5.65625 85.2461 7.57031L85.3047 9.44531C85.3828 9.83594 85.4414 10.9492 85.4805 12.7852C85.4805 14.1133 85.5 14.8164 85.5391 14.8945V15.2461L85.4805 15.4219L85.5391 28.3711V30.1875C85.5 30.3047 85.4805 30.5195 85.4805 30.832C85.5195 30.9883 85.5391 31.1641 85.5391 31.3594C85.5 31.4375 85.4805 31.9258 85.4805 32.8242C85.5195 33.7227 85.5391 34.2109 85.5391 34.2891C85.5391 34.6797 85.5195 35.2266 85.4805 35.9297C85.4805 36.5938 85.4609 37.082 85.4219 37.3945L85.3633 37.9805L85.1289 40.6172L84.9531 41.7305C84.9531 42.043 84.8945 42.4141 84.7773 42.8438L84.7188 43.3711C84.6406 43.6836 84.6016 43.8984 84.6016 44.0156C84.3672 44.6406 84.25 45.0312 84.25 45.1875C84.25 45.3828 84.1914 45.5977 84.0742 45.832C83.9961 45.9883 83.957 46.1445 83.957 46.3008C83.8789 46.5742 83.8008 46.8281 83.7227 47.0625C83.6445 47.2578 83.5859 47.3945 83.5469 47.4727C83.5078 47.5117 83.4492 47.6484 83.3711 47.8828C83.0586 48.625 82.8047 49.0938 82.6094 49.2891C82.4922 49.4062 82.375 49.582 82.2578 49.8164C82.1797 49.8945 82.0039 49.9922 81.7305 50.1094C81.6914 50.1094 81.6719 50.1484 81.6719 50.2266C81.6328 50.3047 81.5547 50.4023 81.4375 50.5195C81.3203 50.6367 81.2031 50.7344 81.0859 50.8125ZM49.1523 43.6055C49.0742 43.293 49.0742 43 49.1523 42.7266L49.2695 41.1445L49.3281 40.1484C49.3672 39.9922 49.3867 39.6992 49.3867 39.2695L49.5039 38.2734V37.043V35.4609C49.5039 34.875 49.5234 34.5625 49.5625 34.5234V33.9375L49.6211 33.293L49.6797 32.4141L49.7969 26.4961L49.8555 24.6211C49.8555 23.4102 49.875 22.7852 49.9141 22.7461V22.1016L49.9727 21.6328C49.9727 21.2812 49.9922 21.0664 50.0312 20.9883V20.4609L50.0898 20.0508L50.1484 19.582L50.207 18.9961C50.2461 18.6836 50.2852 18.4492 50.3242 18.293C50.3633 18.1367 50.3828 18.0391 50.3828 18V17.5312C50.4219 17.4531 50.4414 17.3164 50.4414 17.1211L50.5 16.7109C50.5781 16.5547 50.6172 16.2227 50.6172 15.7148L50.6758 15.1875C50.7539 14.7188 50.793 14.3086 50.793 13.957L50.8516 13.4297C50.8906 13.4297 50.9102 13.2734 50.9102 12.9609C50.9492 12.7656 50.9688 12.5117 50.9688 12.1992C51.0078 12.1211 51.0273 12.0234 51.0273 11.9062C51.0273 11.75 51.0469 11.6133 51.0859 11.4961C51.0859 11.1055 51.1055 10.8906 51.1445 10.8516V10.4414C51.1445 10.3242 51.1836 10.1875 51.2617 10.0312C51.3008 9.875 51.3008 9.75781 51.2617 9.67969C51.2617 9.48438 51.2812 9.34766 51.3203 9.26953V8.74219C51.3203 8.66406 51.3789 8.33203 51.4961 7.74609C51.5352 7.62891 51.5547 7.39453 51.5547 7.04297C51.5938 6.92578 51.6133 6.80859 51.6133 6.69141C51.6133 6.53516 51.6328 6.39844 51.6719 6.28125C51.7891 5.69531 51.8477 5.08984 51.8477 4.46484C51.8867 3.52734 52.0039 2.92187 52.1992 2.64844C52.2773 2.41406 52.4336 2.25781 52.668 2.17969L52.8438 2.12109L53.4883 2.23828L53.8398 2.29688L54.543 2.17969C55.0898 2.10156 55.4023 2.0625 55.4805 2.0625C55.9492 2.0625 56.3008 2.00391 56.5352 1.88672L57.1797 1.82812H57.8242C57.9023 1.78906 58 1.76953 58.1172 1.76953C58.2734 1.76953 58.4102 1.75 58.5273 1.71094C59.0742 1.71094 59.4453 1.69141 59.6406 1.65234C60.0703 1.61328 60.5 1.63281 60.9297 1.71094C61.3984 1.75 61.7305 1.80859 61.9258 1.88672C61.9648 1.88672 61.9844 1.90625 61.9844 1.94531C62.0234 1.98437 62.0625 2.00391 62.1016 2.00391L62.3945 2.12109C62.5508 2.23828 62.707 2.33594 62.8633 2.41406C63.0195 2.49219 63.1562 2.53125 63.2734 2.53125C63.3516 2.57031 63.4297 2.62891 63.5078 2.70703C63.625 2.78516 63.7227 2.88281 63.8008 3C63.8789 3.07813 63.918 3.21484 63.918 3.41016C63.9961 4.26953 64.0156 4.99219 63.9766 5.57812C63.9375 5.77344 63.918 6.06641 63.918 6.45703L63.8594 6.98438C63.7422 7.80469 63.6641 8.33203 63.625 8.56641C63.625 9.11328 63.5859 9.50391 63.5078 9.73828L63.3906 12.082L63.332 13.3125L63.0391 15.2461C63.0391 15.4023 63 15.5977 62.9219 15.832C62.9219 16.0273 62.8828 16.2031 62.8047 16.3594C62.7266 16.4766 62.6875 16.8086 62.6875 17.3555L62.6289 18.293V18.5273C62.668 18.6445 62.6484 18.7422 62.5703 18.8203C62.4531 19.0156 62.2578 19.1523 61.9844 19.2305L61.0469 19.582L60.5195 19.6992L60.168 19.8164L59.2305 19.9336L58.1172 19.9922C57.8438 20.0312 57.5312 20.0508 57.1797 20.0508C56.8672 20.0508 56.6328 20.0312 56.4766 19.9922L56.3008 20.0508C56.1445 20.0508 56.0273 20.0312 55.9492 19.9922H55.5977C55.7539 20.1094 55.7344 20.1289 55.5391 20.0508C55.4609 20.0117 55.3828 19.9922 55.3047 19.9922C55.2266 19.9531 55.168 19.9531 55.1289 19.9922V21.2227C55.1289 22.043 55.0898 22.6484 55.0117 23.0391L54.9531 26.3203V26.6719C54.9141 26.75 54.8945 28.2539 54.8945 31.1836C54.8555 32.7461 54.8359 34.3477 54.8359 35.9883L54.7773 37.4531L54.7188 38.8008L54.6602 39.6211C54.543 40.6367 54.4648 41.2422 54.4258 41.4375L54.3672 41.9648C54.3672 42.1211 54.3477 42.2383 54.3086 42.3164L54.25 42.8438C54.25 43 54.1719 43.3516 54.0156 43.8984C53.9375 44.2891 53.8984 44.6211 53.8984 44.8945L53.7227 45.8906L53.6055 46.3594L53.3711 47.3555C53.1367 47.4336 52.8828 47.5117 52.6094 47.5898C52.375 47.668 52.2188 47.7266 52.1406 47.7656C52.1016 47.8438 52.043 47.9414 51.9648 48.0586C51.8867 48.2148 51.8086 48.332 51.7305 48.4102C51.4961 48.6836 51.2812 48.6641 51.0859 48.3516C51.0859 48.2734 51.0664 48.2148 51.0273 48.1758C50.9883 48.1367 50.9492 48.1172 50.9102 48.1172L50.7344 47.7656L50.6172 47.5898L50.4414 47.707C50.4023 47.8242 50.3242 47.8828 50.207 47.8828C50.168 47.8828 50.1094 47.8438 50.0312 47.7656C49.9531 47.6875 49.875 47.668 49.7969 47.707C49.5234 47.8633 49.3477 47.7852 49.2695 47.4727C49.2695 47.4336 49.25 47.2969 49.2109 47.0625C49.2109 46.7891 49.2109 46.3008 49.2109 45.5977C49.2109 44.4258 49.1914 43.7617 49.1523 43.6055ZM55.3633 13.7227C55.3633 14.0352 55.3633 14.25 55.3633 14.3672C55.4023 14.4453 55.4219 14.5039 55.4219 14.543L55.9492 14.7773H57.5898C58.0977 14.7773 58.5078 14.7773 58.8203 14.7773C59.1328 14.7383 59.3086 14.6602 59.3477 14.543C59.3867 14.5039 59.4062 14.4258 59.4062 14.3086C59.4453 14.1523 59.4648 13.918 59.4648 13.6055C59.4648 13.3711 59.4453 13.1562 59.4062 12.9609C59.3672 12.7656 59.3477 12.6289 59.3477 12.5508C59.3086 12.3555 59.2305 12.2773 59.1133 12.3164C59.0742 12.4336 58.9766 12.5117 58.8203 12.5508C58.7031 12.5898 58.5859 12.5898 58.4688 12.5508C58.3906 12.3945 58.3516 12.3164 58.3516 12.3164H58.293C58.293 12.3164 58.2734 12.3359 58.2344 12.375C58.2344 12.4141 58.2344 12.4727 58.2344 12.5508C58.2344 12.7461 58.1172 12.8438 57.8828 12.8438C56.9844 12.9609 56.3398 12.9805 55.9492 12.9023L55.7148 13.0195C55.6367 13.0195 55.5781 12.9805 55.5391 12.9023C55.5 12.8633 55.6562 12.8438 56.0078 12.8438H55.8906C55.5391 12.8438 55.3633 13.1367 55.3633 13.7227ZM55.4805 9.32812H55.6562C56.3203 9.32812 56.7109 9.30859 56.8281 9.26953C56.9453 9.23047 57.4141 9.21094 58.2344 9.21094L59.3477 9.15234C59.3867 9.15234 59.4258 8.95703 59.4648 8.56641C59.5039 8.13672 59.5234 7.78516 59.5234 7.51172C59.5234 7.12109 59.4453 6.90625 59.2891 6.86719C59.25 6.82813 59.0352 6.80859 58.6445 6.80859C58.2148 6.76953 57.668 6.75 57.0039 6.75H56.5352C56.3398 6.75 56.2227 6.76953 56.1836 6.80859L55.7148 6.86719H55.8906C55.7344 6.86719 55.6172 6.88672 55.5391 6.92578C55.4609 6.96484 55.4219 7.02344 55.4219 7.10156C55.3828 7.21875 55.3828 7.78516 55.4219 8.80078L55.4805 9.32812ZM57.5898 29.3672L57.707 28.3125C57.7461 28.1953 57.7656 28.0391 57.7656 27.8438L57.8242 27.375C57.8242 27.0234 57.8438 26.7695 57.8828 26.6133C57.9609 26.457 58.0586 26.3203 58.1758 26.2031C58.3711 26.0078 58.4688 25.9102 58.4688 25.9102L58.8789 25.5586C58.957 25.5195 59.1523 25.3828 59.4648 25.1484C59.6602 24.875 59.7578 24.7188 59.7578 24.6797L59.9922 24.6211C60.0703 24.6211 60.1875 24.543 60.3438 24.3867L60.7539 24.0352C60.9492 23.918 61.0469 23.8594 61.0469 23.8594C61.1641 23.8594 61.2422 23.8008 61.2812 23.6836L61.5156 23.5078L61.75 23.3906L62.043 23.0977C62.2383 23.0195 62.3555 22.9219 62.3945 22.8047C62.4336 22.7656 62.4727 22.7266 62.5117 22.6875C62.5508 22.6484 62.5898 22.6289 62.6289 22.6289L62.8047 22.5117C62.8047 22.4727 62.8242 22.4531 62.8633 22.4531C62.9023 22.4531 62.9414 22.4531 62.9805 22.4531L63.5664 22.1602L63.918 21.9844L64.2695 21.8086L64.5039 21.6914C64.582 21.6914 64.7773 21.7891 65.0898 21.9844C65.4414 22.2578 65.6367 22.4727 65.6758 22.6289V23.0977C65.6758 23.2148 65.6758 23.332 65.6758 23.4492C65.6758 23.5273 65.6562 23.6055 65.6172 23.6836C65.5391 23.8398 65.5 23.9766 65.5 24.0938C65.5 24.1719 65.4414 24.3281 65.3242 24.5625C65.2461 24.6797 65.207 24.7969 65.207 24.9141C65.207 25.0312 65.168 25.1289 65.0898 25.207C64.9336 25.4414 64.7578 25.5977 64.5625 25.6758C64.4062 25.7539 64.3281 25.832 64.3281 25.9102L64.0938 26.1445C63.8984 26.2227 63.6641 26.4375 63.3906 26.7891C63.1953 26.9844 63.0195 27.1211 62.8633 27.1992C62.6289 27.3945 62.4922 27.5312 62.4531 27.6094C62.375 27.7266 62.0234 28.0586 61.3984 28.6055C60.8906 28.957 60.4609 29.2305 60.1094 29.4258C59.7969 29.6211 59.6211 29.7383 59.582 29.7773L59.1719 30.0117C58.9375 30.2461 58.7617 30.3438 58.6445 30.3047C58.6055 30.3047 58.5469 30.2266 58.4688 30.0703C58.3906 29.9141 58.3125 29.7969 58.2344 29.7188C58.1562 29.6406 58.0586 29.582 57.9414 29.543C57.8633 29.543 57.7461 29.5039 57.5898 29.4258V29.3672ZM58.9961 46.3594C59.0742 46.0078 59.1133 45.6367 59.1133 45.2461C59.1133 45.1289 59.1328 44.9922 59.1719 44.8359C59.2109 44.6797 59.25 44.4648 59.2891 44.1914L59.3477 43.6055C59.3477 43.293 59.4258 43.0586 59.582 42.9023C59.6602 42.8242 59.6992 42.7656 59.6992 42.7266L59.9922 42.3164L60.2266 42.0234L60.3438 41.7305L60.4609 41.5547L60.5781 41.3203L60.6953 41.1445L60.9297 40.9102L61.1055 40.6172C61.1055 40.6172 61.2031 40.5195 61.3984 40.3242C61.75 39.8945 61.9453 39.6211 61.9844 39.5039L62.2188 39.2695C62.2969 39.2305 62.3555 39.1523 62.3945 39.0352C62.3945 38.9961 62.4531 38.918 62.5703 38.8008C62.6875 38.6836 62.7461 38.6055 62.7461 38.5664L62.8633 38.3906C63.0195 38.1562 63.0586 38 62.9805 37.9219L62.6289 37.7461C62.4727 37.707 62.375 37.5508 62.3359 37.2773C62.3359 37.1602 62.3164 37.082 62.2773 37.043C62.2383 36.9648 62.1797 36.9258 62.1016 36.9258C62.0625 36.9258 62.0039 36.8867 61.9258 36.8086V36.5742C61.9258 36.1836 61.9844 35.7344 62.1016 35.2266L62.3359 33.6445L62.6289 32.0625C62.7461 31.5547 62.8633 31.2422 62.9805 31.125L63.0977 30.5977C63.1367 30.5195 63.1758 30.4023 63.2148 30.2461C63.2539 30.0508 63.293 29.9141 63.332 29.8359L63.5078 29.25C63.625 28.6641 63.7422 28.3125 63.8594 28.1953C63.9766 28.0391 64.1328 27.9609 64.3281 27.9609C64.4844 28 64.6602 27.9805 64.8555 27.9023L65.2656 27.7266C65.3438 27.7266 65.6367 27.7266 66.1445 27.7266C66.6523 27.6875 66.9258 27.6875 66.9648 27.7266L67.3164 27.668H67.7852C68.293 27.668 68.8203 27.707 69.3672 27.7852C69.7578 27.9414 70.1484 28.2148 70.5391 28.6055L70.9492 29.0156L71.3008 29.543L71.2422 30.3633C71.2031 30.9883 71.1836 31.6328 71.1836 32.2969C71.1836 32.9609 71.2031 33.4297 71.2422 33.7031C71.2422 33.8594 71.3398 33.9961 71.5352 34.1133C71.5742 34.1914 71.6328 34.2695 71.7109 34.3477C71.7891 34.4258 71.8281 34.5039 71.8281 34.582C71.8672 34.7383 71.8672 34.8359 71.8281 34.875C71.75 34.9531 71.75 35.0898 71.8281 35.2852C71.8281 35.4414 71.8086 35.5586 71.7695 35.6367C71.7695 35.6758 71.7305 35.7148 71.6523 35.7539C71.5742 35.832 71.5352 35.9297 71.5352 36.0469C71.4961 36.125 71.4766 36.2422 71.4766 36.3984L71.3008 36.6914C71.1836 36.8477 71.1445 37.0039 71.1836 37.1602V37.2773C71.1836 37.3945 71.0664 37.4922 70.832 37.5703L70.3633 37.8047L69.6602 37.9219C69.543 37.9219 69.2891 37.9609 68.8984 38.0391C68.7422 38.1562 68.5469 38.2148 68.3125 38.2148C68 38.2148 67.8828 38.293 67.9609 38.4492C67.9609 38.7227 68.1367 39.3672 68.4883 40.3828C68.4883 40.5 68.5664 40.7148 68.7227 41.0273C68.8008 41.2617 68.8789 41.3984 68.957 41.4375C69.0742 41.4766 69.2305 41.4375 69.4258 41.3203L69.8945 41.2031C70.3242 41.0859 70.6562 40.9102 70.8906 40.6758L71.3008 40.4414L71.8281 40.207L72.1211 40.0312L72.4727 39.8555L72.8242 39.6797C72.9023 39.6797 73.0195 39.6406 73.1758 39.5625C73.2539 39.5234 73.4492 39.5039 73.7617 39.5039H74.2305C74.5039 39.582 74.6992 39.6797 74.8164 39.7969L74.9922 39.8555C75.0312 39.8555 75.0898 39.8945 75.168 39.9727L75.5195 40.207L75.8125 40.4414L76.0469 40.6172C76.1641 40.6562 76.2422 40.7539 76.2812 40.9102V41.8477C76.2812 42.1602 76.2422 42.4727 76.1641 42.7852L75.9883 43.2539C75.9883 43.4102 75.9492 43.5469 75.8711 43.6641L75.7539 44.1328C75.7539 44.4844 75.6758 44.7578 75.5195 44.9531L74.9922 45.5977C73.8984 46.6914 73.1562 47.3555 72.7656 47.5898L72.0625 48.0586L71.8281 48.2344L71.3008 48.4102C71.1836 48.4102 71.0859 48.4492 71.0078 48.5273C70.8516 48.6055 70.7539 48.6445 70.7148 48.6445L70.4219 48.7031C70.2656 48.7422 70.1484 48.7227 70.0703 48.6445L69.7773 48.5859L69.543 48.4688C69.5039 48.4297 69.4453 48.4102 69.3672 48.4102C69.3281 48.4102 69.2891 48.3906 69.25 48.3516C69.0938 48.3516 68.8984 48.2539 68.6641 48.0586C68.2734 47.7852 67.9219 47.5703 67.6094 47.4141C67.0625 47.0625 66.75 46.8477 66.6719 46.7695L66.3789 46.418C66.2617 46.2617 66.1445 46.0859 66.0273 45.8906C65.9492 45.6562 65.9102 45.4609 65.9102 45.3047C65.9102 45.1484 65.8906 45.0312 65.8516 44.9531C65.8125 44.8359 65.793 44.4453 65.793 43.7812V42.668L65.9102 42.0234L65.9688 41.5547L66.0273 40.6758C66.1445 39.7383 66.2031 39.2305 66.2031 39.1523L66.2617 38.7422L66.1445 38.5664C66.0273 38.5664 65.9297 38.5859 65.8516 38.625C65.7344 38.6641 65.6367 38.7227 65.5586 38.8008C65.5195 38.8789 65.4805 38.9961 65.4414 39.1523L65.2656 39.5039L65.207 39.7383L63.8594 42.4336C63.5469 43.1758 63.332 43.6445 63.2148 43.8398L62.1016 45.832C61.9453 46.1445 61.8672 46.3203 61.8672 46.3594C61.75 46.4766 61.6914 46.5352 61.6914 46.5352C61.6914 46.6133 61.6328 46.7109 61.5156 46.8281C61.3203 47.1406 61.1055 47.3945 60.8711 47.5898C60.6758 47.7461 60.5195 47.8047 60.4023 47.7656C60.4023 47.7656 60.3438 47.707 60.2266 47.5898C60.2266 47.4727 60.1875 47.4141 60.1094 47.4141L59.9922 47.1797C59.9531 47.0625 59.8945 47.0039 59.8164 47.0039C59.7773 47.043 59.7383 47.0625 59.6992 47.0625C59.6602 47.0234 59.6211 47.0039 59.582 47.0039C59.543 46.9648 59.4453 46.9453 59.2891 46.9453C59.1719 46.9844 59.0938 46.9844 59.0547 46.9453C58.9375 46.8281 58.918 46.6328 58.9961 46.3594ZM64.7969 32.8242C64.7969 32.9414 64.8555 33.0195 64.9727 33.0586C65.0898 33.0586 65.2656 33.0586 65.5 33.0586L66.8477 33L67.7852 32.9414C67.8242 32.9414 67.8828 32.9414 67.9609 32.9414C68.0391 32.9023 68.1758 32.8828 68.3711 32.8828L68.8398 32.8242L68.957 32.4727C68.9961 32.2773 69.0156 32.082 69.0156 31.8867C69.0547 31.6914 69.0547 31.5547 69.0156 31.4766C68.9375 31.4375 68.8398 31.3984 68.7227 31.3594C68.6055 31.3203 68.4883 31.3203 68.3711 31.3594C68.2148 31.3594 68.1172 31.3398 68.0781 31.3008C67.9219 31.2617 67.4727 31.2617 66.7305 31.3008C66.0664 31.3789 65.6953 31.4375 65.6172 31.4766L65.3828 31.5938C65.3438 31.5938 65.2852 31.6133 65.207 31.6523C65.168 31.6914 65.1289 31.7305 65.0898 31.7695C64.9727 31.8867 64.8945 32.0234 64.8555 32.1797C64.8164 32.3359 64.7969 32.5508 64.7969 32.8242ZM67.9023 24.3281C68.1367 23.4688 68.293 22.8047 68.3711 22.3359L68.4883 22.1016L68.5469 21.9258C68.5469 21.7305 68.5859 21.5938 68.6641 21.5156L68.7812 21.0469C68.7812 20.8906 68.8008 20.793 68.8398 20.7539C68.8789 20.7148 68.9961 20.7148 69.1914 20.7539L69.543 20.8711C69.8555 20.9492 70.2266 21.1641 70.6562 21.5156C71.125 21.7891 71.6523 22.082 72.2383 22.3945C72.7852 22.668 73.4297 23.0781 74.1719 23.625C75.0312 24.25 75.5586 24.7383 75.7539 25.0898C75.832 25.2461 75.8711 25.3828 75.8711 25.5C75.9102 25.5781 75.9102 25.6953 75.8711 25.8516C75.832 25.9688 75.8125 26.1055 75.8125 26.2617V26.4961C75.8125 26.5742 75.7539 26.7109 75.6367 26.9062C75.5977 26.9453 75.5195 27.1211 75.4023 27.4336C75.3633 27.6289 75.3047 27.7852 75.2266 27.9023C75.1875 27.9805 75.1484 28.0391 75.1094 28.0781C75.0312 28.1562 75.0117 28.2539 75.0508 28.3711C75.0508 28.6445 75.0117 28.8008 74.9336 28.8398C74.8164 28.8398 74.7578 28.8789 74.7578 28.957C74.6016 29.0352 74.4648 29.0742 74.3477 29.0742L73.9961 29.0156C73.8398 28.9375 73.6055 28.8984 73.293 28.8984C73.0977 28.8984 72.9219 28.8789 72.7656 28.8398C72.6484 28.8008 72.4727 28.7227 72.2383 28.6055C72.1992 28.5664 72.1406 28.5273 72.0625 28.4883C72.0234 28.4492 71.9648 28.4297 71.8867 28.4297C71.3789 28.2344 71.0469 28.0781 70.8906 27.9609L70.5977 27.7266C70.5195 27.7266 70.4414 27.707 70.3633 27.668C70.3242 27.6289 70.2852 27.5898 70.2461 27.5508C70.1289 27.4336 70.0312 27.375 69.9531 27.375L69.6602 27.1406L69.4258 26.9648L69.0156 26.4961L68.5469 25.9688C68.3516 25.8125 68.1953 25.6172 68.0781 25.3828C67.9609 25.1484 67.8828 24.9727 67.8438 24.8555C67.8438 24.6992 67.8633 24.5234 67.9023 24.3281ZM74.9336 13.8398C74.8945 14.2305 74.875 14.5039 74.875 14.6602C74.875 14.7773 74.9531 14.8555 75.1094 14.8945C75.4219 14.8945 75.7148 14.8359 75.9883 14.7188L76.2812 14.6602H76.5156C76.5938 14.6211 76.7891 14.6016 77.1016 14.6016C77.1797 14.5625 77.2578 14.543 77.3359 14.543C77.4531 14.543 77.5508 14.5234 77.6289 14.4844C77.7852 14.4453 78 14.4258 78.2734 14.4258C78.5859 14.3867 78.957 14.3477 79.3867 14.3086C79.6992 14.3086 79.9141 14.3086 80.0312 14.3086C80.1484 14.2695 80.207 14.2305 80.207 14.1914C80.2461 14.1914 80.2656 14.1328 80.2656 14.0156L80.207 13.2539C80.207 12.7461 80.1875 12.4727 80.1484 12.4336C79.9922 12.3555 79.8359 12.3555 79.6797 12.4336C79.6406 12.4727 79.5625 12.5117 79.4453 12.5508C79.3672 12.5508 79.2695 12.5703 79.1523 12.6094C78.7227 12.6094 78.2344 12.668 77.6875 12.7852C77.375 12.8633 76.75 12.9023 75.8125 12.9023C75.3828 12.9023 75.1289 12.9414 75.0508 13.0195C75.0508 13.0195 75.0117 13.293 74.9336 13.8398ZM75.168 7.98047C75.168 8.48828 75.1875 8.82031 75.2266 8.97656C75.3047 9.05469 75.4414 9.09375 75.6367 9.09375C75.7148 9.01562 75.9102 8.97656 76.2227 8.97656C76.3398 8.9375 76.457 8.91797 76.5742 8.91797C76.6914 8.91797 76.7891 8.89844 76.8672 8.85938C77.0625 8.82031 77.5898 8.80078 78.4492 8.80078H79.9141C79.9531 8.80078 79.9922 8.82031 80.0312 8.85938C80.0703 8.85938 80.1094 8.83984 80.1484 8.80078H80.207V7.98047C80.207 7.23828 80.168 6.82813 80.0898 6.75C79.9727 6.59375 79.7383 6.51562 79.3867 6.51562C79.1133 6.51562 78.957 6.49609 78.918 6.45703L78.4492 6.33984H77.9219C77.8047 6.41797 77.668 6.41797 77.5117 6.33984H75.6953L75.5195 6.51562C75.3633 6.67187 75.2656 6.84766 75.2266 7.04297C75.1875 7.19922 75.168 7.51172 75.168 7.98047ZM129.191 27.2578C129.035 27.2578 128.859 27.1797 128.664 27.0234C128.469 26.8672 128.254 26.7305 128.02 26.6133C127.785 26.4961 127.59 26.4375 127.434 26.4375C127.316 26.3984 127.219 26.3398 127.141 26.2617L126.789 26.0859L126.496 25.8516C126.457 25.8125 126.418 25.7734 126.379 25.7344C126.34 25.6562 126.281 25.5781 126.203 25.5C126.125 25.4609 126.008 25.3633 125.852 25.207C125.773 25.168 125.695 25.1094 125.617 25.0312C125.539 24.9531 125.422 24.875 125.266 24.7969C124.445 24.2891 123.742 23.7031 123.156 23.0391C123 22.8438 122.902 22.7461 122.863 22.7461C122.746 22.7461 122.648 22.7852 122.57 22.8633L122.336 22.9805L121.809 23.2148C121.73 23.293 121.594 23.3711 121.398 23.4492C121.242 23.5273 121.086 23.5859 120.93 23.625L120.754 23.6836C120.676 23.7617 120.363 23.9375 119.816 24.2109C119.621 24.2109 119.426 24.2695 119.23 24.3867C119.074 24.5039 118.938 24.5625 118.82 24.5625L118.352 24.7383C118.273 24.7773 118.195 24.8164 118.117 24.8555C118.039 24.8555 117.961 24.875 117.883 24.9141C117.609 24.9531 117.395 25.0117 117.238 25.0898C117.16 25.168 116.809 25.2461 116.184 25.3242L115.832 25.3828L115.012 25.5586C114.738 25.5586 114.582 25.5977 114.543 25.6758C114.387 25.6758 114.25 25.6367 114.133 25.5586C113.977 25.5586 113.859 25.5195 113.781 25.4414L113.547 25.3828C113.312 25.3047 113.098 25.168 112.902 24.9727C112.824 24.8945 112.648 24.8164 112.375 24.7383C111.711 24.543 111.32 24.3672 111.203 24.2109C111.164 24.0938 111.145 23.8008 111.145 23.332C111.223 22.4727 111.223 21.9062 111.145 21.6328C111.145 21.4766 111.164 21.3594 111.203 21.2812V20.8711C111.164 20.7539 111.164 20.6367 111.203 20.5195L111.262 20.1094C111.262 19.9531 111.223 19.8359 111.145 19.7578C111.027 19.6406 110.969 19.5625 110.969 19.5234C110.969 19.4844 111.086 19.3477 111.32 19.1133C111.516 18.918 111.691 18.6641 111.848 18.3516C111.926 18.1172 112.023 17.9414 112.141 17.8242L112.375 17.4141C112.375 17.2969 112.414 17.1992 112.492 17.1211L112.609 16.8867C112.648 16.8477 112.668 16.8086 112.668 16.7695C112.707 16.6914 112.746 16.6328 112.785 16.5938C112.863 16.5156 112.902 16.418 112.902 16.3008C112.98 16.2227 113.059 16.0273 113.137 15.7148L113.781 14.3672C113.82 14.2891 113.84 14.2109 113.84 14.1328C113.84 14.0547 113.801 13.9766 113.723 13.8984C113.332 13.625 113.117 13.4883 113.078 13.4883C112.922 13.4883 112.531 13.332 111.906 13.0195C111.789 12.9805 111.652 12.8828 111.496 12.7266C111.379 12.4922 111.32 12.3164 111.32 12.1992C111.359 12.082 111.379 11.2227 111.379 9.62109V9.15234C111.457 9.03516 111.457 8.91797 111.379 8.80078C111.34 8.68359 111.34 8.60547 111.379 8.56641C111.496 8.09766 111.535 7.84375 111.496 7.80469L111.438 7.62891C111.398 7.55078 111.379 7.47266 111.379 7.39453C111.418 7.27734 111.477 7.17969 111.555 7.10156L112.609 6.92578L112.961 6.86719C113.234 6.75 113.82 6.63281 114.719 6.51562L116.008 6.33984C116.164 6.30078 116.574 6.26172 117.238 6.22266C117.473 6.18359 117.609 6.14453 117.648 6.10547C117.727 6.02734 117.805 5.89063 117.883 5.69531C118.039 5.5 118.176 5.20703 118.293 4.81641L118.469 4.46484C118.547 4.23047 118.645 3.99609 118.762 3.76172C118.918 3.48828 119.035 3.29297 119.113 3.17578L119.23 3.05859H119.348C119.465 3.05859 119.602 3.09766 119.758 3.17578C119.914 3.21484 120.051 3.25391 120.168 3.29297L120.578 3.58594C120.812 3.74219 120.949 3.91797 120.988 4.11328C121.066 4.26953 121.105 4.62109 121.105 5.16797C121.105 5.55859 121.145 5.79297 121.223 5.87109H121.984C122.688 5.94922 123.156 6.00781 123.391 6.04688L123.859 6.10547C123.898 6.10547 124.094 6.16406 124.445 6.28125C124.758 6.35938 125.109 6.47656 125.5 6.63281C125.617 6.67187 125.793 6.76953 126.027 6.92578L126.438 7.16016C126.867 7.31641 127.18 7.49219 127.375 7.6875L127.492 8.03906C127.531 8.15625 127.531 8.29297 127.492 8.44922C127.492 8.68359 127.512 8.89844 127.551 9.09375C127.59 9.21094 127.59 9.36719 127.551 9.5625C127.512 9.67969 127.492 9.81641 127.492 9.97266C127.492 10.3633 127.434 10.6758 127.316 10.9102C127.238 10.9883 127.199 11.2227 127.199 11.6133C127.199 12.043 127.16 12.2578 127.082 12.2578L126.965 12.4336L126.73 12.668C126.613 12.7852 126.555 12.8438 126.555 12.8438C126.516 12.9219 126.418 12.9805 126.262 13.0195L125.91 13.1367C125.832 13.2148 125.734 13.2539 125.617 13.2539C125.5 13.2539 125.402 13.2734 125.324 13.3125C125.168 13.3906 124.992 13.4297 124.797 13.4297C124.367 13.5469 124.055 13.625 123.859 13.6641C123.703 13.6641 123.586 13.6836 123.508 13.7227C123.039 13.7227 122.766 13.7617 122.688 13.8398C122.648 13.8789 122.746 13.957 122.98 14.0742C123.293 14.1523 123.449 14.2109 123.449 14.25L123.801 14.4258L124.152 14.6602C124.191 14.6992 124.23 14.7383 124.27 14.7773C124.348 14.8164 124.406 14.8359 124.445 14.8359C124.523 14.8359 124.758 15.0898 125.148 15.5977L125.441 16.0078L125.676 16.3594C125.754 16.4375 125.852 16.5742 125.969 16.7695C126.086 16.9258 126.281 17.1406 126.555 17.4141L127.609 18.6445C127.922 18.957 128.117 19.1719 128.195 19.2891C128.586 19.6406 128.977 20.1289 129.367 20.7539L129.66 21.2227C129.855 21.6914 129.992 22.1016 130.07 22.4531C130.148 22.8047 130.188 23.2344 130.188 23.7422V24.6211C130.148 24.6602 130.129 24.7188 130.129 24.7969C130.129 24.875 130.109 24.9531 130.07 25.0312C130.07 25.2656 130.051 25.4219 130.012 25.5C129.934 25.6562 129.895 25.8125 129.895 25.9688C129.934 26.0469 129.934 26.1445 129.895 26.2617C129.895 26.3789 129.895 26.457 129.895 26.4961L129.836 26.7305L129.602 26.9648C129.406 27.1602 129.309 27.2578 129.309 27.2578H129.191ZM90.168 37.1602C90.3633 36.7305 90.6367 36.3789 90.9883 36.1055L91.3398 35.8125L91.8086 35.4609L92.2188 35.1094L92.6289 34.8164L92.9219 34.582L93.0391 34.4648C93.1172 34.4648 93.2539 34.3672 93.4492 34.1719L93.918 33.8203C94.3477 33.5859 94.6406 33.3906 94.7969 33.2344C94.9531 33.1562 95.1289 33.0586 95.3242 32.9414C95.5586 32.8242 95.7734 32.7461 95.9688 32.707C96.0469 32.6289 96.1055 32.5898 96.1445 32.5898C96.2227 32.5508 96.2812 32.5117 96.3203 32.4727C96.4766 32.3555 96.6914 32.2773 96.9648 32.2383L97.3164 32.0625C97.4336 31.9453 97.5117 31.8867 97.5508 31.8867L97.9023 31.6523L98.3125 31.418C98.5859 31.3789 98.8008 31.3789 98.957 31.418C99.0352 31.457 99.1328 31.4766 99.25 31.4766L99.543 31.5352L99.8945 31.6523C99.9727 31.6523 100.07 31.6914 100.188 31.7695C100.305 31.8086 100.422 31.8672 100.539 31.9453L100.773 32.1211C100.852 32.1211 100.93 32.1602 101.008 32.2383L101.242 32.3555L101.594 32.4727C101.711 32.5508 101.809 32.707 101.887 32.9414C101.965 33.0977 102.004 33.3125 102.004 33.5859C102.004 33.7031 102.023 33.8203 102.062 33.9375C102.102 34.0547 102.121 34.1523 102.121 34.2305C102.16 34.3086 102.18 34.4453 102.18 34.6406L102.121 35.4609C102.004 36.0859 101.926 36.418 101.887 36.457C101.848 36.5742 101.828 36.7109 101.828 36.8672C101.867 37.0234 101.887 37.1992 101.887 37.3945C101.887 37.4727 101.828 37.6094 101.711 37.8047L101.535 38.1562C101.535 38.2344 101.516 38.3125 101.477 38.3906C101.438 38.4297 101.398 38.4688 101.359 38.5078C100.93 38.9375 100.539 39.2695 100.188 39.5039L99.6602 39.9727C99.543 40.168 99.4258 40.2656 99.3086 40.2656C99.3086 40.3438 99.1719 40.4805 98.8984 40.6758C98.3516 41.1055 97.9414 41.4766 97.668 41.7891L97.1992 42.1406C96.9648 42.375 96.7695 42.5508 96.6133 42.668C96.457 42.7852 96.3398 42.8828 96.2617 42.9609C96.2227 43 96.1445 43.0586 96.0273 43.1367C95.9492 43.1758 95.8906 43.2344 95.8516 43.3125L95.4414 43.6641L95.1484 43.8398C94.6016 44.1523 94.3086 44.3086 94.2695 44.3086C94.2305 44.3086 94.0938 44.3477 93.8594 44.4258C93.5859 44.543 93.3906 44.5625 93.2734 44.4844C93.1562 44.4453 93.0195 44.3477 92.8633 44.1914C92.7461 44.0742 92.6875 44.0156 92.6875 44.0156C92.5703 43.8984 92.5117 43.8398 92.5117 43.8398C92.3945 43.7227 92.2188 43.6641 91.9844 43.6641L91.5156 43.5469C91.2031 43.4688 90.9883 43.4297 90.8711 43.4297C90.6367 43.4297 90.5 43.4102 90.4609 43.3711C90.4219 43.332 90.4023 43.1758 90.4023 42.9023C90.4414 42.5898 90.4609 42.2188 90.4609 41.7891V40.8516L90.4023 40.3242C90.3633 40.2461 90.3438 40.1094 90.3438 39.9141L90.4023 39.2695V37.8633L90.2852 37.6875C90.168 37.5703 90.1289 37.3945 90.168 37.1602ZM90.8125 19.4648C90.8125 19.1914 90.9297 19.0352 91.1641 18.9961L91.5742 18.9375C91.6914 18.9375 91.9062 18.9766 92.2188 19.0547C92.2188 19.0547 92.4531 19.1133 92.9219 19.2305L94.6211 19.6992C94.8555 19.8164 95.0508 19.9141 95.207 19.9922C95.4023 20.0312 95.5195 20.0703 95.5586 20.1094L95.9102 20.3438C96.6133 20.6172 97.2773 20.9297 97.9023 21.2812L98.957 21.8086C99.3867 22.082 99.7383 22.3555 100.012 22.6289C100.168 22.7461 100.246 22.8438 100.246 22.9219C100.246 23.0391 100.285 23.1172 100.363 23.1562C100.402 23.2734 100.422 23.4297 100.422 23.625C100.383 23.8203 100.383 23.9766 100.422 24.0938C100.5 24.3281 100.539 24.582 100.539 24.8555C100.5 24.8945 100.48 25.1094 100.48 25.5C100.48 26.0859 100.383 26.457 100.188 26.6133C100.148 26.6914 100.129 26.8672 100.129 27.1406C100.168 27.6484 100.168 27.9609 100.129 28.0781C99.9336 28.3516 99.7773 28.4883 99.6602 28.4883C99.582 28.4883 99.5039 28.5469 99.4258 28.6641C99.3086 28.7812 99.2305 28.8398 99.1914 28.8398C99.1133 28.8789 99.0156 28.8984 98.8984 28.8984C98.6641 28.8203 98.4688 28.8398 98.3125 28.957C98.2734 28.9961 98.1758 29.0156 98.0195 29.0156H97.7266C97.6875 29.0547 97.6094 29.0742 97.4922 29.0742C97.375 29.0352 97.2383 29.0156 97.082 29.0156C96.8086 28.9766 96.5156 28.957 96.2031 28.957C96.0859 28.9961 95.9688 28.9766 95.8516 28.8984L95.6172 28.8398L95.3828 28.7812L95.0898 28.6641C94.9727 28.6641 94.875 28.625 94.7969 28.5469C94.7578 28.5078 94.6992 28.4883 94.6211 28.4883L94.1523 28.0781C93.9961 27.9219 93.8789 27.8438 93.8008 27.8438C93.8008 27.8438 93.6836 27.8047 93.4492 27.7266C93.293 27.6484 93.1172 27.6094 92.9219 27.6094L91.75 27.082C91.3984 26.9648 91.1836 26.8281 91.1055 26.6719V26.2031C91.1055 25.3438 91.0859 24.875 91.0469 24.7969L91.1055 24.3867C91.1836 24.0352 91.2031 23.8203 91.1641 23.7422L91.1055 23.332C91.1055 23.0977 91.0859 22.9414 91.0469 22.8633C91.0078 22.7461 91.0078 22.6289 91.0469 22.5117V22.2188C91.0078 22.1797 91.0078 22.082 91.0469 21.9258C91.125 21.7305 91.125 21.5938 91.0469 21.5156C91.0078 21.2812 91.0078 21.1055 91.0469 20.9883C91.125 20.7148 91.1445 20.4414 91.1055 20.168C91.1055 20.0508 91.0664 19.9531 90.9883 19.875C90.8711 19.6797 90.8125 19.543 90.8125 19.4648ZM92.8047 5.98828C92.8047 5.87109 92.8438 5.77344 92.9219 5.69531C93.0391 5.65625 93.2148 5.63672 93.4492 5.63672C93.6055 5.63672 93.8008 5.67578 94.0352 5.75391C94.1133 5.75391 94.2109 5.77344 94.3281 5.8125C94.4844 5.85156 94.6211 5.87109 94.7383 5.87109C95.4023 6.06641 95.9688 6.26172 96.4375 6.45703C96.8281 6.61328 97.2773 6.82813 97.7852 7.10156C98.332 7.33594 98.7617 7.53125 99.0742 7.6875C99.1523 7.72656 99.2305 7.78516 99.3086 7.86328C99.3867 7.94141 99.5039 8.01953 99.6602 8.09766C100.441 8.52734 100.969 8.83984 101.242 9.03516C101.438 9.19141 101.633 9.36719 101.828 9.5625C102.062 9.75781 102.18 9.89453 102.18 9.97266C102.219 10.0117 102.238 10.0703 102.238 10.1484C102.238 10.1875 102.258 10.2266 102.297 10.2656L102.355 10.7344C102.316 10.8516 102.297 10.9688 102.297 11.0859C102.336 11.1641 102.355 11.2227 102.355 11.2617C102.512 11.5742 102.551 11.8281 102.473 12.0234V12.668C102.473 13.2148 102.414 13.5859 102.297 13.7812C102.258 13.8594 102.238 13.9766 102.238 14.1328V14.543C102.316 14.6211 102.355 14.7383 102.355 14.8945C102.355 15.0508 102.316 15.168 102.238 15.2461C102.238 15.2852 102.102 15.4414 101.828 15.7148C101.672 15.8711 101.535 16.0078 101.418 16.125C101.34 16.2031 101.262 16.2227 101.184 16.1836C101.105 16.1445 101.047 16.1445 101.008 16.1836L100.773 16.125C100.695 16.125 100.559 16.125 100.363 16.125C100.168 16.0859 100.031 16.0859 99.9531 16.125C99.7578 16.125 99.4062 16.0469 98.8984 15.8906C98.2734 15.7344 97.7461 15.5195 97.3164 15.2461C96.5742 14.8555 96.0273 14.6016 95.6758 14.4844C95.0508 14.25 94.6211 14.0352 94.3867 13.8398C94.2305 13.6836 94.1133 13.5859 94.0352 13.5469C93.7617 13.3516 93.5859 13.1562 93.5078 12.9609C93.3906 12.6094 93.3516 12.3555 93.3906 12.1992V11.9062C93.3516 11.8672 93.332 11.5547 93.332 10.9688L93.2734 9.73828C93.1953 9.50391 93.1562 9.15234 93.1562 8.68359L93.0977 8.09766C93.0195 7.94141 93.0195 7.72656 93.0977 7.45312V7.21875C93.0977 6.94531 93.0391 6.69141 92.9219 6.45703C92.8047 6.22266 92.7656 6.06641 92.8047 5.98828ZM104.758 40.0312C104.758 39.9922 104.777 39.9336 104.816 39.8555C104.895 39.7383 104.973 39.6406 105.051 39.5625L105.227 39.2109L105.344 38.9766L105.578 38.625C105.695 38.5078 105.754 38.4297 105.754 38.3906C105.793 38.3906 105.852 38.3125 105.93 38.1562C105.969 38.0781 106.027 37.9609 106.105 37.8047C106.223 37.6484 106.301 37.5312 106.34 37.4531C106.574 37.1406 106.691 36.9648 106.691 36.9258L106.867 36.6914L107.043 36.3398C107.199 36.0273 107.355 35.793 107.512 35.6367C107.707 35.3633 107.824 35.1484 107.863 34.9922L108.098 34.6406C108.137 34.6016 108.273 34.3672 108.508 33.9375L108.859 33.3516C109.016 33.1172 109.094 32.9609 109.094 32.8828C109.641 31.7891 109.973 31.1836 110.09 31.0664C110.129 31.0273 110.148 30.9492 110.148 30.832C110.188 30.6758 110.285 30.4609 110.441 30.1875C110.598 29.875 110.734 29.6211 110.852 29.4258C110.891 29.4258 110.91 29.4062 110.91 29.3672C110.949 29.3281 110.969 29.3086 110.969 29.3086L111.027 29.0742L111.438 28.3125C111.555 28.0391 111.711 27.8242 111.906 27.668C112.023 27.5508 112.121 27.4922 112.199 27.4922C112.277 27.4922 112.434 27.5703 112.668 27.7266C112.902 27.8828 113.059 28.0391 113.137 28.1953C113.254 28.3906 113.332 28.7617 113.371 29.3086C113.371 29.6992 113.391 29.9336 113.43 30.0117V30.5391C113.391 30.6562 113.371 30.9492 113.371 31.418C113.371 31.6523 113.293 32.2188 113.137 33.1172C113.137 33.3906 113.098 33.6836 113.02 33.9961C112.98 34.6992 112.844 35.3828 112.609 36.0469C112.219 37.4922 111.691 38.918 111.027 40.3242L110.793 40.7344L110.676 41.0273C110.48 41.418 110.363 41.6719 110.324 41.7891L109.973 42.4336L109.621 42.9609C109.426 43.3516 109.289 43.5859 109.211 43.6641L108.918 44.1328C108.762 44.2891 108.566 44.5039 108.332 44.7773C108.098 45.0117 107.922 45.1484 107.805 45.1875L107.57 45.2461C107.453 45.2461 107.258 45.0898 106.984 44.7773C106.789 44.582 106.613 44.5039 106.457 44.543C106.34 44.543 106.262 44.5234 106.223 44.4844L105.754 44.4258H105.578C105.422 44.4258 105.324 44.3477 105.285 44.1914C105.285 44.0352 105.285 43.7617 105.285 43.3711C105.246 42.6289 105.207 42.2188 105.168 42.1406C105.129 42.0234 105.109 41.8672 105.109 41.6719L105.051 41.2031C105.012 41.0859 105.012 40.9883 105.051 40.9102C105.09 40.6758 105.051 40.4609 104.934 40.2656C104.895 40.2266 104.855 40.1875 104.816 40.1484C104.777 40.1094 104.758 40.0703 104.758 40.0312ZM114.602 38.1562C114.602 37.7656 114.699 37.0039 114.895 35.8711L114.953 35.2266C114.953 35.0312 114.973 34.9141 115.012 34.875C115.012 34.7188 115.031 34.582 115.07 34.4648L115.129 33.8789C115.246 32.8633 115.324 32.2188 115.363 31.9453L115.539 30.4219C115.578 30.3047 115.598 30.0898 115.598 29.7773C115.676 28.8398 115.773 28.293 115.891 28.1367L116.066 27.9023L116.184 27.668C116.184 27.5508 116.301 27.3359 116.535 27.0234L116.652 26.8477L116.711 26.7305C116.75 26.6914 116.809 26.6719 116.887 26.6719C117.355 26.6719 117.648 26.7305 117.766 26.8477C117.883 26.9648 118.02 27.0234 118.176 27.0234L118.527 27.1406L118.879 27.3164C119.074 27.4336 119.23 27.707 119.348 28.1367C119.426 28.293 119.465 28.4297 119.465 28.5469C119.543 28.625 119.582 28.8008 119.582 29.0742L119.699 29.7773C119.816 30.0898 119.895 30.5586 119.934 31.1836C119.934 31.6133 119.953 31.9062 119.992 32.0625C120.07 32.5703 120.051 33.7617 119.934 35.6367C119.934 35.9102 119.895 36.5156 119.816 37.4531C119.777 37.5312 119.738 37.6289 119.699 37.7461C119.699 37.8633 119.68 37.9609 119.641 38.0391C119.641 38.2344 119.621 38.3711 119.582 38.4492C119.582 38.6055 119.543 38.8008 119.465 39.0352C119.387 39.4648 119.133 40.6172 118.703 42.4922L118.293 43.6055L118.059 44.0156C117.902 44.1328 117.785 44.1914 117.707 44.1914C117.551 44.1914 117.434 44.1133 117.355 43.957C117.355 43.8789 117.297 43.8203 117.18 43.7812C116.945 43.7031 116.828 43.6055 116.828 43.4883C116.828 43.4102 116.809 43.3711 116.77 43.3711C116.73 43.3711 116.672 43.3906 116.594 43.4297C116.438 43.625 116.262 43.6445 116.066 43.4883C116.027 43.4492 115.949 43.4492 115.832 43.4883C115.754 43.5273 115.656 43.5469 115.539 43.5469C115.344 43.5469 115.246 43.5078 115.246 43.4297C115.168 43.2734 115.129 42.8242 115.129 42.082C115.051 41.2227 115.012 40.7539 115.012 40.6758C114.973 40.5586 114.914 40.0898 114.836 39.2695C114.836 38.9961 114.797 38.8008 114.719 38.6836C114.641 38.4492 114.602 38.2734 114.602 38.1562ZM117.18 17.8242C117.258 17.9023 117.414 17.9023 117.648 17.8242L118.059 17.7656L118.645 17.5898C118.84 17.5898 119.172 17.5117 119.641 17.3555C120.148 17.2773 120.441 17.1992 120.52 17.1211L120.93 17.0625C121.359 16.9844 121.613 16.9062 121.691 16.8281C121.73 16.75 121.75 16.3008 121.75 15.4805C121.75 14.582 121.73 14.1133 121.691 14.0742C121.457 14.0352 121.32 14.0352 121.281 14.0742C121.242 14.1133 121.184 14.1328 121.105 14.1328C120.988 14.1328 120.891 14.1523 120.812 14.1914C120.227 14.3086 119.914 14.3672 119.875 14.3672L119.406 14.4844C119.367 14.5234 119.309 14.543 119.23 14.543C119.191 14.543 119.152 14.5625 119.113 14.6016C118.996 14.6016 118.898 14.6211 118.82 14.6602C118.742 14.6602 118.664 14.6992 118.586 14.7773C118.547 14.8164 118.508 14.9141 118.469 15.0703C118.156 15.6172 117.883 16.1445 117.648 16.6523C117.414 17.1211 117.258 17.4531 117.18 17.6484C117.141 17.6875 117.141 17.7461 117.18 17.8242ZM122.395 31.4766L122.512 30.7734V30.1289C122.59 29.6602 122.629 29.4453 122.629 29.4844L122.746 28.8984C122.746 28.8203 122.785 28.6641 122.863 28.4297L122.98 28.0781C122.98 28 123.02 27.9219 123.098 27.8438C123.176 27.7656 123.254 27.707 123.332 27.668L123.508 27.6094H123.742C123.977 27.6094 124.211 27.668 124.445 27.7852L124.621 27.8438C124.738 27.8438 124.855 27.8828 124.973 27.9609C125.129 28 125.266 28.0391 125.383 28.0781C125.539 28.1172 125.656 28.2734 125.734 28.5469C125.734 28.6641 125.773 28.8008 125.852 28.957C126.008 29.582 126.105 30.1094 126.145 30.5391L126.203 31.0664C126.242 31.1055 126.262 31.3008 126.262 31.6523C126.34 31.9648 126.379 32.4141 126.379 33C126.457 33.625 126.496 34.1719 126.496 34.6406L126.555 35.4609L126.613 35.7539C126.613 35.9102 126.652 36.1055 126.73 36.3398C126.809 36.5352 126.906 36.6914 127.023 36.8086L127.375 37.1016C127.531 37.1406 127.805 37.1602 128.195 37.1602C129.172 37.1602 129.68 37.1406 129.719 37.1016L130.07 37.043C130.461 37.043 130.812 37.0039 131.125 36.9258C131.281 36.8867 131.496 36.8672 131.77 36.8672C132.082 36.8672 132.316 36.8867 132.473 36.9258L133.234 36.9844C133.664 36.9844 133.996 37.0234 134.23 37.1016L134.816 37.1602L136.105 37.3945C135.988 37.3555 136.32 37.4336 137.102 37.6289C137.258 37.6289 137.414 37.668 137.57 37.7461C137.766 37.8242 137.922 37.8828 138.039 37.9219L138.566 38.1562C139.348 38.3906 139.738 38.5859 139.738 38.7422C139.738 38.8203 139.758 38.8789 139.797 38.918C139.875 39.0742 139.914 39.2305 139.914 39.3867C139.914 39.5039 139.934 39.6211 139.973 39.7383C140.012 39.8164 140.051 39.9141 140.09 40.0312C140.207 40.3047 140.266 40.4805 140.266 40.5586C140.266 40.793 140.285 40.9688 140.324 41.0859C140.363 41.2812 140.383 41.5156 140.383 41.7891C140.383 42.0234 140.363 42.2383 140.324 42.4336V42.6094C140.324 42.6875 140.363 42.8828 140.441 43.1953C140.559 43.4297 140.559 43.625 140.441 43.7812L140.324 44.0156C140.324 44.0938 140.305 44.1523 140.266 44.1914C140.148 44.3086 140.09 44.4062 140.09 44.4844L139.914 44.7773C139.875 44.8164 139.836 44.875 139.797 44.9531C139.758 44.9922 139.699 45.0508 139.621 45.1289C139.465 45.3633 139.23 45.5586 138.918 45.7148C138.84 45.7148 138.762 45.7344 138.684 45.7734C138.605 45.8125 138.527 45.8516 138.449 45.8906C138.332 45.9688 138.234 46.0078 138.156 46.0078C138.078 46.0078 138.02 46.0273 137.98 46.0664C137.746 46.0664 137.531 46.125 137.336 46.2422L136.984 46.3008C136.789 46.3008 136.672 46.3203 136.633 46.3594H136.105L135.578 46.3008H135.461C134.992 46.3008 134.68 46.2617 134.523 46.1836H134.055L133.527 46.125C133.488 46.0859 133.41 46.0664 133.293 46.0664C133.215 46.0664 133.137 46.0469 133.059 46.0078C132.395 45.9297 132.043 45.8906 132.004 45.8906L131.594 45.832C131.438 45.832 131.32 45.8125 131.242 45.7734C131.086 45.6562 130.852 45.5977 130.539 45.5977C130.461 45.5977 130.344 45.5781 130.188 45.5391C130.07 45.5 129.973 45.4609 129.895 45.4219L129.719 45.3633C129.602 45.3633 129.523 45.3438 129.484 45.3047L129.133 45.1875C128.898 45.1484 128.625 45.0703 128.312 44.9531C128 44.8359 127.746 44.7383 127.551 44.6602C126.926 44.4648 126.418 44.2695 126.027 44.0742L125.441 43.7812L124.914 43.3125C124.562 42.9219 124.328 42.6094 124.211 42.375C124.172 42.2578 124.016 41.8281 123.742 41.0859L123.625 40.6172C123.508 40.3438 123.43 39.8555 123.391 39.1523L123.039 37.9219L122.863 36.8672L122.746 36.5156C122.434 35.7344 122.277 34.7969 122.277 33.7031C122.277 33.1562 122.297 32.7461 122.336 32.4727L122.395 31.4766ZM153.566 47.8828C153.488 47.9609 153.371 47.9023 153.215 47.707L153.039 47.4727C152.922 47.4336 152.844 47.3555 152.805 47.2383L152.746 47.0625L152.688 47.1797C152.57 47.3359 152.453 47.3945 152.336 47.3555C152.297 47.3164 152.238 47.2969 152.16 47.2969C151.965 47.4531 151.809 47.4336 151.691 47.2383C151.496 46.6523 151.398 46.3203 151.398 46.2422V45.9492L151.281 45.4219L151.164 44.8359C151.008 44.2891 150.93 43.8594 150.93 43.5469C150.93 43.3125 150.891 43.1172 150.812 42.9609V41.2031C150.812 40.0312 150.793 39.4453 150.754 39.4453C150.754 39.3672 150.754 39.25 150.754 39.0938C150.793 38.8984 150.832 38.7422 150.871 38.625C150.949 38.4297 150.949 38.0391 150.871 37.4531V37.1016C150.91 37.0625 150.93 36.5938 150.93 35.6953C150.969 35.4609 150.988 35.0508 150.988 34.4648V31.3008C151.027 30.4805 151.027 30.0508 150.988 30.0117C150.949 29.9727 150.871 30.0312 150.754 30.1875L150.344 30.6562L149.875 31.2422L149.641 31.6523L148.996 32.4141C148.957 32.4141 148.859 32.4922 148.703 32.6484C148.508 32.8438 148.371 32.9414 148.293 32.9414L147.941 33.2344L147.355 33.7617L147.004 33.9961C146.809 34.1914 146.672 34.3086 146.594 34.3477L146.301 34.582C146.223 34.6602 146.125 34.6992 146.008 34.6992C145.93 34.6992 145.852 34.6406 145.773 34.5234C145.695 34.3281 145.578 34.2109 145.422 34.1719C145.266 34.0547 145.012 33.9961 144.66 33.9961L144.309 34.0547C144.191 34.0547 144.133 33.8398 144.133 33.4102C144.133 33.0977 144.113 32.9219 144.074 32.8828V32.4141L144.016 31.8867C143.898 31.6523 143.84 31.1836 143.84 30.4805C143.84 30.207 143.82 30.0312 143.781 29.9531C143.742 29.7578 143.762 29.6211 143.84 29.543C143.918 29.4258 144.016 29.3086 144.133 29.1914C144.289 29.0742 144.426 28.9961 144.543 28.957C144.621 28.918 144.68 28.8594 144.719 28.7812C144.758 28.625 144.953 28.4688 145.305 28.3125C145.422 28.1953 145.48 28.1172 145.48 28.0781L145.715 27.9023C145.832 27.9023 145.969 27.8047 146.125 27.6094C146.672 27.1406 146.965 26.9062 147.004 26.9062L147.355 26.6133L147.766 26.2617C147.805 26.2617 147.863 26.2031 147.941 26.0859C148.059 25.9297 148.117 25.8125 148.117 25.7344C148.117 25.5781 148.215 25.4609 148.41 25.3828C148.449 25.3828 148.488 25.3633 148.527 25.3242C148.566 25.2852 148.586 25.2461 148.586 25.207L148.82 25.0312L148.996 24.8555C149.035 24.7383 149.211 24.5234 149.523 24.2109C149.68 24.0547 149.758 23.957 149.758 23.918C149.758 23.8008 149.992 23.5469 150.461 23.1562C150.539 23.0391 150.637 22.9414 150.754 22.8633C150.754 22.8242 150.793 22.7656 150.871 22.6875L150.988 22.4531L151.105 22.2188L151.223 22.043C151.223 21.9648 151.164 21.9258 151.047 21.9258C150.969 21.8867 150.812 21.8672 150.578 21.8672C150.227 21.8672 150.031 21.8477 149.992 21.8086C149.875 21.8086 149.797 21.8281 149.758 21.8672C149.68 21.8672 149.562 21.8281 149.406 21.75L149.055 21.5742C148.703 21.4961 148.488 21.3984 148.41 21.2812C148.332 21.1641 148.215 21.0664 148.059 20.9883C147.941 20.9102 147.844 20.8711 147.766 20.8711L147.18 20.6953C146.945 20.5781 146.809 20.5 146.77 20.4609L146.535 20.2266V17.8242C146.496 17.7852 146.457 17.7461 146.418 17.707C146.418 17.668 146.438 17.6484 146.477 17.6484C146.477 17.6094 146.477 17.4531 146.477 17.1797C146.516 16.8672 146.516 16.6719 146.477 16.5938C146.477 16.5547 146.496 16.3984 146.535 16.125L146.594 15.6562C146.555 15.3828 146.672 15.2461 146.945 15.2461C146.984 15.207 147.023 15.1875 147.062 15.1875C147.141 15.1875 147.199 15.168 147.238 15.1289L147.531 14.9531L147.766 14.8945C147.766 14.8555 147.805 14.8359 147.883 14.8359L147.941 14.7188C148.176 14.6016 148.352 14.543 148.469 14.543C148.625 14.543 148.742 14.5234 148.82 14.4844H149.406L149.992 14.4258C150.109 14.3867 150.266 14.3672 150.461 14.3672C150.656 14.3672 150.832 14.3477 150.988 14.3086H151.75C151.867 14.2695 151.945 14.2109 151.984 14.1328L152.043 13.7227L152.219 13.1367L152.395 12.668C152.395 12.5898 152.355 12.5508 152.277 12.5508C152.199 12.5117 152.102 12.4922 151.984 12.4922L151.457 12.4336C151.262 12.4336 151.086 12.4531 150.93 12.4922L150.637 12.6094C150.598 12.6094 150.559 12.6094 150.52 12.6094C150.52 12.5703 150.52 12.5312 150.52 12.4922L150.227 12.4336L149.875 12.3164L149.641 12.2578C149.602 12.2578 149.562 12.2578 149.523 12.2578C149.523 12.2578 149.523 12.2383 149.523 12.1992C149.406 12.082 149.27 12.0039 149.113 11.9648C148.957 11.8867 148.801 11.8477 148.645 11.8477C148.449 11.8477 148.117 11.7305 147.648 11.4961C147.531 11.457 147.453 11.3789 147.414 11.2617C147.414 11.1445 147.414 11.0664 147.414 11.0273V10.5C147.375 10.4609 147.355 10.207 147.355 9.73828C147.355 9.30859 147.336 9.07422 147.297 9.03516C147.258 8.95703 147.238 8.87891 147.238 8.80078C147.238 8.68359 147.219 8.56641 147.18 8.44922C147.18 8.13672 147.16 7.96094 147.121 7.92188C147.121 7.76563 147.141 7.66797 147.18 7.62891L147.238 7.16016C147.238 6.73047 147.316 6.49609 147.473 6.45703C147.629 6.30078 147.707 6.22266 147.707 6.22266C147.863 6.14453 147.98 6.10547 148.059 6.10547C148.098 6.06641 148.137 6.04688 148.176 6.04688C148.254 6.04688 148.312 6.02734 148.352 5.98828L148.703 5.92969C148.898 5.92969 149.113 5.89063 149.348 5.8125C149.582 5.69531 149.758 5.63672 149.875 5.63672L150.402 5.51953C150.48 5.48047 150.578 5.46094 150.695 5.46094C150.812 5.46094 150.93 5.44141 151.047 5.40234L151.633 5.28516L153.625 5.10938C153.742 5.07031 153.879 5.05078 154.035 5.05078C154.191 5.05078 154.309 5.03125 154.387 4.99219C154.738 4.99219 155.051 4.97266 155.324 4.93359C156.027 4.93359 156.496 4.97266 156.73 5.05078C157.121 5.16797 157.395 5.26562 157.551 5.34375L158.02 5.57812C158.449 5.77344 158.684 5.94922 158.723 6.10547C158.879 6.33984 158.918 6.51562 158.84 6.63281L158.898 7.10156C158.938 7.41406 158.938 7.64844 158.898 7.80469L158.84 8.33203C158.84 8.64453 158.82 8.85938 158.781 8.97656C158.625 9.25 158.605 9.46484 158.723 9.62109C158.762 9.66016 158.781 9.73828 158.781 9.85547C158.781 10.0117 158.723 10.1484 158.605 10.2656C158.566 10.3438 158.508 10.4023 158.43 10.4414L158.254 10.6172L157.961 10.7344L157.785 10.8516C157.785 10.8516 157.473 10.9688 156.848 11.2031C156.691 11.2422 156.535 11.2812 156.379 11.3203C156.223 11.3594 156.066 11.418 155.91 11.4961C155.793 11.5742 155.695 11.5938 155.617 11.5547C155.539 11.5156 155.383 11.5352 155.148 11.6133L154.68 11.7305C154.445 11.8086 154.289 11.8867 154.211 11.9648L154.27 12.4336C154.348 12.7461 154.387 12.9609 154.387 13.0781L154.504 13.4883L154.562 13.8984L154.621 14.1914C154.66 14.2305 154.914 14.2695 155.383 14.3086C155.891 14.3477 156.301 14.3477 156.613 14.3086C156.73 14.2305 156.848 14.2305 156.965 14.3086L157.316 14.4258C157.707 14.4648 158.098 14.6211 158.488 14.8945L158.781 15.0703C158.859 15.1094 158.957 15.168 159.074 15.2461C159.191 15.3242 159.289 15.4023 159.367 15.4805C159.445 15.5586 159.484 15.6172 159.484 15.6562V15.8906L159.543 16.3008C159.543 16.5742 159.562 16.7695 159.602 16.8867C159.641 17.043 159.641 17.1992 159.602 17.3555L159.543 17.6484L159.367 18.6445V19.2891C159.367 19.5625 159.328 19.7578 159.25 19.875C159.133 20.1094 158.957 20.2656 158.723 20.3438L158.488 20.4023C158.332 20.4805 157.961 20.5781 157.375 20.6953C157.219 20.6953 157.062 20.7344 156.906 20.8125C156.75 20.8906 156.672 20.9102 156.672 20.8711L156.438 20.9297L155.852 21.0469C155.578 21.0859 155.402 21.1445 155.324 21.2227C155.246 21.2617 155.148 21.2812 155.031 21.2812C154.992 21.2812 154.934 21.3203 154.855 21.3984C154.816 21.4375 154.797 21.6133 154.797 21.9258V22.4531C154.953 22.5703 155.109 22.668 155.266 22.7461L155.676 22.9219L156.086 23.2148L156.379 23.3906L157.199 23.8008C157.277 23.8789 157.355 23.9375 157.434 23.9766C157.551 24.0156 157.648 24.0742 157.727 24.1523L159.191 25.1484C159.23 25.1875 159.27 25.2266 159.309 25.2656C159.387 25.3047 159.445 25.3242 159.484 25.3242L159.836 25.6172C160.305 25.8906 160.539 26.0273 160.539 26.0273L160.715 26.3203C160.793 26.4375 160.832 26.6133 160.832 26.8477C160.832 27.082 160.852 27.2578 160.891 27.375C160.969 27.5703 160.988 27.7461 160.949 27.9023L160.891 28.2539L160.949 28.7812C160.949 29.0156 160.93 29.1719 160.891 29.25V30.3047C160.93 30.3828 160.949 30.4805 160.949 30.5977L160.773 31.0078L160.539 31.4766C160.5 31.5547 160.422 31.6719 160.305 31.8281C160.188 31.9453 160.07 32.0234 159.953 32.0625C159.719 32.1797 159.504 32.1992 159.309 32.1211C159.27 32.082 159.172 32.0625 159.016 32.0625C158.977 32.0234 158.918 32.0039 158.84 32.0039C158.801 32.0039 158.762 31.9844 158.723 31.9453L158.312 31.7109C157.805 31.3594 157.297 31.125 156.789 31.0078C156.594 31.0078 156.281 30.8516 155.852 30.5391L155.559 30.2461L155.148 29.8945C155.031 29.8164 154.953 29.7969 154.914 29.8359C154.875 30.8516 154.855 32.6875 154.855 35.3438C154.855 39.6016 154.836 41.9258 154.797 42.3164L154.738 42.9609C154.738 43.1953 154.699 43.4688 154.621 43.7812L154.562 44.543L154.504 45.0117C154.465 45.0508 154.445 45.1484 154.445 45.3047L154.387 45.6562L154.27 46.1836C154.113 46.8086 153.957 47.2773 153.801 47.5898C153.684 47.7852 153.605 47.8828 153.566 47.8828ZM161.535 40.6172C161.535 40.4609 161.672 40.3242 161.945 40.207L162.121 40.0312C162.199 39.9531 162.434 39.8555 162.824 39.7383L163.586 39.5039L164.172 39.3867C164.484 39.2695 164.738 39.2109 164.934 39.2109C165.051 39.2109 165.109 39.1914 165.109 39.1523C165.188 39.1523 165.344 39.1133 165.578 39.0352C165.812 38.957 166.086 38.8984 166.398 38.8594L166.809 38.8008C167.199 38.7227 167.57 38.6836 167.922 38.6836C168.195 38.6836 168.508 38.625 168.859 38.5078C168.938 38.4688 169.094 38.4492 169.328 38.4492C169.562 38.4492 169.699 38.4297 169.738 38.3906L170.559 38.2148C170.871 38.1758 171.086 37.9609 171.203 37.5703C171.203 37.3359 171.223 37.1602 171.262 37.043L171.379 36.6328L171.438 36.3398C171.516 36.2617 171.555 36.125 171.555 35.9297C171.555 35.6953 171.594 35.4219 171.672 35.1094C171.711 35.0312 171.73 34.8555 171.73 34.582L171.672 34.1719H170.852L170.559 34.1133L170.031 34.0547C169.719 34.0156 169.387 33.957 169.035 33.8789L168.801 33.8203C168.723 33.8203 168.625 33.7617 168.508 33.6445L168.098 33.4688C167.824 33.4297 167.59 33.3125 167.395 33.1172C167.355 33.0391 167.297 32.9219 167.219 32.7656L167.102 31.8281C167.062 31.75 167.043 31.6523 167.043 31.5352C167.043 31.418 167.023 31.3594 166.984 31.3594C166.945 31.2422 166.887 30.8711 166.809 30.2461L166.75 29.7773C166.711 29.543 166.75 29.4062 166.867 29.3672C166.984 29.2891 167.238 29.2109 167.629 29.1328L168.039 29.0742C168.117 29.0352 168.332 29.0156 168.684 29.0156L169.621 28.8984C170.051 28.8984 170.344 28.8789 170.5 28.8398H171.086C171.125 28.8008 171.281 28.7812 171.555 28.7812C171.984 28.7422 172.199 28.6641 172.199 28.5469C172.238 28.5078 172.258 28.0586 172.258 27.1992L171.789 27.1406C171.203 27.1406 170.734 27.082 170.383 26.9648L170.148 26.9062C169.992 26.9062 169.855 26.8672 169.738 26.7891C169.621 26.7891 169.445 26.7305 169.211 26.6133C168.977 26.5352 168.781 26.4375 168.625 26.3203C168.469 26.1641 168.391 26.0469 168.391 25.9688L168.332 25.6758C168.215 25.1289 168.156 24.6992 168.156 24.3867V24.1523L168.098 23.7422L168.039 23.3906L167.98 23.1562V22.6875L167.922 22.3359L168.098 22.2188C168.176 22.1406 168.254 22.1016 168.332 22.1016C168.645 22.0625 169.133 22.043 169.797 22.043C170.5 22.0039 171.184 22.0039 171.848 22.043H172.492C172.57 22.0039 173.352 21.9648 174.836 21.9258C175.227 21.8867 175.656 21.8672 176.125 21.8672H177.062C177.492 21.8672 177.766 21.8867 177.883 21.9258L178.703 22.3945L178.996 22.6289C179.113 22.668 179.211 22.7852 179.289 22.9805L179.23 23.2148C179.191 23.332 179.23 23.4297 179.348 23.5078C179.504 23.7031 179.523 23.8594 179.406 23.9766C179.367 24.0547 179.367 24.1328 179.406 24.2109C179.445 24.2891 179.465 24.4258 179.465 24.6211L179.523 24.8555C179.523 24.9336 179.445 25.1094 179.289 25.3828C179.133 25.5781 179.152 25.6758 179.348 25.6758L179.465 25.7344C179.504 25.7734 179.504 25.8516 179.465 25.9688C179.309 26.125 179.23 26.2031 179.23 26.2031C179.152 26.2812 179.094 26.3203 179.055 26.3203C178.898 26.3984 178.684 26.4961 178.41 26.6133C178.176 26.6914 177.98 26.75 177.824 26.7891H177.59L177.355 26.8477C177.199 26.8477 177.102 26.8672 177.062 26.9062L176.125 27.082C176.086 27.1211 175.949 27.1406 175.715 27.1406H175.363V27.3164L175.422 27.6094C175.461 28.1172 175.539 28.3906 175.656 28.4297C175.656 28.4688 175.93 28.4883 176.477 28.4883L177.531 28.4297C177.766 28.4297 177.922 28.4492 178 28.4883L178.352 28.5469L178.645 28.7227L179.113 28.957C179.465 29.1133 179.68 29.25 179.758 29.3672C179.836 29.4844 179.875 29.6406 179.875 29.8359C179.875 29.875 179.914 30.0117 179.992 30.2461C180.031 30.3633 180.051 30.5 180.051 30.6562V30.9492C180.051 31.3789 180.031 31.6523 179.992 31.7695L180.051 32.2383V32.5312C180.051 32.7266 179.934 32.8633 179.699 32.9414L178.645 33.2344L178.234 33.4102L177.824 33.4688C177.707 33.4688 177.57 33.5078 177.414 33.5859L177.004 33.6445C176.926 33.6445 176.809 33.6836 176.652 33.7617L176.184 33.8789C176.027 33.8789 175.93 33.8984 175.891 33.9375C175.852 33.9766 175.852 34.2695 175.891 34.8164V36.5156C175.852 36.7891 175.852 36.9648 175.891 37.043C175.969 37.1602 176.086 37.2188 176.242 37.2188L177.414 37.043C177.766 37.043 178 37.0234 178.117 36.9844L178.527 36.9258L179.23 36.8672C179.387 36.8281 179.582 36.8086 179.816 36.8086C179.855 36.7695 179.914 36.75 179.992 36.75L180.344 36.6914L180.93 36.6328C181.281 36.6328 181.477 36.6133 181.516 36.5742C181.594 36.5742 181.965 36.5742 182.629 36.5742C183.293 36.5352 183.664 36.5352 183.742 36.5742L184.211 36.6328L184.68 36.6914L185.148 36.8086L185.676 36.8672L186.027 36.9844L186.262 37.043C186.691 37.3164 187.062 37.4922 187.375 37.5703C187.414 37.5703 187.473 37.5898 187.551 37.6289C187.629 37.668 187.727 37.7266 187.844 37.8047L188.195 37.9805C188.273 37.9805 188.371 38.0391 188.488 38.1562C188.605 38.2344 188.723 38.4102 188.84 38.6836C188.957 38.957 189.016 39.1719 189.016 39.3281L189.25 40.3242C189.328 40.4805 189.367 40.9297 189.367 41.6719L189.426 42.7266L189.309 42.9023C189.23 43.1367 189.191 43.2734 189.191 43.3125C189.191 43.5859 189.25 43.8398 189.367 44.0742C189.484 44.2305 189.504 44.4648 189.426 44.7773L189.191 45.1875L188.957 45.5391C188.879 45.8125 188.703 45.9883 188.43 46.0664C188.312 46.0664 188.234 46.0859 188.195 46.125L187.844 46.1836L187.668 46.2422C187.59 46.2812 187.375 46.2812 187.023 46.2422C186.906 46.2422 186.828 46.2617 186.789 46.3008C186.711 46.3398 186.516 46.3594 186.203 46.3594L186.027 46.418C185.949 46.457 185.832 46.4961 185.676 46.5352C185.559 46.5352 185.441 46.5156 185.324 46.4766C185.207 46.4766 185.109 46.4961 185.031 46.5352L184.68 46.5938L184.387 46.6523C184.348 46.6914 184.172 46.7109 183.859 46.7109H183.449C183.449 46.75 183.332 46.7695 183.098 46.7695C182.902 46.7695 182.727 46.8086 182.57 46.8867C182.492 46.9258 182.297 46.9453 181.984 46.9453C181.477 46.9844 181.125 46.9844 180.93 46.9453L180.578 46.8867C180.539 46.9258 180.441 46.9453 180.285 46.9453C180.129 46.9453 180.012 46.9648 179.934 47.0039C179.699 47.082 179.406 47.1211 179.055 47.1211C178.742 47.1211 178.547 47.1016 178.469 47.0625H178.293C178.137 47.1016 177.961 47.1016 177.766 47.0625H177.414C177.375 47.1016 177.277 47.1406 177.121 47.1797C177.004 47.1797 176.906 47.1602 176.828 47.1211L176.301 47.0625C175.871 47.0625 175.559 47.043 175.363 47.0039C175.012 47.0039 174.797 47.0234 174.719 47.0625C174.641 47.1016 174.562 47.1016 174.484 47.0625H174.133C173.859 47.0625 173.586 47.0234 173.312 46.9453C173.195 46.9062 173.02 46.9062 172.785 46.9453C172.512 47.0234 172.297 47.0234 172.141 46.9453L171.086 46.8281C170.617 46.8281 170.344 46.7891 170.266 46.7109H169.914C169.719 46.75 169.582 46.75 169.504 46.7109C169.465 46.6719 169.387 46.6523 169.27 46.6523C169.113 46.6523 169.016 46.6328 168.977 46.5938C168.938 46.5547 168.84 46.5352 168.684 46.5352C168.176 46.457 167.883 46.3984 167.805 46.3594L166.984 46.3008C166.398 46.2617 165.969 46.2031 165.695 46.125L165.051 46.0078C164.816 46.0078 164.621 45.9688 164.465 45.8906C164.23 45.8125 164.113 45.7734 164.113 45.7734L163.879 45.7148C163.84 45.6758 163.684 45.6172 163.41 45.5391L162.531 45.3047C162.492 45.2266 162.434 45.168 162.355 45.1289C162.277 45.1289 162.199 45.0312 162.121 44.8359L162.004 44.0742L161.945 43.4297C161.945 43.0391 161.926 42.8242 161.887 42.7852C161.809 42.707 161.77 42.5703 161.77 42.375C161.77 42.1406 161.75 41.9844 161.711 41.9062C161.672 41.8672 161.652 41.6914 161.652 41.3789C161.652 41.0664 161.633 40.8711 161.594 40.793L161.535 40.6172ZM166.809 15.1875C166.809 14.2891 166.828 13.7227 166.867 13.4883C166.867 13.2539 166.848 13.1172 166.809 13.0781L166.75 12.0234C166.75 11.1641 166.789 10.5 166.867 10.0312L166.926 9.50391L166.984 9.15234L167.043 8.80078L167.219 7.62891L167.395 6.69141C167.395 6.26172 167.492 5.71484 167.688 5.05078C167.766 4.89453 167.805 4.75781 167.805 4.64062C167.883 4.28906 167.961 4.01563 168.039 3.82031C168.156 3.625 168.293 3.50781 168.449 3.46875L168.742 3.41016L169.035 3.35156L169.445 3.23438L170.5 3.05859L171.027 3C171.105 2.92187 171.223 2.88281 171.379 2.88281L171.906 2.82422C172.727 2.70703 173.527 2.64844 174.309 2.64844L174.777 2.58984H175.773C176.203 2.58984 176.535 2.60938 176.77 2.64844C177.043 2.64844 177.336 2.70703 177.648 2.82422C178.039 2.94141 178.352 3.09766 178.586 3.29297C178.938 3.52734 179.113 3.64453 179.113 3.64453L179.699 3.9375C179.855 4.01563 179.973 4.13281 180.051 4.28906C180.207 4.52344 180.324 4.89453 180.402 5.40234L180.461 5.8125C180.461 6.16406 180.48 6.47656 180.52 6.75C180.52 7.375 180.539 7.80469 180.578 8.03906C180.578 8.39062 180.598 8.56641 180.637 8.56641V10.793C180.637 12.2773 180.617 13.1758 180.578 13.4883L180.52 14.4844C180.48 14.6016 180.461 14.7578 180.461 14.9531L180.402 15.6562C180.363 15.7734 180.285 16.1055 180.168 16.6523C180.129 17.0039 180.07 17.2773 179.992 17.4727C179.953 17.6289 179.855 17.8438 179.699 18.1172C179.504 18.4297 179.289 18.6445 179.055 18.7617C178.82 18.8789 178.605 18.8789 178.41 18.7617C178.41 18.7227 178.312 18.6641 178.117 18.5859L177.766 18.5273L176.945 18.6445C176.789 18.7227 176.613 18.7227 176.418 18.6445C176.262 18.6445 176.145 18.6836 176.066 18.7617L175.773 18.8203C175.617 18.7812 175.461 18.8008 175.305 18.8789L175.188 18.9375L174.953 18.9961C174.836 19.1133 174.758 19.1719 174.719 19.1719C174.523 19.25 174.289 19.25 174.016 19.1719C173.898 19.1719 173.781 19.2109 173.664 19.2891L173.254 19.4648C173.059 19.4648 172.941 19.4844 172.902 19.5234H172.258C171.984 19.6406 171.828 19.6992 171.789 19.6992H171.496C171.457 19.7383 171.301 19.7578 171.027 19.7578H170.676C170.559 19.7578 170.344 19.7188 170.031 19.6406C169.953 19.6016 169.836 19.6016 169.68 19.6406L169.445 19.6992C169.367 19.6992 169.23 19.6016 169.035 19.4062C168.918 19.2109 168.801 19.0742 168.684 18.9961C168.449 18.918 168.293 18.8789 168.215 18.8789C168.059 18.8789 167.844 18.7812 167.57 18.5859C167.531 18.5469 167.414 18.4883 167.219 18.4102C167.18 18.3711 167.121 18.3516 167.043 18.3516C167.004 18.3516 166.984 18.332 166.984 18.293C166.906 18.293 166.867 18.2344 166.867 18.1172C166.828 17.9609 166.809 17.4727 166.809 16.6523V15.1875ZM171.145 12.7266H171.496C172.121 12.7266 172.59 12.6875 172.902 12.6094C173.059 12.5312 173.352 12.4922 173.781 12.4922C174.289 12.4531 174.641 12.3945 174.836 12.3164L175.715 12.1992C176.027 12.1602 176.242 12.1211 176.359 12.082C176.477 12.043 176.555 11.9844 176.594 11.9062C176.633 11.6719 176.652 11.3203 176.652 10.8516C176.652 10.3438 176.633 9.95312 176.594 9.67969L176.477 9.44531C176.438 9.40625 176.203 9.34766 175.773 9.26953L175.363 9.21094C175.207 9.17188 174.777 9.15234 174.074 9.15234C173.918 9.19141 173.762 9.17188 173.605 9.09375L172.961 9.03516C172.297 8.95703 171.828 8.95703 171.555 9.03516C171.359 9.07422 171.242 9.17188 171.203 9.32812C171.164 9.44531 171.145 9.79688 171.145 10.3828L171.027 12.375C170.988 12.4922 170.988 12.5898 171.027 12.668L171.145 12.7266Z" fill="#4A443D"/>
</svg>
