<svg width="101" height="32" viewBox="0 0 101 32" fill="none" xmlns="http://www.w3.org/2000/svg">
<path d="M95.2865 32C95.0783 32 94.9535 31.9678 94.9118 31.9035C94.8702 31.8821 94.8078 31.8606 94.7245 31.8392C94.6413 31.8178 94.5684 31.807 94.506 31.807C94.4436 31.807 94.3707 31.7856 94.2875 31.7427C94.2458 31.7427 94.1834 31.7213 94.1002 31.6784C94.0169 31.657 93.9545 31.6355 93.9128 31.6141L93.6007 31.4533C93.455 31.3675 93.2781 31.271 93.0699 31.1638C92.8826 31.0566 92.7057 30.9816 92.5392 30.9387C92.2062 30.7672 91.9877 30.6385 91.8836 30.5528C91.8212 30.5099 91.7275 30.4241 91.6027 30.2955C91.4986 30.1883 91.4153 30.1025 91.3529 30.0382L91.1344 29.395V29.2985C91.1136 29.2771 91.0927 29.2127 91.0719 29.1055C91.0511 29.0198 91.0407 28.9554 91.0407 28.9126C90.9991 28.6982 90.9783 28.2693 90.9783 27.6261V26.4362C90.9575 26.2003 90.9471 25.8894 90.9471 25.5035C90.9679 25.2891 90.9471 25.1819 90.8846 25.1819C90.8014 25.1819 90.7597 25.2784 90.7597 25.4714C90.7597 25.6429 90.7285 25.8251 90.6661 26.0181C90.6036 26.1896 90.5412 26.329 90.4788 26.4362C90.4163 26.5219 90.3747 26.5863 90.3539 26.6291L90.0729 27.0151L89.3861 28.0764L89.0115 28.591C88.9699 28.6553 88.9178 28.7303 88.8554 28.8161C88.8138 28.8804 88.7826 28.9447 88.7617 29.009L88.6056 29.1377C88.5432 29.3092 88.2935 29.5987 87.8564 30.006C87.2945 30.4992 86.8886 30.8208 86.6389 30.9709C86.4724 31.0566 86.3267 31.1209 86.2018 31.1638C86.0977 31.2496 85.9729 31.3032 85.8272 31.3246L85.6086 31.3568L85.3589 31.3889C85.2756 31.3675 85.2028 31.3246 85.1404 31.2603C85.0363 31.1531 84.9218 31.0781 84.797 31.0352C84.6929 31.0137 84.62 31.003 84.5784 31.003C84.4327 31.003 84.3599 30.9816 84.3599 30.9387C84.3391 30.8958 84.3287 30.7672 84.3287 30.5528C84.3495 30.4884 84.3599 30.2526 84.3599 29.8452C84.3599 29.6308 84.3599 29.4807 84.3599 29.395C84.3807 29.3307 84.3911 29.2878 84.3911 29.2663C84.3911 29.1806 84.3807 29.1162 84.3599 29.0734C84.3183 28.9447 84.3287 28.859 84.3911 28.8161C84.4535 28.7518 84.5472 28.6767 84.6721 28.591C84.797 28.5052 84.9322 28.4302 85.0779 28.3658L85.3901 28.1407L85.6086 28.0121C85.6295 28.0121 85.6607 27.9906 85.7023 27.9477C85.7439 27.9049 85.796 27.862 85.8584 27.8191L86.1394 27.6261C86.1602 27.6261 86.233 27.5618 86.3579 27.4332L86.7637 27.0794C86.847 27.0365 87.128 26.7685 87.6066 26.2754L88.2935 25.6C88.4183 25.4285 88.5536 25.2784 88.6993 25.1497C88.6993 25.1069 88.5952 25.0854 88.3871 25.0854C88.2206 25.0425 88.1166 25.0104 88.0749 24.9889C88.0541 24.9675 88.0021 24.9353 87.9188 24.8925C87.8564 24.8281 87.794 24.7853 87.7315 24.7638C87.6275 24.7424 87.5546 24.7209 87.513 24.6995C87.4714 24.6566 87.4506 24.6137 87.4506 24.5709C87.4506 24.528 87.4297 24.4637 87.3881 24.3779C87.3465 24.3779 87.3257 24.3564 87.3257 24.3136C87.3049 24.2492 87.2736 24.067 87.232 23.7668C87.1488 23.338 87.0967 23.1022 87.0759 23.0593L87.0447 22.7377C87.0031 22.5233 86.9719 22.3625 86.9511 22.2553C86.9302 22.1481 86.8886 22.0623 86.8262 21.998C86.7846 21.9122 86.7637 21.8265 86.7637 21.7407C86.7221 21.5477 86.7221 21.2047 86.7637 20.7116L86.795 19.9719C86.8574 19.3286 86.9198 18.857 86.9823 18.5568L87.0135 18.1065L87.0759 17.6884L87.1384 16.7236C87.1592 16.6807 87.1696 16.6379 87.1696 16.595C87.1696 16.5307 87.1904 16.4556 87.232 16.3698C87.232 16.134 87.2528 15.9732 87.2945 15.8874C87.2945 15.8446 87.3153 15.7374 87.3569 15.5658C87.3777 15.3729 87.3985 15.2442 87.4193 15.1799C87.4401 15.0941 87.4818 15.0405 87.5442 15.0191C87.794 14.869 88.0541 14.7511 88.3247 14.6653C88.5952 14.5581 88.8554 14.5045 89.1051 14.5045C89.1884 14.4616 89.2612 14.4402 89.3237 14.4402C89.4069 14.4402 89.4694 14.4295 89.511 14.408L90.0105 14.3759L90.3851 14.3437C90.4059 14.3223 90.8326 14.333 91.6651 14.3759C92.9138 14.5045 93.6631 14.6439 93.9128 14.794C93.9545 14.794 94.0065 14.8154 94.0689 14.8583C94.1522 14.8797 94.225 14.9012 94.2875 14.9226L94.5372 15.0513C94.6413 15.2013 94.7245 15.4693 94.787 15.8553C94.8078 16.0268 94.8182 16.5199 94.8182 17.3347C94.8182 18.6425 94.8286 19.468 94.8494 19.8111C94.891 21.5692 94.8286 22.6734 94.6621 23.1236C94.5997 23.4667 94.4852 23.7347 94.3187 23.9276C94.2771 23.992 94.2458 24.0456 94.225 24.0884C94.2042 24.1099 94.1834 24.1313 94.1626 24.1528C94.1626 24.1956 94.1522 24.2278 94.1314 24.2492C94.1106 24.2707 94.1002 24.2921 94.1002 24.3136C94.0585 24.3564 94.0585 24.3993 94.1002 24.4422C94.1418 24.4851 94.1626 24.528 94.1626 24.5709C94.1626 24.5923 94.1418 24.6245 94.1002 24.6673C93.9753 24.7102 93.9024 24.7317 93.8816 24.7317L93.6007 24.9246C93.559 24.9461 93.507 24.9568 93.4446 24.9568C93.4029 24.9568 93.3613 24.9675 93.3197 24.9889L92.8826 25.0211L92.6641 25.0533C92.6433 25.0533 92.6225 25.0747 92.6017 25.1176C92.6017 25.1605 92.6121 25.2141 92.6329 25.2784C92.6329 25.257 92.6537 25.3534 92.6953 25.5678C92.6953 25.6322 92.7057 25.6858 92.7265 25.7286C92.7473 25.7501 92.7577 25.7715 92.7577 25.793C92.7577 25.8787 92.7786 26.0074 92.8202 26.1789C92.8618 26.5005 92.9347 26.8114 93.0387 27.1116C93.0803 27.1973 93.1324 27.2509 93.1948 27.2724C93.2781 27.2938 93.4862 27.3045 93.8192 27.3045C94.2354 27.3045 94.4852 27.2938 94.5684 27.2724C94.7141 27.208 95.12 27.133 95.786 27.0472C95.9525 27.0472 96.0773 27.0258 96.1606 26.9829C96.2022 26.9615 96.2751 26.9508 96.3791 26.9508L96.4728 26.9186C96.5144 26.8757 96.7537 26.8007 97.1908 26.6935C97.3781 26.6291 97.4822 26.5755 97.503 26.5327C97.5863 26.5327 97.6695 26.5005 97.7528 26.4362L98.0337 26.3397C98.0962 26.2539 98.2002 26.2111 98.3459 26.2111C98.5124 26.2111 98.6789 26.2539 98.8454 26.3397L99.1264 26.404C99.2721 26.404 99.3761 26.4362 99.4386 26.5005L99.501 26.6291L99.6883 26.6613C99.7091 26.6613 99.782 26.6827 99.9068 26.7256C99.9901 26.8114 100.063 26.8543 100.125 26.8543C100.313 26.9615 100.417 27.1223 100.438 27.3367V27.7548C100.438 27.8834 100.438 27.9692 100.438 28.0121C100.458 28.0549 100.469 28.0871 100.469 28.1085C100.51 28.1514 100.51 28.2157 100.469 28.3015V28.5266C100.469 28.8697 100.438 29.1162 100.375 29.2663C100.375 29.2878 100.354 29.4486 100.313 29.7487V30.0382L100.157 30.3598C100.053 30.6385 99.9277 30.8637 99.782 31.0352C99.7403 31.0995 99.6155 31.1853 99.4073 31.2925C99.2408 31.3997 99.1576 31.464 99.1576 31.4854C99.0952 31.5712 98.9807 31.6248 98.8142 31.6462C98.8142 31.6677 98.7622 31.6998 98.6581 31.7427L98.3459 31.807C98.2418 31.807 98.169 31.807 98.1274 31.807C98.0858 31.8285 98.0545 31.8392 98.0337 31.8392L97.7215 31.8714C97.5134 31.8714 97.3885 31.8821 97.3469 31.9035C97.2637 31.9464 97.1596 31.9678 97.0347 31.9678C96.9307 31.9893 96.785 31.9893 96.5977 31.9678H95.7235L95.2865 32ZM81.3941 9.32663C81.3941 7.61139 81.4357 6.60369 81.519 6.30352L81.5502 5.85327L81.5814 5.30653C81.623 5.13501 81.6439 4.9742 81.6439 4.82412C81.6439 4.69548 81.6543 4.58827 81.6751 4.50251C81.6959 4.41675 81.7063 4.35243 81.7063 4.30955L81.7375 3.8593C81.7583 3.66633 81.7583 3.54841 81.7375 3.50553C81.6751 3.44121 81.6439 3.37688 81.6439 3.31256C81.623 3.31256 81.6126 2.99095 81.6126 2.34774C81.6126 1.72596 81.6022 1.39363 81.5814 1.35075C81.5606 1.32931 81.5502 1.30787 81.5502 1.28643C81.571 1.24355 81.5918 1.21139 81.6126 1.18995L82.0497 1.12563C82.0913 1.08275 82.3619 1.08275 82.8614 1.12563C83.0071 1.14707 83.184 1.15779 83.3921 1.15779C83.621 1.15779 83.8396 1.16851 84.0477 1.18995C84.8386 1.18995 85.3381 1.20067 85.5462 1.22211C86.0873 1.22211 86.4411 1.23283 86.6076 1.25427H87.1696C87.2945 1.27571 87.5858 1.40436 88.0437 1.6402C88.2518 1.76884 88.3663 1.86533 88.3871 1.92965C88.4079 1.97253 88.4183 2.03685 88.4183 2.12261C88.3975 2.16549 88.3871 2.2191 88.3871 2.28342C88.4079 2.45494 88.4079 2.58358 88.3871 2.66935C88.3871 2.69079 88.3767 2.71223 88.3559 2.73367C88.3559 2.75511 88.3663 2.77655 88.3871 2.79799L88.3247 2.99095V3.08744C88.3247 3.43049 88.3039 3.62345 88.2622 3.66633C88.2414 3.68777 88.2102 3.69849 88.1686 3.69849C88.1478 3.69849 88.127 3.70921 88.1061 3.73065C88.0437 3.73065 87.9917 3.75209 87.9501 3.79497C87.8044 3.83786 87.4818 3.89146 86.9823 3.95578C86.9406 3.97722 86.8886 3.98794 86.8262 3.98794C86.7846 3.98794 86.7429 3.99866 86.7013 4.0201C86.4307 4.10586 86.2538 4.13802 86.1706 4.11658C86.0665 4.11658 86.0249 4.14874 86.0457 4.21307C86.0665 4.32027 86.0769 4.56683 86.0769 4.95276L86.1081 5.24221C86.129 5.26365 86.3683 5.27437 86.8262 5.27437C87.2216 5.27437 87.461 5.28509 87.5442 5.30653C87.6275 5.32797 87.7523 5.39229 87.9188 5.4995C88.0229 5.54238 88.0957 5.61742 88.1374 5.72462C88.2206 5.89615 88.2726 6.13199 88.2935 6.43216C88.3143 6.71089 88.3039 6.90385 88.2622 7.01106C88.2414 7.1397 88.231 7.42915 88.231 7.8794C88.231 8.37253 88.2102 8.66198 88.1686 8.74774L88.1374 9.19799C88.1374 9.32663 88.127 9.39095 88.1061 9.39095C88.0645 9.43384 88.0749 9.50888 88.1374 9.61608C88.1582 9.65896 88.1582 9.69112 88.1374 9.71256C88.1374 9.79832 88.0333 9.87337 87.8252 9.93769L87.4506 10.0342L87.232 10.0663C87.1696 10.0663 87.1071 10.1092 87.0447 10.195C87.0031 10.2379 86.9302 10.27 86.8262 10.2915C86.7637 10.2915 86.6909 10.3129 86.6076 10.3558C86.4828 10.3987 86.3787 10.4201 86.2955 10.4201C86.1081 10.463 86.0145 10.5166 86.0145 10.5809V10.9668C86.0353 11.1812 86.0561 11.2992 86.0769 11.3206H87.4506L87.8252 11.2884C87.846 11.2884 87.9396 11.3099 88.1061 11.3528C88.1894 11.3742 88.4496 11.4707 88.8866 11.6422C89.0115 11.7494 89.0531 11.8566 89.0115 11.9638L89.0427 12.1568C89.0843 12.2425 89.1051 12.2961 89.1051 12.3176C89.1051 12.5749 89.0947 12.7678 89.0739 12.8965C89.0739 13.0037 89.0843 13.1109 89.1051 13.2181C89.1051 13.3039 89.0843 13.3682 89.0427 13.4111C88.9803 13.4754 88.8242 13.5611 88.5744 13.6683C88.4496 13.6898 88.3455 13.7434 88.2622 13.8291C88.2622 13.8291 88.179 13.8506 88.0125 13.8935C87.9501 13.8935 87.8876 13.9042 87.8252 13.9256C87.7627 13.9471 87.7107 13.9578 87.6691 13.9578C87.6275 13.9792 87.5026 13.9899 87.2945 13.9899L86.9823 14.0221L86.7325 14.0543H86.4828C86.462 14.0757 86.3267 14.0864 86.0769 14.0864C85.9312 14.0864 85.8168 14.0972 85.7335 14.1186C85.6503 14.1186 85.5774 14.14 85.515 14.1829C85.4526 14.2044 85.3797 14.2151 85.2965 14.2151C85.1716 14.1722 84.8802 14.1722 84.4223 14.2151C84.2558 14.2151 84.1414 14.2044 84.0789 14.1829C84.0373 14.14 83.9332 14.1186 83.7667 14.1186C83.7043 14.1186 83.5482 14.0972 83.2985 14.0543C83.0487 13.9899 82.9134 13.9578 82.8926 13.9578L82.4243 13.7327C82.2162 13.6469 82.0497 13.5611 81.9248 13.4754L81.8312 12.8965C81.7895 12.725 81.7687 12.6392 81.7687 12.6392L81.7063 12.4784C81.6855 12.4355 81.6543 12.3283 81.6126 12.1568C81.5918 11.9853 81.571 11.8781 81.5502 11.8352C81.5502 11.5779 81.519 11.2563 81.4565 10.8704C81.4149 10.7203 81.3941 10.2057 81.3941 9.32663ZM82.7677 4.98492C82.7677 5.17789 82.7781 5.30653 82.799 5.37085H83.3921C83.9124 5.34941 84.2038 5.32797 84.2662 5.30653C84.4327 5.26365 84.5888 5.26365 84.7345 5.30653C84.7761 5.30653 84.8074 5.29581 84.8282 5.27437V5.01709C84.8074 4.95276 84.797 4.83484 84.797 4.66332C84.7761 4.49179 84.7449 4.37387 84.7033 4.30955C84.6617 4.22379 84.5992 4.19162 84.516 4.21307C84.4535 4.23451 84.3807 4.24523 84.2975 4.24523C84.2142 4.24523 84.1414 4.23451 84.0789 4.21307C83.954 4.21307 83.85 4.20235 83.7667 4.1809C83.5586 4.1809 83.4441 4.17018 83.4233 4.14874C83.4233 4.14874 83.3401 4.1273 83.1736 4.08442C83.132 4.06298 83.0903 4.05226 83.0487 4.05226C83.0071 4.03082 82.9759 4.00938 82.955 3.98794C82.9134 3.9665 82.8406 3.95578 82.7365 3.95578C82.7157 3.97722 82.7157 4.11658 82.7365 4.37387L82.7677 4.98492ZM82.8302 7.55779C82.8302 7.96516 82.851 8.21173 82.8926 8.29749C82.8926 8.29749 82.955 8.30821 83.0799 8.32965C83.2256 8.32965 83.5586 8.32965 84.0789 8.32965L85.234 8.29749L85.4213 8.26533L85.6399 8.201L85.8272 8.16884C85.9104 8.1474 86.0145 8.13668 86.1394 8.13668C86.2851 8.13668 86.4516 8.11524 86.6389 8.07236C86.8262 8.07236 86.9615 8.07236 87.0447 8.07236C87.1488 8.05092 87.2112 8.0402 87.232 8.0402C87.2736 7.74003 87.2945 7.49347 87.2945 7.3005C87.3153 7.0861 87.2945 6.95745 87.232 6.91457C87.1904 6.89313 86.9511 6.88241 86.514 6.88241L84.797 6.97889L84.5472 7.01106C84.5264 7.01106 84.4744 7.02178 84.3911 7.04322C84.3079 7.06466 84.2454 7.10754 84.2038 7.17186L83.6419 7.20402H83.2048L83.0487 7.01106L82.8614 6.94673C82.8406 6.94673 82.8302 7.15042 82.8302 7.55779ZM83.0175 11.192C83.0175 11.2563 83.0175 11.3099 83.0175 11.3528C83.0383 11.3742 83.0799 11.3849 83.1424 11.3849L83.3921 11.3528L84.1101 11.3206H84.7033C84.7241 11.3206 84.7345 11.267 84.7345 11.1598L84.7657 10.9025C84.7866 10.7524 84.7553 10.6881 84.6721 10.7095C84.5472 10.7095 84.464 10.7203 84.4223 10.7417H84.235L83.8604 10.6774C83.7147 10.6774 83.5794 10.6559 83.4545 10.6131C83.3297 10.5487 83.2464 10.5166 83.2048 10.5166C83.1215 10.4737 83.0591 10.4737 83.0175 10.5166V11.192ZM89.0739 17.4312C89.0947 17.4526 89.3029 17.4633 89.6983 17.4633C90.3643 17.4633 90.8534 17.474 91.1656 17.4955C91.4986 17.5169 91.6963 17.5276 91.7587 17.5276C91.8004 17.5491 91.9461 17.5598 92.1958 17.5598L92.6017 17.592C92.6433 17.592 92.6745 17.5812 92.6953 17.5598C92.7369 17.5384 92.7577 17.4526 92.7577 17.3025C92.7786 17.1095 92.7473 17.0023 92.6641 16.9809L92.1646 16.9166L91.7275 16.8844C91.4153 16.8201 91.2488 16.7987 91.228 16.8201H90.8534C90.7285 16.8201 90.6036 16.8308 90.4788 16.8523C90.3747 16.8737 90.2915 16.8844 90.229 16.8844C90.1874 16.9059 90.0729 16.9166 89.8856 16.9166C89.6359 16.938 89.4381 16.9702 89.2925 17.0131C89.1676 17.0345 89.0947 17.0774 89.0739 17.1417C89.0531 17.2275 89.0531 17.324 89.0739 17.4312ZM89.1051 22.6412C89.1051 22.727 89.1468 22.7806 89.23 22.802C89.3133 22.802 89.4173 22.802 89.5422 22.802C89.6879 22.802 89.8024 22.802 89.8856 22.802H91.3841C91.9669 22.802 92.2687 22.7913 92.2895 22.7698C92.3311 22.727 92.3519 22.6626 92.3519 22.5769C92.3519 22.4911 92.3311 22.4054 92.2895 22.3196C92.2687 22.2553 92.2062 22.2231 92.1022 22.2231C91.9357 22.2231 91.7796 22.2338 91.6339 22.2553C90.843 22.2553 90.229 22.2231 89.792 22.1588H89.4486C89.3861 22.1159 89.3237 22.0945 89.2612 22.0945C89.2404 22.0945 89.2092 22.1052 89.1676 22.1266C89.1468 22.1481 89.1364 22.1695 89.1364 22.191L89.1051 22.4804V22.6412ZM89.1988 20.2613C89.2196 20.2827 89.5214 20.3042 90.1041 20.3256L91.3841 20.3578C91.5714 20.3792 91.842 20.3899 92.1958 20.3899C92.3415 20.4114 92.4456 20.4221 92.508 20.4221C92.5704 20.4007 92.6017 20.3792 92.6017 20.3578C92.6225 20.3578 92.6329 20.2291 92.6329 19.9719C92.6329 19.7575 92.6225 19.6395 92.6017 19.6181H92.3519L89.3861 19.6503C89.2821 19.6288 89.2196 19.6288 89.1988 19.6503C89.178 19.6717 89.1676 19.7682 89.1676 19.9397C89.1676 20.1112 89.178 20.2184 89.1988 20.2613ZM91.4778 5.53166C91.4778 5.25293 91.4882 5.02781 91.509 4.85628L91.5402 4.14874C91.5402 3.99866 91.5298 3.9129 91.509 3.89146L91.5402 3.56985C91.561 3.37688 91.6027 3.13032 91.6651 2.83015C91.7275 2.61575 91.7483 2.51926 91.7275 2.5407C91.7483 2.36918 91.79 2.25126 91.8524 2.18693L91.9148 1.92965L91.9773 1.51156L92.0397 1.12563L92.1334 0.900503C92.1542 0.900503 92.1854 0.836181 92.227 0.707538C92.2478 0.578894 92.3103 0.40737 92.4143 0.192965C92.4768 0.107203 92.5288 0.0536013 92.5704 0.0321608C92.6329 0.0107203 92.7161 0 92.8202 0H92.9138C92.9555 0 93.0387 0.0321608 93.1636 0.0964824C93.3717 0.182245 93.507 0.310888 93.5694 0.482412C93.6527 0.653936 93.6943 0.900503 93.6943 1.22211C93.7151 1.30787 93.7255 1.38291 93.7255 1.44724C93.7463 1.51156 93.7672 1.55444 93.788 1.57588C93.8296 1.6402 93.8816 1.6402 93.9441 1.57588L94.0689 1.51156C94.4436 1.38291 94.7245 1.31859 94.9118 1.31859C95.0159 1.29715 95.1928 1.26499 95.4426 1.22211L95.786 1.15779L96.1294 1.12563L96.8786 1.09347H97.5342L97.7528 1.15779C97.8984 1.20067 98.0649 1.28643 98.2523 1.41508C98.4396 1.54372 98.5644 1.65092 98.6269 1.73668C98.6477 1.77956 98.6581 1.85461 98.6581 1.96181C98.6581 2.11189 98.6789 2.19765 98.7205 2.2191C98.7205 2.28342 98.6997 2.36918 98.6581 2.47638C98.6373 2.49782 98.6269 2.5407 98.6269 2.60503C98.6269 2.64791 98.6061 2.70151 98.5644 2.76583C98.5644 2.85159 98.554 2.90519 98.5332 2.92663L98.502 3.18392V3.40905C98.4812 3.53769 98.3771 3.62345 98.1898 3.66633C98.1066 3.66633 97.9088 3.71993 97.5967 3.82714C97.555 3.84858 97.4406 3.8593 97.2532 3.8593C97.0659 3.8593 96.9202 3.88074 96.8162 3.92362C96.7121 3.9665 96.6289 3.97722 96.5664 3.95578C96.5456 3.95578 96.4728 3.97722 96.3479 4.0201C96.1606 4.10586 96.0669 4.15946 96.0669 4.1809C96.0669 4.22379 96.1398 4.28811 96.2855 4.37387C96.4103 4.48107 96.4832 4.55611 96.504 4.59899C96.5456 4.68476 96.5768 4.8134 96.5977 4.98492C96.6393 5.15645 96.6601 5.32797 96.6601 5.4995C96.6601 5.69246 96.7017 5.96047 96.785 6.30352C96.8058 6.32496 96.8682 6.3464 96.9723 6.36784C97.0763 6.38928 97.2637 6.42144 97.5342 6.46432C98.2418 6.5072 98.7934 6.64657 99.1888 6.88241C99.5843 7.09682 99.8444 7.31122 99.9693 7.52563C100.094 7.74003 100.188 8.11524 100.25 8.65126C100.292 9.25159 100.313 9.65896 100.313 9.87337C100.313 10.1521 100.292 10.5916 100.25 11.192C100.167 11.7065 100.084 12.0925 100.001 12.3497C99.9381 12.607 99.834 12.8214 99.6883 12.993C99.6467 13.0144 99.5843 13.0573 99.501 13.1216C99.4178 13.1645 99.2825 13.1859 99.0952 13.1859L98.8142 13.1216L98.7205 13.2824C98.6165 13.3682 98.5228 13.4325 98.4396 13.4754C98.3771 13.4968 98.2731 13.5075 98.1274 13.5075C98.0025 13.5075 97.8984 13.529 97.8152 13.5719C97.6487 13.6147 97.4926 13.6147 97.3469 13.5719C97.2428 13.5504 97.17 13.5504 97.1284 13.5719L96.8162 13.604H96.6601C96.6393 13.6255 96.5664 13.6469 96.4416 13.6683C96.3375 13.6898 96.2542 13.7005 96.1918 13.7005L95.6299 13.7327C95.505 13.7755 95.4217 13.797 95.3801 13.797C95.2552 13.797 95.1512 13.7755 95.0679 13.7327C94.9847 13.6898 94.8286 13.6791 94.5997 13.7005C94.3291 13.7005 94.1522 13.7112 94.0689 13.7327C93.9649 13.7541 93.892 13.7541 93.8504 13.7327H93.6943C93.6527 13.7327 93.6215 13.7219 93.6007 13.7005L93.3509 13.6683C93.2052 13.6683 93.1012 13.6469 93.0387 13.604H92.8826C92.7161 13.604 92.5392 13.529 92.3519 13.3789C92.1854 13.3146 92.0397 13.2717 91.9148 13.2503C91.7692 13.2074 91.6547 13.1538 91.5714 13.0894C91.5506 13.068 91.5402 12.8858 91.5402 12.5427C91.5194 12.3712 91.509 12.1032 91.509 11.7387C91.509 11.5457 91.5194 11.4171 91.5402 11.3528C91.561 11.1812 91.5714 10.9668 91.5714 10.7095C91.5714 9.72328 91.5922 9.06935 91.6339 8.74774C91.6755 7.97588 91.6963 7.58995 91.6963 7.58995L91.7275 7.36482C91.7692 7.23618 91.8004 7.1397 91.8212 7.07538C91.842 7.01106 91.8836 6.95745 91.9461 6.91457C92.0709 6.78593 92.2791 6.71089 92.5704 6.68945L92.8826 6.62513L93.3197 6.59296C93.4029 6.57152 93.4966 6.5608 93.6007 6.5608C93.7047 6.5608 93.788 6.55008 93.8504 6.52864L94.5684 6.49648C94.8182 6.47504 94.9951 6.46432 95.0992 6.46432C95.224 6.44288 95.2969 6.42144 95.3177 6.4L95.2865 6.27136L95.2552 5.91759L95.1928 5.59598C95.172 5.48878 95.1616 5.34941 95.1616 5.17789C95.1616 4.98492 95.172 4.83484 95.1928 4.72764V4.50251C95.1928 4.30955 95.1824 4.21307 95.1616 4.21307C95.1616 4.21307 95.0887 4.19162 94.9431 4.14874C94.9222 4.14874 94.8806 4.14874 94.8182 4.14874C94.7557 4.1273 94.6621 4.11658 94.5372 4.11658H94.1626C94.0377 4.05226 93.9545 4.0201 93.9128 4.0201L93.6007 3.92362C93.455 3.83786 93.3717 3.83786 93.3509 3.92362C93.3509 3.92362 93.2885 4.0737 93.1636 4.37387C93.122 4.63116 93.0387 4.84556 92.9138 5.01709L92.7577 5.56382C92.6745 5.69246 92.6329 5.81039 92.6329 5.91759C92.508 6.11055 92.4247 6.20704 92.3831 6.20704C92.3415 6.18559 92.2791 6.14271 92.1958 6.07839C92.1334 5.99263 92.0917 5.92831 92.0709 5.88543L92.0397 5.82111C92.0397 5.77822 92.0293 5.7675 92.0085 5.78894C91.9877 5.78894 91.9669 5.81039 91.9461 5.85327C91.9044 5.87471 91.8732 5.87471 91.8524 5.85327C91.8316 5.83183 91.7692 5.82111 91.6651 5.82111C91.6027 5.82111 91.5506 5.79966 91.509 5.75678C91.4882 5.69246 91.4778 5.61742 91.4778 5.53166ZM92.9763 10.0342C92.9763 10.3558 92.9867 10.538 93.0075 10.5809C93.0283 10.6238 93.1116 10.6452 93.2572 10.6452L93.7567 10.6131C93.9649 10.6131 94.0793 10.6023 94.1002 10.5809C94.121 10.5595 94.1314 10.5059 94.1314 10.4201C94.1522 10.3129 94.1626 10.1307 94.1626 9.87337C94.1834 9.63752 94.1834 9.40167 94.1626 9.16583C94.121 9.12295 94.0065 9.10151 93.8192 9.10151C93.6735 9.10151 93.5174 9.12295 93.3509 9.16583C93.1636 9.18727 93.0491 9.24087 93.0075 9.32663C92.9867 9.39095 92.9763 9.6268 92.9763 10.0342ZM95.1928 9.26231C95.2136 9.30519 95.224 9.35879 95.224 9.42312C95.224 9.40167 95.2448 9.5196 95.2865 9.77688C95.2865 10.0556 95.2969 10.2057 95.3177 10.2271V10.4201C95.3177 10.5059 95.3385 10.5595 95.3801 10.5809C95.4426 10.6023 95.5674 10.6131 95.7547 10.6131L96.1918 10.6452C96.2959 10.6452 96.3583 10.6238 96.3791 10.5809C96.3999 10.5595 96.4103 10.5273 96.4103 10.4844C96.4103 10.4415 96.4207 10.3987 96.4416 10.3558L96.4728 10.0663C96.556 9.63752 96.5977 9.40167 96.5977 9.35879C96.6393 9.27303 96.6601 9.19799 96.6601 9.13367C96.6809 9.06935 96.6809 9.02647 96.6601 9.00503C96.6393 9.00503 96.5977 9.00503 96.5352 9.00503C96.4936 8.98358 96.4728 8.98358 96.4728 9.00503C96.4728 9.00503 96.4207 9.01575 96.3167 9.03719C96.2126 9.03719 95.9941 9.03719 95.6611 9.03719C95.4113 9.03719 95.2761 9.04791 95.2552 9.06935C95.2136 9.09079 95.1928 9.15511 95.1928 9.26231ZM97.6591 10.7417C97.6591 10.7631 97.6799 10.7953 97.7215 10.8382C97.784 10.8811 97.836 10.9025 97.8776 10.9025C97.9609 10.9025 98.0233 10.9132 98.0649 10.9347C98.2106 11.0204 98.3251 11.0097 98.4083 10.9025C98.5332 10.6667 98.6061 10.4951 98.6269 10.3879C98.6269 10.3665 98.6373 10.3343 98.6581 10.2915C98.6789 10.2486 98.6997 10.2164 98.7205 10.195V10.0342L98.7518 9.71256C98.7934 9.47672 98.7934 9.29447 98.7518 9.16583C98.7309 9.10151 98.6893 9.05863 98.6269 9.03719C98.5644 8.9943 98.4708 8.96214 98.3459 8.9407C98.0129 8.89782 97.8464 8.8871 97.8464 8.90854C97.8256 8.92998 97.8152 9.06935 97.8152 9.32663C97.8152 9.43384 97.8048 9.54104 97.784 9.64824C97.7632 9.734 97.7528 9.7876 97.7528 9.80905L97.6903 10.2593L97.6591 10.6131C97.5967 10.6774 97.5967 10.7203 97.6591 10.7417Z" fill="#4A443D"/>
<path d="M61.3392 19.5538H61.2143C61.1727 19.5752 61.1414 19.5752 61.1206 19.5538C61.0374 19.5109 60.9333 19.4894 60.8084 19.4894H60.7148L60.3402 19.4251C60.2777 19.4037 60.2049 19.393 60.1216 19.393L59.7782 19.4251C59.6742 19.4251 59.6013 19.4251 59.5597 19.4251C59.5181 19.4037 59.4868 19.393 59.466 19.393C59.3828 19.3501 59.2995 19.3286 59.2163 19.3286L59.029 19.2965C58.9873 19.275 58.9353 19.2643 58.8729 19.2643L58.4046 19.1357L58.3109 19.0714L58.0612 19.007L57.5929 18.8784C57.468 18.857 57.3015 18.7926 57.0934 18.6854C57.0518 18.6425 56.9893 18.6104 56.9061 18.5889C56.8645 18.5889 56.8437 18.5675 56.8437 18.5246L56.6563 18.4281C56.5939 18.3853 56.4066 18.203 56.0944 17.8814C55.9903 17.7742 55.9383 17.6563 55.9383 17.5276C55.8967 17.4419 55.8759 17.3668 55.8759 17.3025L55.8447 16.9809C55.8447 16.8737 55.8238 16.7772 55.7822 16.6915C55.7198 16.5199 55.6886 16.4127 55.6886 16.3698L55.6573 16.2412C55.6365 16.1983 55.6261 16.1233 55.6261 16.0161C55.6261 15.9089 55.5949 15.8124 55.5325 15.7266C55.5117 15.6838 55.5117 15.6194 55.5325 15.5337C55.5741 15.4265 55.6469 15.3621 55.751 15.3407L55.8447 15.3085C55.8447 15.2871 55.9383 15.2442 56.1256 15.1799C56.2713 15.137 56.698 15.1049 57.4056 15.0834C57.6762 15.0834 57.8114 15.0727 57.8114 15.0513L58.0612 15.0191C58.8313 14.9762 59.3203 14.9226 59.5285 14.8583L59.6533 14.8261C59.7782 14.8261 59.9447 14.794 60.1528 14.7296C60.1945 14.7082 60.2361 14.6975 60.2777 14.6975C60.3193 14.6975 60.3506 14.6868 60.3714 14.6653L60.6211 14.6332C60.6836 14.6117 60.7876 14.601 60.9333 14.601L61.2143 14.5688C61.2559 14.5474 61.3704 14.5367 61.5577 14.5367C62.0364 14.4938 62.3173 14.4616 62.4006 14.4402L63.5869 14.3759C63.795 14.3759 63.9407 14.3759 64.024 14.3759C64.1072 14.3544 64.1593 14.3437 64.1801 14.3437C64.2217 14.3223 64.5963 14.3116 65.304 14.3116L66.459 14.2794L66.8337 14.3116L67.6766 14.3437C67.9055 14.3437 68.0616 14.3544 68.1449 14.3759C68.2281 14.3759 68.2801 14.3759 68.301 14.3759C68.405 14.3973 68.4675 14.3973 68.4883 14.3759L69.3624 14.3116L69.9556 14.2794H70.4238C70.4446 14.258 70.4967 14.2472 70.5799 14.2472C70.6216 14.2687 70.7776 14.2794 71.0482 14.2794C71.1939 14.3008 71.3604 14.3116 71.5477 14.3116L71.7975 14.3759C72.2345 14.4402 72.734 14.5903 73.296 14.8261C73.5665 14.9548 73.7434 15.1156 73.8267 15.3085C73.8267 15.33 73.8579 15.3729 73.9203 15.4372C73.9828 15.5015 74.0452 15.5873 74.1076 15.6945C74.1701 15.8017 74.2013 15.8874 74.2013 15.9518C74.2637 16.2305 74.3054 16.3913 74.3262 16.4342L74.3886 16.6915C74.3886 16.7772 74.399 16.8308 74.4198 16.8523C74.4615 17.0452 74.4719 17.3025 74.4511 17.6241C74.4511 17.7313 74.4823 17.8814 74.5447 18.0744C74.5655 18.203 74.5343 18.3102 74.4511 18.396C74.4302 18.396 74.4094 18.4067 74.3886 18.4281C74.3678 18.4496 74.3574 18.471 74.3574 18.4925C74.295 18.6425 74.2221 18.6747 74.1389 18.5889C74.1181 18.5889 74.0972 18.5782 74.0764 18.5568C74.0556 18.5353 74.0244 18.5246 73.9828 18.5246L73.8267 18.4281C73.8267 18.4067 73.8059 18.4067 73.7642 18.4281L73.5769 18.4603C73.4937 18.4603 73.4312 18.4817 73.3896 18.5246H73.1086C73.0254 18.5032 72.9109 18.5032 72.7652 18.5246H72.2345C72.1929 18.5246 72.1201 18.5461 72.016 18.5889C71.9327 18.6104 71.8391 18.6211 71.735 18.6211L71.4853 18.6533C71.3396 18.6533 71.2667 18.664 71.2667 18.6854L71.1419 18.7176L70.9546 18.7497C70.8713 18.7926 70.7672 18.8141 70.6424 18.8141H70.4238L69.7682 18.8462L69.5809 18.8784L69.3312 18.9106C69.019 18.9106 68.7901 18.9213 68.6444 18.9427C68.5819 18.9642 68.4883 18.9642 68.3634 18.9427C68.2385 18.9427 68.1449 18.9534 68.0824 18.9749C68.0408 18.9963 67.8639 19.007 67.5517 19.007L67.021 19.0392C66.9169 19.0392 66.8233 19.0178 66.74 18.9749C66.6984 18.9534 66.6255 18.9642 66.5215 19.007C66.4382 19.0499 66.3654 19.0714 66.303 19.0714L65.741 19.1357H65.5849L65.1791 19.1678L65.023 19.2C64.9814 19.1786 64.9189 19.1678 64.8357 19.1678C64.7524 19.1678 64.6692 19.1786 64.5859 19.2C64.5651 19.2 64.5443 19.2107 64.5235 19.2322C64.5027 19.2322 64.4819 19.2214 64.461 19.2C64.4194 19.2 64.3882 19.2107 64.3674 19.2322H64.1801C64.0344 19.2322 63.9303 19.2429 63.8679 19.2643C63.8263 19.2643 63.795 19.2643 63.7742 19.2643C63.7534 19.2858 63.7118 19.2965 63.6494 19.2965L63.4308 19.3286H63.1811C63.1603 19.3072 63.1082 19.2965 63.025 19.2965L62.6504 19.3608C62.5047 19.4251 62.3902 19.4573 62.3069 19.4573C62.2653 19.4573 62.1821 19.4573 62.0572 19.4573C61.9323 19.4358 61.8491 19.4466 61.8074 19.4894C61.7658 19.5109 61.7034 19.5323 61.6201 19.5538C61.5577 19.5752 61.4953 19.5859 61.4328 19.5859L61.3392 19.5538Z" fill="#4A443D"/>
<path d="M46.2168 29.8452C46.0919 29.8452 45.9983 29.8131 45.9358 29.7487L45.7797 29.7166C45.7173 29.7595 45.6548 29.7702 45.5924 29.7487H45.1553C44.7807 29.7487 44.5726 29.738 44.531 29.7166C44.4685 29.6951 44.302 29.6737 44.0315 29.6523C43.5944 29.6308 43.3551 29.6094 43.3134 29.5879L43.1886 29.5558L43.0949 29.5236L42.7515 29.4593L42.3769 29.4271C42.3352 29.4057 42.2416 29.395 42.0959 29.395L41.8462 29.3628C41.8045 29.3199 41.7525 29.2985 41.6901 29.2985L41.4403 29.3307L41.253 29.2342C41.1697 29.1913 41.0969 29.1698 41.0345 29.1698C40.7847 29.1698 40.6182 29.1484 40.535 29.1055C40.535 29.1055 40.4517 29.0734 40.2852 29.009C40.202 29.009 40.1395 28.9876 40.0979 28.9447C40.0563 28.9018 39.9002 28.8804 39.6296 28.8804C39.4631 28.859 39.3487 28.8161 39.2862 28.7518C39.2446 28.7518 39.2134 28.741 39.1926 28.7196C39.1093 28.7196 39.0261 28.6982 38.9428 28.6553C38.8804 28.6124 38.8283 28.591 38.7867 28.591L38.6618 28.5266L38.5057 28.4945L38.4121 28.4623C38.2872 28.4194 38.2144 28.398 38.1936 28.398C38.0479 28.398 37.9334 28.3765 37.8501 28.3337L37.5692 28.1729C37.4859 28.1729 37.4131 28.13 37.3506 28.0442L34.2288 27.2724L33.5107 27.0151C33.4691 26.9936 33.3963 26.9722 33.2922 26.9508C33.209 26.9079 33.1465 26.8864 33.1049 26.8864L32.7303 26.7578C32.4597 26.672 32.2724 26.6077 32.1683 26.5648C32.0851 26.5219 32.0331 26.5005 32.0122 26.5005L31.6688 26.3397L31.1693 26.1146L30.9196 26.0181C30.7739 25.9538 30.5866 25.868 30.3576 25.7608C30.1495 25.6536 29.983 25.5678 29.8581 25.5035L29.6396 25.407C29.5772 25.3856 29.5251 25.3749 29.4835 25.3749C29.4627 25.3749 29.4419 25.3856 29.4211 25.407C29.3795 25.4928 29.3066 25.6536 29.2025 25.8894C29.0985 26.1253 29.0048 26.329 28.9216 26.5005C28.8383 26.5219 28.7759 26.6077 28.7343 26.7578C28.5261 27.1866 28.3805 27.4332 28.2972 27.4975C28.2764 27.4975 28.2452 27.5189 28.2035 27.5618C28.1619 27.6047 28.1203 27.6476 28.0787 27.6905C27.9746 27.862 27.8914 27.9799 27.8289 28.0442C27.7665 28.1085 27.6728 28.1621 27.548 28.205L27.3606 28.2693L27.267 28.3337C27.2254 28.3765 27.1733 28.398 27.1109 28.398C27.0693 28.398 27.038 28.3765 27.0172 28.3337C26.9964 28.3122 26.9652 28.2801 26.9236 28.2372C26.882 28.1943 26.8611 28.1621 26.8611 28.1407L26.705 28.0442L26.549 27.9799C26.1327 27.9799 25.7997 27.9477 25.5499 27.8834C25.3002 27.8191 25.2065 27.6047 25.269 27.2402L25.3939 26.3397C25.3939 26.2111 25.3834 26.1253 25.3626 26.0824C25.3418 26.061 25.3314 26.0074 25.3314 25.9216C25.373 25.8573 25.4251 25.7822 25.4875 25.6965C25.5708 25.6107 25.654 25.5357 25.7373 25.4714C25.8413 25.3642 25.9038 25.2784 25.9246 25.2141L26.2992 24.7638C26.32 24.7424 26.3408 24.7209 26.3616 24.6995C26.3825 24.6566 26.3929 24.6137 26.3929 24.5709L26.549 24.2814C26.5698 24.2814 26.5906 24.2492 26.6114 24.1849C26.6114 24.1206 26.653 24.0563 26.7363 23.992C26.7571 23.9491 26.7883 23.8955 26.8299 23.8312C26.8924 23.7668 26.934 23.7132 26.9548 23.6704C26.9756 23.6489 26.9964 23.6275 27.0172 23.606C27.038 23.5846 27.0485 23.5631 27.0485 23.5417V23.4774L27.1109 23.3166C27.1109 23.2308 27.1317 23.1665 27.1733 23.1236C27.215 23.0807 27.2358 23.0164 27.2358 22.9307C27.2358 22.8663 27.2566 22.802 27.2982 22.7377C27.3398 22.6519 27.3815 22.5876 27.4231 22.5447C27.5063 22.5447 27.548 22.5018 27.548 22.4161C27.548 22.3089 27.5688 22.2124 27.6104 22.1266C27.652 22.1266 27.6936 22.0516 27.7353 21.9015C27.7769 21.8157 27.8185 21.7729 27.8601 21.7729L27.9226 21.6442L27.9538 21.5477L28.0162 21.4191C28.037 21.3333 28.0683 21.2583 28.1099 21.194C28.1515 21.1296 28.1723 21.076 28.1723 21.0332L28.2035 20.8724L28.2348 20.7437C28.3388 20.4864 28.3909 20.3149 28.3909 20.2291L28.4221 20.0362C28.4429 20.0147 28.4533 19.9719 28.4533 19.9075V19.7789L28.4845 19.5859C28.5261 19.2643 28.5574 19.0821 28.5782 19.0392L28.6718 18.9106C28.7967 18.9106 28.9944 18.932 29.265 18.9749C29.5564 19.0178 29.7333 19.0714 29.7957 19.1357C29.8998 19.2429 29.9726 19.3394 30.0142 19.4251C30.0767 19.5752 30.1287 19.7682 30.1703 20.004C30.1703 20.0469 30.1807 20.1005 30.2015 20.1648C30.2432 20.2291 30.264 20.3042 30.264 20.3899C30.2848 20.5186 30.2952 20.7544 30.2952 21.0975C30.2952 21.7407 30.2536 22.2767 30.1703 22.7055L30.0767 23.1558C30.0767 23.1987 30.0871 23.2415 30.1079 23.2844C30.1495 23.3059 30.2015 23.3166 30.264 23.3166L30.4513 23.3487L30.6698 23.3809C30.7115 23.3809 30.7635 23.4023 30.8259 23.4452C30.9092 23.4667 30.982 23.4774 31.0445 23.4774L31.3566 23.5417H31.4503L31.4191 22.609V22.3196C31.4191 22.1052 31.4191 21.9658 31.4191 21.9015C31.4399 21.8157 31.4503 21.7621 31.4503 21.7407C31.4711 21.7193 31.4919 21.4084 31.5127 20.808C31.5127 20.6794 31.5127 20.5936 31.5127 20.5508C31.5335 20.5079 31.544 20.4757 31.544 20.4543L31.6688 19.8111L31.7 19.5216V19.3608L31.7313 19.0392C31.7521 18.8462 31.7625 18.6104 31.7625 18.3317C31.7625 18.0529 31.7521 17.8492 31.7313 17.7206H31.6064C31.5023 17.6992 31.4295 17.7099 31.3879 17.7528C31.263 17.86 31.0861 17.9136 30.8571 17.9136C30.7947 17.8921 30.7115 17.8814 30.6074 17.8814C30.4825 17.8814 30.3889 17.8921 30.3264 17.9136C30.2432 17.935 30.1391 17.9457 30.0142 17.9457C29.7853 17.9457 29.6396 17.9886 29.5772 18.0744H29.4523C29.3274 18.0101 29.1505 17.9672 28.9216 17.9457C28.5886 17.9457 28.4013 17.9243 28.3596 17.8814C28.318 17.7956 28.2035 17.7313 28.0162 17.6884C27.9122 17.6456 27.8601 17.6134 27.8601 17.592C27.8185 17.5705 27.7977 17.4419 27.7977 17.206C27.7769 17.0559 27.7665 16.8951 27.7665 16.7236C27.7457 16.6593 27.7353 16.5199 27.7353 16.3055L27.6728 16.0161C27.6728 15.8874 27.6936 15.7802 27.7353 15.6945C27.9018 15.5229 28.0058 15.4372 28.0475 15.4372L28.2348 15.3729L28.3596 15.3407C28.4013 15.3407 28.4533 15.3085 28.5157 15.2442C28.6406 15.1799 28.7135 15.1477 28.7343 15.1477C28.7759 15.1263 28.8279 15.1156 28.8904 15.1156C28.9736 15.0941 29.0569 15.062 29.1401 15.0191L29.6084 14.8583C29.7333 14.8154 29.8477 14.794 29.9518 14.794C29.9934 14.7725 30.0975 14.7296 30.264 14.6653C30.4721 14.5796 30.6594 14.5367 30.8259 14.5367L31.7 14.2794C31.8665 14.2365 32.1163 14.2044 32.4493 14.1829C32.5534 14.1829 32.6262 14.1615 32.6678 14.1186C32.8135 14.1186 33.0945 14.0972 33.5107 14.0543C33.9894 14.0114 34.5097 14.0328 35.0717 14.1186C35.4047 14.1615 35.7481 14.3223 36.1019 14.601C36.2684 14.6868 36.3516 14.794 36.3516 14.9226C36.3516 14.9655 36.3412 15.0084 36.3204 15.0513C36.3204 15.0727 36.3308 15.1263 36.3516 15.2121C36.3725 15.2549 36.3829 15.3193 36.3829 15.405L36.3204 15.7266C36.3412 15.8982 36.3308 16.0268 36.2892 16.1126V16.3055C36.2892 16.3913 36.2788 16.4663 36.258 16.5307C36.2372 16.5735 36.1851 16.6164 36.1019 16.6593C36.0186 16.7451 35.7481 16.8201 35.2902 16.8844C35.2278 16.8844 35.1653 16.8951 35.1029 16.9166C35.0405 16.938 34.9988 16.9595 34.978 16.9809C34.7491 16.9809 34.6034 17.0023 34.541 17.0452C34.4577 17.0452 34.4057 17.0559 34.3849 17.0774L33.979 17.206L33.8229 17.2382C33.7189 17.2382 33.6564 17.2489 33.6356 17.2704C33.594 17.2918 33.5628 17.324 33.542 17.3668C33.5211 17.3883 33.5107 17.4204 33.5107 17.4633V17.6563C33.5524 17.6563 33.5732 17.8278 33.5732 18.1709C33.594 18.4925 33.6148 18.6533 33.6356 18.6533C33.7813 18.6533 33.8958 18.6425 33.979 18.6211C34.312 18.471 34.5514 18.396 34.6971 18.396C35.1341 18.396 35.4047 18.4174 35.5087 18.4603C35.6128 18.4817 35.6856 18.4925 35.7273 18.4925L36.0395 18.6533C36.0603 18.6747 36.1123 18.7069 36.1956 18.7497C36.2996 18.7712 36.3725 18.7819 36.4141 18.7819C36.5181 18.8677 36.5806 18.932 36.6014 18.9749C36.6222 19.0178 36.6326 19.0714 36.6326 19.1357C36.6326 19.1786 36.6222 19.2214 36.6014 19.2643C36.6014 19.2429 36.6222 19.3179 36.6638 19.4894C36.7055 19.6181 36.7159 19.7039 36.6951 19.7467L36.6638 20.0362C36.6638 20.2077 36.6534 20.3042 36.6326 20.3256V20.6472C36.6326 20.733 36.6222 20.7973 36.6014 20.8402C36.6014 20.8831 36.6014 20.926 36.6014 20.9688L36.5077 21.0975C36.3621 21.2476 36.206 21.3333 36.0395 21.3548C35.8938 21.3762 35.7689 21.4405 35.6648 21.5477C35.6232 21.5906 35.5712 21.6121 35.5087 21.6121C35.0925 21.6978 34.8219 21.7621 34.6971 21.805C34.6762 21.8265 34.6242 21.8372 34.541 21.8372L34.4473 21.8693C34.4265 21.8693 34.3224 21.9015 34.1351 21.9658C33.9686 22.0087 33.8541 22.0302 33.7917 22.0302C33.5628 22.0302 33.4275 22.0623 33.3859 22.1266C33.3651 22.1481 33.3442 22.2124 33.3234 22.3196C33.3026 22.4268 33.2922 22.5126 33.2922 22.5769L33.261 23.1236L33.2298 23.606V23.6704C33.2298 23.7132 33.261 23.7454 33.3234 23.7668C33.4067 23.7668 33.4795 23.7776 33.542 23.799C33.6668 23.8204 34.0415 23.9598 34.6658 24.2171C34.7075 24.2385 34.7595 24.2492 34.8219 24.2492C34.8844 24.2492 34.9364 24.26 34.978 24.2814L35.1966 24.3136L35.4775 24.3457L36.2892 24.4744L36.4765 24.5065C36.5181 24.5494 36.5806 24.5709 36.6638 24.5709C36.6846 24.5923 36.7159 24.603 36.7575 24.603C36.8199 24.603 36.8824 24.6245 36.9448 24.6673H37.1946C37.5484 24.7317 37.9542 24.7638 38.4121 24.7638C38.4745 24.7638 38.5266 24.7745 38.5682 24.796C38.6098 24.796 38.641 24.7853 38.6618 24.7638L38.7243 24.6995L38.6931 24.41C38.6931 24.2385 38.6827 24.142 38.6618 24.1206C38.6618 24.0348 38.6514 23.9812 38.6306 23.9598C38.6306 23.8097 38.5994 23.724 38.537 23.7025L38.5057 23.3809C38.5057 23.2308 38.4953 23.1451 38.4745 23.1236V22.995C38.4953 22.9521 38.5266 22.9092 38.5682 22.8663C38.6306 22.802 38.6931 22.7591 38.7555 22.7377L38.9116 22.7055L39.0052 22.609L39.0989 22.4804L39.1613 22.4161C39.1613 22.4161 39.1822 22.3946 39.2238 22.3518L39.3174 22.2231L39.4735 22.1266C39.5152 22.0623 39.5776 21.998 39.6608 21.9337C39.7441 21.8479 39.8169 21.7836 39.8794 21.7407C39.9626 21.6549 40.0042 21.6121 40.0042 21.6121L40.1291 21.5156C40.2332 21.4727 40.2956 21.3977 40.3164 21.2905C40.3372 21.2047 40.4621 21.076 40.6911 20.9045L40.8159 20.8402L40.972 20.6794C40.9928 20.6365 41.0241 20.5936 41.0657 20.5508C41.1281 20.4864 41.1906 20.4114 41.253 20.3256C41.4403 20.0683 41.534 19.929 41.534 19.9075L41.0969 19.6824C41.0969 19.661 41.0865 19.6503 41.0657 19.6503C41.0449 19.6503 41.0345 19.6395 41.0345 19.6181C40.972 19.5966 40.92 19.468 40.8784 19.2322C40.8784 19.125 40.868 19.0606 40.8472 19.0392C40.8472 18.9963 40.8472 18.9642 40.8472 18.9427L40.6911 18.9106H40.535C40.4933 18.8677 40.4725 18.6961 40.4725 18.396C40.4725 18.0315 40.4829 17.6992 40.5037 17.399C40.5037 17.1203 40.4933 16.9273 40.4725 16.8201C40.4725 16.6915 40.4517 16.6057 40.4101 16.5628C40.3685 16.4556 40.3477 16.327 40.3477 16.1769C40.4309 15.8767 40.4725 15.598 40.4725 15.3407L40.535 14.5688L40.5662 14.0221L40.5974 13.4432L40.6286 13.0251L40.6911 12.0281L40.7223 11.6744C40.7639 11.3528 40.8055 11.1491 40.8472 11.0633C40.868 10.9347 40.868 10.806 40.8472 10.6774C40.8472 10.5273 40.8576 10.3879 40.8784 10.2593L40.9096 10.0342C40.9304 9.99129 40.9408 9.90553 40.9408 9.77688C40.9616 9.56248 41.0241 9.34807 41.1281 9.13367C41.1489 9.11223 41.201 9.09079 41.2842 9.06935C41.4507 9.06935 41.5756 9.02647 41.6588 8.9407L42.0022 8.84422L42.1896 8.74774C42.2312 8.70486 42.252 8.60838 42.252 8.45829C42.252 8.22245 42.2728 8.06164 42.3144 7.97588L42.3769 7.81508C42.3769 7.77219 42.3352 7.75075 42.252 7.75075L41.8462 7.78291L41.6588 7.75075C41.5132 7.75075 41.3779 7.78291 41.253 7.84724C41.1906 7.84724 41.1281 7.8258 41.0657 7.78291C40.92 7.71859 40.7847 7.68643 40.6598 7.68643H40.5037L40.3477 7.55779C40.202 7.45059 40.0979 7.39698 40.0355 7.39698C39.973 7.37554 39.8898 7.3541 39.7857 7.33266C39.7025 7.28978 39.6296 7.2469 39.5672 7.20402C39.5464 7.20402 39.536 7.17186 39.536 7.10754V6.75377C39.536 5.98191 39.5568 5.51022 39.5984 5.33869C39.6192 5.29581 39.6296 5.24221 39.6296 5.17789C39.6296 5.00637 39.6608 4.88844 39.7233 4.82412C39.8065 4.73836 39.9522 4.67404 40.1603 4.63116L40.4101 4.56683L40.5974 4.53467H40.8159C40.8159 4.53467 40.92 4.51323 41.1281 4.47035C41.2114 4.44891 41.305 4.43819 41.4091 4.43819C41.5756 4.37387 41.7109 4.34171 41.8149 4.34171H41.9398C42.1896 4.34171 42.3769 4.33099 42.5017 4.30955L42.97 4.27739C43.0741 4.25595 43.199 4.24523 43.3447 4.24523C43.5736 4.20235 43.8337 4.1809 44.1251 4.1809C44.4373 4.15946 44.7079 4.15946 44.9368 4.1809C45.4571 4.30955 45.6965 4.36315 45.6548 4.34171C45.967 4.42747 46.2168 4.52395 46.4041 4.63116C46.7163 4.867 46.8932 5.04925 46.9348 5.17789C46.9556 5.28509 46.9556 5.37085 46.9348 5.43518C46.914 5.47806 46.914 5.54238 46.9348 5.62814C46.9764 5.77822 46.9868 5.89615 46.966 5.98191L46.9036 6.49648C46.8412 6.51792 46.8099 6.61441 46.8099 6.78593V6.97889C46.7891 7.02178 46.7371 7.07538 46.6538 7.1397C46.5914 7.18258 46.5186 7.20402 46.4353 7.20402L46.1856 7.23618H45.8109L45.53 7.26834C45.4467 7.26834 45.3323 7.28978 45.1866 7.33266C45.0617 7.3541 44.9888 7.37554 44.968 7.39698C44.9472 7.39698 44.9264 7.40771 44.9056 7.42915C44.9056 7.42915 44.8952 7.42915 44.8744 7.42915C44.8119 7.38626 44.7287 7.38626 44.6246 7.42915H44.4373C44.0835 7.47203 43.8962 7.50419 43.8754 7.52563C43.8129 7.54707 43.7817 7.58995 43.7817 7.65427L43.6881 8.49045V8.58693L44.2812 8.55477H44.4685L44.9056 8.58693C44.9264 8.60838 44.968 8.6191 45.0305 8.6191C45.3427 8.68342 45.6028 8.79062 45.8109 8.9407C45.8942 9.00503 45.9878 9.06935 46.0919 9.13367C46.2168 9.19799 46.2896 9.24087 46.3104 9.26231C46.4353 9.43384 46.5082 9.64824 46.529 9.90553L46.5602 10.1628C46.6018 10.2271 46.6226 10.3129 46.6226 10.4201V10.6131C46.6434 10.6988 46.6643 11.0955 46.6851 11.803C46.7267 12.4891 46.7475 13.1966 46.7475 13.9256C46.7475 14.9977 46.7163 15.5873 46.6538 15.6945V16.0804C46.6538 16.2734 46.6434 16.3806 46.6226 16.402V16.6915C46.581 17.0559 46.529 17.3776 46.4665 17.6563C46.4457 17.7206 46.4353 17.7849 46.4353 17.8492C46.4561 17.9136 46.4769 17.9564 46.4978 17.9779C46.5394 18.0851 46.5498 18.1494 46.529 18.1709L46.4665 18.8141C46.4873 18.8784 46.4769 18.9106 46.4353 18.9106C46.3937 18.9534 46.3625 18.9749 46.3417 18.9749L46.1543 19.0392C46.0503 19.125 45.9878 19.1893 45.967 19.2322C45.967 19.2536 46.0191 19.2858 46.1231 19.3286L46.3417 19.4573L47.0597 19.9075C47.3511 20.1648 47.7257 20.4328 48.1836 20.7116C48.246 20.7544 48.3188 20.7973 48.4021 20.8402C48.4853 20.8831 48.5478 20.9152 48.5894 20.9367C48.7351 21.001 48.8392 21.0653 48.9016 21.1296C48.9848 21.1725 49.0681 21.2476 49.1513 21.3548C49.2138 21.4191 49.2762 21.5263 49.3387 21.6764C49.3803 21.7407 49.4011 21.8265 49.4011 21.9337L49.4323 22.2231C49.4531 22.3089 49.4635 22.5018 49.4635 22.802C49.4635 23.5095 49.4427 23.9491 49.4011 24.1206C49.3595 24.1635 49.3387 24.2171 49.3387 24.2814C49.3595 24.3457 49.3803 24.3993 49.4011 24.4422C49.4219 24.4851 49.4323 24.5387 49.4323 24.603C49.4323 24.7317 49.2866 24.9461 48.9953 25.2462C48.9328 25.2891 48.8496 25.3106 48.7455 25.3106C48.6831 25.3106 48.631 25.3106 48.5894 25.3106C48.5686 25.2891 48.5374 25.257 48.4958 25.2141L48.2772 25.0854C48.2772 25.064 48.2356 25.0318 48.1523 24.9889L47.9026 24.8925C47.5904 24.7638 47.4343 24.6995 47.4343 24.6995C47.3094 24.6781 47.2262 24.6566 47.1846 24.6352C47.1429 24.5923 47.1117 24.5601 47.0909 24.5387C46.7579 24.3672 46.4873 24.0884 46.2792 23.7025L46.1543 23.4774C46.0711 23.3916 46.0295 23.3487 46.0295 23.3487L45.7485 23.0271L45.4988 22.6734L45.2802 22.4161C45.2386 22.4161 45.197 22.4054 45.1553 22.3839C45.1345 22.341 45.1241 22.3089 45.1241 22.2874L44.0939 21.2583C44.0107 21.1725 43.9586 21.1082 43.9378 21.0653C43.917 21.0224 43.8962 20.9903 43.8754 20.9688C43.8337 20.926 43.8025 20.8509 43.7817 20.7437C43.7401 20.6151 43.6777 20.4864 43.5944 20.3578C43.532 20.2291 43.4487 20.0362 43.3447 19.7789C43.3238 19.7146 43.2926 19.6824 43.251 19.6824C43.2094 19.6824 43.1573 19.7253 43.0949 19.8111C43.0533 19.8968 43.0325 19.9826 43.0325 20.0683V20.3256L42.8764 20.9045C42.7931 21.0975 42.7203 21.2261 42.6578 21.2905C42.6162 21.3762 42.5746 21.4513 42.533 21.5156C42.4913 21.5799 42.4705 21.6228 42.4705 21.6442C42.3873 21.73 42.3248 21.8265 42.2832 21.9337L42.0647 22.3839L41.9398 22.7055C41.9398 22.727 41.8878 22.7913 41.7837 22.8985L41.5964 23.1236L40.9408 23.992L40.6911 24.1849L40.4101 24.41L39.973 24.7638C39.973 24.7853 40.0251 24.8067 40.1291 24.8281C40.2332 24.8281 40.3997 24.8281 40.6286 24.8281H41.4403C41.6276 24.8496 41.7421 24.8389 41.7837 24.796H42.0959L43.0325 24.7638H44.1563C44.6558 24.7853 45.0201 24.8174 45.249 24.8603C45.6028 24.8817 46.1543 25.064 46.9036 25.407L47.247 25.5678L47.4655 25.7286C47.5488 25.8144 47.6216 25.868 47.6841 25.8894C48.0171 26.1253 48.194 26.3397 48.2148 26.5327C48.2356 26.6184 48.246 26.7578 48.246 26.9508C48.2252 27.0151 48.2148 27.0794 48.2148 27.1437C48.2356 27.1866 48.246 27.2188 48.246 27.2402L48.1523 27.7548C48.1107 27.8405 48.0795 27.9263 48.0587 28.0121C48.0587 28.0978 48.0691 28.2372 48.0899 28.4302C48.1107 28.5588 48.1107 28.6553 48.0899 28.7196C48.0691 28.741 48.0275 28.8054 47.965 28.9126L47.8714 29.1698C47.8089 29.2342 47.7777 29.2771 47.7777 29.2985C47.7569 29.3628 47.6737 29.4164 47.528 29.4593C47.4655 29.4593 47.4031 29.4915 47.3407 29.5558C47.0909 29.7059 46.7787 29.7809 46.4041 29.7809L46.2792 29.8452H46.2168ZM28.984 13.3146C28.9632 13.2717 28.9528 13.0144 28.9528 12.5427C28.9528 12.071 28.9632 11.8245 28.984 11.803V11.3206C28.984 11.0848 28.9944 10.9454 29.0152 10.9025V10.4844L29.0465 9.93769C29.0465 9.74472 29.0673 9.56248 29.1089 9.39095C29.0881 9.30519 29.0777 9.23015 29.0777 9.16583C29.0985 9.08007 29.1089 9.02647 29.1089 9.00503C29.1505 8.70486 29.1713 8.24389 29.1713 7.62211C29.1921 7.49347 29.1921 7.34338 29.1713 7.17186C29.1713 6.97889 29.1817 6.78593 29.2025 6.59296L29.2338 5.78894L29.2025 5.37085V5.27437C29.2025 5.14573 29.2442 5.05997 29.3274 5.01709C29.4107 4.95276 29.5564 4.9206 29.7645 4.9206C29.931 4.9206 30.0142 4.87772 30.0142 4.79196C30.035 4.72764 30.0975 4.67404 30.2015 4.63116C30.3056 4.56683 30.4097 4.52395 30.5137 4.50251C30.5762 4.50251 30.6282 4.48107 30.6698 4.43819C30.6906 4.43819 30.7219 4.43819 30.7635 4.43819C30.8051 4.41675 30.8884 4.40603 31.0132 4.40603L31.4503 4.37387C31.5335 4.33099 31.6688 4.30955 31.8561 4.30955H32.3556L33.0425 4.34171C33.1257 4.36315 33.209 4.37387 33.2922 4.37387C33.3963 4.35243 33.4795 4.34171 33.542 4.34171H33.9166C33.9374 4.36315 33.9686 4.37387 34.0102 4.37387C34.3641 4.48107 34.5722 4.55611 34.6346 4.59899L34.8531 4.72764L34.978 4.79196L35.0717 4.9206C35.259 5.02781 35.3943 5.15645 35.4775 5.30653C35.54 5.45662 35.5816 5.64958 35.6024 5.88543C35.6232 6.09983 35.6336 6.48576 35.6336 7.04322V8.16884C35.6336 8.36181 35.6336 8.59765 35.6336 8.87638C35.6544 9.13367 35.6544 9.466 35.6336 9.87337L35.6024 10.9347C35.5816 11.3206 35.5504 11.6422 35.5087 11.8995C35.4671 12.1568 35.4255 12.3819 35.3839 12.5749L35.2278 13.0894C35.1029 13.2181 34.9988 13.2824 34.9156 13.2824C34.7907 13.2824 34.6866 13.2395 34.6034 13.1538C34.5201 13.1538 34.4577 13.143 34.4161 13.1216C34.3328 13.1002 34.2808 13.1002 34.26 13.1216C34.1976 13.143 34.1039 13.1752 33.979 13.2181C33.875 13.261 33.7917 13.2931 33.7293 13.3146C33.6668 13.3146 33.6252 13.3253 33.6044 13.3467C33.5211 13.4325 33.4067 13.4754 33.261 13.4754L32.9176 13.5397C32.8968 13.5611 32.8656 13.5719 32.8239 13.5719C32.8031 13.5719 32.7719 13.5826 32.7303 13.604C32.647 13.604 32.5326 13.6469 32.3869 13.7327C32.0331 13.8399 31.8145 13.8935 31.7313 13.8935L31.6064 13.9256C31.5648 13.9471 31.4191 13.9685 31.1693 13.9899L30.5137 14.0221C30.2848 14.0221 30.1391 14.0007 30.0767 13.9578C30.035 13.9578 29.9934 13.9363 29.9518 13.8935C29.6812 13.8506 29.4627 13.797 29.2962 13.7327L29.1401 13.6362C29.0777 13.5933 29.036 13.5504 29.0152 13.5075C29.0152 13.4647 29.0152 13.4325 29.0152 13.4111L28.984 13.3146ZM30.8884 7.23618C30.8884 7.64355 30.8988 7.8794 30.9196 7.94372C30.9196 8.00804 30.9196 8.05092 30.9196 8.07236C30.9404 8.0938 30.9612 8.10452 30.982 8.10452L31.0445 8.07236L31.263 8.0402C31.2838 8.0402 31.3879 8.00804 31.5752 7.94372L31.8249 7.91156L31.981 7.8794C32.0018 7.8794 32.0331 7.86868 32.0747 7.84724C32.1371 7.8258 32.1996 7.81508 32.262 7.81508L32.5117 7.71859C32.6366 7.67571 32.8031 7.65427 33.0112 7.65427H33.2298C33.2922 7.61139 33.3442 7.61139 33.3859 7.65427C33.4899 7.65427 33.5524 7.64355 33.5732 7.62211C33.6772 7.62211 33.7293 7.61139 33.7293 7.58995C33.7501 7.56851 33.7605 7.52563 33.7605 7.46131C33.7397 7.43987 33.7293 7.39698 33.7293 7.33266C33.7293 7.28978 33.7085 7.25762 33.6668 7.23618C33.646 7.1933 33.6148 7.17186 33.5732 7.17186C33.5316 7.15042 33.5003 7.1397 33.4795 7.1397C33.4379 7.1397 33.4067 7.1397 33.3859 7.1397C33.3651 7.11826 33.3442 7.10754 33.3234 7.10754H33.1049L32.7615 7.07538H32.6366L32.5117 7.10754C32.4077 7.10754 32.2932 7.09682 32.1683 7.07538C32.0643 7.0325 31.981 7.02178 31.9186 7.04322C31.877 7.04322 31.8041 7.0325 31.7 7.01106C31.596 6.98961 31.5335 6.98961 31.5127 7.01106C31.4919 6.98961 31.4295 6.97889 31.3254 6.97889C31.034 6.97889 30.8884 7.06466 30.8884 7.23618ZM31.0132 10.9668C31.0132 10.9883 31.0236 10.999 31.0445 10.999C31.1485 10.999 31.2214 10.9883 31.263 10.9668L31.7 10.8704C31.7417 10.8489 31.7833 10.8382 31.8249 10.8382C31.8874 10.8382 31.929 10.8275 31.9498 10.806L32.3556 10.7739C32.4597 10.7095 32.5534 10.6774 32.6366 10.6774C32.6782 10.6345 32.8968 10.6131 33.2922 10.6131C33.3546 10.5916 33.4171 10.6023 33.4795 10.6452C33.5836 10.7095 33.6356 10.6988 33.6356 10.6131C33.6356 10.6131 33.6356 10.5702 33.6356 10.4844C33.6564 10.3772 33.6564 10.2486 33.6356 10.0985L33.6044 9.61608C33.6252 9.55176 33.6252 9.50888 33.6044 9.48744C33.6044 9.466 33.594 9.45528 33.5732 9.45528C33.5524 9.43384 33.5211 9.42312 33.4795 9.42312C33.4171 9.42312 33.3442 9.44456 33.261 9.48744C33.1986 9.50888 33.1569 9.53032 33.1361 9.55176L33.0425 9.58392C32.9592 9.58392 32.8551 9.60536 32.7303 9.64824C32.6678 9.66968 32.5013 9.71256 32.2308 9.77688C32.1267 9.79832 32.0018 9.81977 31.8561 9.84121C31.7105 9.86265 31.5648 9.87337 31.4191 9.87337H31.0132C30.9924 10.002 30.982 10.1843 30.982 10.4201C30.982 10.6559 30.9924 10.8382 31.0132 10.9668ZM42.1271 17.3668C42.1271 17.5812 42.1375 17.6992 42.1583 17.7206L42.6266 17.6241L42.8764 17.592C42.8972 17.5705 42.97 17.5598 43.0949 17.5598L43.3447 17.5276C43.4279 17.5062 43.5736 17.4955 43.7817 17.4955C43.8442 17.474 43.9586 17.4633 44.1251 17.4633C44.2084 17.4204 44.3541 17.399 44.5622 17.399L44.9368 17.3668C44.9576 17.3454 44.9576 17.3025 44.9368 17.2382C44.9368 17.1739 44.9472 17.0559 44.968 16.8844L44.9993 16.1126C44.9784 16.0697 44.9472 16.0697 44.9056 16.1126H44.7807C44.7391 16.134 44.6871 16.1447 44.6246 16.1447C44.583 16.1447 44.5518 16.1554 44.531 16.1769L44.3749 16.209C44.3124 16.2305 44.2292 16.2519 44.1251 16.2734C44.0211 16.2948 43.9378 16.3162 43.8754 16.3377C43.8754 16.3377 43.6881 16.3806 43.3134 16.4663L43.0949 16.5307L42.9076 16.5628H42.6891C42.6682 16.5843 42.5746 16.595 42.4081 16.595L42.2208 16.6271C42.1792 16.6271 42.1583 16.7343 42.1583 16.9487L42.1271 17.2382V17.3668ZM42.1583 12.0281C42.1583 12.0925 42.1687 12.1461 42.1896 12.1889C42.2104 12.2318 42.2312 12.264 42.252 12.2854L42.3769 12.2533C42.6682 12.1675 42.8556 12.1246 42.9388 12.1246C43.0637 12.1246 43.1677 12.1032 43.251 12.0603L43.6568 12.0281C43.8025 12.0281 43.8754 12.0174 43.8754 11.996C44.0002 11.9317 44.2708 11.8995 44.6871 11.8995C44.9368 11.8995 45.0721 11.8888 45.0929 11.8673V11.7709C45.0929 11.5564 45.0825 11.4385 45.0617 11.4171C45.0617 11.3956 45.0201 11.3635 44.9368 11.3206L44.8119 11.2884C44.7703 11.267 44.7287 11.2563 44.6871 11.2563C44.6454 11.2348 44.6142 11.2348 44.5934 11.2563H44.2188L43.8129 11.3206C43.7921 11.342 43.6464 11.3528 43.3759 11.3528C43.3134 11.3742 43.2406 11.3849 43.1573 11.3849C43.0949 11.3849 43.0429 11.3956 43.0012 11.4171C42.9596 11.4171 42.8556 11.4385 42.6891 11.4814C42.6058 11.4814 42.533 11.4921 42.4705 11.5136C42.4081 11.535 42.3352 11.5886 42.252 11.6744C42.2312 11.6958 42.2104 11.7494 42.1896 11.8352C42.1687 11.8995 42.1583 11.9638 42.1583 12.0281ZM42.252 14.4402C42.2728 14.4616 42.2936 14.4724 42.3144 14.4724C42.3352 14.4509 42.3769 14.4402 42.4393 14.4402L42.8139 14.408C42.8556 14.3866 42.8972 14.3759 42.9388 14.3759C42.9804 14.3544 43.0117 14.333 43.0325 14.3116C43.1365 14.3116 43.2302 14.3008 43.3134 14.2794C43.584 14.2794 43.7505 14.2687 43.8129 14.2472C43.8337 14.2472 43.8546 14.2365 43.8754 14.2151C43.8962 14.1936 43.9378 14.1829 44.0002 14.1829H44.4061C44.4893 14.1615 44.6142 14.1508 44.7807 14.1508C44.9472 14.1293 45.0305 14.1079 45.0305 14.0864C45.0513 14.065 45.0617 13.9899 45.0617 13.8613C45.0617 13.7755 45.0513 13.7112 45.0305 13.6683C45.0097 13.6255 44.968 13.6147 44.9056 13.6362C44.864 13.6362 44.8327 13.6255 44.8119 13.604C44.7703 13.5611 44.6975 13.5397 44.5934 13.5397C44.5726 13.5183 44.5414 13.5075 44.4997 13.5075C44.6246 13.5075 44.4789 13.5504 44.0627 13.6362C43.6464 13.7219 43.3863 13.7755 43.2822 13.797L43.0949 13.8291C43.0117 13.8291 42.9492 13.8399 42.9076 13.8613L42.6578 13.8935H42.2832C42.2624 13.9149 42.2416 13.9899 42.2208 14.1186C42.2208 14.2472 42.2312 14.3544 42.252 14.4402Z" fill="#4A443D"/>
<path d="M16.8274 27.7226C16.8066 27.7012 16.7234 27.6905 16.5777 27.6905C16.3487 27.6905 16.151 27.6583 15.9845 27.594C15.9221 27.5725 15.8492 27.5618 15.766 27.5618L15.6099 27.4975C15.5058 27.4332 15.2353 27.3903 14.7982 27.3688C14.5901 27.3688 14.4652 27.3581 14.4236 27.3367C14.4028 27.3152 14.3611 27.3045 14.2987 27.3045H14.0802C14.0385 27.326 13.8929 27.3367 13.6431 27.3367C13.6223 27.3367 13.5495 27.3152 13.4246 27.2724L13.2997 27.1759H12.769C12.6441 27.1544 12.4464 27.1437 12.1758 27.1437C11.9261 27.1223 11.7284 27.1116 11.5827 27.1116C11.5619 27.133 11.4474 27.1437 11.2393 27.1437C11.0103 27.1437 10.8438 27.133 10.7398 27.1116L10.5524 27.0472H10.1154C10.0946 27.0687 10.0634 27.0794 10.0217 27.0794C9.9801 27.0794 9.94888 27.0901 9.92807 27.1116L9.6471 27.1437C9.58467 27.1437 9.53263 27.1544 9.49101 27.1759C9.44938 27.1973 9.40776 27.2295 9.36613 27.2724C9.15801 27.401 9.01232 27.4653 8.92907 27.4653C8.86663 27.4653 8.79379 27.4439 8.71054 27.401L8.55445 27.3688C8.4712 27.3688 8.39835 27.3581 8.33591 27.3367C8.06535 27.2938 7.85723 27.2724 7.71154 27.2724C7.6491 27.2724 7.57626 27.2616 7.49301 27.2402C7.43057 27.2188 7.36813 27.208 7.30569 27.208L6.99351 27.1759C6.91026 27.1759 6.85822 27.1652 6.83741 27.1437H6.55644L6.33791 27.1759C6.29629 27.1973 6.25466 27.1973 6.21304 27.1759H6.08816C5.92166 27.1759 5.75516 27.208 5.58866 27.2724L5.08916 27.3367H4.96429L4.40235 27.3688C4.25666 27.4117 4.06935 27.4117 3.84041 27.3688H3.62188C3.53863 27.3688 3.4866 27.3581 3.46578 27.3367C3.44497 27.3367 3.34091 27.3367 3.1536 27.3367C2.9871 27.3152 2.84141 27.3152 2.71653 27.3367L2.52922 27.3045C2.40435 27.2616 2.30028 27.2188 2.21703 27.1759C2.1546 27.133 2.09216 27.0687 2.02972 26.9829C1.92566 26.8543 1.72794 26.7685 1.43656 26.7256L1.12438 26.6291L0.874625 26.5648C0.812188 26.5648 0.770563 26.5541 0.74975 26.5327C0.687313 26.5112 0.645688 26.4791 0.624875 26.4362C0.604063 26.3933 0.604063 26.2968 0.624875 26.1467V25.6643C0.604063 25.4928 0.604063 25.3749 0.624875 25.3106C0.6665 25.2248 0.6665 25.1605 0.624875 25.1176V24.9246L0.593656 24.6995C0.572844 24.6566 0.562438 24.5387 0.562438 24.3457C0.562438 24.1313 0.552031 24.0027 0.531219 23.9598V23.7347C0.572844 23.5846 0.58325 23.4667 0.562438 23.3809L0.5 23.0271C0.5 22.8771 0.6665 22.7377 0.9995 22.609L1.21803 22.5447C1.28047 22.4804 1.36372 22.4482 1.46778 22.4482C1.46778 22.4482 1.56144 22.4161 1.74875 22.3518C1.93606 22.2874 2.02972 22.2553 2.02972 22.2553L2.27947 22.2231C2.38353 22.1588 2.47719 22.1266 2.56044 22.1266C2.68531 22.1266 2.76856 22.1159 2.81019 22.0945L3.34091 21.998C3.4866 21.998 3.60107 21.9765 3.68432 21.9337L4.05894 21.8693C4.20463 21.8693 4.30869 21.8586 4.37113 21.8372L4.58966 21.805L4.9955 21.7407L5.37013 21.7085H5.58866C5.8176 21.7085 5.96329 21.6978 6.02572 21.6764C6.08816 21.6335 6.36913 21.6013 6.86863 21.5799C7.18082 21.5585 7.38894 21.537 7.49301 21.5156C7.61788 21.4941 7.69073 21.462 7.71154 21.4191C7.71154 21.3977 7.71154 21.3226 7.71154 21.194C7.73235 21.0439 7.74276 20.7652 7.74276 20.3578V19.393L7.68032 19.3608C7.65951 19.3394 7.60748 19.3286 7.52423 19.3286C7.4826 19.3501 7.38894 19.3608 7.24326 19.3608C7.11838 19.3608 7.03513 19.3715 6.99351 19.393H6.74376C6.61888 19.393 6.53563 19.4037 6.49401 19.4251C6.38994 19.4251 6.3171 19.4144 6.27547 19.393C6.19222 19.393 6.11938 19.3822 6.05694 19.3608L5.74476 19.2965L5.33891 19.2643C5.19322 19.2643 5.10997 19.2536 5.08916 19.2322L4.90185 19.2C4.88104 19.1786 4.84982 19.1678 4.80819 19.1678C4.76657 19.1678 4.73535 19.1571 4.71454 19.1357C4.69372 19.1142 4.6625 19.1035 4.62088 19.1035C4.60007 19.1035 4.57925 19.0928 4.55844 19.0714C4.45438 19.0714 4.39194 18.9963 4.37113 18.8462C4.37113 18.7605 4.33991 18.7069 4.27747 18.6854L4.18382 18.4925C4.163 18.4281 4.14219 18.3853 4.12138 18.3638C4.10057 18.3209 4.09016 18.2888 4.09016 18.2673C4.06935 18.2459 4.05894 18.1923 4.05894 18.1065C4.01732 17.9779 3.9861 17.9028 3.96528 17.8814C3.96528 17.8171 3.94447 17.742 3.90285 17.6563C3.90285 17.5705 3.88203 17.5062 3.84041 17.4633C3.77797 17.3776 3.71553 17.206 3.6531 16.9487C3.6531 16.863 3.64269 16.8094 3.62188 16.7879C3.55944 16.6807 3.52822 16.5735 3.52822 16.4663C3.52822 16.3377 3.51782 16.2626 3.497 16.2412C3.47619 16.1983 3.46578 16.1233 3.46578 16.0161C3.46578 15.866 3.50741 15.7374 3.59066 15.6302C3.6531 15.5444 3.73635 15.4908 3.84041 15.4693C3.90285 15.4693 3.95488 15.4586 3.9965 15.4372L4.24625 15.405C4.39194 15.405 4.4856 15.3943 4.52722 15.3729C4.6521 15.3729 4.75616 15.3621 4.83941 15.3407L5.12038 15.3085L5.6511 15.2764H6.02572C6.04654 15.2764 6.08816 15.2764 6.1506 15.2764C6.23385 15.2549 6.36913 15.2442 6.55644 15.2442C6.68132 15.2228 6.80619 15.2121 6.93107 15.2121C7.07676 15.2121 7.19123 15.2013 7.27448 15.1799H7.61788C7.68032 15.1799 7.72194 15.1799 7.74276 15.1799C7.78438 15.1585 7.8156 15.1477 7.83641 15.1477C7.87804 15.062 7.89885 14.8369 7.89885 14.4724C7.89885 14.0864 7.90926 13.7541 7.93007 13.4754C7.95088 13.3896 7.95088 13.3253 7.93007 13.2824C7.93007 13.2395 7.91966 13.2181 7.89885 13.2181C7.85723 13.1752 7.57626 13.1645 7.05594 13.1859C6.93107 13.2074 6.8166 13.2181 6.71254 13.2181C6.60847 13.1966 6.54604 13.1859 6.52522 13.1859L6.1506 13.1538C6.06735 13.1323 5.96329 13.1216 5.83841 13.1216C5.79679 13.0787 5.71354 13.0573 5.58866 13.0573L4.9955 12.9286L4.74575 12.8643C4.26707 12.8 3.92366 12.7357 3.71553 12.6714C3.52822 12.6285 3.43457 12.5856 3.43457 12.5427C3.37213 12.4141 3.34091 12.3176 3.34091 12.2533L3.24725 11.9317L3.18482 11.6101L2.9975 11.0955C2.97669 11.0312 2.94547 10.9561 2.90385 10.8704C2.88303 10.7846 2.87263 10.7095 2.87263 10.6452L2.84141 10.4844C2.79978 10.4415 2.77897 10.3343 2.77897 10.1628C2.75816 10.0556 2.72694 9.95913 2.68531 9.87337C2.64369 9.7876 2.62288 9.72328 2.62288 9.6804C2.62288 9.63752 2.64369 9.5732 2.68531 9.48744C2.72694 9.40167 2.8206 9.32663 2.96628 9.26231C3.11197 9.19799 3.26807 9.15511 3.43457 9.13367C3.58025 9.11223 3.78838 9.10151 4.05894 9.10151C4.14219 9.08007 4.23585 9.06935 4.33991 9.06935C4.44397 9.06935 4.53763 9.05863 4.62088 9.03719C4.62088 9.03719 5.09957 9.00503 6.05694 8.9407C6.55644 8.9407 6.95188 8.91926 7.24326 8.87638C7.28488 8.87638 7.34732 8.85494 7.43057 8.81206C7.49301 8.74774 7.52423 8.60838 7.52423 8.39397C7.4826 8.0938 7.42016 7.85796 7.33691 7.68643L7.30569 7.55779L7.27448 7.36482L6.99351 6.43216C6.97269 6.36784 6.97269 6.27136 6.99351 6.14271C6.99351 5.90687 7.01432 5.74606 7.05594 5.6603C7.16001 5.51022 7.27448 5.40302 7.39935 5.33869C7.46179 5.31725 7.54504 5.30653 7.6491 5.30653C7.75316 5.30653 7.83641 5.31725 7.89885 5.33869L8.11738 5.37085C8.20063 5.37085 8.26307 5.38157 8.3047 5.40302L8.61688 5.46734C8.74176 5.51022 8.87704 5.67102 9.02273 5.94975C9.21004 6.31424 9.32451 6.60369 9.36613 6.81809L9.52223 7.3005L9.55345 7.52563L9.61588 7.71859L9.6471 7.91156L9.67832 8.0402L9.70954 8.26533C9.73035 8.52261 9.76157 8.69414 9.8032 8.7799C9.82401 8.80134 9.9697 8.81206 10.2403 8.81206C10.5941 8.79062 10.9687 8.79062 11.3641 8.81206C11.7804 8.81206 12.0926 8.82278 12.3007 8.84422L12.9251 8.9407L13.2997 9.00503C13.5078 9.04791 13.6639 9.10151 13.768 9.16583C14.101 9.25159 14.2987 9.33735 14.3611 9.42312C14.4028 9.42312 14.4444 9.48744 14.486 9.61608C14.5276 9.65896 14.5485 9.71256 14.5485 9.77688C14.5276 9.81977 14.5589 9.90553 14.6421 10.0342L14.7045 10.195C14.7462 10.2807 14.767 10.4308 14.767 10.6452L14.7982 10.9347C14.819 10.9776 14.8294 11.0526 14.8294 11.1598C14.8294 11.2456 14.8502 11.3528 14.8919 11.4814C14.9543 11.6958 14.9439 11.8566 14.8606 11.9638C14.8398 12.0067 14.7462 12.0817 14.5797 12.1889C14.3507 12.2747 14.1426 12.3176 13.9553 12.3176C13.6431 12.3605 13.4766 12.3926 13.4558 12.4141L13.2997 12.4462C13.2373 12.4462 13.1956 12.457 13.1748 12.4784C13.154 12.4998 13.102 12.5106 13.0187 12.5106C12.9979 12.532 12.9563 12.5427 12.8939 12.5427C12.8522 12.5427 12.8106 12.5534 12.769 12.5749L12.3944 12.607C12.1862 12.6499 12.0822 12.6714 12.0822 12.6714L12.0197 12.7035C11.9365 12.7035 11.8636 12.7142 11.8012 12.7357L11.3954 12.8C11.3537 12.8214 11.3017 12.8322 11.2393 12.8322C11.1768 12.8322 11.1248 12.8429 11.0832 12.8643C10.7502 12.9286 10.4692 12.9608 10.2403 12.9608C10.0321 12.9608 9.90726 12.9822 9.86563 13.0251V13.5075L9.92807 14.9226C9.92807 15.0084 9.93848 15.062 9.95929 15.0834C10.0009 15.1263 10.2819 15.1585 10.8022 15.1799L11.3017 15.2121L11.489 15.2442C11.8012 15.2442 12.0614 15.2764 12.2695 15.3407L12.5192 15.3729C12.7898 15.4157 12.9667 15.4801 13.0499 15.5658C13.1124 15.5873 13.1644 15.6302 13.206 15.6945C13.2477 15.7374 13.2789 15.791 13.2997 15.8553V15.9839C13.2997 16.0268 13.2997 16.0697 13.2997 16.1126C13.3205 16.134 13.3413 16.1554 13.3621 16.1769L13.4246 16.2734C13.487 16.3591 13.5182 16.4556 13.5182 16.5628C13.5182 16.67 13.539 16.7665 13.5807 16.8523C13.6223 17.0667 13.6431 17.2596 13.6431 17.4312V17.6241L13.7368 17.7849C13.7992 17.9136 13.82 18.0208 13.7992 18.1065C13.7784 18.1709 13.7368 18.2245 13.6743 18.2673C13.6119 18.3102 13.5182 18.3638 13.3934 18.4281C13.3725 18.4496 13.3413 18.4603 13.2997 18.4603C13.2789 18.4603 13.2581 18.471 13.2373 18.4925C13.1748 18.4925 13.1332 18.5032 13.1124 18.5246C13.0916 18.5461 13.0291 18.5568 12.9251 18.5568C12.7169 18.5782 12.5713 18.6104 12.488 18.6533C12.4464 18.6747 12.3944 18.6854 12.3319 18.6854C12.2695 18.664 12.207 18.664 12.1446 18.6854C12.0197 18.7497 11.8428 18.7819 11.6139 18.7819C11.5723 18.7819 11.5098 18.8033 11.4266 18.8462C11.3849 18.8677 11.3121 18.8784 11.208 18.8784H11.1144C11.0103 18.8784 10.9167 18.8891 10.8334 18.9106L10.5524 18.9749C10.5316 18.9963 10.4692 19.007 10.3651 19.007C10.1986 19.007 10.0946 19.0285 10.0529 19.0714C10.0321 19.0928 10.0217 19.468 10.0217 20.197C10.0217 20.6472 10.0217 20.9581 10.0217 21.1296C10.0425 21.2797 10.0842 21.3655 10.1466 21.3869C10.209 21.4084 10.5837 21.4084 11.2705 21.3869H12.0197L12.3007 21.4191H12.5504C12.5504 21.4191 12.769 21.4405 13.206 21.4834C13.4766 21.4834 13.82 21.5049 14.2363 21.5477C14.6525 21.6121 15.1 21.6228 15.5787 21.5799C15.6827 21.5585 15.8492 21.5477 16.0782 21.5477C16.2239 21.5477 16.3591 21.5692 16.484 21.6121L16.7338 21.6764C16.7962 21.6764 16.869 21.6978 16.9523 21.7407C17.0147 21.7621 17.0876 21.7729 17.1708 21.7729C17.2333 21.7729 17.3061 21.805 17.3894 21.8693C17.4934 21.9122 17.5663 21.9551 17.6079 21.998C17.6287 22.0623 17.7224 22.1052 17.8889 22.1266C17.9721 22.1266 18.0241 22.1588 18.045 22.2231L18.4508 22.4482C18.5757 22.4911 18.6589 22.534 18.7005 22.5769C18.763 22.5983 18.8046 22.6412 18.8254 22.7055L18.8566 22.802L18.9191 22.9307L18.9815 23.3809C18.9815 23.5095 18.9815 23.6168 18.9815 23.7025C19.0023 23.7668 19.0335 23.8419 19.0752 23.9276C19.1168 24.0563 19.1376 24.1528 19.1376 24.2171C19.096 24.3672 19.0752 24.4958 19.0752 24.603C19.096 24.6245 19.1064 24.7317 19.1064 24.9246C19.1064 25.1819 19.0544 25.4178 18.9503 25.6322C18.9503 25.675 18.9399 25.7394 18.9191 25.8251C18.8983 25.9109 18.9087 25.9966 18.9503 26.0824L18.9815 26.3075C18.9815 26.4147 18.9607 26.5327 18.9191 26.6613C18.8983 26.7471 18.8566 26.8328 18.7942 26.9186C18.7526 27.0044 18.711 27.0687 18.6693 27.1116L18.5757 27.2724C18.4924 27.3796 18.3988 27.476 18.2947 27.5618L18.1698 27.6583H17.8576L17.1396 27.6905C17.0355 27.669 16.9731 27.669 16.9523 27.6905L16.8274 27.7226Z" fill="#4A443D"/>
</svg>
