<svg width="152" height="48" viewBox="0 0 152 48" fill="none" xmlns="http://www.w3.org/2000/svg">
<path d="M143.322 47.6406C143.009 47.6406 142.822 47.5938 142.759 47.5C142.697 47.4688 142.603 47.4375 142.478 47.4062C142.353 47.375 142.244 47.3594 142.15 47.3594C142.056 47.3594 141.947 47.3281 141.822 47.2656C141.759 47.2656 141.666 47.2344 141.541 47.1719C141.416 47.1406 141.322 47.1094 141.259 47.0781L140.791 46.8438C140.572 46.7188 140.306 46.5781 139.994 46.4219C139.713 46.2656 139.447 46.1562 139.197 46.0938C138.697 45.8438 138.369 45.6562 138.213 45.5312C138.119 45.4688 137.978 45.3438 137.791 45.1562C137.634 45 137.509 44.875 137.416 44.7812L137.088 43.8438V43.7031C137.056 43.6719 137.025 43.5781 136.994 43.4219C136.963 43.2969 136.947 43.2031 136.947 43.1406C136.884 42.8281 136.853 42.2031 136.853 41.2656V39.5312C136.822 39.1875 136.806 38.7344 136.806 38.1719C136.838 37.8594 136.806 37.7031 136.713 37.7031C136.588 37.7031 136.525 37.8438 136.525 38.125C136.525 38.375 136.478 38.6406 136.384 38.9219C136.291 39.1719 136.197 39.375 136.103 39.5312C136.009 39.6562 135.947 39.75 135.916 39.8125L135.494 40.375L134.463 41.9219L133.9 42.6719C133.838 42.7656 133.759 42.875 133.666 43C133.603 43.0938 133.556 43.1875 133.525 43.2812L133.291 43.4688C133.197 43.7188 132.822 44.1406 132.166 44.7344C131.322 45.4531 130.713 45.9219 130.338 46.1406C130.088 46.2656 129.869 46.3594 129.681 46.4219C129.525 46.5469 129.338 46.625 129.119 46.6562L128.791 46.7031L128.416 46.75C128.291 46.7188 128.181 46.6562 128.088 46.5625C127.931 46.4062 127.759 46.2969 127.572 46.2344C127.416 46.2031 127.306 46.1875 127.244 46.1875C127.025 46.1875 126.916 46.1562 126.916 46.0938C126.884 46.0312 126.869 45.8438 126.869 45.5312C126.9 45.4375 126.916 45.0938 126.916 44.5C126.916 44.1875 126.916 43.9688 126.916 43.8438C126.947 43.75 126.963 43.6875 126.963 43.6562C126.963 43.5312 126.947 43.4375 126.916 43.375C126.853 43.1875 126.869 43.0625 126.963 43C127.056 42.9062 127.197 42.7969 127.384 42.6719C127.572 42.5469 127.775 42.4375 127.994 42.3438L128.463 42.0156L128.791 41.8281C128.822 41.8281 128.869 41.7969 128.931 41.7344C128.994 41.6719 129.072 41.6094 129.166 41.5469L129.588 41.2656C129.619 41.2656 129.728 41.1719 129.916 40.9844L130.525 40.4688C130.65 40.4062 131.072 40.0156 131.791 39.2969L132.822 38.3125C133.009 38.0625 133.213 37.8438 133.431 37.6562C133.431 37.5938 133.275 37.5625 132.963 37.5625C132.713 37.5 132.556 37.4531 132.494 37.4219C132.463 37.3906 132.384 37.3438 132.259 37.2812C132.166 37.1875 132.072 37.125 131.978 37.0938C131.822 37.0625 131.713 37.0312 131.65 37C131.588 36.9375 131.556 36.875 131.556 36.8125C131.556 36.75 131.525 36.6562 131.463 36.5312C131.4 36.5312 131.369 36.5 131.369 36.4375C131.338 36.3438 131.291 36.0781 131.228 35.6406C131.103 35.0156 131.025 34.6719 130.994 34.6094L130.947 34.1406C130.884 33.8281 130.838 33.5938 130.806 33.4375C130.775 33.2812 130.713 33.1562 130.619 33.0625C130.556 32.9375 130.525 32.8125 130.525 32.6875C130.463 32.4062 130.463 31.9062 130.525 31.1875L130.572 30.1094C130.666 29.1719 130.759 28.4844 130.853 28.0469L130.9 27.3906L130.994 26.7812L131.088 25.375C131.119 25.3125 131.134 25.25 131.134 25.1875C131.134 25.0938 131.166 24.9844 131.228 24.8594C131.228 24.5156 131.259 24.2812 131.322 24.1562C131.322 24.0938 131.353 23.9375 131.416 23.6875C131.447 23.4062 131.478 23.2188 131.509 23.125C131.541 23 131.603 22.9219 131.697 22.8906C132.072 22.6719 132.463 22.5 132.869 22.375C133.275 22.2188 133.666 22.1406 134.041 22.1406C134.166 22.0781 134.275 22.0469 134.369 22.0469C134.494 22.0469 134.588 22.0312 134.65 22L135.4 21.9531L135.963 21.9062C135.994 21.875 136.634 21.8906 137.884 21.9531C139.759 22.1406 140.884 22.3438 141.259 22.5625C141.322 22.5625 141.4 22.5938 141.494 22.6562C141.619 22.6875 141.728 22.7188 141.822 22.75L142.197 22.9375C142.353 23.1562 142.478 23.5469 142.572 24.1094C142.603 24.3594 142.619 25.0781 142.619 26.2656C142.619 28.1719 142.634 29.375 142.666 29.875C142.728 32.4375 142.634 34.0469 142.384 34.7031C142.291 35.2031 142.119 35.5938 141.869 35.875C141.806 35.9688 141.759 36.0469 141.728 36.1094C141.697 36.1406 141.666 36.1719 141.634 36.2031C141.634 36.2656 141.619 36.3125 141.588 36.3438C141.556 36.375 141.541 36.4062 141.541 36.4375C141.478 36.5 141.478 36.5625 141.541 36.625C141.603 36.6875 141.634 36.75 141.634 36.8125C141.634 36.8438 141.603 36.8906 141.541 36.9531C141.353 37.0156 141.244 37.0469 141.213 37.0469L140.791 37.3281C140.728 37.3594 140.65 37.375 140.556 37.375C140.494 37.375 140.431 37.3906 140.369 37.4219L139.713 37.4688L139.384 37.5156C139.353 37.5156 139.322 37.5469 139.291 37.6094C139.291 37.6719 139.306 37.75 139.338 37.8438C139.338 37.8125 139.369 37.9531 139.431 38.2656C139.431 38.3594 139.447 38.4375 139.478 38.5C139.509 38.5312 139.525 38.5625 139.525 38.5938C139.525 38.7188 139.556 38.9062 139.619 39.1562C139.681 39.625 139.791 40.0781 139.947 40.5156C140.009 40.6406 140.088 40.7188 140.181 40.75C140.306 40.7812 140.619 40.7969 141.119 40.7969C141.744 40.7969 142.119 40.7812 142.244 40.75C142.463 40.6562 143.072 40.5469 144.072 40.4219C144.322 40.4219 144.509 40.3906 144.634 40.3281C144.697 40.2969 144.806 40.2812 144.963 40.2812L145.103 40.2344C145.166 40.1719 145.525 40.0625 146.181 39.9062C146.463 39.8125 146.619 39.7344 146.65 39.6719C146.775 39.6719 146.9 39.625 147.025 39.5312L147.447 39.3906C147.541 39.2656 147.697 39.2031 147.916 39.2031C148.166 39.2031 148.416 39.2656 148.666 39.3906L149.088 39.4844C149.306 39.4844 149.463 39.5312 149.556 39.625L149.65 39.8125L149.931 39.8594C149.963 39.8594 150.072 39.8906 150.259 39.9531C150.384 40.0781 150.494 40.1406 150.588 40.1406C150.869 40.2969 151.025 40.5312 151.056 40.8438V41.4531C151.056 41.6406 151.056 41.7656 151.056 41.8281C151.088 41.8906 151.103 41.9375 151.103 41.9688C151.166 42.0312 151.166 42.125 151.103 42.25V42.5781C151.103 43.0781 151.056 43.4375 150.963 43.6562C150.963 43.6875 150.931 43.9219 150.869 44.3594V44.7812L150.634 45.25C150.478 45.6562 150.291 45.9844 150.072 46.2344C150.009 46.3281 149.822 46.4531 149.509 46.6094C149.259 46.7656 149.134 46.8594 149.134 46.8906C149.041 47.0156 148.869 47.0938 148.619 47.125C148.619 47.1562 148.541 47.2031 148.384 47.2656L147.916 47.3594C147.759 47.3594 147.65 47.3594 147.588 47.3594C147.525 47.3906 147.478 47.4062 147.447 47.4062L146.978 47.4531C146.666 47.4531 146.478 47.4688 146.416 47.5C146.291 47.5625 146.134 47.5938 145.947 47.5938C145.791 47.625 145.572 47.625 145.291 47.5938H143.978L143.322 47.6406ZM122.463 14.5938C122.463 12.0938 122.525 10.625 122.65 10.1875L122.697 9.53125L122.744 8.73438C122.806 8.48438 122.838 8.25 122.838 8.03125C122.838 7.84375 122.853 7.6875 122.884 7.5625C122.916 7.4375 122.931 7.34375 122.931 7.28125L122.978 6.625C123.009 6.34375 123.009 6.17188 122.978 6.10938C122.884 6.01562 122.838 5.92188 122.838 5.82812C122.806 5.82812 122.791 5.35938 122.791 4.42188C122.791 3.51562 122.775 3.03125 122.744 2.96875C122.713 2.9375 122.697 2.90625 122.697 2.875C122.728 2.8125 122.759 2.76562 122.791 2.73438L123.447 2.64062C123.509 2.57812 123.916 2.57812 124.666 2.64062C124.884 2.67188 125.15 2.6875 125.463 2.6875C125.806 2.6875 126.134 2.70312 126.447 2.73438C127.634 2.73438 128.384 2.75 128.697 2.78125C129.509 2.78125 130.041 2.79688 130.291 2.82812H131.134C131.322 2.85938 131.759 3.04688 132.447 3.39062C132.759 3.57812 132.931 3.71875 132.963 3.8125C132.994 3.875 133.009 3.96875 133.009 4.09375C132.978 4.15625 132.963 4.23438 132.963 4.32812C132.994 4.57812 132.994 4.76562 132.963 4.89062C132.963 4.92188 132.947 4.95312 132.916 4.98438C132.916 5.01562 132.931 5.04688 132.963 5.07812L132.869 5.35938V5.5C132.869 6 132.838 6.28125 132.775 6.34375C132.744 6.375 132.697 6.39062 132.634 6.39062C132.603 6.39062 132.572 6.40625 132.541 6.4375C132.447 6.4375 132.369 6.46875 132.306 6.53125C132.088 6.59375 131.603 6.67188 130.853 6.76562C130.791 6.79688 130.713 6.8125 130.619 6.8125C130.556 6.8125 130.494 6.82812 130.431 6.85938C130.025 6.98438 129.759 7.03125 129.634 7C129.478 7 129.416 7.04688 129.447 7.14062C129.478 7.29688 129.494 7.65625 129.494 8.21875L129.541 8.64062C129.572 8.67188 129.931 8.6875 130.619 8.6875C131.213 8.6875 131.572 8.70312 131.697 8.73438C131.822 8.76562 132.009 8.85938 132.259 9.01562C132.416 9.07812 132.525 9.1875 132.588 9.34375C132.713 9.59375 132.791 9.9375 132.822 10.375C132.853 10.7812 132.838 11.0625 132.775 11.2188C132.744 11.4062 132.728 11.8281 132.728 12.4844C132.728 13.2031 132.697 13.625 132.634 13.75L132.588 14.4062C132.588 14.5938 132.572 14.6875 132.541 14.6875C132.478 14.75 132.494 14.8594 132.588 15.0156C132.619 15.0781 132.619 15.125 132.588 15.1562C132.588 15.2812 132.431 15.3906 132.119 15.4844L131.556 15.625L131.228 15.6719C131.134 15.6719 131.041 15.7344 130.947 15.8594C130.884 15.9219 130.775 15.9688 130.619 16C130.525 16 130.416 16.0312 130.291 16.0938C130.103 16.1562 129.947 16.1875 129.822 16.1875C129.541 16.25 129.4 16.3281 129.4 16.4219V16.9844C129.431 17.2969 129.463 17.4688 129.494 17.5H131.556L132.119 17.4531C132.15 17.4531 132.291 17.4844 132.541 17.5469C132.666 17.5781 133.056 17.7188 133.713 17.9688C133.9 18.125 133.963 18.2812 133.9 18.4375L133.947 18.7188C134.009 18.8438 134.041 18.9219 134.041 18.9531C134.041 19.3281 134.025 19.6094 133.994 19.7969C133.994 19.9531 134.009 20.1094 134.041 20.2656C134.041 20.3906 134.009 20.4844 133.947 20.5469C133.853 20.6406 133.619 20.7656 133.244 20.9219C133.056 20.9531 132.9 21.0312 132.775 21.1562C132.775 21.1562 132.65 21.1875 132.4 21.25C132.306 21.25 132.213 21.2656 132.119 21.2969C132.025 21.3281 131.947 21.3438 131.884 21.3438C131.822 21.375 131.634 21.3906 131.322 21.3906L130.853 21.4375L130.478 21.4844H130.103C130.072 21.5156 129.869 21.5312 129.494 21.5312C129.275 21.5312 129.103 21.5469 128.978 21.5781C128.853 21.5781 128.744 21.6094 128.65 21.6719C128.556 21.7031 128.447 21.7188 128.322 21.7188C128.134 21.6562 127.697 21.6562 127.009 21.7188C126.759 21.7188 126.588 21.7031 126.494 21.6719C126.431 21.6094 126.275 21.5781 126.025 21.5781C125.931 21.5781 125.697 21.5469 125.322 21.4844C124.947 21.3906 124.744 21.3438 124.713 21.3438L124.009 21.0156C123.697 20.8906 123.447 20.7656 123.259 20.6406L123.119 19.7969C123.056 19.5469 123.025 19.4219 123.025 19.4219L122.931 19.1875C122.9 19.125 122.853 18.9688 122.791 18.7188C122.759 18.4688 122.728 18.3125 122.697 18.25C122.697 17.875 122.65 17.4062 122.556 16.8438C122.494 16.625 122.463 15.875 122.463 14.5938ZM124.525 8.26562C124.525 8.54688 124.541 8.73438 124.572 8.82812H125.463C126.244 8.79688 126.681 8.76562 126.775 8.73438C127.025 8.67188 127.259 8.67188 127.478 8.73438C127.541 8.73438 127.588 8.71875 127.619 8.6875V8.3125C127.588 8.21875 127.572 8.04688 127.572 7.79688C127.541 7.54688 127.494 7.375 127.431 7.28125C127.369 7.15625 127.275 7.10938 127.15 7.14062C127.056 7.17188 126.947 7.1875 126.822 7.1875C126.697 7.1875 126.588 7.17188 126.494 7.14062C126.306 7.14062 126.15 7.125 126.025 7.09375C125.713 7.09375 125.541 7.07812 125.509 7.04688C125.509 7.04688 125.384 7.01562 125.134 6.95312C125.072 6.92188 125.009 6.90625 124.947 6.90625C124.884 6.875 124.838 6.84375 124.806 6.8125C124.744 6.78125 124.634 6.76562 124.478 6.76562C124.447 6.79688 124.447 7 124.478 7.375L124.525 8.26562ZM124.619 12.0156C124.619 12.6094 124.65 12.9688 124.713 13.0938C124.713 13.0938 124.806 13.1094 124.994 13.1406C125.213 13.1406 125.713 13.1406 126.494 13.1406L128.228 13.0938L128.509 13.0469L128.838 12.9531L129.119 12.9062C129.244 12.875 129.4 12.8594 129.588 12.8594C129.806 12.8594 130.056 12.8281 130.338 12.7656C130.619 12.7656 130.822 12.7656 130.947 12.7656C131.103 12.7344 131.197 12.7188 131.228 12.7188C131.291 12.2812 131.322 11.9219 131.322 11.6406C131.353 11.3281 131.322 11.1406 131.228 11.0781C131.166 11.0469 130.806 11.0312 130.15 11.0312L127.572 11.1719L127.197 11.2188C127.166 11.2188 127.088 11.2344 126.963 11.2656C126.838 11.2969 126.744 11.3594 126.681 11.4531L125.838 11.5H125.181L124.947 11.2188L124.666 11.125C124.634 11.125 124.619 11.4219 124.619 12.0156ZM124.9 17.3125C124.9 17.4062 124.9 17.4844 124.9 17.5469C124.931 17.5781 124.994 17.5938 125.088 17.5938L125.463 17.5469L126.541 17.5H127.431C127.463 17.5 127.478 17.4219 127.478 17.2656L127.525 16.8906C127.556 16.6719 127.509 16.5781 127.384 16.6094C127.197 16.6094 127.072 16.625 127.009 16.6562H126.728L126.166 16.5625C125.947 16.5625 125.744 16.5312 125.556 16.4688C125.369 16.375 125.244 16.3281 125.181 16.3281C125.056 16.2656 124.963 16.2656 124.9 16.3281V17.3125ZM133.994 26.4062C134.025 26.4375 134.338 26.4531 134.931 26.4531C135.931 26.4531 136.666 26.4688 137.134 26.5C137.634 26.5312 137.931 26.5469 138.025 26.5469C138.088 26.5781 138.306 26.5938 138.681 26.5938L139.291 26.6406C139.353 26.6406 139.4 26.625 139.431 26.5938C139.494 26.5625 139.525 26.4375 139.525 26.2188C139.556 25.9375 139.509 25.7812 139.384 25.75L138.634 25.6562L137.978 25.6094C137.509 25.5156 137.259 25.4844 137.228 25.5156H136.666C136.478 25.5156 136.291 25.5312 136.103 25.5625C135.947 25.5938 135.822 25.6094 135.728 25.6094C135.666 25.6406 135.494 25.6562 135.213 25.6562C134.838 25.6875 134.541 25.7344 134.322 25.7969C134.134 25.8281 134.025 25.8906 133.994 25.9844C133.963 26.1094 133.963 26.25 133.994 26.4062ZM134.041 34C134.041 34.125 134.103 34.2031 134.228 34.2344C134.353 34.2344 134.509 34.2344 134.697 34.2344C134.916 34.2344 135.088 34.2344 135.213 34.2344H137.463C138.338 34.2344 138.791 34.2188 138.822 34.1875C138.884 34.125 138.916 34.0312 138.916 33.9062C138.916 33.7812 138.884 33.6562 138.822 33.5312C138.791 33.4375 138.697 33.3906 138.541 33.3906C138.291 33.3906 138.056 33.4062 137.838 33.4375C136.65 33.4375 135.728 33.3906 135.072 33.2969H134.556C134.463 33.2344 134.369 33.2031 134.275 33.2031C134.244 33.2031 134.197 33.2188 134.134 33.25C134.103 33.2812 134.088 33.3125 134.088 33.3438L134.041 33.7656V34ZM134.181 30.5312C134.213 30.5625 134.666 30.5938 135.541 30.625L137.463 30.6719C137.744 30.7031 138.15 30.7188 138.681 30.7188C138.9 30.75 139.056 30.7656 139.15 30.7656C139.244 30.7344 139.291 30.7031 139.291 30.6719C139.322 30.6719 139.338 30.4844 139.338 30.1094C139.338 29.7969 139.322 29.625 139.291 29.5938H138.916L134.463 29.6406C134.306 29.6094 134.213 29.6094 134.181 29.6406C134.15 29.6719 134.134 29.8125 134.134 30.0625C134.134 30.3125 134.15 30.4688 134.181 30.5312ZM137.603 9.0625C137.603 8.65625 137.619 8.32812 137.65 8.07812L137.697 7.04688C137.697 6.82812 137.681 6.70312 137.65 6.67188L137.697 6.20312C137.728 5.92188 137.791 5.5625 137.884 5.125C137.978 4.8125 138.009 4.67188 137.978 4.70312C138.009 4.45312 138.072 4.28125 138.166 4.1875L138.259 3.8125L138.353 3.20312L138.447 2.64062L138.588 2.3125C138.619 2.3125 138.666 2.21875 138.728 2.03125C138.759 1.84375 138.853 1.59375 139.009 1.28125C139.103 1.15625 139.181 1.07812 139.244 1.04688C139.338 1.01562 139.463 1 139.619 1H139.759C139.822 1 139.947 1.04688 140.134 1.14062C140.447 1.26562 140.65 1.45312 140.744 1.70312C140.869 1.95312 140.931 2.3125 140.931 2.78125C140.963 2.90625 140.978 3.01562 140.978 3.10938C141.009 3.20312 141.041 3.26562 141.072 3.29688C141.134 3.39062 141.213 3.39062 141.306 3.29688L141.494 3.20312C142.056 3.01562 142.478 2.92188 142.759 2.92188C142.916 2.89062 143.181 2.84375 143.556 2.78125L144.072 2.6875L144.588 2.64062L145.713 2.59375H146.697L147.025 2.6875C147.244 2.75 147.494 2.875 147.775 3.0625C148.056 3.25 148.244 3.40625 148.338 3.53125C148.369 3.59375 148.384 3.70312 148.384 3.85938C148.384 4.07812 148.416 4.20312 148.478 4.23438C148.478 4.32812 148.447 4.45312 148.384 4.60938C148.353 4.64062 148.338 4.70312 148.338 4.79688C148.338 4.85938 148.306 4.9375 148.244 5.03125C148.244 5.15625 148.228 5.23438 148.197 5.26562L148.15 5.64062V5.96875C148.119 6.15625 147.963 6.28125 147.681 6.34375C147.556 6.34375 147.259 6.42188 146.791 6.57812C146.728 6.60938 146.556 6.625 146.275 6.625C145.994 6.625 145.775 6.65625 145.619 6.71875C145.463 6.78125 145.338 6.79688 145.244 6.76562C145.213 6.76562 145.103 6.79688 144.916 6.85938C144.634 6.98438 144.494 7.0625 144.494 7.09375C144.494 7.15625 144.603 7.25 144.822 7.375C145.009 7.53125 145.119 7.64062 145.15 7.70312C145.213 7.82812 145.259 8.01562 145.291 8.26562C145.353 8.51562 145.384 8.76562 145.384 9.01562C145.384 9.29688 145.447 9.6875 145.572 10.1875C145.603 10.2188 145.697 10.25 145.853 10.2812C146.009 10.3125 146.291 10.3594 146.697 10.4219C147.759 10.4844 148.588 10.6875 149.181 11.0312C149.775 11.3438 150.166 11.6562 150.353 11.9688C150.541 12.2812 150.681 12.8281 150.775 13.6094C150.838 14.4844 150.869 15.0781 150.869 15.3906C150.869 15.7969 150.838 16.4375 150.775 17.3125C150.65 18.0625 150.525 18.625 150.4 19C150.306 19.375 150.15 19.6875 149.931 19.9375C149.869 19.9688 149.775 20.0312 149.65 20.125C149.525 20.1875 149.322 20.2188 149.041 20.2188L148.619 20.125L148.478 20.3594C148.322 20.4844 148.181 20.5781 148.056 20.6406C147.963 20.6719 147.806 20.6875 147.588 20.6875C147.4 20.6875 147.244 20.7188 147.119 20.7812C146.869 20.8438 146.634 20.8438 146.416 20.7812C146.259 20.75 146.15 20.75 146.088 20.7812L145.619 20.8281H145.384C145.353 20.8594 145.244 20.8906 145.056 20.9219C144.9 20.9531 144.775 20.9688 144.681 20.9688L143.838 21.0156C143.65 21.0781 143.525 21.1094 143.463 21.1094C143.275 21.1094 143.119 21.0781 142.994 21.0156C142.869 20.9531 142.634 20.9375 142.291 20.9688C141.884 20.9688 141.619 20.9844 141.494 21.0156C141.338 21.0469 141.228 21.0469 141.166 21.0156H140.931C140.869 21.0156 140.822 21 140.791 20.9688L140.416 20.9219C140.197 20.9219 140.041 20.8906 139.947 20.8281H139.713C139.463 20.8281 139.197 20.7188 138.916 20.5C138.666 20.4062 138.447 20.3438 138.259 20.3125C138.041 20.25 137.869 20.1719 137.744 20.0781C137.713 20.0469 137.697 19.7812 137.697 19.2812C137.666 19.0312 137.65 18.6406 137.65 18.1094C137.65 17.8281 137.666 17.6406 137.697 17.5469C137.728 17.2969 137.744 16.9844 137.744 16.6094C137.744 15.1719 137.775 14.2188 137.838 13.75C137.9 12.625 137.931 12.0625 137.931 12.0625L137.978 11.7344C138.041 11.5469 138.088 11.4062 138.119 11.3125C138.15 11.2188 138.213 11.1406 138.306 11.0781C138.494 10.8906 138.806 10.7812 139.244 10.75L139.713 10.6562L140.369 10.6094C140.494 10.5781 140.634 10.5625 140.791 10.5625C140.947 10.5625 141.072 10.5469 141.166 10.5156L142.244 10.4688C142.619 10.4375 142.884 10.4219 143.041 10.4219C143.228 10.3906 143.338 10.3594 143.369 10.3281L143.322 10.1406L143.275 9.625L143.181 9.15625C143.15 9 143.134 8.79688 143.134 8.54688C143.134 8.26562 143.15 8.04688 143.181 7.89062V7.5625C143.181 7.28125 143.166 7.14062 143.134 7.14062C143.134 7.14062 143.025 7.10938 142.806 7.04688C142.775 7.04688 142.713 7.04688 142.619 7.04688C142.525 7.01562 142.384 7 142.197 7H141.634C141.447 6.90625 141.322 6.85938 141.259 6.85938L140.791 6.71875C140.572 6.59375 140.447 6.59375 140.416 6.71875C140.416 6.71875 140.322 6.9375 140.134 7.375C140.072 7.75 139.947 8.0625 139.759 8.3125L139.525 9.10938C139.4 9.29688 139.338 9.46875 139.338 9.625C139.15 9.90625 139.025 10.0469 138.963 10.0469C138.9 10.0156 138.806 9.95312 138.681 9.85938C138.588 9.73438 138.525 9.64062 138.494 9.57812L138.447 9.48438C138.447 9.42188 138.431 9.40625 138.4 9.4375C138.369 9.4375 138.338 9.46875 138.306 9.53125C138.244 9.5625 138.197 9.5625 138.166 9.53125C138.134 9.5 138.041 9.48438 137.884 9.48438C137.791 9.48438 137.713 9.45312 137.65 9.39062C137.619 9.29688 137.603 9.1875 137.603 9.0625ZM139.853 15.625C139.853 16.0938 139.869 16.3594 139.9 16.4219C139.931 16.4844 140.056 16.5156 140.275 16.5156L141.025 16.4688C141.338 16.4688 141.509 16.4531 141.541 16.4219C141.572 16.3906 141.588 16.3125 141.588 16.1875C141.619 16.0312 141.634 15.7656 141.634 15.3906C141.666 15.0469 141.666 14.7031 141.634 14.3594C141.572 14.2969 141.4 14.2656 141.119 14.2656C140.9 14.2656 140.666 14.2969 140.416 14.3594C140.134 14.3906 139.963 14.4688 139.9 14.5938C139.869 14.6875 139.853 15.0312 139.853 15.625ZM143.181 14.5C143.213 14.5625 143.228 14.6406 143.228 14.7344C143.228 14.7031 143.259 14.875 143.322 15.25C143.322 15.6562 143.338 15.875 143.369 15.9062V16.1875C143.369 16.3125 143.4 16.3906 143.463 16.4219C143.556 16.4531 143.744 16.4688 144.025 16.4688L144.681 16.5156C144.838 16.5156 144.931 16.4844 144.963 16.4219C144.994 16.3906 145.009 16.3438 145.009 16.2812C145.009 16.2188 145.025 16.1562 145.056 16.0938L145.103 15.6719C145.228 15.0469 145.291 14.7031 145.291 14.6406C145.353 14.5156 145.384 14.4062 145.384 14.3125C145.416 14.2188 145.416 14.1562 145.384 14.125C145.353 14.125 145.291 14.125 145.197 14.125C145.134 14.0938 145.103 14.0938 145.103 14.125C145.103 14.125 145.025 14.1406 144.869 14.1719C144.713 14.1719 144.384 14.1719 143.884 14.1719C143.509 14.1719 143.306 14.1875 143.275 14.2188C143.213 14.25 143.181 14.3438 143.181 14.5ZM146.884 16.6562C146.884 16.6875 146.916 16.7344 146.978 16.7969C147.072 16.8594 147.15 16.8906 147.213 16.8906C147.338 16.8906 147.431 16.9062 147.494 16.9375C147.713 17.0625 147.884 17.0469 148.009 16.8906C148.197 16.5469 148.306 16.2969 148.338 16.1406C148.338 16.1094 148.353 16.0625 148.384 16C148.416 15.9375 148.447 15.8906 148.478 15.8594V15.625L148.525 15.1562C148.588 14.8125 148.588 14.5469 148.525 14.3594C148.494 14.2656 148.431 14.2031 148.338 14.1719C148.244 14.1094 148.103 14.0625 147.916 14.0312C147.416 13.9688 147.166 13.9531 147.166 13.9844C147.134 14.0156 147.119 14.2188 147.119 14.5938C147.119 14.75 147.103 14.9062 147.072 15.0625C147.041 15.1875 147.025 15.2656 147.025 15.2969L146.931 15.9531L146.884 16.4688C146.791 16.5625 146.791 16.625 146.884 16.6562Z" fill="#4A443D"/>
<path d="M92.3496 29.5H92.1621C92.0996 29.5312 92.0527 29.5312 92.0215 29.5C91.8965 29.4375 91.7402 29.4062 91.5527 29.4062H91.4121L90.8496 29.3125C90.7558 29.2812 90.6465 29.2656 90.5215 29.2656L90.0058 29.3125C89.8496 29.3125 89.7402 29.3125 89.6777 29.3125C89.6152 29.2812 89.5683 29.2656 89.5371 29.2656C89.4121 29.2031 89.2871 29.1719 89.1621 29.1719L88.8808 29.125C88.8183 29.0938 88.7402 29.0781 88.6465 29.0781L87.9433 28.8906L87.8027 28.7969L87.4277 28.7031L86.7246 28.5156C86.5371 28.4844 86.2871 28.3906 85.9746 28.2344C85.9121 28.1719 85.8183 28.125 85.6933 28.0938C85.6308 28.0938 85.5996 28.0625 85.5996 28L85.3183 27.8594C85.2246 27.7969 84.9433 27.5312 84.4746 27.0625C84.3183 26.9062 84.2402 26.7344 84.2402 26.5469C84.1777 26.4219 84.1465 26.3125 84.1465 26.2188L84.0996 25.75C84.0996 25.5938 84.0683 25.4531 84.0058 25.3281C83.9121 25.0781 83.8652 24.9219 83.8652 24.8594L83.8183 24.6719C83.7871 24.6094 83.7715 24.5 83.7715 24.3438C83.7715 24.1875 83.7246 24.0469 83.6308 23.9219C83.5996 23.8594 83.5996 23.7656 83.6308 23.6406C83.6933 23.4844 83.8027 23.3906 83.959 23.3594L84.0996 23.3125C84.0996 23.2812 84.2402 23.2188 84.5215 23.125C84.7402 23.0625 85.3808 23.0156 86.4433 22.9844C86.8496 22.9844 87.0527 22.9688 87.0527 22.9375L87.4277 22.8906C88.584 22.8281 89.3183 22.75 89.6308 22.6562L89.8183 22.6094C90.0058 22.6094 90.2558 22.5625 90.5683 22.4688C90.6308 22.4375 90.6933 22.4219 90.7558 22.4219C90.8183 22.4219 90.8652 22.4062 90.8965 22.375L91.2715 22.3281C91.3652 22.2969 91.5215 22.2812 91.7402 22.2812L92.1621 22.2344C92.2246 22.2031 92.3965 22.1875 92.6777 22.1875C93.3965 22.125 93.8183 22.0781 93.9433 22.0469L95.7246 21.9531C96.0371 21.9531 96.2558 21.9531 96.3808 21.9531C96.5058 21.9219 96.584 21.9062 96.6152 21.9062C96.6777 21.875 97.2402 21.8594 98.3027 21.8594L100.037 21.8125L100.6 21.8594L101.866 21.9062C102.209 21.9062 102.444 21.9219 102.569 21.9531C102.694 21.9531 102.772 21.9531 102.803 21.9531C102.959 21.9844 103.053 21.9844 103.084 21.9531L104.397 21.8594L105.287 21.8125H105.991C106.022 21.7812 106.1 21.7656 106.225 21.7656C106.287 21.7969 106.522 21.8125 106.928 21.8125C107.147 21.8438 107.397 21.8594 107.678 21.8594L108.053 21.9531C108.709 22.0469 109.459 22.2656 110.303 22.6094C110.709 22.7969 110.975 23.0312 111.1 23.3125C111.1 23.3438 111.147 23.4062 111.241 23.5C111.334 23.5938 111.428 23.7188 111.522 23.875C111.616 24.0312 111.662 24.1562 111.662 24.25C111.756 24.6562 111.819 24.8906 111.85 24.9531L111.944 25.3281C111.944 25.4531 111.959 25.5312 111.991 25.5625C112.053 25.8438 112.069 26.2188 112.037 26.6875C112.037 26.8438 112.084 27.0625 112.178 27.3438C112.209 27.5312 112.162 27.6875 112.037 27.8125C112.006 27.8125 111.975 27.8281 111.944 27.8594C111.912 27.8906 111.897 27.9219 111.897 27.9531C111.803 28.1719 111.694 28.2188 111.569 28.0938C111.537 28.0938 111.506 28.0781 111.475 28.0469C111.444 28.0156 111.397 28 111.334 28L111.1 27.8594C111.1 27.8281 111.069 27.8281 111.006 27.8594L110.725 27.9062C110.6 27.9062 110.506 27.9375 110.444 28H110.022C109.897 27.9688 109.725 27.9688 109.506 28H108.709C108.647 28 108.537 28.0312 108.381 28.0938C108.256 28.125 108.116 28.1406 107.959 28.1406L107.584 28.1875C107.366 28.1875 107.256 28.2031 107.256 28.2344L107.069 28.2812L106.787 28.3281C106.662 28.3906 106.506 28.4219 106.319 28.4219H105.991L105.006 28.4688L104.725 28.5156L104.35 28.5625C103.881 28.5625 103.537 28.5781 103.319 28.6094C103.225 28.6406 103.084 28.6406 102.897 28.6094C102.709 28.6094 102.569 28.625 102.475 28.6562C102.412 28.6875 102.147 28.7031 101.678 28.7031L100.881 28.75C100.725 28.75 100.584 28.7188 100.459 28.6562C100.397 28.625 100.287 28.6406 100.131 28.7031C100.006 28.7656 99.8965 28.7969 99.8027 28.7969L98.959 28.8906H98.7246L98.1152 28.9375L97.8808 28.9844C97.8183 28.9531 97.7246 28.9375 97.5996 28.9375C97.4746 28.9375 97.3496 28.9531 97.2246 28.9844C97.1933 28.9844 97.1621 29 97.1308 29.0312C97.0996 29.0312 97.0683 29.0156 97.0371 28.9844C96.9746 28.9844 96.9277 29 96.8965 29.0312H96.6152C96.3965 29.0312 96.2402 29.0469 96.1465 29.0781C96.084 29.0781 96.0371 29.0781 96.0058 29.0781C95.9746 29.1094 95.9121 29.125 95.8183 29.125L95.4902 29.1719H95.1152C95.084 29.1406 95.0058 29.125 94.8808 29.125L94.3183 29.2188C94.0996 29.3125 93.9277 29.3594 93.8027 29.3594C93.7402 29.3594 93.6152 29.3594 93.4277 29.3594C93.2402 29.3281 93.1152 29.3438 93.0527 29.4062C92.9902 29.4375 92.8965 29.4688 92.7715 29.5C92.6777 29.5312 92.584 29.5469 92.4902 29.5469L92.3496 29.5Z" fill="#4A443D"/>
<path d="M69.6434 44.5C69.4559 44.5 69.3152 44.4531 69.2215 44.3594L68.9871 44.3125C68.8934 44.375 68.7996 44.3906 68.7059 44.3594H68.0496C67.4871 44.3594 67.1746 44.3438 67.1121 44.3125C67.0184 44.2812 66.7684 44.25 66.3621 44.2188C65.7059 44.1875 65.3465 44.1562 65.284 44.125L65.0965 44.0781L64.9559 44.0312L64.4402 43.9375L63.8777 43.8906C63.8152 43.8594 63.6746 43.8438 63.4559 43.8438L63.0809 43.7969C63.0184 43.7344 62.9402 43.7031 62.8465 43.7031L62.4715 43.75L62.1902 43.6094C62.0652 43.5469 61.9558 43.5156 61.8621 43.5156C61.4871 43.5156 61.2371 43.4844 61.1121 43.4219C61.1121 43.4219 60.9871 43.375 60.7371 43.2812C60.6121 43.2812 60.5183 43.25 60.4558 43.1875C60.3933 43.125 60.159 43.0938 59.7527 43.0938C59.5027 43.0625 59.3308 43 59.2371 42.9062C59.1746 42.9062 59.1277 42.8906 59.0965 42.8594C58.9715 42.8594 58.8465 42.8281 58.7215 42.7656C58.6277 42.7031 58.5496 42.6719 58.4871 42.6719L58.2996 42.5781L58.0652 42.5312L57.9246 42.4844C57.7371 42.4219 57.6277 42.3906 57.5965 42.3906C57.3777 42.3906 57.2058 42.3594 57.0808 42.2969L56.659 42.0625C56.534 42.0625 56.4246 42 56.3308 41.875L51.6433 40.75L50.5652 40.375C50.5027 40.3438 50.3933 40.3125 50.2371 40.2812C50.1121 40.2188 50.0183 40.1875 49.9558 40.1875L49.3933 40C48.9871 39.875 48.7058 39.7812 48.5496 39.7188C48.4246 39.6562 48.3465 39.625 48.3152 39.625L47.7996 39.3906L47.0496 39.0625L46.6746 38.9219C46.4558 38.8281 46.1746 38.7031 45.8308 38.5469C45.5183 38.3906 45.2683 38.2656 45.0808 38.1719L44.7527 38.0312C44.659 38 44.5808 37.9844 44.5183 37.9844C44.4871 37.9844 44.4558 38 44.4246 38.0312C44.3621 38.1562 44.2527 38.3906 44.0965 38.7344C43.9402 39.0781 43.7996 39.375 43.6746 39.625C43.5496 39.6562 43.4558 39.7812 43.3933 40C43.0808 40.625 42.8621 40.9844 42.7371 41.0781C42.7058 41.0781 42.659 41.1094 42.5965 41.1719C42.534 41.2344 42.4715 41.2969 42.409 41.3594C42.2527 41.6094 42.1277 41.7812 42.034 41.875C41.9402 41.9688 41.7996 42.0469 41.6121 42.1094L41.3308 42.2031L41.1902 42.2969C41.1277 42.3594 41.0496 42.3906 40.9558 42.3906C40.8933 42.3906 40.8465 42.3594 40.8152 42.2969C40.784 42.2656 40.7371 42.2188 40.6746 42.1562C40.6121 42.0938 40.5808 42.0469 40.5808 42.0156L40.3465 41.875L40.1121 41.7812C39.4871 41.7812 38.9871 41.7344 38.6121 41.6406C38.2371 41.5469 38.0965 41.2344 38.1902 40.7031L38.3777 39.3906C38.3777 39.2031 38.3621 39.0781 38.3308 39.0156C38.2996 38.9844 38.284 38.9062 38.284 38.7812C38.3465 38.6875 38.4246 38.5781 38.5183 38.4531C38.6433 38.3281 38.7683 38.2188 38.8933 38.125C39.0496 37.9688 39.1433 37.8438 39.1746 37.75L39.7371 37.0938C39.7683 37.0625 39.7996 37.0312 39.8308 37C39.8621 36.9375 39.8777 36.875 39.8777 36.8125L40.1121 36.3906C40.1433 36.3906 40.1746 36.3438 40.2058 36.25C40.2058 36.1562 40.2683 36.0625 40.3933 35.9688C40.4246 35.9062 40.4715 35.8281 40.534 35.7344C40.6277 35.6406 40.6902 35.5625 40.7215 35.5C40.7527 35.4688 40.784 35.4375 40.8152 35.4062C40.8465 35.375 40.8621 35.3438 40.8621 35.3125V35.2188L40.9558 34.9844C40.9558 34.8594 40.9871 34.7656 41.0496 34.7031C41.1121 34.6406 41.1433 34.5469 41.1433 34.4219C41.1433 34.3281 41.1746 34.2344 41.2371 34.1406C41.2996 34.0156 41.3621 33.9219 41.4246 33.8594C41.5496 33.8594 41.6121 33.7969 41.6121 33.6719C41.6121 33.5156 41.6433 33.375 41.7058 33.25C41.7683 33.25 41.8308 33.1406 41.8933 32.9219C41.9558 32.7969 42.0183 32.7344 42.0808 32.7344L42.1746 32.5469L42.2215 32.4062L42.3152 32.2188C42.3465 32.0938 42.3933 31.9844 42.4558 31.8906C42.5183 31.7969 42.5496 31.7188 42.5496 31.6562L42.5965 31.4219L42.6433 31.2344C42.7996 30.8594 42.8777 30.6094 42.8777 30.4844L42.9246 30.2031C42.9558 30.1719 42.9715 30.1094 42.9715 30.0156V29.8281L43.0183 29.5469C43.0808 29.0781 43.1277 28.8125 43.159 28.75L43.2996 28.5625C43.4871 28.5625 43.784 28.5938 44.1902 28.6562C44.6277 28.7188 44.8933 28.7969 44.9871 28.8906C45.1433 29.0469 45.2527 29.1875 45.3152 29.3125C45.409 29.5312 45.4871 29.8125 45.5496 30.1562C45.5496 30.2188 45.5652 30.2969 45.5965 30.3906C45.659 30.4844 45.6902 30.5938 45.6902 30.7188C45.7215 30.9062 45.7371 31.25 45.7371 31.75C45.7371 32.6875 45.6746 33.4688 45.5496 34.0938L45.409 34.75C45.409 34.8125 45.4246 34.875 45.4558 34.9375C45.5183 34.9688 45.5965 34.9844 45.6902 34.9844L45.9715 35.0312L46.2996 35.0781C46.3621 35.0781 46.4402 35.1094 46.534 35.1719C46.659 35.2031 46.7683 35.2188 46.8621 35.2188L47.3308 35.3125H47.4715L47.4246 33.9531V33.5312C47.4246 33.2188 47.4246 33.0156 47.4246 32.9219C47.4558 32.7969 47.4715 32.7188 47.4715 32.6875C47.5027 32.6562 47.534 32.2031 47.5652 31.3281C47.5652 31.1406 47.5652 31.0156 47.5652 30.9531C47.5965 30.8906 47.6121 30.8438 47.6121 30.8125L47.7996 29.875L47.8465 29.4531V29.2188L47.8933 28.75C47.9246 28.4688 47.9402 28.125 47.9402 27.7188C47.9402 27.3125 47.9246 27.0156 47.8933 26.8281H47.7058C47.5496 26.7969 47.4402 26.8125 47.3777 26.875C47.1902 27.0312 46.9246 27.1094 46.5808 27.1094C46.4871 27.0781 46.3621 27.0625 46.2058 27.0625C46.0183 27.0625 45.8777 27.0781 45.784 27.1094C45.659 27.1406 45.5027 27.1562 45.3152 27.1562C44.9715 27.1562 44.7527 27.2188 44.659 27.3438H44.4715C44.284 27.25 44.0183 27.1875 43.6746 27.1562C43.1746 27.1562 42.8933 27.125 42.8308 27.0625C42.7683 26.9375 42.5965 26.8438 42.3152 26.7812C42.159 26.7188 42.0808 26.6719 42.0808 26.6406C42.0183 26.6094 41.9871 26.4219 41.9871 26.0781C41.9558 25.8594 41.9402 25.625 41.9402 25.375C41.909 25.2812 41.8933 25.0781 41.8933 24.7656L41.7996 24.3438C41.7996 24.1562 41.8308 24 41.8933 23.875C42.1433 23.625 42.2996 23.5 42.3621 23.5L42.6433 23.4062L42.8308 23.3594C42.8933 23.3594 42.9715 23.3125 43.0652 23.2188C43.2527 23.125 43.3621 23.0781 43.3933 23.0781C43.4558 23.0469 43.534 23.0312 43.6277 23.0312C43.7527 23 43.8777 22.9531 44.0027 22.8906L44.7058 22.6562C44.8933 22.5938 45.0652 22.5625 45.2215 22.5625C45.284 22.5312 45.4402 22.4688 45.6902 22.375C46.0027 22.25 46.284 22.1875 46.534 22.1875L47.8465 21.8125C48.0965 21.75 48.4715 21.7031 48.9715 21.6719C49.1277 21.6719 49.2371 21.6406 49.2996 21.5781C49.5183 21.5781 49.9402 21.5469 50.5652 21.4844C51.284 21.4219 52.0652 21.4531 52.909 21.5781C53.409 21.6406 53.9246 21.875 54.4558 22.2812C54.7058 22.4062 54.8308 22.5625 54.8308 22.75C54.8308 22.8125 54.8152 22.875 54.784 22.9375C54.784 22.9688 54.7996 23.0469 54.8308 23.1719C54.8621 23.2344 54.8777 23.3281 54.8777 23.4531L54.784 23.9219C54.8152 24.1719 54.7996 24.3594 54.7371 24.4844V24.7656C54.7371 24.8906 54.7215 25 54.6902 25.0938C54.659 25.1562 54.5808 25.2188 54.4558 25.2812C54.3308 25.4062 53.9246 25.5156 53.2371 25.6094C53.1433 25.6094 53.0496 25.625 52.9558 25.6562C52.8621 25.6875 52.7996 25.7188 52.7683 25.75C52.4246 25.75 52.2058 25.7812 52.1121 25.8438C51.9871 25.8438 51.909 25.8594 51.8777 25.8906L51.2683 26.0781L51.034 26.125C50.8777 26.125 50.784 26.1406 50.7527 26.1719C50.6902 26.2031 50.6433 26.25 50.6121 26.3125C50.5808 26.3438 50.5652 26.3906 50.5652 26.4531V26.7344C50.6277 26.7344 50.659 26.9844 50.659 27.4844C50.6902 27.9531 50.7215 28.1875 50.7527 28.1875C50.9715 28.1875 51.1433 28.1719 51.2683 28.1406C51.7683 27.9219 52.1277 27.8125 52.3465 27.8125C53.0027 27.8125 53.409 27.8438 53.5652 27.9062C53.7215 27.9375 53.8308 27.9531 53.8933 27.9531L54.3621 28.1875C54.3933 28.2188 54.4715 28.2656 54.5965 28.3281C54.7527 28.3594 54.8621 28.375 54.9246 28.375C55.0808 28.5 55.1746 28.5938 55.2058 28.6562C55.2371 28.7188 55.2527 28.7969 55.2527 28.8906C55.2527 28.9531 55.2371 29.0156 55.2058 29.0781C55.2058 29.0469 55.2371 29.1562 55.2996 29.4062C55.3621 29.5938 55.3777 29.7188 55.3465 29.7812L55.2996 30.2031C55.2996 30.4531 55.284 30.5938 55.2527 30.625V31.0938C55.2527 31.2188 55.2371 31.3125 55.2058 31.375C55.2058 31.4375 55.2058 31.5 55.2058 31.5625L55.0652 31.75C54.8465 31.9688 54.6121 32.0938 54.3621 32.125C54.1433 32.1562 53.9558 32.25 53.7996 32.4062C53.7371 32.4688 53.659 32.5 53.5652 32.5C52.9402 32.625 52.534 32.7188 52.3465 32.7812C52.3152 32.8125 52.2371 32.8281 52.1121 32.8281L51.9715 32.875C51.9402 32.875 51.784 32.9219 51.5027 33.0156C51.2527 33.0781 51.0808 33.1094 50.9871 33.1094C50.6433 33.1094 50.4402 33.1562 50.3777 33.25C50.3465 33.2812 50.3152 33.375 50.284 33.5312C50.2527 33.6875 50.2371 33.8125 50.2371 33.9062L50.1902 34.7031L50.1433 35.4062V35.5C50.1433 35.5625 50.1902 35.6094 50.284 35.6406C50.409 35.6406 50.5183 35.6562 50.6121 35.6875C50.7996 35.7188 51.3621 35.9219 52.2996 36.2969C52.3621 36.3281 52.4402 36.3438 52.534 36.3438C52.6277 36.3438 52.7058 36.3594 52.7683 36.3906L53.0965 36.4375L53.5183 36.4844L54.7371 36.6719L55.0183 36.7188C55.0808 36.7812 55.1746 36.8125 55.2996 36.8125C55.3308 36.8438 55.3777 36.8594 55.4402 36.8594C55.534 36.8594 55.6277 36.8906 55.7215 36.9531H56.0965C56.6277 37.0469 57.2371 37.0938 57.9246 37.0938C58.0183 37.0938 58.0965 37.1094 58.159 37.1406C58.2215 37.1406 58.2683 37.125 58.2996 37.0938L58.3933 37L58.3465 36.5781C58.3465 36.3281 58.3308 36.1875 58.2996 36.1562C58.2996 36.0312 58.284 35.9531 58.2527 35.9219C58.2527 35.7031 58.2058 35.5781 58.1121 35.5469L58.0652 35.0781C58.0652 34.8594 58.0496 34.7344 58.0183 34.7031V34.5156C58.0496 34.4531 58.0965 34.3906 58.159 34.3281C58.2527 34.2344 58.3465 34.1719 58.4402 34.1406L58.6746 34.0938L58.8152 33.9531L58.9558 33.7656L59.0496 33.6719C59.0496 33.6719 59.0808 33.6406 59.1433 33.5781L59.284 33.3906L59.5183 33.25C59.5808 33.1562 59.6746 33.0625 59.7996 32.9688C59.9246 32.8438 60.034 32.75 60.1277 32.6875C60.2527 32.5625 60.3152 32.5 60.3152 32.5L60.5027 32.3594C60.659 32.2969 60.7527 32.1875 60.784 32.0312C60.8152 31.9062 61.0027 31.7188 61.3465 31.4688L61.534 31.375L61.7683 31.1406C61.7996 31.0781 61.8465 31.0156 61.909 30.9531C62.0027 30.8594 62.0965 30.75 62.1902 30.625C62.4715 30.25 62.6121 30.0469 62.6121 30.0156L61.9558 29.6875C61.9558 29.6562 61.9402 29.6406 61.909 29.6406C61.8777 29.6406 61.8621 29.625 61.8621 29.5938C61.7683 29.5625 61.6902 29.375 61.6277 29.0312C61.6277 28.875 61.6121 28.7812 61.5808 28.75C61.5808 28.6875 61.5808 28.6406 61.5808 28.6094L61.3465 28.5625H61.1121C61.0496 28.5 61.0183 28.25 61.0183 27.8125C61.0183 27.2812 61.034 26.7969 61.0652 26.3594C61.0652 25.9531 61.0496 25.6719 61.0183 25.5156C61.0183 25.3281 60.9871 25.2031 60.9246 25.1406C60.8621 24.9844 60.8308 24.7969 60.8308 24.5781C60.9558 24.1406 61.0183 23.7344 61.0183 23.3594L61.1121 22.2344L61.159 21.4375L61.2058 20.5938L61.2527 19.9844L61.3465 18.5312L61.3933 18.0156C61.4558 17.5469 61.5183 17.25 61.5808 17.125C61.6121 16.9375 61.6121 16.75 61.5808 16.5625C61.5808 16.3438 61.5965 16.1406 61.6277 15.9531L61.6746 15.625C61.7058 15.5625 61.7215 15.4375 61.7215 15.25C61.7527 14.9375 61.8465 14.625 62.0027 14.3125C62.034 14.2812 62.1121 14.25 62.2371 14.2188C62.4871 14.2188 62.6746 14.1562 62.7996 14.0312L63.3152 13.8906L63.5965 13.75C63.659 13.6875 63.6902 13.5469 63.6902 13.3281C63.6902 12.9844 63.7215 12.75 63.784 12.625L63.8777 12.3906C63.8777 12.3281 63.8152 12.2969 63.6902 12.2969L63.0809 12.3438L62.7996 12.2969C62.5809 12.2969 62.3777 12.3438 62.1902 12.4375C62.0965 12.4375 62.0027 12.4062 61.909 12.3438C61.6902 12.25 61.4871 12.2031 61.2996 12.2031H61.0652L60.8308 12.0156C60.6121 11.8594 60.4558 11.7812 60.3621 11.7812C60.2683 11.75 60.1433 11.7188 59.9871 11.6875C59.8621 11.625 59.7527 11.5625 59.659 11.5C59.6277 11.5 59.6121 11.4531 59.6121 11.3594V10.8438C59.6121 9.71875 59.6433 9.03125 59.7058 8.78125C59.7371 8.71875 59.7527 8.64062 59.7527 8.54688C59.7527 8.29688 59.7996 8.125 59.8933 8.03125C60.0183 7.90625 60.2371 7.8125 60.5496 7.75L60.9246 7.65625L61.2058 7.60938H61.534C61.534 7.60938 61.6902 7.57812 62.0027 7.51562C62.1277 7.48438 62.2684 7.46875 62.4246 7.46875C62.6746 7.375 62.8777 7.32812 63.034 7.32812H63.2215C63.5965 7.32812 63.8777 7.3125 64.0652 7.28125L64.7684 7.23438C64.9246 7.20312 65.1121 7.1875 65.3309 7.1875C65.6746 7.125 66.0652 7.09375 66.5027 7.09375C66.9715 7.0625 67.3777 7.0625 67.7215 7.09375C68.5027 7.28125 68.8621 7.35938 68.7996 7.32812C69.2684 7.45312 69.6434 7.59375 69.9246 7.75C70.3934 8.09375 70.659 8.35938 70.7215 8.54688C70.7527 8.70312 70.7527 8.82812 70.7215 8.92188C70.6902 8.98438 70.6902 9.07812 70.7215 9.20312C70.784 9.42188 70.7996 9.59375 70.7684 9.71875L70.6746 10.4688C70.5809 10.5 70.534 10.6406 70.534 10.8906V11.1719C70.5027 11.2344 70.4246 11.3125 70.2996 11.4062C70.2059 11.4688 70.0965 11.5 69.9715 11.5L69.5965 11.5469H69.034L68.6121 11.5938C68.4871 11.5938 68.3152 11.625 68.0965 11.6875C67.909 11.7188 67.7996 11.75 67.7684 11.7812C67.7371 11.7812 67.7059 11.7969 67.6746 11.8281C67.6746 11.8281 67.659 11.8281 67.6277 11.8281C67.534 11.7656 67.409 11.7656 67.2527 11.8281H66.9715C66.4402 11.8906 66.159 11.9375 66.1277 11.9688C66.034 12 65.9871 12.0625 65.9871 12.1562L65.8465 13.375V13.5156L66.7371 13.4688H67.0184L67.6746 13.5156C67.7059 13.5469 67.7684 13.5625 67.8621 13.5625C68.3309 13.6562 68.7215 13.8125 69.034 14.0312C69.159 14.125 69.2996 14.2188 69.4559 14.3125C69.6434 14.4062 69.7527 14.4688 69.784 14.5C69.9715 14.75 70.0809 15.0625 70.1121 15.4375L70.159 15.8125C70.2215 15.9062 70.2527 16.0312 70.2527 16.1875V16.4688C70.284 16.5938 70.3152 17.1719 70.3465 18.2031C70.409 19.2031 70.4402 20.2344 70.4402 21.2969C70.4402 22.8594 70.3934 23.7188 70.2996 23.875V24.4375C70.2996 24.7188 70.284 24.875 70.2527 24.9062V25.3281C70.1902 25.8594 70.1121 26.3281 70.0184 26.7344C69.9871 26.8281 69.9715 26.9219 69.9715 27.0156C70.0027 27.1094 70.034 27.1719 70.0652 27.2031C70.1277 27.3594 70.1434 27.4531 70.1121 27.4844L70.0184 28.4219C70.0496 28.5156 70.034 28.5625 69.9715 28.5625C69.909 28.625 69.8621 28.6562 69.8309 28.6562L69.5496 28.75C69.3934 28.875 69.2996 28.9688 69.2684 29.0312C69.2684 29.0625 69.3465 29.1094 69.5027 29.1719L69.8309 29.3594L70.909 30.0156C71.3465 30.3906 71.909 30.7812 72.5965 31.1875C72.6902 31.25 72.7996 31.3125 72.9246 31.375C73.0496 31.4375 73.1434 31.4844 73.2059 31.5156C73.4246 31.6094 73.5809 31.7031 73.6746 31.7969C73.7996 31.8594 73.9246 31.9688 74.0496 32.125C74.1434 32.2188 74.2371 32.375 74.3309 32.5938C74.3934 32.6875 74.4246 32.8125 74.4246 32.9688L74.4715 33.3906C74.5027 33.5156 74.5184 33.7969 74.5184 34.2344C74.5184 35.2656 74.4871 35.9062 74.4246 36.1562C74.3621 36.2188 74.3309 36.2969 74.3309 36.3906C74.3621 36.4844 74.3934 36.5625 74.4246 36.625C74.4559 36.6875 74.4715 36.7656 74.4715 36.8594C74.4715 37.0469 74.2527 37.3594 73.8152 37.7969C73.7215 37.8594 73.5965 37.8906 73.4402 37.8906C73.3465 37.8906 73.2684 37.8906 73.2059 37.8906C73.1746 37.8594 73.1277 37.8125 73.0652 37.75L72.7371 37.5625C72.7371 37.5312 72.6746 37.4844 72.5496 37.4219L72.1746 37.2812C71.7059 37.0938 71.4715 37 71.4715 37C71.284 36.9688 71.159 36.9375 71.0965 36.9062C71.034 36.8438 70.9871 36.7969 70.9559 36.7656C70.4559 36.5156 70.0496 36.1094 69.7371 35.5469L69.5496 35.2188C69.4246 35.0938 69.3621 35.0312 69.3621 35.0312L68.9402 34.5625L68.5652 34.0469L68.2371 33.6719C68.1746 33.6719 68.1121 33.6562 68.0496 33.625C68.0184 33.5625 68.0027 33.5156 68.0027 33.4844L66.4559 31.9844C66.3309 31.8594 66.2527 31.7656 66.2215 31.7031C66.1902 31.6406 66.159 31.5938 66.1277 31.5625C66.0652 31.5 66.0184 31.3906 65.9871 31.2344C65.9246 31.0469 65.8309 30.8594 65.7059 30.6719C65.6121 30.4844 65.4871 30.2031 65.3309 29.8281C65.2996 29.7344 65.2527 29.6875 65.1902 29.6875C65.1277 29.6875 65.0496 29.75 64.9559 29.875C64.8934 30 64.8621 30.125 64.8621 30.25V30.625L64.6277 31.4688C64.5027 31.75 64.3934 31.9375 64.2996 32.0312C64.2371 32.1562 64.1746 32.2656 64.1121 32.3594C64.0496 32.4531 64.0184 32.5156 64.0184 32.5469C63.8934 32.6719 63.7996 32.8125 63.7371 32.9688L63.409 33.625L63.2215 34.0938C63.2215 34.125 63.1434 34.2188 62.9871 34.375L62.7059 34.7031L61.7215 35.9688L61.3465 36.25L60.9246 36.5781L60.2683 37.0938C60.2683 37.125 60.3465 37.1562 60.5027 37.1875C60.659 37.1875 60.909 37.1875 61.2527 37.1875H62.4715C62.7527 37.2188 62.9246 37.2031 62.9871 37.1406H63.4559L64.8621 37.0938H66.5496C67.2996 37.125 67.8465 37.1719 68.1902 37.2344C68.7215 37.2656 69.5496 37.5312 70.6746 38.0312L71.1902 38.2656L71.5184 38.5C71.6434 38.625 71.7527 38.7031 71.8465 38.7344C72.3465 39.0781 72.6121 39.3906 72.6434 39.6719C72.6746 39.7969 72.6902 40 72.6902 40.2812C72.659 40.375 72.6434 40.4688 72.6434 40.5625C72.6746 40.625 72.6902 40.6719 72.6902 40.7031L72.5496 41.4531C72.4871 41.5781 72.4402 41.7031 72.409 41.8281C72.409 41.9531 72.4246 42.1562 72.4559 42.4375C72.4871 42.625 72.4871 42.7656 72.4559 42.8594C72.4246 42.8906 72.3621 42.9844 72.2684 43.1406L72.1277 43.5156C72.034 43.6094 71.9871 43.6719 71.9871 43.7031C71.9559 43.7969 71.8309 43.875 71.6121 43.9375C71.5184 43.9375 71.4246 43.9844 71.3309 44.0781C70.9559 44.2969 70.4871 44.4062 69.9246 44.4062L69.7371 44.5H69.6434ZM43.7683 20.4062C43.7371 20.3438 43.7215 19.9688 43.7215 19.2812C43.7215 18.5938 43.7371 18.2344 43.7683 18.2031V17.5C43.7683 17.1562 43.784 16.9531 43.8152 16.8906V16.2812L43.8621 15.4844C43.8621 15.2031 43.8933 14.9375 43.9558 14.6875C43.9246 14.5625 43.909 14.4531 43.909 14.3594C43.9402 14.2344 43.9558 14.1562 43.9558 14.125C44.0183 13.6875 44.0496 13.0156 44.0496 12.1094C44.0808 11.9219 44.0808 11.7031 44.0496 11.4531C44.0496 11.1719 44.0652 10.8906 44.0965 10.6094L44.1433 9.4375L44.0965 8.82812V8.6875C44.0965 8.5 44.159 8.375 44.284 8.3125C44.409 8.21875 44.6277 8.17188 44.9402 8.17188C45.1902 8.17188 45.3152 8.10938 45.3152 7.98438C45.3465 7.89062 45.4402 7.8125 45.5965 7.75C45.7527 7.65625 45.909 7.59375 46.0652 7.5625C46.159 7.5625 46.2371 7.53125 46.2996 7.46875C46.3308 7.46875 46.3777 7.46875 46.4402 7.46875C46.5027 7.4375 46.6277 7.42188 46.8152 7.42188L47.4715 7.375C47.5965 7.3125 47.7996 7.28125 48.0808 7.28125H48.8308L49.8621 7.32812C49.9871 7.35938 50.1121 7.375 50.2371 7.375C50.3933 7.34375 50.5183 7.32812 50.6121 7.32812H51.1746C51.2058 7.35938 51.2527 7.375 51.3152 7.375C51.8465 7.53125 52.159 7.64062 52.2527 7.70312L52.5808 7.89062L52.7683 7.98438L52.909 8.17188C53.1902 8.32812 53.3933 8.51562 53.5183 8.73438C53.6121 8.95312 53.6746 9.23438 53.7058 9.57812C53.7371 9.89062 53.7527 10.4531 53.7527 11.2656V12.9062C53.7527 13.1875 53.7527 13.5312 53.7527 13.9375C53.784 14.3125 53.784 14.7969 53.7527 15.3906L53.7058 16.9375C53.6746 17.5 53.6277 17.9688 53.5652 18.3438C53.5027 18.7188 53.4402 19.0469 53.3777 19.3281L53.1433 20.0781C52.9558 20.2656 52.7996 20.3594 52.6746 20.3594C52.4871 20.3594 52.3308 20.2969 52.2058 20.1719C52.0808 20.1719 51.9871 20.1562 51.9246 20.125C51.7996 20.0938 51.7215 20.0938 51.6902 20.125C51.5965 20.1562 51.4558 20.2031 51.2683 20.2656C51.1121 20.3281 50.9871 20.375 50.8933 20.4062C50.7996 20.4062 50.7371 20.4219 50.7058 20.4531C50.5808 20.5781 50.409 20.6406 50.1902 20.6406L49.6746 20.7344C49.6433 20.7656 49.5965 20.7812 49.534 20.7812C49.5027 20.7812 49.4558 20.7969 49.3933 20.8281C49.2683 20.8281 49.0965 20.8906 48.8777 21.0156C48.3465 21.1719 48.0183 21.25 47.8933 21.25L47.7058 21.2969C47.6433 21.3281 47.4246 21.3594 47.0496 21.3906L46.0652 21.4375C45.7215 21.4375 45.5027 21.4062 45.409 21.3438C45.3465 21.3438 45.284 21.3125 45.2215 21.25C44.8152 21.1875 44.4871 21.1094 44.2371 21.0156L44.0027 20.875C43.909 20.8125 43.8465 20.75 43.8152 20.6875C43.8152 20.625 43.8152 20.5781 43.8152 20.5469L43.7683 20.4062ZM46.6277 11.5469C46.6277 12.1406 46.6433 12.4844 46.6746 12.5781C46.6746 12.6719 46.6746 12.7344 46.6746 12.7656C46.7058 12.7969 46.7371 12.8125 46.7683 12.8125L46.8621 12.7656L47.1902 12.7188C47.2215 12.7188 47.3777 12.6719 47.659 12.5781L48.034 12.5312L48.2683 12.4844C48.2996 12.4844 48.3465 12.4688 48.409 12.4375C48.5027 12.4062 48.5965 12.3906 48.6902 12.3906L49.0652 12.25C49.2527 12.1875 49.5027 12.1562 49.8152 12.1562H50.1433C50.2371 12.0938 50.3152 12.0938 50.3777 12.1562C50.534 12.1562 50.6277 12.1406 50.659 12.1094C50.8152 12.1094 50.8933 12.0938 50.8933 12.0625C50.9246 12.0312 50.9402 11.9688 50.9402 11.875C50.909 11.8438 50.8933 11.7812 50.8933 11.6875C50.8933 11.625 50.8621 11.5781 50.7996 11.5469C50.7683 11.4844 50.7215 11.4531 50.659 11.4531C50.5965 11.4219 50.5496 11.4062 50.5183 11.4062C50.4558 11.4062 50.409 11.4062 50.3777 11.4062C50.3465 11.375 50.3152 11.3594 50.284 11.3594H49.9558L49.4402 11.3125H49.2527L49.0652 11.3594C48.909 11.3594 48.7371 11.3438 48.5496 11.3125C48.3933 11.25 48.2683 11.2344 48.1746 11.2656C48.1121 11.2656 48.0027 11.25 47.8465 11.2188C47.6902 11.1875 47.5965 11.1875 47.5652 11.2188C47.534 11.1875 47.4402 11.1719 47.284 11.1719C46.8465 11.1719 46.6277 11.2969 46.6277 11.5469ZM46.8152 16.9844C46.8152 17.0156 46.8308 17.0312 46.8621 17.0312C47.0183 17.0312 47.1277 17.0156 47.1902 16.9844L47.8465 16.8438C47.909 16.8125 47.9715 16.7969 48.034 16.7969C48.1277 16.7969 48.1902 16.7812 48.2215 16.75L48.8308 16.7031C48.9871 16.6094 49.1277 16.5625 49.2527 16.5625C49.3152 16.5 49.6433 16.4688 50.2371 16.4688C50.3308 16.4375 50.4246 16.4531 50.5183 16.5156C50.6746 16.6094 50.7527 16.5938 50.7527 16.4688C50.7527 16.4688 50.7527 16.4062 50.7527 16.2812C50.784 16.125 50.784 15.9375 50.7527 15.7188L50.7058 15.0156C50.7371 14.9219 50.7371 14.8594 50.7058 14.8281C50.7058 14.7969 50.6902 14.7812 50.659 14.7812C50.6277 14.75 50.5808 14.7344 50.5183 14.7344C50.4246 14.7344 50.3152 14.7656 50.1902 14.8281C50.0965 14.8594 50.034 14.8906 50.0027 14.9219L49.8621 14.9688C49.7371 14.9688 49.5808 15 49.3933 15.0625C49.2996 15.0938 49.0496 15.1562 48.6433 15.25C48.4871 15.2812 48.2996 15.3125 48.0808 15.3438C47.8621 15.375 47.6433 15.3906 47.4246 15.3906H46.8152C46.784 15.5781 46.7683 15.8438 46.7683 16.1875C46.7683 16.5312 46.784 16.7969 46.8152 16.9844ZM63.5027 26.3125C63.5027 26.625 63.5184 26.7969 63.5496 26.8281L64.2527 26.6875L64.6277 26.6406C64.659 26.6094 64.7684 26.5938 64.9559 26.5938L65.3309 26.5469C65.4559 26.5156 65.6746 26.5 65.9871 26.5C66.0809 26.4688 66.2527 26.4531 66.5027 26.4531C66.6277 26.3906 66.8465 26.3594 67.159 26.3594L67.7215 26.3125C67.7527 26.2812 67.7527 26.2188 67.7215 26.125C67.7215 26.0312 67.7371 25.8594 67.7684 25.6094L67.8152 24.4844C67.784 24.4219 67.7371 24.4219 67.6746 24.4844H67.4871C67.4246 24.5156 67.3465 24.5312 67.2527 24.5312C67.1902 24.5312 67.1434 24.5469 67.1121 24.5781L66.8777 24.625C66.784 24.6562 66.659 24.6875 66.5027 24.7188C66.3465 24.75 66.2215 24.7812 66.1277 24.8125C66.1277 24.8125 65.8465 24.875 65.284 25L64.9559 25.0938L64.6746 25.1406H64.3465C64.3152 25.1719 64.1746 25.1875 63.9246 25.1875L63.6434 25.2344C63.5809 25.2344 63.5496 25.3906 63.5496 25.7031L63.5027 26.125V26.3125ZM63.5496 18.5312C63.5496 18.625 63.5652 18.7031 63.5965 18.7656C63.6277 18.8281 63.659 18.875 63.6902 18.9062L63.8777 18.8594C64.3152 18.7344 64.5965 18.6719 64.7215 18.6719C64.909 18.6719 65.0652 18.6406 65.1902 18.5781L65.7996 18.5312C66.0184 18.5312 66.1277 18.5156 66.1277 18.4844C66.3152 18.3906 66.7215 18.3438 67.3465 18.3438C67.7215 18.3438 67.9246 18.3281 67.9559 18.2969V18.1562C67.9559 17.8438 67.9402 17.6719 67.909 17.6406C67.909 17.6094 67.8465 17.5625 67.7215 17.5L67.534 17.4531C67.4715 17.4219 67.409 17.4062 67.3465 17.4062C67.284 17.375 67.2371 17.375 67.2059 17.4062H66.6434L66.034 17.5C66.0027 17.5312 65.784 17.5469 65.3777 17.5469C65.284 17.5781 65.1746 17.5938 65.0496 17.5938C64.9559 17.5938 64.8777 17.6094 64.8152 17.6406C64.7527 17.6406 64.5965 17.6719 64.3465 17.7344C64.2215 17.7344 64.1121 17.75 64.0184 17.7812C63.9246 17.8125 63.8152 17.8906 63.6902 18.0156C63.659 18.0469 63.6277 18.125 63.5965 18.25C63.5652 18.3438 63.5496 18.4375 63.5496 18.5312ZM63.6902 22.0469C63.7215 22.0781 63.7527 22.0938 63.784 22.0938C63.8152 22.0625 63.8777 22.0469 63.9715 22.0469L64.534 22C64.5965 21.9688 64.659 21.9531 64.7215 21.9531C64.784 21.9219 64.8309 21.8906 64.8621 21.8594C65.0184 21.8594 65.159 21.8438 65.284 21.8125C65.6902 21.8125 65.9402 21.7969 66.034 21.7656C66.0652 21.7656 66.0965 21.75 66.1277 21.7188C66.159 21.6875 66.2215 21.6719 66.3152 21.6719H66.9246C67.0496 21.6406 67.2371 21.625 67.4871 21.625C67.7371 21.5938 67.8621 21.5625 67.8621 21.5312C67.8934 21.5 67.909 21.3906 67.909 21.2031C67.909 21.0781 67.8934 20.9844 67.8621 20.9219C67.8309 20.8594 67.7684 20.8438 67.6746 20.875C67.6121 20.875 67.5652 20.8594 67.534 20.8281C67.4715 20.7656 67.3621 20.7344 67.2059 20.7344C67.1746 20.7031 67.1277 20.6875 67.0652 20.6875C67.2527 20.6875 67.034 20.75 66.409 20.875C65.784 21 65.3934 21.0781 65.2371 21.1094L64.9559 21.1562C64.8309 21.1562 64.7371 21.1719 64.6746 21.2031L64.2996 21.25H63.7371C63.7059 21.2812 63.6746 21.3906 63.6434 21.5781C63.6434 21.7656 63.659 21.9219 63.6902 22.0469Z" fill="#4A443D"/>
<path d="M25.5156 41.4062C25.4844 41.375 25.3594 41.3594 25.1406 41.3594C24.7969 41.3594 24.5 41.3125 24.25 41.2188C24.1562 41.1875 24.0469 41.1719 23.9219 41.1719L23.6875 41.0781C23.5312 40.9844 23.125 40.9219 22.4688 40.8906C22.1562 40.8906 21.9688 40.875 21.9062 40.8438C21.875 40.8125 21.8125 40.7969 21.7188 40.7969H21.3906C21.3281 40.8281 21.1094 40.8438 20.7344 40.8438C20.7031 40.8438 20.5938 40.8125 20.4062 40.75L20.2188 40.6094H19.4219C19.2344 40.5781 18.9375 40.5625 18.5312 40.5625C18.1562 40.5312 17.8594 40.5156 17.6406 40.5156C17.6094 40.5469 17.4375 40.5625 17.125 40.5625C16.7812 40.5625 16.5312 40.5469 16.375 40.5156L16.0938 40.4219H15.4375C15.4062 40.4531 15.3594 40.4688 15.2969 40.4688C15.2344 40.4688 15.1875 40.4844 15.1562 40.5156L14.7344 40.5625C14.6406 40.5625 14.5625 40.5781 14.5 40.6094C14.4375 40.6406 14.375 40.6875 14.3125 40.75C14 40.9375 13.7812 41.0312 13.6562 41.0312C13.5625 41.0312 13.4531 41 13.3281 40.9375L13.0938 40.8906C12.9688 40.8906 12.8594 40.875 12.7656 40.8438C12.3594 40.7812 12.0469 40.75 11.8281 40.75C11.7344 40.75 11.625 40.7344 11.5 40.7031C11.4062 40.6719 11.3125 40.6562 11.2188 40.6562L10.75 40.6094C10.625 40.6094 10.5469 40.5938 10.5156 40.5625H10.0938L9.76562 40.6094C9.70312 40.6406 9.64062 40.6406 9.57812 40.6094H9.39062C9.14062 40.6094 8.89062 40.6562 8.64062 40.75L7.89062 40.8438H7.70312L6.85938 40.8906C6.64062 40.9531 6.35938 40.9531 6.01562 40.8906H5.6875C5.5625 40.8906 5.48438 40.875 5.45312 40.8438C5.42188 40.8438 5.26562 40.8438 4.98438 40.8438C4.73438 40.8125 4.51562 40.8125 4.32812 40.8438L4.04688 40.7969C3.85938 40.7344 3.70312 40.6719 3.57812 40.6094C3.48438 40.5469 3.39062 40.4531 3.29688 40.3281C3.14062 40.1406 2.84375 40.0156 2.40625 39.9531L1.9375 39.8125L1.5625 39.7188C1.46875 39.7188 1.40625 39.7031 1.375 39.6719C1.28125 39.6406 1.21875 39.5938 1.1875 39.5312C1.15625 39.4688 1.15625 39.3281 1.1875 39.1094V38.4062C1.15625 38.1562 1.15625 37.9844 1.1875 37.8906C1.25 37.7656 1.25 37.6719 1.1875 37.6094V37.3281L1.14062 37C1.10938 36.9375 1.09375 36.7656 1.09375 36.4844C1.09375 36.1719 1.07812 35.9844 1.04688 35.9219V35.5938C1.10938 35.375 1.125 35.2031 1.09375 35.0781L1 34.5625C1 34.3438 1.25 34.1406 1.75 33.9531L2.07812 33.8594C2.17188 33.7656 2.29688 33.7188 2.45312 33.7188C2.45312 33.7188 2.59375 33.6719 2.875 33.5781C3.15625 33.4844 3.29688 33.4375 3.29688 33.4375L3.67188 33.3906C3.82812 33.2969 3.96875 33.25 4.09375 33.25C4.28125 33.25 4.40625 33.2344 4.46875 33.2031L5.26562 33.0625C5.48438 33.0625 5.65625 33.0312 5.78125 32.9688L6.34375 32.875C6.5625 32.875 6.71875 32.8594 6.8125 32.8281L7.14062 32.7812L7.75 32.6875L8.3125 32.6406H8.64062C8.98438 32.6406 9.20312 32.625 9.29688 32.5938C9.39062 32.5312 9.8125 32.4844 10.5625 32.4531C11.0312 32.4219 11.3438 32.3906 11.5 32.3594C11.6875 32.3281 11.7969 32.2812 11.8281 32.2188C11.8281 32.1875 11.8281 32.0781 11.8281 31.8906C11.8594 31.6719 11.875 31.2656 11.875 30.6719V29.2656L11.7812 29.2188C11.75 29.1875 11.6719 29.1719 11.5469 29.1719C11.4844 29.2031 11.3438 29.2188 11.125 29.2188C10.9375 29.2188 10.8125 29.2344 10.75 29.2656H10.375C10.1875 29.2656 10.0625 29.2812 10 29.3125C9.84375 29.3125 9.73438 29.2969 9.67188 29.2656C9.54688 29.2656 9.4375 29.25 9.34375 29.2188L8.875 29.125L8.26562 29.0781C8.04688 29.0781 7.92188 29.0625 7.89062 29.0312L7.60938 28.9844C7.57812 28.9531 7.53125 28.9375 7.46875 28.9375C7.40625 28.9375 7.35938 28.9219 7.32812 28.8906C7.29688 28.8594 7.25 28.8438 7.1875 28.8438C7.15625 28.8438 7.125 28.8281 7.09375 28.7969C6.9375 28.7969 6.84375 28.6875 6.8125 28.4688C6.8125 28.3438 6.76562 28.2656 6.67188 28.2344L6.53125 27.9531C6.5 27.8594 6.46875 27.7969 6.4375 27.7656C6.40625 27.7031 6.39062 27.6562 6.39062 27.625C6.35938 27.5938 6.34375 27.5156 6.34375 27.3906C6.28125 27.2031 6.23438 27.0938 6.20312 27.0625C6.20312 26.9688 6.17188 26.8594 6.10938 26.7344C6.10938 26.6094 6.07812 26.5156 6.01562 26.4531C5.92188 26.3281 5.82812 26.0781 5.73438 25.7031C5.73438 25.5781 5.71875 25.5 5.6875 25.4688C5.59375 25.3125 5.54688 25.1562 5.54688 25C5.54688 24.8125 5.53125 24.7031 5.5 24.6719C5.46875 24.6094 5.45312 24.5 5.45312 24.3438C5.45312 24.125 5.51562 23.9375 5.64062 23.7812C5.73438 23.6562 5.85938 23.5781 6.01562 23.5469C6.10938 23.5469 6.1875 23.5312 6.25 23.5L6.625 23.4531C6.84375 23.4531 6.98438 23.4375 7.04688 23.4062C7.23438 23.4062 7.39062 23.3906 7.51562 23.3594L7.9375 23.3125L8.73438 23.2656H9.29688C9.32812 23.2656 9.39062 23.2656 9.48438 23.2656C9.60938 23.2344 9.8125 23.2188 10.0938 23.2188C10.2812 23.1875 10.4688 23.1719 10.6562 23.1719C10.875 23.1719 11.0469 23.1562 11.1719 23.125H11.6875C11.7812 23.125 11.8438 23.125 11.875 23.125C11.9375 23.0938 11.9844 23.0781 12.0156 23.0781C12.0781 22.9531 12.1094 22.625 12.1094 22.0938C12.1094 21.5312 12.125 21.0469 12.1562 20.6406C12.1875 20.5156 12.1875 20.4219 12.1562 20.3594C12.1562 20.2969 12.1406 20.2656 12.1094 20.2656C12.0469 20.2031 11.625 20.1875 10.8438 20.2188C10.6562 20.25 10.4844 20.2656 10.3281 20.2656C10.1719 20.2344 10.0781 20.2188 10.0469 20.2188L9.48438 20.1719C9.35938 20.1406 9.20312 20.125 9.01562 20.125C8.95312 20.0625 8.82812 20.0312 8.64062 20.0312L7.75 19.8438L7.375 19.75C6.65625 19.6562 6.14062 19.5625 5.82812 19.4688C5.54688 19.4062 5.40625 19.3438 5.40625 19.2812C5.3125 19.0938 5.26562 18.9531 5.26562 18.8594L5.125 18.3906L5.03125 17.9219L4.75 17.1719C4.71875 17.0781 4.67188 16.9688 4.60938 16.8438C4.57812 16.7188 4.5625 16.6094 4.5625 16.5156L4.51562 16.2812C4.45312 16.2188 4.42188 16.0625 4.42188 15.8125C4.39062 15.6562 4.34375 15.5156 4.28125 15.3906C4.21875 15.2656 4.1875 15.1719 4.1875 15.1094C4.1875 15.0469 4.21875 14.9531 4.28125 14.8281C4.34375 14.7031 4.48438 14.5938 4.70312 14.5C4.92188 14.4062 5.15625 14.3438 5.40625 14.3125C5.625 14.2812 5.9375 14.2656 6.34375 14.2656C6.46875 14.2344 6.60938 14.2188 6.76562 14.2188C6.92188 14.2188 7.0625 14.2031 7.1875 14.1719C7.1875 14.1719 7.90625 14.125 9.34375 14.0312C10.0938 14.0312 10.6875 14 11.125 13.9375C11.1875 13.9375 11.2812 13.9062 11.4062 13.8438C11.5 13.75 11.5469 13.5469 11.5469 13.2344C11.4844 12.7969 11.3906 12.4531 11.2656 12.2031L11.2188 12.0156L11.1719 11.7344L10.75 10.375C10.7188 10.2812 10.7188 10.1406 10.75 9.95312C10.75 9.60938 10.7812 9.375 10.8438 9.25C11 9.03125 11.1719 8.875 11.3594 8.78125C11.4531 8.75 11.5781 8.73438 11.7344 8.73438C11.8906 8.73438 12.0156 8.75 12.1094 8.78125L12.4375 8.82812C12.5625 8.82812 12.6562 8.84375 12.7188 8.875L13.1875 8.96875C13.375 9.03125 13.5781 9.26561 13.7969 9.67188C14.0781 10.2031 14.25 10.625 14.3125 10.9375L14.5469 11.6406L14.5938 11.9688L14.6875 12.25L14.7344 12.5312L14.7812 12.7188L14.8281 13.0469C14.8594 13.4219 14.9062 13.6719 14.9688 13.7969C15 13.8281 15.2188 13.8438 15.625 13.8438C16.1562 13.8125 16.7188 13.8125 17.3125 13.8438C17.9375 13.8438 18.4062 13.8594 18.7188 13.8906L19.6562 14.0312L20.2188 14.125C20.5312 14.1875 20.7656 14.2656 20.9219 14.3594C21.4219 14.4844 21.7188 14.6094 21.8125 14.7344C21.875 14.7344 21.9375 14.8281 22 15.0156C22.0625 15.0781 22.0938 15.1562 22.0938 15.25C22.0625 15.3125 22.1094 15.4375 22.2344 15.625L22.3281 15.8594C22.3906 15.9844 22.4219 16.2031 22.4219 16.5156L22.4688 16.9375C22.5 17 22.5156 17.1094 22.5156 17.2656C22.5156 17.3906 22.5469 17.5469 22.6094 17.7344C22.7031 18.0469 22.6875 18.2812 22.5625 18.4375C22.5312 18.5 22.3906 18.6094 22.1406 18.7656C21.7969 18.8906 21.4844 18.9531 21.2031 18.9531C20.7344 19.0156 20.4844 19.0625 20.4531 19.0938L20.2188 19.1406C20.125 19.1406 20.0625 19.1562 20.0312 19.1875C20 19.2188 19.9219 19.2344 19.7969 19.2344C19.7656 19.2656 19.7031 19.2812 19.6094 19.2812C19.5469 19.2812 19.4844 19.2969 19.4219 19.3281L18.8594 19.375C18.5469 19.4375 18.3906 19.4688 18.3906 19.4688L18.2969 19.5156C18.1719 19.5156 18.0625 19.5312 17.9688 19.5625L17.3594 19.6562C17.2969 19.6875 17.2188 19.7031 17.125 19.7031C17.0312 19.7031 16.9531 19.7188 16.8906 19.75C16.3906 19.8438 15.9688 19.8906 15.625 19.8906C15.3125 19.8906 15.125 19.9219 15.0625 19.9844V20.6875L15.1562 22.75C15.1562 22.875 15.1719 22.9531 15.2031 22.9844C15.2656 23.0469 15.6875 23.0938 16.4688 23.125L17.2188 23.1719L17.5 23.2188C17.9688 23.2188 18.3594 23.2656 18.6719 23.3594L19.0469 23.4062C19.4531 23.4688 19.7188 23.5625 19.8438 23.6875C19.9375 23.7188 20.0156 23.7812 20.0781 23.875C20.1406 23.9375 20.1875 24.0156 20.2188 24.1094V24.2969C20.2188 24.3594 20.2188 24.4219 20.2188 24.4844C20.25 24.5156 20.2812 24.5469 20.3125 24.5781L20.4062 24.7188C20.5 24.8438 20.5469 24.9844 20.5469 25.1406C20.5469 25.2969 20.5781 25.4375 20.6406 25.5625C20.7031 25.875 20.7344 26.1562 20.7344 26.4062V26.6875L20.875 26.9219C20.9688 27.1094 21 27.2656 20.9688 27.3906C20.9375 27.4844 20.875 27.5625 20.7812 27.625C20.6875 27.6875 20.5469 27.7656 20.3594 27.8594C20.3281 27.8906 20.2812 27.9062 20.2188 27.9062C20.1875 27.9062 20.1562 27.9219 20.125 27.9531C20.0312 27.9531 19.9688 27.9688 19.9375 28C19.9062 28.0312 19.8125 28.0469 19.6562 28.0469C19.3438 28.0781 19.125 28.125 19 28.1875C18.9375 28.2188 18.8594 28.2344 18.7656 28.2344C18.6719 28.2031 18.5781 28.2031 18.4844 28.2344C18.2969 28.3281 18.0312 28.375 17.6875 28.375C17.625 28.375 17.5312 28.4062 17.4062 28.4688C17.3438 28.5 17.2344 28.5156 17.0781 28.5156H16.9375C16.7812 28.5156 16.6406 28.5312 16.5156 28.5625L16.0938 28.6562C16.0625 28.6875 15.9688 28.7031 15.8125 28.7031C15.5625 28.7031 15.4062 28.7344 15.3438 28.7969C15.3125 28.8281 15.2969 29.375 15.2969 30.4375C15.2969 31.0938 15.2969 31.5469 15.2969 31.7969C15.3281 32.0156 15.3906 32.1406 15.4844 32.1719C15.5781 32.2031 16.1406 32.2031 17.1719 32.1719H18.2969L18.7188 32.2188H19.0938C19.0938 32.2188 19.4219 32.25 20.0781 32.3125C20.4844 32.3125 21 32.3438 21.625 32.4062C22.25 32.5 22.9219 32.5156 23.6406 32.4531C23.7969 32.4219 24.0469 32.4062 24.3906 32.4062C24.6094 32.4062 24.8125 32.4375 25 32.5L25.375 32.5938C25.4688 32.5938 25.5781 32.625 25.7031 32.6875C25.7969 32.7188 25.9062 32.7344 26.0312 32.7344C26.125 32.7344 26.2344 32.7812 26.3594 32.875C26.5156 32.9375 26.625 33 26.6875 33.0625C26.7188 33.1562 26.8594 33.2188 27.1094 33.25C27.2344 33.25 27.3125 33.2969 27.3438 33.3906L27.9531 33.7188C28.1406 33.7812 28.2656 33.8438 28.3281 33.9062C28.4219 33.9375 28.4844 34 28.5156 34.0938L28.5625 34.2344L28.6562 34.4219L28.75 35.0781C28.75 35.2656 28.75 35.4219 28.75 35.5469C28.7812 35.6406 28.8281 35.75 28.8906 35.875C28.9531 36.0625 28.9844 36.2031 28.9844 36.2969C28.9219 36.5156 28.8906 36.7031 28.8906 36.8594C28.9219 36.8906 28.9375 37.0469 28.9375 37.3281C28.9375 37.7031 28.8594 38.0469 28.7031 38.3594C28.7031 38.4219 28.6875 38.5156 28.6562 38.6406C28.625 38.7656 28.6406 38.8906 28.7031 39.0156L28.75 39.3438C28.75 39.5 28.7188 39.6719 28.6562 39.8594C28.625 39.9844 28.5625 40.1094 28.4688 40.2344C28.4062 40.3594 28.3438 40.4531 28.2812 40.5156L28.1406 40.75C28.0156 40.9062 27.875 41.0469 27.7188 41.1719L27.5312 41.3125H27.0625L25.9844 41.3594C25.8281 41.3281 25.7344 41.3281 25.7031 41.3594L25.5156 41.4062Z" fill="#4A443D"/>
</svg>
