<svg width="488" height="392" viewBox="0 0 488 392" fill="none" xmlns="http://www.w3.org/2000/svg">
<g clip-path="url(#clip0_1364_12703)">
<path fill-rule="evenodd" clip-rule="evenodd" d="M248.897 36.6656C247.344 35.0327 250.74 30.7678 249.188 29.1349C248.721 28.9903 248.253 28.8457 247.799 28.7027C237.618 40.7673 258.269 52.7795 268.483 47.2532C262.084 44.0241 255.988 37.0072 248.897 36.6656Z" fill="#E3DDD7"/>
<path fill-rule="evenodd" clip-rule="evenodd" d="M340.551 73.5028C341.129 68.5396 335.239 67.0031 332.351 63.8655C324.781 71.7696 338.102 83.8485 345.537 77.0686C345.342 74.2457 343.867 74.3632 340.551 73.5028Z" fill="#E3DDD7"/>
<path fill-rule="evenodd" clip-rule="evenodd" d="M170.574 25.7505C168.499 22.8329 165.862 20.2237 160.443 19.0848C158.364 19.0619 157.829 21.9477 155.591 21.6531C155.184 19.119 157.033 15.2841 158.804 14.5191C157.704 13.6708 156.652 12.8146 154.912 12.2995C138.609 30.5976 184.977 39.1057 178.904 21.713C175.684 22.2161 174.49 26.5596 170.574 25.7505Z" fill="#E3DDD7"/>
<path fill-rule="evenodd" clip-rule="evenodd" d="M260.839 55.5682C259.199 60.2749 254.471 59.1777 252.429 63.1398C253.23 64.6558 254.412 63.1582 255.805 63.666C256.657 59.1588 260.332 59.9869 262.263 57.534C261.431 57.066 262.456 55.6248 260.839 55.5682Z" fill="#E3DDD7"/>
<path fill-rule="evenodd" clip-rule="evenodd" d="M228.468 55.2488C226.522 57.4267 225.388 61.1559 222.161 60.9207C221.194 55.7524 213.131 54.9192 211.25 60.1024C207.984 58.5925 206.866 55.9531 202.695 54.9292C202.96 67.7566 228.349 71.4034 231.289 57.634C230.308 56.8683 230.634 55.3982 228.468 55.2488Z" fill="#E3DDD7"/>
<path fill-rule="evenodd" clip-rule="evenodd" d="M302.134 83.0081C303.285 83.6576 305.08 81.8236 304.237 81.1152C303.75 82.1632 302.364 81.4788 302.134 83.0081Z" fill="#E3DDD7"/>
<path fill-rule="evenodd" clip-rule="evenodd" d="M100.269 36.6007C99.3545 30.7695 90.1817 33.805 88.5768 28.4376C79.3248 39.63 103.59 48.2978 108.114 37.4899C106.242 33.9615 102.893 37.0302 100.269 36.6007Z" fill="#E3DDD7"/>
<path fill-rule="evenodd" clip-rule="evenodd" d="M300.59 102.833C300.18 99.582 293.802 97.4956 290.358 98.1564C290.378 96.7317 291.378 97.1584 291.532 95.9819C289.608 95.0625 288.345 92.153 286.546 92.4161C280.404 104.54 304.898 114.259 311.35 104.112C308.857 100.646 305.078 105.377 300.59 102.833Z" fill="#E3DDD7"/>
<path fill-rule="evenodd" clip-rule="evenodd" d="M391.041 133.718C387.738 130.053 381.273 129.383 377.965 131.719C376.794 130.664 376.913 128.917 374.965 128.261C374.368 129.084 373.232 128.887 372.539 129.542C371.356 133.286 375.9 133.979 375.177 137.463C384.319 142.87 400.569 138.741 396.894 127.903C394.904 129.768 393.5 132.728 391.041 133.718Z" fill="#E3DDD7"/>
<path fill-rule="evenodd" clip-rule="evenodd" d="M417.182 149.373C420.691 151.656 423.639 154.234 424.735 157.8C425.068 157.184 425.922 157.579 426.419 157.297C426.705 152.846 421.647 146.677 417.182 149.373Z" fill="#E3DDD7"/>
<path fill-rule="evenodd" clip-rule="evenodd" d="M128.361 70.6329C126.075 89.738 149.773 80.7352 153.5 69.7433C146.94 66.6724 140.666 76.0696 132.289 74.3795C131.189 73.019 131.021 71.1623 128.361 70.6329Z" fill="#E3DDD7"/>
<path fill-rule="evenodd" clip-rule="evenodd" d="M420.312 158.966C420.169 159.427 420.024 159.895 419.881 160.355C421.615 169.446 423.508 176.398 418.991 187.999C409.62 212.089 392.701 232.055 374.93 245.5C364.495 253.39 350.403 254.814 343.485 265.26C348.841 264.248 353.791 260.223 359.703 257.058C365.222 254.105 371.924 251.819 376.527 248.531C380.629 245.607 384.525 239.893 389.717 235.331C406.929 220.227 433.923 183.2 421.695 159.391C421.234 159.247 420.766 159.109 420.312 158.966Z" fill="#E3DDD7"/>
<path fill-rule="evenodd" clip-rule="evenodd" d="M197.201 109.079C197.404 111.951 200.267 113.405 198.78 117.174C201.41 120.821 204.592 116.51 207.661 116.357C211.76 116.15 217.648 120.398 219.278 114.857C212.649 112.993 204.166 104.353 197.201 109.079Z" fill="#E3DDD7"/>
<path fill-rule="evenodd" clip-rule="evenodd" d="M78.2095 83.6118C72.6489 78.6801 67.1459 83.3898 63.8719 87.3209C59.4531 87.0048 59.2869 82.335 55.8128 83.8252C58.534 96.9392 82.5649 94.6404 86.4733 83.1034C84.8323 77.2947 81.125 83.2567 78.2095 83.6118Z" fill="#E3DDD7"/>
<path fill-rule="evenodd" clip-rule="evenodd" d="M303.979 156.159C303.685 157.073 302.536 156.355 302.482 157.721C303.252 157.957 304.029 158.193 304.8 158.428C305.227 157.305 304.54 156.772 303.979 156.159Z" fill="#E3DDD7"/>
<path fill-rule="evenodd" clip-rule="evenodd" d="M347.827 181.842C346.791 179.547 347.475 176.33 347.939 173.238C346.884 172.757 346.425 171.971 344.846 171.769C339.367 186.744 351.185 209.473 368.878 202.518C358.021 197.992 360.544 182.855 347.827 181.842ZM354.609 196.103C356.714 195.678 358.161 197.108 358.955 198.459C357.807 199.039 353.822 197.832 354.609 196.103Z" fill="#E3DDD7"/>
<path fill-rule="evenodd" clip-rule="evenodd" d="M137.455 131.806C131.466 132.238 124.771 129.492 119.562 133.909C118.367 132.483 116.162 129.919 114.109 130.192C116.725 146.476 142.906 142.399 147.049 128.671C143.127 125.28 141.456 131.506 137.455 131.806Z" fill="#E3DDD7"/>
<path fill-rule="evenodd" clip-rule="evenodd" d="M39.3076 99.5629C38.7534 99.9746 38.3157 100.612 38.1336 101.737C39.4558 102.496 38.9161 102.329 40.4515 102.444C40.9299 101.409 40.9324 100.645 40.6976 99.9815C40.2362 99.8445 39.7682 99.7066 39.3076 99.5629Z" fill="#E3DDD7"/>
<path fill-rule="evenodd" clip-rule="evenodd" d="M37.385 161.907C59.3359 184.535 84.9847 208.602 112.325 225.066C79.7839 195.335 40.2914 169.294 19.8366 133.154C19.1661 144.266 29.9272 154.229 37.385 161.907Z" fill="#E3DDD7"/>
<path fill-rule="evenodd" clip-rule="evenodd" d="M343.879 235.937C345.53 236.858 345.978 235.505 346.766 234.793C345.114 233.879 344.673 235.233 343.879 235.937Z" fill="#E3DDD7"/>
<path fill-rule="evenodd" clip-rule="evenodd" d="M217.57 278.789C193.392 273.457 174.653 264.172 156.145 255.816C146.561 251.49 136.065 248.345 125.944 243.476C106.27 234.025 88.9317 216.728 74.0694 202.642C64.3877 193.469 54.4145 186.167 45.5502 176.607C33.2273 163.316 17.1216 154.046 13.6692 138.366C11.8581 143.878 15.2308 150.16 18.0304 153.922C23.093 160.74 33.0523 167.071 40.1242 174.437C60.5315 195.644 82.9607 218.726 108.444 236.06C127.227 248.86 151.108 256.963 173.578 266.775C196.247 276.693 222.556 283.959 246.406 285.64C238.324 281.821 227.732 281.02 217.57 278.789Z" fill="#E3DDD7"/>
<path fill-rule="evenodd" clip-rule="evenodd" d="M264.883 275.072C252.483 273.243 238.398 268.652 225.238 265.414C161.375 249.661 110.562 223.381 83.8121 185.835C83.623 186.447 83.4323 187.073 83.2424 187.692C90.0552 203.808 107.41 216.962 126.063 228.278C156.426 246.701 190.476 259.897 230.693 269.111C249.353 273.388 267.774 279.733 284.919 279.206C277.693 276.5 270.141 275.85 264.883 275.072Z" fill="#E3DDD7"/>
<path fill-rule="evenodd" clip-rule="evenodd" d="M334.937 266.694C326.519 273.473 312.832 266.301 300.069 264.592C284.336 262.488 266.206 263.893 251.979 260.958C278.999 266.323 304.959 268.337 331.366 271.689C332.646 269.766 337.214 270.776 336.326 267.126C335.859 266.975 335.399 266.831 334.937 266.694Z" fill="#E3DDD7"/>
<path fill-rule="evenodd" clip-rule="evenodd" d="M123.342 217.304C130.353 228.212 153.494 239.607 170.474 238.911C150.383 233.93 136.625 225.063 123.342 217.304Z" fill="#E3DDD7"/>
<path fill-rule="evenodd" clip-rule="evenodd" d="M263.132 318.693C260.599 318.308 258.306 318.362 256.712 319.763C258.068 320.587 261.684 320.076 263.132 318.693Z" fill="#E3DDD7"/>
<path fill-rule="evenodd" clip-rule="evenodd" d="M-33.9865 271.906C-36.2079 274.051 -38.9337 275.276 -40.8986 277.902C-32.8846 278.572 -22.0328 270.616 -18.338 265.561C-23.9526 266.515 -27.8744 274.275 -33.9865 271.906Z" fill="#E3DDD7"/>
<path fill-rule="evenodd" clip-rule="evenodd" d="M-18.5772 274.62C-23.1183 277.56 -30.3919 279.15 -33.5868 282.189C-28.5088 282.7 -22.724 278.318 -17.9375 275.837C-17.8197 275.25 -17.7463 274.692 -18.5772 274.62Z" fill="#E3DDD7"/>
<path fill-rule="evenodd" clip-rule="evenodd" d="M-16.8369 277.188C-20.8279 281.409 -28.7222 285.97 -29.7114 291C-25.4379 290.131 -17.7414 282.024 -16.8369 277.188Z" fill="#E3DDD7"/>
<path fill-rule="evenodd" clip-rule="evenodd" d="M25.9884 311.18C31.7941 307.709 40.3669 303.181 46.3756 297.665C38.6503 299.952 29.933 304.202 25.9884 311.18Z" fill="#E3DDD7"/>
<path fill-rule="evenodd" clip-rule="evenodd" d="M-0.0846549 298.589C5.08195 303.105 12.7839 294.322 18.1759 292.03C17.5513 291.717 17.6332 291.03 17.0681 290.676C12.068 294.66 4.84408 294.46 -0.0846549 298.589Z" fill="#E3DDD7"/>
<path fill-rule="evenodd" clip-rule="evenodd" d="M314.474 382.718C309.417 386.381 301.324 392.031 300.11 398.086C305.653 394.877 311.934 389.195 314.474 382.718Z" fill="#E3DDD7"/>
<path fill-rule="evenodd" clip-rule="evenodd" d="M304.701 404.584C309.296 398.845 315.111 395.415 319.534 389.347C318.951 389.141 319.068 388.554 318.281 388.46C313.974 393.333 305.117 397.205 304.701 404.584Z" fill="#E3DDD7"/>
<path fill-rule="evenodd" clip-rule="evenodd" d="M99.4183 329.732C95.2909 332.865 86.5888 338.476 88.1204 345.029C91.1458 338.549 96.8372 337.064 100.058 330.948C100.125 330.39 99.7748 330.061 99.4183 329.732Z" fill="#E3DDD7"/>
<path fill-rule="evenodd" clip-rule="evenodd" d="M200.541 363.9C192.326 368.402 182.163 369.264 174.082 374.021C174.315 375.326 175.526 376.105 176.751 376.88C184.339 371.907 193.526 369.952 201.175 365.103C201.233 364.563 200.884 364.228 200.541 363.9Z" fill="#E3DDD7"/>
<path fill-rule="evenodd" clip-rule="evenodd" d="M249.706 387.155C243.479 392.502 232.735 397.091 230.16 404.486C236.477 399.245 247.073 394.468 249.706 387.155Z" fill="#E3DDD7"/>
<path fill-rule="evenodd" clip-rule="evenodd" d="M170.727 368.421C164.787 374.048 157.681 377.494 152.548 384.652C159.141 381.219 168.924 376.038 170.727 368.421Z" fill="#E3DDD7"/>
<path fill-rule="evenodd" clip-rule="evenodd" d="M488.026 293.512C486.34 283.048 483.437 271.175 479 261.803C488.253 258.435 484.627 243.984 482.248 236.408C477.599 221.609 462.4 205.933 448.482 196.063C453.349 180.155 445.408 171.033 441.356 159.863C431.136 154.689 428.207 140.683 413.475 141.634C408.001 125.679 389.794 101.764 367.052 111.106C369.353 99.0286 366.438 91.8251 362.983 81.4298C358.666 68.4188 349.236 53.7114 337.923 45.7985C322.805 35.2256 302.972 43.2903 292.003 49.9418C283.973 42.2571 278.742 28.6112 266.516 22.2894C249.267 13.3943 233.66 17.6209 220.772 20.9024C216.102 26.8108 206.824 27.6966 205.831 38.141C208.035 40.3093 209.952 37.6841 212.424 38.1296C210.162 35.4695 212.049 31.721 214.99 29.7848C214.997 31.6155 216.128 33.7444 217.138 36.0296C205.986 43.8132 189.28 41.0668 179.449 51.3298C178.666 48.7439 176.068 50.5504 173.886 49.6207C174.934 48.4484 175.347 46.9274 174.564 45.7687C168.38 46.2933 162.757 51.7806 157.527 51.6818C159.256 48.8087 165.183 47.8029 163.302 42.8054C158.953 41.6168 154.394 47.2244 151.995 44.9099C154.717 43.6031 158.897 41.4599 158.879 37.3813C149.169 42.7425 139.804 56.5434 127.471 52.0866C133.267 51.0444 136.73 45.6405 141.841 43.3012C140.543 42.3951 139.285 45.2151 138.783 43.3661C142.922 38.7052 149.871 35.5475 152.426 30.3152C145.534 31.7385 140.264 42.5051 132.362 44.4428C133.237 36.7633 142.124 38.0091 145.588 32.7759C141.63 32.945 138.215 37.829 134.783 36.5655C137.559 34.1727 142.558 30.031 141.739 25.5086C137.162 24.6888 132.742 28.0461 129.511 27.3257C132.325 23.3601 136.275 21.5376 138.454 16.3763C135.887 14.1511 133.198 17.5307 130.825 18.0872C132.837 19.4131 134.211 15.733 135.424 17.9742C133.823 19.845 132.412 22.0594 130.326 23.012C128.572 18.6647 126.044 21.0873 123.058 20.2595C124.896 16.4095 127.605 14.1861 131.503 14.2351C132.987 12.3776 134.775 11.1231 135.816 8.45482C152.064 -1.42411 176.113 8.53572 189.047 21.7974C194.902 27.8022 192.284 39.2269 200.346 39.4933C198.227 33.9758 197.523 25.1723 192.688 19.8767C190.086 17.0327 185.768 15.1308 182.991 11.8084C179.422 7.57211 177.6 4.07708 173.25 2.21914C164.068 -1.70432 146.108 0.0427395 137.242 3.82496C129.446 7.16141 124.367 15.1788 116.918 20.4139C115.918 22.5067 118.673 24.6384 117.354 25.6279C95.4684 12.0618 69.4132 11.4217 57.7767 29.6149C52.6084 28.8884 45.9291 25.3253 42.5488 27.9737C30.8015 20.5552 15.0135 24.0092 7.72672 34.0024C-2.59751 26.4397 -14.6517 27.6561 -27.5078 29.76C-45.154 32.6575 -63.2689 47.1477 -62.3295 68.7889C-78.1103 66.8632 -97.9302 82.9455 -103.688 97.6825C-108.251 109.387 -100.096 122.379 -91.7744 128.248C-115.879 142.89 -104.057 188.118 -76.3332 191.879C-77.0474 194.204 -77.7608 196.523 -78.4734 198.834C-75.2814 216.811 -71.2086 234.327 -54.0861 244.914C-52.6017 289.672 -43.8175 330.563 -4.88088 355.486C-3.70634 355.995 -3.9623 353.793 -2.59916 354.666C11.3289 365.486 22.1493 383.876 45.6739 385.763C55.8948 399.398 81.8664 415.896 102.542 410.377C108.041 434.071 147.396 439.065 165.961 433.451C175.231 442.581 196.154 440.874 208.239 444.434C218.234 447.382 226.464 440.062 234.186 439.23C255.307 452.11 275.441 438.776 293.477 436.158C305.799 424.349 324.219 428.747 338.997 421.745C344.85 418.968 351.89 413.159 358.176 408.864C377.456 395.707 395.654 378.455 411.539 362.353C421.174 352.586 445.034 349.775 442.982 329.387C461.576 327.928 485.606 322.317 488.257 297.643C488.37 296.693 488.17 294.423 488.026 293.512ZM383.806 112.711C394.208 115.107 402.714 126.126 406.878 135.036C412.023 146.083 418.364 172.849 402.139 181.795C397.83 184.162 393.73 190.323 386.532 189.675C390.77 181.325 399.092 180.673 404.106 173.768C396.362 175.015 392.302 183.242 383.922 183.293C386.186 177.302 391.204 176.543 394.729 172.914C390.578 171.265 387.13 177.06 382.716 177.331C380.888 178.349 384.239 178.811 382.628 180.871C374.642 175.336 388.564 170.929 391.341 165.784C386.934 164.8 383.213 171.45 379.256 173.729C377.399 172.647 377.357 170.594 376.689 168.875C379.893 166.383 384.024 165.627 386.162 161.144C379.705 159.895 379.801 167.042 374.371 168.168C372.596 167.424 372.315 165.895 371.379 164.704C373.578 160.508 379.666 159.938 380.033 154.683C377.832 154.427 376.751 156.285 374.542 156.035C374.674 157.621 376.517 155.902 376.716 157.209C373.989 159.301 371.142 163.713 367.617 162.029C366.751 160.3 368.638 159.645 369.217 158.458C367.735 158.288 365.55 159.215 364.444 157.499C364.836 152.848 370.466 152.448 372.682 148.862C369.946 148.514 363.933 150.862 362.985 153.999C361.427 152.877 358.919 152.271 357.848 150.893C360.162 145.973 364.685 145.244 367.756 141.759C363.639 141.315 359.195 146.588 355.675 149.719C354.236 146.508 352.098 149.326 349.796 147.398C354.659 141.929 359.85 137.094 365.082 132.304C358.066 132.995 353.445 144.502 345.616 146.107C345.664 144.221 347.179 145.14 347.409 143.61C346.663 143.05 344.859 144.678 343.697 142.464C346.096 139.452 347.901 143.778 350.757 142.604C352.075 132.874 359.942 129.853 364.906 124.629C361.893 113.337 374.23 110.488 383.806 112.711ZM385.056 192.783C389.553 192.958 391.847 189.005 396.011 188.54C395.26 192.998 389.772 194.841 386.371 196.743C385.433 195.689 384.735 194.499 385.056 192.783ZM381.349 211.438C381.288 209.144 380.988 206.971 382.1 204.058C383.76 205.704 382.684 209.29 381.349 211.438ZM384.921 186.649C384.731 187.268 384.541 187.887 384.351 188.506C382.837 188.271 382.401 187.461 383.065 186.079C383.677 186.268 384.289 186.457 384.921 186.649ZM377.431 181.302C374.369 180.192 373.174 174.765 371.836 171.45C375.939 173.559 375.717 177.936 377.431 181.302ZM358.994 160.398C354.995 157.988 349.643 156.291 348.229 152.523C352.676 149.914 353.97 155.947 359.204 156.402C359.768 157.398 359.763 158.694 358.994 160.398ZM335.064 48.4751C332.7 49.1896 329.999 46.7708 327.659 46.1909C329.913 44.6916 333.497 46.7994 335.064 48.4751ZM343.554 57.1707C360.186 73.2981 371.126 104.587 352.189 131.399C346.77 132.432 342.434 139.315 337.324 138.5C339.914 129.947 348.993 127.358 353.606 120.159C346.927 122.195 342.859 129.179 335.422 129.793C337.775 120.767 347.161 118.747 352.039 112.071C345.62 112.445 340.318 121.187 333.101 122.476C333.315 121.6 333.276 120.837 332.749 120.331C336.322 114.066 344.117 112.109 346.688 106.352C341.429 108.155 337.904 113.217 332.14 114.051C333.933 107.382 340.95 104.335 344.834 99.1797C339.078 97.1471 335.076 104.658 328.689 103.854C331.732 99.1103 336.075 96.8022 339.309 92.4087C338.692 90.6007 336.932 92.7667 335.452 91.7296C335.738 96.8848 327.959 98.2432 326.069 104.074C324.568 103.041 322.976 100.031 323.51 99.214C325.94 97.2099 329.095 96.5626 331.535 94.5871C328.18 92.9094 325.373 98.583 321.019 97.4416C321.74 91.28 330.658 90.8976 331.46 84.9231C328.392 84.4953 326.844 86.946 324.154 87.2393C323.322 88.7172 325.864 88.4063 324.829 89.9897C322.77 91.4577 321.07 93.6376 318.81 94.7333C317.684 94.1618 316.877 93.4305 316.45 92.4918C318.229 90.2256 321.371 90.5395 323.267 88.4989C319.756 87.4924 318.708 91.1295 315.17 90.0652C315.558 86.4721 320.154 87.5264 319.159 83.6862C315.383 83.1327 313.932 86.9949 311.464 88.926C310.041 88.3805 307.968 88.1944 307.434 87.1815C309.668 82.1225 314.323 81.6064 316.701 76.8308C312.084 78.8604 308.7 83.2017 304.649 86.3232C301.897 85.1956 299.108 84.0909 297.202 82.5045C300.669 76.0973 307.97 73.0773 310.177 66.704C305.125 70.8393 299.776 74.4271 293.209 75.698C297.14 67.9806 302.787 63.493 306.871 56.0328C303.181 60.0714 298.157 61.5676 294.028 64.7753C294.634 61.3517 294.921 58.0948 294.427 55.25C305.67 47.9621 329.484 43.5343 343.554 57.1707ZM340.064 144.42C340.257 142.579 341.277 142.325 342.634 142.671C342.336 144.316 341.682 145.275 340.064 144.42ZM333.682 140.428C329.916 139.445 332.794 134.941 332.715 132.003C334.363 132.828 335.151 133.55 336.248 132.076C338.097 134.195 332.492 137.015 333.682 140.428ZM333.034 126.011C333.269 125.241 333.504 124.47 333.747 123.693C335.397 123.426 334.247 127.167 333.034 126.011ZM291.573 156.907C292.553 155.215 293.03 154.193 292.395 152.594C286.287 154.48 284.008 163.624 278.14 165.961C278.391 159.969 285.415 156.868 285.76 151.058C279.968 154.306 276.33 165.458 270.469 166.138C273.277 159.188 280.34 156.501 282.047 149.918C273.907 154.08 268.779 163.942 259.731 166.392C263.19 156.788 271.95 157.213 275.887 148.526C267.513 150.531 262.973 159.807 256.169 164.785C254.439 164.414 253.183 163.786 252.139 163.04C255.815 153.852 262.887 151.091 267.332 143.353C262.669 144.339 258.243 152.093 252.214 152.916C255.913 144.393 266.194 140.875 267.552 132.755C260.128 136.58 253.879 142.621 246.869 147.205C251.063 147.576 255.199 141.454 259.416 139.397C257.221 146.01 249.337 148.196 246.296 155.665C246.273 156.317 246.889 156.65 246.799 157.343C249.866 158.747 251.643 157.703 252.889 155.667C253.302 157.922 250.3 160.035 249.366 162.197C243.672 161.189 244.967 156.51 239.235 155.531C239.703 150.412 247.963 151.248 245.005 146.641C250.326 136.652 258.498 132.049 264.396 123.174C257.863 126.962 252.556 133.06 245.361 135.594C249.069 127.68 257.451 122.29 262.506 114.474C260.337 114.29 257.201 118.614 254.026 118.965C254.754 124.303 247.865 126.505 245.716 131.13C244.093 130.431 245.004 128.403 244.393 127.176C245.203 125.532 246.756 125.273 247.855 124.182C247.911 122.113 245.83 123.428 244.294 122.569C249.481 114.278 255.856 108.259 261.259 100.383C256.266 100.476 255.523 108.594 249.597 106.951C249.869 106.158 249.623 105.643 249.095 105.266C253.082 104.739 254.792 99.9038 258.295 98.4581C258.494 96.8432 256.746 97.2557 255.654 97.139C267.55 87.5869 284.633 78.4837 301.647 89.4606C301.464 91.1116 301.477 92.6564 302.352 93.7372C319.41 91.1929 323.564 109.797 328.883 119.678C327.211 126.764 328.929 135.36 324.498 142.185C310.978 142.243 301.184 149.397 291.573 156.907ZM319.099 146.593C318.176 149.296 309.971 150.795 305.415 151.52C309.103 148.233 314.246 147.686 319.099 146.593ZM251.228 241.946C254.026 238.914 257.234 239.768 257.114 244.261C255.058 245.995 252.293 246.402 250.304 248.254C248.659 246.317 251.534 244.359 251.228 241.946ZM261.88 225.424C261.252 223.485 262.887 218.99 265.093 218.29C266.723 220.527 262.558 222.829 261.88 225.424ZM264.272 216.014C258.467 220.681 255.602 230.909 250.655 237.194C248.755 233.553 255.506 228.337 253.575 224.392C250.541 223.053 250.374 227.136 247.802 226.672C248.493 224.884 248.609 223.396 247.545 222.531C240.385 226.087 237.85 238.409 230.509 241.65C231.002 232.088 241.421 227.877 241.666 220.211C239.528 219.832 238.588 221.755 237.288 222.931C235.908 222.882 236.634 221.72 235.713 221.432C229.299 225.712 223 230.17 216.533 234.32C217.711 227.708 226.109 224.594 227.516 218.405C219.486 222.785 214.013 231.991 205.199 234.885C209.219 228.305 215.004 225.063 218.929 218.301C212.149 220.161 207.953 226.898 201.385 229.152C204.937 222.666 210.928 220.78 214.541 214.411C209.242 217.24 205.829 219.078 199.964 220.583C201.751 215.164 205.413 213.293 207.98 209.346C204.264 210.117 192.923 219.141 197.01 225.263C200.8 225.36 201.759 220.067 205.629 220.297C203.224 224.325 199.468 225.768 197.111 229.857C194.061 227.335 194.21 223.112 192.579 219.845C194.503 218.081 197.024 217.487 198.606 215.095C197.702 213.69 195.938 216.866 193.862 215.669C193.791 212.438 198.171 211.704 199.205 208.182C195.351 208.452 193.543 212.626 190.933 215.278C189.84 213.919 189.351 212.242 189.437 210.258C191.184 211.116 192.119 210.435 193.108 209.864C192.515 203.395 197.826 201.209 200.31 196.351C195.224 197.963 191.154 201.532 188.94 208.588C179.992 181.483 212.198 163.118 230.257 158.365C234.421 160.071 241.155 160.95 244.808 163.851C231.018 169.319 211.899 164.714 202.03 177.588C206.165 176.108 209.629 173.381 214.187 172.703C217.637 185.542 235.18 187.057 242.031 176.199C242.553 174.623 241.209 174.053 240.434 173.168C237.81 173.08 236.346 175.227 234.373 176.377C228.552 175.061 224.609 173.04 220.678 174.701C219.319 174.648 220.031 173.49 219.11 173.196C225.678 169.515 237.349 167.966 245.676 167.67C265.042 167.005 275.389 188.848 274.609 205.511C270.608 208.557 270.791 215.257 266.312 217.678C264.777 217.556 265.797 216.101 264.272 216.014ZM237.854 247.471C239.929 246.271 240.897 242.959 244.06 243.794C245.756 244.966 245.331 247.271 245.411 249.288C237.578 250.36 226.745 249.694 217.567 245.792C224.526 246.951 231.84 245.769 237.854 247.471ZM220.987 241.264C224.044 237.498 227.973 235.393 230.723 231.051C231.725 233.806 227.203 238.476 226.227 242.367C224.973 242.921 222.738 241.637 220.987 241.264ZM242.88 239.379C243.485 236.713 246.57 232.766 248.333 229.884C249.872 232.259 246.178 236.905 245.335 239.624C244.153 238.834 243.943 239.909 242.88 239.379ZM217.54 237.663C216.525 235.705 219.827 235.663 220.213 233.913C220.913 235.308 218.182 236.408 217.54 237.663ZM213.256 244.977C210.868 243.654 206.834 243.199 207.011 240.516C209.674 241.702 214.772 241.587 213.256 244.977ZM207.373 236.053C207.786 234.88 209.384 235.952 209.797 234.779C210.579 235.145 210.613 235.894 210.156 236.918C209.366 237.363 207.773 236.872 207.373 236.053ZM203.879 151.732C197.144 160.023 190.548 168.576 184.876 178.878C183.645 178.499 182.181 178.242 181.782 177.409C183.557 174.426 186.55 173.711 188.054 170.203C184.209 170.509 183.198 176.179 179.135 176.089C184.005 167.699 189.879 161.197 194.228 151.802C188.451 155.318 183.393 166.54 176.717 170.782C176.912 161.253 187.821 151.788 187.374 141.069C184.033 144.753 181.269 149.564 177.999 153.4C176.127 150.22 175.974 144.173 178.003 140.209C176.04 136.076 172.707 132.66 170.99 128.406C170.24 128.459 169.629 128.776 169.163 129.362C169.858 135.208 176.745 137.771 173.834 145.522C169.842 140.777 168.558 134.602 163.21 130.576C163.943 126.321 162.415 120.881 166.776 118.992C166.881 118.287 165.441 118.402 165.675 117.638C167.662 110.883 171.052 106.781 176.289 106.185C188.963 80.8435 235.832 96.7107 237.538 121.482C245.029 127.675 238.064 143.156 233.941 151.342C233.241 150.289 234.523 148.182 233.079 147.524C229.626 147.583 228.015 151.132 225.067 152.16C223.871 151.375 225.393 149.14 224.823 148.027C218.387 149.798 214.981 157.298 208.991 159.915C210.164 156.778 211.948 156.922 212.06 153.242C209.176 154.133 208.228 158.704 204.817 158.631C204.464 161.02 204.299 161.546 203.254 163.723C198.396 162.856 197.404 169.285 193.916 171.006C195.233 164.485 203.54 157.782 203.879 151.732ZM173.402 179.918C176.501 181.626 180.487 181.283 183.455 183.522C179.044 187.829 180.733 194.436 180.778 200.464C176.522 200.727 170.818 198.257 165.666 196.822C168.087 193.404 173.777 186.845 173.402 179.918ZM179.316 170.566C178.902 171.978 178.648 173.703 177.07 172.913C177.484 171.508 177.743 169.791 179.316 170.566ZM186.096 184.841C186.095 186.166 184.452 189.807 183.488 191.651C181.195 190.34 183.285 184.546 186.096 184.841ZM164.485 179.208C158.004 181.138 155.773 191.079 149.467 193.365C150.729 188.743 155.628 185.374 154.719 181.271C145.13 183.957 140.342 195.662 132.005 200.675C132.354 193.001 144.289 187.803 141.519 181.279C135.479 183.05 132.223 190.097 126.444 192.37C128.086 187.588 132.961 185.221 133.53 180.851C125.779 180.266 119.795 193.358 111.501 196.403C114.427 188.982 118.974 184.622 121.944 177.289C115.899 180.766 112.681 189.6 108.436 196.467C106.531 195.673 105.823 194.229 104.371 193.189C107.704 188.247 112.424 185.923 116.064 181.557C112.492 182.148 108.603 188.491 103.654 188.904C105.165 181.041 112.907 175.356 114.343 167.327C108.984 173.569 104.245 180.972 99.9885 189.306C97.5824 188.766 96.9824 187.274 96.5283 185.704C100.738 181.195 105.214 177.196 108.61 171.155C104.025 175.21 99.8641 180.053 95.4204 184.349C94.8939 177.151 105.602 166.972 105.866 158.633C100.524 164.686 97.9179 175.887 91.9526 180.753C90.7256 179.712 90.2897 178.274 89.5647 176.972C92.6841 169.417 98.5268 167.008 101.907 159.956C97.4552 162.777 94.6829 168.796 89.8913 170.975C92.6469 162.694 100.047 153.063 102.613 144.431C100.598 145.017 99.5242 147.38 98.1201 149.138C97.0965 146.735 101.477 145.087 98.9132 143.293C95.2992 146.985 92.384 151.97 89.249 156.566C88.8586 157.551 90.8291 157.281 91.4225 157.741C93.1714 157.383 93.4242 154.177 94.8428 153.213C95.1922 157.72 89.8814 163.736 87.6825 168.267C86.0278 162.115 84.2275 156.383 88.7484 148.292C99.1287 129.703 119.029 111.343 147.075 123.61C157.122 128.006 163.097 136.046 169.183 144.12C170.241 152.877 168.34 163.199 172.247 170.439C169.487 183.561 166.287 194.192 157.244 197.803C157.272 190.705 165.142 185.254 164.485 179.208ZM153.754 199.251C152.316 199.98 150.126 202.259 148.738 200.741C150.85 197.681 152.828 194.312 155.11 191.546C155.637 193.596 153.418 197.094 153.754 199.251ZM146.168 202.489C142.231 203.624 138.32 204.775 133.471 204.168C138.848 196.74 144.888 190.565 150.802 184.129C150.227 189.345 140.922 197.151 146.168 202.489ZM128.088 203.532C123.661 203.393 117.131 200.353 114.184 199.256C117.636 193.776 123.994 187.503 129.297 183.097C128.153 188.566 119.548 193.083 120.179 199.576C128.082 200.09 130.393 190.042 136.291 186.772C135.72 192.87 126.105 197.157 128.088 203.532ZM104.34 198.251C99.924 197.225 95.4258 192.885 93.3962 189.304C96.427 192.615 101.032 195.091 104.34 198.251ZM160.132 124.063C159.851 124.986 159.563 125.914 159.274 126.849C154.975 125.755 154.019 122.903 151.468 120.885C153.361 119.322 155.548 118.32 157.356 116.61C157.911 116.704 158.152 116.972 158.139 117.366C157.641 119.369 156.159 119.492 155.785 121.714C155.919 123.676 158.203 123.929 160.132 124.063ZM172.788 153.836C174.401 157.136 176.001 160.427 174.28 165.465C172.942 162.042 172.449 158.166 172.788 153.836ZM209.934 89.1452C211.999 87.9169 213.624 85.8442 216.457 86.0732C214.67 87.4917 212.024 90.6785 209.934 89.1452ZM215.821 91.4597C217.282 90.3096 218.994 89.6332 220.982 89.5019C219.792 90.8961 217.724 93.7559 215.821 91.4597ZM222.196 95.4509C224.563 91.1177 230.004 92.5938 233.11 89.6668C233.672 89.7612 233.913 90.029 233.893 90.4227C231.726 93.6598 228.043 94.0393 225.765 97.0584C224.114 96.7656 223.221 96.0717 222.196 95.4509ZM249.683 110.007C250.432 113.224 244.64 116.52 243.021 120.143C241.081 117.924 239.248 115.671 239.311 112.394C244.058 115.74 246.474 111.617 249.683 110.007ZM243.415 110.603C244.112 108.993 245.084 107.887 246.726 108.076C247.526 110.125 245.433 111.595 243.415 110.603ZM230.189 155.271C228.85 155.684 227.19 155.472 225.591 155.37C226.031 152.541 227.97 152.54 229.006 150.834C230.873 151.542 229.873 153.751 230.189 155.271ZM239.355 146.922C239.635 145.262 240.327 144.375 240.954 143.357C242.073 144.27 241.05 147.295 239.355 146.922ZM277.539 192.683C275.16 188.248 273.525 183.423 271.087 179.028C272.292 177.396 274.249 177.18 276.567 177.661C272.624 183.65 278.134 188.609 277.539 192.683ZM279.533 172.997C273.409 173.809 265.079 175.443 262.096 168.641C263.91 166.194 266.481 165.183 268.41 162.969C268.849 165.07 266.586 168.596 268.881 169.717C271.709 170.902 272.581 168.397 273.871 166.681C275.584 167.711 274.222 170.376 277.187 170.743C280.406 170.479 281.143 165.501 283.452 163.537C285.177 166.986 280.777 170.4 279.533 172.997ZM267.055 223.462C271.509 228.118 266.978 234.172 263.422 238.582C263.605 234.364 264.077 226.684 267.055 223.462ZM281.416 181.689C285.111 183.782 286.26 181.079 288.117 179.696C288.679 179.791 288.913 180.058 288.908 180.446C287.251 182.952 285.09 184.476 283.048 186.26C280.467 185.815 280.923 183.767 281.416 181.689ZM283.274 175.67C284.035 172.954 285.47 171.507 286.983 170.213C287.539 170.3 287.766 170.573 287.76 170.961C286.648 173.246 285.508 175.479 283.274 175.67ZM246.016 136.793C248.564 137.288 249.97 132.308 251.92 134.043C249.882 136.305 248.498 139.786 245.475 140.183C245.665 139.045 245.28 138.214 246.016 136.793ZM260.879 83.4923C260.95 82.5517 260.235 82.0225 260.671 80.8932C268.621 81.9794 273.728 73.8424 280.314 74.7587C276.108 81.979 266.942 79.8055 260.879 83.4923ZM270.861 84.0289C268.592 86.1137 266.148 87.8361 262.661 87.604C264.628 84.9642 267.81 84.6068 270.861 84.0289ZM260.174 79.2224C259.352 77.3012 261.525 76.359 263.342 77.1496C262.851 78.9208 261.672 79.3672 260.174 79.2224ZM291.324 80.1773C295.174 78.1654 298.422 75.0233 302.2 72.873C301.452 76.3411 296.794 78.7687 294.425 81.6402C292.675 80.8645 291.715 81.8764 291.324 80.1773ZM328.009 107.72C330.74 106.284 332.499 102.985 336.36 103.685C334.882 107.257 332.131 108.41 330.404 111.502C328.455 110.846 328.014 109.4 328.009 107.72ZM283.909 44.9123C287.227 49.3031 291.232 56.1179 290.719 60.7065C289.974 67.4661 286.61 73.353 287.802 80.1187C285.095 80.3826 282 79.8969 278.893 79.4028C280.818 77.8507 284.658 75.6941 283.487 72.7001C278.045 70.9508 276.157 75.9625 271.438 75.59C272.57 70.7886 279.455 73.2565 279.243 68.3422C272.13 69.5616 267.562 75.5846 259.779 75.5496C262.394 71.6557 268.593 70.7779 269.687 66.4156C265.942 68.6313 262.666 71.7223 258.809 73.7267C256.984 72.8942 256.604 71.2783 255.355 70.1323C256.637 65.2257 260.709 65.5824 263.167 62.8852C263.893 61.7224 262.527 61.6685 262.807 60.7528C261.103 60.4537 259.916 61.1381 258.533 61.4578C258.917 65.3888 255.199 65.2043 253.291 66.9497C250.839 64.11 247.942 61.5039 247.559 57.5661C249.613 57.6817 250.323 58.5381 251.834 56.8545C252.051 55.9518 250.119 56.9296 249.063 56.0045C250.097 52.7073 255.459 54.1055 254.902 50.188C250.385 51.731 245.295 59.5011 240.248 53.2925C242.126 48.7645 246.858 49.6574 249.449 46.4776C245.179 45.2508 240.53 49.6732 237.003 52.2905C235.119 50.9798 236.651 49.7493 237.998 49.043C236.858 49.0434 235.241 49.7244 234.615 48.5093C236.722 45.8931 239.626 44.7787 241.994 42.6649C241.803 41.8569 241.752 40.97 240.57 40.699C237.461 42.2191 235.391 46.6969 231.219 47.9739C229.256 47.719 228.715 46.7121 227.204 46.2176C230.4 43.5129 231.483 40.7814 235.145 38.5149C235.581 37.3788 234.881 36.8445 234.327 36.2253C230.636 37.8125 228.55 42.4316 224.521 43.3639C222.004 41.6909 219.983 39.5854 216.606 39.4074C219.295 34.7167 224.217 34.2462 228.081 31.7717C228.545 29.7172 226.057 29.2289 225.226 27.8459C223.201 27.2559 221.096 29.4011 219.705 27.6714C238.949 10.298 270.774 27.5024 283.909 44.9123ZM219.775 30.7455C219.674 28.2753 222.903 30.1563 223.301 30.8252C223.18 32.3539 220.057 31.9331 219.775 30.7455ZM193.815 49.1536C194.164 48.0617 193.441 47.5452 194.205 46.2299C214.886 35.6856 245.554 57.3266 254.995 74.5821C256.921 78.1102 256.525 83.4912 257.415 86.4994C250.062 92.6406 243.533 100.348 237.391 108.751C233.836 106.236 232.873 102.352 228.903 100.048C230.276 96.771 233.632 97.2469 236.18 96.1992C237.178 97.9025 234.175 98.2471 234.292 100.692C234.003 102.146 236.333 103.38 237.71 102.759C235.797 99.0622 240.909 95.7466 243.816 94.4892C244.335 93.1719 243.431 92.6202 243.127 91.7372C238.392 92.8104 234.917 96.2533 229.897 96.8008C232.12 93.6727 235.598 92.8932 238.025 90.1718C238.461 89.0358 237.76 88.5015 237.212 87.8898C231.821 88.2292 227.818 91.1787 222.724 92.0589C225.502 87.4813 233.128 88.3169 234.171 82.8903C228.725 82.3764 225.735 86.4986 220.768 86.8886C221.428 83.9903 223.687 84.1031 225.117 82.642C225.118 79.8836 221.681 80.784 220.339 81.6753C219.464 79.973 222.48 79.4046 223.017 77.9325C222.963 77.1885 222.64 76.5764 222.054 76.1104C221.648 76.0824 221.449 76.4342 220.982 76.2829C214.058 83.9841 205.176 91.8476 194.462 89.9535C195.634 87.0482 197.573 85.559 199.38 83.8561C200.969 83.0627 200.59 85.496 201.746 86.1052C203.604 85.2279 204.974 83.4181 206.871 82.6137C206.184 81.6781 205.191 80.9108 204.058 80.2225C196.054 82.2162 191.688 91.063 183.484 92.671C185.833 88.0831 190 86.9079 192.283 82.1892C183.975 86.2702 179.172 97.0107 169.828 99.138C175.09 89.2923 184.386 83.1715 189.04 74.5914C182.772 80.3363 175.334 83.8727 169.148 89.7912C168.688 89.6407 168.227 89.5036 167.766 89.3599C170.675 79.7382 181.12 72.2184 187.266 63.8916C186.415 62.5062 184.986 64.466 184.229 65.4953C183.205 65.2706 184.529 63.7832 184.474 63.0392C178.377 65.9231 175.235 74.4107 169.009 77.0606C172.734 62.0809 181.416 50.1718 193.815 49.1536ZM168.183 94.5648C167.047 89.1578 173.531 88.2935 176.744 86.5332C173.998 89.4144 171.887 93.4913 168.183 94.5648ZM175.029 52.5089C172.847 56.4408 169.807 58.7543 167.446 62.3574C165.858 61.2528 165.21 59.6527 164.124 58.2871C166.381 54.2414 172.046 52.7466 175.029 52.5089ZM163.515 52.0077C160.837 53.4017 158.21 58.489 154.711 55.893C156.903 53.1981 160.643 53.4263 163.515 52.0077ZM158.457 45.3745C157.413 49.1486 151.284 55.6748 144.054 52.6126C148.513 49.5604 153.646 47.7769 158.457 45.3745ZM165.545 66.8487C162.402 80.5528 161.125 93.2575 166.228 102.593C167.993 103.48 169.017 102.961 170.541 103.402C168.716 107.772 165.526 109.57 164.057 114.611C162.56 115.436 163.364 113.326 161.417 113.292C157.968 115.085 154.88 117.571 151.115 118.753C153.101 114.634 158.54 113.324 158.843 108.437C154.683 107.039 156.145 112.348 153.429 112.857C152.904 112.623 153.298 111.899 153.4 111.331C152.223 111.812 150.86 111.915 150.225 113.403C150.061 114.428 151.855 113.181 152.363 113.044C152.509 115.307 148.853 116.667 147.589 118.68C146.38 117.771 147.525 115.607 146.266 114.726C147.56 111.541 152.929 109.096 151.574 105.698C146.48 108.292 144.88 117.476 137.068 114.938C138.311 112.984 136.917 112.428 136.667 111.265C137.506 108.804 141.425 106.5 138.203 104.627C136.103 108.958 133.059 111.53 130.791 115.547C128.282 115.698 126.148 116.543 123.12 115.724C126.668 111.668 131.229 109.536 135.173 106.225C131.236 105.877 127.316 111.903 122.912 113.118C124.496 107.455 132.889 104.716 134.391 98.8797C128.302 101.293 125.096 109.172 118.25 110.151C119.393 113.1 115.151 118.336 112.721 116.571C113.274 113.476 116.003 114.457 117.07 112.324C116.613 109.627 113.384 113.816 114.299 111.468C117.986 107.443 122.292 104.591 125.207 99.0938C118.888 103.549 110.283 110.633 108.157 118.211C100.65 121.131 95.3133 128.162 89.2005 133.693C86.105 129.035 92.3342 128.421 95.2931 125.414C97.2656 123.41 98.8162 119.28 101.392 117.137C105.271 113.913 111.198 109.595 114.941 106.082C111.775 105.738 108.534 111.564 104.172 111.399C107.544 103.102 113.705 100.083 116.898 91.4577C114.175 90.7092 113.4 93.6551 111.764 94.9618C110.15 95.0423 110.868 93.8854 110.203 93.4576C109.403 97.4726 106.34 100.664 104.206 99.7333C106.343 95.3796 106.687 91.6926 108.198 86.752C109.443 87.1874 109.368 86.2703 110.061 87.3227C110.791 85.382 109.437 84.5443 108.739 83.3616C104.216 85.5799 103.976 95.8822 100.858 100.74C96.6444 87.1474 112.232 66.6129 124.955 61.9599C136.915 57.5912 154.434 56.5017 165.545 66.8487ZM70.0416 154.702C72.7891 147.062 80.8745 137.868 81.8758 129.418C76.1145 134.52 71.7478 146.18 66.8607 156.767C64.9816 157.13 62.9818 157.246 60.4045 156.31C64.9222 149.448 70.9111 145.356 74.5318 136.803C70.553 141.264 67.0024 146.542 62.7305 150.429C65.0284 142.667 75.7492 133.978 75.3497 125.887C67.6729 127.995 64.1721 138.003 57.9546 142.866C59.9177 135.508 67.8819 129.447 70.2195 122.782C62.1284 128.992 56.2969 139.487 47.0862 143.583C50.9122 134.453 60.6029 126.276 61.0652 117.94C51.7105 122.271 45.9461 133.348 36.6746 137.839C38.2275 130.487 47.1205 123.676 47.6938 116.869C43.6394 119.962 40.9942 125.717 36.6059 128.176C37.0038 121.409 45.7636 113.77 45.9139 106.161C41.0771 106.546 39.4402 113.001 34.893 113.933C34.6199 110.616 38.2629 107.767 37.2843 104.53C34.8788 103.642 34.9231 107.389 33.548 108.447C39.0917 80.0006 62.1404 65.3417 86.2749 67.3229C91.3835 67.7487 96.1426 70.304 99.4643 73.9236C93.5885 89.937 94.4194 105.167 100.139 116.263C95.7547 122.404 89.4561 124.915 84.3502 129.672C83.521 131.417 85.8855 131.447 85.9471 132.704C81.3401 141.344 76.5906 149.749 70.0416 154.702ZM75.3517 158.873C74.6393 159.239 73.554 158.898 72.4236 158.476C72.635 156.419 73.9958 156.568 74.4968 155.057C75.4434 155.989 75.4152 157.427 75.3517 158.873ZM53.3296 154.632C55.7334 146.097 65.4502 139.016 70.4039 130.444C70.9592 130.538 71.2003 130.806 71.1882 131.194C66.3519 138.209 61.4923 151.483 53.3296 154.632ZM56.3163 138.294C54.9611 142.331 50.0849 146.078 48.1919 151.533C47.4148 151.297 46.6452 151.055 45.868 150.818C46.9145 144.907 53.2524 142.81 56.3163 138.294ZM41.7748 146C31.4856 137.629 54.2527 128.877 57.7473 120.466C55.2948 128.551 46.7694 137.83 41.7748 146ZM33.4987 126.706C31.8831 125.489 32.7441 122.963 32.1477 121.212C36.174 118.64 38.359 115.542 40.8102 111.185C41.5691 116.608 35.8191 122.244 33.4987 126.706ZM52.5012 66.5667C52.6459 62.9514 55.3624 64.1498 56.0592 61.5701C56.5265 61.7147 56.9871 61.8585 57.4611 62.0038C56.1009 64.081 54.7458 66.1724 52.5012 66.5667ZM65.2983 62.8989C69.0639 58.05 74.4144 56.1627 78.7033 52.3049C76.1699 56.5498 70.7995 61.8079 65.2983 62.8989ZM88.1142 61.288C90.2 58.7922 95.4904 56.208 99.632 55.1868C100.902 58.2131 94.952 59.9197 93.3602 62.3925C91.3415 61.5232 89.8085 61.5587 88.1142 61.288ZM98.4483 63.963C99.1246 62.5279 99.9862 61.4837 101.939 62.5022C101.039 63.4121 99.3933 65.3663 98.4483 63.963ZM88.1147 133.871C86.7512 139.921 82.8972 152.489 78.9798 156.951C77.8721 149.704 84.8369 140.007 88.1147 133.871ZM129.894 57.4014C127.677 58.8232 125.121 59.6035 122.127 59.5805C123.762 57.0309 126.798 57.1546 129.894 57.4014ZM140.378 26.6162C137.809 32.0244 133.847 34.8013 129.896 37.6001C127.815 35.9928 126.704 33.8596 125.623 31.7093C129.878 28.7693 134.864 27.1867 140.378 26.6162ZM127.474 45.4841C124.913 44.2428 124.11 38.7322 122.943 35.4656C125.784 38.0855 127.332 41.4113 127.474 45.4841ZM128.972 24.1204C127.114 26.4795 124.778 27.9213 122.341 29.187C120.628 28.7912 120.369 27.6405 118.91 27.1112C122.453 26.9948 125.517 19.6724 128.972 24.1204ZM60.0181 40.4593C64.0139 28.0178 78.503 18.1201 92.0734 20.3827C112.13 23.7135 122.854 38.9031 125.513 53.5119C115.97 56.5032 110.244 66.6895 101.374 70.9561C102.071 66.1504 106.84 63.2991 112.152 59.0447C112.575 57.9003 111.875 57.366 111.319 56.7602C108.033 56.1561 106.455 58.8013 103.229 58.3273C104.577 56.3511 105.998 54.4586 103.878 52.9423C100.552 52.7909 98.2932 54.6241 95.1693 54.8382C96.8618 53.8659 100.166 51.5156 98.5676 48.7779C96.1451 47.8604 95.2127 49.7838 93.2132 49.6679C92.5018 50.8256 95.4997 50.0093 94.7816 51.1662C89.3658 55.8316 84.6346 61.7943 76.1439 60.6573C78.5247 56.319 85.1083 53.0767 84.5844 48.0297C76.436 49.9721 71.3661 57.7446 63.5568 60.3352C66.6622 54.9568 72.0772 53.958 74.6085 47.5005C67.7703 51.6751 61.4486 56.8401 54.3658 60.5485C56.7056 52.3202 69.9063 47.1574 69.6535 38.8652C65.2068 41.7004 61.8015 46.5035 56.3568 47.4647C58.5544 42.0871 63.3369 41.5863 65.774 36.6608C67.9736 36.186 70.4992 36.2964 72.0074 34.5237C67.4056 32.4242 63.2733 37.5433 60.0181 40.4593ZM58.9856 48.7687C60.1918 50.2716 56.4015 54.4688 54.2048 54.4045C55.4779 51.914 56.6388 49.2191 58.9856 48.7687ZM50.7929 72.1324C46.6676 78.5087 40.169 80.4092 36.4284 87.5075C36.0814 78.1184 43.6374 65.7539 47.3656 56.872C50.1819 61.0662 48.1458 67.8354 50.7929 72.1324ZM37.5594 31.0104C29.0938 32.1229 21.9584 35.7567 14.4253 38.6056C15.3137 29.0432 28.1369 26.7578 37.5594 31.0104ZM25.3637 40.9636C18.8242 48.069 5.24987 56.1914 -4.36997 68.3505C-13.7268 80.1927 -27.261 93.4137 -31.4198 111.797C-36.0851 132.366 -39.5207 151.436 -32.2768 167.371C-29.8158 170.082 -28.8693 173.588 -25.1772 175.647C-0.903965 212.216 47.3743 236.063 93.073 261.281C61.1404 235.255 3.23976 212.95 -17.5078 182.067C-20.2843 177.939 -19.7881 167.374 -27.4551 169.858C-30.938 159.296 -35.6565 148.449 -33.1631 135.617C-30.1055 119.943 -26.8642 102.672 -18.6861 91.8432C-3.33614 71.5261 12.682 51.043 32.0081 42.4741C17.9836 56.2579 -0.822509 71.4508 -9.88495 94.5535C-16.4774 111.369 -15.0552 131.081 -20.1187 149.267C-10.146 135.122 -14.2422 113.227 -6.50215 95.0873C-0.877907 81.9253 9.05563 72.2277 15.8865 61.8796C12.7188 82.7093 -3.79401 97.5001 -8.00011 116.451C-10.8208 129.224 -6.16479 139.735 -8.3827 152.376C-0.991986 139.909 -9.34926 127.358 -2.33352 109.569C0.353865 102.775 5.03528 96.0282 8.68576 88.5982C16.7662 72.1244 21.7955 51.7082 35.3105 46.542C21.9181 78.9942 1.72015 124.385 9.7245 152.879C9.95667 125.308 20.7166 78.3113 37.3882 49.7194C40.7187 43.9992 46.5981 37.45 53.0329 36.7709C46.5033 51.7435 37.023 67.9955 33.0051 85.4258C31.5367 91.7849 31.7217 98.4712 29.7665 104.219C28.549 107.788 25.1645 111.501 24.8095 115.392C24.5088 118.599 27.9622 123.86 29.088 127.866C30.9111 134.379 31.0724 140.12 34.0763 144.63C43.5353 158.815 63.8607 164.636 81.4536 163.788C84.4135 182.966 90.9446 202.872 114.686 207.517C127.952 210.105 143.154 209.162 154.544 206.589C155.625 215.602 174.645 217.15 182.491 221.289C180.21 214.209 161.585 212.442 155.141 206.272C157.372 202.905 160.878 201.952 163.091 198.556C167.569 202.382 174.118 202.406 180.569 204.447C184.338 218.56 193.296 240.777 210.728 248.253C235.174 258.724 258.745 255.817 270.225 234.588C270.847 232.579 273.445 234.317 274.011 232.199C277.629 225.325 275.965 208.671 278.535 202.634C282.83 192.55 298.889 188.084 304.842 179.768C295.585 179.168 288.737 193.317 280.173 194.001C286.483 183.898 296.992 177.895 302.277 168.325C296.715 171.751 292.488 177.671 285.813 178.991C289.277 169.169 298.006 170.546 300.25 160.087C295.976 159.584 293.686 169.17 288.02 168.5C289.859 162.691 293.904 161.05 296.654 156.94C310.98 154.923 322.835 144.8 341.967 153.127C358.562 160.353 374.75 176.086 378.296 191.723C382.236 209.093 374.698 227.946 358.019 236.237C351.886 234.556 347.599 241.712 342.082 243.511C345.007 239.757 350.772 238.287 351.809 233.311C347.729 232.277 347.944 234.42 347.138 236.945C339.891 239.624 336.092 248.811 326.679 247.4C331.404 242.4 337.634 240.235 343.15 236.735C336.243 237.365 329.731 245.095 321.584 245.829C326.309 239.743 334.612 237.709 337.798 231.023C330.199 230.368 322.505 239.712 315.311 239.836C320.044 233.457 331.317 232.208 332.74 224.396C322.342 226.261 315.242 234.351 304.789 236.1C310.305 229.911 317.453 226.797 323.788 222.153C314.679 223.052 306.707 232.376 296.126 232.922C302.307 224.811 311.709 222.779 317.94 214.763C309.325 218.275 302.202 224.607 292.272 225.64C298.14 216.952 306.739 213.405 313.129 205.667C303.825 209.117 295.748 218.756 286.141 219.193C292.205 211.84 299.457 206.717 305.783 199.853C299.364 200.233 293.05 210.937 285.929 209.991C290.556 202.5 300.466 198.378 302.821 191.333C299.341 194.536 294.736 195.604 291.339 198.967C292.308 199.937 293.353 197.583 293.339 199.077C289.684 200.825 283.322 202.039 279.259 206.92C283.239 206.392 287.013 201.537 290.02 201.61C287.581 205.47 282.518 207.746 281.998 212.853C284.292 215.872 285.635 211.656 288.13 212.705C286.629 214.765 284.844 216.279 283.348 218.347C281.936 217.489 280.87 214.985 278.535 215.847C280.178 222.216 283.286 234.543 288.45 239.707C292.314 243.589 302.207 253.224 308.272 254.44C319.136 256.625 333.624 253.371 344.453 253.9C361.958 244.751 383.949 230.772 386.517 202.899C404.533 195.532 422.892 167.675 414.466 145.003C422.195 145.141 437.516 158.414 438.532 164.087C440.057 172.579 432.167 187.805 428.228 195.938C405.125 243.652 364.955 273.398 325.101 285.51C293.071 289.988 258.223 289.138 224.916 291.216C247.859 295.861 270.266 292.071 291.475 290.89C299.842 290.435 307.744 291.986 315.254 291.108C327.914 289.615 342.926 283.174 354.367 277.767C367.227 271.689 385.633 258.47 396.468 248.088C399.843 244.851 404.165 239.632 407.521 235.24C420.449 218.293 433.952 193.604 441.286 170.001C446.751 175.051 450.33 190.699 442.039 195.608C443.538 205.981 429.375 220.411 422.249 228.6C376.169 281.627 308.239 315.35 231.884 306.551C208.92 303.904 184.315 292.369 163.744 285.576C156.292 283.116 147.847 276.556 139.647 271.555C125.198 262.755 109.129 258.159 94.6456 249.588C77.6082 239.489 58.7435 224.399 44.4835 209.784C24.4073 189.176 4.51771 169.635 3.59608 139.836C3.4485 137.927 4.64159 136.164 4.55559 135.055C-2.94283 135.668 1.89679 144.126 2.38386 147.079C4.20054 158.05 5.95425 168.12 11.5129 176.786C31.5464 208.048 72.0326 244.006 116.901 263.028C134.863 270.642 148.678 282.691 166.773 290.561C176.357 294.716 185.215 295.809 194.903 299.724C192.974 301.938 188.726 299.785 186.022 300.541C195.673 303.735 205.698 304.373 215.154 306.458C314.506 328.375 388.367 277.027 442.633 208.475C457.31 227.38 427.154 255.44 413.765 266.077C399.947 277.038 385.138 284.699 371.264 292.075C340.517 308.45 304.3 310.441 274.725 322.258C342.4 310.628 407.229 293.571 447.908 230.907C449.11 240.33 452.223 254.057 447.491 265.284C443.096 275.698 424.579 289.491 416.116 294.708C392.506 309.265 368.919 324.775 340.037 327.635C326.721 328.96 310.018 328.412 294.37 329.316C293.47 329.365 291.681 329.322 290.837 329.242C249.198 325.198 198.686 310.063 154.467 295.892C148.256 293.894 141.686 290.842 137.715 287.691C126.075 287.209 108.633 278.1 92.8694 271.854C78.8065 266.282 67.2105 255.365 55.6838 249.243C51.3524 246.937 47.0849 245.867 44.3502 243.219C42.6685 241.584 42.2432 238.857 40.5376 237.479C34.3706 232.482 20.7397 229.925 10.8048 225.277C6.00215 223.03 2.72048 218.903 -0.887784 217.113C-2.7817 216.17 -5.67768 215.961 -7.3853 215.115C-19.511 209.038 -28.4186 196.065 -32.4767 184.547C-49.354 166.471 -52.4837 143.053 -43.8121 112.529C-41.2942 103.666 -36.3046 99.1412 -30.4757 92.2718C-23.9212 84.5264 -19.9252 74.8298 -13.2636 67.6161C-1.29952 54.6855 10.1004 45.2245 25.3637 40.9636ZM365.34 235.453C364.799 238.843 360.504 241.437 356.895 241.477C359.684 239.441 362.314 237.071 365.34 235.453ZM347.553 242.157C347.009 244.311 344.234 248.582 340.78 247.678C342.393 244.62 345.489 244.355 347.553 242.157ZM338.139 246.359C337.894 247.606 337.355 248.3 336.18 247.791C336.418 246.535 336.958 245.842 338.139 246.359ZM288.191 228.956C292.625 230.974 294.424 228.021 297.024 226.597C296.383 229.047 289.973 233.58 295.58 236.291C298.178 237.052 298.374 233.293 301.203 234.47C299.924 247.933 317.114 229.809 322.73 230.445C318.951 234.781 313.704 236.366 310.577 241.933C310.186 243.43 312.324 243.589 312.786 244.635C319.074 241.125 325.195 237.302 331.394 233.624C329.943 238.005 320.849 240.545 317.743 246.674C301.146 244.501 287.78 235.892 285.157 223.957C287.576 222.901 289.795 221.459 292.291 220.562C290.663 222.881 286.793 225.396 288.191 228.956ZM321.526 250.895C316.209 251.981 305.807 253.19 302.419 247.043C307.382 247.717 315.598 250.583 321.526 250.895ZM445.803 272.395C431.882 317.457 390.48 323.267 353.579 329.791C387.756 317.151 420.443 301.684 445.803 272.395ZM-7.79534 33.282C-9.23212 35.1998 -12.6361 33.414 -14.986 33.6044C-13.2545 32.2476 -10.2183 33.3409 -7.79534 33.282ZM-68.0374 74.1295C-73.915 78.89 -80.8542 81.6802 -86.2815 87.3002C-83.155 80.2583 -76.347 73.8199 -68.0374 74.1295ZM-99.9031 101.883C-99.9814 98.0774 -96.9566 93.7751 -94.7738 91.7825C-94.4628 96.0394 -98.2054 98.9792 -99.9031 101.883ZM-25.6672 305.937C-28.4464 305.721 -30.0341 311.192 -32.3341 309.477C-29.9403 304.457 -25.6582 299.971 -24.3887 295.165C-29.5671 296.868 -32.0317 303.682 -35.5799 308.481C-36.6852 305.905 -32.367 304.147 -33.1229 302.131C-35.6721 301.704 -36.4688 304.606 -38.5796 305.023C-40.1538 300.199 -33.7788 294.187 -33.8741 289.724C-34.4997 289.533 -35.1118 289.344 -35.7307 289.154C-37.8702 291.814 -40.5262 293.654 -40.9013 297.713C-44.4927 292.75 -43.2182 285.214 -43.6499 278.594C-45.1355 278.232 -45.0114 280.91 -46.6804 280.198C-47.8743 268.926 -52.4782 259.465 -49.9275 246.209C-45.5356 247.895 -41.8655 248.251 -38.047 248.851C-37.4992 251.238 -44.6493 251.449 -45.7146 255.63C-38.8655 252.679 -31.9627 249.85 -25.5306 246.105C-24.5598 247.006 -24.2167 248.249 -24.0773 249.597C-28.294 253.593 -35.041 252.829 -39.4097 256.554C-34.8058 260.695 -29.8425 253.245 -25.0721 252.845C-17.8456 256.398 -17.0507 263.348 -10.7787 267.409C-14.3247 278.081 -12.9753 286.163 -13.7975 295.399C-21.9425 299.315 -25.7944 311.35 -32.1292 318.685C-34.8506 314.038 -25.4835 310.575 -25.6672 305.937ZM-20.6487 245.056C-19.9943 244.834 -19.2152 244.825 -18.1879 245.309C-17.7431 248.961 -16.8015 252.337 -15.191 255.37C-18.5784 254.303 -20.2587 248.995 -20.6487 245.056ZM-15.1068 298.021C-11.9475 306.319 -20.8851 315.392 -26.4564 318.386C-24.7045 310.682 -18.3628 305.348 -15.1068 298.021ZM-18.9669 323.739C-19.485 322.933 -20.3033 320.582 -21.6144 322.419C-21.356 318.995 -17.7294 315.598 -16.0186 312.47C-14.2755 316.222 -17.1469 318.324 -19.189 321.139C-17.6131 322.174 -17.9172 319.631 -16.44 320.463C-17.2685 321.573 -18.1929 322.514 -18.9669 323.739ZM-7.09521 293.393C-5.59633 302.681 -4.72593 312.317 -6.70335 323.456C-7.55196 313.809 -9.47917 304.736 -7.09521 293.393ZM-1.25252 280.974C1.39574 282.287 2.92184 284.197 6.05786 285.254C3.91169 288.542 0.894638 290.148 -3.02693 290.069C-3.52686 286.766 -2.16298 284.887 0.0410911 283.402C0.0286061 282.363 -2.27263 282.546 -1.25252 280.974ZM-0.75187 342.043C-3.26839 339.625 -3.42326 335.947 -2.67548 331.796C4.00818 335.38 5.03941 322.619 9.93787 320.459C8.26737 328.283 2.53997 334.816 -0.75187 342.043ZM13.2241 362.585C14.2224 361.024 15.7409 360.482 16.5083 358.511C16.7723 360.189 16.3531 362.214 15.7279 364.366C14.1918 364.141 14.1131 363.142 13.2241 362.585ZM21.7868 367.752C22.8275 368.238 22.3891 369.511 23.0661 370.185C22.1033 371.163 19.9409 368.351 21.7868 367.752ZM26.4872 365.651C26.9514 364.334 27.1659 362.536 28.0872 362.079C28.6644 362.503 27.929 366.608 26.4872 365.651ZM20.3133 364.258C18.8192 357.046 27.9097 347.494 30.0878 342.394C23.9334 343.011 20.5552 355.137 13.8616 357.185C13.2731 351.249 20.8475 344.622 21.8858 339.352C15.716 340.671 13.3229 352.948 7.30597 352.127C10.1309 344.981 14.6928 337.291 17.1159 331.797C12.6172 332.837 10.6871 338.718 8.02817 343.214C6.50264 342.616 4.50169 342.684 3.7816 345.459C5.01579 346.269 6.12995 343.165 6.52308 344.789C5.37083 347.24 4.58908 350.417 2.85159 351.766C1.27263 350.929 3.25711 348.196 3.4993 346.395C3.27861 344.641 2.062 347.001 1.0385 346.142C3.74409 337.022 11.2753 327.611 14.0408 318.675C8.81329 317.587 6.1962 321.446 3.4584 325.059C2.21349 321.708 5.02495 316.219 4.24763 312.61C0.210469 315.788 0.758328 323.951 -2.74037 328.736C-2.81513 317.522 -2.02165 305.839 -3.07195 295.137C-0.204916 294.673 1.87481 292.744 4.5228 291.885C7.93687 281.232 21.1187 290.87 29.2291 292.392C24.4365 296.524 17.8432 297.273 13.1833 301.667C13.1651 302.334 13.783 302.646 13.6927 303.346C21.2683 299.969 30.2104 294.291 38.8587 290.79C44.8962 288.35 53.1859 290.828 57.1125 284.23C56.2898 290.496 49.5983 292.011 46.3481 296.143C46.3104 297.375 48.6048 298.393 49.3049 298.074C51.7611 297.336 51.8125 292.044 55.6541 293.936C52.6963 305.915 41.1301 307.387 34.8388 315.444C38.2259 315.999 39.1052 311.775 42.7496 312.804C41.4367 315.228 39.1688 315.818 38.2916 319.052C37.9847 320.251 39.5652 320.447 40.7886 320.832C39.9738 325.03 35.4192 325.68 35.9407 330.004C39.1284 331.886 39.5179 328.451 41.9001 328.79C39.5679 334.895 36.3666 339.361 32.8757 343.28C31.8343 345.259 34.866 345.074 34.3433 346.767C28.701 350.757 26.1687 360.655 20.3133 364.258ZM45.097 315.037C45.7871 313.659 46.7071 312.697 47.6256 311.748C48.777 313.08 47.896 315.488 49.1203 316.781C45.4618 319.13 45.5331 326.083 39.8181 325.591C40.9682 322.301 45.5473 319.386 47.8688 315.887C47.2316 314.364 45.8964 316.86 45.097 315.037ZM30.8092 373.07C29.8447 363.593 37.0629 351.086 39.6024 342.786C39.9789 341.117 37.2987 342.989 37.8971 341.749C42.5251 336.136 43.2256 327.405 47.1246 323.268C48.6369 329.813 43.4589 337.805 42.7399 345.776C32.8179 349.371 39.0028 368.06 30.8092 373.07ZM32.1113 377.029C33.659 374.81 35.189 372.569 36.713 370.32C38.1564 372.923 39.0399 375.815 39.6745 378.847C37.4927 378.6 33.765 378.612 32.1113 377.029ZM42.8499 356.98C44.9046 357.663 43.2045 360.758 42.3577 361.906C40.8087 361.161 42.6079 358.665 42.8499 356.98ZM42.461 373.11C41.6311 371.085 40.4434 369.257 41.536 366.219C41.8451 366.317 42.1541 366.416 42.4639 366.507C44.9275 367.252 44.0799 371.439 42.461 373.11ZM67.0526 395.397C70.6785 388.231 60.7054 393.513 67.0526 395.397ZM69.231 383.374C70.9016 384.359 68.885 386.446 68.0926 387.082C66.4153 386.097 68.4318 384.009 69.231 383.374ZM75.8348 389.973C75.7432 393.772 75.0842 397.866 74.7228 401.81C68.936 400.204 72.18 391.319 75.8348 389.973ZM80.8117 400.141C78.9794 397.88 82.4755 393.689 83.7073 392.402C85.2626 394.124 80.9086 396.697 80.8117 400.141ZM83.7406 400.531C83.9218 399.413 84.3671 398.77 84.9213 398.358C85.7152 398.453 85.5773 399.037 86.1601 399.243C85.675 400.278 85.1941 401.333 83.7406 400.531ZM122.633 345.001C119.673 344.531 117.49 345.547 116.428 348.67C119.25 349.847 119.46 346.083 122.065 346.845C117.77 358.936 111.97 373.914 107.022 385.866C105.098 390.498 100.444 396.668 95.6106 396.569C97.6212 391.271 102.724 388.084 103.418 382.725C97.907 384.3 95.4555 391.634 90.9696 395.14C85.5087 390.002 97.4105 384.343 95.222 379.691C93.2131 379.082 92.5156 380.924 91.1258 381.475C89.9856 379.878 93.8382 378.877 92.5467 376.831C87.7334 378.735 85.1532 384.859 80.9898 388.008C78.6806 384.482 76.3002 387.96 73.794 388.316C76.7044 382.628 83.9212 377.911 84.3144 372.27C78.359 372.993 77.7439 383.81 70.5849 382.266C74.2523 376.982 79.5752 374.811 82.5299 368.179C76.4397 371.576 71.7536 377.619 66.4534 382.516C66.0098 375.424 68.7297 367.671 74.8614 361.753C68.0203 362.977 65.1056 371.676 60.1725 376.529C58.7124 376.068 58.0648 375.547 55.7181 376.168C56.9374 368.523 65.0471 364.158 66.9451 357.803C62.3166 359.073 60.2287 365.133 56.6135 368.32C54.7873 367.61 55.4459 365.579 53.0087 365.186C50.281 368.199 53.1464 373.642 50.5209 376.599C48.6106 375.278 50.532 371.93 48.2354 370.815C52.5599 360.94 58.3752 355.1 63.9197 346.209C57.5175 347.302 55.4458 356.6 50.4417 360.331C45.3584 352.2 59.6178 342.568 60.8875 334.615C55.2178 335.631 54.6947 346.364 48.2733 345.959C50.9163 337.535 58.9472 328.34 57.7845 319.953C54.3377 322.129 53.5753 329.549 50.4442 333.941C50.2709 329.503 52.7955 322.471 54.0419 317.287C60.3622 315.051 66.2578 312.027 71.9375 308.581C65.5296 306.519 60.8734 314.027 54.4384 314.364C54.8977 307.14 58.2869 299.898 61.3135 293.636C67.0948 301.694 75.636 308.299 84.2124 314.895C77.2237 320.274 67.6535 320.749 60.8542 326.485C67.0917 328.432 76.6322 318.94 85.1977 318.25C86.5255 317.302 86.1846 316.613 86.9901 315.753C91.674 317.794 95.4469 320.32 100.785 322.023C98.3705 323.844 94.5173 325.938 91.4785 324.237C88.4139 328.473 82.6769 327.651 79.5349 331.735C80.3226 333.884 81.9431 331.455 83.0621 331.801C82.3209 334.409 78.4136 335.984 80.0008 338.468C91.7976 327.054 105.868 319.919 125.988 324.2C117.97 331.518 107.242 333.746 98.4332 339.563C98.0213 341.071 98.8548 341.922 100.642 342.272C108.938 334.741 119.843 332.124 129.27 326.722C126.939 332.589 124.447 338.15 122.633 345.001ZM123.785 361.082C125.731 349.638 136.772 343.931 143.458 336.686C139.896 333.529 133.829 341.135 129.876 339.611C132.485 335.013 135.518 331.217 138.007 326.373C143.657 332.954 145.141 341.735 154.113 346.562C148.28 351.922 140.21 353.033 133.008 355.799C134.642 352.512 138.842 351.061 139.431 348.127C132.508 349.239 129.926 358.524 123.785 361.082ZM127.989 344.097C129.573 342.948 131.81 343.017 133.3 341.679C132.89 345.065 128.631 347.526 126.598 350.267C125.859 348.848 127.707 346.057 127.989 344.097ZM132.976 327.868C132.965 325.846 133.003 321.753 135.116 320.913C135.903 321.014 135.779 321.593 136.36 321.813C135.354 324.069 134.41 326.428 132.976 327.868ZM109.626 405.453C110.304 404.059 109.292 403.563 110.16 402.062C111.298 402.252 112.122 401.866 113.55 402.596C112.174 403.429 111.681 405.91 109.626 405.453ZM110.262 400.066C111.366 397.733 113.303 397.002 114.439 394.741C116.345 397.133 112.813 401.279 110.262 400.066ZM109.803 413.122C110.625 413.438 110.968 412.858 111.803 413.231C111.026 414.544 111.762 415.069 111.407 416.154C109.437 415.905 108.894 414.904 109.803 413.122ZM116.904 421.392C112.909 418.552 118.763 416.616 119.641 414.119C120.109 414.264 120.57 414.401 121.023 414.55C120.361 418.152 118.499 419.52 116.904 421.392ZM117.151 412.34C118.108 409.013 120.723 408.827 122.07 406.236C125.392 409.562 118.306 412.956 117.151 412.34ZM126.277 415.649C127.224 416.342 125.849 418.657 124.635 417.686C124.696 416.082 125.809 416.481 126.277 415.649ZM125.422 411.832C125.761 410.016 127.006 409.939 127.805 409.017C128.599 410.081 126.664 412.172 125.422 411.832ZM125.387 423.504C123.36 422.702 124.001 421.338 125.31 420.436C127.123 420.509 125.397 422.454 125.387 423.504ZM131.98 423.5C131.838 419.434 136.456 418.367 138.079 415.229C140.013 419.324 134.473 425.32 131.98 423.5ZM151.086 427.359C148.247 423.988 153.787 420.566 155.653 419.116C155.795 422.097 151.996 423.91 151.086 427.359ZM168.125 421.432C166.442 419.804 170.084 417.938 170.444 415.55C170.396 414.807 170.073 414.195 169.487 413.729C166.425 413.083 165.384 416.257 163.275 417.405C163.756 413.659 169.036 412.651 170.591 408.487C170.4 407.686 170.348 406.806 169.166 406.528C161.885 408.403 157.906 416.531 151.054 419.223C152.548 415.618 157.17 411.773 160.011 408.268C159.951 407.517 159.626 406.918 159.04 406.452C155.136 406.969 148.665 411.618 149.883 414.795C148.828 413.399 146.211 414.281 145.181 416.903C146.171 417.301 146.776 416.978 146.996 415.939C147.069 419.273 143.594 422.203 142.155 425.111C141.491 420.491 145.969 414.88 142.284 411.443C144.176 407.599 152.055 405.283 150.031 401.143C144.022 405.683 139.013 412.09 132.737 416.127C132.001 407.367 139.278 403.122 143.222 398.547C143.659 397.405 142.958 396.87 142.41 396.259C136.503 398.059 132.621 403.659 127.473 406.881C125.286 398.331 137.011 395.812 138.735 390.05C130.52 393.357 124.707 401.177 117.807 406.956C119.114 396.173 130.72 393.62 135.701 385.051C129.484 384.875 125.088 394.265 119.265 397.256C116.272 386.247 132.011 382.685 132.847 374.536C125.688 379.574 119.714 386.856 113.027 392.797C114.238 377.893 127.01 370.145 135.595 360.655C129.82 358.839 126.908 368.658 121.544 370.032C128.705 353.995 145.596 356.34 157.09 348.495C162.924 350.448 166.55 353.578 171.533 355.976C165.878 361.903 157.136 362.013 150.6 366.285C149.846 367.854 151.898 367.929 151.139 369.49C148.552 373.039 141.332 375.208 142.188 380.445C151.961 372.033 161.94 364.014 172.956 357.941C187.897 362.102 202.984 363.788 213.605 357.764C210.556 359.926 208.152 366.057 207.606 370.635C205.176 371.895 202.054 371.864 200.019 373.874C199.632 375.63 202.291 375.77 203.149 376.87C192.771 394.189 180.696 408.274 168.125 421.432ZM186.421 436.195C187.388 433.866 189.574 433.847 191.094 432.554C192.913 433.146 190.369 436.052 192.415 436.521C191.081 437.461 187.532 437.181 186.421 436.195ZM182.104 435.372C180.667 434.715 177.913 434.748 178.224 433.167C182.209 431.404 185.494 428.348 189.102 425.849C189.541 424.973 189.449 424.375 188.599 424.178C191.001 421.379 194.142 419.992 196.727 417.542C198.785 417.624 195.797 420.36 198.482 420.107C193.5 426.115 187.618 430.397 182.104 435.372ZM197.503 438.092C196.575 437.803 195.653 437.523 194.732 437.235C198.059 435.208 200.26 431.06 203.747 429.347C204.31 429.434 204.537 429.7 204.532 430.089C202.594 433.517 199.448 434.664 197.503 438.092ZM203.217 439.334C202.485 437.977 203.957 437.026 204.679 436.231C206.459 436.478 204.691 440.596 203.217 439.334ZM233.257 425.742C234.24 423.682 236.029 423.158 237.146 421.345C237.658 419.918 236.444 419.397 235.398 418.781C231.821 425.537 223.706 429.197 218.608 435.437C218.225 436.415 220.188 436.151 220.781 436.611C223.196 435.309 224.951 432.78 227.094 430.947C227.284 432.786 227.205 434.763 229.799 435.333C223.436 438.212 217.564 442.01 208.91 440.581C213.107 434.582 219.19 432.16 223.771 426.883C222.562 426.316 219.54 428.652 217.854 429.625C218.961 425.844 223.229 421.698 226.53 419.606C226.548 418.939 225.93 418.627 226.028 417.921C223.337 416.275 223.266 419.565 221.141 418.956C221.909 417.265 221.841 416.001 220.753 415.284C218.526 414.499 218.299 417.49 216.196 416.925C215.965 416.405 216.011 415.728 216.299 414.922C209.579 417.131 206.417 426.074 197.97 425.024C200.281 422.535 202.858 420.555 205.171 418.1C205.207 417.053 204.661 416.305 204.502 415.35C202.339 414.095 201.319 417.606 199.903 415.463C199.961 413.545 202.202 414.611 201.215 412.814C191.781 417.983 182.991 424.328 174.981 432.152C174.362 431.962 173.742 431.778 173.13 431.589C180.464 419.54 196.571 413.816 203.717 401.402C194.556 406.105 188.496 416.627 178.374 419.495C188.648 411.292 199.033 403.308 208.289 393.168C201.087 396.445 195.559 402.852 189.139 407.582C193.592 395.939 206.669 387.928 213.563 376.017C213.715 375.032 213.014 374.497 212.744 373.734C208.371 375.26 206.835 382.13 203.189 385.007C206.682 374.034 216.4 368.428 226.069 366.668C226.086 366.014 225.483 365.689 225.565 364.996C221.003 364.738 216.77 368.814 213.38 368.341C215.459 362.99 218.478 359.418 221.359 355.576C224.581 361.635 231.184 365.899 237.655 370.236C232.621 374.162 224.831 372.87 219.868 376.941C224.978 383.136 234.865 375.031 239.827 371.418C241.615 372.792 244.318 373.702 246.361 374.943C243.455 378.017 238.786 377.739 235.585 380.259C234.642 381.928 236.213 382.259 236.124 383.464C232.235 388.721 223.136 391.479 222.832 398.66C231.273 393.864 236.754 383.444 246.502 381.078C246.241 379.722 244.23 381.134 243.113 380.543C247.703 374.393 255.272 378.165 263.646 379.759C260.497 384.074 253.752 381.575 250.92 386.494C253.334 389.084 259.805 387.357 261.443 383.64C268.504 379.888 278.434 381.546 286.504 379.689C283.799 381.654 280.43 382.378 277.557 384.036C277.128 385.172 277.821 385.713 278.376 386.318C282.035 386.885 283.151 382.621 286.899 383.355C283.036 389.476 277.694 392.84 273.6 398.551C272.184 398.525 272.609 397.531 271.427 397.376C265.716 404.915 258.503 409.598 252.397 416.387C251.95 414.298 255.028 412.583 256.098 410.936C256.405 409.737 255.983 408.928 254.825 408.51C250.401 412.871 244.59 414.607 239.713 418.081C240.827 421.894 235.975 424.585 233.257 425.742ZM215.581 423.857C216.857 421.858 218.465 420.5 220.067 419.142C220.391 421.236 217.552 423.641 215.581 423.857ZM226.274 356.081C230.336 355.098 233.806 360.798 235.037 363.86C231.39 361.656 228.872 358.85 226.274 356.081ZM253.976 373.237C266.995 373.884 281.633 377.612 291.05 371.445C283.722 378.176 267.787 378.745 253.976 373.237ZM232.979 433.275C233.679 428.722 239.006 426.579 241.326 422.637C242.275 423.945 242.219 425.789 242.965 427.202C239.485 428.965 236.239 431.117 232.979 433.275ZM314.265 413.11C308.672 411.589 306.233 416.016 302.574 418.146C300.87 417.608 302.725 415.214 300.503 414.969C295.657 416.227 294.538 420.348 292.158 425.594C298.819 431.197 303.897 415.805 311.083 415.181C312.443 416.02 312.194 417.704 312.405 419.143C302.034 429.361 287.575 431.854 273.513 435.084C279.195 433.114 283.449 428.46 288.308 424.916C287.545 423.985 285.28 425.292 283.673 423.488C281.193 424.196 280.414 428.097 276.69 426.423C277.492 423.699 281.037 423.795 279.457 420.677C274.811 424.84 269.985 428.681 265.173 432.518C264.273 433.769 265.951 433.655 266.74 434.023C263.355 436.425 258.549 436.151 253.583 435.558C260.684 430.158 267.7 424.605 275.152 419.862C275.655 418.563 275.752 417.469 275.075 416.794C267.601 424.921 255.186 427.556 249.624 436.881C246.364 437.318 243.546 438.572 239.361 437.274C240.505 434.433 245.256 432.365 247.778 429.703C249.293 429.815 248.894 430.929 250.411 431.028C258.273 424.62 266.152 418.248 275.004 413.726C275.033 412.678 276.513 410.855 275.545 410.336C273.225 411.821 271.478 414.391 268.59 414.797C281.003 400.623 293.653 386.866 304.988 370.679C304.96 368.511 302.044 368.012 304.565 365.473C308.129 369.408 314.316 371.95 319.359 375.099C312.408 379.308 303.918 380.622 297.045 384.977C297.246 388.149 302.611 386.372 304.415 385.727C307.952 380.271 317.441 380.141 322.736 375.625C325.289 377.685 329.64 376.559 330.651 379.588C333.119 380.348 333.914 377.923 336.467 378.835C333.732 382.763 325.253 382.044 321.134 385.792C326.933 391.414 336.266 385.209 342.423 384.224C338.71 383.371 331.905 386.751 327.878 385.327C338.042 381.072 348.137 376.713 359.857 375.381C346.525 389.767 329.676 403.889 314.191 416.645C314.179 415.483 314.503 414.142 314.265 413.11ZM321.178 420.32C321.058 419.09 323.733 416.863 325.712 417.147C324.747 419.23 322.934 419.724 321.178 420.32ZM327.953 414.786C329.556 412.444 332 411.691 333.655 409.438C335.528 412.673 329.903 413.94 327.953 414.786ZM336.502 413.369C337.242 412.317 337.877 411.062 339.54 411.759C338.65 412.527 338.073 413.878 336.502 413.369ZM335.937 408.618C341.018 403.55 345.52 397.39 352.516 395.958C349.371 401.721 342.219 406.295 335.937 408.618ZM363.455 398.31C361.22 398.336 364.305 395.536 362.93 395.099C360.457 398.266 357.128 399.8 353.868 401.446C356.953 396.748 362.708 390.785 368.77 389.283C369.664 386.999 369.436 385.306 368.339 384.083C361.414 383.208 358.325 389.599 353.187 392.106C357.592 382.581 369.47 380.845 376.865 374.517C375.41 372.07 373.494 374.968 371.805 374.487C374.983 371.698 379.621 371.665 382.064 367.498C383.674 368.072 385.068 368.287 386.058 367.708C382.848 363.897 375.837 371.124 371.122 371.742C372.869 367.97 377.983 364.177 381.468 361.22C381.424 359.815 379.813 361.418 378.69 360.362C378.972 359.433 379.26 358.505 379.548 357.577C383.204 362.171 394.259 365.445 400.259 364.461C390.601 377.742 376.503 388.991 363.455 398.31ZM371.057 375.264C369.03 376.579 367.176 378.215 364.852 378.934C364.443 375.956 368.23 374.586 371.057 375.264ZM385.488 356.354C389.431 358.716 394.36 359.1 398.607 359.887C396.252 361.668 386.725 359.547 385.488 356.354ZM403.203 366.383C403.309 364.866 404.205 364.844 404.528 363.742C406.42 364.07 404.378 367.227 403.203 366.383ZM439.214 318.586C435.171 323.244 439.242 327.5 438.755 331.641C437.932 338.596 430.368 345.593 425.347 348.837C412.831 356.902 389.878 360.06 377.431 346.269C372.967 352.502 372.843 361.098 365.317 365.887C357.12 371.094 340.503 375.61 333.618 374.91C320.1 373.521 313.241 365.171 309.271 356.749C307.591 357.333 306.013 356.489 304.808 356.4C293.386 371.082 267.898 377.583 244.458 366.242C236.121 362.215 232.558 352.039 224.702 347.98C224.902 345.73 227.322 345.241 226.596 343.488C223.853 339.084 219.708 341.962 218.211 345.982C198.59 367.032 142.8 344.084 140.709 317.566C144.306 315.217 147.268 307.097 139.527 306.535C119.397 333.457 64.2597 308.982 63.2707 279.005C63.3506 277.191 65.3002 278.926 66.3434 278.935C65.2452 272.18 59.4516 276.637 55.7142 277.187C49.7558 286.001 24.5215 289.119 11.9397 280.972C6.11234 277.19 -4.04161 269.115 -6.67266 265.598C-12.2973 258.058 -8.70545 247.63 -15.6652 242.012C-19.2535 243.659 -20.239 240.708 -22.1854 238.489C-50.6956 251.389 -83.6549 215.893 -68.8603 190.621C-86.0121 178.678 -108.686 166.459 -98.3364 142.977C-96.9859 139.895 -92.1122 133.882 -89.3857 132.022C-87.1558 130.493 -81.7365 129.802 -81.3733 127.387C-80.767 123.506 -85.0804 124.595 -88.497 124.174C-90.8867 122.809 -86.7588 123.104 -87.0416 121.07C-88.7399 120.546 -90.4314 120.023 -92.1364 119.499C-107.048 101.651 -74.497 80.3364 -61.0852 76.264C-57.7992 75.2636 -55.4064 76.1434 -54.3838 74.2649C-52.4676 70.7314 -56.8573 68.6845 -56.5618 66.4939C-50.9479 34.0276 -22.5643 39.0631 -0.0522322 36.1664C2.49116 36.757 0.122624 39.9632 2.65848 40.5597C5.33674 41.221 5.76996 37.647 9.39532 40.0943C5.99497 46.4002 -1.36442 47.6789 -6.89573 51.8253C-22.5427 63.5922 -36.9723 83.4593 -46.3941 107.687C-48.9282 114.226 -50.7277 121.529 -50.9942 127.594C-53.389 125.758 -50.8517 121.309 -54.2296 119.991C-59.8957 123.322 -52.6558 130.653 -55.8699 135.226C-54.8512 149.625 -51.0671 163.269 -43.7146 176.52C-33.848 194.325 -22.1751 213.806 -0.112414 224.458C15.5476 232.029 31.2901 240.225 46.1625 248.85C55.8633 254.488 64.7751 259.417 72.1581 264.976C79.8163 270.746 91.626 274.095 102.072 278.238C124.726 287.246 146.546 298.216 166.704 307.274C169.047 307.827 168.93 304.857 169.699 304.136C204.849 315.033 245.53 329.683 278.615 331.067C330.888 339.734 384.708 335.155 422.031 311.767C434.46 303.979 445.32 290.459 449.373 273.989C455.711 248.328 451.857 225.663 448.164 202.048C461.664 210.16 470.399 220.804 474.974 233.654C475.657 235.252 477.854 233.65 478.537 235.254C480.529 243.898 486.353 259.376 472.056 259.655C474.059 274.152 486.601 285.038 479.18 302.451C474.042 314.511 459.729 314.638 452.548 324.719C445.713 325.719 442.906 320.358 439.214 318.586ZM465.634 320.116C468.969 314.929 477.337 312.917 481.105 306.102C479.554 314.643 471.227 316.769 465.634 320.116Z" fill="#E3DDD7"/>
<path fill-rule="evenodd" clip-rule="evenodd" d="M84.1689 122.001C88.2842 121.714 93.3249 119.277 95.2539 117.295C91.9999 119.686 86.1707 117.235 84.1689 122.001Z" fill="#E3DDD7"/>
<path fill-rule="evenodd" clip-rule="evenodd" d="M-40.9679 268.241C-34.5038 268.46 -27.9398 262.58 -21.6831 259.961C-26.9803 261.459 -37.3637 263.544 -40.9679 268.241Z" fill="#E3DDD7"/>
</g>
<defs>
<clipPath id="clip0_1364_12703">
<rect width="488" height="392" fill="white"/>
</clipPath>
</defs>
</svg>
