<svg width="420" height="388" viewBox="0 0 420 388" fill="none" xmlns="http://www.w3.org/2000/svg">
<g clip-path="url(#clip0_1364_12886)">
<path fill-rule="evenodd" clip-rule="evenodd" d="M370.676 37.5992C368.135 36.1315 365.244 34.2736 361.524 35.8305C360.586 35.0334 360.824 32.7655 360.51 31.1814C358.971 30.6317 357.893 31.1933 356.854 32.0902C355.94 47.3921 375.762 47.7362 376.502 35.0161C375.477 34.7184 374.971 33.747 373.564 33.9414C372.08 34.7433 372.253 36.8653 370.676 37.5992Z" fill="#E3DDD7"/>
<path fill-rule="evenodd" clip-rule="evenodd" d="M254.267 66.0456C250.79 69.6664 244.192 70.774 242.698 75.9789C248.05 75.6832 250.051 69.0978 255.356 67.3521C255.297 66.5341 254.866 66.1905 254.267 66.0456Z" fill="#E3DDD7"/>
<path fill-rule="evenodd" clip-rule="evenodd" d="M213.771 90.797C216.354 88.5105 213.901 82.7051 211.77 81.513C204.955 81.1181 209.419 92.4187 213.771 90.797Z" fill="#E3DDD7"/>
<path fill-rule="evenodd" clip-rule="evenodd" d="M456.93 62.22C453.434 60.1969 449.583 58.6577 445.945 56.8474C441.87 69.1303 467.448 71.6895 462.646 58.694C458.993 58.4707 459.791 61.8169 456.93 62.22Z" fill="#E3DDD7"/>
<path fill-rule="evenodd" clip-rule="evenodd" d="M199.03 97.7667C201.709 99.0079 202.748 102.355 206.177 102.639C210.988 98.4757 197.183 86.6984 199.03 97.7667Z" fill="#E3DDD7"/>
<path fill-rule="evenodd" clip-rule="evenodd" d="M220.658 93.3209C218.389 95.6018 220.911 101.024 223.44 101.083C230.894 101.263 224.444 89.5329 220.658 93.3209Z" fill="#E3DDD7"/>
<path fill-rule="evenodd" clip-rule="evenodd" d="M208.02 98.1391C209.863 102.25 211.986 105.996 216.531 106.66C221.178 101.748 213.392 93.6222 208.02 98.1391Z" fill="#E3DDD7"/>
<path fill-rule="evenodd" clip-rule="evenodd" d="M194.667 104.939C196.402 111.338 202.043 112.767 207.534 114.382C210.303 108.386 200.174 103.783 194.667 104.939Z" fill="#E3DDD7"/>
<path fill-rule="evenodd" clip-rule="evenodd" d="M266.094 123.679C266.242 128.197 277.926 125.572 279.637 122.565C277.668 117.878 265.97 119.664 266.094 123.679Z" fill="#E3DDD7"/>
<path fill-rule="evenodd" clip-rule="evenodd" d="M288.923 129.572C290.025 135.067 297.331 132.289 299.782 129.732C299.788 127.571 298.521 127.021 297.902 125.669C293.954 126.207 290.944 127.491 288.923 129.572Z" fill="#E3DDD7"/>
<path fill-rule="evenodd" clip-rule="evenodd" d="M269.253 134.741C270.651 140.096 281.846 139.186 281.292 132.845C278.41 130.149 271.221 131.908 269.253 134.741Z" fill="#E3DDD7"/>
<path fill-rule="evenodd" clip-rule="evenodd" d="M290.913 134.563C291.016 147.362 277.344 132.912 290.913 134.563Z" fill="#E3DDD7"/>
<path fill-rule="evenodd" clip-rule="evenodd" d="M284.713 146.243C286.07 151.432 297.186 145.296 297.305 140.964C293.115 137.804 283.741 142.528 284.713 146.243Z" fill="#E3DDD7"/>
<path fill-rule="evenodd" clip-rule="evenodd" d="M266.743 149.795C267.9 149.92 267.939 151.49 269.69 150.874C271.03 148.171 278.84 150.898 276.992 144.785C272.726 142.461 267.063 145.321 266.743 149.795Z" fill="#E3DDD7"/>
<path fill-rule="evenodd" clip-rule="evenodd" d="M272.439 162.45C274.404 166.701 285.601 160.962 283.315 154.507C278.252 151.788 270.779 158.809 272.439 162.45Z" fill="#E3DDD7"/>
<path fill-rule="evenodd" clip-rule="evenodd" d="M287.949 162.046C293.389 164.283 300.77 158.487 300.985 152.418C294.12 150.464 288.708 156.36 287.949 162.046Z" fill="#E3DDD7"/>
<path fill-rule="evenodd" clip-rule="evenodd" d="M551.266 161.085C554.184 165.116 560.444 160.036 560.302 157.646C559.991 152.378 551.022 156.041 551.266 161.085Z" fill="#E3DDD7"/>
<path fill-rule="evenodd" clip-rule="evenodd" d="M521.565 185.533C522.486 185.876 522.959 183.93 523.425 185.313C523.991 200.62 540.3 192.808 538.77 183.508C537.205 173.915 521.835 175.113 521.565 185.533ZM528.828 191.339C526.825 189.539 526.583 187.356 526.563 183.99C535.518 173.062 540.166 191.636 528.828 191.339Z" fill="#E3DDD7"/>
<path fill-rule="evenodd" clip-rule="evenodd" d="M550.059 179.316C549.587 181.81 550.049 186.551 551.551 188.191C556.07 189.936 560.397 186.118 561.244 182.291C560.074 178.103 554.274 176.286 550.059 179.316ZM553.61 185.567C552.687 184.773 552.912 182.509 552.605 180.923C554.2 180.871 556.326 180.112 557.312 180.85C557.982 183.939 556.174 185.054 553.61 185.567Z" fill="#E3DDD7"/>
<path fill-rule="evenodd" clip-rule="evenodd" d="M485.898 207.333C485.566 204.372 485.784 201.837 487.464 200.487C486.807 212.643 499.756 212.469 500.611 204.181C502.238 188.539 478.357 193.64 485.898 207.333ZM494.427 207.759C488.411 208.085 492.85 199.316 489.003 197.443C498 191.664 501.344 207.384 494.427 207.759Z" fill="#E3DDD7"/>
<path fill-rule="evenodd" clip-rule="evenodd" d="M513.947 213.561C515.435 219.568 523.166 216.744 524.638 212.307C523.554 199.013 511.939 205.469 513.947 213.561ZM518.235 214C517.979 213.603 517.73 213.205 517.2 213.173C517.047 212.331 517.655 212.111 517.448 211.234C518.881 210.832 519.187 211.894 520.746 211.321C520.827 212.96 519.601 213.544 518.235 214ZM517.999 207.844C519.056 206.343 521.447 207.722 521.053 209.86C519.783 209.525 519.278 208.184 517.999 207.844Z" fill="#E3DDD7"/>
<path fill-rule="evenodd" clip-rule="evenodd" d="M446.829 220.006C449.346 220.025 449.392 215.818 451.67 217.062C449.032 223.403 449.347 234.489 457.393 233.995C462.436 233.696 467.894 227.016 468.397 223.189C469.975 211.2 449.003 207.483 446.829 220.006ZM455.108 230.468C446.916 222.036 460.888 210.647 465.03 218.354C467.702 223.362 460.884 231.96 455.108 230.468Z" fill="#E3DDD7"/>
<path fill-rule="evenodd" clip-rule="evenodd" d="M81.385 258.69C78.3748 262.776 74.369 266.416 75.8102 271.72C77.9547 279.63 91.6254 278.825 91.6723 270.329C91.7025 264.256 85.9893 258.442 81.385 258.69ZM86.8854 273.753C83.262 274.423 80.6055 273.855 79.5239 271.282C81.1806 271.463 81.4368 270.521 82.2184 270.019C81.2115 268.17 79.5029 268.582 79.0451 267.056C75.7145 256.02 95.1889 265.602 86.8854 273.753Z" fill="#E3DDD7"/>
<path fill-rule="evenodd" clip-rule="evenodd" d="M420.865 223.539C421.801 224.825 422.784 221.83 423.655 223.216C423.61 227.504 424.36 232.477 428.045 232.683C442.992 233.549 427.415 205.948 420.865 223.539ZM427.662 229.404C425.426 227.408 426.604 220.287 430.569 221.917C432.286 225.127 431.445 229.248 427.662 229.404Z" fill="#E3DDD7"/>
<path fill-rule="evenodd" clip-rule="evenodd" d="M110.279 260.056C112.095 258.991 116.598 257.087 117.715 259.184C117.796 260.675 117.711 262.024 116.174 262.221C116.146 260.292 115.638 258.966 113.941 259.145C112.843 261.228 112.706 265.477 114.806 266.663C128.748 264.645 114.67 246.982 110.279 260.056Z" fill="#E3DDD7"/>
<path fill-rule="evenodd" clip-rule="evenodd" d="M546.686 207.321C547.612 210.954 543.514 213.364 545.192 218.923C553.318 225.748 558.297 204.895 546.686 207.321ZM548.228 216.662C547.04 214.942 547.815 211.64 550.993 212.043C551.111 214.425 550.039 215.828 548.228 216.662Z" fill="#E3DDD7"/>
<path fill-rule="evenodd" clip-rule="evenodd" d="M488.915 229.346C485.181 228.77 482.604 231.698 483.564 236.164C493.111 245.024 498.877 221.406 488.915 229.346ZM486.717 234.844C484.388 232.063 488.19 230.533 490.571 231.532C490.899 233.932 489.125 234.644 486.717 234.844Z" fill="#E3DDD7"/>
<path fill-rule="evenodd" clip-rule="evenodd" d="M426.303 246.229C428.566 246.183 426.974 243.069 429.239 243.03C429.555 247.128 432.061 248.399 434.28 250.067C438.598 249.964 440.405 247.852 441.753 245.376C442.93 228.531 423.991 234.303 426.303 246.229ZM435.818 247.016C432.008 247.476 429.955 241.365 431.421 237.529C439.105 233.181 441.871 246.294 435.818 247.016Z" fill="#E3DDD7"/>
<path fill-rule="evenodd" clip-rule="evenodd" d="M385.481 251.975C387.35 250.916 388.592 246.246 391.727 248.858C389.503 250.076 388.733 252.429 389.228 255.815C389.802 255.975 390.334 256.192 390.73 256.59C403.459 252.571 385.46 237.347 385.481 251.975Z" fill="#E3DDD7"/>
<path fill-rule="evenodd" clip-rule="evenodd" d="M506.193 236.373C503.585 244.102 509.126 252.756 514.507 255.388C524.196 254.635 531.489 247.647 529.21 239.852C526.561 230.704 513.988 233.145 506.193 236.373ZM508.08 240.434C511.933 234.466 524.291 233.058 526.427 240.172C530.206 252.773 506.442 257.75 508.08 240.434Z" fill="#E3DDD7"/>
<path fill-rule="evenodd" clip-rule="evenodd" d="M401.777 262.433C402.251 257.839 402.233 252.845 406.11 250.975C405.643 256.137 405.263 264.844 410.539 264.741C415.627 264.643 417.038 256.55 415.165 251.819C410.768 240.617 394.004 252.766 401.777 262.433ZM410.554 260.921C407.288 259.331 409.053 253.283 409.887 250.998C410.348 250.948 410.82 250.887 411.275 250.839C413.28 253.267 413.57 259.879 410.554 260.921Z" fill="#E3DDD7"/>
<path fill-rule="evenodd" clip-rule="evenodd" d="M475.629 249.003C476.826 247.629 478.534 248.875 480.276 248.454C478.208 242.192 472.514 248.1 468.244 250.347C468.266 252.108 470.573 250.947 470.831 252.415C468.704 259.245 473.206 265.173 478.286 263.909C485.858 262.057 480.841 250.716 475.629 249.003ZM479.598 259.003C478.212 259.739 477.499 261.018 475.124 260.957C473.101 258.941 472.195 255.251 473.166 252.141C477.331 251.818 479.854 255.332 479.598 259.003Z" fill="#E3DDD7"/>
<path fill-rule="evenodd" clip-rule="evenodd" d="M48.3483 299.234C48.0269 301.394 47.6258 303.482 48.2331 306.383C60.2582 313.816 60.6906 289.068 48.3483 299.234ZM51.7375 304.07C51.695 302.19 52.904 301.301 54.6577 300.869C55.3956 303.22 53.2353 304.854 51.7375 304.07Z" fill="#E3DDD7"/>
<path fill-rule="evenodd" clip-rule="evenodd" d="M365.13 263.419C361.586 267.385 365.123 274.928 369.272 274.824C377.474 274.661 372.991 261.953 365.13 263.419ZM367.961 271.647C367 270.798 366.054 268.014 366.907 266.537C369.142 266.744 370.337 268.262 370.694 270.861C370.22 271.462 369.122 271.586 367.961 271.647Z" fill="#E3DDD7"/>
<path fill-rule="evenodd" clip-rule="evenodd" d="M429.472 261.574C431.655 261.456 432.931 258.387 435.412 259.925C431.663 265.646 439.438 271.431 443.151 265.684C443.785 256.87 431.054 253.443 429.472 261.574ZM438.851 265.226C437.431 265.351 437.404 262.283 437.941 261.522C440.011 260.847 440.051 264.85 438.851 265.226Z" fill="#E3DDD7"/>
<path fill-rule="evenodd" clip-rule="evenodd" d="M343.145 281.237C344.913 281.075 343.526 278.409 345.145 278.143C345.194 280.043 346.049 284.577 349.355 281.94C349.642 272.1 339.974 271.884 343.145 281.237Z" fill="#E3DDD7"/>
<path fill-rule="evenodd" clip-rule="evenodd" d="M132.98 301.654C137.162 300.993 140.638 301.211 140.953 305.479C140.132 307.235 138.525 308.362 135.654 308.48C135.206 306.84 137.159 307.132 136.722 305.504C124.391 309.433 142.745 315.196 143.906 306.556C144.69 300.878 136.065 295.119 132.98 301.654Z" fill="#E3DDD7"/>
<path fill-rule="evenodd" clip-rule="evenodd" d="M502.614 262.484C504.132 265.717 507.233 268.709 511.586 266.666C515.494 259.196 503.156 253.78 502.614 262.484ZM508.406 263.705C507.091 263.591 505.738 263.518 505.811 261.632C507.352 260.184 509.537 261.93 508.406 263.705Z" fill="#E3DDD7"/>
<path fill-rule="evenodd" clip-rule="evenodd" d="M326.512 292.242C329.287 291.376 329.098 294.332 331.427 294.037C339.222 286.942 324.453 279.189 326.512 292.242ZM328.614 290.086C328.571 289.618 328.506 289.15 328.454 288.677C329.409 288.367 329.716 288.859 330.366 288.929C330.357 289.768 329.699 290.091 328.614 290.086Z" fill="#E3DDD7"/>
<path fill-rule="evenodd" clip-rule="evenodd" d="M384.412 283.533C382.261 299.111 401.693 287.097 391.059 279.889C387.413 279.959 387.383 282.934 384.412 283.533ZM387.795 288.37C386.046 286.168 387.974 281.639 390.978 283.233C391.29 286.053 391.166 288.508 387.795 288.37Z" fill="#E3DDD7"/>
<path fill-rule="evenodd" clip-rule="evenodd" d="M92.8028 329.218C98.9729 330.48 101.075 325.129 102.221 320.975C98.5665 308.817 86.9003 320.059 92.8028 329.218ZM94.3458 326.187C92.6564 323.043 93.7964 318.721 97.7158 318.657C98.1647 318.988 98.1356 319.906 98.8155 319.953C99.3403 323.64 97.25 325.239 94.3458 326.187Z" fill="#E3DDD7"/>
<path fill-rule="evenodd" clip-rule="evenodd" d="M359.083 284.6C355.687 286.015 349.027 301.346 357.313 301.941C366.388 302.602 370.254 279.941 359.083 284.6ZM356.981 299.128C354.559 297.099 355.805 292.391 356.941 290.562C358.262 290.349 360.009 290.466 360.61 289.649C361.027 287.49 358.89 288.607 358.883 286.997C360.355 286.923 362.261 286.29 363.123 286.977C365.196 292.66 361.833 297.563 356.981 299.128Z" fill="#E3DDD7"/>
<path fill-rule="evenodd" clip-rule="evenodd" d="M400.54 284.48C402.083 288.592 400.373 294.676 405.094 295.369C412.691 292.562 406.912 275.491 400.54 284.48ZM404.966 290.149C402.918 290.056 404.452 286.252 404.364 284.984C406.256 285.346 405.542 289.125 404.966 290.149Z" fill="#E3DDD7"/>
<path fill-rule="evenodd" clip-rule="evenodd" d="M431.997 279.361C428.293 280.898 427.385 283.08 428.053 286.014C429.683 293.124 441.964 289.544 440.85 282.595C440.229 278.708 436.115 277.64 431.997 279.361ZM431.931 286.975C428.096 283.183 435.505 278.548 437.6 282.968C436.929 285.285 435.465 286.968 431.931 286.975Z" fill="#E3DDD7"/>
<path fill-rule="evenodd" clip-rule="evenodd" d="M167.096 323.823C170.804 322.772 174.792 319.641 173.734 315.907C171.732 308.879 160.666 319.969 167.096 323.823ZM167.125 320.005C166.094 318.867 167.861 317.114 170.117 317.27C169.668 318.626 169.005 319.802 167.125 320.005Z" fill="#E3DDD7"/>
<path fill-rule="evenodd" clip-rule="evenodd" d="M492.829 279.822C501.08 274.941 501.588 288.069 494.219 287.753C492.848 286.235 493.742 283.585 493.511 281.636C492.493 282.105 491.178 282.338 490.36 282.962C490.083 297.103 503.585 288.089 502.398 281.066C501.681 276.853 495.08 274.626 492.829 279.822Z" fill="#E3DDD7"/>
<path fill-rule="evenodd" clip-rule="evenodd" d="M310.29 302.708C310.52 308.052 319.437 306.394 317.625 300.898C314.516 299.195 312.902 301.737 310.29 302.708Z" fill="#E3DDD7"/>
<path fill-rule="evenodd" clip-rule="evenodd" d="M127.839 334.632C128.135 338.063 124.664 348.5 131.613 347.043C136.81 345.95 136.471 332.801 127.839 334.632ZM130.196 342.914C129.8 341.473 130.657 341.001 130.797 339.99C131.844 340.31 131.834 343.33 130.196 342.914Z" fill="#E3DDD7"/>
<path fill-rule="evenodd" clip-rule="evenodd" d="M335.753 311.135C325.44 309.502 325.128 325.606 329.774 332.791C347.048 339.183 347.936 313.078 335.753 311.135ZM332.809 330.524C328.661 329.614 328.827 317.082 330.564 315.08C338.179 306.285 350.824 332.159 332.809 330.524Z" fill="#E3DDD7"/>
<path fill-rule="evenodd" clip-rule="evenodd" d="M361.772 311.891C365.546 310.118 371.898 315.518 365.616 316.679C365.218 315.231 366.414 314.722 365.29 313.863C363.566 313.754 362.855 314.471 362.151 315.186C363.834 323.937 374.046 318.901 371.286 312.678C370.145 310.101 363.172 306.589 361.772 311.891Z" fill="#E3DDD7"/>
<path fill-rule="evenodd" clip-rule="evenodd" d="M64.1277 362.585C65.1315 361.373 65.6558 357.569 66.8968 357.979C66.367 361.888 65.4003 368.31 68.83 370.604C76.2261 370.787 83.0247 364.953 83.5527 359.351C85.2014 341.477 59.9017 348.491 64.1277 362.585ZM69.3704 367.202C68.062 360.364 66.8544 349.081 75.9622 350.723C84.8798 352.34 79.2912 370.085 69.3704 367.202Z" fill="#E3DDD7"/>
<path fill-rule="evenodd" clip-rule="evenodd" d="M408.062 313.116C416.922 310.048 417.774 322.533 410.646 323.282C406.154 321.359 409.92 317.031 411.582 315.073C404.282 314.322 405.677 325.297 410.452 325.678C421.459 326.585 417.892 303.515 408.062 313.116Z" fill="#E3DDD7"/>
<path fill-rule="evenodd" clip-rule="evenodd" d="M449.119 321.625C450.246 321.899 450.92 319.744 451.388 320.882C449.619 325.179 452.808 330.926 455.891 331.299C470.957 333.113 455.062 303.966 449.119 321.625ZM456.899 327.845C453.16 327.033 453.917 321.489 452.14 319.362C458.872 316.602 461.31 325.481 456.899 327.845Z" fill="#E3DDD7"/>
<path fill-rule="evenodd" clip-rule="evenodd" d="M100.81 370.175C102.268 368.22 101.507 364.478 103.775 363.159C107.285 363.27 108.085 367.518 107.542 371.282C106.385 371.357 105.289 371.488 104.806 372.084C104.847 373.832 105.623 374.626 106.162 375.735C114.12 374.596 109.47 363.033 105.82 360.539C100.593 360.39 98.4222 367.071 100.81 370.175Z" fill="#E3DDD7"/>
<path fill-rule="evenodd" clip-rule="evenodd" d="M416.775 335.423C421.445 325.083 433.598 339.023 423.272 342.754C421.543 340.665 422.12 335.603 419.51 334.622C415.351 345.85 429.198 349.34 430.488 339.996C431.907 329.748 417.464 324.441 416.775 335.423Z" fill="#E3DDD7"/>
<path fill-rule="evenodd" clip-rule="evenodd" d="M378.521 334.67C377.538 335.979 375.943 340.993 378.45 342.293C379.51 341.567 377.874 338.703 379.94 338.783C380.716 341.537 378.023 343.302 379.766 345.461C384.752 345.364 383.906 333.373 378.521 334.67Z" fill="#E3DDD7"/>
<path fill-rule="evenodd" clip-rule="evenodd" d="M158.154 364.859C159.646 364.757 161.655 363.974 161.562 365.888C161.223 367.321 158.872 367.142 158.583 368.619C159.202 371.236 160.231 373.336 162.886 373.35C168.471 369.73 160.13 355.013 158.154 364.859Z" fill="#E3DDD7"/>
<path fill-rule="evenodd" clip-rule="evenodd" d="M302.721 364.052C303.827 366.485 305.482 372.686 309.027 373.784C309.963 373.532 309.79 372.401 310.721 372.158C309.44 367.693 307.774 363.713 302.721 364.052Z" fill="#E3DDD7"/>
<path fill-rule="evenodd" clip-rule="evenodd" d="M480.628 357.902C483.732 349.077 492.675 356.285 485.819 362.047C484.885 359.903 486.851 357.41 484.762 356.93C477.883 369.881 495.645 364.412 490.944 353.345C488.481 347.558 478.869 352.021 480.628 357.902Z" fill="#E3DDD7"/>
<path fill-rule="evenodd" clip-rule="evenodd" d="M379.52 367.876C373.035 367.012 370.476 374.017 370.013 379.466C373.483 376.838 373.275 371.273 378.856 370.339C379.339 371.332 381.111 370.687 381.393 371.941C381.998 375.974 381.721 379.303 379.631 381.198C379.318 379.916 379.453 376.925 376.415 377.767C375.786 379.952 375.77 382.997 376.812 385.337C385.943 388.695 386.746 368.849 379.52 367.876Z" fill="#E3DDD7"/>
<path fill-rule="evenodd" clip-rule="evenodd" d="M431.499 365.107C426.324 369.92 430.772 379.11 436.782 378.291C445.966 377.018 443.061 359.835 431.499 365.107ZM431.461 368.92C445.067 359.985 435.738 385.963 431.461 368.92Z" fill="#E3DDD7"/>
<path fill-rule="evenodd" clip-rule="evenodd" d="M336.77 418.122C346.363 417.539 345.954 399.959 340.89 396.693C329.133 389.127 327.866 414.023 336.77 418.122ZM338.246 414.616C334.415 413.219 334.684 404.929 334.306 400.798C342.832 392.854 344.265 411.671 338.246 414.616Z" fill="#E3DDD7"/>
<path fill-rule="evenodd" clip-rule="evenodd" d="M540.768 41.4124C535.398 39.7614 523.009 38.8346 515.428 38.1974C503.043 37.1585 491.123 39.8025 480.371 36.6079C475.791 35.2515 471.767 31.7383 466.943 30.5736C460.968 29.1273 453.856 30.2564 447.87 28.525C442.439 26.9663 437.915 22.7978 432.948 21.7204C429.261 20.9085 425.161 21.626 421.513 20.6764C415.882 19.23 412.117 14.4852 407.001 13.3492C404.4 12.772 401.417 13.5746 398.054 13.4414C392.784 13.2466 386.745 11.0875 381.24 10.6676C375.172 10.1959 368.399 11.1341 361.955 11.0269C355.344 10.9255 348.914 9.6753 343.455 9.8779C338.766 10.0404 333.846 11.3747 329.399 10.5697C319.744 8.83418 311.592 0.633997 301.9 9.04047C298.611 6.48145 293.375 3.89541 287.462 6.45323C284.313 1.09388 270.526 -4.37365 268.536 5.82412C262.476 -3.12466 252.686 6.63513 247.419 10.6914C240.165 7.64107 231.171 11.0455 231.384 18.7606C226.34 19.5551 224.606 23.0059 221.806 25.5947C214.721 22.375 210.856 27.8576 205.334 29.9057C189.345 35.8533 176.97 41.3929 166.264 50.6814C157.403 58.3793 149.337 61.3116 145.373 69.8044C128.043 57.6913 105.004 69.9335 105.888 91.1049C95.6623 95.2499 85.7196 100.005 75.2941 103.744C64.999 107.43 54.4647 112.71 43.2181 115.603C34.5764 117.821 24.9227 115.124 15.68 117.886C12.4022 118.859 9.81914 122.706 5.3152 121.955C4.13425 123.013 4.90876 125.612 3.4614 126.462C2.44493 125.97 2.35819 124.288 0.456315 124.912C-1.70672 138.068 2.62111 150.77 3.08427 164.119C4.069 192.477 5.33191 222.002 10.499 248.93C12.5762 259.737 11.6848 271.075 13.3635 281.921C14.6141 290.026 18.2477 297.028 18.9647 306.004C20.3986 323.956 23.7622 342.295 24.5604 358.663C25.7354 382.83 36.1758 404.436 37.7415 428.042C37.7923 430.223 34.0725 429.376 35.4352 432.604C52.4916 440.045 69.9198 442.966 86.9085 449.88C95.0359 453.185 102.657 457.256 111.607 459.825C120.394 462.34 128.503 467.366 137.205 469.196C140.851 469.969 144.23 469.239 147.646 469.874C154.961 471.22 163.683 477.06 171.31 478.993C191.232 484.039 210.544 493.219 231.272 500.5C241.5 504.104 252.085 506.484 262.075 510.219C272.815 514.216 283.791 515.368 294.173 518.822C298.133 520.136 302.148 523.024 306.6 524.492C310.666 525.841 316.615 529.159 319.855 529.122C324.264 529.081 331.181 523.847 335.014 521.628C341.877 517.674 349.931 512.845 355.37 510.193C360.781 507.543 366.621 506.597 371.629 503.994C376.44 501.495 380.471 498.188 385.229 495.261C413.669 477.732 443.647 464.819 471.153 447.549C513.872 420.734 559.015 397.966 598.783 369.238C597.549 366.075 593.835 363.437 593.167 361.323C591.767 262.64 571.675 167.346 565.665 69.4152C561.365 56.9561 553.216 45.2425 540.768 41.4124ZM325.183 43.4303C326.876 43.2383 327.43 44.5207 328.649 44.93C327.387 53.3262 334.41 59.6111 336.006 67.8709C331.992 67.7862 330.385 64.6245 327.872 62.6309C327.285 61.1658 329.327 61.8079 329.041 60.5925C322.638 55.489 313.751 53.5294 307.778 47.8524C308.477 52.8994 314.081 56.3359 316.382 61.1298C313.336 61.2489 312.116 59.0281 309.907 58.089C310.693 60.6771 315.173 63.2095 317.803 65.2496C315.303 67.171 312.57 64.7554 310.194 64.7168C310.058 63.6116 310.829 63.2464 310.342 61.8473C303.84 57.7495 299.133 51.3735 292.226 47.7896C291.181 48.637 292.442 51.0521 293.126 51.4822C289.825 51.9294 287.63 46.305 284.354 44.9033C283.9 52.1462 292.912 56.0648 295.192 61.2347C294.252 61.3478 293.325 61.4569 292.392 61.568C289.023 53.4797 268.919 52.0077 274.705 38.899C278.341 38.8168 282.95 39.2034 283.79 35.9257C289.202 38.3627 293.591 42.0985 300.569 42.5256C302.397 42.4187 302.045 40.58 302.576 39.429C306.668 41.1912 310.031 43.9051 314.123 45.6897C314.474 45.3916 314.816 45.1111 315.473 45.0538C315.662 40.4861 310.743 42.4483 310.053 39.018C316.595 39.4804 318.673 45.6281 325.037 46.3067C326.547 45.8442 325.499 44.4517 325.183 43.4303ZM462.454 81.5526C459.621 83.1158 460.713 87.8302 458.213 89.6776C457.298 86.6549 461.11 83.7469 460.85 79.8395C458.264 78.6439 456.292 76.6721 453.344 75.9626C452.649 67.7789 444.232 65.005 442.183 56.8001C440.145 56.6154 439.921 57.8437 439.607 59.0106C436.327 55.4138 437.957 49.7983 441.154 47.8814C460.289 46.4434 472.309 54.0847 476.429 71.8114C475.574 72.9564 475.069 71.7405 473.629 72.1447C474.275 76.217 470.009 76.3483 470.823 80.5695C468.4 79.6505 467.914 82.1706 465.254 81.2193C464.119 81.7387 464.287 83.3001 463.722 84.2617C462.197 83.8335 464.58 81.489 462.454 81.5526ZM440.834 98.3809C441.887 94.211 441.923 85.6294 443.487 80.4626C450.698 82.8456 447.251 97.5052 440.834 98.3809ZM441.968 67.3063C443.073 72.7341 441.852 76.3112 440.584 79.8509C438.631 80.1802 438.066 78.7607 436.652 78.4101C437.199 74.7328 436.17 69.7849 437.163 66.4538C438.646 66.8873 440.417 66.9602 441.968 67.3063ZM434.959 100.498C433.946 96.0262 430.386 94.8283 428.288 91.7629C430.646 88.8638 433.871 79.8247 438.224 83.9338C438.286 85.8304 437.285 86.8787 436.851 88.3848C440.285 91.4619 437.114 97.8818 434.959 100.498ZM428.842 108.841C427.65 110.583 426.242 112.16 424.685 113.605C423.128 113.786 422.916 112.275 421.259 112.589C423.04 108.082 423.354 100.688 422.208 96.2861C428.003 93.202 433.006 99.7625 430.783 105.276C429.357 106.593 428.079 104.175 426.602 105.766C426.22 108.218 428.886 106.809 428.842 108.841ZM362.507 85.2083C363.645 85.2719 363.42 84.2378 364.783 84.4634C365.121 82.0618 363.116 82.6361 362.956 80.8799C364.332 80.3324 366.291 78.7365 368.022 79.8126C366.562 82.1084 366.251 86.4614 367.765 89.8286C365.328 90.3037 365.046 92.4963 364.014 94.0863C361.999 94.501 363.577 90.3211 361.71 90.5433C362.072 88.4228 364.104 87.8181 362.507 85.2083ZM380.081 53.6333C384.679 50.7617 391.21 52.9726 391.949 58.429C388.181 59.2535 384.733 60.3438 383.024 62.811C380.024 62.1469 377.471 60.912 375.514 58.9206C375.116 57.4728 376.614 57.5392 376.641 56.4145C378.96 56.1374 379.865 58.7046 381.911 57.2303C381.965 55.1806 380.166 55.4858 380.081 53.6333ZM409.989 80.1117C410.536 76.2865 409.16 74.2533 407.621 71.8181C410.196 69.5784 413.533 66.5247 418.036 68.215C419.976 69.8785 420.136 73.7939 420.52 77.4497C415.073 76.6797 414.311 81.3611 409.989 80.1117ZM409.526 100.639C407.146 99.8915 405.17 98.6528 402.63 98.109C403.005 90.9711 406.505 82.8915 414.245 84.3611C415.894 90.7416 412.271 96.3733 409.526 100.639ZM401.407 71.1241C401.449 65.7131 398.048 64.6302 397.327 60.1811C401.064 54.5149 410.822 58.682 411.976 64.6496C408.195 66.5947 405.336 69.2824 401.407 71.1241ZM405.722 75.8508C407.739 81.1961 403.639 85.2339 401.547 88.7111C398.096 87.0145 394.673 85.2651 390.665 84.2836C386.114 74.9172 400.17 72.4653 405.722 75.8508ZM370.736 87.0995C368.717 75.2993 381.019 71.468 386.356 79.5549C385.891 81.0555 386.159 83.378 386.951 84.7219C383.324 84.8088 382.639 87.2485 380.828 88.7774C376.864 88.9879 373.869 86.3038 370.736 87.0995ZM382.233 100.977C376.902 103.522 374.266 103.348 369.115 101.571C367.256 98.8926 367.414 94.7409 369.017 92.5349C372.442 91.4886 374.368 90.9454 378.255 90.9723C380.095 93.6571 381.396 96.9995 382.233 100.977ZM383.69 93.1881C383.72 85.2073 397.934 86.9375 399.65 92.7505C401.217 98.0095 396.325 99.8604 391.853 102.716C389.607 101.803 387.328 100.951 384.555 100.707C387.106 97.1726 383.684 95.6228 383.69 93.1881ZM387.789 75.5811C385.346 74.9193 383.347 73.7023 382.135 71.4793C383.958 62.877 397.322 58.6742 397.641 71.09C393.143 71.6241 389.905 73.154 387.789 75.5811ZM380.023 65.5414C379.334 70.1267 373.31 74.071 367.584 76.0474C366.472 75.2066 367.494 74.1814 367.715 73.1683C367.519 71.9849 366.054 72.4264 364.82 72.5614C365.028 67.4629 366.861 63.6792 370.087 60.9919C372.365 64.8905 377.077 62.4284 380.023 65.5414ZM374.455 107.136C374.062 110.715 374.214 114.803 375.284 118.452C371.409 119.856 368.752 121.048 364.229 120.702C356.153 111.917 364.876 98.2709 374.455 107.136ZM370.771 124.218C372.168 123.716 372.238 124.871 373.617 124.36C374.246 117.463 384.372 124.714 383.623 129.369C378.808 132.646 368.616 132.64 370.771 124.218ZM382.238 121.452C378.988 118.726 376.93 112.373 378.744 107.582C392.738 94.7291 405.518 120.888 382.238 121.452ZM398.49 115.255C407.942 123.47 389.476 140.938 387.249 124.194C392.272 122.238 396.861 119.931 398.49 115.255ZM396.358 105.034C397.854 102.461 402.245 100.872 405.439 102.069C405.685 104.044 405.929 106.085 407.903 107.021C407.865 111.255 406.367 114.317 403.827 116.546C399.678 114.816 398.935 108.754 396.358 105.034ZM403.676 119.409C407.853 117.737 411.043 117.064 415.766 117.985C412.618 121.159 410.999 125.544 404.429 125.978C403.069 124.369 403.848 121.428 403.676 119.409ZM410.157 114.358C411.596 107.728 410.059 98.1785 418.148 97.7088C421.4 104.509 419.117 115.97 410.157 114.358ZM417.248 94.0161C418.018 90.2272 418.1 85.8915 418.158 81.5258C422.308 81.2517 425.254 82.5239 427.072 85.2373C427.372 88.1863 424.796 88.8363 424.982 91.6718C422.067 92.1875 419.886 93.2807 417.248 94.0161ZM434.715 65.7716C432.498 64.4871 429.649 63.9848 426.494 63.8851C427.145 61.0565 425.932 58.412 425.514 55.4322C432.831 49.4714 438.62 57.8733 434.715 65.7716ZM422.81 52.4235C422.691 51.2246 421.84 46.6817 422.003 45.3753C424.84 46.0588 427.413 47.088 428.654 49.8275C426.408 50.4523 425.063 51.7967 422.81 52.4235ZM425.069 67.8638C435.119 63.1504 435.372 78.8844 430.509 82.4493C427.753 81.6674 425.946 79.6607 423.465 78.5223C423.31 74.4278 423.204 70.3483 425.069 67.8638ZM422.573 66.7225C418.404 66.2628 413.053 62.765 411.98 56.5512C418.262 50.0592 426.321 58.7385 422.573 66.7225ZM409.229 53.0612C408.637 50.5847 407.241 49.1271 406.616 46.7123C410.021 44.5107 412.694 46.4714 416.322 45.0976C417.062 47.0116 419.271 47.0784 419.245 49.9923C416.313 51.3415 411.969 51.5555 409.229 53.0612ZM397.394 44.4617C397.245 38.0804 407.319 39.0761 410.301 41.9862C405.662 42.7624 402.422 45.2025 397.394 44.4617ZM402.533 48.1343C402.584 51.3062 406.028 50.1507 405.56 53.974C403.181 54.5945 397.378 54.3533 394.971 56.1656C390.142 51.9851 397.021 46.6962 402.533 48.1343ZM380.573 49.7727C381.879 43.0864 387.963 40.8838 394.637 40.9737C394.154 47.7449 388.828 50.2366 380.573 49.7727ZM371.441 52.2647C369.712 52.6819 369.143 51.5962 368.015 51.2482C366.012 52.3471 366.104 55.1146 365.42 57.2583C364.414 57.1765 364.219 57.7308 363.611 57.951C361.626 55.0215 356.459 54.8255 356.746 59.7158C355.196 57.6165 357.875 55.2345 357.327 52.5083C356.089 51.2173 353.103 52.1613 352.35 50.2289C350.258 49.9865 351.008 52.0084 349.265 52.0306C349.463 50.3442 350.529 49.3428 350.107 47.17C349.691 45.5871 347.796 46.7053 346.816 47.0817C347.68 42.0963 342.918 41.364 339.024 40.8436C342.921 24.7839 366.854 18.7431 379.401 31.343C388.868 40.8479 376.286 45.3406 371.441 52.2647ZM341.161 55.3518C342.304 55.503 343.358 55.7769 344.933 55.3839C348.959 59.2514 349.21 67.887 355.454 68.9048C356.33 72.6415 356.987 76.629 360.193 77.3939C359.622 79.6288 358.647 81.5568 356.562 82.5769C346.135 73.4423 336.849 62.84 331.722 46.9328C337.094 45.0189 338.818 51.6798 341.161 55.3518ZM339.407 126.013C340.683 123.617 346.88 116.115 347.966 122.621C345.103 123.883 345.312 127.591 341.528 128.139C342.573 125.48 340.644 126.062 339.407 126.013ZM313.759 144.742C312.023 144.614 311.288 143.216 309.767 142.824C309.969 140.855 311.071 139.606 311.555 137.848C311.538 135.532 309.107 136.301 308.787 134.371C310.433 133.402 311.912 132.313 312.597 130.591C312.326 128.084 310.387 126.997 311.943 124.953C311.476 123.046 308.808 123.93 307.91 122.574C314.843 113.845 332.779 112.14 342.505 116.124C333.885 126.426 322.431 134.469 313.759 144.742ZM323.775 141.651C322.674 141.095 324.222 140.437 323.15 140.301C323.565 137.366 326.668 136.572 328.13 134.482C329.669 135.779 330.723 137.983 333.515 136.232C332.083 139.54 328.91 143.572 325.963 144.253C326.328 142.982 326.826 141.819 326.407 139.926C325.483 138.807 325.37 141.895 323.775 141.651ZM320.234 147.783C320.962 147.941 321.484 148.346 322.211 148.504C322.21 149.791 320.346 149.576 320.094 150.657C318.196 150.401 319.95 148.756 320.234 147.783ZM316.359 146.806C316.708 145.51 318.011 145.014 318.35 143.729C319.75 144.727 317.819 146.669 316.359 146.806ZM312.109 154.926C310.521 152.498 312.726 149.453 315.184 148.853C314.15 151.598 318.105 154.555 314.073 155.651C314.674 153.422 312.11 153.366 312.109 154.926ZM309.985 116.137C308.716 114.293 311.182 111.709 308.418 110.604C301.803 114.135 295.089 117.577 287.379 120.225C286.225 115.322 290.801 115.002 291.047 111.223C286.635 109.742 278.044 114.688 271.577 113.982C271.58 111.563 274.72 111.66 274.294 108.904C270.128 103.518 261.645 109.475 256.095 110.563C257.069 107.215 261.939 106.998 264.387 104.826C264.279 103.89 264.178 102.952 264.066 102.002C262.216 100.222 258.031 101.446 254.596 101.689C248.313 96.4238 238.688 95.4113 233.348 88.952C232.905 87.1777 236.096 88.3166 235.919 86.7504C233.553 81.3109 223.317 79.1732 227.056 71.1328C229.594 70.2574 231.872 71.8489 233.15 70.8946C233.737 70.5033 233.893 69.7908 233.867 68.9111C231.912 66.727 228.173 66.8326 226.303 64.5638C225.817 62.4697 228.258 62.7032 227.721 60.5873C226.854 58.0975 223.077 59.3387 221.308 58.0081C227.179 56.8681 231.349 51.6263 237.495 51.3427C241.178 51.1724 244.699 55.2142 247.482 52.0687C247.688 49.84 246.55 49.3101 246.065 47.9626C249.027 47.2108 252.822 50.3714 253.966 47.0318C254.126 43.9518 250.564 45.6236 250.226 43.189C256.599 42.6078 262.498 42.6056 268.115 42.9842C269.358 41.9885 268.268 39.1373 270.987 39.3238C268.561 53.4984 282.151 55.7421 288.68 61.9908C279.508 61.9144 267.859 54.9375 267.458 45.445C266.849 44.9702 265.748 45.1096 264.613 45.3038C262.664 47.4067 265.106 50.8936 265.943 52.7637C264.562 53.2684 264.488 52.1225 263.107 52.6272C266.469 55.5114 270.812 57.1538 273.894 60.4035C264.936 61.8003 260.108 55.5863 257.248 50.9313C252.198 53.3914 259.371 56.9839 260.184 60.111C252.512 60.2331 244.206 59.4223 238.364 58.8749C242.504 67.4187 257.412 62.2254 265.544 65.6695C260.162 71.6166 250.633 74.2281 246.07 80.816C253.967 81.7503 259.726 70.1879 269.12 68.1124C267.809 74.7335 262.18 77.9081 257.501 81.8465C265.703 83.5687 272.912 73.8175 279.72 70.199C282.679 71.0972 286.368 71.0437 288.123 73.495C281.403 76.9393 274.814 80.4841 271.232 86.4288C277.996 85.4118 284.244 75.6543 293.742 73.3109C298.859 75.0455 305.481 74.8626 310.623 76.5599C301.606 82.1453 289.351 85.1418 283.828 93.5125C283.817 95.335 286.734 95.0256 287.249 94.5378C293.225 85.4463 309.004 78.1421 321.172 78.1741C315.312 84.8568 309.383 91.479 304.741 99.1406C309.873 102.091 311.043 94.129 313.743 91.4226C324.379 80.7798 345.034 80.1778 356.132 91.1883C349.61 98.2331 341.121 99.4074 331.946 102.127C323.817 104.546 319.241 115.478 309.985 116.137ZM270.379 193.622C244.9 180.237 230.118 131.203 237.58 97.0391C239.98 96.3162 240.234 98.34 241.982 98.4346C233.862 106.538 247.272 109.486 255.504 105.409C254.052 107.806 250.869 108.802 250.633 112.171C255.284 117.559 262.711 110.234 268.772 110.035C268.962 112.462 266.033 112.413 266.003 114.64C269.163 120.388 276.633 115.883 283.524 115.448C280.459 128.004 292.876 122.304 299.924 118.754C300.163 125.84 307.626 130.513 302.853 136.018C304.17 138.372 305.908 140.267 305.174 143.83C303.609 144.952 302.659 143.915 300.518 144.375C299.163 145.611 299.982 149.454 301.223 150.485C304.808 149.834 305.86 149.702 308.549 148.67C299.941 166.948 278.401 174.871 270.379 193.622ZM308.683 161.992C306.209 162.863 306.464 165.907 303.531 166.413C302.556 163.557 304.242 159.374 306.803 157.93C307.685 158.958 308.037 160.671 308.683 161.992ZM296.799 173.389C296.895 170.616 296.643 167.579 298.313 166.07C299.935 166.927 299.662 173.317 296.799 173.389ZM290.993 180.255C290.691 177.321 291.398 175.178 292.042 172.995C292.586 174.443 292.882 179.338 290.993 180.255ZM286.287 180.334C286.048 179.001 285.935 177.777 287.421 177.825C287.498 179.03 287.6 180.242 286.287 180.334ZM286.417 185.56C284.355 185.863 285.723 183.158 286.082 182.739C286.851 182.567 287.188 185.542 286.417 185.56ZM283.304 183.074C283.145 185.362 281.851 186.757 281.111 188.563C279.11 187.265 281.356 183.838 283.304 183.074ZM275.604 193.964C275.485 195.146 275.491 196.431 274.014 196.535C273.028 195.701 274.338 194.286 275.604 193.964ZM243.86 102.491C245.886 101.592 247.987 101.743 249.552 102.78C248.666 103.52 243.765 104.797 243.86 102.491ZM303.754 119.256C304.513 117.512 306.507 120.128 305.358 120.969C304.393 120.949 304.719 119.276 303.754 119.256ZM231.986 44.387C230.984 43.5946 232.261 42.4408 232.068 41.0422C234.076 40.2819 234.557 43.1023 233.849 44.1736C233.225 44.2431 232.61 44.3175 231.986 44.387ZM258.716 35.0487C253.959 22.4313 265.212 28.4627 270.122 31.805C270.124 33.3723 269.302 34.2852 268.633 35.3151C264.937 35.2451 262.542 33.5781 258.716 35.0487ZM261.122 39.5298C259.455 40.032 259.177 38.7697 258.992 37.3983C260.438 37.1625 260.722 38.4228 261.122 39.5298ZM288.857 67.6981C288.09 68.2989 283.877 68.6807 283.581 66.8842C286.077 66.2137 287.289 67.1721 288.857 67.6981ZM276.669 68.1677C275.691 71.2279 271.756 71.9104 269.821 74.2088C268.946 71.0708 272.434 64.9324 276.669 68.1677ZM327.533 80.2808C325.334 82.2075 321.348 82.7133 319.086 84.5999C319.302 82.5531 324.246 77.529 327.533 80.2808ZM338.64 78.5028C338.222 80.4848 334.955 79.1394 333.939 78.5729C334.715 76.0689 337.11 77.6844 338.64 78.5028ZM335.096 72.2495C334.32 71.1595 337.507 73.1794 338.512 73.2835C337.401 75.001 336.197 72.3097 335.096 72.2495ZM297.183 37.6742C298.388 37.3925 299.211 37.6029 299.209 38.8607C298.451 39.8877 296.995 39.3946 297.183 37.6742ZM307.061 37.4641C304.97 36.7261 303.063 35.7477 301.927 33.7828C303.942 29.996 305.131 25.5411 304.541 19.677C311.258 20.9297 313.045 34.3233 307.061 37.4641ZM288.719 9.15067C295.898 7.28391 302.403 12.0611 299.198 18.3879C295.927 17.724 293.06 16.5394 288.298 17.7668C288.152 14.668 289.885 13.0738 288.719 9.15067ZM290.07 20.8934C293.093 20.4485 295.826 20.3799 297.251 21.9617C297.513 24.4342 295.05 24.7471 295.002 26.9876C296.919 29.7153 299.411 26.177 300.364 24.4478C302.253 28.8853 296.74 34.5613 292.893 37.2285C291.488 36.3132 289.812 35.7682 288.384 34.8969C290.272 30.9782 292.355 27.0231 290.07 20.8934ZM284.805 32.4698C281.749 31.7119 280.638 28.4451 276.416 29.1697C275.77 29.5121 275.361 30.0348 275.187 30.7377C275.058 33.2761 278.218 33.7368 277.178 35.7435C273.9 35.4291 275.053 29.462 272.934 27.6672C273.673 26.6978 274.169 27.909 275.737 27.3408C274.698 10.7786 295.29 24.4162 284.805 32.4698ZM271.386 5.95653C277.524 -1.22396 289.278 8.16876 284.829 16.2827C278.792 16.0676 273.671 14.7116 270.94 10.2985C272.097 10.2237 273.188 10.102 273.682 9.49465C273.538 7.51921 271.225 8.31224 271.386 5.95653ZM270.582 19.3763C272.174 19.0892 271.856 17.2695 272.575 16.2838C277.571 17.9809 270.62 21.9089 272.316 26.3155C269.205 25.9953 267.384 23.9927 264.041 23.9497C262.775 20.3305 264.059 15.5805 268.702 15.3134C268.828 17.3017 268.976 19.2684 270.582 19.3763ZM267.384 12.1387C262.501 15.51 258.457 11.8034 255.742 9.22699C258.544 3.29524 267.066 4.8618 267.384 12.1387ZM260.267 15.8281C258.878 18.7092 260.291 19.5036 260.096 22.5129C257.241 23.3579 254.329 24.1539 254.022 27.0341C252.589 27.4362 252.13 26.5762 251.119 26.4225C252.491 21.8974 252.618 12.5789 260.267 15.8281ZM255.431 39.2474C252.425 40.8408 246.713 37.5624 243.8 40.6139C243.641 42.4294 244.619 42.7927 244.702 44.3133C242.244 44.7653 240.555 44.2018 238.546 44.0899C230.628 37.6528 242.972 24.4173 247.283 34.0114C249.334 34.3623 248.351 32.2993 249.4 31.8578C253.163 32.0847 253.823 36.2785 255.431 39.2474ZM247.027 23.5729C247.495 23.5208 247.954 23.4639 248.429 23.4097C248.733 24.3679 248.242 24.6861 248.17 25.3363C247.347 25.3254 247.019 24.6623 247.027 23.5729ZM249.302 14.7386C249.485 18.4327 246.396 19.5257 244.434 21.5071C242.285 19.2113 238.495 19.0218 235.52 17.7957C235.169 11.2756 246.117 12.23 249.302 14.7386ZM233.107 21.3992C234.113 22.9742 234.194 25.7526 236.849 25.2487C238.341 24.178 236.731 23.0879 236.413 21.4903C238.31 21.9394 240.268 22.3256 240.981 24.2925C236.126 29.6445 231.572 35.2461 228.406 41.953C220.095 38.4964 223.471 21.1665 233.107 21.3992ZM151.512 65.7517C155.558 61.7524 162.074 58.7544 167.575 53.8582C175.563 46.7711 181.926 44.0708 193.203 38.9508C202.532 34.6984 211.958 28.0434 221.268 28.9808C218.14 36.7337 222.15 43.6232 227.913 45.8137C213.658 40.6719 201.491 50.2159 189.616 56.9802C175.141 65.23 166.775 78.65 157.997 89.2586C155.738 86.2934 157.282 84.8299 156.205 81.849C153.836 75.3601 144.104 73.093 151.512 65.7517ZM118.148 70.618C118.297 72.5847 116.069 72.6495 114.697 73.4101C115.456 72.1611 116.533 71.1712 118.148 70.618ZM112.058 83.2416C117.441 93.1707 134.729 92.1708 133.577 77.8537C133.16 76.9591 132.203 76.7445 131.097 76.7154C127.183 80.0463 123.044 88.1479 116.404 84.151C115.796 81.8198 116.652 80.6523 116.728 78.8768C118.006 78.3217 119.542 77.9924 120.806 77.4413C118.572 69.0779 135.844 69.9832 141.351 71.7037C142.048 73.3943 139.699 72.6525 140.231 74.2078C141.106 76.1552 143.209 74.0797 144.941 74.1424C153.466 77.7785 150.752 89.1928 153.331 97.9036C151.337 101.144 149.132 104.212 147.903 108.058C138.99 110.698 132.399 119.442 121.306 114.524C114.897 107.366 103.913 94.9535 112.058 83.2416ZM28.0397 118.814C56.4031 117.665 78.8972 102.659 103.595 95.663C104.01 97.4678 105.035 98.4829 106.348 99.1374C109.444 103.551 109.07 108.16 110.712 112.435C114.97 123.561 136.184 122.443 144.843 114.133C146.502 113.804 146.32 115.84 147.841 115.685C158.875 87.7444 178.509 69.1997 205.154 52.7804C209.362 50.1966 215.114 48.7523 220.74 49.0394C222.089 49.1211 221.516 51.6451 222.935 51.6393C227.608 50.8306 227.544 47.2188 232.472 48.6111C228.571 55.2361 215.148 51.7443 212.527 59.5294C216.476 62.2219 220.808 64.4223 224.305 67.6652C223.591 70.8012 221.153 72.534 222.593 77.3875C221.673 77.4946 220.739 77.6057 219.806 77.7168C219.162 80.743 219.084 85.2404 221.764 86.5331C224.031 86.9225 224.647 84.6958 225.894 85.5701C228.479 88.3777 229.187 92.0911 229.005 96.1614C229.078 97.5 231.816 95.4404 231.889 96.7791C232.218 98.4399 231.29 99.1409 231.394 100.633C222.804 104.714 213.708 108.393 210.137 116.457C205.401 116.035 200.602 115.699 194.635 116.86C194.449 115.067 193.87 111.641 192.004 110.502C189.476 110.073 185.711 110.364 185.188 112.732C184.73 115.865 188.117 116.28 187.243 118.207C182.534 118.272 181.623 121.386 178.842 123C178.881 121.495 178.039 121.149 177.171 120.812C162.813 123.332 153.552 119.334 143.239 116.709C148.199 124.585 162.17 125.567 175.279 124.843C167.517 132.993 163.979 144.515 162.053 157.334C144.599 143.587 120.097 138.152 93.5232 139.213C87.061 139.466 81.7056 142.056 76.4329 142.172C50.3361 142.742 35.7056 124.151 7.86948 127.855C9.39221 122.028 18.168 119.222 28.0397 118.814ZM229.483 120.842C224.572 120.473 221.174 118.161 216.397 117.626C217.363 111.552 223.42 107.346 229.783 107.005C228.961 111.038 228.34 115.233 229.483 120.842ZM222.222 123.125C220.485 122.103 216.597 123.836 216.304 120.959C218.536 121.352 221.431 120.894 222.222 123.125ZM209.795 121.722C208.244 123.461 202.832 122.436 199.164 123.452C201.595 121.049 206.611 120.484 209.795 121.722ZM4.97183 155.808C6.90888 156.667 5.51194 158.803 6.0265 160.918C4.87394 160.238 5.44031 157.346 4.97183 155.808ZM11.834 235.92C9.86024 234.887 9.52511 229.982 9.92751 227.576C12.0149 228.522 11.0824 233.299 11.834 235.92ZM23.4312 307.868C17.0462 286.882 16.2211 265.612 15.5512 243.577C20.6821 262.249 20.9724 287.164 23.4312 307.868ZM15.5632 235.484C9.01152 211.701 7.86979 187.672 5.78806 162.839C12.4951 183.676 14.3691 212.691 15.5632 235.484ZM5.82247 130.469C24.3356 129.75 38.036 137.899 53.4387 142.961C62.3374 145.878 69.455 145.886 80.0719 145.077C111.85 142.625 142.762 142.424 158.582 163.925C159.664 163.799 160.754 163.67 161.843 163.542C162.458 166.344 163.967 168.012 165.794 169.266C164.789 173.325 165.146 183.312 170.21 183.036C170.338 188.551 170.598 194.913 177.097 193.643C178.665 199.723 180.672 205.234 186.102 206.393C187.611 212.003 188.995 217.782 192.473 220.883C194.476 221.197 194.182 219.681 195.624 219.557C196.237 221.658 197.909 222.389 199.78 222.875C203.926 221.123 201.314 212.001 200.371 207.567C197.506 208.549 199.814 213.666 198.499 215.881C195.169 214.569 197.252 206.348 192.303 207.091C189.618 206.651 192.542 210.68 190.359 210.65C187.593 204.924 188.831 196.173 184.583 193.237C181.521 193.354 184.541 198.33 181.932 198.79C177.504 192.619 181.838 180.517 177.474 176.47C174.435 178.598 175.528 184.015 174.535 187.767C171.138 181.492 180.706 170.505 175.241 165.311C172.3 167.225 171.218 170.627 169.602 173.584C167.847 166.2 172.875 160.566 173.947 154.032C170.234 151.423 167.94 156.744 165.453 157.892C168.04 139.35 173.511 123.12 195.487 120.094C188.887 126.526 176.839 129.704 178.123 141.171C183.74 134.858 192.437 124.222 206.528 125.93C202.535 131.548 190.751 130.934 187.565 137.203C188.792 138.431 189.962 136.023 191.695 136.24C185.746 138.158 165.885 157.296 183.927 154.76C183.335 153.001 179.706 155.115 179.469 152.901C183.444 139.731 199.415 136.155 213.222 130.85C210.392 134.557 204.385 137.32 198.49 142.098C193.993 145.76 181.119 154.075 189.478 157.917C187.889 161.76 184.588 164.241 183.64 168.593C184.163 170.44 185.931 170.698 187.682 170.977C187.176 171.891 187.146 175.634 188.687 175.621C191.071 173.979 190.434 169.911 191.996 167.614C194.142 175.28 184.87 187.516 192.698 194.194C195.213 183.298 194.997 168.729 200.954 159.422C201.746 166.149 200.316 172.636 202.587 177.801C205.909 177.747 204.581 173.991 204.682 171.358C209.766 168.074 209.272 153.551 206.893 149.683C207.496 147.313 208.326 145.14 210.485 144.024C210.689 146.573 208.721 149.28 209.9 151.24C211.45 151.483 210.377 149.632 211.074 149.193C213.394 152.391 208.907 158.986 212.901 160.888C217.666 159.298 215.369 152.062 217.59 148.428C216.573 146.346 216.431 149.287 214.855 149.23C214.855 145.658 213.82 143.367 211.311 142.976C213.164 136.606 220.774 135.208 225.102 131.841C224.796 135.986 224.743 140.372 222.636 143.077C222.123 140.496 222.675 136.566 220.43 136.199C217.873 138.722 218.841 150.558 221.971 153.623C223.604 148.687 224.654 143.268 225.814 137.949C227.945 138.993 226.655 144.418 229.836 144.133C232.131 143.427 231.301 140.194 231.962 138.168C236.36 145.133 238.131 155.447 241.501 163.713C239.939 164.028 238.915 164.773 236.91 164.726C236.106 167.209 235.448 169.818 234.973 172.571C233.427 172.468 232.501 169.655 231.046 171.122C230.252 174.186 229.806 177.537 228.305 180.015C226.682 180.467 226.968 178.488 225.352 178.938C222.649 179.752 223.719 183.6 220.772 184.229C220.629 182.801 220.686 181.112 219.06 181.58C213.011 188.268 225.34 192.762 224.969 183.741C226.536 183.72 227.182 184.864 229.254 184.196C231.662 182.982 231.806 179.973 232.217 177.173C234.234 176.417 235.729 177.912 236.866 176.63C238.378 175.006 237.86 171.739 238.9 169.732C239.267 170.058 241.611 170.461 241.694 169.401C249.855 179.144 254.921 191.246 265.615 197.047C269.555 199.187 275.145 198.731 276.811 204.3C279.189 203.429 279.677 204.96 281.577 204.699C284.219 203.333 282.422 201.56 281.85 198.952C297.184 182.531 314.592 160.434 332.473 143.49C337.925 138.328 352.6 129.019 352.577 121.602C352.549 112.529 335.789 109.244 326.78 110.368C331.433 106.289 343.077 104.098 351.072 100.359C355.147 98.4657 360.583 91.711 364.156 99.3014C355.419 103.257 354.649 123.958 366.614 124.716C366.158 126.991 366.595 128.05 367.153 129.42C370.542 137.702 377.805 132.844 384.961 132.56C391.047 132.324 399.841 137.587 402.051 129.6C411.885 129.81 418.8 122.559 419.243 115.208C427.959 122.861 431.828 106.906 438.973 102.417C440.888 101.219 445.177 99.3057 447.474 98.5548C454.258 96.3412 461.889 98.3387 468.401 96.0962C473.416 94.3636 479.783 83.2467 480.407 77.5495C482.969 54.1128 461.184 35.9614 437.321 43.1053C435.022 43.7979 434.049 45.067 432.181 47.5155C428.708 42.4461 422.64 43.3421 416.9 41.6993C412.27 40.3727 407.168 35.0916 399.349 36.6261C397.389 36.7578 397.605 38.6302 395.844 38.9388C393.051 38.9226 391.094 37.8258 388.601 37.4157C381.666 12.9279 339.916 16.9114 334.702 39.9419C333.353 39.8602 333.754 37.5727 331.697 38.392C329.937 38.4046 331.838 41.3515 330.687 41.839C327.138 41.6952 326.663 37.6307 323.116 37.4937C321.381 38.2381 322.093 39.6579 322.61 41.3584C319.179 40.0033 316.029 38.2828 313.076 36.2884C316.105 27.604 311.594 16.5618 303.61 15.5059C303.537 14.8847 303.466 14.2479 303.392 13.6267C311.566 3.05242 321.998 14.4113 333.643 14.3568C347.052 14.3033 356.754 13.592 368.891 13.5445C377.55 13.517 387.679 16.1377 396.092 16.5394C405.694 17.0042 411.738 17.1725 417.072 22.6428C425.341 24.0488 432.901 25.6761 441.398 29.2912C449.669 32.834 458.076 31.581 466.906 33.9199C472.805 35.478 477.404 39.3797 483.222 40.5631C500.037 43.9871 517.139 42.2593 535.908 43.8967C545.172 44.7003 554.48 53.2473 558.114 60.7972C527.787 65.4589 504.778 77.0854 488.409 93.7446C484.104 98.1099 481.651 103.663 477.413 108.844C473.607 113.51 465.306 117.801 459.41 124.287C454.418 129.769 445.571 139.799 437.993 142.992C431.652 145.663 424.969 146.656 418.385 148.632C381.424 159.662 361.248 191.126 327.01 202.209C313.605 206.542 300.683 212.461 287.17 216.406C280.81 218.27 276.654 225.866 268.972 226.177C265.981 226.286 262.414 223.7 258.261 223.147C248.93 221.891 243.462 220.351 235.542 218.196C228.494 209.049 220.83 200.695 215.294 189.628C212.75 190.01 213.476 193.016 211.018 193.468C211.024 191.306 210.272 190.121 208.729 189.927C205.764 191.959 205.956 196.531 205.221 200.339C203.974 201.868 202.183 198.355 200.923 199.888C199.837 201.568 198.975 203.433 199.314 206.266C200.194 207.635 200.819 205.266 201.001 204.641C202.316 205.65 201.161 209.821 203.457 209.588C207.719 208.009 206.732 202.257 207.273 197.716C208.924 198.476 210.074 199.89 212.252 199.98C226.491 216.101 241.772 230.895 268.184 231.494C268.567 232.939 267.077 232.878 267.064 233.998C277.484 246.559 277.025 270.323 278.827 291.159C257.349 285.575 237.699 275.721 217.604 266.94C207.685 262.6 197.231 259.123 187.814 253.781C178.552 248.518 169.065 243.212 159.315 239.516C110.281 220.958 61.7005 204.652 13.8275 183.304C10.2883 165.04 6.31967 147.231 5.82247 130.469ZM189.553 154.574C193.324 149.075 198.421 144.618 204.984 141.333C201.308 146.337 195.793 155.777 189.553 154.574ZM195.974 157.158C195.556 158.097 195.694 159.483 193.871 159.307C193.791 157.971 194.445 157.212 195.974 157.158ZM300.583 447.617C299.204 442.397 298.892 437.396 298.322 432.17C298.772 432.33 299.213 432.485 299.364 432.995C299.652 435.112 300.082 439.123 300.39 441.929C300.653 444.231 301.652 451.31 300.583 447.617ZM216.859 199.443C215.564 198.776 214.312 198.029 214.118 195.958C215.901 195.997 216.386 197.715 216.859 199.443ZM271.265 295.397C261.577 292.857 253.978 287.648 244.18 285.253C253.943 285.544 263.511 290.729 271.265 295.397ZM186.604 255.832C165.583 248.18 142.346 238.697 121.334 229.238C143.296 235.69 166.905 244.698 186.604 255.832ZM94.9415 220.92C84.1396 218.177 72.3099 212.075 61.7709 207.197C73.7711 210.578 85.2724 214.574 94.9415 220.92ZM54.951 205.147C48.4827 203.346 42.2025 201.289 37.5333 197.201C44.2029 198.742 50.3957 200.899 54.951 205.147ZM197.858 484.439C191.62 482.651 185.445 478.743 178.578 476.707C164.813 472.631 152.629 466.569 139.228 462.287C132.458 460.133 125.069 459.231 118.78 456.6C114.48 454.804 110.432 451.357 105.719 449.575C98.0977 446.694 89.4663 446.691 81.4994 443.856C73.9696 441.162 65.1983 439.197 58.9217 436.037C55.0816 434.088 51.5455 426.25 45.7533 428.054C43.3413 428.81 44.3639 431.63 42.3541 431.318C36.7174 369.221 20.4352 291.097 18.6954 221.792C18.4488 211.979 14.161 202.364 13.9543 192.835C13.9026 192.362 13.8463 191.899 13.7947 191.426C103.52 227.565 192.386 264.805 279.798 303.918C279.328 314.701 281.048 329.209 281.632 340.362C281.896 345.326 280.018 351.09 283.966 352.46C289.407 406.06 300.545 461.175 309.794 519.367C274.178 507.601 236.557 495.514 197.858 484.439ZM580.433 267.148C579.431 266.851 579.574 263.939 580.002 263.381C581.395 263.982 579.597 265.581 580.433 267.148ZM578.642 251.656C579.177 251.509 579.477 251.656 579.637 252C579.827 254.53 580.143 255.404 580.223 257.184C580.593 265.384 579 258.152 578.642 251.656ZM589.162 326.576C587.191 326.149 588.122 322.534 588.042 320.998C589.237 321.821 588.659 324.872 589.162 326.576ZM587.504 303.923C585.417 302.111 586.408 298.647 586.121 295.99C587.38 297.6 586.903 301.441 587.504 303.923ZM586.153 292.18C582.205 288.526 585.767 280.383 583.579 273.913C585.348 277.648 584.975 286.182 586.153 292.18ZM567.633 168.209C567.205 170.356 570.415 167.888 570.579 169.288C572.502 217.537 577.645 269.43 580.786 315.189C580.655 317.322 583.39 315.825 583.447 317.731C583.392 334.112 587.411 353.651 589.038 370.398C505.421 426.053 414.872 476.179 321.146 523.749C321.331 520.062 325.445 519.518 325.913 516.042C321.491 513.81 317.472 518.866 314.144 520.29C305.273 439.771 293.994 380.209 287.593 302.058C289.013 302.23 290.548 302.248 291.48 303.024C290.827 301.705 289.888 300.753 290.01 298.439C298.747 291.363 310.986 287.07 318.914 279.335C322.83 286.549 335.944 279.914 327.667 273.548C332.937 270.645 337.247 266.995 343.125 264.588C346.812 276.707 365.659 265.365 358.54 255.16C361.895 253.159 365.576 251.421 369.72 250.032C373.393 257.467 387.677 250.036 379.822 243.61C385.737 239.247 392.581 235.625 399.72 232.233C401.743 236.533 409.071 237.75 411.043 232.327C410.801 230.292 410.572 228.254 410.332 226.226C415.566 223.148 430.737 211.406 439.606 210.405C441.181 210.234 442.902 211.527 444.422 211.269C448.2 210.626 448.413 207.16 451.219 204.762C456.25 200.429 464.316 199.782 468.594 196.046C470.24 202.937 483.274 199.95 477.731 193.545C474.06 192.89 477.091 197.575 473.405 196.918C472.628 192.501 478.713 189.729 482.252 187.783C487.789 184.74 494.644 182.371 499.676 179.554C503.562 192.397 523.851 182.891 516.526 170.426C522.415 167.314 527.315 163.405 533.81 160.783C529.226 170.993 541.957 170.974 543.542 163.449C542.988 160.555 540.569 160.048 539.992 157.198C546.835 151.291 560.223 150.645 565.252 143.281C561.486 140.392 558.215 145.578 555.292 146.836C543.315 151.989 531.718 154.314 521.101 160.854C498.258 174.901 474.163 185.849 450.063 198.714C455.897 192.712 465.11 189.427 471.442 183.822C456.943 186.607 447.986 198.992 435.834 206.106C387.948 234.115 338.748 262.927 287.482 288.759C285.126 266.892 275.604 238.725 285.133 223.342C291.174 220.968 296.82 217.034 303.092 215.514C326.191 209.946 348.336 201.272 366.011 189.085C372.882 184.339 377.499 177.66 384.427 173.111C391.155 168.696 398.233 163.96 405.968 159.634C422.077 150.625 441.822 148.079 455.683 137.13C467.174 128.049 474.538 114.406 485.865 104.546C499.763 92.432 515.062 83.5788 532.738 73.8024C539.963 69.8071 548.002 65.1745 557.661 65.1635C564.247 93.2027 569.718 134.504 567.633 168.209ZM326.85 278.867C324.921 280.291 324.423 277.535 321.628 278.532C322.073 276.594 323.989 275.869 325.96 275.157C325.808 276.97 326.788 277.34 326.85 278.867ZM346.477 265.131C345.07 261.481 353.853 254.309 357.096 259.122C358.339 264.449 348.463 270.271 346.477 265.131ZM372.912 249.167C373.598 246.705 378.916 243.047 378.546 248.986C377.486 249.808 373.556 250.578 372.912 249.167ZM403.935 232.205C403.845 230.288 406.364 230.439 406.358 228.584C407.351 228.204 407.12 229.405 407.859 229.352C408.676 231.798 405.371 234.243 403.935 232.205ZM486.918 183.405C488.487 180.684 496.717 177.318 500.204 176.134C497.346 179.82 490.864 180.604 486.918 183.405ZM510.244 177.339C507.109 176.96 505.667 179.739 503.334 178.63C506.571 173.403 518.635 170.7 513.422 180.294C511.462 180.448 511.226 178.412 510.244 177.339ZM510.785 182.027C508.849 183.38 504.818 183.337 504.942 180.334C506.677 179.242 511.354 178.447 510.785 182.027ZM502.019 175.439C512.313 169.595 521.798 163.115 533 157.988C523.196 164.231 513.725 170.73 502.019 175.439ZM536.231 165.711C536.164 165.087 536.087 164.452 536.022 163.836C536.542 163.117 537.988 163.133 539.223 162.975C539.186 164.613 537.477 166.385 536.231 165.711Z" fill="#E3DDD7"/>
</g>
<defs>
<clipPath id="clip0_1364_12886">
<rect width="420" height="388" fill="white"/>
</clipPath>
</defs>
</svg>
