<svg width="480" height="292" viewBox="0 0 480 292" fill="none" xmlns="http://www.w3.org/2000/svg">
<g clip-path="url(#clip0_1364_12766)">
<path fill-rule="evenodd" clip-rule="evenodd" d="M390.088 147.656C379.542 149.354 380.027 129.135 383.594 123.24C391.513 124.898 398.796 146.248 390.088 147.656ZM390.614 143.479C392.811 138.749 390.211 131.723 386.19 129.478C381.123 133.313 384.113 145.256 390.614 143.479Z" fill="#E3DDD7"/>
<path fill-rule="evenodd" clip-rule="evenodd" d="M344.814 93.5456C347.813 97.9528 337.52 117.006 330.736 116.61C336.508 110.501 331.211 95.6012 339.611 91.6736C341.052 90.9914 343.477 91.6005 344.814 93.5456ZM337.505 105.991C342.033 106.304 345.45 95.2146 340.12 94.5755C336.761 98.419 337.129 103.476 337.505 105.991Z" fill="#E3DDD7"/>
<path fill-rule="evenodd" clip-rule="evenodd" d="M441.627 194.7C444.877 200.758 437.969 221.161 431.459 224.163C429.87 221.839 431.5 220.794 431.72 218.541C432.32 212.462 428.49 202.892 430.952 198.321C433.196 194.155 440.042 191.738 441.627 194.7ZM434.848 213.558C438.963 208.831 442.094 201.745 437.978 196.804C430.467 198.879 433.255 208.566 434.848 213.558Z" fill="#E3DDD7"/>
<path fill-rule="evenodd" clip-rule="evenodd" d="M306.014 96.2267C302.424 90.8808 294.025 80.5761 303.676 74.9605C309.793 78.9528 312.135 91.128 306.014 96.2267ZM304.447 88.7176C309.18 87.3804 306.527 77.4164 302.369 79.4954C300.458 82.8124 303.028 85.7174 304.447 88.7176Z" fill="#E3DDD7"/>
<path fill-rule="evenodd" clip-rule="evenodd" d="M268.025 47.345C267.385 46.4229 267.384 45.4443 268.021 44.4091C269.213 45.2729 268.59 46.3128 268.025 47.345Z" fill="#E3DDD7"/>
<path fill-rule="evenodd" clip-rule="evenodd" d="M270.366 51.5458C268.734 50.3271 269.674 48.8621 268.294 47.6131C269.869 45.9432 270.835 50.2726 270.366 51.5458Z" fill="#E3DDD7"/>
<path fill-rule="evenodd" clip-rule="evenodd" d="M258.907 44.9449C255.78 42.9533 253.383 38.4141 254.485 35.0624C257.114 38.2416 261.632 41.2681 258.907 44.9449Z" fill="#E3DDD7"/>
<path fill-rule="evenodd" clip-rule="evenodd" d="M356.242 147.224C354.451 146.237 352.182 142.94 353.903 140.67C356.278 140.726 357.131 145.014 356.242 147.224Z" fill="#E3DDD7"/>
<path fill-rule="evenodd" clip-rule="evenodd" d="M263.857 53.0278C261.619 52.349 260.241 49.3042 261.769 47.3384C264.053 47.9931 264.489 51.1341 263.857 53.0278Z" fill="#E3DDD7"/>
<path fill-rule="evenodd" clip-rule="evenodd" d="M344.535 142.699C343.661 140.822 341.651 139.044 342.976 136.97C345.401 136.793 347.047 141.558 344.535 142.699Z" fill="#E3DDD7"/>
<path fill-rule="evenodd" clip-rule="evenodd" d="M408.548 215.086C404.94 212.945 404.061 208.08 402.043 204.81C407.836 200.203 409.493 211.174 408.548 215.086Z" fill="#E3DDD7"/>
<path fill-rule="evenodd" clip-rule="evenodd" d="M251.62 46.2066C249.497 46.5674 248.841 43.3574 249.544 41.697C251.207 42.0623 252.638 44.6314 251.62 46.2066Z" fill="#E3DDD7"/>
<path fill-rule="evenodd" clip-rule="evenodd" d="M248.739 63.8287C246.546 62.9659 245.548 59.6688 247.182 57.4865C249.303 58.3655 249.656 61.7234 248.739 63.8287Z" fill="#E3DDD7"/>
<path fill-rule="evenodd" clip-rule="evenodd" d="M448.626 267.895C450.623 272.788 438.677 292.464 432.469 287.031C422.213 278.046 446.672 263.129 448.626 267.895ZM434.293 283.622C437.452 286.973 444.396 276.607 443.409 273.665C441.967 269.347 430.356 279.441 434.293 283.622Z" fill="#E3DDD7"/>
<path fill-rule="evenodd" clip-rule="evenodd" d="M243.273 56.9734C242.004 58.0609 242.337 59.0152 241.187 60.108C239.443 58.9884 240.793 57.6001 241.969 56.2085C242.407 56.7863 242.848 56.4442 243.273 56.9734Z" fill="#E3DDD7"/>
<path fill-rule="evenodd" clip-rule="evenodd" d="M200.331 55.9062C201.307 49.638 199.748 43.6082 200.081 37.3951C216.632 18.7846 215.796 55.4289 200.331 55.9062ZM206.57 49.457C214.985 43.3728 209.054 29.9954 203.456 36.7915C200.617 40.2475 202.155 47.8497 206.57 49.457Z" fill="#E3DDD7"/>
<path fill-rule="evenodd" clip-rule="evenodd" d="M309.379 136.806C308.179 139.136 305.153 140.072 303.13 142.088C296.643 139.368 288.985 136.686 286.474 127.725C295.469 119.29 301.649 129.44 309.379 136.806ZM290.89 129.972C292.513 134.653 300.881 140.696 303.388 136.478C306.062 131.986 294.458 122.146 290.89 129.972Z" fill="#E3DDD7"/>
<path fill-rule="evenodd" clip-rule="evenodd" d="M263.553 117.479C264.117 110.679 273.285 105.898 277.885 103.509C278.171 109.57 270.93 129.945 263.553 117.479ZM269.543 118.401C271.38 116.703 274.323 112.781 271.11 110.609C267.743 111.669 264.842 118.187 269.543 118.401Z" fill="#E3DDD7"/>
<path fill-rule="evenodd" clip-rule="evenodd" d="M298.177 150.487C296.43 150.287 295.614 147.916 297.658 146.418C298.984 147.669 299.86 148.966 298.177 150.487Z" fill="#E3DDD7"/>
<path fill-rule="evenodd" clip-rule="evenodd" d="M190.171 48.9013C189.029 48.9158 188.059 47.1362 189.65 46.0021C190.855 46.8765 191.102 47.8424 190.171 48.9013Z" fill="#E3DDD7"/>
<path fill-rule="evenodd" clip-rule="evenodd" d="M279.174 154.88C279.401 153.998 279.319 151.639 280.74 152.382C280.625 153.255 280.703 155.613 279.174 154.88Z" fill="#E3DDD7"/>
<path fill-rule="evenodd" clip-rule="evenodd" d="M162.576 38.4861C162.276 37.1392 161.245 35.8588 160.498 34.5517C152.63 33.8751 153.345 50.7989 160.226 47.8234C160.755 46.588 161.249 45.3739 161.788 44.1416C161.818 48.224 161.328 58.3269 156.573 58.1612C154.871 49.7341 147.148 32.9968 161.791 31.1888C164.125 33.4321 164.722 35.8369 162.576 38.4861Z" fill="#E3DDD7"/>
<path fill-rule="evenodd" clip-rule="evenodd" d="M290.598 202.086C286.22 195.477 299.742 186.945 304.409 185.217C308.963 191.611 296.687 211.267 290.598 202.086ZM293.462 200.338C296.137 204.063 304.46 194.702 299.979 190.625C297.119 192.022 291.431 197.537 293.462 200.338Z" fill="#E3DDD7"/>
<path fill-rule="evenodd" clip-rule="evenodd" d="M258.343 143.842C260.252 149.13 250.272 162.252 244.8 163.915C250.397 157.035 242.635 148.719 247.15 142.819C250.449 138.509 256.757 139.453 258.343 143.842ZM250.01 154.612C254.216 154.882 258.81 145.88 253.136 142.557C247.438 143.293 247.884 150.976 250.01 154.612Z" fill="#E3DDD7"/>
<path fill-rule="evenodd" clip-rule="evenodd" d="M195.09 85.8079C186.317 98.8324 179.552 75.4953 174.794 70.6036C182.22 66.0526 192.679 78.0419 195.09 85.8079ZM192.23 84.5962C192.163 80.8094 185.692 72.3718 182.599 74.5977C177.762 78.0766 187.412 91.2842 192.23 84.5962Z" fill="#E3DDD7"/>
<path fill-rule="evenodd" clip-rule="evenodd" d="M443.368 378.415C443.741 373.858 444.815 367.722 448.071 363.859C448.333 364.133 448.592 364.399 448.849 364.671C447.433 369.223 446.405 373.723 443.368 378.415Z" fill="#E3DDD7"/>
<path fill-rule="evenodd" clip-rule="evenodd" d="M416.564 333.51C427.598 338.089 423.417 357.399 416.034 362.974C414.096 358.066 412.31 354.773 410.573 349.071C409.053 344.038 408.891 330.318 416.564 333.51ZM417.336 354.326C421.767 349.071 421.069 338.598 413.959 339.047C412.298 344.392 413.691 349.462 417.336 354.326Z" fill="#E3DDD7"/>
<path fill-rule="evenodd" clip-rule="evenodd" d="M299.194 222.772C299.631 223.356 300.068 223.006 300.499 223.537C300.031 231.115 299.165 241.599 291.114 247.931C279.372 244.652 293.416 230.062 299.194 222.772ZM290.343 243.003C292.658 245.075 297.785 236.309 295.027 233.154C292.024 235.267 287.893 240.814 290.343 243.003Z" fill="#E3DDD7"/>
<path fill-rule="evenodd" clip-rule="evenodd" d="M231.769 166.871C231.08 165.467 229.78 164.115 231.512 162.488C232.102 163.413 232.487 164.358 233.072 165.282C232.639 165.812 232.209 166.337 231.769 166.871Z" fill="#E3DDD7"/>
<path fill-rule="evenodd" clip-rule="evenodd" d="M153.702 89.9054C147.642 100.311 137.494 83.5207 137.823 77.5363C144.389 75.7799 151.989 82.1207 153.702 89.9054ZM151.102 87.202C149.362 84.4597 146.314 81.5526 143.805 81.3968C143.547 81.8084 143.287 81.9003 143.028 81.7617C141.062 85.3623 149.277 93.6019 151.102 87.202Z" fill="#E3DDD7"/>
<path fill-rule="evenodd" clip-rule="evenodd" d="M257.004 232.527C254.937 235.028 256.116 238.222 254.659 241.259C252.375 246.039 245.143 248.566 243.201 245.262C240.492 240.626 253.198 229.959 257.004 232.527ZM247.632 241.618C249.729 243.737 254.3 239.299 251.541 236.847C249.892 237.56 248.576 239.585 247.632 241.618Z" fill="#E3DDD7"/>
<path fill-rule="evenodd" clip-rule="evenodd" d="M278.592 276.137C277.023 278.806 275.46 277.845 273.91 277.739C274.374 275.639 276.136 273.433 276.252 271.359C278.261 271.781 278.129 274.624 278.592 276.137Z" fill="#E3DDD7"/>
<path fill-rule="evenodd" clip-rule="evenodd" d="M282.756 291.656C283.283 291.693 283.806 291.958 284.319 292.687C283.612 293.771 282.014 292.672 282.756 291.656Z" fill="#E3DDD7"/>
<path fill-rule="evenodd" clip-rule="evenodd" d="M215.609 228.975C211.63 234.313 204.696 229.203 200.777 223.569C200.847 221.5 202.036 219.333 204.161 217.073C209.481 215.152 220.606 222.26 215.609 228.975ZM211.972 226.946C215.365 222.71 207.818 219.09 205.725 221.641C204.668 225.096 209.868 227.619 211.972 226.946Z" fill="#E3DDD7"/>
<path fill-rule="evenodd" clip-rule="evenodd" d="M363.679 418.675C362.55 411.136 371.303 397.338 379.311 394.292C387.973 400.293 371.292 421.273 363.679 418.675ZM369.67 412.532C374.008 412.907 382.793 401.472 377.747 399.143C372.999 401.978 369.522 407.883 369.67 412.532Z" fill="#E3DDD7"/>
<path fill-rule="evenodd" clip-rule="evenodd" d="M71.9439 83.8651C70.3447 80.681 69.0169 77.4728 70.9015 73.9557C73.7714 77.0311 73.3193 80.413 71.9439 83.8651Z" fill="#E3DDD7"/>
<path fill-rule="evenodd" clip-rule="evenodd" d="M357.448 377.472C358.49 377.337 359.529 377.392 360.571 377.775C359.691 379.367 357.463 378.404 357.448 377.472Z" fill="#E3DDD7"/>
<path fill-rule="evenodd" clip-rule="evenodd" d="M275.19 301.464C271.884 302.562 270.362 297.694 271.81 295.007C274.231 294.592 277.623 298.328 275.19 301.464Z" fill="#E3DDD7"/>
<path fill-rule="evenodd" clip-rule="evenodd" d="M169.802 196.691C172.213 199.936 177.368 211.563 171.871 215.328C168.327 217.752 159.368 203.852 160.418 199.314C161.833 193.195 166.937 192.85 169.802 196.691ZM169.526 208.778C171.992 205.321 167.334 196.1 164.588 198.933C162.219 201.378 166.441 207.868 169.526 208.778Z" fill="#E3DDD7"/>
<path fill-rule="evenodd" clip-rule="evenodd" d="M216.905 246.796C220.419 249.12 221.17 253.452 218.722 256.334C212.676 263.476 201.089 252.33 195.028 249.385C200.433 247.957 211.697 243.35 216.905 246.796ZM216.121 253.636C217.416 248.139 209.33 248.187 206.495 250.698C207.772 254.913 213.147 254.672 216.121 253.636Z" fill="#E3DDD7"/>
<path fill-rule="evenodd" clip-rule="evenodd" d="M282.998 323.7C281.915 323.272 282.978 321.193 283.78 321.571C283.397 322.296 283.691 322.95 282.998 323.7Z" fill="#E3DDD7"/>
<path fill-rule="evenodd" clip-rule="evenodd" d="M82.3376 126.449C80.9124 125.058 83.5382 120.883 79.9963 118.724C79.56 119.105 79.1282 118.811 78.693 119.136C75.7612 123.036 76.613 126.594 77.9049 130.098C79.9011 130.401 80.7433 125.715 82.3312 127.041C81.0977 130.64 79.9357 137.081 75.5608 138.255C73.6607 133.922 71.9207 121.275 75.83 116.753C81.4567 110.24 86.5266 121.643 82.3376 126.449Z" fill="#E3DDD7"/>
<path fill-rule="evenodd" clip-rule="evenodd" d="M90.3772 164.844C89.3798 164.047 88.9787 163.206 90.1232 162.22C90.3872 162.488 90.6445 162.76 90.9067 163.034C90.6527 163.645 90.6348 164.221 90.3772 164.844Z" fill="#E3DDD7"/>
<path fill-rule="evenodd" clip-rule="evenodd" d="M91.4213 168.875C90.3569 167.884 90.0674 166.841 90.6528 165.707C91.6111 166.703 92.3186 167.71 91.4213 168.875Z" fill="#E3DDD7"/>
<path fill-rule="evenodd" clip-rule="evenodd" d="M95.6012 183.2C94.9211 182.086 94.7535 180.915 94.0379 179.809C94.3912 179.376 94.734 178.959 95.0786 178.535C96.0022 180.019 96.2822 181.558 95.6012 183.2Z" fill="#E3DDD7"/>
<path fill-rule="evenodd" clip-rule="evenodd" d="M65.6623 172.695C61.5976 176.722 49.7434 162.047 48.4823 159.569C53.8928 145.144 70.9551 167.447 65.6623 172.695ZM60.2045 167.023C63.1758 163.691 56.8757 158.344 54.2101 160.217C55.4036 162.539 57.5932 165.287 60.2045 167.023Z" fill="#E3DDD7"/>
<path fill-rule="evenodd" clip-rule="evenodd" d="M318.874 432.2C317.989 430.984 316.284 431.13 314.705 432.581C315.244 435.492 317.961 440.783 320.954 440.828C323.478 437.664 318.711 435.16 319.914 432.108C323.72 434.536 326.814 441.242 323.811 444.391C318.257 450.223 307.368 432.07 312.106 425.747C314.291 427.349 319.888 429.031 318.874 432.2Z" fill="#E3DDD7"/>
<path fill-rule="evenodd" clip-rule="evenodd" d="M272.543 403.5C269.329 405.227 266.122 405.48 262.909 410.565C262.398 412.17 264.18 413.583 263.423 415.22C261.254 418.195 259.087 419.789 256.914 417.289C257.058 416.982 256.993 416.693 256.655 416.434C258.902 410.274 267.646 397.023 272.543 403.5Z" fill="#E3DDD7"/>
<path fill-rule="evenodd" clip-rule="evenodd" d="M77.1006 201.667C78.8467 209.807 62.6512 220.255 57.8289 214.608C50.777 206.36 71.61 190.006 77.1006 201.667ZM60.6905 211.114C63.4307 214.897 70.8309 209.072 74.4957 204.844C73.2123 195.218 56.2401 204.937 60.6905 211.114Z" fill="#E3DDD7"/>
<path fill-rule="evenodd" clip-rule="evenodd" d="M91.6485 257.997C87.8145 249.423 84.4694 240.797 83.5914 231.962C87.4532 238.211 92.572 249.347 91.6485 257.997Z" fill="#E3DDD7"/>
<path fill-rule="evenodd" clip-rule="evenodd" d="M42.9892 203.91C42.1232 203.365 41.2571 204.572 40.3885 203.553C41.1067 202.684 43.1423 202.948 42.9892 203.91Z" fill="#E3DDD7"/>
<path fill-rule="evenodd" clip-rule="evenodd" d="M83.5739 269.625C80.0021 264.65 79.1755 259.437 79.4108 254.114C83.1821 257.905 84.4375 264.441 83.5739 269.625Z" fill="#E3DDD7"/>
<path fill-rule="evenodd" clip-rule="evenodd" d="M48.1839 233.435C47.2922 233.348 43.9897 234.307 44.8032 232.86C45.7694 233.097 48.0876 231.442 48.1839 233.435Z" fill="#E3DDD7"/>
<path fill-rule="evenodd" clip-rule="evenodd" d="M158.525 353.356C160.879 353.585 163.43 355.947 163.992 357.267C166.983 364.344 149.596 371.23 146.794 375.317C145.459 375.01 143.27 372.614 144.448 371.127C151.176 368.436 150.261 352.569 158.525 353.356ZM152.787 365.057C155.755 365.9 162.407 360.417 160.084 357.333C157.507 353.914 151.559 360.845 152.787 365.057Z" fill="#E3DDD7"/>
<path fill-rule="evenodd" clip-rule="evenodd" d="M204.064 406.552C206.245 413.28 188.572 428.817 185.313 421.215C187.14 415.564 201.568 398.83 204.064 406.552ZM193.912 416.013C196.381 417.979 199.149 413.145 199.12 410.828C196.939 410.41 194.977 413.769 193.912 416.013Z" fill="#E3DDD7"/>
<path fill-rule="evenodd" clip-rule="evenodd" d="M84.3392 292.791C80.7084 293.155 74.9768 297.167 75.4812 302.426C76.9632 303.221 78.441 301.527 79.9148 302.313C77.8855 307.14 73.6845 307.927 70.8022 308.736C70.0374 307.826 68.7131 306.965 68.7168 305.988C73.4914 300.744 77.1184 284.753 84.3392 292.791Z" fill="#E3DDD7"/>
<path fill-rule="evenodd" clip-rule="evenodd" d="M111.129 359.476C99.0527 363.88 100.566 340.568 107.752 334.19C115.263 339.78 114.674 350.92 111.129 359.476ZM107.485 356.862C112.88 353.391 112.371 342.926 107.499 340.39C103.211 345.216 104.8 351.722 107.485 356.862Z" fill="#E3DDD7"/>
<path fill-rule="evenodd" clip-rule="evenodd" d="M58.8254 288.652C56.5681 290.467 54.3104 289.763 52.0601 288.677C54.3115 288.133 56.5722 287.808 58.8254 288.652Z" fill="#E3DDD7"/>
<path fill-rule="evenodd" clip-rule="evenodd" d="M158.425 2.97071C191.583 -3.27998 224.734 0.0576266 257.882 15.6129C279.013 20.7389 306.303 39.1604 321.39 59.8055C324.679 64.2902 335.935 65.3774 341.435 67.0865C352.483 70.4937 363.108 71.1857 372.16 81.3299C354.501 71.852 336.332 67.6241 317.49 64.5673C297.817 61.3857 273.096 69.0534 257.594 85.363C246.361 97.1792 235.931 109.975 233.364 123.772C233.516 124.241 231.909 125.089 231.797 126.275C230.718 131.463 234.974 136.179 233.875 141.38C231.698 140.464 232.507 142.321 231.009 144.297C229.38 143.245 229.559 140.52 228.926 140.361C222.199 141.389 227.053 147.666 225.535 152.155C223.843 157.171 224.581 160.329 229.44 162.087C226.444 166.626 230.891 171.581 227.346 176.99C222.63 175.699 224.892 169.096 222.146 165.708C215.605 170.867 220.441 179.939 219.53 186.528C220.049 186.287 220.576 186.522 221.091 186.977C222.589 185.859 221.687 184.075 223.18 183.85C224.304 183.913 225.434 186.228 226.561 185.013C227.655 185.137 227.958 181.938 229.433 182.091C229.8 183.83 230.555 185.523 231.517 187.204C236.251 180.573 230.242 173.405 233.345 167.909C238.915 171.251 236.599 179.352 239.843 182.909C241.16 180.915 242.298 178.789 244.535 177.185C247.428 179.468 245.227 183.104 248.171 184.489C249.043 183.923 249.911 181.227 250.775 182.494C253.071 185.985 255.941 191.439 260.41 191.906C262.48 183.479 259.573 175.52 267.187 166.571C267.53 161.345 269.255 155.988 271.62 150.568C273.018 154.604 272.925 160.195 276.308 163.085C279.012 162.375 278.668 159.115 280.472 156.807C282.419 157.306 281.667 159.571 283.334 160.961C289.887 161.681 285.351 153.725 288.289 150.217C290.937 152.405 293.614 154.838 296.093 157.146C298.477 154.059 301.566 154.083 303.645 150.275C305.386 151.335 307.124 150.349 308.854 149.802C309.3 151.335 311.014 154.523 312.762 152.683C314.547 150.651 312.087 149.014 314.582 146.927C317.049 147.486 316.786 150.575 319.01 152.106C326.78 150.118 316.924 140.439 325.003 138.323C327.356 141.634 328.506 145.061 330.201 148.435C333.206 149.174 334.454 145.171 336.716 142.251C338.524 143.685 340.914 143.439 341.92 145.3C343.491 148.2 341.403 153.95 342.442 155.846C346.194 162.739 351.337 149.97 354.678 147.367C359.825 154.567 356.608 169.887 367.943 169.394C368.708 166.301 366.58 164.193 363.786 160.943C362.896 155.147 360.381 149.491 362.229 143.43C368.732 151.085 365.531 163.725 372.63 171.316C376.263 168.785 371.163 164.612 374.2 161.173C377.725 162.924 377.966 167.68 380.444 171.189C381.777 172.219 382.534 170.652 383.305 171.218C384.809 173.337 384.877 175.583 386.687 177.669C387.902 177.601 389.123 177.329 390.338 176.167C391.996 178.142 392.062 178.464 393.722 180.273C397.996 177.744 405.506 167.381 408.828 171.237C412.19 175.144 402.371 185.419 399.188 190.654C392.493 189.915 394.57 179.731 388.255 178.721C386.979 179.704 387.318 181.159 386.177 181.257C384.657 179.658 384.33 176.627 382.271 176.03C380.114 179.769 379.843 179.346 377.058 181.214C378.909 184.278 379.898 187.425 382.524 190.418C384.912 187.103 387.035 185.636 386.951 182.656C390.772 185.375 395.316 199.97 385.645 197.197C386.614 201.342 388.76 205.177 392.932 208.293C391.791 211.269 392.482 215.544 394.23 217.298C397.41 214.415 393.661 209.64 398.399 209.269C400.854 214.926 401.164 220.784 400.99 226.676C399.345 227.41 397.693 224.522 396.04 226.839C394.82 230.736 395.987 235.787 399.684 238.283C401.743 235.933 401.29 233.815 402.292 231.558C403.157 232.697 404.024 232.897 404.898 231.916C407.894 228.183 406.614 223.353 409.323 220.624C411.34 220.965 411.264 223.678 411.408 225.142C407.227 227.24 409.011 230.61 408.538 233.934C404.651 237.651 404.779 242.525 398.64 245.431C398.785 250.125 398.196 254.884 401.238 259.311C399.536 261.286 398.557 265.827 401.5 265.466C405.323 259.044 407.69 251.508 407.75 244.897C410.401 242.859 410.533 242.357 411.14 239.579C414.44 241.97 416.57 248.453 416.085 251.192C414.487 250.22 413.738 247.077 411.403 249.271C409.285 254.762 415.356 259.494 413.997 264.914C412.249 264.931 411.8 261.115 409.834 261.18C408.397 264.44 406.896 263.921 404.89 266.044C403.537 269.497 405.262 272.682 407.485 275.805C409.719 275.389 409.454 272.8 411.131 271.942C412.979 276.265 417.034 281.692 413.994 285.514C411.883 284.012 412.734 281.425 410.612 280.815C410.092 281.88 409.567 280.924 409.043 281.553C407.247 286.07 408.729 291.404 413.732 289.94C411.374 300.841 404.394 312.181 398.354 323.417C401.604 336.285 384.11 347.933 375.948 357.254C370.866 363.048 367.009 370.118 360.573 371.896C359.328 372.243 358.068 371.479 356.409 372.279C353.488 373.696 350.882 377.627 348.337 379.787C336.802 389.579 317.509 395.422 304.585 394.397C299.987 394.024 295.749 391.878 291.049 390.335C284.579 388.221 277.186 388.377 271.526 385.953C265.802 383.504 260.094 379.895 254.344 376.944C248.932 374.144 242.88 373.35 237.161 370.869C225.449 365.759 214.443 357.71 203.588 350.117C201.297 348.52 199.109 346.841 197.588 345.081C188.767 334.811 173.655 331.85 163.233 322.334C160.794 320.109 159.419 316.106 156.992 314.095C151.521 309.519 140.618 304.014 136.173 298.357C133.429 294.854 132.876 289.842 129.665 286.302C122.46 278.339 117.535 268.056 114.048 258.906C108.114 243.27 103.987 228.607 103.14 212.237C102.417 198.373 107.206 184.72 110.185 171.282C109.105 158.17 120.325 143.358 128.429 130.776C131.154 126.549 135.726 121.927 140.147 118.817C152.182 110.365 170.434 104.58 180.77 106.263C181.553 105.254 182.337 105.083 183.114 104.577C188.064 107.451 193.698 104.202 195.88 97.2349C196.663 96.7821 197.446 99.0788 198.226 98.4909C200.055 97.8016 200.293 96.3669 202.129 94.3117C206.079 96.4132 210.556 95.2838 211.765 89.0113C212.72 90.9842 212.63 93.0469 214.105 94.9712C216.482 95.591 216.275 91.8308 218.274 91.0538C219.928 92.7718 218.603 94.7564 220.609 96.4372C221.217 95.8724 221.825 96.132 222.439 95.9782C225.098 92.4981 223.264 89.4326 224.786 86.0582C226.171 85.8121 227.56 89.7494 228.948 88.6158C230.54 87.2836 229.848 86.1727 231.035 84.887C232.426 84.2083 233.815 84.8397 235.205 84.5058C235.716 83.3801 235.432 82.3195 236.503 81.1444C238.067 82.1887 239.634 83.5851 241.199 81.893C242.103 79.8476 241.954 77.9021 243.802 75.7738C247.915 76.558 246.666 83.9946 247.957 85.9828C253.325 83.8524 249.01 77.6987 251.091 73.936C254.969 72.9652 252.823 69.0926 255.783 66.4415C256.555 65.1477 257.338 68.052 258.123 66.5193C260.88 61.8483 254.768 57.9982 257.35 53.3561C259.086 55.1505 259.646 57.0646 260.471 58.9587C261.515 59.5336 262.558 57.8766 263.596 58.6671C265.288 61.407 265.629 64.7296 268.275 65.8873C272.809 62.0519 266.489 55.375 270.89 51.5239C272.14 54.0557 271.71 56.7413 273.745 59.2047C274.619 58.8123 275.484 59.0564 276.352 58.3807C276.01 54.2908 275.014 50.2718 275.315 46.1136C277.531 45.9864 277.97 47.9199 279.475 49.8536C281.042 49.0507 282.604 47.3702 284.168 48.2545C284.708 50.9486 283.919 53.765 285.734 56.3385C289.451 57.6065 289.954 51.8237 290.167 49.1663C293.197 47.4835 296.237 47.6452 299.275 46.2781C299.15 43.7006 298.286 42.3442 295.891 40.9962C276.291 29.9987 255.185 18.2309 235.499 11.8226C229.617 9.90518 224.597 7.61711 218.837 6.87582C193.655 3.67683 169.716 3.01399 144.362 9.59526C130.9 13.0885 116.401 14.66 104.515 27.6667C100.96 31.5578 98.4174 33.4056 95.9187 36.3986C90.6042 42.7719 88.5564 51.091 81.5895 58.0103C76.2436 63.3059 69.6164 73.3746 64.3991 77.2334C60.4636 73.8512 53.871 81.0726 54.2365 86.1226C56.1038 89.1858 60.27 92.0325 58.6553 95.4228C48.9049 93.034 49.9137 105.126 45.1074 112.546C41.5143 118.114 36.6718 120.683 36.2524 126.3C39.2045 128.947 42.651 127.413 44.8464 131.698C43.4523 135.425 38.0087 141.253 35.2031 142.885C36.6593 140.385 36.4937 138.063 38.3324 135.536C39.6266 133.938 40.9343 136.015 42.2411 134.287C37.5534 121.821 24.7856 141.324 26.8703 149.525C30.4209 151.585 31.404 145.171 34.4241 143.236C36.0241 144.809 33.4871 149.178 36.2382 151.602C35.2859 156.504 29.8557 161.805 29.7277 166.618C30.6806 168.418 31.6341 167.392 32.5917 168.426C27.2346 169.236 28.663 176.836 26.5957 181.626C29.4568 184.89 33.7047 182.359 35.704 184.601C27.7805 182.564 18.5135 190.633 20.5959 200.701C26.8545 200.428 34.4808 201.124 39.8597 203.64C35.3856 206.208 28.9763 200.591 24.2374 206.255C18.9337 212.593 20.2122 218.803 26.833 219.551C34.2194 220.384 47.5393 218.605 53.1333 220.957C49.5489 220.133 43.7359 222.604 36.2063 222.219C32.1575 222.011 27.6001 219.381 24.2277 222.14C17.8453 227.356 24.7099 234.496 28.9066 228.772C33.9417 232.977 38.9712 231.444 44.008 232.676C38.2879 232.593 24.5711 233.839 30.4579 245.106C31.5894 245.843 32.7162 242.805 33.8503 243.319C35.8311 248.355 41.254 245.347 43.2199 247.75C35.1057 245.136 31.3766 257.688 34.36 263.861C35.9781 264.232 36.1536 261.499 37.4826 261.236C41.6589 267.321 47.8265 266.092 52.8459 264.825C47.2328 259.353 46.5359 253.433 46.8619 247.422C48.2489 247.381 49.6412 245.322 51.0296 244.687C60.4972 245.6 66.4101 258.569 65.3439 267.201C59.2911 268.932 51.3323 268.029 45.2866 268.164C43.3831 268.204 36.1645 268.005 38.5204 273.484C40.3459 277.755 44.3038 274.827 46.5922 274.805C51.7752 274.74 58.3866 276.323 61.6901 276.362C58.3579 279.562 51.5099 274.798 48.1527 278.777C45.7648 281.606 46.5867 287.675 51.5304 288.763C49.5816 289.843 47.9522 290.85 47.1005 293.583C46.7414 297.557 50.1842 303.112 54.1293 297.348C58.639 299.311 53.4958 304.484 58.8151 306.335C55.2838 310.093 54.5181 313.601 57.5058 316.758C60.2839 316.556 63.0662 314.911 65.8424 317.164C63.2517 320.743 65.1072 323.898 65.8401 327.164C67.2288 327.475 68.6166 327.307 69.9991 328.55C68.7839 330.678 67.5698 328.816 66.3573 331.238C66.3823 333.784 65.3202 336.432 67.9118 338.75C71.3013 336.418 74.6843 339.577 78.0701 339.884C76.4193 342.177 74.7745 341.267 73.1206 344.159C73.0591 347.791 77.5925 349.659 79.8855 347.657C81.4838 344.856 78.8011 342.459 79.6292 339.731C87.3118 343.265 77.939 360.24 88.2117 356.302C89.4417 354.716 87.443 352.187 89.7754 351.451C91.2777 354.253 91.4394 357.213 94.7215 358.358C86.4974 365.914 95.5719 369.767 100.183 366.378C101.59 364.234 98.9187 361.086 101.231 359.806C105.434 360.426 101.874 371.873 104.35 374.244C108.085 377.813 109.532 370.323 109.296 367.603C115.629 372.826 107.976 383.067 116.057 388.164C106.743 399.121 126.09 397.303 118.142 387.983C122.032 383.595 118.432 379.908 120.486 375.696C126.328 380.318 119.329 391.058 125.167 397.622C123.986 400.873 122.187 404.18 125.676 406.995C131.39 402.166 124.743 392.049 128.554 386.434C133.07 393.131 127.396 402.154 133.754 407.724C129.444 412.729 134.728 420.272 138.43 416.119C142.157 411.956 136.77 401.158 141.825 398.451C145.229 403.47 137.44 425.683 147.541 423.232C149.781 416.648 145.619 410.657 149.371 403.931C153.345 411.781 147.287 426.132 156.915 428.847C159.445 422.91 155.551 416.031 158.485 411.051C161.545 416.851 159.033 423.159 161.6 429.004C166.207 431.24 168.502 424.673 169.151 421.545C170.166 427.04 168.073 432.826 172.529 438.001C179.653 439.794 178.347 429.579 179.829 424.977C183.043 430.346 177.219 439.7 181.653 443.928C187.377 449.396 189.665 434.272 192.333 430.891C193.18 430.336 193.19 432.948 194.412 432.46C196.528 431.623 197.041 427.544 199.098 427.917C199.625 433.459 191.269 439.817 193.1 445.235C203.714 444.709 206.023 427.551 214.462 419.742C214.641 427.132 206.354 433.499 204.821 440.93C211.458 443.933 214.584 430.963 218.89 427.869C218.592 433.984 212.683 440.594 211.585 446.773C219.798 448.868 226.896 438.895 230.864 430.286C232.207 438.218 221.726 447.212 221.475 455.286C230.491 458.398 234.345 440.918 239.975 437.399C239.276 443.677 229.49 454.736 228.76 462.846C230.326 462.938 231.886 461.781 233.45 459.468C242.603 463.531 243.532 447.856 249.861 444.139C251.652 451.04 240.561 459.122 245.684 465.707C250.118 464.769 251.279 456.634 255.327 453.932C257.408 456.691 252.965 460.037 254.28 462.857C257.444 463.511 257.819 458.967 260.017 456.45C263.717 460.135 257.602 464.712 258.704 468.636C262.353 469.608 266.001 462.791 269.645 464.1C269.1 467.677 265.231 471.567 267.034 474.929C279.401 474.943 271.806 461.239 273.031 454.076C273.906 448.997 276.377 446.987 274.866 443.606C275.507 442.131 279.436 442.173 280.076 443.722C278.257 452.618 281.62 461.045 283.966 469.558C288.762 467.102 292.659 454.008 298.557 454.69C296.962 461.021 286.864 468 285.27 476.205C293.602 477.001 299.163 462.82 305.322 457.599C306.278 460.353 302.729 463.524 301.938 466.435C302.717 467.567 303.496 465.982 304.274 467.1C304.4 469.837 300.941 472.895 301.666 475.577C308.436 476.697 315.204 467.209 321.981 469.003C321.501 470.011 316.982 472.886 317.289 475.321C320.116 478.339 322.482 472.024 324.059 470.578C325.015 471.689 325.967 472.58 326.922 472.961C330.79 472.793 333.869 468.485 336.04 464.769C339.505 467.877 333.334 471.886 335.786 475.086C340.855 472.888 341.463 462.081 346.981 460.822C349.191 462.912 344.416 468.104 343.588 471.439C348.046 474.536 349.811 463.776 353.749 462.556C355.315 463.971 353.413 466.971 355.046 467.436C358.569 467.799 360.632 462.522 363.9 458.976C368.084 461.284 370.574 455.156 373.277 452.821C374.415 455.555 373.776 458.456 374.058 461.274C371.486 464.558 368.054 467.906 368.585 470.897C375.43 467.003 377.7 456.387 381.872 448.795C383.617 448.002 383.227 450.79 384.209 450.636C387.67 447.303 387.256 443.018 389.949 440.7C389.788 444.441 388.577 448.27 390.982 451.783C387.465 454.816 381.369 458.599 384.205 463.589C396.031 455.423 394.686 442.011 401.93 430.779C402.259 434.571 400.348 438.566 402.701 442.177C409.654 435.125 410.285 423.653 416.517 414.727C417.994 413.967 418.291 416.681 419.378 416.527C422.428 414.083 422.54 409.911 425.112 406.59C426.759 411.924 418.952 418.127 423.022 423.252C433.09 410.363 432.723 395.881 441.793 382.105C444.831 384.779 439.644 389.753 441.782 391.526C444.365 389.026 442.865 386.915 443.608 384.589C451.058 381.318 449.847 370.992 451.945 363.814C454.19 356.157 455.731 349.131 458.468 342.913C457.888 356.703 449.369 371.207 450.632 384.83C458.258 374.625 458.756 361.405 463.148 349.558C467.432 337.992 468.212 325.626 471.501 314.075C474.725 302.773 474.447 290.806 475.683 278.979C476.913 267.17 477.834 254.273 476.484 243.897C473.161 218.398 469.474 193.476 455.688 169.905C442.363 139.17 413.778 110.639 387.239 91.7422C382.694 88.5023 376.347 86.3631 373.187 81.8545C391.353 90.327 407.654 96.2293 424.725 114.788C437.573 128.751 450.208 146.643 457.513 162.38C467.105 183.069 475.091 205.119 476.231 226.561C476.649 234.371 478.967 241.493 479.606 248.317C480.281 255.522 479.575 264.343 479.338 271.584C478.251 304.787 468.59 339.446 460.025 371.615C453.859 387.601 446.818 407.31 434.487 421.623C427.819 429.358 424.235 435.894 418.597 443.375C414.018 449.447 407.007 454.274 401.402 459.073C393.222 466.075 381.331 467.571 374.058 474.235C369.514 478.406 369.485 477.463 365.721 478.527C360.308 480.055 354.361 484.249 348.01 486.629C342.218 488.78 335.293 490.131 330.041 491.511C321.197 493.842 310.909 487.373 304.006 496.249C303.306 496.075 302.611 496.134 301.916 496.447C300.382 495.304 300.389 494.028 299.057 492.89C255.475 491.842 211.787 481.472 168.626 456.892C160.039 452.008 149.432 447.166 140.248 442.722C139.9 441.475 139.073 440.284 138.424 439.071C123.236 430.281 107.575 425.588 95.2169 410.673C88.4561 402.516 82.1812 392.618 75.179 383.976C56.631 361.069 41.9279 335.064 28.3392 310.603C23.934 302.688 19.2199 295.437 16.8956 287.532C15.1124 281.497 15.0082 274.936 12.9926 269.352C10.2345 261.695 6.88485 254.532 5.97074 246.171C4.87074 235.931 7.24158 223.237 0 217.589C0.983104 214.411 3.67569 213.934 5.46929 212.089C4.94085 194.092 11.297 175.467 13.8291 157.19C19.5452 135.284 28.1853 113.113 38.8494 90.7612C68.2851 34.0721 119.688 2.34764 158.425 2.97071ZM271.354 165.607C269.826 167.803 267.427 170.079 270.053 171.908C272.698 169.907 274.305 166.809 271.354 165.607ZM398.931 183.911C401.518 184.437 406.573 177.996 403.363 175.562C400.729 176.742 397.301 181.344 398.931 183.911ZM232.549 190.052C231.854 188.773 231.159 190.923 230.469 191.417C231.593 193.213 232.725 191.142 232.549 190.052ZM240.885 183.4C239.763 183.062 239.676 185.043 239.582 185.583C239.931 185.628 240.274 185.69 240.625 186.068C241.797 185.084 240.204 184.345 240.885 183.4ZM240.36 193.453C240.637 195.432 243.133 194.753 244.269 193.975C244.783 190.587 241.504 191.63 240.36 193.453ZM248.952 193.55C249.904 194.422 250.866 195.048 251.813 193.579C250.863 193.199 249.913 192.072 248.952 193.55ZM335.933 148.497C335.259 149.239 334.643 149.993 334.638 150.669C335.235 151.732 335.847 151.334 336.458 151.972C338.136 150.488 337.435 148.888 335.933 148.497ZM310.42 163.781C302.593 165.292 297.175 164.727 290.885 168.213C286.555 168.436 279.86 167.556 276.303 171.914C272.216 176.924 276.016 189.701 265.872 195.815C259.559 199.626 236.12 201.875 229.424 197.977C225.321 195.585 221.068 191.394 217.184 190.56C207.781 188.561 197.513 185.353 187.247 182.426C174.283 178.741 162.51 174.525 152.097 175.344C149.495 179.316 146.895 176.132 144.288 177.832C145.026 179.527 146.831 181.132 147.407 182.852C137.642 184.334 143.494 194.068 142.458 200.657C148.556 201.977 146.29 207.734 147.132 211.986C153.51 213.701 152.536 219.068 154.421 223.09C155.124 224.594 156.985 225.193 157.803 226.612C158.731 228.206 158.388 230.484 159.369 231.762C160.132 232.748 162.017 233.093 162.753 234.096C164.339 236.285 164.214 243.503 169.261 240.857C168.217 236.35 174.673 225.838 179.158 231.706C183.684 237.619 164.742 249.722 171.858 255.33C173.432 256.557 175.064 254.15 176.029 254.944C176.893 258.64 181.257 264.061 184.881 263.542C186.682 262.889 184.9 261.585 186.698 260.138C186.018 264.44 190.728 272.686 195.552 269.926C196.732 266.394 192.166 263.365 194.253 259.745C194.517 259.546 194.77 259.708 195.03 259.38C201 262.386 195.462 270.953 200.747 275.919C202.056 275.791 203.853 275.507 204.398 273.235C209.159 277.654 212.676 278.713 217.679 281.718C218.711 281.509 219.328 279.63 219.764 279.766C221.819 281.059 219.918 282.698 221.061 284.058C242.41 284.079 263.763 288.84 285.117 279.943C285.305 278.065 284.36 276.293 285.384 274.323C286.005 272.733 287.951 275.092 287.722 273.818C289.244 270.943 285.498 268.534 287.2 265.631C290.143 266.447 288.43 270.228 290.066 272.132C290.961 271.242 290.706 269.998 291.889 269.907C293.13 271.464 293.349 273.112 292.67 274.837C290.671 276.1 288.054 275.079 287.457 278.844C292.025 278.882 298.595 273.201 301.52 268.141C302.77 267.546 301.57 270.267 303.077 269.765C304.398 268.904 305.889 266.415 306.724 264.719C317.676 262.63 321.275 245.945 326.008 236.475C327.228 234.029 329.265 232.037 330.429 229.305C336.219 215.811 339.485 183.888 338.005 170.645C336.408 156.337 319.363 162.057 310.42 163.781ZM162.741 258.229C161.724 259.728 162.578 261.509 164.04 261.94C167.041 259.602 164.718 257.234 162.741 258.229ZM206.22 281.022C207.255 281.268 208.297 282.456 209.341 280.742C209.15 279.755 207.216 279.216 206.22 281.022ZM246.828 292.005C247.608 292.849 248.392 292.39 249.177 292.68C249.932 291.048 247.628 290.745 246.828 292.005ZM251.776 291.847C252.472 292.032 253.163 293.091 253.858 292.835C254.741 291.966 253.548 291.287 253.335 290.53C252.82 290.67 252.293 291.023 251.776 291.847ZM267.637 325.4C269.068 326.485 271.16 326.959 271.808 329.143C274.587 326.832 273.841 324.841 274.154 322.752C279.477 324.374 275.172 331.829 278.055 335.63C282.32 335.062 283.584 328.666 283.27 325.736C286.282 328.67 284.674 335.687 287.169 338.62C291.957 337.14 293.563 328.99 294.465 325.001C298.823 325.957 296.001 332.449 296.286 335.722C302.685 336.637 301.954 326.198 305.142 323.733C306.365 328.232 303.441 333.107 305.916 337.485C311.669 334.797 311.836 328.052 312.169 323.968C314.651 327.658 312.428 334.33 315.3 338.973C320.873 335.404 319.863 329.948 320.25 325.868C324.02 328.572 322.208 334.318 324.667 338.122C329.263 333.673 325.833 329.969 327.541 325.795C329.447 327.803 327.807 329.862 330.137 331.439C334.842 334.626 336.248 323.53 339.514 325.872C341.379 327.209 339.56 329.442 340.028 331.71C342.493 331.597 341.46 328.25 341.848 326.543C343.504 324.629 345.15 325.693 346.796 326.973C348.703 324.831 350.289 309.131 348.893 307.359C346.636 304.507 340.849 299.62 336.395 296.153C333.695 294.045 329.84 293.655 327.027 291.716C319.378 286.466 313.298 280.152 307.502 273.792C297.53 279.844 286.717 287.667 276.249 287.842C275.382 290.571 277.062 294.298 278.854 295.835C276.567 299.265 274.149 295.186 274.43 293.004C270.887 291.778 268.19 290.125 264.28 288.931C263.153 290.235 263.296 291.2 261.93 291.797C261.234 292.738 260.542 289.875 259.846 290.815C258.561 292.205 259.584 293.381 260.109 294.606C262.947 294.033 266.82 295.778 266.355 299.917C268.235 300.273 272.096 301.72 271.042 304.786C268.865 306.716 267.845 303.796 267.134 301.905C263.059 302.463 258.983 299.216 254.897 300.378C254.357 299.148 252.56 296.625 251.258 297.177C251.084 300.243 249.984 304.804 252.031 306.818C253.851 308.606 256.773 307.382 258.538 309.454C261.537 313.005 259.219 315.965 261.394 320.671C265.467 318.674 263.625 314.813 265.048 312.099C268.847 314.012 266.442 321.312 267.637 325.4ZM280.132 343.676C281.356 344.576 283.512 343.413 283.261 341.621C282.25 340.724 280.328 342.056 280.132 343.676ZM289.501 346.93C290.95 346.097 292.077 345.08 292.371 343.427C290.983 342.112 288.478 345.339 289.501 346.93ZM305.125 349.617C308.929 351.838 310.915 344.363 311.114 341.714C309.349 343.216 304.808 346.538 305.125 349.617ZM399.926 290.315C405.214 286.35 406.948 278.802 400.718 274.065C398.352 278.398 398.444 282.512 399.152 286.556C396.622 289.866 395.827 294.471 397.322 296.44C400 295.938 399.825 292.342 399.926 290.315ZM406.959 291.152C405.682 292.372 400.033 294.095 402.791 297.998C404.472 297.237 404.839 296.399 406.176 294.45C406.868 294.129 407.561 294.594 408.258 295.438C409.255 293.217 407.517 293.04 406.959 291.152ZM394.976 308.713C398.372 309.593 401.541 302.903 399.139 300.095C395.762 301.778 394.678 305.321 394.976 308.713ZM406.174 300.927C404.364 300.484 402.194 304.142 403.563 305.873C405.355 305.179 406.177 302.398 406.174 300.927ZM399.14 310.69C395.62 314.841 389.646 322.428 386.89 328.582C391.65 331.448 393.165 322.535 395.228 319.584C397.048 316.974 402.782 313.846 399.14 310.69ZM396.004 330.395C395.659 329.872 395.312 330.231 394.957 329.903C393.182 331.542 393.245 333 392.099 334.58C393.604 336.015 395.958 331.564 396.004 330.395ZM360.838 368.622C363.847 369.298 368.698 364.628 369.436 361.655C366.082 358.474 361.737 364.823 360.838 368.622ZM367.873 357.102C371.248 360.449 382.253 349.662 373.864 349.782C371.828 351.397 369.135 354.682 367.873 357.102ZM377.515 344.15C381.274 348.359 381.649 342.063 383.244 339.504C385.572 335.78 389.499 332.363 381.939 335.222C380.652 336.707 382.358 337.917 381.937 339.339C379.929 341.36 378.353 341.214 377.515 344.15ZM202.91 101.569C201.904 102.445 201.873 103.241 201.346 104.061C202.383 105.408 203.427 105.893 204.469 104.364C204.067 103.42 203.942 102.448 202.91 101.569ZM235.986 86.4693C234.337 89.363 233.563 92.1842 234.934 94.8049C235.545 95.948 236.157 94.1185 236.756 94.9253C239.235 91.8879 239.103 88.0998 235.986 86.4693ZM244.315 85.1155C243.536 84.2523 242.749 84.2179 241.97 83.8536C240.744 85.837 241.615 87.6174 241.183 89.5223C243.802 91.196 244.463 87.1373 244.315 85.1155ZM227.636 116.064C211.41 108.255 195.185 110.164 178.946 114.946C177.738 114.172 176.514 113.414 175.3 112.338C163.13 115.314 151.586 112.749 139.621 129.446C133.782 137.593 130.068 146.754 125.293 155.182C109.7 182.633 102.356 212.408 110.674 237.72C113.04 244.934 114.314 254.11 117.438 259.452C126.608 275.221 135.717 291.277 148.399 303.385C152.347 307.155 157.984 309.207 162.712 312.964C169.471 318.32 175.381 323.737 183.012 330.516C183.862 331.273 184.929 332.271 185.88 332.9C191.717 336.786 197.124 340.281 202.541 344.906C208.602 350.083 215.737 354.219 222.063 358.712C237.194 369.421 255.533 373.133 270.484 378.384C281.493 382.259 292.065 388.088 302.768 390.134C317.788 393.016 341.154 383.334 355.365 367.664C366.014 355.927 380.022 336.396 382.472 324.57C390.411 317.046 389.711 308.33 391.588 298.724C392.53 293.909 394.841 288.684 395.236 284.274C396.442 270.807 393.043 256.192 390.043 242.386C387.914 232.54 387.471 222.971 384.329 214.076C379.482 200.378 371.804 186.212 361.693 173.5C359.243 170.421 355.146 166.848 352.328 165.534C350.044 164.47 341.003 161.811 339.304 164.957C337.453 168.401 342.134 168.071 343.471 169.876C344.258 170.946 345.497 179.018 345.552 182.628C345.621 188.123 343.315 193.458 341.893 200.029C340.704 205.521 340.536 212.464 338.502 217.111C337.733 218.86 336.051 219.914 335.114 221.834C333.469 225.196 332.993 229.638 331.462 233.349C329.801 237.37 327.299 240.912 325.466 244.778C321.169 253.885 319.767 261.07 312.174 268.65C321.735 287.399 351.666 291.536 356.941 312.797C359.25 322.111 352.549 332.24 345.207 343.006C312.887 359.525 270.025 368.65 241.592 325.435C239.544 322.335 237.589 317.659 235.084 313.399C232.202 308.485 229.793 301.788 228.059 297.27C227.342 295.365 228.254 291.704 227.024 290.304C225.225 288.234 211.208 290.205 207.493 289.449C179.7 283.78 135.082 260.185 125.253 224.018C121.921 211.777 123.607 198.268 126.309 185.678C145.92 162.286 166.707 172.427 186.717 178.373C190.183 179.403 204.876 187.067 208.329 184.921C210.284 183.715 211.348 174.501 211.979 171.053C212.964 165.619 212.985 160.6 214.07 156.731C215.125 152.981 217.462 149.886 218.761 146.308C222.498 136.054 224.802 125.456 227.636 116.064ZM301.346 53.113C304.069 54.1988 306.691 49.4474 302.66 49.1623C301.656 50.5308 301.21 51.8559 301.346 53.113ZM61.9737 261.892C62.2293 257.003 58.1573 249.346 53.1271 249.165C45.908 254.848 56.7725 264.912 61.9737 261.892ZM276.962 455.168C275.361 458.262 276.942 461.057 278.517 463.856C279.578 460.817 279.367 457.894 276.962 455.168ZM418.612 433.942C421.181 433.241 420.643 428.661 418.094 429.279C417.124 430.933 417.515 432.468 418.612 433.942ZM411.06 436.094C415.045 432.184 417.422 425.924 416.795 421.457C413.365 426.474 408.883 431.592 411.06 436.094ZM326.157 478.611C327.808 479.913 328.79 477.47 329.282 475.961C329.026 475.702 328.766 475.422 328.503 475.149C327.69 476.308 326.19 477.522 326.157 478.611ZM305.853 481.058C307.831 482.615 313.293 478.551 310.803 475.6C309.078 475.81 306.027 478.81 305.853 481.058ZM278.511 477.978C279.567 477.853 280.441 476.067 280.856 475.11C280.602 474.845 280.337 474.564 280.078 474.298C278.439 474.995 277.32 476.328 278.511 477.978ZM249.085 478.027C247.956 477.873 246.83 477.797 245.699 479.222C246.834 480.682 247.959 479.454 249.085 478.027ZM237.635 463.772C236.507 462.685 235.379 464.136 234.248 465.561C235.666 467.941 236.853 465.171 237.635 463.772ZM219.941 448.331C215.992 447.764 210.778 450.217 207.697 454.461C210.749 464.773 219.227 454.604 219.941 448.331ZM197.027 451.613C200.75 453.413 208.861 450.713 207.968 444.143C204.37 443.775 199.007 446.783 197.027 451.613ZM176.72 443.483C177.715 442.502 176.726 441.714 176.977 440.807C175.072 440.654 173.16 440.883 171.253 442.507C172.107 444.627 175.011 444.337 176.72 443.483ZM165.265 431.586C155.645 434.314 170.539 440.43 165.265 431.586ZM158.231 434.29C156.765 431.352 154.613 431.665 153.024 433.593C147.41 440.423 162.164 442.134 158.231 434.29ZM129.855 422.473C128.907 421.052 127.95 421.751 126.994 422.444C127.128 423.528 128.918 423.946 129.855 422.473ZM125.965 410.186C119.201 420.825 136.203 414.709 125.965 410.186ZM116.068 405.789C117.205 409.634 122.889 403.99 118.675 402.605C117.794 403.162 116.142 404.546 116.068 405.789ZM110.077 406.049C113.897 401.192 104.258 401.408 101.485 404.776C103.262 406.808 108.368 408.227 110.077 406.049ZM103.835 396.027C105.782 399.083 112.623 396.824 109.826 391.655C106.885 386.237 101.739 392.758 103.835 396.027ZM96.5408 396.7C97.5834 397.332 98.6268 397.229 99.6637 396.414C100.607 395.135 100.048 394.2 98.8839 393.837C98.0725 394.383 96.5739 395.502 96.5408 396.7ZM108.001 383.88C110.25 381.966 109.318 379.08 108.007 376.817C101.665 375.734 103.546 387.689 108.001 383.88ZM96.5472 380.807C97.8103 383.01 93.8619 384.049 93.6833 386.077C103.003 392.852 102.879 370.787 93.6869 379.595C94.6389 381.004 95.5993 379.884 96.5472 380.807ZM99.1548 374.689C103.22 369.141 94.6363 368.465 92.3859 372.367C93.6539 375.627 97.0339 374.309 99.1548 374.689ZM79.3647 377.679C78.0615 376.25 76.7598 376.138 75.4634 377.153C76.0525 378.974 77.997 380.303 79.3647 377.679ZM83.2795 367.027C84.6977 368.69 91.2728 367.442 88.4806 362.434C85.6317 357.307 80.9317 364.274 83.2795 367.027ZM74.9445 366.614C77.5134 355.958 82.9964 372.29 74.9445 366.614ZM77.8107 357.815C66.5754 356.178 84.4907 345.18 77.8107 357.815ZM65.578 363.942C66.4469 363.549 67.3091 363.338 68.1806 361.934C66.9609 360.448 65.7506 361.093 64.5342 361.098C63.6255 362.157 64.7222 363.043 65.578 363.942ZM66.876 356.47C68.2649 357.031 69.6496 358.249 71.0427 356.67C71.8911 354.984 70.8445 352.721 68.961 352.159C67.399 353.679 66.7457 355.106 66.876 356.47ZM22.6633 234.018C19.3938 236.675 20.5138 240.63 19.2794 244.625C28.6504 254.753 29.9319 228.12 22.6633 234.018ZM44.5193 280.847C38.6963 268.801 36.1646 294.833 43.9963 286.784C45.2595 285.483 45.6891 283.264 44.5193 280.847ZM42.6956 290.726C40.1214 290.907 36.9262 294.77 37.4844 297.675C39.6483 300.453 41.8231 299.782 43.9957 299.136C45.2572 296.179 45.9036 293.273 42.6956 290.726ZM43.2104 302.44C41.9993 303.392 40.7833 303.019 39.5607 303.955C40.1832 305.613 42.7877 305.69 44.2451 304.706C43.8508 303.95 44.1541 303.143 43.2104 302.44ZM51.5448 302.264C50.5911 303.131 49.6321 302.87 48.68 303.999C50.067 305.8 51.456 306.182 52.845 304.204C52.8396 303.525 52.214 302.895 51.5448 302.264ZM43.4679 312.13C42.5183 313.394 42.1214 314.613 42.9431 315.713C44.9094 316.256 45.6256 313.57 43.4679 312.13ZM68.9629 348.042C71.2787 346.948 70.9741 344.327 68.9706 342.743C66.9429 344.688 66.9443 346.453 68.9629 348.042ZM63.7631 347.929C65.6028 341.501 58.0629 343.491 56.2112 345.382C56.0672 349.192 61.4297 349.062 63.7631 347.929ZM51.0052 337.032C55.472 341.922 68.5438 340.002 61.1665 331.096C57.8629 332.201 54.5627 332.867 51.2605 334.95C51.3652 335.629 51.0908 336.342 51.0052 337.032ZM59.6019 319.47C56.7849 319.244 54.9528 323.18 54.3903 325.831C58.8063 332.227 66.4905 324.227 59.6019 319.47ZM45.5319 333.125C46.6077 334.043 48.6629 333.028 48.9197 331.925C47.5375 330.752 46.1457 329.647 44.7598 331.721C45.4144 332.149 45.2701 332.654 45.5319 333.125ZM47.3629 326.19C51.651 331.536 54.9404 320.503 50.2296 320.339C49.1083 322.303 48.6731 324.201 47.3629 326.19ZM50.7531 308.52C47.545 310.173 48.6538 313.485 48.6754 315.775C49.797 316.24 50.9254 316.879 52.0578 316.344C54.108 313.665 54.022 309.744 50.7531 308.52ZM41.3742 324.674C42.133 323.619 43.4597 322.524 43.4583 321.545C39.5479 317.206 35.8247 314.241 42.4213 309.867C40.8228 306.734 35.6843 310.873 32.7872 306.939C32.245 306.181 32.8441 303.286 31.7553 301.732C30.0063 299.249 27.1541 298.404 28.8877 295.217C30.239 292.755 32.7287 293.813 33.8335 290.954C30.3673 289.496 26.8948 289.935 23.424 290.726C27.9968 302.171 34.1233 313.481 41.3742 324.674ZM25.7686 285.517C28.8084 288.326 31.8519 286.922 34.8905 286.731C39.497 277.548 28.6204 276.944 25.7686 285.517ZM35.1488 275.239C37.0822 272.511 36.8582 269.986 34.634 267.636C30.3581 269.436 30.8766 276.848 35.1488 275.239ZM25.7759 279.631C24.6756 277.094 21.4771 276.589 19.5241 279.023C20.7213 281.852 23.7489 280.929 25.7759 279.631ZM27.8604 274.731C30.2623 272.66 30.8175 267.156 27.866 266.491C24.9947 265.851 22.3729 271.389 19.7882 272.821C21.5502 274.975 25.8042 276.5 27.8604 274.731ZM29.6828 263.087C31.0166 258.733 33.1633 252.791 29.9533 249.821C27.632 254.257 27.5997 258.473 27.606 262.689C28.2933 263.689 28.9917 262.545 29.6828 263.087ZM17.9713 267.395C18.9247 268.21 19.8787 267.414 20.832 266.836C19.7055 266.19 18.5763 265.25 17.4465 266.259C17.9391 266.624 17.6418 267.036 17.9713 267.395ZM13.0316 258.143C14.8364 260.784 21.9362 263.139 23.6956 261.584C25.8246 259.703 27.3074 251.023 24.4856 248.864C21.0704 246.239 17.5017 251.673 13.5452 251.04C12.2578 250.274 13.5388 249.273 12.2514 248.507C10.257 249.772 11.5065 255.916 13.0316 258.143ZM14.0701 238.627C13.2133 240.662 12.6464 241.361 10.9454 243.03C15.6695 249.497 18.0696 236.243 15.9003 232.874C13.9306 233.468 11.3209 236.804 14.0701 238.627ZM16.9459 229.243C18.2192 227.945 18.7373 226.726 17.4655 225.677C16.4252 226.932 15.6572 228.195 16.9459 229.243ZM9.6504 230.509C13.1148 227.165 14.651 218.329 8.61061 224.13C8.80498 226.269 7.8417 228.507 9.6504 230.509ZM15.1232 218.527C18.0489 213.807 23.377 207.425 19.5578 204.29C15.8621 208.726 15.0039 215.466 9.13741 216.43C9.37677 219.727 13.2397 218.931 15.1232 218.527ZM10.7016 209.808C13.5178 211.038 16.814 204.63 13.0497 202.836C9.56754 202.645 8.8767 208.823 10.7016 209.808ZM11.2334 197.998C13.0522 200.522 14.8727 200.431 16.6981 199.555C17.6487 195.357 21.0246 190.924 19.3057 186.967C15.271 189.609 13.9533 194.786 11.2334 197.998ZM25.8258 164.288C25.3114 163.655 24.7884 165.301 24.2575 165.615C25.3854 166.542 25.8544 165.25 25.8258 164.288ZM11.4911 190.029C16.1891 186.839 20.951 177.097 21.9116 171.418C19.7416 171.144 17.5729 174.905 15.4072 172.312C13.3641 178.292 11.1306 184.283 11.4911 190.029ZM27.644 158.539C28.5118 159.078 29.3851 158.723 30.2543 157.703C29.6353 157.088 29.9352 156.363 28.9505 155.775C28.1179 156.73 29.0279 157.525 27.644 158.539ZM22.4448 159.014C24.8514 159.931 29.0638 154.263 26.0935 152.211C23.1708 152.847 22.4307 156.861 22.4448 159.014ZM50.852 92.567C50.3932 92.5391 48.3363 95.1328 49.5491 95.9266C50.5206 94.7526 50.6644 93.6594 50.852 92.567ZM31.0476 123.219C34.3245 122.451 38.1224 114.984 35.4776 111.928C31.9934 114.729 32.1473 119.662 31.0476 123.219ZM39.1295 106.884C43.0067 102.198 46.0729 95.0727 45.3897 89.8405C40.5833 95.5985 35.8293 102.831 39.1295 106.884ZM68.0542 64.5115C69.7245 62.6922 70.9026 60.9176 70.9213 59.2483C69.545 59.1643 65.7829 63.119 68.0542 64.5115ZM57.8928 68.0878C57.5461 67.5705 57.1943 67.9275 56.8557 67.5982C53.5774 72.3749 51.2254 75.2666 49.8173 79.7188C53.6744 80.0137 55.3057 71.4753 57.8928 68.0878ZM75.0918 53.5733C78.8535 55.5009 82.218 53.4109 84.9809 49.7201C89.9984 43.0433 94.2869 31.4076 99.835 26.8847C91.8444 30.6074 80.5734 44.5476 75.0918 53.5733Z" fill="#E3DDD7"/>
<path fill-rule="evenodd" clip-rule="evenodd" d="M111.796 71.6806C106.158 71.2395 103.369 87.7609 110.485 85.0379C110.152 82.6003 112.012 80.1816 112.574 78.3746C113.811 82.501 109.988 94.6269 105.018 88.7803C100.712 83.7227 106.972 62.1584 111.796 71.6806Z" fill="#E3DDD7"/>
<path fill-rule="evenodd" clip-rule="evenodd" d="M361.091 377.725C364.352 376.779 368.836 372.372 371.246 370.63C370.672 375.035 364.67 379.372 361.091 377.725Z" fill="#E3DDD7"/>
</g>
<defs>
<clipPath id="clip0_1364_12766">
<rect width="480" height="292" fill="white"/>
</clipPath>
</defs>
</svg>
