<svg width="477" height="228" viewBox="0 0 477 228" fill="none" xmlns="http://www.w3.org/2000/svg">
<g clip-path="url(#clip0_1364_12820)">
<path fill-rule="evenodd" clip-rule="evenodd" d="M343.671 72.0716C345.061 72.3026 346.268 72.1898 346.516 70.2319C346.104 70.0972 345.68 69.9635 345.264 69.8469C344.835 70.7644 344.251 71.3946 343.671 72.0716Z" fill="#E3DDD7"/>
<path fill-rule="evenodd" clip-rule="evenodd" d="M182.866 38.0604C183.592 37.8957 184.072 37.2924 184.331 36.2425C183.957 35.7444 183.392 35.3459 182.396 35.1804C181.991 36.438 181.306 37.8386 182.866 38.0604Z" fill="#E3DDD7"/>
<path fill-rule="evenodd" clip-rule="evenodd" d="M132.181 29.0044C132.392 28.5488 132.97 28.7574 133.542 28.984C133.884 27.8737 134.22 26.7755 134.573 25.6641C134.156 25.53 133.738 25.4017 133.328 25.2787C133.365 26.9399 131.482 28.2931 132.181 29.0044Z" fill="#E3DDD7"/>
<path fill-rule="evenodd" clip-rule="evenodd" d="M346.298 132.467C343.663 134.464 341.319 137.02 339.628 140.833C342.833 140.348 345.726 135.792 346.298 132.467Z" fill="#E3DDD7"/>
<path fill-rule="evenodd" clip-rule="evenodd" d="M452.444 168.896C450.659 169.757 452.789 171.691 451.286 172.621C408.803 188.237 358.985 189.855 305.949 185.317C331.267 189.828 355.097 189.403 378.109 187.907C388.248 187.25 398.673 187.754 407.643 186.239C418.73 184.36 430.023 180.976 440.87 178.452C447.011 177.029 453.774 175.533 458.5 171.238C458.556 168.85 454.1 168.685 452.444 168.896Z" fill="#E3DDD7"/>
<path fill-rule="evenodd" clip-rule="evenodd" d="M308.511 177.021C295.188 177.093 281.473 176.326 266.713 174.395C252.423 172.523 236.249 172.441 222.639 167.411C200.602 159.265 173.446 148.941 152.426 140.869C169.727 149.459 190.007 156.481 209.154 164.105C168.573 156.304 138.693 136.034 113.637 118.262C107.218 113.705 99.6395 110.748 94.6495 106.395C89.076 101.562 86.0125 92.6188 81.9265 87.4063C107.554 106.307 134.322 128.298 167.341 140.993C152.664 134.413 138.487 126.401 125.801 117.066C113.065 107.695 98.8842 100.356 88.1631 90.7234C83.9466 86.9382 80.4257 78.9207 74.7927 79.7148C80.7063 88.7355 85.1944 101.316 93.5903 108.341C98.4424 112.4 105.556 115.61 111.482 119.397C117.242 123.093 122.896 127.447 128.692 131.157C154.017 147.412 180.1 159.07 209.75 166.559C241.137 174.479 274.472 183.288 305.537 185.19C288.5 181.254 266.574 180.702 249.193 173.907C294.066 182.336 333.565 175.898 373.335 175.495C378.952 175.446 384.994 176.65 390.294 174.895C390.021 174.807 389.738 174.72 389.472 174.637C363.475 172.652 336.908 176.888 308.511 177.021Z" fill="#E3DDD7"/>
<path fill-rule="evenodd" clip-rule="evenodd" d="M167.914 142.082C168.845 142.112 170.476 143.449 170.933 142.582C170.1 142.072 168.582 140.742 167.914 142.082Z" fill="#E3DDD7"/>
<path fill-rule="evenodd" clip-rule="evenodd" d="M409.927 288.845C409.395 288.42 409.105 287.873 409.064 287.21C409.347 285.327 410.333 284.792 411.327 284.279C412.537 284.602 413.967 285.354 414.766 284.9C412.11 277.03 403.367 286.176 407.501 290.817C411.01 292.017 413.768 291.784 415.549 289.697C414.632 287.472 412.274 289.87 409.927 288.845Z" fill="#E3DDD7"/>
<path fill-rule="evenodd" clip-rule="evenodd" d="M23.5181 160.527C22.6786 161.522 22.0908 161.982 22.2153 163.305C23.357 164.106 25.1902 160.887 23.5181 160.527Z" fill="#E3DDD7"/>
<path fill-rule="evenodd" clip-rule="evenodd" d="M82.7556 191.818C81.7671 193.505 83.7272 193.614 83.1034 195.109C82.1195 195.208 81.4963 195.988 80.2437 195.58C79.0496 193.138 81.3496 191.076 82.5647 189.494C79.4347 188.98 78.5138 192.731 77.3777 196.047C80.9368 203.311 92.4054 191.341 82.7556 191.818Z" fill="#E3DDD7"/>
<path fill-rule="evenodd" clip-rule="evenodd" d="M23.518 173.729C23.8367 173.548 25.1023 172.06 24.1665 171.653C23.4976 172.126 22.1839 172.944 23.518 173.729Z" fill="#E3DDD7"/>
<path fill-rule="evenodd" clip-rule="evenodd" d="M226.086 241.27C226.391 241.467 226.465 241.767 226.26 242.233C234.216 245.858 232.258 235.349 226.086 241.27Z" fill="#E3DDD7"/>
<path fill-rule="evenodd" clip-rule="evenodd" d="M293.476 262.366C291.982 264.581 295.353 265.544 293.43 266.9C291.564 267.449 291.787 264.438 289.811 263.947C288.344 265.611 287.4 268.054 288.428 269.88C294.187 272.862 300.458 263.387 293.476 262.366Z" fill="#E3DDD7"/>
<path fill-rule="evenodd" clip-rule="evenodd" d="M192.53 232.57C192.408 232.982 192.281 233.406 192.154 233.819C193.192 234.712 193.971 234.62 194.604 233.218C194.048 232.193 193.577 232.849 192.53 232.57Z" fill="#E3DDD7"/>
<path fill-rule="evenodd" clip-rule="evenodd" d="M49.3569 191.358C51.0504 190.459 56.8949 192.159 57.0807 194.231C54.8495 198.764 51.0666 200.338 46.2491 199.939C45.4305 198.868 47.9049 196.065 46.2955 195.411C44.8377 197.038 43.4759 199.931 44.7791 201.757C51.3645 202.677 56.4119 200.661 58.9914 193.92C58.7286 189.679 50.371 187.6 49.3569 191.358Z" fill="#E3DDD7"/>
<path fill-rule="evenodd" clip-rule="evenodd" d="M161.034 225.905C156.975 220.667 150.99 231.09 157.312 230.654C157.82 229.11 155.922 228.836 157.092 226.945C157.653 225.149 160.264 227.283 161.034 225.905Z" fill="#E3DDD7"/>
<path fill-rule="evenodd" clip-rule="evenodd" d="M47.7753 194.957C49.7868 195.05 51.5598 194.71 52.5288 192.808C50.4819 192.647 48.5767 192.757 47.7753 194.957Z" fill="#E3DDD7"/>
<path fill-rule="evenodd" clip-rule="evenodd" d="M244.887 256.704C242.99 259.922 239.68 263.029 242.909 266.087C254.995 271.428 257.044 253.332 244.887 256.704ZM242.977 262.92C242.307 256.16 253.278 258.043 251.06 263.183C250.182 265.183 244.805 265.683 242.977 262.92Z" fill="#E3DDD7"/>
<path fill-rule="evenodd" clip-rule="evenodd" d="M97.1151 211.327C98.9726 211.799 100.488 211.4 100.034 213.611C99.4961 214.755 98.5866 215.225 97.3302 215.036C95.972 214.826 96.7965 213.473 95.1129 213.433C93.8838 214.073 94.4891 215.518 94.6266 216.461C99.1729 218.553 101.166 215.758 102.46 211.65C101.383 210.707 97.5088 207.658 97.1151 211.327Z" fill="#E3DDD7"/>
<path fill-rule="evenodd" clip-rule="evenodd" d="M400.258 304.008C399.411 305.24 398.502 306.37 396.31 305.043C394.457 306.788 392.281 307.877 391.528 311.731C395.764 317.697 405.59 309.287 400.258 304.008ZM394.11 310.717C394.993 308.504 397.532 306.492 399.402 308.278C398.428 310.589 396.035 312.269 394.11 310.717Z" fill="#E3DDD7"/>
<path fill-rule="evenodd" clip-rule="evenodd" d="M327.808 289.051C327.35 290.891 325.208 292.024 325.858 293.896C327.377 293.277 328.791 292.48 329.621 290.53C328.878 290.107 329.235 289.108 327.808 289.051Z" fill="#E3DDD7"/>
<path fill-rule="evenodd" clip-rule="evenodd" d="M404.867 328.645C407.316 329.75 409.779 326.759 411.194 324.262C409.89 317.116 398.74 325.891 404.867 328.645Z" fill="#E3DDD7"/>
<path fill-rule="evenodd" clip-rule="evenodd" d="M155.494 242.356C154.611 246.274 152.214 248.168 149.565 246.857C149.241 247.965 148.68 249.177 149.091 249.89C149.663 250.046 149.933 250.376 150.196 250.689C153.109 249.434 155.882 247.925 157.299 243.818C156.568 243.399 156.926 242.406 155.494 242.356Z" fill="#E3DDD7"/>
<path fill-rule="evenodd" clip-rule="evenodd" d="M172.175 248.491C164.303 248.941 173.4 261.431 175.98 253.776C176.872 251.142 173.398 248.43 172.175 248.491ZM172.963 253.282C171.5 253.011 170.642 252.42 171.411 250.977C172.887 251.248 173.722 251.846 172.963 253.282Z" fill="#E3DDD7"/>
<path fill-rule="evenodd" clip-rule="evenodd" d="M380.773 315.641C380.337 319.956 375.881 319.785 376.432 323.83C381.307 328.483 387.825 317.246 380.773 315.641Z" fill="#E3DDD7"/>
<path fill-rule="evenodd" clip-rule="evenodd" d="M299.405 291.516C297.437 292.764 294.93 296.838 296.551 299.266C305.224 304.922 313.17 292.19 299.405 291.516ZM298.838 297.707C298.058 293.529 303.469 294.978 304.576 296.774C303.615 298.9 300.954 297.785 298.838 297.707Z" fill="#E3DDD7"/>
<path fill-rule="evenodd" clip-rule="evenodd" d="M326.829 301.02C326.406 301.607 324.545 302.746 325.515 303.799C325.829 302.455 328.603 302.445 326.829 301.02Z" fill="#E3DDD7"/>
<path fill-rule="evenodd" clip-rule="evenodd" d="M255.528 280.963C256.293 281.833 257.961 282.222 257.369 283.814C256.527 284.178 256.239 285.625 254.787 284.821C253.74 284.678 255.599 283.009 253.935 283.186C252.563 283.214 251.487 283.793 250.688 284.902C253.654 294.796 266.176 277.866 255.528 280.963Z" fill="#E3DDD7"/>
<path fill-rule="evenodd" clip-rule="evenodd" d="M346.919 318.223C350.966 319.274 354.579 319.013 355.765 315.994C358.92 307.939 343.722 310.678 346.919 318.223ZM349.472 315.837C349.981 313.586 353.776 312.607 353.16 315.629C352.251 316.305 351.155 316.656 349.472 315.837Z" fill="#E3DDD7"/>
<path fill-rule="evenodd" clip-rule="evenodd" d="M65.2043 229.523C69.0303 230.724 72.7532 227.562 71.9194 223.896C68.0656 219.831 63.9424 225.801 65.2043 229.523ZM66.2286 226.206C66.303 224.152 68.0725 225.346 68.6425 224.234C71.1743 225.414 67.5536 228.666 66.2286 226.206Z" fill="#E3DDD7"/>
<path fill-rule="evenodd" clip-rule="evenodd" d="M224.674 278.113C223.51 280.004 225.044 280.469 224.35 282.1C222.538 282.597 221.273 284.142 218.902 283.586C219.014 281.222 221.485 281.068 220.737 279.146C218.195 279.035 216.37 282.666 216.21 285.004C221.15 287.486 225.819 284.141 228.275 279.688C227.974 278.688 225.895 277.58 224.674 278.113Z" fill="#E3DDD7"/>
<path fill-rule="evenodd" clip-rule="evenodd" d="M274.26 299.553C274.863 298.29 276.27 298.584 276.807 297.168C274.768 297.231 273.155 298.105 272.5 300.829C275.564 304.209 281.048 302.077 282.157 297.478C281.218 296.7 281.081 295.503 279.771 294.917C279.972 298.462 276.736 302.672 274.26 299.553Z" fill="#E3DDD7"/>
<path fill-rule="evenodd" clip-rule="evenodd" d="M316.724 321.959C317.797 323.12 315.877 325.874 316.435 327.323C319.076 322.506 321.931 318.053 325.043 314.102C324.527 313.918 324.633 313.395 323.931 313.304C321.556 316.228 319.756 320.269 316.724 321.959Z" fill="#E3DDD7"/>
<path fill-rule="evenodd" clip-rule="evenodd" d="M87.6316 242.014C87.7097 243.016 90.317 242.679 90.2662 243.751C89.7797 247.039 85.6528 247.988 84.2797 245.515C83.5723 246.928 84.1438 247.668 84.2107 248.676C88.2569 249.58 90.0431 246.178 92.455 243.988C92.339 242.169 89.036 240.25 87.6316 242.014Z" fill="#E3DDD7"/>
<path fill-rule="evenodd" clip-rule="evenodd" d="M368.842 333.736C366.678 334.825 364.663 338.625 366.666 340.789C375.674 344.752 380.621 332.905 368.842 333.736ZM367.563 337.884C368.505 335.884 371.509 335.641 372.611 337.65C372.066 339.692 368.873 339.396 367.563 337.884Z" fill="#E3DDD7"/>
<path fill-rule="evenodd" clip-rule="evenodd" d="M389.146 342.829C388.665 344.47 389.316 345.515 389.228 346.951C392.623 347.936 395.359 347.658 396.713 344.742C395.949 341.784 391.081 342.138 389.146 342.829Z" fill="#E3DDD7"/>
<path fill-rule="evenodd" clip-rule="evenodd" d="M158.003 276.787C170.896 276.707 154.452 263.263 158.003 276.787ZM158.773 274.301C158.895 272.131 162.205 272.091 160.961 274.537C160.38 274.73 159.687 274.739 158.773 274.301Z" fill="#E3DDD7"/>
<path fill-rule="evenodd" clip-rule="evenodd" d="M42.9202 244.379C41.8903 246.192 44.5128 246.09 43.6854 247.803C42.2284 249.177 39.8194 249.302 37.7911 247.777C37.8119 253.119 45.43 250.226 46.5446 247.326C46.1903 245.994 45.0272 243.702 42.9202 244.379Z" fill="#E3DDD7"/>
<path fill-rule="evenodd" clip-rule="evenodd" d="M65.7029 260.163C65.8371 261.791 63.7168 262.45 64.678 263.474C65.8186 261.715 68.3236 262.532 69.8307 261.454C71.3945 261.664 70.6596 263.097 71.927 263.475C72.182 262.65 73.2086 263.29 73.2579 262.071C71.5122 259.176 68.5405 261.215 65.7029 260.163Z" fill="#E3DDD7"/>
<path fill-rule="evenodd" clip-rule="evenodd" d="M282.691 330.862C284.619 331.93 287.962 330.814 288.354 333.091C286.519 335.236 284.507 338.34 287.544 340.112C299.375 340.639 291.835 326.052 282.691 330.862ZM287.487 337.374C286.871 336.013 288.224 334.395 289.043 333.768C291.011 333.894 289.46 335.86 291.018 336.2C290.318 337.501 289.258 338.126 287.487 337.374Z" fill="#E3DDD7"/>
<path fill-rule="evenodd" clip-rule="evenodd" d="M249.593 330.949C252.573 332.796 258.123 332.529 258.729 329.26C259.769 323.694 247.331 322.879 249.593 330.949ZM251.892 329.394C251.419 327.395 253.602 327.178 254.885 328.509C254.421 329.825 253.383 330.046 251.892 329.394Z" fill="#E3DDD7"/>
<path fill-rule="evenodd" clip-rule="evenodd" d="M63.9323 267.343C65.1565 267.689 65.7652 266.874 66.5211 266.323C65.5545 266.03 64.5979 265.72 63.6244 265.417C62.9709 266.454 64.1806 266.506 63.9323 267.343Z" fill="#E3DDD7"/>
<path fill-rule="evenodd" clip-rule="evenodd" d="M210.547 328.269C213.671 330.216 218.154 329.837 219.672 326.588C218.956 321.283 208.586 322.639 210.547 328.269ZM214.05 325.735C214.632 325.536 215.325 325.534 216.239 325.966C216.444 327.464 213.249 327.21 214.05 325.735Z" fill="#E3DDD7"/>
<path fill-rule="evenodd" clip-rule="evenodd" d="M89.9673 354.638C90.8254 354.114 92.745 351.465 91.252 350.481C90.7445 351.311 89.2192 353.571 89.9673 354.638Z" fill="#E3DDD7"/>
<path fill-rule="evenodd" clip-rule="evenodd" d="M466.697 203.301C475.032 181.668 481.017 157.73 472.305 144.108C467.374 136.41 457.046 130.111 449.184 125.044C443.414 109.705 431.164 97.5643 428.421 80.7886C427.98 78.0964 429.541 74.9377 426.335 72.8563C419.207 77.9417 413.997 86.668 405.459 89.0645C397.574 76.2071 388.837 63.8029 384.795 48.9296C375.863 55.1837 365.298 58.3083 354.099 60.2446C345.91 54.4813 343.834 43.451 334.462 37.2616C329.906 41.4879 324.15 46.3515 320.788 50.714C311.613 46.6661 305.162 35.7109 298.823 27.9136C290.071 31.6564 282.571 37.7717 272.926 39.818C267.195 31.259 261.222 20.993 254.603 14.0641C250.75 16.9481 242.426 28.0916 238.196 27.5697C231.793 26.7862 225.3 10.5138 220.934 7.16066C207.914 20.7615 195.235 35.0281 179.679 43.8098C179.051 42.6385 177.784 41.8011 177.566 40.4164C182.358 38.4993 178.752 34.8487 181.588 30.3088C179.441 29.2898 179.269 32.0304 176.945 30.6731C175.896 33.1964 175.703 34.7768 174.739 36.3487C171.12 32.9353 170.042 28.1818 168.178 23.8401C158.784 28.153 152.768 41.257 142.664 40.4062C142.27 38.2407 146.128 36.4536 145.251 33.4874C140.647 40.52 135.088 45.7378 129.753 51.3663C132.051 43.836 139.016 38.3757 139.75 32.2169C136.801 34.708 135.781 40.8922 132.161 42.1156C130.506 38.009 138.036 34.3863 137.151 31.8514C133.045 35.0055 130.564 41.2778 126.464 44.4255C125.86 42.9983 125.599 41.3992 125.125 39.9133C126.492 35.6924 131.017 34.0054 131.076 29.4933C127.939 32.9685 125.92 38.5569 121.86 40.2557C122.276 32.6386 129.429 28.483 133.705 23.957C142.466 14.6684 153.57 7.80896 164.898 3.70225C172.516 14.0408 178.155 27.2682 187.721 35.4166C182.308 22.4169 173.21 11.3543 164.672 0C148.749 8.28341 133.733 18.3033 121.304 33.2616C120.326 32.9707 120.307 32.1642 118.953 32.0718C90.5346 40.7486 54.8069 51.772 43.8938 94.5162C42.3915 100.366 40.0279 105.979 38.3784 112.348C35.6922 122.75 33.104 146.039 23.9552 148.767C21.0363 149.627 15.1033 148.189 12.5952 148.848C7.98591 150.052 0.852523 161.108 0.0849369 165.848C-0.695355 170.578 4.2189 174.478 1.86994 179.14C6.0504 180.557 5.18892 184.055 8.02568 185.62C18.454 191.397 28.3596 181.187 34.85 179.474C26.5774 224.739 16.0304 273.533 5.46073 318.535C9.47556 330.031 15.3969 341.888 25.9616 350.432C30.0212 353.712 33.1217 357.236 36.1582 359.981C53.3789 375.669 78.395 391.356 103.427 403.349C112.376 407.635 122.626 413.257 130.785 416.008C135.056 417.447 140.418 418.222 144.971 419.995C164.232 427.509 185.407 433.773 206.672 438.868C220.936 442.282 237.669 442.309 253.171 443.873C268.639 445.446 284.087 444.832 297.1 443.992C325.462 442.157 352.814 440.648 377.295 430.904C387.857 426.706 400.127 424.132 403.608 413.223C406.855 403.048 411.157 394.155 415.027 383.595C417.96 375.613 418.044 364.822 421.428 355.585C426.555 341.61 429.465 330.044 434.149 315.907C441.626 315.168 454.248 309.118 456.362 298.301C457.112 294.471 451.647 288.366 450.009 282.211C444.161 260.23 456.797 228.966 466.697 203.301ZM424.385 77.7071C426.87 98.6173 445.409 111.056 446.335 132.788C444.939 133.85 443.897 135.594 441.867 135.491C441.337 133.65 444.134 133.461 444.246 130.773C444.069 130.051 444.028 129.265 442.977 129.004C438.576 130.503 436.534 136.494 433.217 140.05C432.936 134.76 440.657 130.454 438.82 126.34C434.377 126.657 433.458 133.699 429.418 134.771C430.583 132.031 431.047 131.772 432.318 129.765C426.058 133.193 421.919 140.692 416.218 145.19C415.925 138.899 426.714 132.586 425.26 126.197C421.547 126.785 420.191 131.908 416.784 133.089C417.709 129.91 422.14 128.284 420.721 124.776C415.069 128.698 411.311 136.258 405.86 140.581C407.234 135.923 413.348 128.969 417.154 124.567C410.194 126.216 407.792 136.581 401.03 138.614C402.885 132.232 409.126 128.588 412.614 123.141C412.542 122.722 412.473 122.286 412.047 122.058C406.291 124.491 402.921 131.462 397.667 134.842C397.187 135.781 399.614 135.2 398.524 136.47C393.907 134.054 401.803 128.877 403.508 126.207C403.042 124.555 401.923 127.073 400.768 126.255C402.796 121.285 407.622 118.303 409.001 114.288C405.436 113.188 405.608 119.231 402.54 119.078C404.635 115.188 407.349 112.446 409.996 109.592C409.928 109.162 409.867 108.743 409.428 108.498C405.1 110.351 402.903 116.256 399.269 119.421C399.352 115.243 402.909 109.902 406.231 105.673C406.256 105.092 405.707 104.805 405.786 104.178C404.308 103.283 403.58 105.259 402.757 103.68C409.609 94.3363 416.702 85.4549 424.385 77.7071ZM429.754 138.057C430.594 140.017 427.631 145.76 425.123 145.705C425.183 142.827 428.42 140.67 429.754 138.057ZM429.696 135.313C429.484 136.682 428.603 136.755 428.104 137.542C427.328 136.879 428.464 134.348 429.696 135.313ZM411.916 142.935C412.854 139.572 417.098 137.048 418.973 133.319C418.772 135.402 415.442 142.758 411.916 142.935ZM400.463 144.799C399.925 144.629 399.357 144.455 398.819 144.284C398.558 142.685 399.991 142.157 400.799 140.811C402.517 141.178 400.456 143.543 400.463 144.799ZM398.437 100.051C398.207 96.5029 401.957 94.8904 402.918 91.4487C405.334 94.485 400.017 98.2184 398.437 100.051ZM379.654 137.376C380.163 134.216 382.132 133.239 382.119 130.869C375.722 131.2 374.403 141.192 368.821 143.078C370.419 137.51 375.338 134.909 376.358 130.43C369.334 133.264 368.365 147.691 359.465 146.969C360.725 144.97 362.467 143.889 363.738 141.942C362.876 140.125 361.921 143.696 360.345 142.691C363.08 136.703 367.022 133.038 370.579 128.617C371.004 127.713 369.53 127.784 369.728 126.982C364.461 131.006 360.54 137.595 354.398 139.914C355.618 134.721 360.446 130.849 363.701 127.375C358.055 127.173 354.974 137.504 349.743 140.286C350.127 134.606 358.426 128.697 358.982 123.622C353.316 128.637 349.789 137.721 343.484 141.507C344.116 143.25 344.952 144.899 347.121 145.839C344.003 146.44 338.91 142.378 337.156 139.979C347.97 132.042 349.205 113.121 342.964 103.592C352.159 96.5365 361.119 89.0058 371.002 83.2692C375.552 86.1813 376.637 90.6157 379.88 95.602C388.541 108.927 402.612 118.187 389.202 135.822C386.282 134.057 389.041 131.217 388.234 128.693C384.943 129.598 380.334 138.023 379.654 137.376ZM383.308 141.706C381.934 143.486 380.327 144.826 378.178 145.099C378.378 142.285 381.288 139.284 382.641 136.492C384.645 137.293 382.207 140.429 383.308 141.706ZM373.563 140.924C374.171 138.339 375.68 137.48 376.886 136.052C377.127 137.635 375.747 141.769 373.563 140.924ZM355.146 143.346C356.404 139.819 358.982 138.824 360.883 136.502C360.51 139.096 358.243 143.75 355.146 143.346ZM329.935 135.446C329.681 128.49 337.17 121.656 338.704 115.898C330.898 119.911 330.149 137.379 321.407 139.593C323.096 134.913 326.359 133.232 328.301 129.019C326.207 130.302 324.908 133.107 322.934 134.615C324.932 127.548 333.534 120.686 334.396 113.649C330.316 116.175 327.62 125.156 322.986 130.086C319.188 125.396 328.11 120.795 329.092 114.709C328.58 114.63 328.387 114.382 328.392 114.039C325.176 112.967 324.09 115.924 322.023 117.051C320.528 117.143 322.129 115.603 320.633 115.7C316.192 122.836 309.92 126.471 305.258 133.173C305.2 133.78 306.181 133.84 306.78 134.106C305.264 134.954 304.727 137.674 303.458 138.978C300.57 130.42 313.764 120.001 317.003 112.753C311.241 116.503 308.004 125.019 302.999 130.193C302.339 127.88 304.272 124.205 302.164 122.652C298.812 124.836 297.285 130.481 294.598 133.923C292.353 124.081 299.457 112.698 303.592 106.267C297.692 111.486 293.975 120.876 287.99 125.943C288.098 115.875 293.088 110.726 298.068 103.63C290.513 110.311 284.799 120.486 278.919 130.38C276.715 118.842 285.431 108.537 292.024 102.65C287.716 102.377 284.632 110.041 281.036 113.304C279.632 112.655 279.092 111.547 278.227 110.609C281.255 106.707 284.247 102.737 288.149 100.521C281.396 99.9576 278.119 111.704 272.02 114.569C272.006 104.842 280.12 102.106 282.185 96.3778C274.684 97.5025 270.487 110.504 263.972 115.689C274.232 91.5374 294.088 85.7017 310.571 73.4399C320.1 84.3936 331.104 94.556 341.07 105.276C343.197 116.09 335.561 126.913 329.935 135.446ZM332.384 134.851C334.226 132.199 335.49 128.47 337.113 125.418C337.737 127.204 334.893 136.823 332.384 134.851ZM311.482 136.491C312.099 126.662 319.757 120.674 325.143 115.749C325.851 115.845 325.74 116.368 326.267 116.552C321.385 123.302 317.641 132.188 311.482 136.491ZM309.404 141.748C308.135 141.743 307.292 142.561 305.716 141.957C305.147 139.866 307.307 138.206 308.205 136.829C310.317 137.573 309.319 139.939 309.404 141.748ZM299.382 140.43C300.077 140.646 300.766 140.862 301.455 141.078C301.553 142.763 298.053 142.194 299.382 140.43ZM297.708 138.537C295.89 137.589 297.728 133.84 298.674 132.476C300.141 133.437 298.833 137.323 297.708 138.537ZM292.455 123.258C293.572 125.1 291.922 128.39 291.396 131.103C289.034 129.921 292.27 125.782 292.455 123.258ZM290.395 135.793C292.174 135.907 291.293 138.793 289.752 137.862C289.967 137.176 290.182 136.491 290.395 135.793ZM285.333 122.839C286.058 125.229 285.417 133.604 281.716 133.076C283.02 130.129 282.727 126.073 285.333 122.839ZM271.397 123.933C270.146 121.123 272.407 117.572 274.377 115.764C274.692 118.361 272.454 121.763 271.397 123.933ZM266.823 121.141C267.374 119.363 267.342 116.712 268.744 114.918C269.761 115.907 269.261 121.597 266.823 121.141ZM269.488 97.8627C270.199 95.0449 272.393 95.0688 273.628 93.2486C273.922 95.3579 271.493 97.9446 269.488 97.8627ZM280.505 81.3012C280.867 80.0362 281.871 79.959 282.514 79.2059C283.286 80.0814 281.638 81.8909 280.505 81.3012ZM286.862 84.2006C287.413 84.3818 287.969 84.5509 288.507 84.7215C288.555 86.3099 285.607 85.9223 286.862 84.2006ZM321.294 75.4333C321.978 71.5914 325.747 68.1604 328.067 65.2649C328.979 65.3551 329.069 65.8957 329.589 66.1977C326.957 69.528 324.53 73.2589 321.294 75.4333ZM333.488 75.6093C330.073 77.8822 330.68 84.1935 326.42 85.2259C325.594 83.1577 327.736 82.3484 328.81 81.8758C328.253 78.8811 330.416 75.4155 333.488 75.6093ZM334.974 61.9806C336.856 62.2563 337.032 63.4381 337.348 64.5427C336.577 66.1566 335.52 67.2119 333.846 67.083C333.914 65.614 333.96 62.8492 334.974 61.9806ZM390.522 100.753C390.221 101.717 389.92 102.688 389.631 103.657C387.62 103.44 388.16 99.3693 390.522 100.753ZM392.519 91.3733C392.924 91.5026 393.34 91.625 393.758 91.7591C393.275 93.9137 391.885 94.3317 390.816 95.3821C389.9 93.8116 392.03 92.4784 392.519 91.3733ZM381.466 53.7964C389.376 65.4894 395.982 77.8466 402.344 90.3611C398.493 90.9088 398.011 97.9184 394.314 98.7532C394.688 96.8324 395.481 95.7121 396.132 94.3213C394.533 93.9202 394.128 95.7611 393.174 96.5831C392.664 94.0444 395.108 91.8812 395.5 90.4897C394.955 90.1723 394.13 91.4547 393.021 89.7065C389.801 90.8118 389.141 96.8107 386.238 98.5015C386.517 95.4564 387.98 91.6575 389.282 87.1768C388.538 85.8269 388.16 84.2972 386.861 83.2442C383.115 85.163 381.003 91.2198 383.938 94.1511C379.533 88.7132 371.887 81.9933 371.875 73.0867C366.395 74.3392 363.934 84.6329 357.13 81.2068C357.45 79.9927 358.184 78.5532 357.736 77.7493C355.069 78.1449 354.389 82.3463 351.113 81.5923C352.463 78.889 354.403 77.3367 356.746 76.5333C357.411 75.501 356.184 75.4445 356.433 74.6143C352.582 75.8286 350.121 79.6983 347.448 83.1737C345.979 82.9028 346.597 81.5384 345.89 80.8636C347.094 76.9875 349.696 75.8013 351.766 73.6004C348.167 71.6599 347.145 80.1095 343.412 80.0863C342.031 79.43 342.9 77.5833 341.697 76.8168C342.151 75.4552 343.047 74.9687 343.278 73.214C341.038 72.4803 339.25 78.2901 336.261 78.2954C336.908 72.864 341.883 72.4054 342.073 68.2947C339.818 67.586 339.356 71.9924 337.18 69.4834C338.393 66.5679 341.802 63.8944 344.863 63.6999C357.58 62.9033 371.013 59.8666 381.466 53.7964ZM344.949 54.6372C342.531 56.0431 340.144 60.7378 337.522 59.5957C338.352 57.1979 340.624 55.6103 340.404 53.2171C338.958 51.6345 338.051 53.638 336.299 53.2977C336.196 52.0798 336.564 50.6138 335.54 49.8727C332.335 49.9031 332.61 56.58 329.392 56.588C328.266 53.0775 329.502 49.8828 328.082 46.1683C335.069 34.2052 341.148 48.4791 344.949 54.6372ZM323.723 54.3649C322.34 53.9389 320.979 53.4991 321.76 51.9256C323.345 52.2394 324.078 53.0179 323.723 54.3649ZM299.084 34.3618C307.844 44.3337 319.015 53.0242 327.876 62.9399C324.379 66.5887 322.184 72.7117 317.293 73.7174C318.884 68.7981 323.846 66.9426 325.016 63.4057C321.462 65.5729 316.124 67.0428 316.308 72.5008C314.146 70.9876 315.118 67.8104 312.752 66.386C310.181 71.0617 305.393 75.6448 300.266 77.4913C302.572 73.5293 306.093 71.9136 309.128 69.3381C309.224 67.7192 307.979 68.7085 306.778 68.1542C307.115 66.6024 307.678 65.4789 308.341 64.553C302.403 66.2058 300.234 78.5089 293.965 77.3241C295.826 74.9471 297.659 72.5252 299.708 70.4854C295.521 69.9775 293.523 79.3395 288.673 79.7633C288.37 77.2359 291.526 76.1362 292.089 73.1015C290.251 72.462 288.54 77.7458 286.606 79.1147C283.579 78.2444 285.636 75.1067 287.196 74.2959C280.16 77.1316 276.101 85.6497 269.169 88.659C272.448 82.1921 276.981 78.1034 281.146 73.316C278.41 69.8656 276.33 78.4384 274.043 80.1866C269.226 78.4249 266.886 85.4162 263.117 87.6733C263.352 81.1812 272.778 74.1401 274.099 69.7404C271.211 72.1258 268.545 74.9517 264.65 75.4148C263.924 68.4888 271.637 66.4603 273.271 62.2039C266.255 66.188 261.784 75.02 254.582 78.6371C257.617 71.6019 261.986 61.7527 269.448 56.915C262.881 57.78 261.319 68.2064 254.228 68.0679C257.77 62.1027 262.4 58.1766 266.222 52.7174C261.47 51.7995 258.02 53.35 255.494 56.6353C254.064 54.3788 254.486 51.1501 253.935 48.4204C255.261 49.117 254.246 51.0356 255.65 51.684C269.724 45.1218 284.745 40.3989 299.084 34.3618ZM263.763 98.8007C263.675 99.7228 263.142 99.8113 262.831 100.334C261.489 100.111 261.785 99.0231 262.239 97.862C263.153 97.9639 263.241 98.4871 263.763 98.8007ZM254.246 114.923C254 116.443 254.018 117.816 253.244 119.607C248.819 115.327 254.827 109.019 257.319 104.964C252.445 106.234 251.02 114.058 247.177 117.254C244.512 113.945 249.592 108.421 251.593 105.902C245.665 107.141 242.574 119.455 238.186 125.814C233.793 117.962 244.801 108.716 248.077 101.158C242.941 103.235 241.112 111.603 237.443 116.476C235.505 116.353 236.521 114.647 234.93 114.328C234.638 119.651 233.388 123.997 230.288 127.882C226.09 117.612 236.579 107.291 241.743 99.6369C236.596 101.656 234.069 108.717 230.547 113.867C229.366 114.52 229.237 113.074 227.652 112.955C226.125 117.29 227.044 121.374 223.786 124.022C222.671 113.231 230.978 104.974 237.047 97.2451C230.237 99.8484 225.8 112.677 218.985 117.522C218.998 115.439 220.071 112.795 218.59 111.481C222.09 106.941 224.927 101.174 229.12 97.9475C222.286 100.282 219.308 109.984 213.878 115.007C212.644 114.615 212.808 113.492 211.782 112.987C207.988 117.258 210.816 123.579 206.028 125.737C205.987 112.438 218.194 104.903 222.23 95.3313C217.539 96.4784 214.906 101.573 211.768 105.697C212.368 107.012 213.215 103.221 214.605 103.853C212.224 106.388 210.446 113.418 207.114 111.973C205.273 116.59 203.252 120.851 200.672 124.053C199.357 112.861 208.594 106.332 214.241 99.2011C213.712 97.7613 209.992 102.203 210.292 100.235C211.855 97.9496 213.941 96.6439 215.369 94.0928C208.327 96.929 205.21 107.245 198.47 110.633C197.32 101.402 203.646 95.4325 209.804 90.0791C203.671 91.3187 201.405 99.9846 195.394 101.485C196.697 96.88 201.563 93.4993 204.46 89.7681C201.074 88.4282 199.233 95.5521 195.985 96.6659C191.29 90.6224 202.214 85.2949 204.963 80.8277C198.847 82.1306 193.516 90.6257 188.162 95.5775C191.489 83.8739 203.618 77.6256 211.73 70.6656C217.325 64.4064 223.108 58.5377 229.868 54.5231C229.995 75.8606 256.543 83.2711 259.756 102.996C256.486 106.884 260.107 114.509 254.246 114.923ZM250.444 130.107C251.029 128.121 252.603 128.052 253.384 126.478C254.746 128.234 252.3 130.503 250.444 130.107ZM246.182 129.229C246.659 129.9 247.721 130.278 247.873 131.114C247.029 132.581 245.556 132.859 243.803 132.572C244.157 130.623 245.401 130.348 246.182 129.229ZM247.131 121.794C249.129 122.714 248.775 124.864 248.202 127.126C245.835 126.41 246.649 124.014 247.131 121.794ZM243.512 118.835C245.172 121.891 242.873 127.369 241.447 131.383C234.468 128.963 242.249 122.84 243.512 118.835ZM240.271 133.734C239.683 135.043 237.926 134.113 236.571 133.938C236.837 132.906 237.124 131.925 237.763 131.579C238.177 132.522 239.802 132.826 240.271 133.734ZM233.034 135.113C230.676 134.626 231.205 132.608 230.087 131.463C231.165 129.344 232.123 126.982 233.386 125.218C234.534 127.665 235.333 131.995 233.034 135.113ZM225.749 126.456C225.467 128.557 226.477 131.5 224.522 133.354C222.424 132.289 222.535 126.186 225.749 126.456ZM222.38 135.868C221.449 135.833 220.882 136.52 219.642 135.922C219.025 134.549 221.08 134.273 221.778 133.408C222.508 133.946 222.549 134.862 222.38 135.868ZM219.333 120.818C221.077 122.504 219.107 127.793 218.42 129.63C215.586 128.294 218.088 123.247 219.333 120.818ZM216.092 135.712C215.041 135.451 214.08 135.152 213.736 134.528C214.487 133.394 217.031 133.605 216.092 135.712ZM210.196 122.495C212.414 120.564 213.866 117.173 216.067 115.244C216.6 118.896 215.444 126.118 212.375 128.644C210.803 127.043 211.004 124.5 210.196 122.495ZM210.69 132.657C209.59 132.312 208.277 132.08 207.917 131.339C208.23 128.085 212.324 130.182 210.69 132.657ZM195.878 124.837C194.036 124.794 195.115 121.431 196.365 121.809C198.213 121.852 197.133 125.204 195.878 124.837ZM197.612 103.093C199.167 104.908 196.148 110.019 195.072 112.763C190.677 110.462 196.018 105.494 197.612 103.093ZM192.867 118.444C191.064 117.654 192.205 115.317 192.629 113.363C193.179 113.532 193.729 113.708 194.279 113.877C194.34 115.087 193.985 117.679 192.867 118.444ZM190.409 98.558C192.336 99.2781 190.448 102.011 190.114 103.923C186.922 103.303 189.259 99.8162 190.409 98.558ZM188.765 105.322C187.931 106.57 187.149 107.937 186.242 109.085C182.896 107.671 186.722 101.079 188.765 105.322ZM196.472 61.3463C197.022 61.5217 197.572 61.6853 198.117 61.8671C198.027 63.2259 197.241 63.2425 196.935 64.2194C195.441 63.6085 195.684 62.3128 196.472 61.3463ZM199.931 76.5366C199.758 77.2952 199.155 77.2484 199.005 78.064C196.457 77.3636 198.714 74.686 199.931 76.5366ZM200.398 66.219C198.975 65.3423 200.635 62.2398 202.251 63.1585C202.268 65.1862 201.681 65.3857 200.398 66.219ZM200.393 72.1245C199.505 71.7843 199.829 70.8059 200.208 69.7989C201.432 69.9442 202.341 69.4743 202.912 68.3678C204.503 69.8726 200.993 70.6851 200.393 72.1245ZM202.297 58.6239C199.661 55.1764 205.188 51.8197 206.488 49.4806C207.726 52.4089 204.535 57.9713 202.297 58.6239ZM196.896 68.7593C196.263 67.6001 197.38 66.8876 198.082 66.3947C199.552 67.1907 198.677 69.2268 196.896 68.7593ZM218.294 58.1797C218.354 56.7469 219.349 57.1011 219.765 56.3681C221.091 56.9408 219.787 59.1683 218.294 58.1797ZM233.446 56.0997C235.498 57.369 235.679 55.0583 237.551 56.0191C237.156 58.5612 235.197 58.1273 234.483 60.0664C232.975 59.3623 232.84 57.9231 233.446 56.0997ZM238.217 55.323C237.742 53.2297 239.902 53.6104 240.602 51.9792C241.2 53.1415 239.542 55.6185 238.217 55.323ZM238.34 60.816C236.88 60.3318 236.72 58.0217 238.125 57.1126C238.536 57.2414 238.947 57.3702 239.364 57.4984C238.889 58.7557 239.613 60.1427 238.34 60.816ZM242.567 73.5077C241.241 74.1739 239.937 72.8678 241.015 71.203C242.401 71.5227 242.849 72.3207 242.567 73.5077ZM247.679 62.8376C249.816 64.7189 246.541 68.6842 244.235 68.1216C243.589 65.306 246.229 63.7684 247.679 62.8376ZM243.227 65.5328C240.702 65.2138 242.432 61.4444 243.684 61.1269C245.349 61.4218 244.235 64.9774 243.227 65.5328ZM250.415 81.8851C249.132 81.403 248.028 80.8224 248.44 79.4469C249.666 78.9017 251.582 80.0945 250.415 81.8851ZM254.846 58.7102C255.721 58.2492 256.467 59.6225 258.147 59.7509C256.847 62.0959 255.498 64.3393 253.614 65.6034C252.006 64.3773 254.699 60.8705 254.846 58.7102ZM261.561 45.8039C260.324 47.406 258.541 47.9651 256.97 48.9184C255.363 46.5891 259.594 44.9636 257.524 42.7166C259.388 41.2183 261.35 39.9176 262.752 37.5282C264.581 39.7847 259.894 43.3915 261.561 45.8039ZM254.28 18.0569C260.434 23.1393 262.135 30.5807 268.328 35.6419C266.443 39.1891 270.11 39.7903 270.379 42.2027C269.883 43.4796 267.004 43.6109 266.841 43.3658C265.013 43.2859 267.69 40.8424 265.289 41.0611C265.63 39.9513 265.966 38.848 266.319 37.743C266.503 36.252 263.703 36.3408 262.984 35.3309C260.148 36.7325 259.248 41.8205 255.301 41.1143C254.399 37.8672 261.272 38.0604 259.128 34.5871C256.94 33.902 257.321 38.151 254.803 36.864C255.273 34.8402 257.048 33.6683 255.26 32.464C252.898 31.9301 252.452 35.0194 250.095 34.485C250.426 32.7331 252.501 32.1599 251.798 30.476C249.762 29.6477 248.889 31.0583 247.722 31.9227C246.305 31.5174 248.275 29.3193 246.842 28.9214C244.547 27.3727 244.716 30.5668 242.614 29.408C243.98 23.4115 250.94 22.4822 254.28 18.0569ZM247.763 40.573C247.118 39.4149 248.253 38.7068 248.944 38.215C250.589 38.4172 248.977 41.6688 247.763 40.573ZM219.522 11.7161C230.737 26.402 248.617 37.5832 252.466 56.1485C251.462 57.5294 250.096 58.2168 248.547 58.5605C246.43 57.9459 247.768 55.5031 246.144 54.6264C244.94 54.7567 245.315 57.8913 244.152 58.0946C241.782 57.6085 241.909 55.8099 241.211 54.4442C241.772 53.1026 242.965 52.9792 243.196 50.9648C239.239 51.1267 236.235 53.0623 233.006 54.599C231.385 53.492 231.822 51.2883 231.934 49.2609C227.807 48.6297 227.344 55.0004 223.707 55.3286C221.612 55.1544 223.4 52.9431 221.872 52.4827C218.058 53.7763 216.108 58.6329 211.746 58.8602C212.435 53.4311 219.094 52.8822 218.097 48.5699C212.887 50.937 210.573 58.8107 205.21 60.9082C205.63 54.9837 211.713 51.737 214.912 47.1178C212.947 46.4365 212.451 48.5747 211.12 49.1174C210.336 48.3728 209.261 47.7837 208.618 46.9676C209.132 45.5535 210.569 45.8568 211.166 44.5828C209.217 42.2484 207.852 45.956 206.702 47.279C205.093 47.0912 206.54 45.2818 205.694 44.6901C201.494 45.4811 202.387 55.9671 197.996 56.3858C196.53 49.0179 202.039 42.7783 206.394 39.4547C204.207 38.2563 202.154 42.6796 200.06 43.8325C198.787 43.4616 198.721 42.4588 197.964 41.8121C198.2 39.2015 199.785 39.1318 200.899 38.1837C201.524 33.1671 196.571 35.5822 194.57 36.6561C203.057 28.6365 211.373 20.3547 219.522 11.7161ZM188.618 85.2668C187.417 84.5828 188.427 83.9919 188.85 83.0637C189.888 83.4378 189.339 84.9198 188.618 85.2668ZM194.503 58.9133C192.602 57.9492 193.661 56.9882 194.294 55.2036C195.416 55.8593 195.268 58.3324 194.503 58.9133ZM194.408 41.6021C194.686 40.5688 194.968 39.5881 195.601 39.2488C197.636 39.5287 195.809 42.2154 194.408 41.6021ZM193.326 48.0749C193.622 47.1108 193.917 46.1408 194.224 45.1815C195.687 45.0518 194.445 49.0199 193.326 48.0749ZM165.712 30.3352C172.46 38.7038 176.201 48.6544 187.161 54.7975C187.97 57.7226 190.108 59.9517 192.651 61.9739C193.526 68.7806 190.385 78.4975 185.694 82.9894C184.404 82.6258 183.878 81.8643 183.054 81.2589C183.988 79.2943 184.902 77.302 185.531 74.7451C182.594 76.3858 181.175 80.9417 178.44 82.9951C177.08 80.2191 181.562 78.2411 181.971 74.5474C178.24 76.9014 176.02 82.0828 173.315 86.3869C171.653 85.5314 171.711 83.7624 170.913 82.4528C172.398 78.8407 176.386 76.7353 176.869 73.4067C171.892 75.7531 169.374 82.8546 165.099 86.5428C161.744 81.8199 166.781 77.5863 169.203 73.2778C164.43 76.2551 161.477 82.7049 157.029 86.2905C153.697 81.5007 160.545 74.5995 163.703 72.0132C158.909 70.3791 157.505 80.7974 152.674 81.2963C152.635 84.2612 150.309 86.296 148.147 87.1541C147.601 78.3775 154.616 72.8774 158.532 66.7552C151.059 69.6354 148.213 81.3376 141.987 86.585C139.061 78.0606 148.393 68.8571 153.546 63.8286C148.943 64.5079 146.683 69.6456 143.756 73.4917C141.522 72.8224 142.626 70.3886 140.398 69.713C142.387 66.9411 144.558 64.4834 146.8 62.167C142.755 61.9355 139.756 69.3746 136.344 72.532C132.556 66.5735 140.712 61.5562 144.114 57.6917C140.398 55.8265 138.244 65.6093 134.52 63.7802C134.87 59.3013 142.477 56.9342 141.67 52.3809C138.433 53.4287 136.682 57.3592 132.887 57.3534C143.005 46.7646 155.508 40.7546 165.712 30.3352ZM178.243 86.5697C178.423 86.0169 178.59 85.4653 178.758 84.9136C179.888 85.1262 179.941 85.9177 179.488 86.9607C179.083 86.8256 178.66 86.6979 178.243 86.5697ZM177.566 93.1717C177.161 93.0424 176.744 92.9142 176.327 92.7859C176.501 92.2337 176.675 91.6815 176.843 91.1298C177.972 91.3483 178.014 92.1351 177.566 93.1717ZM172.408 95.198C172.054 96.4976 170.774 96.0447 169.542 95.6643C169.942 94.2956 169.479 93.3928 170.288 91.805C171.029 92.9251 171.145 94.3542 172.408 95.198ZM166.78 94.3457C163.91 94.1104 165.425 89.9118 166.954 89.4047C168.924 89.8849 167.949 93.2983 166.78 94.3457ZM161.911 96.9126C160.568 96.2234 161.757 94.2127 161.823 92.7852C163.477 93.0869 162.615 96.5081 161.911 96.9126ZM162.049 90.5885C160.558 90.2074 160.611 87.9787 161.707 87.2976C162.535 88.0147 162.589 89.1425 162.049 90.5885ZM158.256 92.5821C157.218 92.2081 157.869 90.9411 158.198 89.8382C159.559 90.1365 159.138 92.1264 158.256 92.5821ZM153.324 92.4058C154.994 92.5645 153.25 94.53 153.249 95.5683C151.793 95.2549 152.419 92.9284 153.324 92.4058ZM152.189 90.2351C151.77 89.3638 152.508 86.98 153.346 86.4988C155.02 86.7575 154.038 91.198 152.189 90.2351ZM148.831 93.73C148.735 92.3345 149.16 92.285 150.024 91.3767C151.663 91.5736 150.056 94.8189 148.831 93.73ZM145.849 94.6136C144.961 94.2676 145.284 93.2833 145.663 92.2763C146.923 92.5717 146.66 94.2173 145.849 94.6136ZM138.35 89.5324C137.419 88.7831 137.949 86.1052 138.674 85.5454C139.763 86.2217 139.548 88.7361 138.35 89.5324ZM138.442 80.4633C137.704 78.4523 137.383 78.2211 135.899 76.9368C136.703 73.8394 137.926 71.566 140.583 72.0385C139.851 74.752 140.942 78.9912 138.442 80.4633ZM133.469 84.8209C131.759 84.6834 132.309 83.3428 131.366 82.7951C132.329 81.2763 134.516 83.2002 133.469 84.8209ZM131.951 77.9768C131.569 79.2258 131.187 80.4691 130.8 81.7127C130.105 81.037 129.258 80.4453 129.247 79.4022C129.838 78.3292 130.397 77.2179 131.951 77.9768ZM128.975 72.955C126.975 72.7369 127.73 71.0655 127.683 69.8191C129.469 70.1446 129.337 71.4895 128.975 72.955ZM65.7863 61.795C62.1394 71.769 52.3039 81.3181 47.4309 93.3416C50.6717 79.9526 57.9986 68.6968 65.7863 61.795ZM10.3081 157.675C10.4295 155.227 12.7408 151.324 15.965 152.625C14.9068 155.893 12.2724 156.126 10.3081 157.675ZM15.0884 176.004C15.0176 174.494 15.8303 169.733 17.5476 169.492C19.3311 171.039 17.9275 176.614 15.0884 176.004ZM33.0073 169.337C31.8701 168.972 32.6284 167.076 33.3603 166.722C33.7772 166.85 34.1881 166.979 34.5986 167.102C34.478 168.641 33.597 168.707 33.0073 169.337ZM40.0867 161.088C40.9088 161.346 41.7308 161.603 42.5645 161.86C41.9202 163.716 41.4658 165.921 39.6236 165.489C39.8925 163.967 39.4479 162.808 40.0867 161.088ZM38.005 179.542C37.2054 176.652 37.552 173.506 39.6074 171.401C40.9939 173.107 38.3575 176.921 38.005 179.542ZM31.6872 217.585C33.1006 216.51 35.4528 215.357 37.2796 217.06C36.2715 220.623 34.1025 221.984 31.5145 222.538C31.9087 220.709 31.2538 219.434 31.6872 217.585ZM32.1677 214.557C36.5739 201.324 39.1475 186.455 43.4636 172.151C61.3639 180.676 80.1298 177.691 96.9581 177.993C99.0634 178.149 96.7661 180.635 98.255 181.123C104.776 182.439 108.328 177.7 114.444 183.01C114.176 188.012 116.022 191.895 116.102 196.72C110.457 197.379 107.354 205.228 115.084 207.316C113.54 225.539 107.986 244.59 106.244 262.312C104.926 262.617 104.138 261.295 102.683 262.102C98.2253 265.323 98.0123 272.58 104.404 272.651C103.53 275.542 103.075 278.201 102.801 280.786C99.2969 283.108 95.1413 284.196 90.4118 284.19C92.3367 281.678 90.9207 278.529 87.4114 277.784C87.601 280.228 89.289 281.889 90.0065 284.061C88.3828 285.804 85.4956 285.116 82.3401 283.926C82.3904 282.064 83.706 282.584 84.0536 281.285C81.2302 280.261 80.3388 282.965 78.3626 283.595C64.2218 279.916 38.8563 276.518 31.2935 264.305C35.4578 261.806 37.4804 267.461 39.2031 269.509C41.6714 264.671 32.069 258.998 27.9869 263.265C25.6017 262.674 24.7192 261.283 23.5404 260.06C25.2881 249.936 28.5092 236.655 30.3625 226.267C36.9547 225.819 44.318 212.873 32.1677 214.557ZM56.5332 135.769C59.125 130.278 68.296 129.565 75.8823 131.819C84.4104 134.355 96.4931 142.794 104.435 149.411C112.091 155.781 115.724 168.455 114.073 178.347C88.2906 169.052 68.2484 182.832 44.5002 168.838C44.3728 159.487 54.8259 146.474 56.6261 139.884C57.0864 138.139 55.8098 137.267 56.5332 135.769ZM115.64 201.132C115.322 202.104 115.975 202.577 115.281 203.747C114.537 204.161 112.754 203.605 112.385 202.83C112.757 200.892 113.834 200.324 115.64 201.132ZM104.346 269.907C102.787 269.685 102.491 268.803 101.706 268.176C102.546 266.273 103.541 264.657 105.753 265.352C104.878 267.058 105.88 268.933 104.346 269.907ZM80.6163 339.336C81.6242 339.765 81.9494 341.099 80.8013 341.661C80.0585 341.108 79.498 339.901 80.6163 339.336ZM80.1542 343.748C79.0383 343.357 79.1117 344.176 78.5102 343.233C78.5647 342.007 79.5861 342.654 79.8416 341.835C80.5407 342.162 80.5603 342.839 80.1542 343.748ZM70.5033 352.997C67.1327 348.164 59.7867 346.626 53.8556 342.326C51.3428 340.508 49.6477 337.85 47.1618 336.136C43.1505 333.394 38.1299 332.895 33.6126 330.08C30.8867 328.375 30.1111 324.899 27.8505 322.356C22.5159 316.387 15.5325 310.31 12.684 303.962C16.2311 290.581 19.5247 275.748 23.2054 264.054C42.3353 279.218 79.98 292.005 101.506 284.942C98.8288 300.363 95.0283 315.961 87.1294 330.01C83.0043 337.337 68.7142 340.184 70.5033 352.997ZM60.1386 348.388C52.345 346.247 44.3213 341.213 40.9959 335.573C48.5376 339.229 52.5402 344.755 60.1386 348.388ZM15.7484 313.111C14.2192 314.007 13.6047 311.478 12.8296 310.827C13.9889 310.128 14.9564 312.467 15.7484 313.111ZM10.1954 309.096C10.5954 307.857 13.4953 308.815 12.5404 310.286C11.5123 310.023 10.5281 309.727 10.1954 309.096ZM203.845 434.794C210.979 433.242 220.784 436.791 229.229 437.748C223.429 438.905 211.992 438.06 203.845 434.794ZM370.034 430.91C372.736 427.698 377.325 428.099 380.612 426.032C379.882 427.79 373.599 430.175 370.034 430.91ZM395.097 418.744C395.798 418.115 396.201 416.906 397.674 417.742C397.242 418.878 396.414 419.282 395.097 418.744ZM335.412 437.352C304.101 445.943 265.718 442.419 226.027 434.917C218.532 433.493 210.936 432.697 203.381 431.915C196.189 431.172 188.244 431.469 181.721 430.136C168.975 427.531 156.677 421.341 145.457 416.956C139.46 414.608 132.757 414.146 127.143 411.677C85.5313 393.307 51.4655 371.562 25.6932 343.966C18.3433 336.094 14.6252 324.631 11.5502 314.969C31.0846 328.682 43.0267 347.675 70.4343 356.159C71.5133 366.098 84.5341 379.432 95.9409 371.88C117.395 382.302 139.12 393.39 161.713 402.484C167.015 404.622 172.973 405.421 178.249 407.661C180.894 408.784 182.86 411.057 185.453 412.196C193.82 415.885 203.574 416.177 213.494 418.248C218.972 419.396 224.712 422.279 229.88 422.465C234.425 422.634 239.478 422.056 246.028 422.98C261.392 425.158 276.433 424.008 291.492 424.031C308.13 424.043 325.395 422.407 339.849 420.076C350.672 418.327 360.281 418.767 369.881 416.748C379.089 414.812 387.583 411.729 397.637 409.068C398.187 408.919 398.553 408.668 399.142 408.628C399.458 408.806 399.42 409.17 399.831 409.298C384.259 428.511 358.556 430.983 335.412 437.352ZM80.1032 354.188C81.3384 354.597 80.3832 357.508 78.9229 356.552C78.2844 355.393 79.4013 354.681 80.1032 354.188ZM101.579 353.642C101.784 352.267 102.665 352.194 103.17 351.412C103.878 351.503 103.76 352.027 104.288 352.21C103.89 353.667 103.184 354.508 101.579 353.642ZM402.136 401.85C398.438 407.841 382.43 410.929 373.228 413.26C362.165 416.064 351.3 416.489 340.736 417.19C314.332 418.916 293.067 423.455 265.275 420.832C242.24 418.662 210.474 416.999 183.426 407.02C176.998 404.651 169.895 403.198 163.722 400.389C161.678 399.473 159.737 397.22 157.752 396.246C146.756 390.89 132.873 388.64 123.937 382.471C118.559 378.771 107.263 372.622 99.7159 369.887C121.822 351.93 115.904 317.963 127.398 286.228C141.447 286.192 149.421 292.376 160.605 297.543C164.742 299.46 166.629 302.749 169.952 305.47C173.161 308.117 177.149 309.156 180.866 311.168C186.496 314.203 189.8 318.364 194.399 323.136C204.524 333.653 217.313 338.437 229.87 344.704C259.187 352.075 284.622 352.052 306.669 345.567C301.929 356.387 302.569 369.026 311.351 372.955C328.568 380.673 351.254 359.031 340.801 342.165C355.956 335.012 369.582 352.864 385.084 358.758C395.357 362.668 404.32 359.697 414.81 360.796C407.731 372.125 409.466 389.975 402.136 401.85ZM106.678 348.866C107.308 349.075 106.633 352.226 105.498 351.235C105.593 349.87 106.379 349.848 106.678 348.866ZM112.455 337.488C112.866 337.616 113.289 337.744 113.7 337.873C114.119 338.614 113.557 340.405 112.803 340.778C111.318 340.402 111.371 338.168 112.455 337.488ZM135.078 254.07C141.558 234.749 149.341 212.321 160.494 199.711C170.442 208.322 187.426 213.642 201.715 214.446C202.758 222.418 197.709 228.416 194.509 236.298C193.637 236.587 191.86 235.117 189.964 234.872C188.518 235.318 187.349 239.062 188.297 240.258C189.466 241.375 190.758 240.588 192.559 241.143C186.18 263.505 171.67 291.808 181.931 309.222C174.974 306.517 170.178 302.683 166.789 298.105C168.813 295.654 169.604 292.416 167.303 290.544C166.062 291.238 167.748 292.356 166.702 293.989C165.657 293.733 165.621 292.94 164.895 292.515C163.458 292.406 163.185 294.536 162.203 295.314C152.618 293.508 149.25 286.008 141.201 285.548C138.924 284.322 142.553 279.977 139.562 279.121C137.208 279.79 139.607 283.028 138.058 285.472C134.144 285.394 135.028 281.299 136.975 280.141C133.46 279.792 132.315 283.993 128.14 282.375C129.214 276.599 130.899 270.498 132.821 264.281C134.233 263.253 136.478 263.786 138.124 263.215C140.252 258.514 138.588 255.806 135.078 254.07ZM164.159 198.13C172.062 182.948 206.14 189.962 201.79 211.284C189.082 210.557 172.74 206.702 164.159 198.13ZM191 238.833C189.877 238.619 189.83 237.833 190.277 236.791C191.412 237.003 191.46 237.795 191 238.833ZM187.176 298.133C188.028 294.724 190.365 294.128 191.836 291.862C191.857 294.326 189.537 297.994 187.176 298.133ZM211.922 297.244C212.999 292.618 210.749 287.172 211.48 282.547C214.338 264.502 221.162 237.735 233.821 224.957C234.231 224.549 234.702 224.1 235.443 224.105C258.372 239.712 289.046 245.376 316.471 250.845C317.639 254.051 318.302 257.514 318.192 261.399C314.837 261.39 309.602 268.46 313.213 271.65C315.325 270.761 314.483 265.108 317.584 264.833C318.642 271.193 320.547 281.896 319.238 291.74C317.473 305.015 315.248 320.886 306.684 326.465C306.586 328.715 308.047 330.143 310.204 331.203C308.795 335.404 308.325 338.808 306.785 343.776C284.878 347.239 263.063 350.877 235.046 342.676C235.317 340.198 241.203 339.334 237.257 337C234.886 336.762 237.057 339.159 236.232 340.312C234.418 340.584 232.633 340.92 230.917 341.378C211.003 335.091 198.18 325.078 189.394 312.92C196.435 315.57 200.385 312.317 205.658 311.638C206.104 305.864 210.742 302.368 211.922 297.244ZM238.257 220.894C239.671 217.672 242.19 216.54 243.992 214.039C254.504 210.329 266.841 211.442 279.845 213.906C297.414 217.227 310.309 233.882 314.884 247.169C288.193 242.939 256.315 236.879 238.257 220.894ZM310.697 328.18C309.179 328.019 309.655 326.255 310.506 325.849C312.022 325.856 310.745 327.338 310.697 328.18ZM339.308 348.509C342.196 349.669 341.341 352.122 340.113 354.679C338.587 354.561 338.513 353.671 337.896 353.077C339.743 352.052 339.187 350.372 339.308 348.509ZM423.699 320.367C423.354 321.241 425.102 321.015 425.632 321.428C424.341 322.487 423.111 323.646 420.734 322.624C421.93 321.013 422.578 320.974 423.125 319.279C415.262 319.775 420.2 327.732 425.025 324.874C424.202 330.51 421.048 337.391 420.337 342.963C415.163 341.664 408.585 341.421 407.247 345.698C405.422 351.547 415.889 351.858 416.957 345.097C421.826 346.005 416.463 352.297 416.356 355.828C401.444 361.308 384.821 356.339 369.78 346.688C359.933 340.387 350.832 336.109 339.348 338.076C339.19 333.636 346.053 327.955 337.562 324.779C337.854 305.233 347.767 277.738 354.107 258.098C357.167 256.907 361.05 257.306 364.755 257.344C364.822 253.964 359.858 255.011 357.17 254.058C359.372 246.837 363.303 242.919 368.672 241.742C372.437 249.59 362.644 261.648 360.523 271.021C356.511 270.167 352.422 269.179 351.133 273.54C350.716 274.462 352.188 274.373 351.989 275.169C355.909 276.497 355.968 270.469 360.425 272.811C354.568 287.813 354.33 299.703 364.645 304.611C369.253 306.798 382.155 304.847 386.346 301.862C401.676 290.959 392.374 276.971 394.365 259.799C402.656 258.64 411.301 253.048 419.672 252.713C424.109 252.539 423.131 263.055 422.302 267.641C420.85 275.816 418.554 289.782 417.2 298.798C416.271 305.074 418.086 309.467 420.919 313.151C423.203 312.807 425.518 313.734 427.549 315.224C428.144 318.445 425.543 319.714 423.699 320.367ZM413.691 345.428C413.095 347.363 411.821 348.03 409.898 347.422C408.963 345.11 412.492 343.653 413.691 345.428ZM338.97 332.028C337.515 331.526 337.725 330.138 338.211 328.609C340.27 329.04 339.94 330.927 338.97 332.028ZM360.802 283.373C362.616 284.144 360.23 286.691 359.657 287.114C358.506 286.001 359.815 284.026 360.802 283.373ZM382.447 291.07C384.358 292.659 381.139 294.891 380.213 295.374C379.561 293.874 381.663 292.024 382.447 291.07ZM396.211 255.359C399.882 245.784 416.266 237.654 418.808 249.699C411.424 251.462 403.184 255.03 396.211 255.359ZM453.722 296.57C451.096 298.142 449.294 301.304 446.456 302.476C445.91 300.383 449.391 297.927 449.206 296.516C444.155 297.648 443.907 307.923 438.085 307.589C438.834 305.393 441.442 301.328 443.382 299.244C438.471 299.774 437.557 307.925 432.486 308.109C433.441 304.013 436.342 303.608 437.65 300.177C434.15 300.328 433.233 305.364 430.552 307.041C427.321 304.284 434.027 302.616 433.139 300.123C430.398 300.218 429.647 306.709 426.227 303.419C426.987 300.036 429.135 299.292 430.186 296.473C427.601 295.941 427.302 299.749 425.612 300.955C422.679 296.938 429.798 292.673 431.25 288.616C427.575 288.64 427.223 295.001 423.724 295.359C421.638 290.565 430.444 284.021 429.008 279.73C426.425 280.726 426.45 286.711 423.271 286.574C423.893 281.782 427.841 280.335 426.888 276.331C425.193 275.178 424.326 277.307 423.45 275.721C423.874 270.687 426.209 265.673 426.29 260.681C426.477 247.497 414.417 235.116 402.659 243.278C399.17 245.699 395.328 250.293 393.444 254.041C386.932 266.917 396.056 280.231 390.779 290.497C389.815 286.895 388.659 289.529 386.459 286.874C385.268 286.561 385.166 288.369 384.74 289.516C384.099 289.844 383.131 289.529 382.135 289.163C379.85 292.704 377.425 295.993 374.382 298.097C373.977 294.027 377.843 292.404 379.558 290.164C379.376 289.449 379.34 288.656 378.29 288.406C376.151 289.386 374.89 292.029 373.056 293.589C373.154 290.484 375.998 286.893 378.225 285.651C374.478 286.19 373.008 291.081 370.027 293.091C369.339 289.542 373.795 288.067 374.635 284.07C370.289 285.653 366.713 293.538 365.605 297.164C364.566 296.784 365.216 295.517 365.546 294.414C365.057 293.413 364.396 294.428 363.068 293.643C365.415 289.477 368.192 283.561 371.815 280.008C366.864 279.827 365.389 291.88 359.478 292.061C361.946 283.484 370.022 275.4 370.505 269.582C367.239 271.488 365.859 276.996 362.626 278.946C361.617 271.886 372.957 264.044 372.316 257.877C370.028 256.8 370.434 260.864 368.402 260.289C369.935 254.513 378.785 239.282 368.347 238.438C365.448 238.211 358.665 243.938 357.416 245.93C348.542 260.243 343.243 283.436 337.721 305.251C333.605 321.59 334.904 336.352 339.278 347.132C337.436 350.433 335.443 353.435 333.315 356.172C331.607 354.088 336.254 350.886 335.625 348.712C332.224 349.703 331.758 356.299 328.128 356.827C328.464 353.954 331.901 352.062 332.064 348.502C327.999 350.862 326.945 358.961 322.177 359.967C322.793 354.061 327.793 350.934 329.522 344.982C325.099 348.199 323.133 356.084 318.169 358.252C319.346 353.617 323.262 350.91 323.825 347.298C319.593 348.445 318.685 355.947 314.452 357.089C314.706 352.258 317.463 348.864 319.951 345.169C316.109 345.297 316.311 353.184 312.176 352.736C312.965 346.927 319.343 345.73 318.787 341.615C314.958 343.335 313.871 350.28 309.814 351.548C311.172 344.16 318.08 340.61 318.375 335.587C315.013 337.065 313.543 342.168 310.629 344.52C311.055 336.041 320.949 330.876 323.046 323.405C319.847 323.429 319.088 328.132 316.909 330.113C315.116 329.505 315.618 327.107 314.298 329.748C314.222 319.992 320.389 312.898 324.184 305.105C321.939 305.882 321.131 309.381 319.24 310.835C317.732 305.931 323.351 302.294 324.554 296.578C324.238 295.485 321.805 298.29 320.993 296.374C323.015 289.7 326.85 286.481 329.421 280.821C329.768 279.256 327.388 279.113 326.624 278.131C327.636 275.782 332.671 271.92 329.315 269.415C327.487 272.285 325.369 274.614 323.04 276.549C322.842 279.251 325.02 280.75 322.635 283.699C319.287 276.162 327.935 266.146 324.572 258.38C322.66 257.564 322.837 260.781 320.913 259.966C320.925 257.417 320.157 255.267 319.94 252.844C321.098 250.889 320.771 254.976 321.902 255.271C323.355 255.626 324.092 254.605 324.739 253.433C323.756 251.833 321.475 250.578 319.51 251.33C316.502 238.218 302.028 218.311 286.259 212.258C280.911 210.207 274.965 211.961 269.531 210.655C267.04 210.062 265.06 208.485 262.636 208.045C256.012 206.833 250.092 210.649 244.206 210.463C233.803 220.233 219.713 236.312 216.149 255.8C215.735 257.995 214.563 259.798 213.805 261.895C209.208 274.637 208.959 287.33 208.401 298.405C207.63 300.414 207.436 297.724 206.341 297.762C204.289 299.772 203.634 304.467 201.455 306.241C199.056 303.917 205.371 299.918 204.818 296.829C202.03 297.642 201.271 302.352 198.947 304.08C193.559 300.534 205.466 297.969 202.026 294.127C199.236 297.147 197.044 301.329 194.014 303.904C189.828 299.732 200.619 296.717 197.736 291.882C194.918 292.887 195.083 299.579 191.165 298.463C190.937 296.053 194.066 294.915 194.87 292.348C193.803 290.018 191.131 287.4 188.906 288.205C187.43 290.028 190.593 289.4 190.458 290.509C189.462 292.774 187.997 294.184 186.602 295.665C185 293.842 187.353 289.947 185.762 288.123C187.07 287.193 189.978 284.24 188.516 282.157C186.308 282.359 186.265 286.657 183.665 286.103C184.811 280.598 188.634 280.188 190.722 276.482C191.572 274.76 188.838 274.926 188.88 273.63C189.74 271.761 191.372 271.351 192.348 269.719C191.912 267.87 192.648 265.398 191.948 263.684C189.332 262.423 188.922 265.386 187.496 266.379C187.788 261.251 193.88 261.454 195.218 256.068C195.41 254.924 193.223 255.035 193.122 254.041C194.154 251.407 195.774 249.877 196.954 247.508C193.638 236.41 204.921 226.102 205.264 213.276C206.095 202.366 199.964 191.046 189.269 187.34C169.649 180.542 151.204 203.36 142.728 226.433C133.517 251.536 125.461 280.931 119.648 306.983C118.592 306.605 119.461 305.224 119.046 304.518C114.431 316.088 114.398 329.21 105.137 339.275C104.533 340.862 106.207 341.25 106.974 342.132C105.512 343.719 104.416 346.04 102.695 347.154C102.724 348.066 103.454 348.609 104.386 349.051C102.659 350.16 101.142 351.657 99.5341 352.985C97.6039 353.079 100.134 350.826 98.9435 350.524C97.391 351.293 97.1877 354.662 95.0359 354.316C94.9654 352.546 97.069 351.634 96.1995 350.585C93.5621 352.488 93.455 355.748 91.0298 358.511C89.2677 358.449 87.3643 358.122 85.6917 358.205C86.5024 355.585 85.5451 353.883 83.2594 352.893C83.4419 349.556 86.3862 348.587 86.1242 346.516C82.5257 346.021 81.9113 351.225 79.5594 353.103C77.5107 351.875 79.0738 348.734 78.8813 346.521C80.0855 345.996 79.297 346.767 79.9991 347.325C82.046 343.946 86.5051 340.477 84.282 336.386C85.3812 334.1 87.6351 334.012 89.1215 332.441C103.461 303.539 106.901 270.424 112.935 240.754C116.765 221.873 119.85 201.767 116.424 185.442C116.702 184.408 116.989 183.421 117.617 183.082C117.122 168.19 115.392 153.938 102.998 145.308C93.5222 138.225 74.8898 123.566 61.2099 129.485C59.8547 128.915 61.6039 126.737 60.457 126.066C57.5558 131.514 53.9909 135.717 51.479 141.904C49.4891 140.086 52.927 135.056 52.7919 133.222C49.1501 135.061 47.011 144.358 49.4001 147.155C48.8021 149.987 46.5206 149.569 45.0933 150.817C43.5016 150.492 44.946 148.582 43.669 148.1C41.1902 153.475 37.9871 157.458 34.9275 161.728C33.5681 161.636 33.9305 160.631 32.5653 160.54C28.9456 165.509 27.8926 173.619 22.6371 176.527C19.1596 172.074 26.5762 166.863 27.0308 163.808C24.8961 163.915 24.0376 166.463 22.5954 167.871C20.9315 167.593 20.8107 166.507 19 166.296C17.9151 166.84 17.1304 167.983 16.6093 169.64C14.6642 168.585 16.4598 165.547 14.5821 164.457C15.1349 161.777 17.4304 162.418 17.9108 159.585C15.0178 158.703 14.864 163.017 12.6539 163.395C10.0779 158.71 17.4208 157.593 18.1879 152.847C21.1565 153.262 23.3556 152.171 26.0968 152.146C36.0215 146.081 35.3853 131.974 38.8597 121.125C48.879 89.9687 65.5237 61.423 85.9173 48.0891C97.0402 44.7085 107.167 35.9182 119.341 36.7272C113.192 46.9052 116.487 57.5088 126.154 61.6074C121.021 76.1079 129.201 83.6064 133.656 93.0631C135.473 94.3297 135.583 92.3496 136.933 92.7255C152.701 104.991 173.757 100.877 185.094 92.3454C182.677 99.6562 181.101 108.031 183.233 114.508C185.208 120.556 191.596 130.019 198.677 133.444C218.474 143.016 245.817 139.106 258.493 127.63C266.03 145.845 295.461 147.29 312.677 147.322C314.077 147.8 313.979 145.396 315.381 145.897C319.422 148.453 328.592 143.93 333.787 142.113C348.527 154.705 373.392 157.822 384.478 145.254C407.775 162.474 446.166 160.971 450.372 128.602C474.437 142.202 478.022 159.317 470.939 183.712C466.917 197.624 458.969 212.574 455.005 226.476C447.756 251.835 438.778 278.557 453.722 296.57Z" fill="#E3DDD7"/>
<path fill-rule="evenodd" clip-rule="evenodd" d="M396.315 89.4605C398.266 90.1311 396.567 90.5767 396.373 92.2102C398.513 92.2978 398.339 88.3846 398.039 86.8126C397.405 87.6061 396.533 87.9016 396.315 89.4605Z" fill="#E3DDD7"/>
<path fill-rule="evenodd" clip-rule="evenodd" d="M310.287 111.178C307.633 111.849 305.257 116.531 304.701 118.981C306.346 115.963 308.727 114.348 310.287 111.178Z" fill="#E3DDD7"/>
<path fill-rule="evenodd" clip-rule="evenodd" d="M152.288 139.918C146.702 137.641 139.317 132.65 135.287 131.863C140.066 134.778 146.149 138.87 152.288 139.918Z" fill="#E3DDD7"/>
<path fill-rule="evenodd" clip-rule="evenodd" d="M222.79 312.092C228.823 313.728 233.002 311.789 235.967 307.58C234.63 299.086 219.786 304.395 222.79 312.092ZM223.965 309.735C225.628 305.806 228.989 301.827 233.749 305.971C233.538 306.432 233.612 306.738 233.906 306.931C232.332 310.804 227.459 311.684 223.965 309.735Z" fill="#E3DDD7"/>
<path fill-rule="evenodd" clip-rule="evenodd" d="M403.365 270.412C407.718 272.114 410.671 271.174 412.629 268.317C411.805 263.907 400.787 264.258 403.365 270.412Z" fill="#E3DDD7"/>
<path fill-rule="evenodd" clip-rule="evenodd" d="M173.275 221.539C170.718 222.562 170.333 227.375 172.478 228.565C178.505 231.906 178.704 219.389 173.275 221.539Z" fill="#E3DDD7"/>
<path fill-rule="evenodd" clip-rule="evenodd" d="M351.003 285.855C349.701 288.696 346.126 289.774 346.378 293.497C351.289 298.282 356.275 287.854 351.003 285.855Z" fill="#E3DDD7"/>
</g>
<defs>
<clipPath id="clip0_1364_12820">
<rect width="477" height="228" fill="white"/>
</clipPath>
</defs>
</svg>
