<svg width="188" height="52" viewBox="0 0 188 52" fill="none" xmlns="http://www.w3.org/2000/svg">
<path d="M10.8403 46.062L10.6096 45.9468C10.4559 45.7931 10.3597 45.7162 10.3213 45.7162C10.2829 45.7162 10.206 45.7739 10.0907 45.8892C10.0522 46.0044 9.99456 46.062 9.9177 46.062C9.72551 45.9852 9.59099 45.966 9.51403 46.0044C9.36032 46.1197 9.18732 46.1197 8.99513 46.0044C8.95665 45.966 8.93746 45.9275 8.93746 45.8892C8.93746 45.8122 8.91827 45.7546 8.87979 45.7162L8.76446 45.3703L8.70679 44.9668L8.64912 44.7362L8.59146 44.4479L8.53379 44.0444L8.41845 43.7561C8.3416 43.6793 8.30322 43.5831 8.30322 43.4678L7.95722 42.3148L7.84188 41.969C7.64969 41.6615 7.55359 41.2772 7.55359 40.816L7.49593 40.0089C7.53437 39.8551 7.55359 39.6438 7.55359 39.3748C7.55359 39.0288 7.57282 38.7022 7.61125 38.3947C7.64969 38.0488 7.68817 37.7798 7.72655 37.5876L7.78421 37.1264V36.6076C7.78421 36.4923 7.8034 36.3578 7.84188 36.204C7.88036 36.0118 7.88036 35.8773 7.84188 35.8004V35.3969C8.03407 34.6282 8.13022 33.8596 8.13022 33.0909V31.9379C8.13022 31.8226 8.13022 31.6881 8.13022 31.5344C8.13022 31.3807 8.11103 31.3037 8.07255 31.3037C8.03407 31.3037 7.89955 31.4575 7.66888 31.765L6.91932 32.6874L6.57335 33.1485C6.49647 33.1485 6.41959 33.2255 6.34271 33.3791C6.30427 33.456 6.24661 33.5521 6.16972 33.6674C6.09285 33.7443 6.03519 33.8404 5.99674 33.9556C5.84298 34.0325 5.72766 34.167 5.65078 34.3592L5.36247 34.7051C5.36247 34.7051 5.26638 34.8012 5.07417 34.9933L4.20926 36.031C3.90173 36.3385 3.74797 36.4923 3.74797 36.4923L3.402 36.7804C3.2098 36.9727 3.11369 37.0687 3.11369 37.0687C2.84461 37.2609 2.61396 37.3762 2.42176 37.4147C2.34489 37.4147 2.22956 37.3762 2.0758 37.2993C2.03736 37.184 1.92204 37.0879 1.72984 37.0111C1.61451 36.9342 1.44153 36.8958 1.21088 36.8958H0.691936C0.653488 36.8574 0.634269 36.6652 0.634269 36.3193L0.518955 35.9734C0.480507 35.8965 0.461288 35.7428 0.461288 35.5122C0.461288 35.3584 0.422849 35.2047 0.345963 35.051C0.307525 34.9741 0.288306 34.8204 0.288306 34.5898L0.230649 34.2439C0.19221 34.167 0.172982 34.0133 0.172982 33.7827L0.115324 33.3791C0.0384381 33.2638 0 33.1678 0 33.0909C0 32.9757 0.0384381 32.8603 0.115324 32.745C0.153762 32.7066 0.172982 32.6682 0.172982 32.6297C0.21143 32.5912 0.249868 32.5529 0.288306 32.5144L0.749594 31.765C0.788032 31.6881 0.864918 31.5344 0.980243 31.3037C1.13401 31.0732 1.24932 30.9194 1.32621 30.8426L1.61451 30.5543C1.72984 30.439 1.78749 30.3813 1.78749 30.3813C1.86437 30.3813 1.96048 30.2853 2.0758 30.0932L2.42176 29.6319C2.49864 29.5935 2.57553 29.4974 2.65241 29.3437C3.03681 28.9593 3.22901 28.7672 3.22901 28.7672C3.3059 28.6519 3.36356 28.5558 3.402 28.4789C3.47888 28.3637 3.53654 28.2867 3.57499 28.2484L4.61288 27.0377C4.68976 26.9992 4.78586 26.98 4.90118 26.98C5.05495 26.98 5.18949 26.8647 5.30481 26.6341C5.42014 26.4419 5.78532 26.0385 6.40037 25.4235C6.55413 25.3082 6.68868 25.1352 6.80399 24.9046C6.84244 24.7893 6.9962 24.578 7.26529 24.2705C7.53437 24.0015 7.70736 23.7901 7.78421 23.6364C7.86107 23.5211 7.88036 23.4442 7.84188 23.4058L7.61125 23.3481C7.34217 23.3481 7.0923 23.4058 6.86166 23.5211C6.36193 23.6364 5.99674 23.694 5.7661 23.694L5.30481 23.8094L4.90118 23.9822C4.74742 23.9822 4.6321 24.0399 4.55522 24.1552C4.40146 24.2705 4.26691 24.2513 4.15159 24.0975C3.92095 23.9439 3.6903 23.8477 3.45966 23.8094C3.15214 23.8094 2.99838 23.7517 2.99838 23.6364C2.99838 23.4826 2.97916 23.3866 2.94071 23.3481L2.88305 22.9445C2.88305 22.5987 2.82539 22.3489 2.71007 22.1951C2.71007 22.1567 2.65241 21.83 2.53709 21.215L2.47942 20.9845C2.47942 20.8307 2.57553 20.6578 2.76773 20.4656C3.07525 20.0428 3.42121 19.7354 3.80563 19.5432C4.11315 19.3511 4.30535 19.2549 4.38224 19.2549C4.536 19.1397 4.76664 19.0244 5.07417 18.9091C5.38169 18.7553 5.57389 18.6593 5.65078 18.6208C5.91986 18.544 6.05441 18.4863 6.05441 18.4479L5.82376 17.8137C5.74688 17.5831 5.70843 17.3718 5.70843 17.1796L5.65078 16.8914C5.68922 16.9298 5.51623 16.3149 5.13183 15.0466L5.01651 14.5278C4.90118 13.9512 4.82431 13.6246 4.78586 13.5477L4.7282 13.2018L4.67054 12.683L4.61288 11.8758L4.55522 11.2993L4.32457 10.1463C4.32457 9.83885 4.30535 9.58904 4.26691 9.39689L4.20926 8.87808L4.32457 8.76277C4.36302 8.68593 4.47833 8.60899 4.67054 8.53215C4.82431 8.53215 4.99729 8.57062 5.18949 8.64746C5.30481 8.7243 5.40091 8.78196 5.4778 8.82043C5.59312 8.82043 5.67 8.83961 5.70843 8.87808C5.97752 8.95492 6.32349 9.16626 6.74633 9.5122C6.97698 9.74282 7.11152 9.85813 7.14997 9.85813C7.45749 10.204 7.66888 10.4922 7.78421 10.7229L8.30322 11.7029L8.76446 12.5677C8.84131 12.606 8.89898 12.606 8.93746 12.5677V12.2794C8.93746 12.1641 8.91827 12.068 8.87979 11.9911C8.87979 11.8758 8.89898 11.7413 8.93746 11.5876C8.97594 11.4723 9.01432 11.2609 9.05279 10.9534C9.09117 10.6459 9.12965 10.1079 9.16813 9.33923C9.16813 8.95492 9.18732 8.7243 9.22579 8.64746C9.26417 8.18621 9.32184 7.80191 9.3987 7.49444C9.43717 7.14861 9.49484 6.86033 9.5717 6.6297L9.68703 6.39908C9.80237 6.16855 9.97537 5.99559 10.206 5.88028C10.2444 5.84181 10.3213 5.82262 10.4366 5.82262C10.5519 5.82262 10.6288 5.84181 10.6673 5.88028C10.9748 5.88028 11.3015 5.99559 11.6475 6.22621C11.9166 6.41836 12.1088 6.86033 12.2241 7.5521L12.3394 8.18621L12.3971 8.82043C12.3971 8.93574 12.4164 9.03177 12.4548 9.10861C12.5316 9.14708 12.5701 9.20473 12.5701 9.28157L12.6278 10.3193C12.6662 10.8189 12.6854 11.184 12.6854 11.4146C12.7239 11.6068 12.7623 11.7029 12.8008 11.7029C12.8391 11.7413 12.8968 11.7221 12.9738 11.6453C13.0506 11.5683 13.1083 11.4723 13.1467 11.357C13.1851 11.1648 13.3197 10.9534 13.5503 10.7229L13.781 10.4922C13.9732 10.2233 14.2039 9.99263 14.4729 9.80048C14.5882 9.76201 14.6651 9.64669 14.7036 9.45454C14.7036 9.33923 14.7612 9.26239 14.8766 9.22392C14.915 9.22392 14.9534 9.20473 14.9918 9.16626C15.0303 9.08942 15.0688 9.05105 15.1072 9.05105C15.2225 8.93574 15.3763 8.89727 15.5685 8.93574L15.7991 8.99339L16.0874 9.10861C16.2796 9.26239 16.4911 9.35842 16.7217 9.39689C16.8754 9.47373 16.9908 9.56985 17.0676 9.68517C17.1445 9.76201 17.183 9.87732 17.183 10.031L17.2983 10.8382C17.3752 10.9534 17.3752 11.0687 17.2983 11.184V12.3947L17.2406 13.3747C17.2406 13.4901 17.2022 13.6246 17.1253 13.7782C17.0484 13.932 16.9523 14.0665 16.837 14.1818C16.6448 14.374 16.5103 14.4893 16.4334 14.5278L16.2027 14.8736L16.1451 15.1042C16.1451 15.1042 16.0874 15.1619 15.9721 15.2772L15.3378 16.0266C14.7612 16.6031 14.4537 16.9298 14.4152 17.0067C14.3768 17.122 14.3768 17.1988 14.4152 17.2373C14.5306 17.3141 14.8958 17.3525 15.5108 17.3525C16.2027 17.391 16.7409 17.5255 17.1253 17.7561C17.2406 17.8714 17.3368 17.9291 17.4136 17.9291C17.4136 17.9291 17.5097 17.9867 17.7019 18.102C17.971 18.2173 18.1055 18.3518 18.1055 18.5055C18.144 18.6208 18.144 18.6977 18.1055 18.7361C17.9134 18.8515 17.9134 18.9475 18.1055 19.0244L18.3362 19.4279C18.3362 19.5049 18.2977 19.5624 18.2209 19.6009C18.144 19.6777 18.0671 20.0045 17.9902 20.5809V21.0421C17.9518 21.1574 17.971 21.2535 18.0479 21.3304L18.2785 21.561C18.3554 21.6763 18.3746 21.7531 18.3362 21.7916C18.3362 21.83 18.1055 21.9646 17.6442 22.1951L17.4136 22.2528C17.2598 22.3296 17.1061 22.3681 16.9523 22.3681C16.8754 22.3681 16.6641 22.4257 16.3181 22.541L15.5108 22.5987C15.088 22.5987 14.8381 22.6371 14.7612 22.714L14.1269 22.7717C13.781 22.7717 13.5888 22.7908 13.5503 22.8293C13.5119 22.8677 13.5119 22.9253 13.5503 23.0022C13.6657 23.1944 13.9924 23.5787 14.5306 24.1552C15.1072 24.7317 15.6069 25.1737 16.0297 25.4812C16.0682 25.5965 16.3565 25.8655 16.8946 26.2883C17.2791 26.6726 17.4713 26.8647 17.4713 26.8647C18.7014 28.0946 19.3165 28.7095 19.3165 28.7095C19.547 28.9017 19.7008 29.2091 19.7777 29.6319L19.8354 29.9778C19.9122 30.3621 19.9507 30.8234 19.9507 31.3614C19.9507 31.7458 19.9315 31.9763 19.893 32.0533V32.2838C19.893 32.5529 19.9122 32.7642 19.9507 32.918L20.0084 33.2062L19.893 33.3791C19.7777 33.7251 19.6047 33.898 19.3741 33.898C19.3356 33.9364 19.278 33.9556 19.2011 33.9556C19.1626 33.9556 19.1243 33.9749 19.0858 34.0133C19.0473 34.0517 18.9513 34.0709 18.7975 34.0709C18.7591 34.0325 18.7014 34.0133 18.6245 34.0133C18.5476 34.0133 18.4899 33.9941 18.4515 33.9556L17.9902 33.8404C17.9134 33.8404 17.8365 33.8211 17.7595 33.7827C17.6827 33.7443 17.625 33.6866 17.5866 33.6098L17.0676 33.4945C16.5679 33.4176 16.1835 33.2831 15.9144 33.0909C15.3763 32.745 14.9918 32.4376 14.7612 32.1685C14.1077 31.5535 13.7233 31.15 13.608 30.9579C13.608 30.9194 13.5311 30.8234 13.3773 30.6696C13.3389 30.5543 13.2813 30.4966 13.2043 30.4966C13.166 30.4966 13.1467 30.8041 13.1467 31.419C13.2236 31.7265 13.262 32.0916 13.262 32.5144V34.8781C13.262 35.0702 13.262 35.3201 13.262 35.6275C13.3005 35.8965 13.3005 36.0695 13.262 36.1463L13.2043 37.4723C13.2043 38.3947 13.166 39.1249 13.089 39.6629C13.089 39.7399 13.0698 39.8359 13.0314 39.9512C12.993 40.0665 12.9738 40.2202 12.9738 40.4125C12.9353 40.5661 12.9161 40.7391 12.9161 40.9313C12.9161 41.085 12.8968 41.2195 12.8584 41.3348L12.8008 42.0843C12.8008 42.3917 12.7815 42.5839 12.7431 42.6607L12.6854 43.2372C12.647 43.2757 12.6278 43.3333 12.6278 43.4102C12.6278 43.4871 12.6086 43.5447 12.5701 43.5831L12.5124 43.9291C12.2049 45.0051 12.0127 45.6201 11.9359 45.7739C11.8974 45.9275 11.782 46.0429 11.5899 46.1197C11.3977 46.2735 11.2055 46.2927 11.0133 46.1774L10.8403 46.062ZM21.6228 19.0821C21.6228 19.0821 21.6613 19.0244 21.7382 18.9091C21.8535 18.7553 22.0072 18.6208 22.1995 18.5055L22.8914 18.102L23.0644 18.0444C23.0644 17.9674 23.1413 17.9291 23.295 17.9291C23.4488 17.9291 23.641 17.8714 23.8717 17.7561C24.1792 17.5255 24.3906 17.391 24.5059 17.3525L25.2555 17.1796C25.9475 16.9875 26.4087 16.8722 26.6394 16.8337L28.2539 16.6031C28.4076 16.5647 28.5422 16.5647 28.6575 16.6031C28.8113 16.6031 28.9074 16.6031 28.9458 16.6031C28.9843 16.5647 29.1765 16.5454 29.5225 16.5454C29.7915 16.5454 29.9837 16.5262 30.099 16.4878C30.2144 16.4109 30.2912 16.3341 30.3297 16.2572C30.3681 16.1803 30.3681 16.1035 30.3297 16.0266C30.3297 15.9113 30.3104 15.8345 30.272 15.796C30.2336 15.7191 30.1182 15.6807 29.926 15.6807C29.7338 15.6807 29.5993 15.7191 29.5225 15.796C29.4071 15.8345 29.2918 15.8536 29.1765 15.8536C29.0611 15.8536 28.9651 15.8345 28.8881 15.796C28.7728 15.6807 28.5037 15.623 28.0809 15.623C27.8118 15.623 27.5427 15.5847 27.2736 15.5077C26.9661 15.4309 26.7931 15.3732 26.7547 15.3348C26.5625 15.2195 26.3319 15.1427 26.0627 15.1042C25.909 15.1042 25.7552 15.0657 25.6015 14.9889C25.4477 14.9121 25.3516 14.8352 25.3131 14.7583C25.2363 14.7199 25.1786 14.6046 25.1401 14.4124C25.1018 14.1818 25.0825 13.8167 25.0825 13.3171C25.0825 12.8943 25.0633 12.683 25.0248 12.683C24.9864 12.5292 24.9672 12.3178 24.9672 12.0488C24.9672 11.7798 24.948 11.5108 24.9096 11.2417C24.9096 11.0111 24.9096 10.8382 24.9096 10.7229C24.948 10.6076 25.0441 10.5114 25.1978 10.4346C25.3516 10.3193 25.6783 10.2424 26.1781 10.204C26.4856 10.204 26.6971 10.1656 26.8124 10.0887C27.0814 10.0118 27.5235 9.95416 28.1385 9.91579L28.7728 9.85813C28.8113 9.81966 29.0227 9.76201 29.4071 9.68517C29.9837 9.68517 30.3104 9.6467 30.3874 9.56986C30.4257 9.49301 30.445 9.3777 30.445 9.22392C30.4834 9.07024 30.4834 8.95492 30.445 8.87808C30.4066 8.83961 30.2912 8.83961 30.099 8.87808C29.753 8.87808 29.4648 8.83961 29.2341 8.76277C29.0035 8.68593 28.7536 8.64746 28.4845 8.64746C28.3307 8.60899 28.1385 8.5898 27.9079 8.5898C27.831 8.51296 27.7157 8.47449 27.562 8.47449C27.2544 8.39765 27.0814 8.34 27.043 8.30153C26.6586 8.10937 26.4279 8.01334 26.3511 8.01334C26.2742 8.01334 26.1589 7.99406 26.0051 7.95569C25.8513 7.87875 25.736 7.80191 25.6592 7.72506C25.5053 7.60975 25.4285 7.14861 25.4285 6.34142C25.39 6.14927 25.3708 5.9763 25.3708 5.82262C25.3708 5.63047 25.3516 5.4575 25.3131 5.30382V4.95788C25.3516 4.88104 25.3516 4.76573 25.3131 4.61195L25.2555 4.1508C25.3324 3.92018 25.3324 3.76649 25.2555 3.68955C25.2555 3.61271 25.294 3.53587 25.3708 3.45903C25.4861 3.2284 25.7168 3.11309 26.0627 3.11309C26.1012 3.07462 26.1589 3.05544 26.2357 3.05544C26.3126 3.05544 26.3702 3.03625 26.4087 2.99778L26.87 2.94012L27.6773 2.88247L30.099 2.53663C30.5219 2.53663 30.7526 2.51735 30.7909 2.47898C30.8294 2.47898 30.8486 2.42132 30.8486 2.30601C30.8871 2.26754 30.9063 2.22917 30.9063 2.1907C30.9063 2.11386 30.9255 2.0562 30.9639 2.01773L31.0216 1.49893C31.0216 1.22983 31.0793 1.01849 31.1946 0.864713C31.2715 0.557248 31.4253 0.288254 31.6558 0.0576312C31.7328 -0.0192104 31.8865 -0.0192104 32.1172 0.0576312C32.5784 0.365096 32.8476 0.595719 32.9244 0.749403C33.0013 0.864714 33.0781 1.03768 33.1551 1.2683C33.2319 1.49893 33.2704 1.71027 33.2704 1.90242C33.3088 2.09457 33.3473 2.20989 33.3857 2.24836C33.4626 2.28673 33.6548 2.30601 33.9623 2.30601C34.5389 2.30601 35.0386 2.30601 35.4615 2.30601C35.8843 2.26754 36.2111 2.26754 36.4417 2.30601C36.7877 2.34438 37.0568 2.38285 37.249 2.42132C37.4796 2.45969 37.691 2.53663 37.8833 2.65185C38.1523 2.76716 38.5752 3.03625 39.1518 3.45903C39.3825 3.57424 39.4978 3.78568 39.4978 4.09314V4.49664C39.5362 4.61195 39.5555 4.74654 39.5555 4.90023C39.4786 5.16922 39.4401 5.4575 39.4401 5.76497V5.99559C39.4016 5.99559 39.3825 6.14927 39.3825 6.45674V6.91798L39.2095 7.03329L38.9211 7.26382C38.8827 7.26382 38.8251 7.2831 38.7482 7.32147C38.7097 7.35994 38.6521 7.37913 38.5752 7.37913C38.0755 7.53291 37.7487 7.60975 37.595 7.60975L36.7301 7.84038C36.6916 7.91722 36.5571 7.95569 36.3264 7.95569L35.9805 8.01334C35.8267 8.05172 35.4231 8.10937 34.7696 8.18621C34.5389 8.22468 34.3659 8.28234 34.2506 8.35918C34.1353 8.39765 34.0777 8.45531 34.0777 8.53215C34.0392 8.64746 34.02 8.80114 34.02 8.99339C34.02 9.18555 34.0392 9.32005 34.0777 9.39689H34.3659L35.1732 9.45454C35.2885 9.41607 35.4807 9.41607 35.7498 9.45454C36.0189 9.45454 36.2303 9.45454 36.3841 9.45454C36.8454 9.45454 37.1913 9.49301 37.422 9.56986L38.6905 10.031L38.9788 10.204C39.0941 10.2424 39.171 10.3385 39.2095 10.4922C39.2095 10.5307 39.2286 10.5883 39.2671 10.6652C39.3056 10.7421 39.3056 10.8189 39.2671 10.8958C39.2671 11.0495 39.3248 11.2032 39.4401 11.357C39.4786 11.5491 39.4786 11.7029 39.4401 11.8181V12.3947C39.4401 12.7406 39.4016 12.9328 39.3248 12.9712C39.2863 13.2018 39.2863 13.3939 39.3248 13.5477C39.4786 13.6629 39.4593 13.8167 39.2671 14.0089C39.1134 14.201 38.8635 14.3355 38.5175 14.4124C38.4022 14.4124 38.2677 14.4508 38.1139 14.5278C37.9985 14.6046 37.8833 14.643 37.768 14.643C37.691 14.643 37.6334 14.6623 37.595 14.7006L36.8454 14.8159L35.9805 14.9313L35.4615 14.9889C35.4231 15.0274 35.3461 15.0466 35.2308 15.0466L35.0002 15.1619C34.9233 15.2003 34.7504 15.2195 34.4812 15.2195L33.9623 15.2772C33.9239 15.3925 33.9047 15.5654 33.9047 15.796C33.9047 16.0266 33.9239 16.1996 33.9623 16.3149C34.0392 16.3533 34.7504 16.3725 36.0957 16.3725C36.6339 16.3725 36.9799 16.3917 37.1336 16.4302C37.3258 16.4302 37.4412 16.4302 37.4796 16.4302C37.5565 16.4686 37.6718 16.4878 37.8256 16.4878H38.1139L39.6708 16.5454C39.7476 16.5839 39.8245 16.6031 39.9014 16.6031C40.0167 16.6031 40.1128 16.6224 40.1897 16.6607C40.305 16.6992 40.4396 16.7184 40.5934 16.7184L40.9969 16.8337C41.3045 16.9875 41.5736 17.0835 41.8042 17.122L42.4962 17.4102C42.6499 17.5639 42.7268 17.8137 42.7268 18.1597C42.7268 18.3134 42.7652 18.4671 42.8421 18.6208C42.9189 18.7746 42.9574 18.9283 42.9574 19.0821V20.9269C42.9189 20.9652 42.8998 21.0614 42.8998 21.215C42.9382 21.3304 42.9574 21.4072 42.9574 21.4457C42.9574 21.6763 42.8998 21.8493 42.7844 21.9646L42.5538 22.1374C42.5154 22.2144 42.3808 22.2528 42.1502 22.2528C41.9964 22.2144 41.8235 22.2336 41.6312 22.3104L40.8239 22.5987C40.5164 22.5987 40.305 22.6563 40.1897 22.7717C39.8822 22.8485 39.69 22.8677 39.6131 22.8293H39.3825C39.1134 22.8293 38.9596 22.8485 38.9211 22.8869H38.2869C37.6718 22.8869 37.2683 22.9445 37.076 23.0598C37.0376 23.0983 36.8261 23.1175 36.4417 23.1175C36.288 23.156 36.0573 23.1751 35.7498 23.1751C35.327 23.252 34.8272 23.2905 34.2506 23.2905C34.0584 23.3289 33.8662 23.3289 33.674 23.2905L33.501 23.3481L33.2704 23.2905C33.1166 23.252 32.8859 23.252 32.5784 23.2905C32.4247 23.3289 32.2132 23.3481 31.9442 23.3481H31.3099C31.1946 23.425 30.7717 23.4634 30.0414 23.4634H29.3495C29.2341 23.4634 29.0996 23.4634 28.9458 23.4634C28.8305 23.425 28.6575 23.4058 28.4269 23.4058H27.9079C27.7157 23.4058 27.6003 23.3866 27.562 23.3481L26.2357 23.2905C26.0051 23.2905 25.736 23.252 25.4285 23.1751C25.39 23.1368 25.3324 23.1175 25.2555 23.1175C25.1786 23.1175 25.1018 23.0983 25.0248 23.0598C24.6789 23.0598 24.4482 23.0406 24.3329 23.0022C23.91 23.0022 23.5257 22.9445 23.1797 22.8293L22.7761 22.6563C22.6223 22.5795 22.4878 22.5026 22.3724 22.4257C22.2956 22.3104 22.2187 22.1759 22.1419 22.0221C22.1419 21.83 22.1034 21.7147 22.0265 21.6763L21.9112 21.1574L21.7958 20.6386C21.719 20.408 21.6613 20.139 21.6228 19.8315C21.5845 19.524 21.5845 19.2742 21.6228 19.0821ZM24.7942 45.1396C24.7942 44.7938 24.8134 44.5632 24.8519 44.4479L24.9096 43.9291C24.9096 43.9291 24.9672 43.6408 25.0825 43.0643C25.2363 42.7184 25.3131 42.4301 25.3131 42.1996L25.3708 41.7383C25.4093 41.5077 25.4477 41.2387 25.4862 40.9313C25.5246 40.5853 25.5823 40.201 25.6592 39.7782L25.8322 38.7982L26.0051 37.7028C26.0051 37.626 25.9859 37.5683 25.9475 37.53C25.9475 37.453 25.9667 37.3954 26.0051 37.357L26.0627 36.8381C26.1397 36.6076 26.1781 36.3578 26.1781 36.0887L26.2934 35.5122C26.2934 35.2816 26.3319 35.1471 26.4087 35.1086L26.4664 34.5898C26.6586 32.7066 26.7547 31.8226 26.7547 31.9379C26.8316 31.7073 26.87 31.4959 26.87 31.3037L26.9276 30.4966C26.9276 30.3813 26.9469 30.2468 26.9853 30.0932C27.0238 29.9394 27.0238 29.8241 26.9853 29.7472C27.0238 29.6319 27.043 29.5166 27.043 29.4013C27.043 29.2861 27.0623 29.1899 27.1006 29.1131C27.1776 28.7672 27.216 28.4789 27.216 28.2484C27.216 28.0177 27.2352 27.8256 27.2736 27.6718C27.3121 27.326 27.3505 27.0185 27.389 26.7494C27.4658 26.4419 27.6003 26.1921 27.7926 26C27.7926 25.8463 27.831 25.731 27.9079 25.6541C27.9848 25.5388 28.1002 25.4042 28.2539 25.2506C28.4845 25.0199 28.5999 24.9046 28.5999 24.9046L28.9458 24.9623C29.0611 24.9623 29.1765 24.9816 29.2918 25.0199C29.4455 25.0584 29.5993 25.0584 29.753 25.0199C30.4066 24.8278 30.8294 24.7317 31.0216 24.7317L31.4253 24.6164C31.7712 24.5011 32.1364 24.4243 32.5208 24.3858C32.9052 24.309 33.3857 24.2705 33.9623 24.2705C34.2314 24.232 34.5582 24.2129 34.9426 24.2129C35.3654 24.2129 35.7306 24.2513 36.0382 24.3282C36.4994 24.405 37.076 24.6356 37.768 25.0199C37.9602 25.0968 38.1139 25.1929 38.2292 25.3082C38.3445 25.4235 38.4214 25.5004 38.4599 25.5388C38.6136 25.6925 38.7482 25.8847 38.8635 26.1153C38.9019 26.1538 38.9788 26.3459 39.0941 26.6918C39.0941 26.9224 39.1326 27.0762 39.2095 27.153C39.2479 27.3067 39.3056 27.8448 39.3825 28.7672C39.3825 28.9593 39.4016 29.1131 39.4401 29.2284C39.4786 29.3437 39.4978 29.4206 39.4978 29.4589L39.6708 32.6297L39.786 34.4168C39.8245 34.9933 39.863 35.9926 39.9014 37.4147C39.9783 38.8367 40.0167 40.3355 40.0167 41.9113C40.0552 43.2565 40.0744 44.6593 40.0744 46.1197C40.036 46.1197 40.0167 46.2927 40.0167 46.6386C39.9398 46.8308 39.9014 47.0037 39.9014 47.1574C39.9014 47.2727 39.8822 47.3688 39.8437 47.4457C39.7668 47.6763 39.7285 47.9068 39.7285 48.1375L39.5555 48.7716V49.2328C39.517 49.4634 39.3825 49.7901 39.1518 50.2129C38.9211 50.674 38.7097 51.0391 38.5175 51.3082L38.2292 51.7117C38.1908 51.7886 38.1139 51.8462 37.9985 51.8847C37.9217 51.9615 37.8256 52 37.7103 52H37.6526C37.4604 52 37.249 51.9615 37.0184 51.8847C36.8261 51.8462 36.6532 51.7886 36.4994 51.7117C36.3072 51.5964 36.0189 51.558 35.6345 51.5964L34.9426 51.6541C34.6734 51.6541 34.5197 51.6349 34.4812 51.5964C34.4812 51.558 34.4429 51.5004 34.3659 51.4235C34.289 51.2698 34.2506 51.1544 34.2506 51.0776L34.193 50.7893C34.193 50.7125 34.1545 50.5972 34.0777 50.4435C34.0007 50.2897 33.9623 50.1552 33.9623 50.0399C33.9623 49.8862 33.9239 49.7709 33.847 49.694L33.7893 49.4058C33.7893 49.3288 33.7701 49.2713 33.7317 49.2328C33.6932 49.156 33.6548 49.0215 33.6163 48.8292C33.578 48.6755 33.5395 48.5602 33.501 48.4834C33.501 48.3681 33.4626 48.2719 33.3857 48.1951C33.3857 48.1566 33.3473 48.0221 33.2704 47.7916L33.0974 47.2727C33.0589 47.2727 33.0013 47.2342 32.9244 47.1574C32.7706 47.0037 32.7514 46.8308 32.8668 46.6386C33.1358 46.3695 33.3281 46.1005 33.4433 45.8315L33.6163 45.3126C33.7701 44.8898 33.8662 44.5247 33.9047 44.2173C33.9047 44.0251 33.9239 43.9098 33.9623 43.8714L34.02 43.5255L34.193 42.949L34.3659 42.1996C34.3659 42.1227 34.3852 42.0266 34.4236 41.9113C34.5005 41.796 34.5389 41.6999 34.5389 41.623C34.6158 41.4694 34.6542 41.2772 34.6542 41.0466C34.6542 40.9697 34.6542 40.9121 34.6542 40.8736C34.6542 40.7968 34.6542 40.7391 34.6542 40.7006H33.674C33.3665 40.7006 32.9244 40.7198 32.3478 40.7583C31.7712 40.7583 31.4253 40.7391 31.3099 40.7006L30.9639 40.643C30.8486 40.643 30.7717 40.6623 30.7333 40.7006C30.7333 40.7006 30.7141 40.7968 30.6756 40.9889C30.6756 41.1811 30.6756 41.5847 30.6756 42.1996L30.7333 46.9268L30.6756 47.561C30.5219 49.0598 30.3874 50.1167 30.272 50.7317C30.2336 50.8855 30.1759 51.0391 30.099 51.1929C30.0222 51.3851 29.9452 51.5196 29.8684 51.5964C29.83 51.6733 29.753 51.7117 29.6378 51.7117C29.4455 51.6349 29.2918 51.558 29.1765 51.4812L28.7151 51.1929L28.4269 50.9623L28.3115 50.7893L28.0809 51.0199C27.9655 51.1353 27.8695 51.2121 27.7926 51.2506C27.7157 51.2889 27.6388 51.2698 27.562 51.1929L27.389 51.1353L27.216 51.1929L26.7547 51.3082C26.5625 51.3082 26.4279 51.0776 26.3511 50.6164L26.1781 50.2129L26.1204 49.7516L26.0051 49.2905L25.9475 49.0598L25.8322 48.7139C25.7168 48.4834 25.6592 48.272 25.6592 48.0798L25.4285 47.6763C25.4285 47.5225 25.39 47.3304 25.3131 47.0997C25.3131 46.9076 25.294 46.7539 25.2555 46.6386C25.2171 46.5233 25.1401 46.4464 25.0248 46.408L24.8519 46.1774C24.775 45.9852 24.7558 45.7739 24.7942 45.5432V45.1396ZM30.099 30.6696C30.099 30.9386 30.1182 31.1309 30.1567 31.2461C30.1952 31.3614 30.272 31.419 30.3874 31.419C30.3874 31.3807 30.4834 31.3614 30.6756 31.3614C30.8679 31.3614 31.0408 31.3422 31.1946 31.3037C31.5405 31.2654 31.9057 31.2461 32.2902 31.2461C32.4439 31.2077 33.3473 31.1885 35.0002 31.1885H35.2308C35.3078 31.1885 35.3461 30.9002 35.3461 30.3237V29.4013C35.3461 29.0938 35.2885 28.8825 35.1732 28.7672C35.1732 28.7288 35.1156 28.7095 35.0002 28.7095C34.8464 28.7095 34.7504 28.6903 34.7119 28.6519L34.3082 28.5942C33.7701 28.5558 33.4433 28.5558 33.3281 28.5942L32.4631 28.6519C31.7328 28.6903 31.2523 28.748 31.0216 28.8248L30.6756 28.8825L30.3874 28.9978L30.0414 29.1708L30.099 30.6696ZM30.5027 37.1264C30.5411 37.1648 30.6756 37.184 30.9063 37.184C31.1369 37.184 31.406 37.1456 31.7135 37.0687C32.021 36.9919 32.2517 36.9342 32.4054 36.8958L34.3082 36.7804C34.7696 36.7421 35.0386 36.6844 35.1156 36.6076C35.1924 36.4923 35.2116 36.1463 35.1732 35.5699C35.1732 35.3392 35.154 35.2047 35.1156 35.1663C35.0002 35.1279 34.9233 35.1279 34.8849 35.1663L34.5966 35.2239C34.4812 35.2239 34.3659 35.2431 34.2506 35.2816C34.1737 35.3201 34.116 35.3392 34.0777 35.3392L32.7514 35.4546C32.4054 35.493 31.7904 35.5122 30.9063 35.5122H30.8486C30.6179 35.5122 30.5027 35.8773 30.5027 36.6076V37.1264ZM76.7168 50.2705C76.5246 50.232 76.0633 50.2129 75.3329 50.2129H74.814C74.7371 50.1744 74.641 50.1552 74.5256 50.1552C74.4488 50.1937 74.3526 50.2129 74.2373 50.2129L72.9688 50.1552C72.892 50.1167 72.6805 50.0976 72.3346 50.0976C71.6042 50.0976 71.066 50.0399 70.72 49.9246C70.5663 49.8477 70.3933 49.8093 70.2011 49.8093L69.6821 49.7516L68.1253 49.5788C68.0484 49.5403 67.9716 49.5211 67.8946 49.5211C67.8177 49.5211 67.7601 49.5018 67.7217 49.4634L67.4334 49.4058C66.7798 49.4058 66.357 49.3481 66.1648 49.2328C65.9341 49.156 65.7612 49.1175 65.6459 49.1175C65.569 49.156 65.4729 49.156 65.3576 49.1175C65.2807 49.1175 65.2422 49.1175 65.2422 49.1175C65.2038 49.079 65.1269 49.0598 65.0115 49.0598L64.781 49.0022L63.5124 48.6564C63.3202 48.6564 62.9358 48.541 62.3592 48.3104L62.1286 48.2528L61.7249 48.1375L61.1483 48.0221L60.9177 47.9645C60.9177 47.8876 60.7639 47.8492 60.4563 47.8492C60.3795 47.8108 60.2834 47.7723 60.1681 47.734C60.0528 47.734 59.9566 47.7147 59.8798 47.6763C59.6876 47.561 59.3801 47.4457 58.9572 47.3304C58.6112 47.2535 58.2268 47.119 57.8039 46.9268C57.3427 46.8499 57.0736 46.7731 56.9967 46.6963C56.766 46.6963 56.5547 46.6386 56.3625 46.5233C56.2856 46.4848 56.151 46.4464 55.9588 46.408C55.8051 46.3695 55.6321 46.3119 55.4399 46.235C55.2092 46.235 54.9786 46.1774 54.748 46.062C53.4025 45.6393 52.576 45.4279 52.2685 45.4279H51.6919C51.5381 45.4664 51.4036 45.4856 51.2883 45.4856C51.2114 45.4471 51.1154 45.3703 51 45.255C50.8078 45.0628 50.5387 44.9668 50.1928 44.9668L49.8468 44.9091C49.8468 44.8322 49.7506 44.8322 49.5584 44.9091C49.2509 44.8322 49.0972 44.7745 49.0972 44.7362L49.0395 44.102L48.9819 43.4678C48.9434 43.4295 48.9242 43.3718 48.9242 43.2949C48.9242 43.218 48.905 43.1412 48.8665 43.0643C48.8665 42.7569 48.8281 42.5262 48.7512 42.3725L48.5205 41.1042C48.4821 40.7968 48.4437 40.6238 48.4052 40.5853C48.29 40.3548 48.2515 40.201 48.29 40.1242C48.3668 39.9704 48.6167 39.8936 49.0395 39.8936C49.4624 39.7782 49.8083 39.6246 50.0774 39.4324C50.5772 39.1633 50.9615 38.952 51.2306 38.7982C51.4997 38.606 51.6727 38.4524 51.7496 38.3371L52.4992 37.53C52.576 37.53 52.653 37.453 52.7298 37.2993C52.8067 37.1072 53.0181 36.7229 53.3641 36.1463C53.4025 36.0695 53.4409 36.0118 53.4794 35.9734C53.5179 35.8965 53.5563 35.8389 53.5947 35.8004C53.7101 35.6852 53.7677 35.5122 53.7677 35.2816L53.8831 34.9357C53.9983 34.513 54.0368 34.2439 53.9983 34.1286C53.9599 34.0517 53.8638 33.9749 53.7101 33.898C53.5947 33.8211 53.4602 33.7827 53.3064 33.7827L52.3838 33.6098C52.2301 33.5713 52.1532 33.4753 52.1532 33.3215C52.1148 32.9757 52.0955 32.6105 52.0955 32.2261C52.0955 31.8418 52.0763 31.5344 52.0379 31.3037C51.961 31.1885 51.9226 30.7849 51.9226 30.0932C51.9226 29.901 51.8456 29.728 51.6919 29.5743C51.6534 29.4206 51.6534 29.3053 51.6919 29.2284C51.7688 29.1131 51.9803 28.9593 52.3262 28.7672C52.6337 28.6135 53.1334 28.1331 53.8254 27.326C54.1713 26.9416 54.402 26.6726 54.5173 26.5189C54.671 26.3266 54.748 26.1921 54.748 26.1153C54.748 26 54.7095 25.9231 54.6327 25.8847L54.229 25.827C53.9215 25.827 53.6716 25.7694 53.4794 25.6541C53.4409 25.6157 53.3641 25.5965 53.2487 25.5965C53.1334 25.558 53.0565 25.5196 53.0181 25.4812C52.9028 25.4812 52.7875 25.4235 52.6722 25.3082C52.5953 25.2697 52.5376 25.2314 52.4992 25.1929C52.4607 25.1161 52.4415 25.0007 52.4415 24.847L52.2685 24.2129L52.2108 23.5787C52.0955 22.7717 52.0571 22.3104 52.0955 22.1951L52.3262 22.0798L52.8452 21.9069C53.2295 21.7147 53.4794 21.6378 53.5947 21.6763C53.7485 21.6763 53.8638 21.657 53.9406 21.6186C54.0945 21.5802 54.3828 21.561 54.8057 21.561C55.0747 21.561 55.3246 21.5995 55.5552 21.6763C55.8243 21.7147 56.151 21.7916 56.5355 21.9069C56.9199 22.0221 57.3042 22.1759 57.6886 22.3681C58.0731 22.5602 58.323 22.7332 58.4383 22.8869C58.8227 23.2328 59.0533 23.6748 59.1302 24.2129L59.2455 24.6741C59.2839 24.9431 59.3224 25.289 59.3609 25.7117C59.3992 26.1345 59.3992 26.4996 59.3609 26.8071C59.3224 26.884 59.3032 27.2298 59.3032 27.8448C59.3032 28.1522 59.2647 28.4212 59.1879 28.6519C59.1494 28.844 59.0533 29.0938 58.8995 29.4013C58.7458 29.7472 58.5728 30.0739 58.3806 30.3813C58.2268 30.6888 57.9385 31.0924 57.5157 31.592L57.3427 31.9956C57.3427 32.1878 57.4196 32.4568 57.5734 32.8027L57.6309 33.3215L57.6886 33.8404C57.7656 33.9941 57.8039 34.4937 57.8039 35.3392C57.7656 36.6844 57.7271 37.3954 57.6886 37.4723C57.6502 37.9719 57.5926 38.2986 57.5157 38.4524C57.285 39.221 57.0544 39.8551 56.8237 40.3548C56.8237 40.3932 56.7853 40.4893 56.7084 40.643C56.67 40.7583 56.6892 40.8351 56.766 40.8736C56.843 40.9505 57.2466 41.0658 57.9769 41.2195L58.8419 41.3924L59.5914 41.5654C59.899 41.6423 60.1488 41.6807 60.3411 41.6807L61.9556 41.969C61.9556 41.969 61.994 41.9882 62.0709 42.0266C62.1863 42.0266 62.2631 42.0073 62.3015 41.969C62.9165 42.0843 63.6085 42.1803 64.3773 42.2573C64.608 42.2573 64.7617 42.2764 64.8386 42.3148C64.9155 42.3148 64.9732 42.3148 65.0115 42.3148L65.3576 42.3725C65.5114 42.3725 65.6074 42.3341 65.6459 42.2573C65.6459 41.9497 65.6266 41.7575 65.5882 41.6807C65.5497 41.6807 65.5306 41.527 65.5306 41.2195C65.4921 41.1042 65.4537 41.0081 65.4152 40.9313C65.4152 40.816 65.396 40.7391 65.3576 40.7006L65.0692 39.2594C65.0692 39.0673 65.05 38.9712 65.0115 38.9712C64.9347 38.8943 64.8963 38.8175 64.8963 38.7405C64.8963 38.6637 65.05 38.51 65.3576 38.2794L65.8189 37.8758C65.8573 37.7605 65.9726 37.6645 66.1648 37.5876C66.3186 37.4338 66.3955 37.357 66.3955 37.357L66.7415 37.1264C66.8183 37.0495 66.876 36.9727 66.9144 36.8958C66.9913 36.8189 67.0297 36.7613 67.0297 36.7229L67.2604 36.5499L67.7793 35.9157L68.2983 35.3392L68.7019 35.051C68.8941 34.8204 69.1632 34.513 69.5092 34.1286C69.8551 33.7058 70.105 33.456 70.2588 33.3791C70.451 33.187 70.5663 33.0333 70.6047 32.918C70.72 32.7257 70.797 32.6297 70.8353 32.6297C70.9507 32.5529 71.0468 32.4759 71.1237 32.3991C71.2005 32.2838 71.239 32.1878 71.239 32.1108C71.239 32.034 71.2005 31.9956 71.1237 31.9956C71.0852 31.9571 71.0083 31.9571 70.893 31.9956H70.547C70.0089 31.9956 69.6437 31.9187 69.4515 31.765L68.9325 31.592C68.8172 31.5535 68.6635 31.5152 68.4713 31.4767C68.3175 31.3999 68.2214 31.3422 68.1829 31.3037L67.9523 30.8426C67.8754 30.6504 67.8369 30.4198 67.8369 30.1508C67.8369 29.8817 67.8178 29.7087 67.7793 29.6319C67.7024 29.4782 67.664 29.3629 67.664 29.2861L67.6064 28.9401C67.5679 28.8633 67.5487 28.7095 67.5487 28.4789C67.5487 28.1331 67.6064 27.9601 67.7217 27.9601L67.9523 27.8448C68.0676 27.5373 68.2791 27.3643 68.5866 27.326C68.7018 27.249 68.798 27.2107 68.8748 27.2107C68.9902 27.1722 69.067 27.1338 69.1055 27.0953C69.144 27.0569 69.2209 27.0377 69.3362 27.0377C69.4899 26.9992 69.6629 26.9224 69.8551 26.8071C70.3548 26.7302 70.624 26.6726 70.6623 26.6341C70.7008 26.5957 70.72 26.4419 70.72 26.173L70.7777 25.5388C70.8545 25.1544 70.8545 24.9239 70.7777 24.847C70.7777 24.8086 70.72 24.7893 70.6047 24.7893C70.5278 24.8278 70.4125 24.847 70.2588 24.847C69.9512 24.847 69.6629 24.7509 69.3939 24.5588C69.24 24.4818 69.0863 24.4435 68.9325 24.4435C68.8557 24.4435 68.7018 24.4243 68.4713 24.3858C68.2406 24.309 68.1061 24.2513 68.0676 24.2129L67.8946 24.1552L67.8369 23.7517L67.7793 22.9445C67.7793 22.9445 67.7601 22.9062 67.7217 22.8293C67.7217 22.714 67.7409 22.6371 67.7793 22.5987C67.7793 22.4449 67.7409 22.3296 67.664 22.2528C67.5871 22.1374 67.5294 21.8108 67.491 21.2727C67.491 20.7347 67.5102 20.4464 67.5487 20.408L67.664 20.3503H67.8369C67.9139 20.3119 68.0099 20.2927 68.1253 20.2927L68.4136 20.1773C68.5673 20.139 68.7595 20.1005 68.9902 20.0621C69.2209 20.0237 69.4707 19.9852 69.7398 19.9468L70.3741 19.7738C70.451 19.7354 70.6047 19.7162 70.8353 19.7162C71.0275 19.7162 71.1237 19.6777 71.1237 19.6009C71.1621 19.524 71.2005 19.2934 71.239 18.9091C71.2774 18.64 71.3351 18.371 71.412 18.102C71.4889 17.8329 71.5657 17.6793 71.6426 17.6408C71.7195 17.5639 71.7964 17.5255 71.8732 17.5255C72.0654 17.5255 72.2384 17.5831 72.3922 17.6984L72.7958 17.8714C72.8343 17.9099 72.8535 17.9674 72.8535 18.0444L72.9112 18.275C72.9496 18.3134 72.9688 18.371 72.9688 18.4479C73.0072 18.4863 73.0072 18.5632 72.9688 18.6785L72.8535 18.9668C72.8535 19.0821 72.892 19.1781 72.9688 19.2549C73.0457 19.2934 73.1225 19.2549 73.1995 19.1397C73.3147 19.1397 73.4109 19.1204 73.4877 19.0821L74.0644 19.0244L74.7563 18.9091C75.0638 18.9091 75.2368 18.8899 75.2752 18.8515C75.3137 18.813 75.3522 18.6208 75.3905 18.275C75.5059 17.2757 75.602 16.6992 75.6789 16.5454C75.7557 16.4686 75.8326 16.4302 75.9095 16.4302C76.0633 16.4302 76.2939 16.507 76.6015 16.6607L77.005 16.8337C77.3126 17.0643 77.4856 17.2373 77.524 17.3525C77.6009 17.5063 77.6394 17.6601 77.6394 17.8137C77.6777 17.9674 77.7354 18.1212 77.8124 18.275C77.8124 18.3902 77.8316 18.5055 77.87 18.6208C77.9084 18.6977 77.9469 18.7553 77.9853 18.7938C77.9853 18.8323 78.0046 18.8515 78.0429 18.8515C78.1199 18.8515 78.1776 18.8706 78.2159 18.9091C78.4851 18.9475 78.8502 19.0821 79.3115 19.3126C79.7728 19.5049 80.0803 19.697 80.2341 19.8892C80.3494 19.9275 80.4263 20.0237 80.4648 20.1773C80.5416 20.2927 80.5993 20.3696 80.6378 20.408C80.6378 20.6001 80.657 20.7347 80.6953 20.8116C80.7338 21.0037 80.7338 21.1574 80.6953 21.2727V21.561C80.6953 21.7916 80.7146 21.9838 80.753 22.1374C80.7146 22.2528 80.6953 22.3681 80.6953 22.4834C80.7338 22.5987 80.753 22.6563 80.753 22.6563C80.7915 22.81 80.753 22.9445 80.6378 23.0598C80.484 23.1751 80.2149 23.252 79.8304 23.2905C79.6767 23.3289 79.5037 23.3481 79.3115 23.3481C79.2347 23.425 79.1385 23.4826 79.0232 23.5211C78.9463 23.5595 78.8887 23.5787 78.8502 23.5787C78.7733 23.5787 78.6773 23.6171 78.5619 23.694C78.4851 23.7324 78.4274 23.7517 78.3889 23.7517C78.2736 23.7901 78.1968 23.8477 78.1583 23.9246C78.1199 24.0015 78.1006 24.136 78.1006 24.3282L78.0429 24.847C78.0429 25.1161 78.1199 25.2697 78.2736 25.3082H79.0232H79.4845C79.8304 25.3082 80.2341 25.3851 80.6953 25.5388C80.8107 25.6157 80.926 25.6733 81.0413 25.7117C81.1567 25.7117 81.2335 25.731 81.272 25.7694C81.4257 25.7694 81.5411 25.827 81.6179 25.9423C81.6949 26.0576 81.7332 26.1921 81.7332 26.3459C81.6949 26.3843 81.7332 26.5189 81.8486 26.7494C81.9254 26.9032 81.9639 27.0377 81.9639 27.153C81.9254 27.2683 81.9062 27.4989 81.9062 27.8448C81.9447 27.9216 81.9254 28.0562 81.8486 28.2484C81.6564 28.4405 81.6564 28.5942 81.8486 28.7095C81.9254 28.748 81.9639 28.8248 81.9639 28.9401C81.9639 29.1323 81.7717 29.3053 81.3873 29.4589C80.9645 29.6511 80.5416 29.7857 80.1188 29.8625C79.8497 29.8625 79.6575 29.9202 79.5422 30.0355H79.2538L78.8502 30.1508L78.3889 30.266C78.2736 30.266 78.1776 30.3237 78.1006 30.439L77.8124 30.4966C77.6201 30.4966 77.5817 30.5543 77.697 30.6696L77.9853 30.8426C78.3313 30.9963 78.6965 31.2077 79.0808 31.4767C79.4652 31.7458 79.7728 32.0148 80.0034 32.2838L80.4071 32.6297C81.2912 33.2062 82.0024 33.6098 82.5405 33.8404C82.6174 33.9172 82.7328 33.9941 82.8865 34.0709C83.0403 34.2247 83.2709 34.3207 83.5784 34.3592C84.0397 34.5898 84.4049 34.782 84.674 34.9357C84.9431 35.0894 85.0968 35.2431 85.1353 35.3969L85.3082 35.6852C85.3467 35.762 85.3659 35.9157 85.3659 36.1463C85.3659 36.2616 85.3852 36.377 85.4235 36.4923C85.462 36.5691 85.5005 36.6268 85.5389 36.6652L85.7695 37.53L85.8272 38.7982C85.8657 38.875 85.8657 39.0096 85.8272 39.2018C85.7887 39.5476 85.7887 39.9127 85.8272 40.2972L86.0002 40.8736V41.1619L86.1732 41.2195L86.5768 41.1619C86.8075 41.1619 86.9805 41.1426 87.0958 41.1042C87.2495 41.0274 87.6147 40.9697 88.1913 40.9313H88.8256C89.0947 40.9313 89.3445 40.9889 89.5752 41.1042C89.6905 41.1811 89.8059 41.2195 89.9211 41.2195C90.0364 41.1811 90.2094 41.1811 90.4401 41.2195L90.9013 41.3348L91.0743 41.3924C91.1512 41.3924 91.2665 41.4885 91.4203 41.6807C91.4972 41.796 91.6125 42.0266 91.7662 42.3725C91.8432 42.6799 91.92 42.8914 91.9969 43.0067C92.1507 43.2757 92.2276 43.5063 92.2276 43.6985L92.5159 44.7938C92.5543 44.8322 92.5736 45.0628 92.5736 45.4856C92.5736 45.7162 92.5736 45.8892 92.5736 46.0044C92.612 46.1197 92.6696 46.2158 92.7465 46.2927C92.8234 46.3695 92.8618 46.4656 92.8618 46.5809C92.9003 46.6963 92.9195 46.8499 92.9195 47.0421C92.9195 47.388 92.8811 47.7147 92.8041 48.0221L92.7465 48.3681C92.7081 48.4449 92.6312 48.541 92.5159 48.6564C92.439 48.7716 92.3813 48.8677 92.3429 48.9445C92.2276 48.9445 92.1699 48.983 92.1699 49.0598L91.7662 49.5211L91.305 49.5788C91.0743 49.5788 90.8821 49.6171 90.7284 49.694L90.0941 49.8093C89.7866 49.8093 89.5944 49.8286 89.5175 49.8669C89.4022 49.9054 88.8833 49.9246 87.9607 49.9246C87.8454 49.9246 87.6916 49.9054 87.4994 49.8669C87.3457 49.8669 87.2303 49.8862 87.1534 49.9246L86.5191 49.9822L84.2127 50.0399C83.9436 50.0784 83.5784 50.0976 83.1172 50.0976C82.8096 50.0976 82.6366 50.0784 82.5981 50.0399C82.1754 50.0399 81.8294 50.0784 81.5603 50.1552C81.4065 50.1937 81.272 50.1937 81.1567 50.1552L80.753 50.0976H80.4648C80.3878 50.0591 80.3109 50.0399 80.2341 50.0399C80.1956 50.0784 80.1572 50.0976 80.1188 50.0976C79.7728 50.2129 79.4845 50.2705 79.2538 50.2705L78.1583 50.3282L76.7168 50.2705ZM53.0181 13.4901C53.095 13.4131 53.3064 13.3747 53.6524 13.3747C53.9599 13.3747 54.229 13.4131 54.4596 13.4901C55.1516 13.6054 55.9396 13.8359 56.8237 14.1818C58.2076 14.7583 59.111 15.4117 59.5338 16.1419C59.5722 16.2188 59.5914 16.3149 59.5914 16.4302C59.6299 16.5454 59.6491 16.7184 59.6491 16.949L59.7068 17.6408V17.9291L59.6491 18.3326C59.4954 18.5248 59.4761 18.7361 59.5914 18.9668C59.6299 19.0821 59.6491 19.1781 59.6491 19.2549C59.6491 19.2934 59.6299 19.3319 59.5914 19.3703C59.5531 19.4087 59.4185 19.5049 59.1879 19.6585H58.9572C58.765 19.6585 58.5151 19.6009 58.2076 19.4856L57.9769 19.4279C57.9001 19.3895 57.7848 19.3703 57.6309 19.3703C57.4772 19.3703 57.3042 19.3319 57.112 19.2549C56.9583 19.1397 56.8045 19.0821 56.6508 19.0821C56.5738 19.0821 56.4393 19.0244 56.2471 18.9091C55.9781 18.7938 55.8243 18.7361 55.7858 18.7361C55.4783 18.6977 54.9209 18.4479 54.1136 17.9867C53.9215 17.8329 53.7293 17.6601 53.5371 17.4678C53.3833 17.2373 53.2487 17.0451 53.1334 16.8914C53.0565 16.8145 53.0181 16.68 53.0181 16.4878C53.0181 15.7576 52.9797 15.2003 52.9028 14.8159C52.8644 14.4316 52.8452 14.028 52.8452 13.6054L53.0181 13.4901ZM63.3394 12.9712C63.301 12.7022 63.2817 12.3562 63.2817 11.9334C63.2817 11.5491 63.3202 11.3185 63.3971 11.2417L63.6277 9.62751L63.7431 9.10861C63.9353 8.7243 64.0314 8.43612 64.0314 8.24387L64.262 7.09095C64.3389 6.97564 64.3965 6.84114 64.435 6.68736C64.4735 6.53368 64.4735 6.39908 64.435 6.28377C64.435 6.13009 64.4735 6.01477 64.5503 5.93793C64.704 5.86109 64.781 5.70731 64.781 5.47669L64.8386 5.1885C64.8386 5.15003 64.7425 5.09238 64.5503 5.01554L64.435 4.84257L64.262 4.32377C64.2236 4.20846 64.2043 4.05467 64.2043 3.86252C64.2043 3.6319 64.1851 3.47821 64.1466 3.40137C64.1083 2.94013 64.1083 2.63266 64.1466 2.47898C64.262 2.36367 64.5503 2.22917 65.0115 2.07539C65.05 2.07539 65.1269 2.0562 65.2422 2.01773C65.396 1.94089 65.5306 1.84476 65.6459 1.72945C65.7227 1.69108 65.9341 1.67189 66.2801 1.67189L66.8567 1.55658L68.2983 1.38362C68.7211 1.30677 69.1247 1.2683 69.5092 1.2683C69.7398 1.2683 69.9128 1.28749 70.0281 1.32596C70.4894 1.32596 70.9891 1.47964 71.5272 1.78711C71.9501 2.0562 72.2 2.24835 72.2769 2.36367C72.3538 2.44051 72.3922 2.61347 72.3922 2.88247C72.4691 3.11309 72.4883 3.43974 72.4498 3.86252C72.4498 4.2853 72.4498 4.53511 72.4498 4.61195V5.07319C72.4498 5.15004 72.4306 5.28453 72.3922 5.47669C72.3922 5.63047 72.2769 5.91875 72.0462 6.34142L71.7579 7.03329C71.7579 7.22545 71.7195 7.35995 71.6426 7.43679C71.5272 7.9364 71.4696 8.30153 71.4696 8.53215C71.4696 9.03177 71.4312 9.35842 71.3543 9.5122L71.239 9.68517C71.239 9.72354 71.2197 9.76201 71.1813 9.80048C71.1813 9.83885 71.2005 9.87732 71.239 9.91579C71.2774 9.91579 71.2967 9.95416 71.2967 10.031C71.2197 10.1848 70.72 10.4538 69.7974 10.8382C69.7206 10.8382 69.6437 10.8766 69.5669 10.9534C69.4899 11.0303 69.4322 11.0687 69.3939 11.0687C68.1638 11.53 67.4142 11.6836 67.145 11.53C66.9528 11.53 66.7415 11.5683 66.5108 11.6453C66.2801 11.7221 66.1264 11.7798 66.0495 11.8181V12.1064L65.9918 12.683C66.0303 12.8751 66.0687 12.9904 66.1071 13.0288C66.1841 13.0288 66.4531 13.0096 66.9144 12.9712L68.0676 12.8558C68.7211 12.7022 69.3362 12.6253 69.9128 12.6253H70.2588C70.5278 12.6253 70.7777 12.683 71.0083 12.7982C71.0852 12.9135 71.239 13.0096 71.4696 13.0865L71.8732 13.2594C71.9501 13.4131 71.9886 13.5669 71.9886 13.7206L72.0462 14.1242C72.0846 14.3548 72.0846 14.4893 72.0462 14.5278C71.9694 14.5278 71.9694 14.9889 72.0462 15.9113V16.3149C72.0462 16.3917 71.8924 16.5454 71.5849 16.776C71.3159 17.0067 71.0083 17.1988 70.6623 17.3525C70.4701 17.5448 70.2588 17.6408 70.0281 17.6408L69.8551 17.7561C69.8167 17.7946 69.7398 17.8137 69.6244 17.8137C69.5476 17.8137 69.4899 17.8137 69.4515 17.8137C69.2209 17.8137 69.0287 17.8522 68.8748 17.9291C68.5289 18.0059 68.2983 18.0251 68.1829 17.9867H67.7793C67.2412 17.9867 66.8567 17.9482 66.6261 17.8714C66.3186 17.7946 66.0687 17.7176 65.8766 17.6408C65.7996 17.6024 65.6843 17.5448 65.5306 17.4678C65.3767 17.391 65.2615 17.3718 65.1845 17.4102C65.0308 17.3718 64.6465 17.1796 64.0314 16.8337C63.8391 16.6031 63.7046 16.3725 63.6277 16.1419C63.5893 15.8728 63.5509 15.3348 63.5124 14.5278C63.5124 13.8744 63.4547 13.3556 63.3394 12.9712ZM67.0874 7.78272C67.049 7.82109 67.049 7.85956 67.0874 7.89803C67.1258 7.89803 67.145 7.89803 67.145 7.89803C67.1835 7.89803 67.2027 7.87875 67.2027 7.84038L67.8369 7.72506L68.1829 7.60975C68.2214 7.53291 68.3559 7.49444 68.5866 7.49444C68.7788 7.4176 68.8748 7.37913 68.8748 7.37913L69.1632 6.39908C69.1632 6.09162 69.1247 5.89946 69.0479 5.82262C67.7793 5.82262 67.1258 5.86109 67.0874 5.93793L67.0297 6.16856L67.0874 7.78272ZM68.1829 42.4878C68.4905 42.5262 69.0863 42.5454 69.9704 42.5454C71.3543 42.5454 72.3153 42.5262 72.8535 42.4878C73.1225 42.4494 73.4109 42.4301 73.7184 42.4301C74.0644 42.4301 74.3911 42.4109 74.6986 42.3725L76.4285 42.1996L77.351 42.1419C77.5048 42.1419 77.7162 42.1227 77.9853 42.0843C78.2928 42.0458 78.5427 42.0073 78.7349 41.969L79.4269 41.9113C79.619 41.9113 79.7536 41.8921 79.8304 41.8537C79.9458 41.8152 80.0227 41.796 80.0611 41.796C80.0996 41.796 80.1764 41.796 80.2918 41.796C80.4455 41.7575 80.7146 41.7383 81.099 41.7383C82.1754 41.623 82.7135 41.527 82.7135 41.4501C82.7135 41.4117 82.5213 41.354 82.1369 41.2772C82.0216 41.2772 81.8486 41.2387 81.6179 41.1619L81.1567 40.9313C80.9645 40.9313 80.7915 40.8544 80.6378 40.7006C80.2533 40.3163 80.0611 40.0857 80.0611 40.0089C80.0611 39.9704 79.9458 39.8744 79.7152 39.7206C79.6767 39.6822 79.619 39.6246 79.5422 39.5476C79.5037 39.4708 79.4652 39.4131 79.4269 39.3748L79.2538 39.1441L79.1385 38.9712L78.9078 38.6829C78.7541 38.5292 78.6773 38.4524 78.6773 38.4524L78.5043 38.1641L78.0429 37.6452C77.9276 37.4147 77.7931 37.2225 77.6394 37.0687C77.6009 37.0303 77.5625 36.9919 77.524 36.9534C77.524 36.8766 77.5048 36.8189 77.4664 36.7804L77.178 36.2616L76.6591 35.6275C76.6591 35.5506 76.6015 35.4546 76.4861 35.3392C76.4093 35.1855 76.3516 35.051 76.3131 34.9357C76.0825 34.5513 75.9672 34.3592 75.9672 34.3592L75.5059 33.4368C75.5059 33.2831 75.4674 33.2062 75.3905 33.2062C75.3522 33.1678 75.3137 33.1485 75.2752 33.1485C75.2752 33.1101 75.256 33.0909 75.2175 33.0909L74.9293 33.6098L74.5833 34.1862C74.5065 34.4168 74.2758 34.8012 73.8914 35.3392C73.8145 35.4161 73.7184 35.6082 73.6031 35.9157L73.3724 36.3193L72.9688 36.8381C72.6613 37.1072 72.4691 37.3378 72.3922 37.53C72.2769 37.6452 72.0654 37.9335 71.7579 38.3947L71.2967 39.0865L71.0083 39.49L70.547 40.0089C70.3548 40.3932 70.2203 40.6238 70.1434 40.7006C70.0281 40.8928 69.8551 41.1042 69.6244 41.3348C69.3939 41.5654 69.1824 41.7575 68.9902 41.9113L68.1829 42.3148C68.0292 42.4301 68.0292 42.4878 68.1829 42.4878ZM73.3147 25.2506C73.3147 25.5196 73.334 25.7117 73.3724 25.827C73.4493 25.9423 73.5262 26 73.6031 26C73.7569 26 73.9106 25.9615 74.0644 25.8847C74.2566 25.8078 74.4103 25.7502 74.5256 25.7117C74.641 25.5965 74.7178 25.4427 74.7563 25.2506C74.7948 25.1352 74.814 25.0007 74.814 24.847C74.814 24.6933 74.7948 24.578 74.7563 24.5011C74.7178 24.4627 74.6025 24.4435 74.4103 24.4435C74.2181 24.405 73.9874 24.405 73.7184 24.4435C73.5262 24.5203 73.4109 24.578 73.3724 24.6164C73.334 24.6548 73.3147 24.8663 73.3147 25.2506ZM75.1599 9.39689C75.1599 8.93574 75.1984 8.41684 75.2752 7.84038C75.3522 7.60975 75.3905 7.35995 75.3905 7.09095V6.22621L75.5059 5.592C75.5444 5.592 75.5444 5.51516 75.5059 5.36147C75.5059 5.16922 75.5059 5.01554 75.5059 4.90023C75.5059 4.43898 75.5251 4.16999 75.5635 4.09314L75.6212 3.28606C75.6212 3.13228 75.6404 2.9786 75.6789 2.82481C75.7174 2.63266 75.7557 2.47898 75.7942 2.36367C75.8326 2.17151 75.8711 2.03692 75.9095 1.96008C75.9864 1.84476 76.0825 1.76792 76.1978 1.72945C76.4285 1.72945 76.5823 1.69108 76.6591 1.61424C76.6975 1.57577 76.7552 1.5373 76.8321 1.49893C76.9475 1.46046 77.0435 1.44127 77.1204 1.44127L77.697 1.2683L78.3889 1.21065L79.0232 1.09534L80.1188 0.92237C80.1572 0.883999 80.2918 0.864713 80.5224 0.864713L81.272 0.807058C81.7717 0.807058 82.0601 0.826342 82.1369 0.864713C82.3291 0.903183 82.752 1.13381 83.4055 1.55658C83.5207 1.78711 83.5784 2.03692 83.5784 2.30601C83.6553 2.88247 83.6745 3.34372 83.6361 3.68955L83.5784 4.43898V4.95788C83.5784 5.22688 83.5592 5.41903 83.5207 5.53434C83.4823 5.80344 83.4055 6.20693 83.2902 6.74502C83.2132 7.24463 83.1172 7.62894 83.0018 7.89803C82.925 8.09019 82.8096 8.30153 82.6558 8.53215C82.4252 8.68593 82.233 8.89727 82.0792 9.16626C81.8486 9.32004 81.6179 9.43536 81.3873 9.5122C80.6569 9.78119 80.1764 9.91579 79.9458 9.91579L79.4845 9.97335C79.2539 10.1271 78.9655 10.204 78.6196 10.204C78.5427 10.2424 78.4466 10.2616 78.3313 10.2616L78.2736 10.6076C78.3121 10.8766 78.3698 11.0303 78.4466 11.0687H79.3115L80.2918 11.0111C80.5993 10.9342 80.9837 10.8766 81.445 10.8382C81.9062 10.7997 82.3676 10.7805 82.8288 10.7805C82.9442 10.7421 83.0787 10.7229 83.2325 10.7229C83.4631 10.7229 83.6554 10.7421 83.8091 10.7805C83.9629 10.8189 84.0974 10.8574 84.2127 10.8958C84.5203 11.0495 84.7893 11.1648 85.02 11.2417L85.5389 11.357C85.9233 11.5491 86.1539 11.7221 86.2308 11.8758C86.3461 11.9911 86.4231 12.2025 86.4615 12.51C86.4615 12.7022 86.4999 12.8175 86.5768 12.8558V13.3171C86.4999 13.3939 86.4615 13.4901 86.4615 13.6054C86.4999 13.6054 86.5191 13.7014 86.5191 13.8935C86.5191 14.1626 86.4999 14.3355 86.4615 14.4124C86.4615 14.4124 86.4423 14.4701 86.4038 14.5854C86.3654 14.6623 86.3654 14.7968 86.4038 14.9889V15.4502L86.2308 15.796C86.1156 16.0651 85.9617 16.2572 85.7695 16.3725C85.6157 16.4878 85.3852 16.5647 85.0776 16.6031C84.847 16.68 84.7124 16.7184 84.674 16.7184C84.2127 16.949 83.9052 17.0835 83.7514 17.122C83.4823 17.122 83.3478 17.1412 83.3478 17.1796H83.1172C82.8865 17.2565 82.6366 17.2757 82.3676 17.2373H81.7332C81.6564 17.2757 81.4642 17.2949 81.1567 17.2949C80.7338 17.2949 80.4071 17.2757 80.1764 17.2373C79.2923 16.9682 78.658 16.7376 78.2736 16.5454C78.2351 16.507 78.1391 16.4494 77.9853 16.3725C77.87 16.2956 77.7354 16.238 77.5817 16.1996C77.005 16.0458 76.6015 15.8728 76.3708 15.6807C75.9096 15.2964 75.5827 14.6238 75.3905 13.6629L75.3329 11.53V11.0111C75.3329 10.6652 75.2945 10.4154 75.2175 10.2616L75.1599 9.39689ZM78.2736 5.41903C78.3505 5.64965 78.3889 5.88028 78.3889 6.1109C78.4274 6.22621 78.4658 6.30305 78.5043 6.34142C78.5811 6.34142 78.7157 6.34142 78.9078 6.34142C79.0617 6.30305 79.2539 6.28377 79.4845 6.28377C79.8689 6.16856 80.0803 6.07243 80.1188 5.99559C80.1956 5.95712 80.2341 5.89946 80.2341 5.82262L80.4071 5.592C80.484 5.28453 80.5224 5.11157 80.5224 5.07319C80.5224 4.91941 80.4455 4.82338 80.2918 4.78491H78.3889C78.3121 4.82338 78.2544 4.90023 78.2159 5.01554C78.2159 5.09238 78.2351 5.22688 78.2736 5.41903Z" fill="#FF5F1F"/>
<path d="M127.313 45.5432C126.621 45.5432 126.198 45.524 126.044 45.4855H125.699C125.583 45.4855 125.487 45.4662 125.411 45.4277L125.122 45.3701L124.661 45.3125L124.257 45.2549L123.565 45.0818L123.046 45.0242C122.816 45.0242 122.374 44.9666 121.72 44.8513C121.412 44.7743 121.182 44.6976 121.028 44.6208C120.912 44.5054 120.836 44.3517 120.797 44.1594L120.567 43.4677L120.452 43.0643C120.452 42.7568 120.374 42.5261 120.221 42.3723C120.144 42.2954 120.105 42.2379 120.105 42.1995C120.029 41.6998 119.894 41.2194 119.702 40.7581C119.548 40.4123 119.529 40.1433 119.644 39.9511L119.702 39.6051C119.702 39.4129 119.721 39.2785 119.759 39.2017C119.837 39.0864 119.952 38.9518 120.105 38.798C120.182 38.7212 120.221 38.6444 120.221 38.5676C120.259 38.4522 120.259 38.3177 120.221 38.164L120.163 37.7028C120.163 36.0117 120.24 34.9356 120.394 34.4744C120.432 34.3206 120.452 34.0324 120.452 33.6096C120.452 33.11 120.452 32.7641 120.452 32.572C120.49 32.3414 120.509 32.2069 120.509 32.1684C120.547 32.1684 120.567 32.0724 120.567 31.8802C120.567 30.9193 120.605 30.362 120.682 30.2083C120.72 30.1313 120.74 29.92 120.74 29.5741C120.74 29.2666 120.759 29.0745 120.797 28.9976C120.836 28.8438 120.836 28.6711 120.797 28.4788C120.797 28.2483 120.817 28.0753 120.855 27.96C120.97 27.6141 121.028 27.0952 121.028 26.4034V25.9999C121.144 25.8846 121.201 25.6156 121.201 25.1928C121.162 25.1544 121.144 25.0967 121.144 25.0199C121.182 24.9045 121.201 24.8468 121.201 24.8468L121.259 24.1551C121.259 23.7708 121.277 23.5401 121.316 23.4632V23.0598L121.374 22.4256C121.412 22.3103 121.432 22.1758 121.432 22.022C121.432 21.8684 121.451 21.7338 121.489 21.6185L121.547 20.8115V20.5231C121.547 20.3694 121.509 20.2156 121.432 20.0619C121.316 19.9466 121.259 19.7352 121.259 19.4277C121.259 19.274 121.239 19.1779 121.201 19.1396C121.124 19.0626 121.028 19.0242 120.912 19.0242C120.759 19.0242 120.547 18.9859 120.279 18.909C120.009 18.8322 119.759 18.7551 119.529 18.6783L118.375 18.2172L118.03 17.9866C117.875 17.9482 117.76 17.8712 117.684 17.7559C117.645 17.6406 117.625 17.4869 117.625 17.2948L117.51 16.4301L117.453 15.9111C117.377 15.8343 117.338 15.6229 117.338 15.2771C117.299 15.0465 117.28 14.7966 117.28 14.5276C117.357 14.4123 117.357 14.2971 117.28 14.1817V13.8934C117.434 13.6627 117.665 13.4706 117.972 13.3169C118.472 13.1248 118.817 13.0287 119.01 13.0287C119.125 13.0287 119.202 13.0094 119.24 12.971L119.702 12.8557C120.125 12.7404 120.47 12.6828 120.74 12.6828C121.009 12.6828 121.182 12.6443 121.259 12.5675C121.374 12.4522 121.432 11.9526 121.432 11.0686C121.432 10.4922 121.451 10.1654 121.489 10.0885C121.527 10.0116 121.547 9.81958 121.547 9.51212V8.99321C121.585 8.95474 121.604 8.72422 121.604 8.30144C121.604 7.87867 121.624 7.60967 121.662 7.49436C121.701 7.45599 121.72 7.39823 121.72 7.32129C121.72 7.20608 121.739 7.10996 121.777 7.03311C121.777 6.87933 121.816 6.72575 121.892 6.57197L122.066 6.28369L122.181 6.05316H122.239L122.354 6.11072C122.431 6.14909 122.546 6.14909 122.7 6.11072C122.816 6.07225 122.931 6.07225 123.046 6.11072C123.084 6.11072 123.123 6.13 123.161 6.16847C123.239 6.16847 123.315 6.14909 123.392 6.11072C123.622 6.11072 123.815 6.18766 123.969 6.34134L124.199 6.45665C124.353 6.49512 124.507 6.57197 124.661 6.68728C124.853 6.76412 125.006 6.84106 125.122 6.9179L125.237 7.14852C125.237 7.26374 125.276 7.35986 125.352 7.4367C125.391 7.47517 125.411 7.55202 125.411 7.66733C125.372 7.74417 125.352 7.80183 125.352 7.8403C125.391 7.87867 125.411 7.91704 125.411 7.95551C125.564 8.30134 125.641 8.62819 125.641 8.93566L125.699 9.51212L125.756 10.838C125.756 11.6066 125.776 11.991 125.814 11.991L125.929 12.0486L127.083 11.991C127.851 11.9142 128.486 11.8757 128.985 11.8757C129.408 11.8757 129.811 11.8565 130.196 11.8181C130.619 11.7797 130.85 11.7604 130.888 11.7604C130.965 11.7219 131.003 11.6067 131.003 11.4146L131.061 10.9533C131.138 10.7228 131.176 10.3768 131.176 9.91561C131.176 9.60814 131.215 9.41599 131.291 9.33915C131.368 9.18547 131.407 8.878 131.407 8.41675C131.407 8.18613 131.445 8.01326 131.523 7.89795C131.638 7.78264 131.695 7.66723 131.695 7.55192C131.695 7.39823 131.715 7.24455 131.753 7.09087C131.83 6.89862 131.906 6.76412 131.983 6.68728C132.022 6.57197 132.118 6.49512 132.272 6.45665C132.387 6.45665 132.483 6.41828 132.56 6.34134C132.753 6.22613 132.945 6.22613 133.137 6.34134L133.483 6.45665C133.867 6.57197 134.117 6.70646 134.232 6.86025C134.348 7.01393 134.463 7.28302 134.578 7.66733C134.693 8.01326 134.77 8.26307 134.809 8.41675L135.04 10.3192C135.04 10.6651 135.058 10.8573 135.097 10.8958V11.4146C135.097 11.722 135.117 11.8757 135.155 11.8757L135.27 11.991C136.27 12.068 136.98 12.2216 137.404 12.4523C137.442 12.4523 137.769 12.5867 138.384 12.8557L138.787 13.0287C138.903 13.144 138.999 13.3937 139.076 13.7781L139.134 14.3547C139.249 14.5469 139.268 14.7967 139.192 15.1041C139.114 15.2578 139.095 15.373 139.134 15.45C139.21 15.5268 139.249 15.6805 139.249 15.9111C139.249 16.1033 139.21 16.2379 139.134 16.3148L139.076 16.603C139.076 16.7568 139.114 16.9105 139.192 17.0642L139.249 17.3524C139.287 17.4294 139.23 17.5447 139.076 17.6984C138.922 17.9674 138.71 18.1018 138.442 18.1018C138.288 18.1018 138.172 18.1402 138.095 18.2172C138.019 18.294 137.942 18.3325 137.865 18.3325L137.635 18.39C137.635 18.467 137.538 18.5053 137.346 18.5053C137.154 18.5438 136.788 18.5631 136.25 18.5631L135.79 18.6783L135.328 18.7937C135.175 18.8322 135.078 18.8898 135.04 18.9667C135.001 19.0435 134.982 19.1971 134.982 19.4277L134.925 20.2926C134.847 21.0613 134.809 21.4648 134.809 21.5032L134.925 24.5586C134.963 24.8276 135.001 24.9815 135.04 25.0199C135.232 25.212 135.328 25.4041 135.328 25.5963C135.328 25.75 135.366 25.8846 135.443 25.9999C135.52 26.1152 135.558 26.3074 135.558 26.5764C135.558 26.8455 135.578 27.0375 135.616 27.1528C135.693 27.4218 135.712 27.5756 135.674 27.614L135.732 28.0752L135.79 28.4212L135.674 28.6517C135.558 28.8055 135.443 28.9016 135.328 28.9401C135.251 28.9785 135.193 29.0169 135.155 29.0554C135.117 29.0937 135.097 29.1514 135.097 29.2283C135.058 29.3052 135.04 29.9392 135.04 31.1307V33.0332C135.001 33.1101 134.982 33.4367 134.982 34.0132L134.867 36.0886C134.828 36.2039 134.809 36.3576 134.809 36.5497C134.809 36.7419 134.79 36.934 134.751 37.1262C134.751 37.7796 134.732 38.1255 134.693 38.164L134.578 39.5475C134.578 39.8166 134.598 39.9703 134.636 40.0088C134.636 40.1625 134.655 40.2777 134.693 40.3546C134.693 40.5083 134.713 40.6045 134.751 40.6429L134.925 41.3346V42.4877L135.04 42.776L135.155 43.237C135.155 43.4293 135.058 43.6792 134.867 43.9866C134.751 44.1788 134.655 44.3324 134.578 44.4477C134.501 44.5245 134.348 44.5823 134.117 44.6208L133.656 44.736C133.617 44.7743 133.521 44.7936 133.368 44.7936C133.213 44.7936 133.098 44.8321 133.021 44.909H132.618L132.214 44.9667C132.176 45.0051 132.099 45.0242 131.983 45.0242C131.906 45.0242 131.83 45.0434 131.753 45.0818C131.523 45.0818 131.368 45.1011 131.291 45.1395C131.176 45.1779 131.08 45.1779 131.003 45.1395C130.926 45.1011 130.83 45.0818 130.715 45.0818C130.676 45.0818 130.369 45.1396 129.793 45.2549L128.639 45.4277C128.524 45.4662 128.409 45.4855 128.293 45.4855C128.216 45.447 128.139 45.447 128.063 45.4855C127.986 45.524 127.736 45.5432 127.313 45.5432ZM98.5983 17.5829C98.5589 17.3523 98.5983 17.2178 98.7134 17.1795C98.7902 17.1795 98.8473 17.1218 98.8866 17.0065C98.925 16.8912 99.0018 16.8144 99.1169 16.776L99.4052 16.6605C99.5204 16.6605 99.5971 16.6415 99.6355 16.603C99.789 16.5262 100.097 16.4685 100.559 16.4301L101.019 16.3148L102.404 16.1418C102.711 16.065 102.999 16.0265 103.269 16.0265L104.076 15.9111C104.652 15.8343 104.941 15.7766 104.941 15.7382C104.979 15.7382 104.998 15.3155 104.998 14.47L105.056 13.0864V13.0287C105.056 12.9519 104.864 12.9134 104.479 12.9134H103.845L103.384 12.7981L103.096 12.7405L102.922 12.6828L102.692 12.5675C102.654 12.529 102.596 12.5099 102.519 12.5099C102.481 12.5099 102.404 12.4906 102.289 12.4523C102.211 12.4138 102.134 12.3561 102.057 12.2793L101.769 12.164C101.731 12.164 101.539 12.1063 101.192 11.991L100.847 11.8757C100.809 11.8757 100.597 11.7797 100.212 11.5875C99.9819 11.4337 99.8668 11.2415 99.8668 11.0109C99.9052 10.934 99.9052 10.8573 99.8668 10.7804C99.8668 10.7035 99.8668 10.6266 99.8668 10.5497C99.8668 10.2038 99.8471 9.95398 99.8087 9.8003C99.8087 9.45436 99.789 9.26231 99.7507 9.22384C99.6739 8.91637 99.6355 8.47441 99.6355 7.89795C99.6355 7.62886 99.6168 7.45599 99.5784 7.37905L99.4623 7.14852C99.4623 6.99474 99.7703 6.82168 100.385 6.62952L101.424 6.3989L102.057 6.16847C102.289 6.16847 102.481 6.13 102.634 6.05316L104.364 5.76488C104.671 5.76488 104.864 5.72641 104.941 5.64957L105.344 5.59192C105.536 5.59192 105.748 5.55345 105.979 5.47651C106.671 5.32282 107.497 5.24608 108.458 5.24608C108.804 5.20761 109.169 5.18833 109.553 5.18833C109.861 5.18833 110.226 5.24598 110.649 5.36139C111.072 5.4766 111.321 5.57273 111.398 5.64957C111.86 5.88019 112.206 6.03378 112.436 6.11072C112.705 6.22603 112.86 6.37981 112.898 6.57197C112.936 6.68728 112.936 6.82177 112.898 6.97556C112.86 7.09087 112.878 7.24455 112.955 7.4367C113.033 7.66733 113.051 7.8402 113.013 7.95551L112.955 8.58972C112.955 8.78188 112.917 8.99331 112.84 9.22384C112.802 9.30078 112.783 9.3968 112.783 9.51212C112.821 9.58896 112.84 9.68499 112.84 9.8003V10.2038L112.725 10.3768L112.667 10.5497L112.495 10.7227C112.225 10.9917 112.033 11.1262 111.918 11.1262C111.725 11.1262 111.533 11.1838 111.341 11.2992C111.303 11.4145 111.226 11.4721 111.11 11.4721L110.764 11.5875L110.073 11.7604C110.073 11.7988 109.918 11.8564 109.611 11.9333C109.342 12.0102 109.169 12.0871 109.093 12.164C109.015 12.164 108.938 12.1831 108.861 12.2215C108.785 12.26 108.708 12.2985 108.631 12.337C108.516 12.337 108.439 12.356 108.4 12.3945C108.361 12.4329 108.343 12.4715 108.343 12.5099C108.343 12.6252 108.361 12.7213 108.4 12.7981L108.516 13.0864C108.516 13.2402 108.535 13.3746 108.573 13.4899C108.65 13.6436 108.708 14.1626 108.746 15.0465C108.746 15.2386 108.766 15.373 108.804 15.45C108.843 15.5268 108.881 15.5653 108.919 15.5653C108.919 15.5653 109.15 15.6038 109.611 15.6806C110.418 15.6806 111.053 15.7383 111.514 15.8536L111.803 16.0265L112.321 16.1995C112.628 16.3148 112.84 16.4108 112.955 16.4877C113.11 16.5262 113.225 16.603 113.301 16.7183C113.378 17.0258 113.417 17.1987 113.417 17.2372C113.417 17.4294 113.455 17.583 113.532 17.6984C113.608 17.8521 113.648 18.0058 113.648 18.1596C113.608 18.3901 113.59 18.563 113.59 18.6783C113.628 18.7936 113.648 18.8898 113.648 18.9667C113.686 19.1588 113.686 19.3124 113.648 19.4277C113.532 19.6584 113.532 19.9083 113.648 20.1773C113.763 20.4464 113.743 20.6769 113.59 20.869C113.475 20.9843 113.417 21.0613 113.417 21.0997C113.378 21.0997 113.301 21.1572 113.186 21.2725C113.071 21.3878 113.013 21.4455 113.013 21.4455L112.725 21.5609C112.686 21.5994 112.628 21.6185 112.552 21.6185C112.513 21.6185 112.475 21.6377 112.436 21.6762C112.321 21.6762 112.245 21.6954 112.206 21.7339C112.129 21.7722 112.013 21.7914 111.86 21.7914L111.571 21.8492L110.822 22.1374L110.245 22.1949C109.938 22.1949 109.746 22.2143 109.669 22.2527L109.323 22.3103C109.208 22.3103 109.054 22.368 108.861 22.4833L108.573 22.5986V22.8291C108.573 22.9828 108.554 23.0789 108.516 23.1173L108.458 24.1551L108.4 25.1928L108.343 25.5963C108.343 25.8268 108.361 25.9614 108.4 25.9999C108.439 26.0384 108.535 26.0575 108.688 26.0575H108.919C109.534 26.0575 109.918 26.096 110.073 26.1729L110.476 26.2304C110.553 26.2304 110.783 26.3074 111.168 26.4612L111.687 26.634L112.09 26.7493C112.398 26.9415 112.628 27.1913 112.783 27.4989C112.936 27.8062 113.09 28.4019 113.243 29.2859C113.243 29.478 113.282 29.6126 113.36 29.6895C113.36 29.9201 113.378 30.0738 113.417 30.1507L113.475 30.6694C113.513 30.9001 113.532 31.8417 113.532 33.4944V36.2616C113.532 37.0686 113.57 37.5491 113.648 37.7028C113.725 37.8565 113.763 37.991 113.763 38.1063C113.763 38.2985 113.782 38.4138 113.82 38.4523C113.82 38.4907 113.82 38.5675 113.82 38.6827C113.858 38.798 113.878 39.0287 113.878 39.3747C113.878 39.8743 113.897 40.1624 113.935 40.2393C114.051 40.393 114.051 40.6237 113.935 40.9312L113.82 41.2195L113.763 41.3346C113.686 41.4499 113.59 41.5652 113.475 41.6805C113.36 41.7958 113.263 41.8919 113.186 41.9688C112.917 42.0456 112.744 42.1995 112.667 42.43C112.628 42.5838 112.475 42.7759 112.206 43.0065C111.937 43.237 111.706 43.3717 111.514 43.4101L111.11 43.4677L110.476 43.5253C110.399 43.5253 110.284 43.5445 110.13 43.583C110.015 43.583 109.938 43.5638 109.899 43.5253C109.669 43.5253 109.496 43.5445 109.381 43.583L109.034 43.6407C108.996 43.6792 108.938 43.6984 108.861 43.6984C108.823 43.6984 108.785 43.7176 108.746 43.756L108.285 43.8712C107.939 43.8712 107.42 44.025 106.728 44.3325C106.574 44.4478 106.19 44.5246 105.574 44.5631C105.459 44.6016 105.344 44.6208 105.229 44.6208C105.114 44.6208 105.017 44.6399 104.941 44.6784H104.652C104.344 44.6784 104.134 44.736 104.018 44.8513L103.729 45.2549C103.499 45.6008 103.346 45.7737 103.269 45.7737C103.192 45.7737 103.057 45.6777 102.864 45.4855C102.557 45.178 102.327 45.0242 102.172 45.0242L102.057 45.0818C101.904 45.2356 101.75 45.2548 101.596 45.1395C101.519 45.1011 101.404 45.1011 101.25 45.1395C100.981 45.2932 100.809 45.2932 100.732 45.1395C100.654 45.0626 100.577 44.7937 100.501 44.3325L100.443 43.9289C100.404 43.852 100.385 43.7752 100.385 43.6984C100.385 43.5831 100.366 43.487 100.327 43.4101C100.327 43.2179 100.289 43.0449 100.212 42.8912C100.174 42.8143 100.117 42.6221 100.039 42.3146C99.9622 42.0072 99.9239 41.8536 99.9239 41.8536L99.8668 41.3922C99.8668 41.0079 99.7703 40.7966 99.5784 40.7581C99.5017 40.6813 99.4623 40.6044 99.4623 40.5275V40.2971C99.4623 39.9127 99.482 39.6437 99.5204 39.4899C99.5588 39.3362 99.5588 39.2208 99.5204 39.144C99.4436 38.8365 99.4623 38.606 99.5784 38.4523L99.6936 38.0486V37.7603C99.732 37.7603 99.7507 37.6836 99.7507 37.5299C99.789 37.3761 99.8087 37.2415 99.8087 37.1262C99.8087 36.7034 99.8284 36.4729 99.8668 36.4345C99.8668 36.2807 99.8855 36.1654 99.9239 36.0886C99.9239 35.858 99.9435 35.7235 99.9819 35.6851L100.039 35.1662L100.27 33.8403L100.327 33.4366L100.385 32.9755C100.424 32.937 100.443 32.8794 100.443 32.8026C100.443 32.6873 100.462 32.5911 100.501 32.5142C100.539 32.4374 100.559 32.3606 100.559 32.2837C100.559 32.2069 100.577 32.1492 100.616 32.1107L100.789 30.9002L100.904 30.3236C100.942 30.2852 101 29.9586 101.077 29.3436C101.154 28.8823 101.231 28.5556 101.307 28.3635C101.307 28.1712 101.366 27.9408 101.481 27.6717C101.596 27.1721 101.712 26.9031 101.827 26.8646L102.115 26.634L102.404 26.4612C102.672 26.4612 102.846 26.4802 102.922 26.5187L103.614 26.8069L103.729 26.8646C103.768 26.98 103.941 26.9991 104.249 26.9223L104.652 26.8069L105.114 26.6916L105.286 26.5764V25.6541C105.286 25.116 105.248 24.7316 105.171 24.5011C105.094 24.1936 105.056 23.9437 105.056 23.7515L104.998 23.2327L104.594 23.1751C104.172 23.1751 103.787 23.1367 103.441 23.0598H103.153L102.749 23.002L102.289 22.8868L101.481 22.6563C101.25 22.541 100.942 22.4447 100.559 22.3679C99.9435 22.291 99.5401 22.1565 99.3472 21.9645C99.2704 21.8875 99.1937 21.7915 99.1169 21.6762C99.0785 21.5224 99.0785 21.4264 99.1169 21.3879L99.0018 20.7538L98.9437 20.2348C98.9437 19.889 98.9053 19.6393 98.8286 19.4855L98.7134 18.9667L98.6554 18.6208C98.617 18.5439 98.617 18.3325 98.6554 17.9866C98.6554 17.7945 98.6367 17.6599 98.5983 17.5829ZM104.594 36.4345C104.594 36.4729 104.633 36.4922 104.709 36.4922C104.941 36.4922 105.306 36.4152 105.806 36.2616L106.439 36.1462L107.363 35.9733C107.554 35.9349 107.766 35.9155 107.996 35.9155C108.073 35.9155 108.151 35.8964 108.228 35.858C108.343 35.8196 108.419 35.781 108.458 35.7427C108.458 35.6273 108.477 35.5312 108.516 35.4544C108.516 35.2237 108.535 35.0509 108.573 34.9356L108.631 34.186C108.746 33.1483 108.823 32.5911 108.861 32.5142C108.938 32.1299 108.938 31.8994 108.861 31.8226L108.631 31.7072C108.477 31.6688 108.304 31.6496 108.112 31.6496C107.92 31.6496 107.766 31.6688 107.651 31.7072C107.343 31.8609 107.093 31.8994 106.901 31.8226H106.555L105.402 31.9378L104.941 32.0531C104.826 32.0531 104.729 32.0915 104.652 32.1684C104.614 32.2069 104.594 32.9179 104.594 34.3015V36.4345ZM125.814 21.5032C125.852 21.6954 125.871 21.9259 125.871 22.1949C125.871 22.464 125.891 22.733 125.929 23.002C125.929 23.9629 125.968 24.5201 126.044 24.6739L126.276 24.7316L126.909 24.6164C127.601 24.5011 128.389 24.4049 129.273 24.3281C129.735 24.3281 130.004 24.2895 130.081 24.2127L130.196 24.1551V23.5787C130.196 23.1559 130.215 22.906 130.254 22.8291C130.293 22.7907 130.311 22.7331 130.311 22.6563C130.311 22.5794 130.293 22.4832 130.254 22.3679C130.254 22.2526 130.235 22.1565 130.196 22.0796C130.196 22.0028 130.215 21.926 130.254 21.8492C130.293 21.7722 130.311 21.4648 130.311 20.9268C130.35 20.6577 130.369 20.3119 130.369 19.8891C130.408 19.8121 130.408 19.7353 130.369 19.6585C130.369 19.5816 130.369 19.5431 130.369 19.5431C130.331 19.5048 130.254 19.5048 130.138 19.5431C130.023 19.5431 129.908 19.5622 129.793 19.6007C129.716 19.6392 129.581 19.6585 129.389 19.6585C129.196 19.6585 129.062 19.6776 128.985 19.7161C128.87 19.7546 128.678 19.7737 128.409 19.7737C128.178 19.7352 127.966 19.7546 127.774 19.8314C127.544 19.8698 127.294 19.8698 127.024 19.8314C126.871 19.793 126.641 19.793 126.333 19.8314C126.256 19.8698 126.159 19.8891 126.044 19.8891C125.968 19.8891 125.891 19.9082 125.814 19.9466C125.776 20.0619 125.756 20.2926 125.756 20.6385C125.756 20.946 125.776 21.2342 125.814 21.5032ZM126.159 36.665C126.159 37.0877 126.179 37.3184 126.218 37.3569C126.256 37.3953 126.871 37.3953 128.063 37.3569C128.563 37.3569 128.831 37.3376 128.87 37.2992C128.946 37.2223 128.985 37.0495 128.985 36.7804C129.062 36.1654 129.139 35.8003 129.216 35.6851L129.273 35.2238C129.311 34.8011 129.37 34.3976 129.446 34.0132L129.561 33.3791L129.619 32.6872C129.773 31.9954 129.85 31.5919 129.85 31.4766C129.85 31.246 129.888 31.0922 129.966 31.0154C130.043 30.6694 130.061 30.4774 130.023 30.4389C129.101 30.4389 128.563 30.4581 128.409 30.4965C128.37 30.5349 128.293 30.5349 128.178 30.4965C128.024 30.4965 127.889 30.4774 127.774 30.4389L127.371 30.3812L126.736 30.3236C126.391 30.3236 126.198 30.3428 126.159 30.3812C126.121 30.4196 126.121 31.4957 126.159 33.6096C126.159 34.801 126.141 35.4545 126.102 35.5698V35.9155L126.159 36.665ZM176.814 47.0997C176.621 46.946 176.449 46.946 176.294 47.0997L175.949 47.042C175.872 47.0036 175.757 46.9843 175.603 46.9843C175.487 46.9843 175.411 46.9651 175.372 46.9266L174.969 46.8689C174.661 46.7921 174.489 46.7153 174.449 46.6384C174.219 46.5231 174.027 46.4656 173.874 46.4656C173.834 46.4271 173.796 46.4271 173.757 46.4656C173.719 46.4656 173.681 46.4464 173.642 46.4079L173.239 46.2925C173.009 46.254 172.816 46.1966 172.662 46.1196L172.374 46.0042C172.182 45.812 172.067 45.6585 172.028 45.5432L171.912 45.3701C171.797 45.2164 171.72 44.9474 171.682 44.5631C171.644 44.1788 171.605 43.5445 171.567 42.6606C171.529 41.815 171.509 40.6814 171.509 39.2594C171.509 37.722 171.529 36.9341 171.567 36.8957L171.624 36.2038C171.624 36.0116 171.644 35.8964 171.682 35.858C171.72 35.7811 171.759 35.5121 171.797 35.0509L171.855 34.7049C171.894 34.628 171.912 34.5321 171.912 34.4168C171.912 34.2631 171.932 34.1285 171.97 34.0132C172.047 33.552 172.085 33.2253 172.085 33.0332C172.124 32.9563 172.144 32.8794 172.144 32.8026C172.144 32.7257 172.162 32.6681 172.201 32.6296C172.239 32.5528 172.259 32.4566 172.259 32.3413V32.0531L172.432 31.4766L172.547 30.9002C172.547 30.5542 172.566 30.3044 172.604 30.1507L172.662 29.8625L172.777 28.9401V28.6517C172.854 28.6517 172.892 28.5749 172.892 28.4212C172.854 28.2675 172.854 27.9792 172.892 27.5564V27.2106C172.892 26.9031 172.97 26.5956 173.124 26.2882L173.297 25.9999C173.335 25.9231 173.431 25.8654 173.585 25.8269C173.624 25.8269 173.681 25.8269 173.757 25.8269C173.874 25.7886 173.969 25.7886 174.046 25.8269C174.123 25.8654 174.239 25.8845 174.392 25.8845C174.892 25.8845 175.276 25.7885 175.546 25.5963L175.719 25.481L175.776 23.9244C175.814 23.0405 175.834 21.8491 175.834 20.3501C175.834 19.274 175.853 18.7361 175.891 18.7361C175.891 18.6976 175.911 18.6016 175.949 18.4478C175.987 18.2556 175.987 18.0249 175.949 17.7559L175.891 17.3524C175.929 17.314 175.949 16.8528 175.949 15.9689C176.026 15.6229 176.084 15.4308 176.122 15.3924C176.161 15.3539 176.161 15.2578 176.122 15.1041C176.084 14.9888 176.045 14.7775 176.006 14.47C175.968 14.1241 175.968 13.8743 176.006 13.7205C176.045 13.6437 176.064 13.3362 176.064 12.7981V12.5675L176.122 11.9333C176.122 11.8949 176.103 11.7411 176.064 11.4721C176.064 11.1647 176.084 10.8188 176.122 10.4345L176.237 8.30144C176.314 8.30144 176.314 8.14776 176.237 7.8403C176.276 7.68651 176.294 7.47517 176.294 7.20618C176.334 7.12924 176.352 7.0524 176.352 6.97556C176.352 6.86024 176.372 6.76412 176.411 6.68728V6.3989C176.411 6.24522 176.468 6.05316 176.583 5.82254L176.756 5.47651C176.756 5.28435 176.794 5.14995 176.871 5.07311C177.026 4.99627 177.198 4.99627 177.391 5.07311C177.391 5.11148 177.409 5.13077 177.448 5.13077C177.486 5.13077 177.525 5.14986 177.564 5.18833C177.717 5.18833 177.833 5.30374 177.909 5.53426C178.024 5.64957 178.101 5.70713 178.14 5.70713C178.217 5.78397 178.256 5.86101 178.256 5.93785C178.256 6.09153 178.332 6.16847 178.486 6.16847C178.486 6.20685 178.506 6.22613 178.544 6.22613C178.621 6.22613 178.678 6.2645 178.716 6.34134C178.871 6.49512 178.966 6.70646 179.005 6.97556C179.081 7.20618 179.121 7.51364 179.121 7.89795C179.197 8.24379 179.236 8.41675 179.236 8.41675L179.293 8.82035V9.45436C179.293 9.76183 179.313 10.0502 179.351 10.3192C179.428 10.5498 179.466 10.742 179.466 10.8958C179.466 11.1263 179.504 11.2416 179.581 11.2416C179.581 11.2416 179.581 11.2993 179.581 11.4146C179.62 11.5299 179.639 11.8181 179.639 12.2793C179.678 12.6636 179.716 12.9327 179.754 13.0864C179.831 13.2402 179.928 13.3362 180.043 13.3747H180.216C180.523 13.3747 180.966 13.317 181.542 13.2017C181.619 13.1632 181.696 13.1632 181.773 13.2017C181.85 13.2017 181.926 13.1824 182.003 13.1439L182.407 13.0287L182.926 12.971L184.656 12.6828C184.771 12.6443 184.886 12.6252 185.002 12.6252C185.155 12.6252 185.29 12.6443 185.405 12.6828C185.482 12.7212 185.655 12.7405 185.925 12.7405C186.308 12.7789 186.655 12.8942 186.962 13.0864L187.423 13.4323L187.827 13.7781L188 13.8934V14.1241C188 14.2778 187.98 14.3738 187.942 14.4123C187.904 14.5276 187.904 14.6621 187.942 14.8158V15.1041C187.942 15.7191 187.904 16.1033 187.827 16.2571C187.827 16.2954 187.808 16.3339 187.77 16.3724C187.77 16.3724 187.788 16.3917 187.827 16.4301L187.77 16.6605L187.654 16.8335C187.654 16.9488 187.731 17.0834 187.885 17.2372C187.962 17.314 187.962 17.4293 187.885 17.5829L187.827 17.6984L187.481 17.7559L187.077 17.8713L186.732 17.9866C186.578 18.1403 186.462 18.2172 186.385 18.2172L185.751 18.39C185.751 18.467 185.617 18.5053 185.348 18.5053L184.886 18.6208C184.425 18.7745 184.098 18.8513 183.906 18.8513L183.56 18.909C183.253 19.1012 182.926 19.1972 182.58 19.1972C182.503 19.1972 182.388 19.2356 182.234 19.3124C182.157 19.3509 182.08 19.3894 182.003 19.4277C181.926 19.4277 181.869 19.4471 181.83 19.4855H181.6L181.196 19.5431C181.081 19.5431 180.946 19.5816 180.793 19.6585L180.561 19.7161C180.523 19.7161 180.466 19.7546 180.389 19.8314C180.311 19.9851 180.273 20.2733 180.273 20.6961C180.273 21.5031 180.293 22.0797 180.331 22.4256C180.331 23.5017 180.311 24.1936 180.273 24.5011L180.216 24.9045L180.273 25.0199L181.542 24.9621H182.291C182.753 24.9621 183.022 24.9815 183.099 25.0199C183.291 25.0967 183.464 25.1544 183.618 25.1928C183.81 25.1928 183.945 25.212 184.021 25.2505C184.252 25.2889 184.502 25.385 184.771 25.5388L185.405 25.8845C185.828 26.0766 186.193 26.365 186.501 26.7493C186.808 26.98 187.039 27.5372 187.193 28.4212C187.193 28.6134 187.212 28.7863 187.25 28.9401C187.289 29.0554 187.327 29.1321 187.365 29.1706L187.481 30.093L187.597 30.6694L187.712 31.9378C187.712 32.2068 187.731 32.3606 187.77 32.399L187.885 34.8203C187.923 35.6657 187.942 36.4537 187.942 37.1839C187.942 37.9142 187.923 38.433 187.885 38.7405C187.923 38.7021 187.885 38.875 187.77 39.2594C187.77 39.8358 187.75 40.2201 187.712 40.4124L187.539 41.3922C187.539 41.6229 187.52 41.7959 187.481 41.9112C187.443 42.1419 187.405 42.3532 187.365 42.5454C187.327 42.6991 187.289 42.8143 187.25 42.8912L187.135 43.2947C187.097 43.5638 186.866 44.0058 186.443 44.6208C186.405 44.7361 186.27 44.8897 186.04 45.0818C185.847 45.2741 185.675 45.4087 185.52 45.4855C185.367 45.5623 185.252 45.6008 185.175 45.6008C185.06 45.7161 184.944 45.7737 184.828 45.7737C184.675 45.6967 184.54 45.7161 184.425 45.8314L183.963 45.9467L183.733 46.0042C183.695 46.0042 183.618 46.0235 183.503 46.0619C183.426 46.1003 183.33 46.1196 183.214 46.1196C182.983 46.1196 182.83 46.1389 182.753 46.1773C182.599 46.2157 182.484 46.2157 182.407 46.1773H182.118C182.08 46.2157 182.023 46.2349 181.946 46.2349C181.908 46.2349 181.869 46.254 181.83 46.2925L181.658 46.3501C181.619 46.3886 181.503 46.4079 181.311 46.4079L180.561 46.4656L180.331 46.5232L179.639 46.6961L178.832 46.9266C178.755 46.9651 178.601 46.9843 178.371 46.9843C178.063 46.9843 177.774 46.9843 177.506 46.9843C177.236 46.9843 177.083 47.0036 177.044 47.042L176.871 47.2149L176.814 47.0997ZM145.273 47.9644C145.273 47.8491 145.293 47.7145 145.331 47.5608C145.37 47.4455 145.37 47.3494 145.331 47.2725C145.215 45.889 145.196 45.1012 145.273 44.909L145.388 44.5053L145.735 43.583C145.773 43.5061 145.792 43.4294 145.792 43.3524C145.792 43.2756 145.812 43.2178 145.85 43.1794L145.965 42.7183L146.311 41.9112C146.311 41.7959 146.33 41.719 146.369 41.6805C146.369 41.6037 146.388 41.5461 146.427 41.5076C146.465 41.4308 146.484 41.373 146.484 41.3346L146.657 41.1041C146.772 40.9119 146.83 40.7774 146.83 40.7006C146.83 40.5469 146.85 40.4698 146.888 40.4698L146.945 40.1241L147.522 38.6827L147.695 38.2216C147.81 38.1062 147.868 37.9909 147.868 37.8756L147.925 37.7028C147.925 37.5875 147.983 37.4722 148.099 37.3569L148.329 37.1262C148.329 37.0877 148.329 37.0686 148.329 37.0686C148.368 37.0302 148.407 37.0302 148.445 37.0686C148.56 37.0686 148.657 37.0877 148.733 37.1262C148.887 37.1647 149.022 37.2416 149.137 37.3569C149.29 37.4338 149.463 37.5682 149.655 37.7603C149.77 37.8756 149.847 37.991 149.887 38.1063C149.963 38.2217 150.02 38.4137 150.059 38.6827C150.097 39.144 150.097 39.7205 150.059 40.4124C150.02 41.1041 149.944 41.7191 149.829 42.2572C149.559 43.7944 149.387 44.6976 149.31 44.9667C149.232 45.1972 149.155 45.4855 149.079 45.8314C149.002 46.1389 148.905 46.427 148.79 46.6961L148.617 47.042C148.502 47.3879 148.368 47.6761 148.214 47.9066L147.868 48.7714C147.445 49.3863 147.176 49.7131 147.06 49.7514C147.06 49.7899 147.022 49.8092 146.945 49.8092C146.83 49.6939 146.772 49.5593 146.772 49.4056C146.695 49.3287 146.638 49.2904 146.6 49.2904L146.427 49.1173C146.388 49.1173 146.35 49.0981 146.311 49.0597C146.311 49.0597 146.292 49.0789 146.253 49.1173H145.677C145.562 49.0405 145.485 48.9829 145.446 48.9445L145.331 48.7714L145.273 48.1373V47.9644ZM150.405 17.4676C150.405 16.5837 150.424 16.1034 150.462 16.0265V15.9111C150.462 15.6037 150.482 15.3538 150.52 15.1617V14.0663L150.578 13.2017L150.751 11.3569C150.789 11.2801 150.789 11.1839 150.751 11.0686C150.751 10.9533 150.77 10.838 150.809 10.7227C150.809 10.4152 150.828 10.2423 150.867 10.2038C150.867 9.74264 150.924 9.24312 151.039 8.70503C151.077 8.51288 151.097 8.24379 151.097 7.89795L151.155 7.32129L151.27 6.80249L151.327 6.22613C151.559 5.07311 151.692 4.47737 151.732 4.4389C151.847 4.32369 151.962 4.3044 152.077 4.38134L152.596 4.55411C152.634 4.55411 152.712 4.49655 152.827 4.38134C152.904 4.3044 152.981 4.26593 153.057 4.26593C153.172 4.22746 153.327 4.20837 153.519 4.20837C153.749 4.20837 153.904 4.1699 153.98 4.09306L154.787 3.97775L155.479 3.92009C155.518 3.88162 155.576 3.88162 155.652 3.92009C155.729 3.92009 155.767 3.92009 155.767 3.92009C155.806 3.95856 155.844 3.97775 155.883 3.97775C155.959 3.93928 156.017 3.92009 156.056 3.92009C156.171 3.84325 156.324 3.80478 156.517 3.80478H157.843L158.478 3.74713L159.169 3.80478C159.361 3.80478 159.593 3.76641 159.861 3.68947L160.611 3.63172L161.245 3.5166H161.361L161.995 3.57416L162.687 3.63172L163.033 3.68947C163.686 3.76641 164.359 3.97775 165.051 4.32369C165.973 5.0923 166.55 5.68794 166.78 6.11072C166.896 6.30287 166.992 6.51431 167.069 6.74493C167.185 6.93709 167.242 7.09077 167.242 7.20618V7.49436C167.395 7.91714 167.473 8.30134 167.473 8.64728V11.5299L167.3 12.337C167.223 12.5291 167.223 12.702 167.3 12.8557L167.185 13.2594L167.127 13.6052C167.012 14.2201 166.915 14.6236 166.838 14.8158L166.78 15.0465C166.78 15.2386 166.704 15.4116 166.55 15.5653L166.377 16.3724C166.3 16.7567 166.031 17.3524 165.57 18.1596C165.455 18.3133 165.32 18.4671 165.166 18.6208C165.051 18.7361 164.935 18.8322 164.82 18.909L164.59 19.0242C164.513 19.0626 164.417 19.0626 164.301 19.0242C164.11 18.9473 163.975 18.8321 163.898 18.6783C163.898 18.563 163.86 18.467 163.783 18.39C163.628 18.2363 163.494 18.1596 163.378 18.1596L162.975 18.2172L162.053 18.3325C162.014 18.3709 161.938 18.39 161.822 18.39C161.668 18.39 161.573 18.4094 161.533 18.4478L161.073 18.5053C160.688 18.5438 160.419 18.6207 160.265 18.7361C160.226 18.7745 160.208 19.1203 160.208 19.7737C160.208 19.9274 160.208 20.1581 160.208 20.4655C160.246 20.773 160.246 20.9652 160.208 21.042C160.208 21.4264 160.246 21.6185 160.323 21.6185L160.784 21.6762C161.13 21.6762 161.341 21.6954 161.418 21.7339C161.803 21.7339 162.188 21.926 162.571 22.3103L163.09 22.7138C163.245 22.7907 163.321 22.8676 163.321 22.9444C163.36 22.9829 163.34 23.079 163.263 23.2327L163.148 23.4632L163.263 23.6362C163.34 23.7899 163.378 23.9053 163.378 23.9821C163.418 24.0975 163.398 24.2128 163.321 24.3281C163.245 24.4049 163.206 24.5011 163.206 24.6164C163.206 24.77 163.186 24.8853 163.148 24.9621L163.09 25.1351C163.129 25.1735 163.11 25.2312 163.033 25.308C162.995 25.3464 162.936 25.3658 162.86 25.3658C162.783 25.4042 162.745 25.481 162.745 25.5963C162.783 25.7115 162.841 25.7886 162.918 25.8269C162.956 25.8654 162.975 25.9421 162.975 26.0575C162.975 26.2112 162.918 26.2882 162.803 26.2882C162.725 26.2882 162.687 26.3074 162.687 26.3458C162.38 26.4995 162.053 26.5571 161.706 26.5187C161.63 26.5571 161.533 26.5764 161.418 26.5764C161.341 26.5764 161.265 26.5956 161.188 26.634L160.784 26.6916C160.63 26.73 160.476 26.7493 160.323 26.7493C160.169 26.7493 160.054 26.7685 159.976 26.8069C159.9 26.8838 159.861 27.1912 159.861 27.7293V28.3059C159.784 28.3828 159.746 28.6133 159.746 28.9976C159.708 29.036 159.708 29.0936 159.746 29.1706C159.823 29.2474 160.015 29.2474 160.323 29.1706L161.303 29.0554C161.611 29.1707 161.976 29.2283 162.398 29.2283C162.86 29.2283 163.11 29.2474 163.148 29.2859C163.686 29.4011 164.051 29.5165 164.243 29.6318C164.359 29.6703 164.455 29.728 164.532 29.8048C164.648 29.8433 164.725 29.8815 164.763 29.92C165.147 30.0737 165.34 30.2658 165.34 30.4965C165.493 30.6118 165.532 30.7657 165.455 30.9578C165.455 30.9578 165.473 31.073 165.512 31.3035C165.55 31.4573 165.57 31.5919 165.57 31.7072C165.57 31.7841 165.512 31.8608 165.397 31.9378C165.358 32.0146 165.358 32.1877 165.397 32.4567L165.34 32.9179L165.282 33.552C165.32 33.7057 165.32 33.8786 165.282 34.0707C165.013 34.3398 164.782 34.4935 164.59 34.532C164.551 34.5704 164.493 34.5897 164.417 34.5897C164.378 34.5897 164.359 34.6089 164.359 34.6474C164.051 34.8011 163.763 34.8972 163.494 34.9356C163.418 34.974 163.321 34.9931 163.206 34.9931C163.129 34.9931 163.052 35.0125 162.975 35.0509H162.745C162.706 35.0894 162.648 35.1278 162.571 35.1662C162.533 35.1662 162.495 35.1854 162.456 35.2238L162.283 35.2814C162.168 35.2814 162.071 35.3007 161.995 35.3392L161.649 35.3968C161.573 35.4737 161.438 35.5121 161.245 35.5121C161.091 35.589 160.938 35.6273 160.784 35.6273C160.476 35.6273 160.226 35.6657 160.034 35.7427C159.881 35.8195 159.535 35.8771 158.996 35.9155H158.536C158.458 35.954 158.381 35.954 158.304 35.9155H158.131C158.093 35.954 157.997 35.9733 157.843 35.9733C157.651 35.9733 157.516 36.0117 157.439 36.0886L156.979 36.1462C156.709 36.1462 156.556 36.1653 156.517 36.2038C156.171 36.3576 155.864 36.4151 155.594 36.3768C155.518 36.3383 155.402 36.3192 155.249 36.3192C155.094 36.3577 154.902 36.3768 154.672 36.3768C154.479 36.3383 154.23 36.3192 153.922 36.3192L153.057 36.2616H152.942C152.789 36.2616 152.519 36.1654 152.135 35.9733C152.019 35.858 151.924 35.8003 151.847 35.8003L151.385 35.6851C151.155 35.6082 151.001 35.5312 150.924 35.4544C150.847 35.3775 150.809 35.243 150.809 35.0509C150.885 34.974 150.924 34.8395 150.924 34.6474C150.847 34.4552 150.847 34.3206 150.924 34.2438V33.7826C150.809 33.4366 150.751 32.9371 150.751 32.2837C150.751 31.8994 150.789 31.6687 150.867 31.5918C150.905 31.5534 150.962 31.4957 151.039 31.4189C151.155 31.342 151.251 31.2653 151.327 31.1884L151.616 30.9578C151.77 30.804 151.942 30.7079 152.135 30.6694L152.596 30.5542C152.634 30.5158 152.674 30.4965 152.712 30.4965C152.789 30.4965 152.846 30.4774 152.884 30.4389L153 30.3812L153.231 30.3236C153.384 30.3236 153.48 30.3044 153.519 30.2659L154.729 29.9778C154.807 29.9393 154.884 29.92 154.961 29.92C155.037 29.92 155.094 29.9009 155.134 29.8625C155.172 29.8625 155.21 29.8625 155.249 29.8625C155.326 29.824 155.383 29.824 155.422 29.8625L155.709 29.8048C155.787 29.8048 155.864 29.7855 155.941 29.747C156.056 29.7086 156.114 29.6703 156.114 29.6318C156.152 29.4012 156.191 29.0554 156.229 28.5941C156.267 28.133 156.267 27.7679 156.229 27.4989L156.171 27.3258C156.094 27.3642 155.998 27.3835 155.883 27.3835C155.806 27.3835 155.729 27.4026 155.652 27.4411C155.383 27.4026 155.21 27.3642 155.134 27.3258C155.056 27.2873 154.961 27.2873 154.845 27.3258C154.807 27.3642 154.749 27.3642 154.672 27.3258H153.98C153.749 27.2873 153.557 27.1337 153.404 26.8646C153.327 26.711 153.172 26.6148 152.942 26.5764L152.481 26.5187C152.25 26.4034 152.135 26.3266 152.135 26.2882V25.8845C152.174 25.8077 152.174 25.7309 152.135 25.6541C152.135 25.5771 152.135 25.5003 152.135 25.4234C152.135 25.3465 152.154 25.2697 152.192 25.1928C152.231 25.116 152.25 25.0583 152.25 25.0199C152.289 24.943 152.307 24.8662 152.307 24.7892C152.307 24.674 152.327 24.5779 152.366 24.5011L152.307 23.8668C152.347 23.79 152.366 23.6363 152.366 23.4057L152.481 22.8868C152.519 22.7716 152.539 22.637 152.539 22.4833V22.3103C152.615 22.2335 152.731 22.1565 152.884 22.0796C153.077 21.9644 153.269 21.8876 153.461 21.8492C153.846 21.7722 154.537 21.7339 155.537 21.7339C155.883 21.7339 156.248 21.6953 156.632 21.6185C156.709 21.58 156.767 21.3686 156.806 20.9843V20.4079C156.806 19.9467 156.824 19.6393 156.863 19.4855C156.863 19.2933 156.824 19.1588 156.748 19.082H156.517C156.017 19.082 155.691 19.1011 155.537 19.1396L154.499 19.2549H154.096C153.826 19.2549 153.672 19.3318 153.634 19.4855C153.634 19.6008 153.615 19.6776 153.577 19.7161C153.577 19.7546 153.519 19.8121 153.404 19.8891L153.172 20.0619C153.096 20.1772 152.962 20.2926 152.769 20.4079C152.692 20.4079 152.615 20.3118 152.539 20.1197L152.25 19.7161C152.174 19.6393 152.116 19.543 152.077 19.4277C152.077 19.274 152.058 19.1779 152.019 19.1396C151.981 18.9473 151.885 18.9282 151.732 19.082L151.616 19.1972C151.577 19.1972 151.52 19.1779 151.443 19.1396C151.366 19.1011 151.309 19.0626 151.27 19.0242C151.27 18.9858 151.155 18.9667 150.924 18.9667C150.732 18.9667 150.597 18.9474 150.52 18.909L150.405 18.7937V17.4676ZM152.596 47.042C152.596 46.9267 152.577 46.1004 152.539 44.5631C152.539 43.0258 152.557 42.1226 152.596 41.8536V41.6805C152.596 41.4115 152.634 41.1618 152.712 40.9312C152.75 40.8543 152.769 40.739 152.769 40.5852L152.827 40.1241L152.884 39.8358L153 39.5475C153.039 39.5092 153.057 39.4322 153.057 39.3169L153.289 38.2793C153.404 38.2025 153.461 38.1448 153.461 38.1063L153.749 37.7603C154.019 37.4913 154.172 37.3569 154.211 37.3569C154.249 37.3184 154.307 37.2992 154.384 37.2992C154.461 37.2992 154.519 37.2801 154.557 37.2416C154.749 37.3184 154.979 37.4529 155.249 37.6451L155.479 37.8181C155.594 37.8565 155.709 37.9142 155.826 37.991C155.979 38.0679 156.094 38.1255 156.171 38.164C156.324 38.4715 156.421 38.7789 156.459 39.0864C156.498 39.2401 156.517 39.759 156.517 40.6429C156.517 41.3347 156.479 41.8728 156.402 42.2572C156.364 42.603 156.324 42.8335 156.286 42.9488C156.209 43.0642 156.209 43.2179 156.286 43.4101L156.171 43.8712L156.056 44.3901C155.902 44.8514 155.767 45.3124 155.652 45.7737L155.479 46.4079C155.479 46.5617 155.441 46.7153 155.364 46.8689C155.21 47.1765 155.134 47.3878 155.134 47.5032C154.941 48.0412 154.749 48.3103 154.557 48.3103C154.479 48.3103 154.384 48.2912 154.269 48.2527C154.192 48.2142 154.134 48.1757 154.096 48.1373L154.037 47.9066L153.864 47.6185C153.788 47.5415 153.749 47.5032 153.749 47.5032L153.634 47.5608C153.596 47.5608 153.538 47.58 153.461 47.6185C153.422 47.6568 153.365 47.6377 153.289 47.5608L153.172 47.5032L153.115 47.5608C153.077 47.5992 153.039 47.5992 153 47.5608C152.962 47.5608 152.922 47.5608 152.884 47.5608C152.731 47.4839 152.634 47.3111 152.596 47.042ZM154.037 10.5497C154.153 11.2415 154.23 11.991 154.269 12.7981L154.326 13.9511L154.384 14.47C154.384 14.6622 154.422 14.7967 154.499 14.8735C154.576 14.9504 154.672 14.9504 154.787 14.8735C154.826 14.8351 154.941 14.8158 155.134 14.8158C155.249 14.8158 155.326 14.7967 155.364 14.7582C155.402 14.7198 155.441 14.7004 155.479 14.7004H155.594L155.537 14.3547C155.46 14.0856 155.402 13.5859 155.364 12.8557C155.364 12.087 155.383 11.376 155.422 10.7227C155.499 10.2614 155.594 10.0309 155.709 10.0309C155.826 10.0309 155.998 10.1461 156.229 10.3768C156.498 10.7227 156.632 10.9533 156.632 11.0686L156.748 11.3569L156.806 11.8757C156.844 11.9527 156.844 12.0487 156.806 12.164C156.806 12.2408 156.824 12.3177 156.863 12.3945L156.979 12.8557L157.036 13.2594C157.074 13.3362 157.094 13.4323 157.094 13.5476C157.094 13.7398 157.132 13.8358 157.209 13.8358C157.286 13.8358 157.344 13.6821 157.382 13.3747V12.9134C157.382 12.6444 157.401 12.433 157.439 12.2793L157.555 11.7028L157.613 11.2416V10.4922C157.613 10.3769 157.632 10.2807 157.671 10.2038C157.709 9.97317 157.728 9.74274 157.728 9.51212C157.766 9.24312 157.766 9.05097 157.728 8.93566H156.979H155.998C155.767 8.93566 155.556 8.93566 155.364 8.93566C155.21 8.89719 155.076 8.89719 154.961 8.93566L154.672 8.99321C154.326 9.07005 154.114 9.16608 154.037 9.28139C153.999 9.31986 153.98 9.37752 153.98 9.45436C154.019 9.5312 154.037 9.64652 154.037 9.8003V10.5497ZM158.996 41.6805C158.996 41.1424 159.016 40.7197 159.054 40.4124V39.7204C159.131 39.0286 159.266 38.529 159.458 38.2216C159.535 38.0678 159.727 37.8757 160.034 37.6451C160.034 37.6067 160.131 37.5874 160.323 37.5874C160.476 37.6258 160.611 37.6835 160.726 37.7603L161.015 37.991C161.206 38.1448 161.303 38.2985 161.303 38.4523C161.456 38.6444 161.591 39.0671 161.706 39.7204V41.2195C161.706 42.1034 161.688 42.699 161.649 43.0065C161.649 43.2755 161.649 43.4485 161.649 43.5253L161.476 44.5053L161.361 45.1972L161.188 45.9467C161.111 46.2926 160.976 46.5039 160.784 46.5808C160.708 46.5808 160.611 46.5039 160.496 46.3501L160.265 46.0042H160.034C159.804 46.0042 159.669 45.9851 159.631 45.9467C159.516 45.9083 159.419 45.8505 159.343 45.7737C159.266 45.6584 159.228 45.5431 159.228 45.4277C159.189 45.2741 159.169 45.0626 159.169 44.7936C159.169 44.4862 159.151 44.1979 159.112 43.9289C159.073 43.6214 159.054 43.314 159.054 43.0065C159.054 42.6606 159.035 42.3724 158.996 42.1419V41.6805ZM159.919 9.51212C159.919 10.5114 159.938 11.0303 159.976 11.0686C160.015 11.1071 160.034 11.1262 160.034 11.1262L160.208 10.7804L160.381 10.4345L160.553 10.1462L160.669 9.91561C160.746 9.76183 160.803 9.60814 160.841 9.45436C160.918 9.26221 160.958 9.12781 160.958 9.05097C160.918 9.05097 160.88 9.05097 160.841 9.05097C160.841 9.0125 160.823 8.99321 160.784 8.99321H160.265C160.034 8.99321 159.919 9.0125 159.919 9.05097V9.51212ZM161.533 8.99321C161.495 9.03158 161.515 9.10853 161.591 9.22384C161.783 9.33915 161.918 9.43527 161.995 9.51212C162.071 9.58896 162.13 9.68499 162.168 9.8003L162.341 10.0885C162.341 10.1269 162.36 10.1847 162.398 10.2615C162.437 10.3 162.456 10.3577 162.456 10.4345C162.533 10.5498 162.571 10.7035 162.571 10.8958C162.571 11.4722 162.475 12.0487 162.283 12.6252V12.9134C162.283 13.0287 162.226 13.2402 162.11 13.5476C162.071 13.7398 162.091 13.9127 162.168 14.0663C162.206 14.1048 162.38 14.1241 162.687 14.1241C162.763 14.0472 162.841 13.9511 162.918 13.8358C163.033 13.6821 163.11 13.5283 163.148 13.3747C163.148 13.1825 163.168 13.0478 163.206 12.971L163.321 12.1063L163.378 11.2992V10.4345C163.378 10.127 163.36 9.91561 163.321 9.8003C163.283 9.68499 163.168 9.5313 162.975 9.33915C162.821 9.147 162.61 9.05097 162.341 9.05097C161.841 8.97403 161.573 8.95474 161.533 8.99321ZM163.378 37.8181C163.34 37.7412 163.321 37.6258 163.321 37.4721C163.36 37.28 163.378 37.1455 163.378 37.0686L163.494 37.011C163.533 36.9726 163.628 36.9532 163.783 36.9532C164.051 36.9532 164.282 36.9726 164.475 37.011C164.82 37.1263 165.166 37.28 165.512 37.4721C165.897 37.6258 166.165 37.7797 166.32 37.9334L166.493 38.1063C166.608 38.1832 166.762 38.3369 166.954 38.5676C167.185 38.7596 167.357 38.9326 167.473 39.0864L167.934 39.8358L168.05 40.1818C168.127 40.2586 168.165 40.3738 168.165 40.5275L168.28 40.9888L168.453 41.4499V41.7959L168.51 42.3723C168.549 42.5644 168.568 42.7952 168.568 43.0643C168.607 43.1411 168.607 43.2178 168.568 43.2947C168.568 43.3331 168.568 43.3717 168.568 43.4101C168.568 43.487 168.625 43.7944 168.742 44.3325C168.78 44.6016 168.76 44.7743 168.684 44.8513C168.684 44.8897 168.665 44.9282 168.625 44.9667C168.587 44.9667 168.568 45.005 168.568 45.0818C168.492 45.3124 168.415 45.4663 168.338 45.5432C168.26 45.5816 168.127 45.5047 167.934 45.3125C167.588 45.0435 167.395 44.909 167.357 44.909C167.319 44.9474 167.28 44.9474 167.242 44.909C167.242 44.8706 167.223 44.832 167.185 44.7936C167.108 44.6783 167.03 44.6208 166.954 44.6208C166.877 44.6208 166.8 44.6783 166.723 44.7936C166.646 44.8705 166.57 44.909 166.493 44.909C166.454 44.909 166.397 44.8897 166.32 44.8513L166.147 44.736L165.973 44.8513C165.82 44.9666 165.666 45.0242 165.512 45.0242C165.397 44.9858 165.34 44.9089 165.34 44.7936C165.263 44.6783 165.147 44.39 164.993 43.9289L164.935 43.583L164.59 42.43L164.475 41.9688C164.359 41.6613 164.32 41.4884 164.359 41.4499L164.301 41.1617L164.243 40.8735C164.167 40.6814 164.033 40.2778 163.84 39.6629C163.725 39.3554 163.628 38.9903 163.552 38.5676C163.436 38.5291 163.418 38.433 163.494 38.2793C163.456 38.2408 163.436 38.1639 163.436 38.0486C163.436 37.9333 163.418 37.8565 163.378 37.8181ZM176.237 37.7028C176.237 38.2793 176.256 38.5676 176.294 38.5676C176.294 38.606 176.66 38.606 177.391 38.5676C177.659 38.5676 177.833 38.5676 177.909 38.5676C178.024 38.5291 178.101 38.5098 178.14 38.5098C178.217 38.4714 178.313 38.4523 178.428 38.4523C178.582 38.4138 178.813 38.3562 179.121 38.2793L181.542 38.2216C181.888 38.2216 182.118 38.1832 182.234 38.1063C182.349 38.0295 182.484 37.8757 182.638 37.6451C182.676 37.5299 182.695 37.4338 182.695 37.3569C182.733 37.2416 182.772 37.1647 182.811 37.1262L182.926 36.7804C183.003 36.5882 183.041 36.3769 183.041 36.1462C183.08 35.9926 183.099 35.8195 183.099 35.6273C183.138 35.5889 183.156 35.3583 183.156 34.9356C183.195 34.7819 183.195 34.6281 183.156 34.4744C183.156 34.3206 183.176 34.186 183.214 34.0707V33.1483C183.176 32.9562 183.156 32.8025 183.156 32.6872C183.195 32.5719 183.195 32.4566 183.156 32.3413L183.041 31.9955H182.234C181.619 31.9955 181.293 31.9761 181.254 31.9378C181.1 31.9378 181.023 31.957 181.023 31.9955H180.389L179.812 32.1107C179.504 32.1107 179.331 32.13 179.293 32.1684L178.544 32.2837C178.313 32.2453 178.121 32.2453 177.967 32.2837C177.851 32.2837 177.794 32.2837 177.794 32.2837C177.717 32.3606 177.544 32.399 177.276 32.399C176.968 32.4375 176.602 32.5334 176.179 32.6872V33.4366L176.237 37.7028Z" fill="#4A443D"/>
</svg>
