<svg width="32" height="32" viewBox="0 0 32 32" fill="none" xmlns="http://www.w3.org/2000/svg">
<path d="M30.125 25.24V19.105C30.125 18.43 29.845 17.785 29.355 17.33L26.695 14.84V9.33001C26.695 9.15001 26.6 8.98501 26.445 8.89501C22.435 6.60001 16.59 8.25501 15.085 8.74001C14.07 7.39501 9.735 2.13501 5.56 4.53501C5.405 4.62501 5.31 4.79001 5.31 4.96501V8.11501C4.605 8.30001 3.945 8.56001 3.355 8.89501C3.2 8.98501 3.105 9.15001 3.105 9.33001V16.9L2.645 17.33C2.155 17.785 1.875 18.43 1.875 19.105V25.24C1.385 25.295 1 25.705 1 26.21V27.105C1 27.65 1.44 28.09 1.98 28.09H6.505C7.045 28.09 7.485 27.65 7.485 27.105V26.21C7.485 25.67 7.045 25.23 6.505 25.23H6.31V24.245C6.31 24.175 6.315 24.1 6.32 24.03C9.94 23.36 14.01 24.675 14.68 24.905C14.68 24.905 14.685 24.905 14.69 24.91C14.7 24.915 14.71 24.915 14.725 24.92C14.78 24.94 14.84 24.955 14.9 24.955C14.955 24.955 15.015 24.945 15.07 24.925C15.135 24.905 21.54 22.61 25.69 24.755V25.23H25.495C24.955 25.23 24.515 25.67 24.515 26.21V27.105C24.515 27.65 24.955 28.09 25.495 28.09H30.02C30.56 28.09 31 27.65 31 27.105V26.21C31 25.705 30.615 25.295 30.125 25.24ZM5.995 22.005C5.715 22.415 5.52 22.875 5.405 23.365C5.34 23.65 5.31 23.95 5.31 24.245V25.23H2.875V19.105C2.875 18.71 3.04 18.33 3.33 18.06L3.955 17.47H3.96L5.31 16.205V18.115L4.135 19.285C3.94 19.48 3.94 19.795 4.135 19.99C4.235 20.09 4.365 20.135 4.49 20.135C4.62 20.135 4.745 20.09 4.845 19.99L6.155 18.68L6.165 18.67L7.375 17.46C7.605 17.24 7.96 17.2 8.23 17.36C8.28 17.39 8.325 17.425 8.37 17.47C8.45 17.555 8.51 17.645 8.545 17.775C8.555 17.805 8.56 17.84 8.565 17.89C8.57 17.915 8.57 17.945 8.57 17.97C8.57 18.115 8.53 18.25 8.45 18.365L7.64 19.565C7.635 19.575 7.625 19.585 7.62 19.6L5.995 22.005ZM14.4 23.01C13.295 21.715 11.33 19.77 9.095 19.2L9.285 18.92C9.47 18.635 9.57 18.31 9.57 17.97C9.57 17.9 9.565 17.825 9.56 17.78C9.55 17.67 9.525 17.56 9.5 17.485C9.425 17.215 9.285 16.97 9.075 16.765C8.975 16.665 8.87 16.58 8.75 16.505C8.09 16.11 7.24 16.205 6.66 16.765L6.31 17.115V5.27001C9.9 3.54001 13.795 8.65501 14.4 9.49001V23.01ZM15.4 23.765V9.69001C16.765 9.26001 22.09 7.77501 25.695 9.63001V15.025C25.695 15.035 25.69 15.04 25.69 15.05V17.115L25.315 16.735C24.775 16.22 23.96 16.12 23.305 16.48H16.645C16.37 16.48 16.145 16.7 16.145 16.98C16.145 17.255 16.37 17.48 16.645 17.48H22.505C22.47 17.575 22.45 17.68 22.445 17.755C22.435 17.825 22.43 17.9 22.43 17.97C22.43 18.31 22.53 18.635 22.72 18.925L23.51 20.095C23.515 20.105 23.52 20.115 23.53 20.125L25.175 22.56C25.385 22.875 25.535 23.22 25.62 23.585C25.62 23.595 25.62 23.605 25.625 23.62C21.93 22.045 17.15 23.23 15.4 23.765ZM24.38 19.6C24.375 19.585 24.365 19.575 24.36 19.565L23.55 18.37C23.47 18.25 23.43 18.115 23.43 17.97C23.43 17.945 23.43 17.915 23.435 17.87C23.44 17.84 23.445 17.805 23.465 17.745C23.49 17.645 23.55 17.555 23.63 17.47C23.675 17.425 23.72 17.39 23.765 17.365C24.04 17.2 24.39 17.24 24.635 17.47L27.155 19.99C27.255 20.09 27.38 20.135 27.51 20.135C27.635 20.135 27.765 20.09 27.865 19.99C28.06 19.795 28.06 19.48 27.865 19.285L26.695 18.115V16.21L28.67 18.06C28.96 18.33 29.125 18.71 29.125 19.105V25.23H26.69V24.245C26.69 23.95 26.66 23.65 26.595 23.36C26.48 22.875 26.285 22.415 26.005 22.005L24.38 19.6Z" fill="#4A443D"/>
<path d="M16.6438 13.3145H24.0413C24.3173 13.3145 24.5413 13.0905 24.5413 12.8145C24.5413 12.5385 24.3173 12.3145 24.0413 12.3145H16.6438C16.3678 12.3145 16.1438 12.5385 16.1438 12.8145C16.1438 13.0905 16.3678 13.3145 16.6438 13.3145Z" fill="#4A443D"/>
<path d="M16.6438 15.3965H24.0413C24.3173 15.3965 24.5413 15.1725 24.5413 14.8965C24.5413 14.6205 24.3173 14.3965 24.0413 14.3965H16.6438C16.3678 14.3965 16.1438 14.6205 16.1438 14.8965C16.1438 15.1725 16.3678 15.3965 16.6438 15.3965Z" fill="#4A443D"/>
<path d="M7.13985 8.55903C7.00085 8.79753 7.08185 9.10353 7.32035 9.24253L12.8404 12.455C12.9194 12.501 13.0059 12.523 13.0914 12.523C13.2634 12.523 13.4314 12.434 13.5239 12.2745C13.6629 12.036 13.5819 11.73 13.3434 11.591L7.82335 8.37853C7.58485 8.23953 7.27885 8.32053 7.13985 8.55903Z" fill="#4A443D"/>
<path d="M13.3434 13.9888L7.82335 10.7763C7.58485 10.6368 7.27885 10.7178 7.13985 10.9568C7.00085 11.1953 7.08185 11.5013 7.32035 11.6403L12.8404 14.8528C12.9194 14.8988 13.0059 14.9208 13.0914 14.9208C13.2634 14.9208 13.4314 14.8318 13.5239 14.6723C13.6629 14.4338 13.5819 14.1278 13.3434 13.9888Z" fill="#4A443D"/>
<path d="M13.3434 16.387L7.82335 13.1745C7.58485 13.0355 7.27885 13.116 7.13985 13.355C7.00085 13.5935 7.08185 13.8995 7.32035 14.0385L12.8404 17.251C12.9194 17.297 13.0059 17.319 13.0914 17.319C13.2634 17.319 13.4314 17.23 13.5239 17.0705C13.6629 16.832 13.5819 16.526 13.3434 16.387Z" fill="#4A443D"/>
</svg>
