<svg width="160" height="161" viewBox="0 0 160 161" fill="none" xmlns="http://www.w3.org/2000/svg">
<path d="M118.304 54.4898C118.304 60.0964 116.928 65.3436 114.029 70.2314C50.8613 82.6943 72.6629 78.3916 67.9429 79.3234C50.3941 66.005 53.1333 38.2744 73.8853 28.1298C95.0789 18.1028 118.007 32.671 118.304 54.4898Z" fill="#FF8C5E"/>
<path d="M91.7797 69.5527C100.317 65.3851 103.91 55.2728 99.8046 46.9663C95.699 38.6598 85.4495 35.3046 76.9119 39.4722C68.3742 43.6399 64.7813 53.7522 68.887 62.0587C72.9926 70.3652 83.242 73.7204 91.7797 69.5527Z" fill="#FFD9C2"/>
<path d="M65.1091 79.0616L59.3395 80.2001C56.0275 80.8743 54.1107 84.3152 55.3075 87.4476L67.8994 120.333C68.869 122.839 71.4771 124.236 74.0403 123.72L122.651 114.224C125.195 113.721 127.007 111.572 127.058 108.993L127.272 95.4202C127.288 94.2817 125.682 94.4948 125.669 95.3948L125.455 108.967C125.419 110.79 124.139 112.306 122.341 112.663L73.7298 122.159C71.8962 122.521 70.0787 121.517 69.4035 119.764L56.8115 86.8816C55.9635 84.6746 57.3171 82.2386 59.6595 81.7647L121.439 69.5912C123.861 69.111 126.072 70.9809 126.037 73.3851L125.867 84.2834C125.851 85.3456 127.455 85.3646 127.471 84.3088L127.64 73.4106C127.688 69.941 124.491 67.362 121.128 68.0298L110.559 70.1128C110.693 69.8997 110.747 69.8361 110.869 69.6389V69.6421C118.722 57.1951 116.597 41.8319 107.25 32.0753C104.879 29.5344 100.968 26.7899 98.4403 25.6673C97.4739 25.2317 96.8179 26.6945 97.7843 27.1207C99.2691 27.7821 102.056 29.474 104.376 31.5538C108.495 34.9438 110.955 40.1051 111.093 40.3182C116.127 50.5423 114.514 62.2292 108.312 70.558L86.2482 74.9052C89.5826 72.8127 92.9874 70.5802 96.2578 68.1602C100.495 65.0564 109.928 57.1188 111.554 52.1355C112.859 47.8901 110.066 44.7831 105.848 45.1615C99.0802 45.7149 88.2707 56.3174 83.2819 61.0717C82.6323 61.5678 75.5698 68.1443 72.3538 69.0474C68.3282 70.1636 65.8579 66.0549 70.9651 60.9763C79.2083 52.4408 90.1523 48.7169 98.5875 39.1066C99.7395 37.7836 100.351 36.6292 100.498 35.4812C101.115 33.6622 99.2947 30.9177 95.5603 30.6538C91.1315 30.3358 86.9747 32.9753 83.5123 35.7134C83.2979 35.8883 81.7587 37.0713 81.6339 37.2843C73.6531 44.2107 66.4787 54.1454 56.2611 58.0092C56.0403 58.0855 55.6019 58.2414 55.9027 58.1364C54.8819 58.464 55.4035 59.9873 56.3955 59.6502C56.6259 59.5357 61.2882 58.27 67.9731 52.5776C75.7267 46.1155 86.5394 31.5569 95.445 32.2407C97.141 32.3615 99.1251 33.3855 98.9683 34.9947C98.7795 35.4685 99.1987 36.3875 96.0243 39.5295C95.9603 39.5931 95.8707 39.6631 95.8291 39.7458C87.9987 47.7438 77.5635 51.8366 69.8163 59.86C69.3715 60.3021 68.7923 60.9031 68.2834 61.6059C64.3122 66.5637 67.3811 72.0972 72.7827 70.5771C75.9763 69.6803 81.5378 64.7415 84.1746 62.3723L84.1715 62.3692C87.3843 59.8759 93.0355 52.991 101.813 48.1699C108.29 44.8085 111.154 47.9696 110.021 51.6585C108.725 55.6273 100.939 62.5091 97.6563 65.1104C92.5395 69.0856 87.2498 72.4502 81.797 75.7829L67.3426 78.6323C55.8802 71.4452 50.7283 57.4209 55.4003 44.2965C60.7155 29.3499 76.5619 21.6318 90.3699 24.602C91.4003 24.8246 91.749 23.2695 90.709 23.0469C76.0658 19.8986 59.4611 28.0938 53.8899 43.7654C49.1731 56.9948 53.9283 71.194 65.1091 79.0616Z" fill="#4A443D"/>
<path d="M138.92 122.497L67.5633 133.71L40.9809 69.2775C40.9777 69.2679 40.9713 69.2647 40.9681 69.2552C41.0929 66.5966 39.0929 63.4705 36.2513 64.2974L22.2449 67.4934C17.9569 68.9308 20.9329 77.708 25.2241 76.2705L38.6641 72.4703C39.3105 72.2827 39.7937 71.9297 40.1617 71.494C68.2513 139.027 66.0401 135.558 67.1889 135.386L86.9873 132.276C83.8641 133.602 81.6689 136.648 81.6689 140.21C81.6689 144.99 85.6241 148.876 90.4753 148.876C95.3489 148.876 99.3041 144.99 99.3041 140.21C99.3041 135.647 95.6881 131.958 91.1217 131.627L121.109 126.914C118.28 128.358 116.322 131.233 116.322 134.581C116.322 139.361 120.277 143.228 125.128 143.228C130.002 143.228 133.957 139.361 133.957 134.581C133.957 130.285 130.754 126.736 126.568 126.058L139.176 124.078C140.226 123.906 139.954 122.316 138.92 122.497ZM93.8705 140.207C93.8705 142.054 92.3537 143.543 90.4721 143.543C88.6129 143.543 87.0961 142.054 87.0961 140.207C87.0961 138.378 88.6129 136.894 90.4721 136.894C92.3537 136.89 93.8705 138.378 93.8705 140.207ZM128.498 134.575C128.498 136.404 127 137.889 125.122 137.889C123.262 137.889 121.746 136.401 121.746 134.575C121.746 132.728 123.262 131.239 125.122 131.239C127.003 131.242 128.498 132.728 128.498 134.575Z" fill="#4A443D"/>
<path d="M33.0603 53.5612C35.1499 53.5612 37.3003 52.8584 39.0219 51.4496C41.2075 49.6528 40.8555 49.1949 40.6027 47.0133C40.3979 44.9335 40.0779 42.5071 38.3179 41.0474C35.3099 38.551 30.8779 41.2923 32.7243 46.1451C26.5387 44.5614 25.4091 53.5612 33.0603 53.5612ZM31.5947 47.5603C33.1883 47.6621 34.1771 48.7815 34.8459 48.0278C35.5595 47.2296 34.1803 46.46 33.9147 44.4215C33.5819 41.9442 35.7995 41.0315 37.2875 42.2717C38.9771 43.6678 38.8939 46.8225 39.1371 48.2281C39.2555 48.8864 39.4635 49.0168 37.9755 50.2443C36.2827 51.6277 34.0011 52.1906 31.9563 51.8916C28.4075 51.3828 28.5451 47.3758 31.5947 47.5603Z" fill="#FF5F1F"/>
<path d="M121.342 25.7732C122.811 27.4141 122.904 27.6812 123.477 28.066C125.678 29.548 133.352 28.1932 137.294 22.2909C142.257 14.8621 132.133 8.11387 128.126 17.1328C124.619 9.33186 117.064 11.6534 116.875 17.2981C116.76 20.6563 119.208 23.4739 121.342 25.7732ZM125.227 15.425C126.248 16.6017 126.821 18.1027 127.377 19.5497C127.64 20.2334 128.613 20.2334 128.875 19.5528C129.31 18.4143 129.841 16.9642 130.587 16.0165C133.829 11.9046 139.345 16.3345 135.957 21.4068C132.437 26.689 125.928 27.4427 124.523 26.8258C124.309 26.7081 124.165 26.6286 124.379 26.7463C123.973 26.476 123.544 25.805 123.118 25.3407C121.109 23.1686 118.373 20.4337 118.475 17.349C118.59 13.9431 122.424 12.1972 125.227 15.425Z" fill="#FF5F1F"/>
<path d="M52.4435 131.799C52.7059 131.799 52.4179 131.841 59.3587 129.326C60.3571 128.963 59.7971 127.471 58.8083 127.831L52.1683 130.257C51.3299 130.559 51.5539 131.799 52.4435 131.799Z" fill="#4A443D"/>
<path d="M51.9163 125.059L41.8875 128.427C40.8827 128.764 41.3979 130.279 42.3995 129.938L52.4283 126.57C53.4395 126.23 52.9147 124.719 51.9163 125.059Z" fill="#4A443D"/>
<path d="M61.6686 133.412L45.4734 138.932C44.4782 139.272 44.9806 140.774 45.995 140.44L62.1902 134.916C63.1886 134.576 62.6798 133.068 61.6686 133.412Z" fill="#4A443D"/>
<path d="M115.267 90.6767C116.297 90.4445 115.951 88.8926 114.911 89.1216L102.575 91.8947L99.6026 84.9207C99.1898 83.9571 97.7114 84.5677 98.1242 85.544L100.985 92.254L82.169 96.4836L79.2698 88.8449C78.8954 87.8559 77.3978 88.4252 77.7722 89.4046L80.5914 96.8366L73.6986 98.3853C72.6778 98.6143 73.001 100.156 74.0538 99.9408L81.1642 98.3408L85.1674 108.896L83.3178 109.471C82.4442 109.745 82.6458 111.029 83.5578 111.029C83.7818 111.029 83.801 110.979 85.737 110.39L86.6554 112.813C87.0298 113.802 88.5274 113.234 88.153 112.254L87.2666 109.913L106.028 104.084L106.892 106.11C107.305 107.076 108.783 106.463 108.371 105.486L107.571 103.607L111.935 102.252C112.921 101.944 112.511 100.443 111.455 100.729L106.94 102.131L103.212 93.3862L115.267 90.6767ZM105.401 102.612L86.7002 108.422L82.7418 97.9878L101.622 93.7423L105.401 102.612Z" fill="#FF5F1F"/>
<path d="M67.1024 45.8869C67.9088 46.0808 69.7072 45.6833 69.592 48.1225C69.5344 49.3278 69.032 50.5648 68.0688 51.3598C65.6144 53.3888 62.936 51.1086 62.3536 48.6917C62.1104 47.6804 62.4016 46.8282 63.1408 46.0459C64.6064 44.4971 65.4992 45.4989 67.1024 45.8869Z" fill="#FF5F1F"/>
<path d="M102.504 36.58C103.16 38.2845 100.795 41.1275 97.9472 40.6632C96.264 40.3898 94.12 38.3577 95.0288 36.5482C96.3664 33.8896 101.778 34.6941 102.504 36.58Z" fill="#FF5F1F"/>
<path d="M71.0319 74.1076C71.0223 75.4783 69.7295 77.5613 68.1391 77.3227C66.9615 77.1478 65.2591 75.844 64.8047 74.7755C64.3279 73.6624 64.5967 71.6558 65.5567 70.7908C67.4831 69.0417 71.0415 72.0151 71.0319 74.1076Z" fill="#FF5F1F"/>
<path d="M113.088 64.5741C113.936 65.5822 113.545 67.2104 112.585 68.1835C110.7 70.0948 106.867 69.3538 107.276 66.3518C107.59 64.0176 111.571 62.771 113.088 64.5741Z" fill="#FF5F1F"/>
<path d="M75.3776 24.2967C75.5088 23.101 76.5423 22.042 77.7615 21.7749C80.0815 21.2661 82.2416 23.4063 81.5504 25.7087C80.4304 29.4326 75.0064 27.6518 75.3776 24.2967Z" fill="#FF5F1F"/>
</svg>
