<svg width="100" height="40" viewBox="0 0 100 40" fill="none" xmlns="http://www.w3.org/2000/svg">
<g clip-path="url(#clip0_1392_44231)">
<path d="M14.897 16.4531C16.8669 16.4531 22.0798 19.6067 22.0798 23.0177C22.0798 31.1804 21.9219 31.1804 15.5854 31.1804C7.90043 31.1804 7.63477 30.802 7.63477 23.1121C7.63477 20.4756 12.405 16.4531 14.897 16.4531Z" fill="url(#paint0_linear_1392_44231)"/>
<path d="M36.8122 20.4743C36.8122 18.6623 36.9015 17.0867 36.9015 13.5897C36.9015 10.6182 34.8882 8.98828 32.2875 8.98828C31.067 8.98828 30.7286 9.52294 29.9091 9.52294C29.1873 9.52294 28.7955 8.98828 27.3344 8.98828C25.6594 8.98828 23.3438 10.7092 23.3438 12.974C23.3438 16.6698 23.5709 18.1435 23.5709 19.496V27.1959C23.5709 28.754 24.5074 31.0187 27.0495 31.0187C28.0863 31.0187 29.0762 30.9644 29.9534 30.9644C30.7771 30.9644 32.635 31.0914 33.6058 31.0914C38.1312 31.0914 36.8129 23.2887 36.8129 20.4751L36.8122 20.4743ZM30.1104 23.7248C28.661 23.7248 27.8424 23.0715 27.8424 22.0933C27.8424 21.0666 29.9074 21.4249 29.9074 19.8669C29.9074 18.3089 27.6092 18.7074 27.6092 17.0909C27.6092 16.004 28.5056 14.8328 29.9283 14.8328C32.3569 14.8328 33.0086 16.1293 33.0086 16.9079C33.0086 19.034 30.463 17.4401 30.463 19.034C30.463 20.2905 33.0268 20.2796 33.0268 21.5879C33.0268 22.4057 32.5632 23.7257 30.1113 23.7257L30.1104 23.7248Z" fill="url(#paint1_linear_1392_44231)"/>
<path d="M8.07031 11.6696C8.07031 9.30201 12.0318 8.65039 15.3175 8.65039C18.6031 8.65039 22.0809 10.1725 22.0809 12.1291C22.0809 14.0856 20.8245 15.2576 17.9022 15.2576C14.98 15.2576 8.07031 15.4624 8.07031 11.6696Z" fill="url(#paint2_linear_1392_44231)"/>
<path d="M57.8747 16.7581C57.7903 16.5083 57.649 16.2961 57.4519 16.1223C57.3483 16.053 57.2456 15.9836 57.142 15.9143C56.8613 15.7263 56.3717 15.7731 56.0459 15.7489C55.6056 15.7155 55.1646 15.6921 54.7235 15.677C53.6759 15.642 52.6332 15.6862 51.5865 15.7113C51.2364 15.7205 50.8872 15.7288 50.5372 15.738C49.4194 15.7664 48.2892 15.9736 47.1798 16.1064C46.6159 16.1741 46.2858 16.3404 45.9709 16.8132C45.8924 16.9577 45.8549 17.1106 45.8565 17.271C45.8348 17.3804 45.8406 17.4874 45.8757 17.5935C45.8932 17.7605 45.9525 17.9143 46.0536 18.0538C46.1238 18.134 46.1949 18.2142 46.2651 18.2944C46.6452 18.7263 47.4462 18.7054 47.9625 18.7522C48.8188 18.829 49.6919 18.8908 50.5515 18.8867C52.4571 18.8867 54.3559 18.8499 56.2572 18.702C56.7493 18.6636 57.2632 18.5934 57.5931 18.1841C57.725 18.0429 57.8136 17.8808 57.8604 17.6971C57.9372 17.5225 57.9674 17.3378 57.9489 17.1432C57.924 17.0145 57.8997 16.8867 57.8747 16.7581Z" fill="url(#paint3_linear_1392_44231)"/>
<path d="M73.3278 11.7332C73.2284 11.5394 73.0897 11.3798 72.9126 11.2545C71.8016 10.7031 70.6988 10.1351 69.6069 9.54776C69.1792 9.30884 68.7515 9.06907 68.3263 8.82597C68.3146 8.81929 68.302 8.81344 68.2895 8.80676C68.2361 8.75663 68.1751 8.7157 68.1049 8.69481C67.9679 8.65471 67.8543 8.67142 67.7323 8.75078C66.5026 9.55277 65.3564 10.4834 64.3314 11.5352C64.0674 11.8059 63.8117 12.0849 63.5645 12.3706C63.4442 12.4842 63.364 12.6221 63.3255 12.7841C63.3105 12.8794 63.2955 12.9746 63.2804 13.0698C63.242 13.4558 63.3665 13.861 63.5561 14.1909C63.6229 14.3263 63.7115 14.4457 63.8234 14.5493C63.9103 14.6454 64.0147 14.7081 64.1359 14.7398C64.2353 14.7908 64.3414 14.7991 64.4533 14.7665C64.5995 14.7181 64.709 14.6262 64.7816 14.49C65.0565 14.0364 65.3447 13.5911 65.6463 13.155C65.7173 13.282 65.8092 13.3973 65.927 13.4783C65.983 13.5118 66.0389 13.5443 66.0957 13.5778C66.206 13.6279 66.3205 13.6454 66.4399 13.6287C66.9646 13.6187 67.4976 13.6446 68.0163 13.5602C68.4641 13.4875 68.9102 13.404 69.3563 13.3188C69.3037 13.3288 69.2511 13.3388 69.1984 13.3489C69.6078 13.2753 70.0171 13.2052 70.4248 13.1275C70.5601 13.1016 70.6846 12.9813 70.7373 12.8576C70.754 12.8184 70.7665 12.7783 70.7765 12.7382C71.0463 12.9612 71.3179 13.1835 71.5894 13.4048C71.5142 13.3422 71.4382 13.2795 71.363 13.2169C71.591 13.4065 71.8191 13.5953 72.048 13.7841C72.1691 13.8768 72.3028 13.9228 72.4498 13.9219C72.5918 13.9529 72.7305 13.9336 72.865 13.8635C73.0054 13.8008 73.1173 13.7072 73.2009 13.5819C73.3136 13.4633 73.393 13.3238 73.4389 13.1634C73.5467 12.8134 73.5734 12.4165 73.4582 12.064C73.4139 11.9537 73.3704 11.8443 73.3262 11.734L73.3278 11.7332ZM67.5377 11.8309C67.3397 11.8343 67.1408 11.8376 66.947 11.8727C66.8334 11.8928 66.7206 11.9136 66.607 11.9337C66.5828 11.9379 66.5586 11.9429 66.5343 11.9471C66.6037 11.8577 66.6738 11.7691 66.7448 11.6814C66.9412 11.4375 67.1425 11.1977 67.3472 10.9613C67.5385 10.7441 67.7331 10.531 67.932 10.3205C68.1258 10.4893 68.3204 10.6572 68.5151 10.8251C68.4608 10.7775 68.4065 10.7299 68.3522 10.6822C68.7741 11.0515 69.2009 11.4157 69.6295 11.7766C68.9319 11.7841 68.2352 11.8009 67.5385 11.8301L67.5377 11.8309Z" fill="url(#paint4_linear_1392_44231)"/>
<path d="M69.8695 15.6273C69.8779 15.4243 69.8971 15.2188 69.8845 15.0158C69.8536 14.5212 69.4827 14.0551 68.9815 13.9933C68.6632 13.954 68.3374 13.9465 68.0166 13.9231L66.9255 13.8445C66.7484 13.832 66.5722 13.9832 66.5354 14.1528C66.3408 15.04 66.2539 15.9539 66.3174 16.8612C66.3282 17.0233 66.3474 17.1845 66.3692 17.3449C66.3909 17.5086 66.4627 17.6824 66.5747 17.8052C66.6599 17.8988 66.8077 18.0024 66.9431 17.9973C67.0283 17.9948 67.0993 17.9689 67.1586 17.9288C67.2238 17.9472 67.2914 17.9556 67.3599 17.9481C67.8587 17.8946 68.3574 17.8403 68.8553 17.7852C69.4075 17.7242 69.9572 17.6339 70.5078 17.5571C70.5946 17.5446 70.6122 17.3608 70.6122 17.3098C70.6147 17.1753 70.5888 17.0433 70.5529 16.9147C70.5136 16.776 70.4626 16.6323 70.3858 16.5095C70.3582 16.4702 70.3315 16.4301 70.3039 16.3909C70.2621 16.3324 70.2078 16.2881 70.1427 16.2589C70.0441 16.2463 69.9447 16.2338 69.8461 16.2204C69.8478 16.1845 69.8495 16.1494 69.8503 16.1135C69.857 15.9514 69.8637 15.7894 69.8712 15.6273H69.8695ZM68.5771 16.0684C68.1569 16.0375 67.7376 16.0074 67.3173 15.9782C67.3357 15.6975 67.3675 15.4185 67.4126 15.1411C67.6523 15.1586 67.8913 15.1753 68.131 15.1929C68.3031 15.2054 68.4752 15.218 68.6473 15.2305C68.7233 15.2363 68.8002 15.2397 68.877 15.2439C68.8687 15.4193 68.8595 15.5947 68.852 15.7702C68.8478 15.8779 68.8428 15.9857 68.8386 16.0926C68.7517 16.0834 68.6649 16.0759 68.578 16.0692L68.5771 16.0684Z" fill="url(#paint5_linear_1392_44231)"/>
<path d="M73.3493 21.7536C73.2959 21.6158 73.2031 21.5155 73.0695 21.4537C72.7311 21.3986 72.392 21.3443 72.052 21.3025C71.9559 21.2908 71.8598 21.2799 71.7646 21.2699C71.8105 21.0778 71.8456 20.8831 71.8665 20.6868C71.9108 20.2566 71.8932 19.7812 71.7086 19.3836C71.6259 19.2048 71.5106 19.0578 71.3853 18.9099C71.3452 18.8631 71.3026 18.8188 71.255 18.7804C71.0411 18.6083 70.7796 18.5047 70.519 18.4287C70.0253 18.2858 69.509 18.2198 68.9977 18.1781C69.0462 18.1831 69.0946 18.1881 69.1431 18.1923C68.2417 18.0979 67.3386 18.1004 66.4389 18.2148C66.4948 18.209 66.55 18.2031 66.606 18.1973C66.306 18.229 66.0078 18.2658 65.7104 18.3167C65.5876 18.3376 65.4832 18.3936 65.403 18.4797C65.3971 18.4838 65.3913 18.488 65.3854 18.493C65.2802 18.5866 65.2125 18.7269 65.2083 18.869C65.1808 19.7562 65.2209 20.6459 65.3345 21.5272C64.8934 21.5991 64.4548 21.6834 64.0179 21.7787C63.8349 21.8188 63.6729 22.0468 63.6252 22.2122C63.5684 22.4102 63.5701 22.6074 63.616 22.8079C63.662 23.0084 63.7489 23.2214 63.8959 23.3718C64.1323 23.614 64.3988 23.6257 64.7305 23.6667C64.9936 23.6984 69.5457 23.7552 70.7036 23.7669C71.2425 23.7719 71.7813 23.797 72.3193 23.8171C72.4379 23.8104 72.5432 23.7728 72.6367 23.7034C72.7579 23.6425 72.8615 23.5572 72.9458 23.4486C73.1221 23.2381 73.2466 23 73.3301 22.7385C73.4036 22.508 73.463 22.2348 73.4153 21.9925C73.3945 21.9132 73.3727 21.8338 73.3518 21.7536H73.3493ZM70.4371 19.7511C70.4522 19.7637 70.4655 19.7762 70.4789 19.7904C70.5131 19.8572 70.5382 19.9282 70.5557 20.0009C70.5758 20.1521 70.5674 20.3042 70.5441 20.4545C70.5424 20.4646 70.5399 20.4746 70.5382 20.4838C70.4864 20.7093 70.4054 20.9274 70.3051 21.1371C70.2199 21.1354 70.1339 21.1371 70.0487 21.1379C69.8883 21.1379 69.7279 21.1413 69.5683 21.1454C69.6518 20.635 69.7345 20.1246 69.8181 19.6141C69.9651 19.6242 70.1113 19.6434 70.2525 19.681C70.316 19.6977 70.3786 19.721 70.4371 19.7511ZM67.9393 21.2148C67.8916 20.7093 67.844 20.2031 67.7964 19.6977C67.8908 19.6851 67.9844 19.6734 68.0788 19.6618C68.1615 19.6542 68.2433 19.6475 68.3261 19.64C68.4706 19.6317 68.6159 19.6233 68.7613 19.6175C68.6761 20.1379 68.5917 20.6584 68.5065 21.1788C68.3169 21.188 68.1281 21.2015 67.9393 21.2148ZM66.1983 20.0059C66.1983 19.9951 66.1983 19.9842 66.1983 19.9734C66.2576 19.9592 66.3161 19.945 66.3754 19.9316C66.5249 19.9015 66.6745 19.8731 66.824 19.8472C66.8699 20.3343 66.9159 20.8213 66.961 21.3075C66.7405 21.3326 66.5199 21.361 66.2994 21.3919C66.347 21.3852 66.3946 21.3785 66.4414 21.3718C66.3938 21.3777 66.3461 21.3835 66.2985 21.3894C66.2442 20.9299 66.2108 20.4688 66.1974 20.0068L66.1983 20.0059Z" fill="url(#paint6_linear_1392_44231)"/>
<path d="M83.7823 10.9149C83.7823 10.9149 83.7823 10.9149 83.7773 10.9141H83.7815L83.7823 10.9149Z" fill="url(#paint7_linear_1392_44231)"/>
<path d="M83.7342 12.462C84.0775 12.3526 84.2271 11.9616 84.2204 11.6308C84.2179 11.4746 84.1886 11.2975 84.0968 11.1655C84.0608 11.1212 84.0249 11.0769 83.989 11.0327C83.9364 10.9825 83.8762 10.9475 83.8102 10.9257C83.8461 10.9341 83.8821 10.9424 83.9188 10.9508C83.8745 10.9383 83.8303 10.9274 83.786 10.9174C83.7843 10.9174 83.7826 10.9174 83.781 10.9166C83.7801 10.9166 83.7785 10.9166 83.7768 10.9157C82.9414 10.7261 82.0542 10.676 81.2196 10.889C81.2773 10.8765 81.3349 10.8648 81.3917 10.8522C81.0843 10.9182 80.7727 10.9508 80.4669 11.0252C80.0517 11.1112 79.6449 11.2315 79.2489 11.3827C79.2255 11.4053 79.2021 11.4278 79.1787 11.4504C79.147 11.508 79.1336 11.5682 79.1378 11.6325C79.1069 12.3401 79.7635 12.9708 80.4536 12.98C80.4151 12.975 80.3767 12.97 80.3383 12.9641C80.5087 13.0059 80.6841 13.0268 80.8596 13.0243C80.8153 13.0201 80.7718 13.0159 80.7276 13.0117C80.8345 13.0109 81.1586 13.0067 81.1578 13.0067C81.1778 13.0067 81.1962 13.0076 81.2129 13.0092C81.1937 13.0092 81.1745 13.0076 81.1561 13.0067C81.101 13.0126 81.045 13.0184 80.9899 13.0243C81.0642 13.0218 81.1386 13.0184 81.2138 13.0159C81.2205 13.2975 81.2255 13.579 81.2288 13.8605C81.2029 13.8655 81.1762 13.8697 81.1511 13.8739C80.8905 13.9198 80.6332 13.9833 80.3759 14.0468C80.4477 14.0293 80.5204 14.0117 80.5922 13.9942C80.2205 14.0786 79.8487 14.1596 79.4795 14.2548C79.4628 14.259 79.4461 14.2632 79.4293 14.2682C79.2923 14.3041 79.2314 14.4628 79.2021 14.5831C79.1537 14.782 79.1687 15.0334 79.213 15.2297C79.2589 15.4353 79.3224 15.6616 79.4561 15.8287C79.492 15.8688 79.5279 15.9098 79.5638 15.9499C79.6207 16.0058 79.6866 16.0309 79.7618 16.0292C79.7869 16.0326 79.812 16.0351 79.8379 16.0384C79.9665 16.0535 80.096 16.0685 80.2247 16.0827C80.492 16.1128 80.7593 16.1495 81.0275 16.1654C81.106 16.1696 81.1845 16.1738 81.2631 16.1779C81.2631 16.3951 81.2606 16.6123 81.2572 16.8295C81.2539 17.0376 81.2489 17.2447 81.243 17.4519C81.1661 17.4661 81.0893 17.4812 81.0124 17.497C80.9723 17.3216 80.8495 17.1746 80.6449 17.1921C80.3834 17.2138 80.1921 17.4653 80.1336 17.7042C80.0125 18.1971 79.9055 18.6942 79.8145 19.1937C79.746 19.5672 79.6816 19.9423 79.6248 20.3174C79.5187 21.0241 79.492 21.6807 79.5856 22.3933C79.5764 22.334 79.5672 22.2747 79.5588 22.2154C79.5814 22.5713 79.7167 23.3683 80.111 23.5161C80.2246 23.5587 80.355 23.5612 80.4711 23.5236C80.5805 23.4877 80.6816 23.4309 80.7735 23.3607C80.837 23.3114 80.9022 23.2388 80.954 23.1586C80.9648 23.1586 80.9748 23.1586 80.9857 23.1586C80.9991 23.1561 81.0133 23.1527 81.0266 23.1502C81.7935 23.0157 82.5554 22.8645 83.3098 22.6707C83.5504 22.6089 83.7668 22.4485 83.8963 22.2354C83.9397 22.1502 83.9823 22.065 84.0257 21.9798C84.0859 21.8353 84.116 21.6857 84.1168 21.5312C84.1318 21.3048 84.1118 21.0458 83.9965 20.8437C83.9506 20.7752 83.9038 20.7067 83.857 20.6382C83.857 20.6382 83.857 20.6382 83.8562 20.6365C83.8687 20.4736 83.8779 20.3107 83.8862 20.1469C83.8829 20.2104 83.8795 20.2731 83.8762 20.3366C83.8896 20.0976 83.9046 19.8587 83.9038 19.6198C83.9038 19.4018 83.8912 19.1845 83.8787 18.9673C83.8821 19.035 83.8862 19.1035 83.8896 19.1712C83.8762 18.8922 83.8637 18.6148 83.8328 18.3374C83.8085 18.1186 83.7242 17.8771 83.5755 17.7092C83.4493 17.5664 83.268 17.3985 83.0684 17.3843C83.0199 17.3809 82.9715 17.3776 82.923 17.3751C82.9263 17.3751 82.9289 17.3751 82.9322 17.3751C82.9255 17.3751 82.9197 17.3751 82.913 17.3742H82.9105C82.7818 17.3667 82.654 17.3584 82.5254 17.3533C82.5279 16.9732 82.5254 16.5923 82.5187 16.2122C82.5629 16.208 82.6056 16.1996 82.6465 16.1846C82.7918 16.1311 82.9397 16.0835 83.0859 16.0301C83.2112 15.9841 83.3315 15.9273 83.451 15.8688C83.537 15.8262 83.6331 15.7961 83.7175 15.751C83.8303 15.7101 83.9121 15.5647 83.948 15.4703C84.0165 15.2907 84.0241 15.0501 83.9907 14.8638C83.9556 14.6684 83.8988 14.452 83.7676 14.2974C83.7308 14.254 83.6916 14.2139 83.649 14.1813C83.6498 14.1813 83.6515 14.1813 83.6523 14.1821C83.5362 14.0869 83.3524 14.0752 83.2112 14.0476C82.9464 13.9959 82.6807 13.9532 82.4134 13.919C82.39 13.6834 82.3616 13.4487 82.334 13.2147C82.3198 13.0953 82.3048 12.9758 82.2898 12.8555C82.6749 12.7728 83.0533 12.6676 83.4293 12.5489C83.3716 12.5665 83.314 12.5849 83.2563 12.6024C83.4167 12.559 83.5763 12.5121 83.7342 12.462ZM81.1979 20.4243C81.1444 20.0108 81.1027 19.5964 81.0726 19.1804C81.1302 19.1703 81.1879 19.1603 81.2455 19.152C81.5521 19.1119 81.8595 19.0918 82.167 19.0676C82.2555 19.0609 82.3449 19.0551 82.4335 19.05C82.4284 19.1737 82.4218 19.2965 82.4134 19.4201C82.3775 19.7484 82.3324 20.0751 82.2756 20.4009C81.9957 20.4034 81.7158 20.4101 81.436 20.4218C81.3566 20.4218 81.2773 20.4227 81.1979 20.4243Z" fill="url(#paint8_linear_1392_44231)"/>
<path d="M90.8047 12.4199C90.8114 12.4558 90.818 12.4925 90.8239 12.5285C90.8272 12.5452 90.8297 12.561 90.8331 12.5777C90.8239 12.5251 90.8139 12.4725 90.8047 12.4199Z" fill="url(#paint9_linear_1392_44231)"/>
<path d="M92.2129 13.7128C92.1561 13.529 92.06 13.3361 91.913 13.2066C91.857 13.1631 91.8002 13.1197 91.7442 13.0771C91.6465 13.0169 91.5412 12.9852 91.4284 12.9785C91.4092 12.976 91.3883 12.9727 91.3766 12.971C91.3449 12.9668 91.314 12.9618 91.2822 12.9576C91.2129 12.9476 91.1436 12.9384 91.0742 12.9284C91.0107 12.92 90.9464 12.9117 90.8829 12.9033C90.8203 12.2609 90.6582 11.6143 90.5254 10.9844C90.4786 10.7614 90.2488 10.5801 90.0266 10.5725C89.8019 10.565 89.6507 10.7338 89.6465 10.9552C89.6365 11.5425 89.6114 12.1297 89.5763 12.7162C89.5763 12.7246 89.5755 12.7337 89.5747 12.7421C89.5747 12.7454 89.5747 12.7496 89.5747 12.753C89.5471 12.7521 89.5204 12.7513 89.4936 12.753C88.9891 12.7722 88.4853 12.7914 87.9807 12.8056C87.8679 12.8048 87.7543 12.7997 87.6424 12.8106C87.6624 12.3461 87.6858 11.8816 87.7142 11.4171C87.7226 11.2751 87.69 11.1448 87.614 11.0228C87.538 10.9017 87.4026 10.7747 87.2665 10.7246C87.1512 10.682 87.0058 10.6494 86.8897 10.7096C86.7786 10.7664 86.7076 10.8599 86.6884 10.9861C86.5848 11.6736 86.4912 12.3628 86.406 13.052C86.2222 13.088 86.0376 13.1247 85.8546 13.164C85.9039 13.1531 85.954 13.1431 86.0033 13.1322C85.756 13.1798 85.5079 13.2233 85.2607 13.2734C85.142 13.2968 85.0777 13.4714 85.0618 13.5691C85.0368 13.7245 85.0501 13.8799 85.0827 14.0328C85.117 14.194 85.1704 14.3653 85.2623 14.5031C85.3392 14.6184 85.4378 14.7571 85.5814 14.7888C85.7861 14.8339 85.9916 14.8749 86.1971 14.9141C86.0493 16.3895 85.9415 17.869 85.868 19.3493C85.8496 19.7169 85.8337 20.0828 85.8387 20.4512C85.8446 20.8856 85.8563 21.32 85.8688 21.7544C85.8663 21.6726 85.8638 21.5915 85.8621 21.5097C85.8672 21.7444 85.8713 21.98 85.8747 22.2147C85.8847 22.3451 85.9256 22.4629 85.9975 22.5681C86.0509 22.6876 86.132 22.7862 86.2406 22.8639C86.4085 22.985 86.6416 23.1061 86.8463 23.1379C87.4728 23.254 88.7276 23.3083 89.3658 23.3083C90.3499 23.3083 90.5354 22.4453 90.6248 21.6818C90.6682 21.31 90.71 20.9374 90.7451 20.5648C90.7384 20.6333 90.7317 20.7027 90.725 20.7712C90.8721 19.2499 90.9899 17.7395 91.055 16.2115C91.0634 16.0754 91.0216 15.0286 91.0492 15.0186C91.1018 14.9994 91.1544 14.9793 91.2071 14.9593L91.1787 14.9701C91.4226 14.8824 91.6682 14.798 91.9096 14.702C92.0792 14.6343 92.2095 14.4438 92.2463 14.27C92.2856 14.0812 92.2705 13.8975 92.2146 13.7145L92.2129 13.7128ZM88.4235 19.9115C87.7944 19.9115 87.4386 19.6283 87.4386 19.2031C87.4386 18.757 88.1871 18.9132 88.1871 18.2365C88.1871 17.5599 87.3375 17.7328 87.3375 17.0311C87.3375 16.5591 87.7268 16.0503 88.3441 16.0503C89.3984 16.0503 89.6816 16.6134 89.6816 16.9517C89.6816 17.8748 88.7301 17.1823 88.7301 17.8748C88.7301 18.4203 89.69 18.4153 89.69 18.9834C89.69 19.3384 89.4886 19.9115 88.4235 19.9115Z" fill="url(#paint10_linear_1392_44231)"/>
<path d="M47.2436 28.3458C47.1593 28.3182 47.0766 28.289 46.9922 28.2622C46.937 28.2447 46.8819 28.223 46.8368 28.1862C46.7482 28.1135 46.7549 28.0191 46.7825 27.918C46.7967 27.8671 46.8167 27.817 46.8451 27.7727C46.8535 27.7593 46.8627 27.7468 46.8719 27.7343C46.9337 27.6557 47.0181 27.6039 47.11 27.5688C47.1885 27.5379 47.2712 27.5179 47.3547 27.5045C47.4266 27.4928 47.5352 27.4803 47.5995 27.5246C47.6204 27.5388 47.6354 27.5597 47.6488 27.5805C47.6772 27.6257 47.6973 27.6758 47.709 27.7284C47.7206 27.781 47.7181 27.8278 47.7248 27.8779C47.7323 27.9348 47.7482 27.9991 47.7967 28.035C47.8435 28.0693 47.9086 28.0684 47.9587 28.0425C48.013 28.015 48.049 27.9581 48.0715 27.903C48.181 27.634 48.2043 27.314 48.0506 27.0576C47.861 26.7418 47.44 26.6282 47.0991 26.68C46.5494 26.7635 46.049 27.2238 45.9045 27.7585C45.8168 28.0843 45.8961 28.4393 46.115 28.6958C46.3748 29.0007 46.7599 29.0517 47.1267 29.1444C47.242 29.1737 47.3673 29.2037 47.45 29.2965C47.5895 29.4527 47.5569 29.7309 47.4742 29.9071C47.3898 30.0868 47.2294 30.2279 47.044 30.2973C46.8585 30.3666 46.6254 30.3825 46.5269 30.1853C46.4826 30.0968 46.4592 29.9731 46.4684 29.8737C46.4834 29.7192 46.2996 29.6239 46.1685 29.6097C46.0482 29.5972 45.826 29.6256 45.8101 29.786C45.7867 30.0274 45.8026 30.2789 45.9103 30.5011C46.0941 30.8812 46.4492 31.111 46.866 31.1494C47.2127 31.1811 47.6605 31.0675 47.9128 30.8152C48.1876 30.5404 48.3564 30.1636 48.3681 29.7735C48.3798 29.395 48.2787 29.0241 48.003 28.7526C47.7933 28.5454 47.516 28.4385 47.242 28.3474L47.2436 28.3458ZM46.5912 30.2789C46.5753 30.2672 46.5812 30.2697 46.5912 30.2789V30.2789ZM47.404 30.0316C47.404 30.0316 47.4024 30.0333 47.4015 30.0341C47.4065 30.0283 47.4216 30.0107 47.404 30.0316Z" fill="url(#paint11_linear_1392_44231)"/>
<path d="M52.4046 28.1472C52.2909 28.1071 52.0487 28.0795 51.9969 28.2349C51.9267 28.4479 51.8473 28.6651 51.7747 28.8798C51.7371 28.991 51.7011 29.1021 51.6686 29.214C51.636 29.326 51.6209 29.4538 51.5775 29.5607C51.5165 29.5323 51.4831 29.3911 51.4664 29.3301C51.443 29.2432 51.4296 29.1547 51.4138 29.0661C51.372 28.8314 51.3202 28.5983 51.2709 28.3644C51.2342 28.1906 51.0963 28.0845 50.9267 28.0469C50.7889 28.0169 50.5742 28.0361 50.5241 28.1998C50.4414 28.473 50.3578 28.7462 50.2626 29.0152C50.2317 29.1021 50.2116 29.1923 50.1815 29.2817C50.149 29.3777 50.1206 29.4897 50.0821 29.5816C50.0362 29.5214 50.0078 29.4337 49.9769 29.3644C49.9435 29.2892 49.9125 29.2123 49.89 29.133C49.8098 28.8498 49.7346 28.5657 49.6603 28.2817C49.6277 28.1555 49.3044 28.0495 49.2994 28.2307C49.2868 28.6317 49.2952 28.9651 49.3027 29.3385C49.3094 29.6609 49.342 29.9993 49.4171 30.3142C49.4806 30.5799 49.5859 30.9508 49.829 31.1104C49.895 31.1538 49.9719 31.1739 50.0504 31.1638C50.154 31.1505 50.235 31.0978 50.3102 31.0268C50.4589 30.8865 50.565 30.706 50.6527 30.5239C50.697 30.432 50.7329 30.3376 50.7738 30.2449C50.7964 30.1939 50.819 30.143 50.839 30.0912C50.8532 30.0553 50.9058 29.9667 50.8992 29.9299C50.9894 30.427 51.2818 31.1262 51.9117 31.0369C52.1765 30.9993 52.3503 30.7787 52.4405 30.5415C52.5666 30.2081 52.6318 29.8355 52.6869 29.4855C52.7387 29.1555 52.7379 28.8197 52.7145 28.4872C52.7053 28.3168 52.5533 28.1998 52.4046 28.1472Z" fill="url(#paint12_linear_1392_44231)"/>
<path d="M55.9356 30.0913C55.8337 30.0746 55.7193 30.0395 55.6173 30.0429C55.4695 30.0471 55.3149 30.1849 55.1763 30.2284C55.0919 30.2542 55.0042 30.2743 54.9156 30.2693C54.9014 30.2685 54.888 30.2668 54.8738 30.2651C54.8647 30.2643 54.858 30.2634 54.8538 30.2634C54.8505 30.2609 54.8446 30.2568 54.8304 30.2492C54.802 30.235 54.7744 30.2208 54.7469 30.2058C54.9582 30.1231 55.1629 30.0145 55.3525 29.9017C55.5505 29.7839 55.7527 29.6394 55.8813 29.4439C56.0367 29.2083 56.0852 28.8691 55.9348 28.621C55.7894 28.3804 55.487 28.2794 55.2239 28.2535C54.9607 28.2276 54.6391 28.266 54.4219 28.4255C54.1345 28.6352 53.924 28.9427 53.8354 29.2885C53.716 29.7522 53.7962 30.2852 54.1287 30.6461C54.4319 30.9752 54.9089 31.1039 55.3458 31.0654C55.548 31.0479 55.746 30.9886 55.9256 30.8942C55.9615 30.875 56.0025 30.8557 56.0351 30.8315C56.1194 30.7672 56.1386 30.6544 56.1395 30.5558C56.1403 30.4932 56.1253 30.4121 56.1211 30.3428C56.1144 30.2451 56.0417 30.1106 55.9348 30.093L55.9356 30.0913ZM54.3943 29.499C54.396 29.4924 54.3993 29.4706 54.3993 29.4706C54.4027 29.4539 54.4043 29.4372 54.4077 29.4197C54.4094 29.4113 54.411 29.4038 54.4127 29.3955C54.4286 29.3746 54.4344 29.3228 54.4428 29.3002C54.4478 29.286 54.4536 29.2718 54.4578 29.2576C54.4311 29.3437 54.4561 29.2685 54.4662 29.2501C54.4754 29.2334 54.4829 29.2209 54.4929 29.205C54.4954 29.2008 54.5096 29.1833 54.5163 29.1757C54.5246 29.1682 54.5455 29.1482 54.5522 29.1407C54.5639 29.1323 54.5781 29.1206 54.5906 29.1114C54.5982 29.1081 54.6274 29.093 54.6357 29.0889C54.6667 29.073 54.7093 29.0529 54.736 29.0412C54.7928 29.0153 54.8471 28.9928 54.9081 28.9803C54.9799 28.9652 55.0543 28.9594 55.127 28.9652C55.1896 28.9702 55.2598 28.9811 55.3099 29.022C55.3133 29.0245 55.3158 29.0262 55.3174 29.0279C55.3174 29.0279 55.3183 29.0321 55.3216 29.0379C55.3258 29.0471 55.3241 29.0496 55.3241 29.0496C55.3241 29.0463 55.3233 29.0438 55.3216 29.0454C55.3199 29.0429 55.3183 29.0387 55.3174 29.0329C55.3183 29.0396 55.3199 29.0446 55.3208 29.0479C55.3199 29.0513 55.3183 29.0554 55.3166 29.0655C55.3133 29.0855 55.3091 29.1056 55.3016 29.1248C55.279 29.1866 55.2372 29.2234 55.1871 29.2635C54.9808 29.4264 54.7276 29.5358 54.482 29.6218C54.4553 29.631 54.4286 29.6394 54.4018 29.6486C54.4002 29.6386 54.3985 29.6294 54.3985 29.6269C54.3943 29.5843 54.3918 29.5408 54.396 29.4974L54.3943 29.499Z" fill="url(#paint13_linear_1392_44231)"/>
<path d="M59.3634 30.0913C59.2614 30.0746 59.147 30.0395 59.0451 30.0429C58.8972 30.0471 58.7427 30.1849 58.604 30.2284C58.5196 30.2542 58.4319 30.2743 58.3433 30.2693C58.3291 30.2685 58.3158 30.2668 58.3016 30.2651C58.2924 30.2643 58.2857 30.2634 58.2815 30.2634C58.2782 30.2609 58.2723 30.2568 58.2581 30.2492C58.2297 30.235 58.2021 30.2208 58.1746 30.2058C58.3859 30.1231 58.5906 30.0145 58.7802 29.9017C58.9782 29.7839 59.1804 29.6394 59.3091 29.4439C59.4644 29.2083 59.5129 28.8691 59.3625 28.621C59.2172 28.3804 58.9148 28.2794 58.6516 28.2535C58.3884 28.2276 58.0668 28.266 57.8496 28.4255C57.5622 28.6352 57.3517 28.9427 57.2632 29.2885C57.1437 29.7522 57.2239 30.2852 57.5564 30.6461C57.8596 30.9752 58.3367 31.1039 58.7736 31.0654C58.9757 31.0479 59.1737 30.9886 59.3533 30.8942C59.3893 30.875 59.4302 30.8557 59.4628 30.8315C59.5472 30.7672 59.5664 30.6544 59.5672 30.5558C59.568 30.4932 59.553 30.4121 59.5488 30.3428C59.5421 30.2451 59.4695 30.1106 59.3625 30.093L59.3634 30.0913ZM57.822 29.499C57.8237 29.4924 57.8271 29.4706 57.8271 29.4706C57.8304 29.4539 57.8321 29.4372 57.8354 29.4197C57.8371 29.4113 57.8387 29.4038 57.8404 29.3955C57.8563 29.3746 57.8621 29.3228 57.8705 29.3002C57.8755 29.286 57.8814 29.2718 57.8855 29.2576C57.8588 29.3437 57.8839 29.2685 57.8939 29.2501C57.9031 29.2334 57.9106 29.2209 57.9206 29.205C57.9231 29.2008 57.9373 29.1833 57.944 29.1757C57.9524 29.1682 57.9733 29.1482 57.9799 29.1407C57.9916 29.1323 58.0058 29.1206 58.0184 29.1114C58.0259 29.1081 58.0551 29.093 58.0635 29.0889C58.0944 29.073 58.137 29.0529 58.1637 29.0412C58.2205 29.0153 58.2748 28.9928 58.3358 28.9803C58.4077 28.9652 58.482 28.9594 58.5547 28.9652C58.6173 28.9702 58.6875 28.9811 58.7376 29.022C58.741 29.0245 58.7435 29.0262 58.7452 29.0279C58.7452 29.0279 58.746 29.0321 58.7493 29.0379C58.7535 29.0471 58.7518 29.0496 58.7518 29.0496C58.7518 29.0463 58.751 29.0438 58.7493 29.0454C58.7477 29.0429 58.746 29.0387 58.7452 29.0329C58.746 29.0396 58.7477 29.0446 58.7485 29.0479C58.7477 29.0513 58.746 29.0554 58.7443 29.0655C58.741 29.0855 58.7368 29.1056 58.7293 29.1248C58.7067 29.1866 58.665 29.2234 58.6148 29.2635C58.4085 29.4264 58.1554 29.5358 57.9098 29.6218C57.883 29.631 57.8563 29.6394 57.8296 29.6486C57.8279 29.6386 57.8262 29.6294 57.8262 29.6269C57.822 29.5843 57.8195 29.5408 57.8237 29.4974L57.822 29.499Z" fill="url(#paint14_linear_1392_44231)"/>
<path d="M62.9168 30.0682C62.9118 30.0598 62.9059 30.0523 62.9009 30.0448C62.8232 29.9304 62.7364 29.9245 62.6077 29.9078C62.5317 29.8978 62.454 29.8878 62.3771 29.8919C62.3153 29.8953 62.256 29.912 62.1984 29.9337C62.1666 29.9454 62.0463 30.0181 62.0179 30.003C61.9828 29.9847 61.9711 29.8477 61.9661 29.8117C61.9452 29.6689 61.941 29.5227 61.9268 29.3782C61.911 29.2119 61.9093 29.0457 61.9135 28.8786C62.0004 28.8694 62.0864 28.861 62.1741 28.856C62.3537 28.846 62.5267 28.8009 62.7046 28.7758C62.784 28.765 62.8366 28.6564 62.8525 28.5912C62.8767 28.4918 62.875 28.3907 62.8608 28.2896C62.8458 28.1835 62.8174 28.0708 62.7622 27.978C62.7196 27.9062 62.6528 27.7934 62.5618 27.7809C62.4623 27.7667 62.3621 27.7558 62.2618 27.7466C62.1524 27.7366 62.0605 27.7416 61.9586 27.7575C61.9636 27.5687 61.9678 27.3799 61.972 27.1911C61.9736 27.0908 61.6319 26.9906 61.6161 27.0791C61.5676 27.3389 61.5158 27.5979 61.464 27.8569C61.3203 27.8853 61.1733 27.8987 61.0338 27.9413C60.9294 27.973 60.8241 27.9997 60.7172 28.0206C60.5844 28.0465 60.6194 28.308 60.6361 28.3882C60.662 28.516 60.7255 28.719 60.8667 28.765C61.0004 28.8084 61.1357 28.8443 61.2736 28.8727C61.2685 28.9011 61.2627 28.9304 61.2585 28.9588C61.2 29.3138 61.18 29.6806 61.2477 30.0348C61.3162 30.394 61.3713 30.8752 61.7589 31.0314C61.9168 31.0949 62.0797 31.0899 62.2468 31.0815C62.4139 31.0732 62.5902 31.0498 62.7455 30.9746C62.8901 30.9044 62.9995 30.79 63.0705 30.6471C63.1541 30.4775 63.0162 30.2186 62.9185 30.0682H62.9168Z" fill="url(#paint15_linear_1392_44231)"/>
<path d="M68.1076 27.5079L68.0575 27.4235C68.0266 27.3784 67.9865 27.345 67.9364 27.3241C67.8578 27.3091 67.776 27.2882 67.6966 27.2799C67.6665 27.2765 67.6364 27.2748 67.6064 27.2715C67.5454 27.2657 67.4869 27.274 67.4259 27.2832C67.3307 27.2974 67.2363 27.3133 67.1419 27.33C67.0759 27.3417 67.0283 27.4035 67.0065 27.4628C66.9798 27.5363 66.9731 27.6132 66.9781 27.69C66.9832 27.7702 66.999 27.858 67.0375 27.9306C67.0709 27.9933 67.1168 28.0668 67.1895 28.0885C67.238 28.1027 67.2872 28.1178 67.3357 28.132C67.375 28.147 67.4142 28.162 67.4527 28.1779C67.522 28.2063 67.598 28.2072 67.6715 28.2097C67.7785 28.2138 67.8871 28.208 67.9948 28.2047C68.0667 28.203 68.126 28.1077 68.146 28.0509C68.1761 27.9657 68.1828 27.8763 68.177 27.7869C68.1711 27.6934 68.1527 27.5923 68.1093 27.5079H68.1076Z" fill="url(#paint16_linear_1392_44231)"/>
<path d="M67.9372 29.8891C67.9272 29.7078 67.9222 29.5257 67.9172 29.3444C67.9138 29.2249 67.913 29.1055 67.9071 28.986C67.9004 28.8473 67.8436 28.7145 67.8136 28.5792C67.7885 28.4689 67.5763 28.4188 67.4903 28.4037C67.4176 28.3912 67.2121 28.3628 67.187 28.4689C67.1661 28.5549 67.1461 28.6418 67.126 28.7279C67.0901 28.8874 67.0851 29.0428 67.0818 29.2057C67.0759 29.4379 67.0709 29.6702 67.0726 29.9033C67.0734 30.0703 67.0792 30.2383 67.0934 30.4053C67.1043 30.529 67.1486 30.6359 67.2046 30.7462C67.2388 30.8139 67.2739 30.8807 67.3107 30.9459C67.3357 30.991 67.3599 31.0436 67.3908 31.0854C67.4276 31.1338 67.4752 31.1731 67.5153 31.2174C67.5822 31.2925 67.8478 31.2909 67.872 31.1681C67.8929 31.0653 67.9163 30.9659 67.9272 30.8615C67.9464 30.6777 67.9982 30.4981 67.9781 30.3135C67.9631 30.1723 67.9456 30.0311 67.9372 29.8891Z" fill="url(#paint17_linear_1392_44231)"/>
<path d="M71.7645 29.0517C71.6768 28.7885 71.4822 28.5722 71.2274 28.461C70.9634 28.3466 70.6902 28.3215 70.417 28.4042C70.2199 28.4636 70.0436 28.6398 69.9032 28.786C69.9007 28.7401 69.9091 28.6615 69.9074 28.6148C69.9032 28.5245 69.6251 28.4209 69.6017 28.5245C69.5256 28.8687 69.4622 29.2154 69.407 29.5629C69.3803 29.7342 69.3552 29.9063 69.3335 30.0784C69.3018 30.324 69.3293 30.5704 69.3928 30.8085C69.417 30.8988 69.4363 30.9748 69.5156 31.0349C69.585 31.0876 69.6768 31.1151 69.7629 31.1043C69.8623 31.0926 69.9517 31.0349 70.0027 30.9489C70.0553 30.8612 70.0411 30.7509 70.0728 30.6565C70.1079 30.5537 70.2115 30.207 70.2483 30.1043C70.4128 29.6365 70.6593 29.5128 70.8372 29.4527C70.874 29.4401 71.0018 29.4493 71.0327 29.4736C71.067 29.5003 71.0762 29.5471 71.082 29.5897C71.1213 29.8779 71.1188 30.1694 71.1564 30.4585C71.1839 30.6699 71.2023 30.8829 71.214 31.0959C71.2198 31.1962 71.4379 31.1694 71.488 31.1594C71.5741 31.1419 71.747 31.0909 71.767 30.9856C71.8431 30.5813 71.9241 30.1569 71.8823 29.7451C71.8581 29.5137 71.8405 29.2731 71.7662 29.0508L71.7645 29.0517Z" fill="url(#paint18_linear_1392_44231)"/>
<path d="M78.2836 30.2686C78.2451 30.236 78.1407 30.1642 78.0906 30.2084C77.9135 30.3638 77.911 30.0823 77.906 29.9804C77.8993 29.8626 77.8951 29.7406 77.9001 29.6228C77.9093 29.4181 77.9569 29.2135 77.9845 29.0105C77.9945 28.9378 78.0137 28.8551 78.0079 28.7799C77.992 28.5618 77.6696 28.4023 77.4766 28.4783C77.4666 28.4825 77.4574 28.4867 77.4482 28.4925C77.1458 28.3455 76.789 28.3029 76.4707 28.4157C76.2527 28.4933 76.0748 28.642 75.9394 28.8267C75.8383 28.9645 75.784 29.1374 75.7448 29.302C75.7214 29.3989 75.7055 29.4975 75.698 29.5978C75.6846 29.779 75.6663 29.9403 75.6947 30.119C75.7331 30.358 75.8459 30.7732 76.1433 30.9553C76.3154 31.0605 76.5409 31.0564 76.7339 31.0204C76.8124 31.0054 76.8884 30.9854 76.957 30.9453C77.0605 30.8859 77.1533 30.7899 77.2276 30.6963C77.2936 30.6119 77.3488 30.52 77.398 30.4248C77.4097 30.4624 77.4231 30.4992 77.4381 30.5359C77.4808 30.6362 77.5392 30.7347 77.6153 30.8133C77.8124 31.0163 78.0964 31.038 78.3588 30.9845C78.4256 30.9712 78.4624 30.8726 78.4724 30.8174C78.4899 30.7247 78.4732 30.6078 78.4406 30.5209C78.4055 30.4281 78.3579 30.3346 78.2819 30.2686H78.2836ZM76.7857 29.7247C76.7289 29.8158 76.6545 29.9043 76.5752 29.977C76.5376 30.0121 76.4766 30.0489 76.4348 29.9962C76.4123 29.9678 76.4098 29.9277 76.4139 29.891C76.4465 29.6245 76.5134 29.3054 76.7322 29.1257C76.8266 29.0489 76.9519 29.0029 77.0739 29.0105C77.099 29.0121 77.1249 29.0163 77.1491 29.023C77.1082 29.109 77.0656 29.1951 77.0238 29.2803C77.0021 29.3246 76.9795 29.3689 76.957 29.4123C76.9453 29.4348 76.9336 29.4574 76.921 29.48C76.9135 29.495 76.8868 29.5267 76.8868 29.5426C76.8534 29.6028 76.8208 29.6646 76.784 29.7231L76.7857 29.7247Z" fill="url(#paint19_linear_1392_44231)"/>
<path d="M84.3654 28.5272C84.4573 28.3693 84.5174 28.1922 84.54 28.0051C84.5725 27.7294 84.5091 27.4612 84.3361 27.2407C84.1674 27.0243 83.895 26.9023 83.6302 26.8497C83.2459 26.7729 82.8491 26.8205 82.4807 26.9433C82.332 26.9926 82.2885 27.1797 82.3153 27.3276C82.2626 27.9032 82.2359 28.4813 82.2384 29.0594C82.2401 29.3877 82.2551 29.716 82.2777 30.0435C82.2885 30.1938 82.3011 30.3442 82.3153 30.4946C82.3236 30.584 82.3337 30.6658 82.3713 30.7494C82.4022 30.8187 82.4389 30.8847 82.469 30.9541C82.5291 31.0927 82.8274 31.1604 82.9293 31.0334C83.2367 31.0735 83.5492 31.0593 83.8474 30.9591C84.0036 30.9064 84.1624 30.8505 84.2927 30.7469C84.4464 30.6241 84.5792 30.4737 84.6753 30.3016C84.8833 29.9282 84.966 29.457 84.8073 29.0502C84.7196 28.8263 84.5608 28.6517 84.367 28.5272H84.3654ZM83.4815 27.5255C83.5976 27.5347 83.7572 27.5615 83.8357 27.6584C83.8675 27.6968 83.8725 27.7453 83.8758 27.7929C83.8792 27.8321 83.8725 27.914 83.8641 27.9349C83.8641 27.9357 83.8633 27.9366 83.8624 27.9382C83.8616 27.9399 83.8608 27.9407 83.8599 27.9407C83.8566 27.9407 83.8558 27.9441 83.8558 27.9491C83.8491 27.96 83.8432 27.97 83.8366 27.9808C83.8249 27.9992 83.8123 28.0176 83.799 28.0351C83.7923 28.0443 83.7681 28.0677 83.7605 28.0819C83.7522 28.0903 83.743 28.0986 83.7338 28.107C83.6929 28.1446 83.6494 28.1772 83.6051 28.2106C83.6051 28.2106 83.6026 28.2123 83.5993 28.2131C83.5734 28.2265 83.5483 28.2407 83.5224 28.254C83.4957 28.2674 83.469 28.2799 83.4414 28.2916C83.4331 28.295 83.4255 28.2983 83.4172 28.3016C83.3771 28.3175 83.3846 28.315 83.4397 28.2941C83.4372 28.3 83.4222 28.3067 83.4021 28.3125C83.2376 28.3275 83.0755 28.3626 82.9184 28.4144C82.9201 28.1421 82.9285 27.8697 82.9427 27.5974C83.1173 27.5431 83.2986 27.5113 83.4815 27.5255ZM84.0487 29.4963C84.0396 29.5364 84.027 29.5756 84.0103 29.6141C83.9853 29.6725 83.9527 29.7277 83.9159 29.7786C83.8875 29.8179 83.8558 29.8538 83.819 29.8847C83.7413 29.9499 83.6344 29.9858 83.5467 30.0376C83.53 30.0476 83.5124 30.0568 83.4949 30.066C83.4556 30.0869 83.4155 30.1061 83.3754 30.1245C83.3779 30.1237 83.3579 30.132 83.3487 30.1362C83.337 30.1404 83.3019 30.1529 83.296 30.1546C83.2585 30.1671 83.2192 30.178 83.1808 30.1871C83.1164 30.2022 83.0513 30.2089 82.9861 30.2197C83.0187 30.2155 83.0471 30.2089 82.9861 30.2197C82.9811 30.1604 82.9753 30.1011 82.9711 30.0426C82.9544 29.8162 82.9435 29.5898 82.9352 29.3634C82.9494 29.3593 82.9636 29.3543 82.9761 29.3467C83.1657 29.2398 83.4656 29.1479 83.6778 29.1604C83.8357 29.1696 84.0045 29.2406 84.0529 29.4052C84.0604 29.4311 84.0579 29.4562 84.0487 29.4979V29.4963Z" fill="url(#paint20_linear_1392_44231)"/>
<path d="M88.0349 28.9655C87.8094 28.4575 87.2438 28.1785 86.7025 28.2211C86.502 28.237 86.5195 28.4976 86.5621 28.6413C86.5629 28.6447 86.5646 28.6472 86.5655 28.6505C86.5112 28.6505 86.4577 28.6689 86.4109 28.7123C86.2179 28.8936 86.0325 29.1317 85.9974 29.4015C85.984 29.506 85.9823 29.6121 85.9949 29.7157C86.0074 29.8176 86.0425 29.907 86.0709 30.0047C86.1051 30.1217 86.1185 30.2344 86.1703 30.3464C86.2246 30.4642 86.2981 30.5728 86.3858 30.6672C86.6114 30.912 86.9347 31.0523 87.2705 31.0239C87.4201 31.0114 87.5345 30.9671 87.6473 30.8735C87.776 30.7666 87.8837 30.6404 87.9648 30.4951C88.0383 30.3631 88.0926 30.2194 88.1285 30.0724C88.1469 29.9972 88.1594 29.922 88.1661 29.8451C88.1728 29.7741 88.1744 29.7031 88.1719 29.6321C88.1644 29.4141 88.1252 29.1677 88.0349 28.9655ZM87.3541 29.45C87.3466 29.5018 87.3332 29.5527 87.3157 29.6029C87.2781 29.709 87.2146 29.8234 87.1218 29.8928C87.0483 29.9195 86.9798 29.9571 86.9172 30.0039C86.8587 30.0239 86.8194 30.0256 86.7534 29.998C86.7217 29.9847 86.6924 29.9679 86.664 29.9487C86.6365 29.9295 86.6097 29.9086 86.5863 29.8852C86.5763 29.8752 86.5663 29.8644 86.5563 29.8535C86.5504 29.8468 86.5354 29.8217 86.5304 29.8184C86.5036 29.7182 86.5713 29.5611 86.6114 29.4767C86.6766 29.3389 86.7267 29.2211 86.8311 29.1016C86.8378 29.0941 86.8428 29.0858 86.8478 29.0774C86.8787 29.0975 86.9121 29.1108 86.9464 29.11C87.0316 29.1075 87.121 29.1233 87.197 29.1609C87.2948 29.2094 87.3692 29.3414 87.3541 29.45Z" fill="url(#paint21_linear_1392_44231)"/>
<path d="M92.108 30.5131C91.834 30.209 91.5533 29.9116 91.2651 29.6209C91.4605 29.25 91.5992 28.8415 91.7346 28.4505C91.8114 28.2283 91.4263 27.8482 91.245 28.0804C91.0946 28.2726 90.9392 28.4597 90.7772 28.6418C90.6961 28.7329 90.6134 28.8206 90.5307 28.91C90.4723 28.8582 90.4121 28.8072 90.3511 28.7579C90.1531 28.6 89.9535 28.4438 89.7538 28.2876C89.6452 28.2032 89.5658 28.3018 89.54 28.4079C89.5049 28.5499 89.5274 28.7387 89.616 28.859C89.7505 29.042 89.8825 29.2266 90.012 29.4129C90.0245 29.4304 90.037 29.448 90.0504 29.4655C89.8031 29.7546 89.5416 30.0311 89.2659 30.2934C89.1782 30.3769 89.1732 30.5716 89.1882 30.6769C89.21 30.8297 89.2918 31.0077 89.3979 31.1213C89.5734 31.3084 89.8783 31.4688 90.0855 31.2324C90.3386 30.9433 90.5775 30.6426 90.8022 30.3318C91.0629 30.6309 91.326 30.9283 91.5884 31.2257C91.7329 31.3903 91.9927 31.2566 92.0921 31.1113C92.2107 30.9367 92.2617 30.6835 92.108 30.5131Z" fill="url(#paint22_linear_1392_44231)"/>
</g>
<defs>
<linearGradient id="paint0_linear_1392_44231" x1="9.53659" y1="16.6815" x2="20.0436" y2="15.6063" gradientUnits="userSpaceOnUse">
<stop stop-color="#FF5F1F"/>
<stop offset="1" stop-color="#FF8C5E"/>
</linearGradient>
<linearGradient id="paint1_linear_1392_44231" x1="25.1405" y1="9.33104" x2="35.1302" y2="8.6875" gradientUnits="userSpaceOnUse">
<stop stop-color="#FF5F1F"/>
<stop offset="1" stop-color="#FF8C5E"/>
</linearGradient>
<linearGradient id="paint2_linear_1392_44231" x1="9.91493" y1="8.75288" x2="19.7324" y2="6.58157" gradientUnits="userSpaceOnUse">
<stop stop-color="#FF5F1F"/>
<stop offset="1" stop-color="#FF8C5E"/>
</linearGradient>
<linearGradient id="paint3_linear_1392_44231" x1="46.1455" y1="15.8397" x2="57.5651" y2="16.1353" gradientUnits="userSpaceOnUse">
<stop stop-color="#FF5F1F"/>
<stop offset="1" stop-color="#FF8C5E"/>
</linearGradient>
<linearGradient id="paint4_linear_1392_44231" x1="63.529" y1="9.00695" x2="73.2087" y2="9.11887" gradientUnits="userSpaceOnUse">
<stop stop-color="#FF5F1F"/>
<stop offset="1" stop-color="#FF8C5E"/>
</linearGradient>
<linearGradient id="paint5_linear_1392_44231" x1="66.4043" y1="14.0702" x2="70.4762" y2="14.0993" gradientUnits="userSpaceOnUse">
<stop stop-color="#FF5F1F"/>
<stop offset="1" stop-color="#FF8C5E"/>
</linearGradient>
<linearGradient id="paint6_linear_1392_44231" x1="63.8274" y1="18.4352" x2="73.1209" y2="18.546" gradientUnits="userSpaceOnUse">
<stop stop-color="#FF5F1F"/>
<stop offset="1" stop-color="#FF8C5E"/>
</linearGradient>
<linearGradient id="paint7_linear_1392_44231" x1="83.7774" y1="10.9142" x2="83.7821" y2="10.9143" gradientUnits="userSpaceOnUse">
<stop stop-color="#FF5F1F"/>
<stop offset="1" stop-color="#FF8C5E"/>
</linearGradient>
<linearGradient id="paint8_linear_1392_44231" x1="79.2634" y1="11.4476" x2="84.0605" y2="11.4607" gradientUnits="userSpaceOnUse">
<stop stop-color="#FF5F1F"/>
<stop offset="1" stop-color="#FF8C5E"/>
</linearGradient>
<linearGradient id="paint9_linear_1392_44231" x1="90.8054" y1="12.4285" x2="90.8322" y2="12.4285" gradientUnits="userSpaceOnUse">
<stop stop-color="#FF5F1F"/>
<stop offset="1" stop-color="#FF8C5E"/>
</linearGradient>
<linearGradient id="paint10_linear_1392_44231" x1="85.2287" y1="11.2664" x2="92.0408" y2="11.293" gradientUnits="userSpaceOnUse">
<stop stop-color="#FF5F1F"/>
<stop offset="1" stop-color="#FF8C5E"/>
</linearGradient>
<linearGradient id="paint11_linear_1392_44231" x1="45.8395" y1="26.9866" x2="48.5278" y2="27.0892" gradientUnits="userSpaceOnUse">
<stop stop-color="#FF5F1F"/>
<stop offset="1" stop-color="#FF8C5E"/>
</linearGradient>
<linearGradient id="paint12_linear_1392_44231" x1="49.3448" y1="28.2575" x2="52.9284" y2="28.5198" gradientUnits="userSpaceOnUse">
<stop stop-color="#FF5F1F"/>
<stop offset="1" stop-color="#FF8C5E"/>
</linearGradient>
<linearGradient id="paint13_linear_1392_44231" x1="53.8187" y1="28.4467" x2="56.2812" y2="28.5837" gradientUnits="userSpaceOnUse">
<stop stop-color="#FF5F1F"/>
<stop offset="1" stop-color="#FF8C5E"/>
</linearGradient>
<linearGradient id="paint14_linear_1392_44231" x1="57.2465" y1="28.4467" x2="59.7089" y2="28.5837" gradientUnits="userSpaceOnUse">
<stop stop-color="#FF5F1F"/>
<stop offset="1" stop-color="#FF8C5E"/>
</linearGradient>
<linearGradient id="paint15_linear_1392_44231" x1="60.6566" y1="27.332" x2="63.2489" y2="27.438" gradientUnits="userSpaceOnUse">
<stop stop-color="#FF5F1F"/>
<stop offset="1" stop-color="#FF8C5E"/>
</linearGradient>
<linearGradient id="paint16_linear_1392_44231" x1="66.9948" y1="27.3364" x2="68.246" y2="27.443" gradientUnits="userSpaceOnUse">
<stop stop-color="#FF5F1F"/>
<stop offset="1" stop-color="#FF8C5E"/>
</linearGradient>
<linearGradient id="paint17_linear_1392_44231" x1="67.086" y1="28.595" x2="68.0399" y2="28.6152" gradientUnits="userSpaceOnUse">
<stop stop-color="#FF5F1F"/>
<stop offset="1" stop-color="#FF8C5E"/>
</linearGradient>
<linearGradient id="paint18_linear_1392_44231" x1="69.3591" y1="28.5554" x2="72.0468" y2="28.7193" gradientUnits="userSpaceOnUse">
<stop stop-color="#FF5F1F"/>
<stop offset="1" stop-color="#FF8C5E"/>
</linearGradient>
<linearGradient id="paint19_linear_1392_44231" x1="75.722" y1="28.5428" x2="78.6428" y2="28.7454" gradientUnits="userSpaceOnUse">
<stop stop-color="#FF5F1F"/>
<stop offset="1" stop-color="#FF8C5E"/>
</linearGradient>
<linearGradient id="paint20_linear_1392_44231" x1="82.2783" y1="27.1171" x2="85.0536" y2="27.2315" gradientUnits="userSpaceOnUse">
<stop stop-color="#FF5F1F"/>
<stop offset="1" stop-color="#FF8C5E"/>
</linearGradient>
<linearGradient id="paint21_linear_1392_44231" x1="86.0194" y1="28.4165" x2="88.3055" y2="28.5351" gradientUnits="userSpaceOnUse">
<stop stop-color="#FF5F1F"/>
<stop offset="1" stop-color="#FF8C5E"/>
</linearGradient>
<linearGradient id="paint22_linear_1392_44231" x1="89.2273" y1="28.2453" x2="92.3837" y2="28.4356" gradientUnits="userSpaceOnUse">
<stop stop-color="#FF5F1F"/>
<stop offset="1" stop-color="#FF8C5E"/>
</linearGradient>
<clipPath id="clip0_1392_44231">
<rect width="100" height="40" fill="white"/>
</clipPath>
</defs>
</svg>
