<svg width="175" height="56" viewBox="0 0 175 56" fill="none" xmlns="http://www.w3.org/2000/svg">
<path d="M158.814 55.0977C158.775 55.0977 158.6 55.0586 158.287 54.9805C157.701 54.7852 157.33 54.707 157.174 54.7461C156.861 54.7852 156.646 54.8047 156.529 54.8047C156.412 54.8047 156.295 54.7656 156.178 54.6875C155.553 54.5312 154.967 53.9453 154.42 52.9297C154.029 52.2656 153.717 51.4648 153.482 50.5273C153.404 50.2148 153.248 49.7852 153.014 49.2383C152.779 48.6523 152.643 48.2812 152.604 48.125C152.447 47.7344 152.35 47.3047 152.311 46.8359C152.271 46.6406 152.291 46.4648 152.369 46.3086L152.545 46.1914H153.189L153.775 46.25C153.893 46.25 154.068 46.2891 154.303 46.3672C154.42 46.4453 154.576 46.6016 154.771 46.8359C154.889 46.875 155.064 47.0117 155.299 47.2461L155.709 47.832L156.002 48.2422C156.08 48.3594 156.158 48.418 156.236 48.418C156.314 48.418 156.471 48.3398 156.705 48.1836C157.486 47.5977 158.014 47.1289 158.287 46.7773C158.326 46.543 158.424 46.3477 158.58 46.1914C158.658 46.0742 158.717 45.957 158.756 45.8398C158.834 45.6836 158.912 45.5469 158.99 45.4297C158.99 45.3516 159.068 45.1953 159.225 44.9609C159.459 44.7266 159.576 44.4727 159.576 44.1992C159.537 44.1602 159.4 44.1211 159.166 44.082H158.229C157.33 44.082 156.803 44.0625 156.646 44.0234C156.607 43.9844 156.49 43.9844 156.295 44.0234C156.178 44.0625 156.002 44.082 155.768 44.082C155.572 44.043 155.338 44.0234 155.064 44.0234C154.83 44.0234 154.635 44.043 154.479 44.082C154.322 44.082 154.225 44.0625 154.186 44.0234C154.107 43.9844 153.893 43.9648 153.541 43.9648C152.799 43.9648 152.35 43.9258 152.193 43.8477C152.115 43.7695 152.018 43.7305 151.9 43.7305C151.822 43.6914 151.744 43.6719 151.666 43.6719C151.627 43.6719 151.588 43.6523 151.549 43.6133H151.139L150.436 43.4375C150.396 43.3984 150.201 43.3398 149.85 43.2617C148.99 43.1055 148.443 42.9492 148.209 42.793L147.74 42.5586L147.096 42.207L146.979 42.0898V39.9805C146.979 39.7461 146.998 39.5312 147.037 39.3359C147.076 39.1016 147.096 38.9648 147.096 38.9258L147.154 38.5156V38.1055L147.33 37.9883L147.799 37.8711C148.15 37.8711 148.365 37.832 148.443 37.7539C148.443 37.6758 148.561 37.5781 148.795 37.4609C148.834 37.4609 148.873 37.4414 148.912 37.4023C148.951 37.3633 149.01 37.3438 149.088 37.3438C149.166 37.3438 149.264 37.2852 149.381 37.168H149.908L150.201 37.1094C150.24 37.0703 150.416 37.0312 150.729 36.9922C151.08 36.9141 151.393 36.875 151.666 36.875L152.252 36.8164C152.291 36.7773 152.447 36.7383 152.721 36.6992C152.994 36.6211 153.209 36.582 153.365 36.582C153.6 36.582 153.795 36.5625 153.951 36.5234H154.361C154.947 36.5234 155.377 36.4648 155.65 36.3477C155.689 36.3086 156.021 36.2891 156.646 36.2891C157.271 36.25 157.604 36.2109 157.643 36.1719V35.9375L157.584 35L157.525 34.2383L157.467 33.8867C157.467 33.6133 157.545 33.3984 157.701 33.2422C157.74 33.2031 157.799 33.1641 157.877 33.125C157.955 33.0469 157.994 32.9883 157.994 32.9492C158.072 32.793 158.111 32.5977 158.111 32.3633C158.072 32.2852 157.994 32.2461 157.877 32.2461C157.799 32.207 157.662 32.1875 157.467 32.1875C156.998 32.1875 156.646 32.1289 156.412 32.0117L156.061 31.8359C155.943 31.8359 155.865 31.8164 155.826 31.7773C155.787 31.6992 155.768 31.6016 155.768 31.4844L155.592 30.2539L155.475 29.7852V29.6094C155.475 29.375 155.553 29.1406 155.709 28.9062C155.787 28.8672 155.865 28.7695 155.943 28.6133C155.943 28.5742 155.982 28.5352 156.061 28.4961C156.139 28.418 156.197 28.3789 156.236 28.3789C156.432 28.3398 156.666 28.2812 156.939 28.2031C157.252 28.125 157.486 28.0469 157.643 27.9688L158.229 27.8516H158.697C159.4 27.8516 159.947 27.9102 160.338 28.0273C160.572 28.1055 160.846 28.2227 161.158 28.3789C161.51 28.5352 161.803 28.7109 162.037 28.9062C162.154 29.0234 162.271 29.1602 162.389 29.3164C162.506 29.4336 162.584 29.5703 162.623 29.7266L162.74 30.0781C162.779 30.3125 162.799 30.8789 162.799 31.7773C162.76 31.9336 162.74 32.2266 162.74 32.6562C162.74 33.0859 162.662 33.5156 162.506 33.9453C162.389 34.3359 162.154 34.8438 161.803 35.4688L161.627 35.7031C161.51 35.8594 161.451 35.957 161.451 35.9961C161.646 36.0352 162.018 36.0352 162.564 35.9961C162.76 35.957 163.58 35.9375 165.025 35.9375C166.51 35.9375 167.35 35.957 167.545 35.9961C167.701 36.0352 168.131 36.0547 168.834 36.0547C169.889 36.1328 170.67 36.2695 171.178 36.4648L172.584 36.9922C172.662 37.0703 172.779 37.1484 172.936 37.2266L173.99 38.0469L174.049 38.457C174.088 38.6133 174.088 38.7305 174.049 38.8086C174.01 38.9258 174.01 39.082 174.049 39.2773C174.088 39.5898 174.088 39.8438 174.049 40.0391C174.049 40.0781 174.029 40.1367 173.99 40.2148C173.951 40.293 173.912 40.3516 173.873 40.3906L173.814 40.8008L173.697 41.3867C173.619 41.6211 173.58 41.8555 173.58 42.0898C173.58 42.4414 173.502 42.6953 173.346 42.8516C173.189 42.9688 173.072 43.0273 172.994 43.0273L172.701 43.1445C172.311 43.3008 172.018 43.3398 171.822 43.2617C171.666 43.2617 171.549 43.2812 171.471 43.3203H171.002L170.357 43.3789C170.123 43.457 169.869 43.4961 169.596 43.4961C169.518 43.5352 169.4 43.5742 169.244 43.6133C169.088 43.6133 168.971 43.6328 168.893 43.6719C168.814 43.6719 168.717 43.6914 168.6 43.7305C168.482 43.7305 168.346 43.7109 168.189 43.6719C167.877 43.6719 167.701 43.6914 167.662 43.7305C167.584 43.8086 167.271 43.8672 166.725 43.9062C166.217 43.9062 165.826 43.9062 165.553 43.9062C164.381 43.9062 163.697 43.9648 163.502 44.082C163.463 44.082 163.424 44.1602 163.385 44.3164C163.346 44.4336 163.326 44.668 163.326 45.0195L163.209 46.4844C163.17 46.6016 163.131 46.7188 163.092 46.8359C163.053 46.9531 163.014 47.0508 162.975 47.1289L162.916 47.8906L162.799 48.418L162.623 49.2969L162.096 51.2305C162.018 51.3086 161.939 51.4453 161.861 51.6406C161.783 51.8359 161.725 51.9727 161.686 52.0508C161.295 52.793 161.041 53.2617 160.924 53.457C160.846 53.5352 160.787 53.6133 160.748 53.6914C160.709 53.8086 160.689 53.8867 160.689 53.9258L160.338 54.2773C160.143 54.4727 160.045 54.6094 160.045 54.6875C159.928 54.8047 159.771 54.9023 159.576 54.9805C159.381 55.0586 159.186 55.0977 158.99 55.0977H158.814ZM146.92 9.62891C146.959 9.39453 146.979 8.86719 146.979 8.04688C146.979 7.77344 146.998 7.51953 147.037 7.28516C147.076 7.01172 147.096 6.85547 147.096 6.81641C147.135 6.54297 147.135 6.28906 147.096 6.05469C147.096 5.97656 147.115 5.91797 147.154 5.87891C147.311 5.80078 147.584 5.70312 147.975 5.58594C148.365 5.46875 148.814 5.39062 149.322 5.35156L149.791 5.29297C149.83 5.25391 149.889 5.23438 149.967 5.23438C150.084 5.19531 150.162 5.15625 150.201 5.11719C150.475 5.11719 150.67 5.09766 150.787 5.05859L152.896 4.76562C153.404 4.76562 153.775 4.74609 154.01 4.70703C154.205 4.70703 154.342 4.6875 154.42 4.64844C154.537 4.60938 154.615 4.58984 154.654 4.58984H155.709C156.256 4.58984 156.764 4.57031 157.232 4.53125C157.74 4.45312 158.092 4.39453 158.287 4.35547L158.346 4.23828C158.385 4.00391 158.404 3.67188 158.404 3.24219C158.443 2.77344 158.443 2.38281 158.404 2.07031C158.404 1.75781 158.463 1.38672 158.58 0.957031C158.697 0.527344 158.834 0.292969 158.99 0.253906L159.166 0.195312C159.322 0.195312 159.479 0.234375 159.635 0.3125C159.83 0.351562 159.986 0.429688 160.104 0.546875C160.182 0.585938 160.338 0.722656 160.572 0.957031C160.768 1.11328 160.924 1.28906 161.041 1.48438C161.119 1.71875 161.217 2.1875 161.334 2.89062L161.451 3.76953C161.451 4.08203 161.51 4.23828 161.627 4.23828C161.666 4.35547 162.057 4.41406 162.799 4.41406C163.893 4.41406 165.025 4.47266 166.197 4.58984C166.275 4.58984 166.354 4.60938 166.432 4.64844C166.549 4.6875 166.686 4.70703 166.842 4.70703C167.311 4.78516 167.857 4.90234 168.482 5.05859C169.225 5.21484 169.791 5.42969 170.182 5.70312L170.768 5.99609C171.275 6.23047 171.549 6.40625 171.588 6.52344C171.666 6.91406 171.686 7.1875 171.646 7.34375C171.646 7.5 171.666 7.63672 171.705 7.75391C171.744 7.91016 171.725 8.10547 171.646 8.33984L171.529 9.04297C171.529 9.35547 171.49 9.55078 171.412 9.62891C171.373 9.74609 171.354 9.94141 171.354 10.2148V10.625C171.314 10.7031 171.197 10.8203 171.002 10.9766C170.846 11.0938 170.709 11.1914 170.592 11.2695C170.475 11.3086 170.338 11.3281 170.182 11.3281H169.83C169.205 11.3281 168.834 11.3477 168.717 11.3867L168.072 11.4453C167.955 11.4844 167.838 11.5234 167.721 11.5625C167.643 11.6016 167.564 11.6211 167.486 11.6211L166.549 11.6797C166.197 11.6797 165.943 11.6992 165.787 11.7383C165.631 11.7383 165.533 11.7383 165.494 11.7383C165.377 11.8164 165.045 11.8555 164.498 11.8555C164.186 11.8945 163.717 11.9141 163.092 11.9141C162.896 11.9531 162.428 11.9727 161.686 11.9727L160.514 12.0312C160.475 12.0703 160.416 12.0898 160.338 12.0898C160.299 12.0508 160.26 12.0312 160.221 12.0312C160.064 11.9922 159.83 11.9922 159.518 12.0312C159.283 12.0703 158.971 12.0898 158.58 12.0898L156.295 12.0312C156.256 11.9531 156.139 11.9531 155.943 12.0312C155.709 12.0703 155.533 12.0703 155.416 12.0312L155.123 11.9727C155.006 11.9727 154.791 12.0117 154.479 12.0898H154.186C154.107 12.0117 154.049 11.9727 154.01 11.9727H153.717C153.521 11.8945 153.287 11.8359 153.014 11.7969C152.74 11.7578 152.486 11.7578 152.252 11.7969C152.135 11.8359 152.018 11.8164 151.9 11.7383C151.822 11.6992 151.646 11.6797 151.373 11.6797C151.139 11.6797 150.982 11.6602 150.904 11.6211C150.865 11.582 150.689 11.5234 150.377 11.4453C150.182 11.4453 150.084 11.4258 150.084 11.3867C149.811 11.3867 149.596 11.3672 149.439 11.3281H148.912L148.678 11.0938C148.404 10.8203 148.131 10.6641 147.857 10.625L146.92 10.2734L146.861 10.1562L146.92 9.62891ZM153.307 18.0664C153.268 17.0898 153.346 16.1719 153.541 15.3125C153.658 14.9609 153.971 14.5312 154.479 14.0234L154.713 13.8477C154.752 13.7695 154.811 13.7109 154.889 13.6719C155.006 13.6328 155.123 13.6133 155.24 13.6133C155.436 13.6133 155.611 13.5742 155.768 13.4961C156.549 13.3008 157.232 13.2031 157.818 13.2031L160.338 13.1445C161.041 13.1445 161.529 13.1641 161.803 13.2031C162.115 13.2031 162.35 13.2422 162.506 13.3203L162.916 13.3789C163.307 13.5352 163.814 13.7695 164.439 14.082C164.791 14.2773 164.986 14.4336 165.025 14.5508C165.299 14.8242 165.455 15.3711 165.494 16.1914L165.553 16.7188C165.553 16.7578 165.533 17.4805 165.494 18.8867C165.455 20.332 165.396 21.1523 165.318 21.3477L165.26 21.875C165.143 22.8125 164.947 23.5742 164.674 24.1602C164.518 24.5117 164.361 24.8047 164.205 25.0391L163.561 25.4492L163.092 25.8594C162.857 26.0156 162.721 26.1328 162.682 26.2109C162.604 26.2109 162.545 26.2305 162.506 26.2695L161.92 26.3867C161.529 26.3867 161.314 26.4062 161.275 26.4453L161.041 26.5039C160.963 26.5039 160.885 26.543 160.807 26.6211C160.729 26.6602 160.65 26.6797 160.572 26.6797C160.455 26.7578 160.299 26.7969 160.104 26.7969C159.869 26.7969 159.654 26.8359 159.459 26.9141C159.186 26.9922 158.873 27.0312 158.521 27.0312C158.443 27.0703 158.326 27.1094 158.17 27.1484C158.053 27.1484 157.955 27.168 157.877 27.207C157.721 27.2461 157.584 27.2266 157.467 27.1484C157.389 27.1094 157.252 27.0898 157.057 27.0898C157.018 27.1289 156.959 27.1484 156.881 27.1484C156.725 27.1484 156.549 27.0508 156.354 26.8555C156.119 26.6211 155.904 26.5039 155.709 26.5039C155.475 26.5039 155.24 26.4453 155.006 26.3281C154.85 26.2891 154.752 26.2305 154.713 26.1523C154.674 26.0742 154.654 25.9375 154.654 25.7422C154.654 25.5859 154.615 25.4297 154.537 25.2734L154.479 25.0977L154.244 25.0391C154.088 25.0391 153.99 25 153.951 24.9219C153.795 24.8047 153.717 24.3164 153.717 23.457C153.678 23.3008 153.658 23.1445 153.658 22.9883C153.658 22.793 153.639 22.6562 153.6 22.5781L153.541 21.6406C153.541 21.2109 153.502 20.918 153.424 20.7617C153.346 20.5273 153.307 19.9414 153.307 19.0039V18.0664ZM157.174 21.5234H158.814C159.869 21.5234 160.436 21.5039 160.514 21.4648C160.982 21.3086 161.451 20.6641 161.92 19.5312C161.998 19.375 162.037 19.1992 162.037 19.0039C162.037 18.8867 161.998 18.7695 161.92 18.6523C161.842 18.5742 161.764 18.5352 161.686 18.5352C161.295 18.457 160.943 18.457 160.631 18.5352H160.162C159.85 18.5352 159.635 18.5547 159.518 18.5938L158.873 18.6523L158.58 18.7109C158.541 18.75 158.482 18.7695 158.404 18.7695C158.365 18.7695 158.326 18.7891 158.287 18.8281C158.209 18.8281 157.838 18.9453 157.174 19.1797L157.057 19.2969V21.4648L157.174 21.5234Z" fill="#4A443D"/>
<path d="M105.26 51.875C105.221 51.875 105.162 51.8359 105.084 51.7578C105.084 51.6406 104.986 51.4844 104.791 51.2891C104.635 51.1328 104.303 50.9766 103.795 50.8203C103.287 50.6641 102.896 50.5664 102.623 50.5273H102.506C102.545 50.4883 102.564 50.4102 102.564 50.293V48.7695C102.564 48.5352 102.564 48.2812 102.564 48.0078C102.604 47.6953 102.604 47.4805 102.564 47.3633L102.623 46.7188C102.701 46.4453 102.682 46.2109 102.564 46.0156C102.525 45.9375 102.525 45.8789 102.564 45.8398C102.643 45.5273 102.682 45.293 102.682 45.1367V45.0781C102.682 45.0781 102.643 45.0781 102.564 45.0781L102.506 44.9023L102.623 44.1406L103.209 43.6719C103.287 43.5938 103.365 43.5156 103.443 43.4375C103.561 43.3594 103.658 43.3203 103.736 43.3203C103.736 43.2812 103.775 43.2617 103.854 43.2617C103.893 43.2617 103.893 43.2422 103.854 43.2031C103.854 43.1641 104.107 43.0469 104.615 42.8516L104.908 42.6172L105.436 42.207C105.475 42.168 105.494 42.1484 105.494 42.1484L105.67 42.0312L106.139 41.5039L106.197 41.4453C106.275 41.4062 106.393 41.3086 106.549 41.1523L106.607 41.0938C106.725 40.9766 106.92 40.8594 107.193 40.7422C107.467 40.5859 107.643 40.4102 107.721 40.2148L107.955 39.8633L109.186 38.5742V38.5156C109.342 38.3594 109.518 38.1445 109.713 37.8711C109.908 37.5586 110.045 37.3242 110.123 37.168C110.123 37.1289 110.162 37.0703 110.24 36.9922C110.24 36.9922 110.318 36.9141 110.475 36.7578L110.885 36.0547C111.002 36.0156 111.1 35.918 111.178 35.7617C111.178 35.7617 111.275 35.6641 111.471 35.4688C111.627 35.3516 111.744 35.1953 111.822 35C112.174 34.2969 112.506 33.7891 112.818 33.4766L113.111 33.1836V33.125L113.229 33.0078C113.385 32.6953 113.482 32.4414 113.521 32.2461C113.561 32.0508 113.521 31.8945 113.404 31.7773C113.287 31.6602 113.111 31.6016 112.877 31.6016C112.643 31.5625 112.369 31.543 112.057 31.543H111.412C111.334 31.4648 111.178 31.3867 110.943 31.3086L110.709 31.0742C110.396 30.7617 110.084 30.6055 109.771 30.6055C109.186 30.6055 108.971 29.9414 109.127 28.6133V26.7383C109.088 26.543 109.049 26.4062 109.01 26.3281C109.01 26.2109 109.029 26.1523 109.068 26.1523C109.107 26.1133 109.186 26.0742 109.303 26.0352C109.732 25.7617 109.928 25.625 109.889 25.625C109.967 25.625 110.084 25.5859 110.24 25.5078L110.416 25.4492C110.455 25.4492 110.514 25.4297 110.592 25.3906C110.709 25.3516 110.865 25.3125 111.061 25.2734L111.939 24.9805C112.252 24.8633 112.428 24.7852 112.467 24.7461H112.525C112.643 24.7461 112.779 24.707 112.936 24.6289L113.932 24.3945L114.166 24.3359H114.225C114.498 24.3359 114.713 24.3164 114.869 24.2773C115.064 24.2773 115.279 24.2188 115.514 24.1016C115.67 24.0234 115.846 23.9648 116.041 23.9258C116.236 23.8867 116.373 23.8672 116.451 23.8672L118.268 23.6914C118.385 23.6523 118.658 23.6328 119.088 23.6328L120.025 23.5742C120.416 23.5742 120.67 23.5547 120.787 23.5156C121.178 23.5938 121.393 23.6523 121.432 23.6914H121.725C121.803 23.7305 121.939 23.75 122.135 23.75L123.248 23.9258L123.424 23.9844L123.541 24.043L123.775 24.1016C123.893 24.1016 124.029 24.1602 124.186 24.2773L126.002 24.7461L126.295 24.9219L126.646 25.0391L126.764 25.1562L127.232 25.3906C127.311 25.4688 127.35 25.5859 127.35 25.7422C127.428 25.8594 127.506 26.0352 127.584 26.2695C127.662 26.5039 127.682 26.6797 127.643 26.7969C127.682 26.875 127.701 26.9727 127.701 27.0898L127.877 27.9688C127.955 28.2031 127.975 28.6328 127.936 29.2578L128.053 31.0742V31.25C128.053 31.6797 128.014 32.1875 127.936 32.7734C127.896 33.3594 127.857 33.7891 127.818 34.0625V34.4727C127.779 34.5898 127.76 34.7656 127.76 35L127.525 35.6445V35.7031L127.467 36.1133V36.3477C127.428 36.3867 127.408 36.4453 127.408 36.5234L127.35 36.8164C127.35 36.8945 127.33 36.9531 127.291 36.9922V37.3438C127.252 37.3828 127.232 37.4414 127.232 37.5195L127.115 38.0469L127.057 38.5156C126.861 38.8281 126.666 39.5117 126.471 40.5664L126.236 41.7383C126.236 41.8164 126.217 41.875 126.178 41.9141C126.061 42.1875 125.963 42.4805 125.885 42.793C125.885 42.8711 125.865 42.9297 125.826 42.9688L125.768 43.3203L125.709 43.5547V43.6719L125.65 43.7305C125.65 43.8086 125.631 43.9062 125.592 44.0234C125.553 44.1016 125.533 44.1992 125.533 44.3164L125.357 44.7852L125.299 45.0195L125.182 45.4297L124.889 46.1328C124.732 46.6016 124.596 46.9922 124.479 47.3047C124.439 47.4609 124.361 47.5977 124.244 47.7148L124.01 48.1836L123.6 48.6523L123.307 48.8867L121.607 49.3555H121.197C121.08 49.3164 120.943 49.2578 120.787 49.1797C120.631 49.0625 120.494 48.9258 120.377 48.7695L119.498 48.418L119.264 48.3594H119.146C118.678 48.125 118.326 47.8906 118.092 47.6562L118.033 47.5977H118.092L117.857 47.3047L117.682 47.0117C117.682 46.9727 117.662 46.9531 117.623 46.9531C117.623 46.9141 117.623 46.875 117.623 46.8359L117.33 46.1914L117.037 45.2539L116.979 44.8438L116.92 44.668L116.803 44.1992C116.725 43.9648 116.686 43.6133 116.686 43.1445C116.646 42.9102 116.627 42.6367 116.627 42.3242C116.666 41.9727 116.666 41.6992 116.627 41.5039L116.568 40.9766V40.918L116.393 40.5664V40.4492C116.393 40.2539 116.51 40.1562 116.744 40.1562C117.135 40.1562 117.525 40.4297 117.916 40.9766C118.033 41.0156 118.15 41.1328 118.268 41.3281C118.58 41.9141 118.893 42.207 119.205 42.207C119.479 42.207 119.752 42.0117 120.025 41.6211C120.143 41.4648 120.26 41.2891 120.377 41.0938C120.533 40.8594 120.65 40.625 120.729 40.3906L120.787 40.2148C120.787 40.2539 120.807 40.2344 120.846 40.1562L120.904 39.9805C121.139 39.5508 121.275 39.2188 121.314 38.9844L121.432 38.6328L121.607 38.2812C121.607 38.2031 121.627 38.1641 121.666 38.1641C121.666 38.0078 121.705 37.8125 121.783 37.5781L121.9 37.1094L122.135 36.2891L122.193 36.0547L122.486 35.1172L122.604 34.1211C122.721 33.7305 122.799 33.4375 122.838 33.2422L122.896 33.0078V32.8906L122.955 32.7148L123.014 32.2461C123.053 32.168 123.072 32.0508 123.072 31.8945C123.072 31.7383 122.994 31.582 122.838 31.4258L122.604 31.1328L120.611 31.0742L119.791 31.1328C119.596 31.1328 119.439 31.1523 119.322 31.1914H118.971C118.619 31.1914 118.385 31.2305 118.268 31.3086C118.15 31.3477 118.053 31.4844 117.975 31.7188V31.7773C117.936 31.8164 117.896 31.8945 117.857 32.0117C117.857 32.0898 117.838 32.1484 117.799 32.1875C117.721 32.4219 117.682 32.6172 117.682 32.7734C117.643 32.8516 117.623 32.9492 117.623 33.0664C117.623 33.1445 117.604 33.2227 117.564 33.3008L117.506 33.5352C117.467 33.7695 117.389 34.0625 117.271 34.4141C117.271 34.6094 117.232 34.7852 117.154 34.9414C117.076 35.2539 116.9 35.7031 116.627 36.2891L116.51 36.582L116.451 36.9336L116.275 37.3438L116.041 37.9883L115.924 38.1641V38.2227L115.162 39.7461L114.986 40.1562L114.693 40.9766L114.283 41.6797L114.049 42.0312L113.814 42.6172L113.58 42.9688L113.346 43.5547L113.111 43.9648L113.053 44.1992L112.76 44.7266L112.701 44.8438L112.525 45.0781L112.408 45.2539L112.174 45.5469L111.998 45.7812C111.607 46.4844 111.373 46.875 111.295 46.9531L110.943 47.4805L110.592 47.8906L110.299 48.2422C110.299 48.2422 110.279 48.2617 110.24 48.3008C110.162 48.3789 110.123 48.4375 110.123 48.4766L110.006 48.5938V48.5352L109.713 48.8281C109.674 48.9062 109.537 49.0234 109.303 49.1797C108.639 49.8438 108.307 50.1758 108.307 50.1758L107.721 50.6445L107.486 50.7617H107.428L107.193 50.9961C107.193 50.9961 107.193 50.9766 107.193 50.9375L107.018 51.1133C106.939 51.1523 106.783 51.2305 106.549 51.3477C106.354 51.4648 106.217 51.5234 106.139 51.5234C105.904 51.6016 105.611 51.7188 105.26 51.875ZM99.9863 17.7734C100.299 17.3438 100.65 16.9727 101.041 16.6602H101.158L101.393 16.4844C101.432 16.4844 101.49 16.4453 101.568 16.3672C101.92 16.1328 102.115 15.9375 102.154 15.7812H102.213L102.506 15.6055L102.74 15.3711H102.799L102.916 15.3125L104.088 14.668C104.322 14.5117 104.459 14.4336 104.498 14.4336C104.771 14.1992 104.986 14.0625 105.143 14.0234C105.299 13.9453 105.514 13.9062 105.787 13.9062L106.373 13.5547C106.49 13.5156 106.646 13.3203 106.842 12.9688L106.959 12.8516V12.793C106.998 12.793 107.018 12.7734 107.018 12.7344H107.135L107.486 12.3828L107.662 12.2656L110.533 9.80469C110.611 9.64844 110.729 9.49219 110.885 9.33594C111.08 9.14062 111.256 9.02344 111.412 8.98438L111.588 8.92578L113.404 9.33594H113.463L113.58 9.45312L113.814 9.57031C113.854 9.57031 113.873 9.55078 113.873 9.51172L114.107 9.6875C114.107 9.6875 114.107 9.72656 114.107 9.80469C114.107 9.88281 114.107 10 114.107 10.1562C114.186 10.7812 114.166 11.582 114.049 12.5586L113.814 14.2578C113.658 14.8438 113.424 15.4492 113.111 16.0742C112.877 16.543 112.701 16.8359 112.584 16.9531L112.525 17.1875C112.486 17.2266 112.486 17.2461 112.525 17.2461L112.408 17.3633L112.35 17.4805L112.232 17.7734L112.174 17.832L112.115 17.9492L111.822 18.3594C111.744 18.4766 111.686 18.5547 111.646 18.5938C111.607 18.6328 111.588 18.6719 111.588 18.7109C111.314 18.9844 111.119 19.2383 111.002 19.4727C110.963 19.5898 110.865 19.7266 110.709 19.8828C110.475 20.1172 110.338 20.2734 110.299 20.3516C110.064 20.7031 109.83 20.9961 109.596 21.2305L108.951 21.875L108.482 22.4023L108.307 22.5195L108.014 22.8711C107.936 22.9883 107.74 23.1836 107.428 23.457L106.607 24.2188L106.373 24.4531L106.08 24.6875L105.201 25.5664L104.967 25.7422C104.811 25.8594 104.635 25.9961 104.439 26.1523C104.283 26.3086 104.186 26.3867 104.146 26.3867L102.799 26.0938L102.564 25.8594H102.506L102.447 25.8008C102.213 25.5664 101.881 25.4688 101.451 25.5078C101.373 25.5469 101.314 25.5469 101.275 25.5078L101.041 25.2148L100.396 25.1562C100.318 24.9609 100.26 24.707 100.221 24.3945C100.221 24.043 100.221 23.7891 100.221 23.6328L100.162 22.9883C100.24 22.8711 100.279 22.5586 100.279 22.0508C100.279 21.4648 100.26 20.9766 100.221 20.5859V20.2344L100.104 19.4727L100.279 18.7109V18.5352C100.279 18.3398 100.182 18.1641 99.9863 18.0078V17.7734ZM102.447 50.5273C102.486 50.5664 102.506 50.5664 102.506 50.5273H102.447ZM121.139 10.4492C121.139 10.0977 121.139 9.86328 121.139 9.74609C121.178 9.58984 121.197 9.47266 121.197 9.39453V9.33594C121.236 9.25781 121.51 9.16016 122.018 9.04297C122.564 8.88672 122.955 8.80859 123.189 8.80859L124.127 9.04297C124.205 9.08203 124.264 9.12109 124.303 9.16016C124.342 9.16016 124.381 9.17969 124.42 9.21875L125.65 9.86328L126.061 10.0391C126.256 10.1172 126.646 10.332 127.232 10.6836L127.701 10.9766L128.17 11.3867L128.814 11.7383L129.225 11.9727L129.342 12.0898C130.045 12.4805 130.611 12.7539 131.041 12.9102L132.271 13.3203L132.623 13.3789C132.857 13.457 133.072 13.4961 133.268 13.4961C133.346 13.4961 133.404 13.5156 133.443 13.5547H133.561L133.854 13.6133C133.932 13.5352 134.576 13.75 135.787 14.2578C136.529 14.5703 136.939 14.7656 137.018 14.8438L137.311 15.1367L137.721 15.3711L138.365 15.8398L138.482 15.957C138.561 16.0352 138.717 16.1133 138.951 16.1914L139.127 16.4844C139.127 16.7188 139.166 16.8945 139.244 17.0117L139.127 17.4805C139.127 17.9102 139.146 18.2422 139.186 18.4766C139.264 18.5938 139.244 18.75 139.127 18.9453L139.01 19.4727L138.951 19.9414C138.834 20.0586 138.814 20.293 138.893 20.6445L138.834 20.8789L138.6 21.2891L138.482 21.6406L138.424 22.2266C138.424 22.7344 138.404 23.0078 138.365 23.0469L138.131 23.3398C138.131 23.3398 138.072 23.3984 137.955 23.5156H137.838L137.486 23.8672H137.428L136.08 23.75L135.846 23.8086L134.967 23.6914C134.811 23.6914 134.693 23.6523 134.615 23.5742L134.381 23.457C133.912 23.418 133.639 23.3594 133.561 23.2812H133.443C133.326 23.2812 133.17 23.2422 132.975 23.1641C132.818 23.0469 132.721 22.9883 132.682 22.9883C132.525 22.9492 132.271 22.8516 131.92 22.6953C131.568 22.5391 131.295 22.4023 131.1 22.2852C130.943 22.207 130.846 22.1289 130.807 22.0508L128.287 20.6445C128.287 20.6445 128.268 20.6445 128.229 20.6445C128.229 20.6055 128.229 20.5859 128.229 20.5859C128.072 20.5078 127.955 20.4297 127.877 20.3516C127.76 20.2344 127.643 20.1367 127.525 20.0586C127.408 19.9805 127.311 19.9023 127.232 19.8242C127.115 19.7852 126.998 19.7461 126.881 19.707C126.803 19.6289 126.725 19.5703 126.646 19.5312C126.529 19.4141 126.451 19.3555 126.412 19.3555L126.178 19.2969C126.178 19.2969 126.08 19.2188 125.885 19.0625L124.947 18.3594C124.439 17.9688 123.971 17.5391 123.541 17.0703C123.346 16.9141 123.17 16.7383 123.014 16.543C123.014 16.543 122.994 16.543 122.955 16.543C122.955 16.5039 122.955 16.4844 122.955 16.4844L122.604 16.0156C122.486 15.9375 122.311 15.7031 122.076 15.3125C121.842 14.8828 121.666 14.6094 121.549 14.4922L121.021 13.1445C120.943 12.9883 120.904 12.7539 120.904 12.4414L121.139 10.4492Z" fill="#4A443D"/>
<path d="M82.8184 52.5781C82.7012 52.5781 82.584 52.4805 82.4668 52.2852L82.1152 51.8164C82.1152 51.8164 81.998 51.6992 81.7637 51.4648L81.7051 51.3477L81.4707 51.4648C81.4316 51.543 81.3535 51.582 81.2363 51.582C81.1191 51.582 81.0215 51.543 80.9434 51.4648L80.8262 51.2891L80.6504 51.3477C80.6113 51.3867 80.4941 51.4062 80.2988 51.4062C80.1426 51.4453 80.0254 51.4453 79.9473 51.4062L79.8887 51.2891C79.8105 51.2109 79.7715 50.6055 79.7715 49.4727C79.7324 49.2383 79.7129 49.0039 79.7129 48.7695C79.7129 48.4961 79.6934 48.2617 79.6543 48.0664C79.6543 47.5586 79.6348 47.207 79.5957 47.0117C79.5957 46.2695 79.5566 45.8203 79.4785 45.6641C79.4395 45.5078 79.4199 45.1758 79.4199 44.668C79.4199 44.0039 79.4004 43.5547 79.3613 43.3203C79.3613 42.8125 79.3809 42.4023 79.4199 42.0898V41.3867C79.3809 40.8398 79.3418 40.1367 79.3027 39.2773C79.3027 38.3789 79.3223 37.6953 79.3613 37.2266C79.4004 37.1484 79.4199 36.3867 79.4199 34.9414L79.4785 31.7773V30.957C79.4785 30.7227 79.459 30.5859 79.4199 30.5469C79.3809 30.5078 79.2832 30.4883 79.127 30.4883L78.4824 30.4297L77.7207 30.3711C77.4473 30.332 77.252 30.332 77.1348 30.3711H76.3145C76.1191 30.332 75.8848 30.3125 75.6113 30.3125C75.4551 30.3125 75.3379 30.293 75.2598 30.2539L74.7324 30.1953C74.5371 30.1953 74.3223 30.1562 74.0879 30.0781C73.8926 29.9609 73.7754 29.8828 73.7363 29.8438L73.502 29.7852C73.4629 29.7461 73.3652 29.7266 73.209 29.7266C73.0137 29.7266 72.5059 29.5898 71.6855 29.3164C71.6074 29.2383 71.4316 29.1602 71.1582 29.082C70.8066 29.0039 70.5137 28.8477 70.2793 28.6133C70.2402 28.5742 70.2012 28.3984 70.1621 28.0859C70.123 27.7734 70.123 27.4805 70.1621 27.207V26.7969C70.123 26.7578 70.1035 26.5039 70.1035 26.0352V25.0977C70.1035 24.9414 70.1426 24.8242 70.2207 24.7461C70.416 24.5117 70.7676 24.3359 71.2754 24.2188L71.7441 24.043C71.8223 24.043 71.8809 24.0234 71.9199 23.9844C72.1152 23.8672 72.3887 23.75 72.7402 23.6328C73.1309 23.5156 73.4629 23.4375 73.7363 23.3984L74.6738 23.2227C74.791 23.1055 74.791 22.9102 74.6738 22.6367C74.6738 22.5586 74.6348 22.4609 74.5566 22.3438C74.5176 22.2266 74.498 22.1289 74.498 22.0508L74.3223 21.4648C74.2441 20.8398 74.166 20.4297 74.0879 20.2344L74.0293 19.8828L73.9707 19.1797C73.9316 19.0625 73.9121 18.9648 73.9121 18.8867C73.9121 18.7695 73.8926 18.6719 73.8535 18.5938L73.7363 16.1328L73.6777 15.3125C73.6387 15.1562 73.6191 15 73.6191 14.8438C73.6191 14.6484 73.5996 14.5117 73.5605 14.4336V14.3164C73.5605 14.1211 73.6387 13.9453 73.7949 13.7891L73.9121 13.6719H74.2051C74.4785 13.6719 74.8496 13.7109 75.3184 13.7891C75.7871 13.8672 76.041 13.9648 76.0801 14.082C76.1582 14.1992 76.2168 14.4922 76.2559 14.9609C76.2559 15.1562 76.2754 15.3516 76.3145 15.5469C76.3926 15.7422 76.4902 15.9961 76.6074 16.3086C76.7637 16.582 76.8809 16.7969 76.959 16.9531L77.3105 17.832C77.584 18.457 77.7793 19.0625 77.8965 19.6484L78.1309 20.3516L78.4824 21.4648C78.6777 22.207 78.8145 22.5977 78.8926 22.6367C78.9707 22.6758 79.0684 22.6953 79.1855 22.6953C79.3027 22.6953 79.4199 22.6758 79.5371 22.6367C79.6152 22.5977 79.6738 22.4609 79.7129 22.2266C79.752 21.9531 79.7715 21.5039 79.7715 20.8789L79.8301 19.3555C79.8301 19.3164 79.8301 19.2383 79.8301 19.1211C79.8691 19.0039 79.8887 18.7891 79.8887 18.4766C79.9277 18.1641 79.9473 17.7148 79.9473 17.1289C79.9863 17.0117 80.0059 16.7383 80.0059 16.3086C80.0449 16.1523 80.0645 16.0156 80.0645 15.8984C80.0645 15.7422 80.084 15.6055 80.123 15.4883V14.9023C80.1621 14.8242 80.1816 14.7266 80.1816 14.6094C80.2207 14.4922 80.2598 14.3945 80.2988 14.3164L80.3574 13.7891C80.3965 13.6328 80.3965 13.5352 80.3574 13.4961C80.2793 13.457 80.1816 13.4375 80.0645 13.4375C79.9473 13.4375 79.8301 13.457 79.7129 13.4961L79.3613 13.5547C79.2832 13.5547 79.0879 13.5156 78.7754 13.4375C78.6191 13.3984 78.3848 13.3789 78.0723 13.3789C77.6816 13.3398 77.3887 13.3008 77.1934 13.2617C77.0371 13.1836 76.8613 13.0664 76.666 12.9102C76.5488 12.793 76.4121 12.7148 76.2559 12.6758C76.1387 12.5977 75.9238 12.5195 75.6113 12.4414C75.6113 12.4414 75.4355 12.3828 75.084 12.2656C74.8496 12.0703 74.7129 11.9531 74.6738 11.9141C74.6738 11.875 74.6543 11.8359 74.6152 11.7969C74.6152 11.7578 74.6348 11.6992 74.6738 11.6211V11.4453C74.6738 11.1719 74.6543 10.957 74.6152 10.8008C74.498 10.7227 74.498 10.5273 74.6152 10.2148C74.6152 9.86328 74.5762 9.66797 74.498 9.62891V8.57422C74.498 8.10547 74.4785 7.8125 74.4395 7.69531C74.4395 7.53906 74.4395 7.46094 74.4395 7.46094C74.4004 7.46094 74.3809 7.44141 74.3809 7.40234C74.3809 7.32422 74.3613 7.26562 74.3223 7.22656C74.3223 7.10938 74.3809 6.99219 74.498 6.875C74.6152 6.75781 74.7324 6.69922 74.8496 6.69922L75.1426 6.52344C75.2598 6.48438 75.4551 6.46484 75.7285 6.46484C75.9629 6.46484 76.1191 6.44531 76.1973 6.40625C76.2754 6.32812 76.3926 6.28906 76.5488 6.28906L76.7832 6.17188C76.8223 6.17188 77.0371 6.15234 77.4277 6.11328C77.8184 6.07422 78.0527 6.07422 78.1309 6.11328C78.248 6.11328 78.3262 6.09375 78.3652 6.05469C78.5605 5.97656 78.7754 5.9375 79.0098 5.9375C79.2441 5.89844 79.5762 5.85938 80.0059 5.82031L81.1777 5.76172C81.2559 5.72266 81.5488 5.70312 82.0566 5.70312C82.291 5.66406 82.916 5.64453 83.9316 5.64453C84.8301 5.68359 85.377 5.72266 85.5723 5.76172C86.5488 5.95703 87.252 6.19141 87.6816 6.46484C87.7207 6.50391 87.7793 6.5625 87.8574 6.64062C87.9746 6.67969 88.1113 6.71875 88.2676 6.75781C88.6191 6.95312 88.834 7.14844 88.9121 7.34375C88.9902 7.53906 89.0293 7.8125 89.0293 8.16406C89.0684 8.63281 89.0684 9.0625 89.0293 9.45312C89.0293 9.72656 88.9902 9.94141 88.9121 10.0977C88.834 10.2539 88.7949 10.4883 88.7949 10.8008C88.7949 11.1133 88.7559 11.3086 88.6777 11.3867C88.3262 11.7383 88.1113 11.9336 88.0332 11.9727L87.6816 12.0898L87.3301 12.1484L86.9785 12.2656L86.627 12.3242C86.3535 12.3242 86.0996 12.3828 85.8652 12.5C85.4355 12.6953 85.0254 12.793 84.6348 12.793C84.3223 12.793 84.0879 12.8125 83.9316 12.8516C83.6191 12.9297 83.4238 13.0078 83.3457 13.0859L83.2871 13.2031C83.2871 13.3594 83.3262 13.5547 83.4043 13.7891C83.4434 13.9453 83.4824 14.6484 83.5215 15.8984L83.6387 19.5312L83.7559 19.5898C83.9902 19.5898 84.2246 19.4727 84.459 19.2383C84.6152 19.082 84.7129 18.9258 84.752 18.7695C84.791 18.6523 84.8887 18.5352 85.0449 18.418C85.2012 18.2617 85.377 18.1055 85.5723 17.9492L86.041 17.5391C86.3926 17.1875 86.627 16.9922 86.7441 16.9531L87.3887 16.3086L87.5645 16.0156C87.6426 15.8594 87.7207 15.7812 87.7988 15.7812C87.9551 15.7031 88.1113 15.5469 88.2676 15.3125C88.2676 15.2734 88.3262 15.1953 88.4434 15.0781L89.0293 14.375C89.1465 14.1797 89.3418 14.082 89.6152 14.082C89.7715 14.082 89.9863 14.1602 90.2598 14.3164C90.6895 14.5117 90.9434 14.668 91.0215 14.7852C91.0996 14.9023 91.1582 15.1562 91.1973 15.5469C91.3145 16.0547 91.334 16.6797 91.2559 17.4219L91.1387 18.4766C91.0996 18.7109 90.9238 19.082 90.6113 19.5898C90.3379 20.0977 90.0645 20.5273 89.791 20.8789C89.6348 20.957 89.5176 21.0938 89.4395 21.2891C89.5176 21.25 89.1855 21.5625 88.4434 22.2266L88.2676 22.5195V22.5781C88.2676 22.7344 88.4824 22.832 88.9121 22.8711C89.4199 22.8711 89.9863 22.9492 90.6113 23.1055C90.9629 23.1836 91.334 23.2812 91.7246 23.3984C92.1152 23.5156 92.4473 23.6523 92.7207 23.8086L93.3652 24.2188C93.873 24.4531 94.2051 24.668 94.3613 24.8633C94.5176 25.0586 94.5762 25.332 94.5371 25.6836C94.5371 25.8789 94.5566 26.0547 94.5957 26.2109L94.6543 26.5625C94.6152 26.5625 94.5957 26.7969 94.5957 27.2656C94.5957 27.6562 94.5566 27.9297 94.4785 28.0859C94.4004 28.3594 94.4004 28.6133 94.4785 28.8477V29.0234C94.4785 29.2188 94.4199 29.375 94.3027 29.4922C94.1074 29.6875 94.0098 29.7852 94.0098 29.7852C93.9316 29.8242 93.8535 29.8828 93.7754 29.9609C93.7363 30 93.6973 30.0195 93.6582 30.0195L93.4824 30.0781C93.4043 30.0781 93.3652 30.0781 93.3652 30.0781H93.1309C92.623 30.0781 92.3496 30.0977 92.3105 30.1367C92.2324 30.2148 91.8613 30.2539 91.1973 30.2539C90.7285 30.2539 90.2598 30.293 89.791 30.3711L89.2637 30.4297H88.9121C88.7168 30.4688 88.4824 30.4883 88.209 30.4883C87.9355 30.4883 87.7207 30.4688 87.5645 30.4297C87.4473 30.4297 87.3691 30.4492 87.3301 30.4883C87.1348 30.5664 86.8418 30.5664 86.4512 30.4883H85.8652C85.709 30.5273 85.5918 30.5273 85.5137 30.4883H85.2207L84.6348 30.5469H84.459C84.3027 30.5469 84.2051 30.5859 84.166 30.6641C84.127 30.7031 84.1074 30.8008 84.1074 30.957V33.418C84.1465 33.9648 84.166 35.0391 84.166 36.6406L84.2246 41.1523V45.3711C84.2637 45.8789 84.2441 46.6406 84.166 47.6562C84.127 48.6719 84.0684 49.4727 83.9902 50.0586C83.9512 50.0977 83.9316 50.2148 83.9316 50.4102C83.9316 50.7227 83.834 51.0742 83.6387 51.4648C83.2871 52.207 83.0137 52.5781 82.8184 52.5781ZM52.1738 8.63281C52.1348 8.35938 52.1543 8.18359 52.2324 8.10547C52.4668 7.87109 52.7793 7.73438 53.1699 7.69531C53.248 7.61719 53.3457 7.57812 53.4629 7.57812C53.541 7.53906 53.6777 7.51953 53.873 7.51953L54.459 7.34375L55.1035 7.22656C55.3379 7.10938 55.5527 7.05078 55.748 7.05078C56.5293 6.85547 57.1152 6.75781 57.5059 6.75781C58.0527 6.67969 58.4043 6.60156 58.5605 6.52344C58.6387 6.48438 58.6777 6.40625 58.6777 6.28906C58.6777 5.66406 58.6582 5.23438 58.6191 5C58.6191 4.72656 58.6191 4.55078 58.6191 4.47266C58.5801 4.43359 58.5605 4.19922 58.5605 3.76953C58.5605 3.33984 58.541 3.10547 58.502 3.06641C58.4629 2.91016 58.4629 2.8125 58.502 2.77344C58.541 2.73438 58.6387 2.71484 58.7949 2.71484C59.1074 2.75391 59.4785 2.89062 59.9082 3.125C60.5723 3.51562 61.041 3.86719 61.3145 4.17969C61.627 4.53125 61.8613 5.05859 62.0176 5.76172L62.1348 6.23047C62.1738 6.34766 62.4863 6.42578 63.0723 6.46484L64.2441 6.64062C64.791 6.79688 65.1035 6.93359 65.1816 7.05078C65.2598 7.05078 65.3379 7.08984 65.416 7.16797C65.4941 7.24609 65.5918 7.32422 65.709 7.40234C65.9434 7.51953 66.1191 7.61719 66.2363 7.69531C66.3535 7.73438 66.4316 7.83203 66.4707 7.98828C66.5488 8.10547 66.5879 8.28125 66.5879 8.51562C66.5879 8.71094 66.6074 8.84766 66.6465 8.92578C66.6855 9.04297 66.7051 9.17969 66.7051 9.33594L66.6465 9.92188C66.6465 10.2734 66.5879 10.5078 66.4707 10.625C66.4316 10.7812 66.4316 10.9766 66.4707 11.2109C66.4707 11.4453 66.4512 11.6211 66.4121 11.7383C66.373 11.8164 66.2363 11.9531 66.002 12.1484C65.7676 12.3438 65.5723 12.4609 65.416 12.5C65.2598 12.5781 65.1035 12.6172 64.9473 12.6172C64.9082 12.5781 64.8691 12.5781 64.8301 12.6172C64.791 12.6172 64.752 12.6172 64.7129 12.6172C64.5566 12.6953 64.4199 12.7344 64.3027 12.7344C63.9121 12.8125 63.6973 12.8711 63.6582 12.9102H63.4824L63.1895 13.0273C63.1113 13.1055 62.9941 13.1445 62.8379 13.1445C62.6426 13.1445 62.2715 13.2227 61.7246 13.3789H61.4902L61.2559 13.4961L61.0215 13.5547C60.8652 13.5547 60.7676 13.5742 60.7285 13.6133L60.3184 13.7305C60.2012 13.7305 60.0645 13.7695 59.9082 13.8477C59.8301 13.8867 59.6543 13.9062 59.3809 13.9062H58.9707L58.6191 14.0234L58.3262 14.082C58.0137 14.1602 57.7402 14.1992 57.5059 14.1992L56.9785 14.2578C56.8613 14.2969 56.6074 14.3164 56.2168 14.3164C55.8262 14.3164 55.5723 14.2969 55.4551 14.2578C55.2988 14.1797 55.1426 14.1406 54.9863 14.1406C54.791 14.1406 54.6348 14.1211 54.5176 14.082C54.4004 14.043 54.3027 13.9648 54.2246 13.8477C53.9512 13.5742 53.7168 13.4375 53.5215 13.4375L53.1113 13.3789C52.7598 13.2617 52.584 13.2031 52.584 13.2031L52.3496 13.1445L52.291 13.0273V11.9141C52.252 11.4453 52.2324 10.8789 52.2324 10.2148V9.10156C52.2324 8.90625 52.2129 8.75 52.1738 8.63281ZM53.7559 41.6797C53.7559 41.5234 53.7754 41.4258 53.8145 41.3867C53.8145 41.3086 53.834 41.1328 53.873 40.8594C53.9121 40.5859 53.9316 40.1953 53.9316 39.6875V39.2188C53.9707 39.1406 53.9902 38.7305 53.9902 37.9883L54.0488 36.6992C54.0488 35.918 54.0684 35.2148 54.1074 34.5898C54.1074 33.8086 54.1074 33.2812 54.1074 33.0078C54.1465 32.7344 54.2441 32.5 54.4004 32.3047L54.8105 31.8359C55.0449 31.6016 55.2207 31.4844 55.3379 31.4844C55.4551 31.4844 55.6113 31.4258 55.8066 31.3086C55.9629 31.2695 56.0801 31.2305 56.1582 31.1914C56.2754 31.1133 56.3535 31.0547 56.3926 31.0156C57.1738 30.8594 57.584 30.7812 57.623 30.7812C57.6621 30.7422 57.7207 30.7227 57.7988 30.7227C57.877 30.7227 57.9355 30.7031 57.9746 30.6641C58.0527 30.625 58.1504 30.6055 58.2676 30.6055C58.3848 30.6055 58.502 30.5859 58.6191 30.5469L59.0293 30.4883H59.3809C60.2793 30.4883 60.8457 30.5078 61.0801 30.5469C62.4863 30.7031 63.6582 31.0742 64.5957 31.6602C64.9082 31.8164 65.1426 31.9922 65.2988 32.1875C65.4551 32.3438 65.5918 32.5977 65.709 32.9492C65.8262 33.3008 65.9043 33.6914 65.9434 34.1211C66.0215 34.5508 66.0605 34.9609 66.0605 35.3516L66.1191 35.8789C66.1582 35.918 66.1777 36.5625 66.1777 37.8125C66.1777 39.1797 66.1582 40.0195 66.1191 40.332C66.1191 41.0742 66.0801 41.8164 66.002 42.5586C65.9629 43.3008 65.9238 43.8672 65.8848 44.2578C65.8457 44.2969 65.8262 44.3555 65.8262 44.4336C65.8262 44.5117 65.8066 44.5703 65.7676 44.6094C65.7676 44.6484 65.6895 44.9023 65.5332 45.3711C65.377 45.6836 65.2012 45.918 65.0059 46.0742C64.5762 46.4258 64.0879 46.6602 63.541 46.7773C63.3457 46.7773 63.2285 46.7969 63.1895 46.8359L63.0137 46.8945C62.8965 46.8945 62.7598 46.9336 62.6035 47.0117L62.1348 47.1289C61.7051 47.207 61.4512 47.2656 61.373 47.3047L61.0801 47.5391L60.084 47.832L59.791 47.9492C59.7129 48.0273 59.5957 48.0664 59.4395 48.0664L59.1465 48.125C59.0684 48.2031 58.9902 48.2422 58.9121 48.2422L58.6191 48.3594C58.3066 48.4375 57.9941 48.4766 57.6816 48.4766C57.2129 48.4766 56.9785 48.4961 56.9785 48.5352C56.7441 48.6133 56.5684 48.5352 56.4512 48.3008C56.373 48.1445 56.2363 47.9883 56.041 47.832C55.9238 47.7539 55.7676 47.7148 55.5723 47.7148C55.377 47.7148 55.2402 47.6953 55.1621 47.6562C55.0059 47.5781 54.8691 47.5391 54.752 47.5391C54.5176 47.5391 54.3809 47.4805 54.3418 47.3633C54.3027 47.2461 54.2637 46.875 54.2246 46.25L54.166 45.0781C54.0879 44.6094 54.0488 44.0625 54.0488 43.4375V43.3203L53.9316 42.8516C53.8926 42.7734 53.873 42.6953 53.873 42.6172C53.873 42.5 53.8535 42.4023 53.8145 42.3242C53.8145 41.9727 53.7949 41.7578 53.7559 41.6797ZM54.1074 25.625C54.1465 25.3125 54.1855 25.1367 54.2246 25.0977C54.2637 25.0977 54.2832 25.0781 54.2832 25.0391C54.3223 25 54.3613 24.9805 54.4004 24.9805L54.6348 24.8047C54.791 24.7266 54.9082 24.6484 54.9863 24.5703L55.8066 24.1016C56.3926 23.9062 56.7051 23.7891 56.7441 23.75C56.8223 23.75 56.9199 23.7305 57.0371 23.6914C57.1543 23.6523 57.3105 23.6133 57.5059 23.5742L58.0332 23.3984L59.0879 23.1055L59.7324 22.9883L60.4941 22.8711C60.6113 22.832 60.748 22.8125 60.9043 22.8125C60.9434 22.7734 61.002 22.7539 61.0801 22.7539C61.1973 22.7539 61.2949 22.7344 61.373 22.6953L62.0762 22.6367C62.1152 22.5977 62.2324 22.5781 62.4277 22.5781C62.623 22.5781 62.7598 22.5586 62.8379 22.5195C63.0723 22.4805 63.3457 22.4805 63.6582 22.5195C63.8926 22.5977 64.2246 22.7539 64.6543 22.9883C64.8887 23.1445 65.0254 23.2617 65.0645 23.3398C65.1035 23.3789 65.123 23.4961 65.123 23.6914C65.123 23.7305 65.1426 23.7891 65.1816 23.8672C65.2207 23.9453 65.2598 24.0039 65.2988 24.043C65.3379 24.2383 65.3379 24.3945 65.2988 24.5117C65.2207 24.5898 65.1816 24.668 65.1816 24.7461C65.2598 24.8242 65.2988 24.9414 65.2988 25.0977L65.1816 25.5664V25.918C65.2598 25.9961 65.2988 26.0938 65.2988 26.2109C65.0254 26.4844 64.8496 26.6406 64.7715 26.6797L64.4199 26.8555C64.3418 26.9336 64.2246 26.9727 64.0684 26.9727C64.0293 27.0117 63.9707 27.0312 63.8926 27.0312C63.8145 27.0312 63.7559 27.0508 63.7168 27.0898C63.4434 27.2461 63.2285 27.3242 63.0723 27.3242C62.8379 27.3242 62.4473 27.4414 61.9004 27.6758C61.666 27.832 61.4707 27.9102 61.3145 27.9102L61.0215 28.0273L60.6699 28.2617L60.2598 28.4375C60.1035 28.4375 59.9473 28.457 59.791 28.4961C59.6738 28.5352 59.5957 28.5938 59.5566 28.6719C59.5176 28.6719 59.4199 28.7305 59.2637 28.8477C59.1074 28.9258 58.8926 29.0039 58.6191 29.082C58.3848 29.082 58.2285 29.1211 58.1504 29.1992L56.9785 29.4922C56.8613 29.5703 56.5879 29.5703 56.1582 29.4922C56.1191 29.4531 56.041 29.4336 55.9238 29.4336C55.8457 29.3945 55.7871 29.3555 55.748 29.3164C55.5918 29.1992 55.3379 29.1211 54.9863 29.082C54.9082 29.043 54.8105 29.0234 54.6934 29.0234C54.6152 29.0234 54.5566 29.0039 54.5176 28.9648C54.4395 28.9258 54.3809 28.8281 54.3418 28.6719C54.3027 28.5156 54.2832 28.2617 54.2832 27.9102L54.2246 27.0898C54.1855 26.9727 54.1465 26.8164 54.1074 26.6211C54.1074 26.4258 54.1074 26.2695 54.1074 26.1523V25.625ZM54.166 17.832C54.127 17.7148 54.127 17.5586 54.166 17.3633C54.2051 17.207 54.2246 17.0312 54.2246 16.8359C54.2246 16.6797 54.2441 16.582 54.2832 16.543C54.4004 16.4648 54.5176 16.4648 54.6348 16.543L54.6934 16.6016L54.9863 16.3672C55.1426 16.1719 55.2793 16.0742 55.3965 16.0742C55.4355 16.0352 55.4746 16.0156 55.5137 16.0156C55.5527 16.0156 55.5723 15.9961 55.5723 15.957L55.8066 15.8984C56.2363 15.8203 56.4902 15.7617 56.5684 15.7227C56.6465 15.6836 56.7832 15.6445 56.9785 15.6055C57.1738 15.5273 57.3496 15.4883 57.5059 15.4883L57.916 15.4297L58.9121 15.3125L59.6738 15.2539C59.8691 15.2539 60.0449 15.2344 60.2012 15.1953C61.6855 15.1953 62.584 15.2344 62.8965 15.3125C63.5215 15.5078 63.9316 15.6641 64.127 15.7812L64.5371 15.957L64.7129 16.0742C64.8301 16.1133 64.9082 16.2305 64.9473 16.4258V16.7188C64.9473 16.8359 64.9668 16.9336 65.0059 17.0117C65.123 17.3242 65.123 17.5391 65.0059 17.6562V17.8906L65.0645 18.2422C65.0254 18.3984 64.9863 18.4961 64.9473 18.5352L64.7715 18.7109C64.7324 18.75 64.7324 18.8281 64.7715 18.9453C64.7715 19.0234 64.8105 19.0625 64.8887 19.0625C64.9277 19.1016 64.9473 19.1406 64.9473 19.1797C64.9473 19.2188 64.9277 19.2578 64.8887 19.2969C64.8105 19.375 64.7715 19.4531 64.7715 19.5312C64.6934 19.6094 64.6348 19.6484 64.5957 19.6484C64.4785 19.7266 64.3418 19.7852 64.1855 19.8242C64.0684 19.8242 63.9707 19.8047 63.8926 19.7656L63.5996 19.8242L63.1309 19.9414C63.0137 19.9414 62.916 19.9609 62.8379 20C62.7988 20 62.7598 20 62.7207 20C62.6816 20.0391 62.584 20.0586 62.4277 20.0586C62.0371 20.1367 61.627 20.2539 61.1973 20.4102C61.0801 20.4883 60.7871 20.5859 60.3184 20.7031L60.0254 20.7617C59.9863 20.8008 59.9277 20.8398 59.8496 20.8789C59.7715 20.918 59.7129 20.9375 59.6738 20.9375L58.7363 21.1719C58.5801 21.25 58.4434 21.2891 58.3262 21.2891C58.0918 21.3672 57.9746 21.4062 57.9746 21.4062L57.623 21.4648L57.2715 21.582C57.1934 21.6211 57.0762 21.6406 56.9199 21.6406C56.6855 21.6406 56.4707 21.582 56.2754 21.4648C56.2363 21.4258 56.0605 21.3281 55.748 21.1719C55.6309 21.1328 55.4746 21.1133 55.2793 21.1133C55.0059 21.1133 54.752 21.0742 54.5176 20.9961C54.4395 20.918 54.4004 20.7812 54.4004 20.5859L54.3418 20.1758C54.3027 20.1367 54.2832 19.8828 54.2832 19.4141C54.2832 18.9453 54.2637 18.6719 54.2246 18.5938V18.1836C54.2246 18.0273 54.2051 17.9102 54.166 17.832ZM57.6816 36.875C57.6816 37.1484 57.7012 37.3047 57.7402 37.3438V38.8086L57.7988 40.1562C57.877 40.2344 58.0918 40.2539 58.4434 40.2148C58.5215 40.1758 58.6387 40.1562 58.7949 40.1562C58.9512 40.1562 59.0879 40.1367 59.2051 40.0977L59.9082 40.0391C59.9863 40 60.0645 39.9805 60.1426 39.9805C60.2598 39.9805 60.3574 39.9609 60.4355 39.9219L61.0215 39.8633C61.6465 39.7852 62.0762 39.7656 62.3105 39.8047C62.584 39.8438 62.7402 39.8242 62.7793 39.7461C62.7793 39.707 62.7793 39.6289 62.7793 39.5117C62.8184 39.3945 62.8379 39.1797 62.8379 38.8672L62.8965 37.5195L63.0137 36.4062C63.0137 35.8984 62.9551 35.6055 62.8379 35.5273C62.7598 35.4492 62.3887 35.4102 61.7246 35.4102C61.1777 35.4102 60.8652 35.4297 60.7871 35.4688C60.5918 35.4688 60.4355 35.4492 60.3184 35.4102C60.1621 35.3711 59.9668 35.3711 59.7324 35.4102C59.6934 35.4492 59.5566 35.5078 59.3223 35.5859C59.0488 35.625 58.8535 35.6641 58.7363 35.7031C58.6191 35.7422 58.5215 35.8203 58.4434 35.9375C58.3652 36.0156 58.209 36.1133 57.9746 36.2305C57.8184 36.3086 57.7207 36.3867 57.6816 36.4648C57.6816 36.543 57.6816 36.6797 57.6816 36.875Z" fill="#4A443D"/>
<path d="M31.2559 50.5859C31.1777 50.5469 30.7871 50.4883 30.084 50.4102C29.6543 50.4102 29.3223 50.3906 29.0879 50.3516C28.8535 50.3516 28.5605 50.2734 28.209 50.1172C27.7402 49.9219 27.4082 49.6875 27.2129 49.4141C26.8613 48.9844 26.627 48.5938 26.5098 48.2422L26.334 47.6562C26.2559 47.5 26.2168 47.3633 26.2168 47.2461C26.1777 47.1289 26.0996 46.9727 25.9824 46.7773C25.9043 46.582 25.8262 46.4062 25.748 46.25L25.5723 45.7227C25.5723 45.5664 25.5332 45.4102 25.4551 45.2539C25.377 45.0586 25.2988 44.9219 25.2207 44.8438C25.0254 44.6094 24.9277 44.4141 24.9277 44.2578C24.9277 44.0234 25.0059 43.8867 25.1621 43.8477C25.2402 43.8086 25.4746 43.7891 25.8652 43.7891H26.5684C26.6465 43.8281 26.7051 43.8281 26.7441 43.7891C26.8223 43.75 26.8809 43.75 26.9199 43.7891L27.2715 43.8477C27.3496 43.8867 27.4863 43.9062 27.6816 43.9062C27.7598 43.9453 27.8574 43.9648 27.9746 43.9648C28.0527 44.0039 28.1504 43.9844 28.2676 43.9062L28.6191 43.6719C28.6973 43.5938 28.7754 43.5352 28.8535 43.4961C28.9707 43.457 29.0684 43.3984 29.1465 43.3203C29.1855 43.2422 29.2832 43.1641 29.4395 43.0859C29.5566 43.0469 29.6543 42.9688 29.7324 42.8516L29.8496 42.7344L29.9668 42.5L30.084 42.3242C30.123 42.2852 30.1816 42.207 30.2598 42.0898C30.2598 41.9727 30.2793 41.8945 30.3184 41.8555L30.4355 41.6211C30.4355 41.5039 30.5723 41.2695 30.8457 40.918L30.9629 40.6836L31.1387 40.2148L31.6074 38.8086C31.8027 38.1445 31.8809 37.7734 31.8418 37.6953L31.9004 37.4609C31.9395 37.4219 31.959 37.3633 31.959 37.2852C31.959 37.207 31.9785 37.1289 32.0176 37.0508C32.0176 37.0117 32.0371 36.9727 32.0762 36.9336C32.1152 36.8555 32.1348 36.7773 32.1348 36.6992L32.252 36.2891C32.3301 36.0938 32.3496 35.8594 32.3105 35.5859C32.3105 35.2734 32.3105 35.0977 32.3105 35.0586C32.3496 34.9414 32.3691 34.7852 32.3691 34.5898C32.4082 34.3945 32.4082 34.2188 32.3691 34.0625C32.4082 33.9844 32.4277 33.9062 32.4277 33.8281C32.4277 33.7109 32.4473 33.6133 32.4863 33.5352C32.5254 33.457 32.5645 33.2617 32.6035 32.9492C32.6426 32.6367 32.6621 32.4023 32.6621 32.2461V32.1289L32.0762 32.1875H30.9043C30.5527 32.1875 30.3184 32.168 30.2012 32.1289H28.9707C28.5801 32.1289 28.0723 32.0898 27.4473 32.0117L26.9785 31.9531C26.8223 31.9531 26.627 31.9336 26.3926 31.8945C26.1582 31.8164 25.9629 31.7773 25.8066 31.7773L25.4551 31.7188C25.4551 31.7969 25.3184 31.7969 25.0449 31.7188C24.8887 31.7188 24.7129 31.7188 24.5176 31.7188C24.3613 31.6797 24.2246 31.6211 24.1074 31.543C23.9902 31.5039 23.5801 31.4453 22.877 31.3672C22.4863 31.3281 22.0957 31.25 21.7051 31.1328C21.5879 31.0547 21.373 31.0156 21.0605 31.0156C20.5527 30.8594 20.2793 30.7617 20.2402 30.7227C20.2012 30.7227 20.1816 30.6445 20.1816 30.4883L19.5957 28.7891L19.7715 28.6719L20.0645 28.3789C20.2988 28.1445 20.5332 27.9492 20.7676 27.793C20.9238 27.7539 21.0215 27.6758 21.0605 27.5586C21.0996 27.4805 21.1582 27.4414 21.2363 27.4414C21.2754 27.4805 21.3926 27.4609 21.5879 27.3828C21.666 27.3047 21.7441 27.2461 21.8223 27.207C21.9395 27.168 22.0176 27.1289 22.0566 27.0898L22.7598 26.8555C23.1895 26.582 23.541 26.4062 23.8145 26.3281C23.8535 26.2891 23.9316 26.2695 24.0488 26.2695C24.0879 26.2305 24.127 26.2109 24.166 26.2109C24.2441 26.2109 24.3223 26.1914 24.4004 26.1523C24.5957 26.1523 24.7324 26.1133 24.8105 26.0352C24.8887 25.9961 24.9863 25.9766 25.1035 25.9766L25.5723 25.8008C25.8848 25.8008 26.0801 25.7617 26.1582 25.6836L26.5684 25.625C26.6074 25.5859 26.666 25.5664 26.7441 25.5664C26.8223 25.5664 26.9004 25.5469 26.9785 25.5078L27.623 25.332C27.7012 25.332 27.7598 25.332 27.7988 25.332C27.8379 25.293 27.877 25.2734 27.916 25.2734C27.9941 25.2734 28.0918 25.2539 28.209 25.2148C28.3262 25.1367 28.4043 25.0781 28.4434 25.0391C28.4043 24.8828 28.3848 24.4531 28.3848 23.75L28.3262 23.3398L28.2676 22.6367C28.1504 22.0508 28.0918 21.3867 28.0918 20.6445V20.4102L27.916 20.0586L27.7988 19.707V19.3555C27.7988 18.9648 27.8379 18.6719 27.916 18.4766L28.0332 18.2422C28.0723 18.0859 28.1504 17.9102 28.2676 17.7148C28.4238 17.4805 28.541 17.2852 28.6191 17.1289C28.6973 17.0117 28.7754 16.9336 28.8535 16.8945C28.8535 16.7773 29.0684 16.4062 29.498 15.7812C29.5371 15.6641 29.5762 15.5664 29.6152 15.4883C29.6934 15.3711 29.752 15.293 29.791 15.2539L29.9668 14.9609C30.2793 14.5312 30.4355 14.2773 30.4355 14.1992C30.4355 14.1211 30.2793 14.043 29.9668 13.9648C29.8496 13.9258 29.6348 13.9062 29.3223 13.9062C28.541 13.9062 28.0723 13.8867 27.916 13.8477C27.5645 13.8477 27.3496 13.8086 27.2715 13.7305C27.1934 13.6523 27.0762 13.6133 26.9199 13.6133L26.4512 13.4375L25.9824 13.3203C25.9434 13.2812 25.8848 13.2617 25.8066 13.2617C25.7676 13.2227 25.7285 13.1836 25.6895 13.1445C25.6504 13.1055 25.6113 13.0273 25.5723 12.9102C25.5332 12.793 25.5137 12.5781 25.5137 12.2656C25.4746 12.1484 25.4551 12.0508 25.4551 11.9727C25.4551 11.8555 25.4355 11.7578 25.3965 11.6797C25.3184 11.5234 25.2793 11.1328 25.2793 10.5078C25.2793 10.3125 25.3379 10.1562 25.4551 10.0391C25.5723 9.88281 25.9434 9.64844 26.5684 9.33594C26.6074 9.29688 26.6465 9.25781 26.6855 9.21875C26.7637 9.17969 26.8223 9.16016 26.8613 9.16016L27.2715 8.98438L27.7402 8.80859C27.8184 8.73047 27.916 8.69141 28.0332 8.69141C28.1504 8.69141 28.3848 8.61328 28.7363 8.45703C29.3223 8.14453 29.8496 7.96875 30.3184 7.92969L30.6113 7.87109L31.0215 7.8125C31.1777 7.77344 31.3926 7.75391 31.666 7.75391C32.0176 7.75391 32.4863 7.8125 33.0723 7.92969C33.7363 8.00781 34.2246 8.16406 34.5371 8.39844L34.9473 8.63281L35.416 8.80859C35.9629 9.12109 36.3145 9.41406 36.4707 9.6875C36.666 10.1562 36.8223 10.8203 36.9395 11.6797L37.0566 12.5C37.1348 12.9688 37.1543 13.3008 37.1152 13.4961L36.998 15.0195V15.4883C36.998 15.918 36.9395 16.2891 36.8223 16.6016V16.9531L36.7051 17.1875C36.7051 17.3047 36.6855 17.4023 36.6465 17.4805L36.4707 17.8906C36.3926 17.9688 36.3535 18.0664 36.3535 18.1836L35.9434 19.0625C35.8262 19.1406 35.7285 19.2773 35.6504 19.4727L35.2988 20.1172L34.8887 20.7617L34.5957 21.3477C34.5176 21.4258 34.459 21.543 34.4199 21.6992C34.4199 22.3633 34.459 22.7344 34.5371 22.8125C34.8105 23.0469 35.0645 23.3008 35.2988 23.5742L35.5918 23.8672L36.6465 23.75C36.7246 23.6719 36.8809 23.6328 37.1152 23.6328C37.3105 23.6328 37.5254 23.5742 37.7598 23.457C37.8379 23.418 38.1895 23.3789 38.8145 23.3398L41.4512 22.9883C41.8418 22.9883 42.1934 22.9297 42.5059 22.8125C43.1309 22.5781 43.5215 22.5391 43.6777 22.6953C43.7168 22.7344 43.8145 22.7539 43.9707 22.7539C44.0488 22.793 44.166 22.8125 44.3223 22.8125C44.3613 22.8516 44.4785 22.8711 44.6738 22.8711L44.9668 22.9297C44.9668 23.0078 45.0645 23.0469 45.2598 23.0469C45.377 23.0859 45.4746 23.1641 45.5527 23.2812C45.6309 23.3594 45.7285 23.3984 45.8457 23.3984L46.8418 23.8672L46.959 23.9258C46.959 23.9258 46.9785 23.9258 47.0176 23.9258C47.0566 23.9258 47.0762 23.9258 47.0762 23.9258C47.1152 23.9648 47.1738 23.9844 47.252 23.9844C47.291 23.9844 47.3301 24.0234 47.3691 24.1016C47.4473 24.1797 47.5059 24.2578 47.5449 24.3359C47.7012 24.7656 47.7793 25.0195 47.7793 25.0977L47.9551 26.0938C47.9551 26.5234 47.9355 26.8164 47.8965 26.9727C47.8965 27.1289 47.8965 27.2461 47.8965 27.3242C47.7793 27.6758 47.7402 27.9492 47.7793 28.1445L47.8379 28.4961V28.6719C47.8379 29.0625 47.623 29.5117 47.1934 30.0195L46.959 30.1953L46.666 30.3711C46.5879 30.3711 46.4707 30.4102 46.3145 30.4883L45.9629 30.5469C45.9238 30.5078 45.8652 30.5078 45.7871 30.5469C45.709 30.5469 45.6699 30.5469 45.6699 30.5469H45.4355L44.9668 30.6641H44.4395C44.3613 30.7031 44.2637 30.7227 44.1465 30.7227C44.0684 30.6836 43.9316 30.6836 43.7363 30.7227H42.8574C42.4277 30.7227 42.1152 30.7617 41.9199 30.8398C41.8418 30.8789 41.7051 30.8984 41.5098 30.8984C41.4707 30.9375 41.4121 30.957 41.334 30.957C41.2559 30.957 41.1973 30.9766 41.1582 31.0156L40.748 31.1328C40.709 31.1719 40.6504 31.1914 40.5723 31.1914C40.5332 31.1914 40.4941 31.2109 40.4551 31.25C40.416 31.2891 40.084 31.3086 39.459 31.3086H39.2246C38.9902 31.3086 38.834 31.3281 38.7559 31.3672L38.2285 31.4258H37.877L37.6426 31.4844C37.5254 31.5234 37.4473 31.582 37.4082 31.6602C37.5645 34.2773 37.6426 36.3086 37.6426 37.7539C37.6426 39.2773 37.623 40.2734 37.584 40.7422L37.4082 42.0898C37.3691 42.168 37.3105 42.5977 37.2324 43.3789C37.2324 43.6133 37.1934 43.7695 37.1152 43.8477L36.998 44.3164L36.7637 45.4883C36.4512 46.8164 36.0801 47.9297 35.6504 48.8281C35.4551 49.1406 35.1621 49.4727 34.7715 49.8242C34.4199 50.1367 34.166 50.3125 34.0098 50.3516C33.7754 50.3516 33.5801 50.3906 33.4238 50.4688L32.4277 50.6445H31.959L31.2559 50.5859ZM0.962891 18.4766C0.923828 18.3984 0.982422 18.3203 1.13867 18.2422C1.29492 18.2422 1.39258 18.2227 1.43164 18.1836C1.58789 18.0664 1.76367 17.9883 1.95898 17.9492C2.19336 17.9102 2.52539 17.8516 2.95508 17.7734L3.95117 17.5977C4.3418 17.5977 4.5957 17.5781 4.71289 17.5391H5.41602C5.57227 17.5391 5.74805 17.5195 5.94336 17.4805C6.13867 17.4414 6.31445 17.4219 6.4707 17.4219C6.93945 17.3438 7.38867 17.3047 7.81836 17.3047H8.58008L8.69727 17.1875L8.87305 16.8359C8.91211 16.7188 8.95117 16.6211 8.99023 16.543C9.06836 16.4258 9.12695 16.3477 9.16602 16.3086L9.40039 15.957C9.43945 15.918 9.45898 15.8594 9.45898 15.7812C9.49805 15.7031 9.55664 15.625 9.63477 15.5469C9.83008 14.9609 9.92773 14.668 9.92773 14.668L10.0449 14.4922C10.1621 14.2969 10.2207 14.1602 10.2207 14.082L10.4551 13.6133L10.8066 13.1445C10.8457 13.0664 10.9434 12.9492 11.0996 12.793L11.2168 12.5C11.2559 12.3438 11.334 12.1875 11.4512 12.0312C11.6074 11.8359 11.7246 11.7188 11.8027 11.6797L11.9785 11.4453C11.9395 11.4062 11.9785 11.2891 12.0957 11.0938C12.2129 11.0547 12.3105 10.9375 12.3887 10.7422C12.5449 10.5859 12.623 10.5078 12.623 10.5078L12.916 10.4492C13.0723 10.4492 13.2285 10.5078 13.3848 10.625C13.4629 10.6641 13.5996 10.7422 13.7949 10.8594C14.0293 10.9766 14.166 11.0938 14.2051 11.2109C14.2832 11.3281 14.3418 11.4648 14.3809 11.6211C14.459 12.4805 14.498 13.0664 14.498 13.3789C14.498 14.0039 14.459 14.6094 14.3809 15.1953C14.3809 15.3906 14.2832 15.8789 14.0879 16.6602C14.0488 16.7773 14.0293 16.9141 14.0293 17.0703C13.9902 17.1484 13.9707 17.2266 13.9707 17.3047C14.0098 17.3438 14.0879 17.3633 14.2051 17.3633L14.5566 17.4805L15.2012 17.5391C15.2793 17.5781 15.3379 17.5977 15.377 17.5977C15.4551 17.5977 15.5137 17.6172 15.5527 17.6562L15.7871 17.7148C15.7871 17.7148 16.1191 17.8125 16.7832 18.0078L17.252 18.1836C17.7598 18.418 18.0332 18.6133 18.0723 18.7695C18.1504 18.8477 18.1895 18.9453 18.1895 19.0625C18.2676 19.1406 18.2871 19.2188 18.248 19.2969V19.5312L18.4824 19.707C18.6387 19.7852 18.7168 19.8438 18.7168 19.8828C18.7949 20 18.8535 20.1562 18.8926 20.3516C18.9707 20.5469 19.0098 20.6836 19.0098 20.7617L19.0684 20.9961L19.2441 21.7578L19.3613 22.2852L19.3027 22.3438C19.2246 22.3828 19.1465 22.5586 19.0684 22.8711C19.0684 23.3398 19.0293 23.6914 18.9512 23.9258C18.9121 24.0039 18.8926 24.1211 18.8926 24.2773C18.8926 24.3555 18.8535 24.5312 18.7754 24.8047C18.7363 25.0391 18.7168 25.2539 18.7168 25.4492C18.6777 25.4883 18.6582 25.5469 18.6582 25.625C18.6582 25.7031 18.6387 25.7812 18.5996 25.8594C18.5996 25.8594 18.541 26.0352 18.4238 26.3867C18.3848 26.4648 18.3457 26.582 18.3066 26.7383C18.3066 26.8555 18.2676 27.0117 18.1895 27.207C17.7988 28.5352 17.5449 29.4336 17.4277 29.9023L17.252 30.3711L16.9004 31.3672L16.7246 31.7188L16.666 32.1289C16.5879 32.4023 16.4707 32.7344 16.3145 33.125C16.1582 33.4766 16.0996 33.6719 16.1387 33.7109L16.6074 34.0625L17.1348 34.707L17.6035 35.1172L18.4824 36.2305L18.7168 36.582L19.0098 37.1094L19.3613 37.6367L19.6543 38.1055C19.8496 38.3789 19.9473 38.5938 19.9473 38.75C19.9863 39.0234 20.0645 39.2383 20.1816 39.3945C20.1816 39.3945 20.2598 39.668 20.416 40.2148C20.4551 40.2539 20.4746 40.3125 20.4746 40.3906C20.4746 40.4688 20.4941 40.5273 20.5332 40.5664C20.5332 40.6055 20.5332 40.6836 20.5332 40.8008C20.5723 40.918 20.5918 41.0938 20.5918 41.3281C20.5918 41.5234 20.6113 41.6992 20.6504 41.8555C20.6895 41.9727 20.709 42.0703 20.709 42.1484C20.8262 42.5 20.8848 42.8516 20.8848 43.2031L20.8262 43.4961V43.7891C20.7871 43.8281 20.748 43.8867 20.709 43.9648C20.6699 44.0039 20.6309 44.0625 20.5918 44.1406C20.4355 44.4922 20.2598 44.707 20.0645 44.7852C19.9082 44.7852 19.7324 44.6875 19.5371 44.4922L19.127 44.2578L18.8926 44.1406C18.7754 44.0625 18.6387 44.043 18.4824 44.082L18.0723 44.0234H17.5449C17.3887 44.0234 17.2324 44.0234 17.0762 44.0234C16.959 44.0234 16.8809 44.0039 16.8418 43.9648C16.8027 43.9648 16.7441 43.9453 16.666 43.9062C16.627 43.8672 16.5879 43.8477 16.5488 43.8477L16.2559 43.7305C16.2559 43.6523 16.1973 43.6133 16.0801 43.6133C15.6895 43.3398 15.2793 42.9688 14.8496 42.5C14.7324 42.3438 14.498 42.0898 14.1465 41.7383C13.873 41.4648 13.7363 41.3281 13.7363 41.3281C13.6191 41.2109 13.4824 41.0742 13.3262 40.918C13.209 40.7617 13.1309 40.7031 13.0918 40.7422C13.0918 40.7422 12.9355 40.9961 12.623 41.5039L12.2129 42.0312C12.1738 42.1094 12.1152 42.207 12.0371 42.3242C11.998 42.4023 11.959 42.4805 11.9199 42.5586C11.8809 42.6758 11.8027 42.793 11.6855 42.9102C11.5684 43.0273 11.5098 43.125 11.5098 43.2031C11.3535 43.5156 11.041 43.9062 10.5723 44.375C10.0254 45.0391 9.77148 45.3516 9.81055 45.3125C9.49805 45.625 9.14648 45.8984 8.75586 46.1328L8.46289 46.3086L8.05273 46.6016L7.81836 46.6602C7.7793 46.6211 7.64258 46.6016 7.4082 46.6016H7.11523C6.8418 46.6016 6.64648 46.582 6.5293 46.543L6.23633 46.3672L5.94336 46.3086C5.86523 46.3477 5.72852 46.3672 5.5332 46.3672C5.14258 46.3281 4.88867 46.2891 4.77148 46.25C4.6543 46.1328 4.5957 46.0742 4.5957 46.0742C4.55664 46.0352 4.49805 45.9766 4.41992 45.8984C4.38086 45.7812 4.36133 45.6836 4.36133 45.6055C4.36133 45.4492 4.3418 45.3125 4.30273 45.1953L4.18555 44.7266C4.18555 44.5312 4.12695 44.3555 4.00977 44.1992L3.83398 43.6719L3.77539 43.3789C3.69727 43.3008 3.6582 43.2031 3.6582 43.0859C3.6582 42.7344 3.61914 42.5195 3.54102 42.4414C3.46289 42.4023 3.42383 42.3242 3.42383 42.207C3.38477 42.0898 3.44336 41.9727 3.59961 41.8555C3.7168 41.7773 3.95117 41.5625 4.30273 41.2109C4.6543 40.8203 4.9082 40.5273 5.06445 40.332L5.41602 39.8633C5.49414 39.7852 5.5332 39.6875 5.5332 39.5703L5.88477 39.2773C6.04102 39.1211 6.1582 38.9258 6.23633 38.6914L6.41211 38.3398C6.5293 38.3008 6.62695 38.1836 6.70508 37.9883L6.99805 37.6953C6.99805 37.6953 7.0957 37.5977 7.29102 37.4023C7.36914 37.1289 7.50586 36.9922 7.70117 36.9922C7.7793 36.9922 7.83789 36.9531 7.87695 36.875C7.95508 36.7188 8.0332 36.6211 8.11133 36.582C8.30664 36.3867 8.4043 36.1914 8.4043 35.9961C8.4043 35.957 8.32617 35.8594 8.16992 35.7031C7.97461 35.5469 7.75977 35.3711 7.52539 35.1758C7.29102 34.9414 7.11523 34.7461 6.99805 34.5898C6.99805 34.5508 6.91992 34.4531 6.76367 34.2969C6.76367 34.2969 6.64648 34.1211 6.41211 33.7695C6.37305 33.6914 6.31445 33.6328 6.23633 33.5938C6.19727 33.5156 6.17773 33.457 6.17773 33.418C6.06055 33.3008 5.94336 32.9883 5.82617 32.4805C5.74805 32.168 5.66992 31.8945 5.5918 31.6602C5.51367 31.4258 5.45508 31.1914 5.41602 30.957V30.3125L5.29883 29.8438C5.25977 29.7656 5.24023 29.6875 5.24023 29.6094C5.24023 29.5312 5.2207 29.4727 5.18164 29.4336L5.12305 28.9062C5.12305 28.6328 5.06445 28.3789 4.94727 28.1445C4.79102 27.793 4.69336 27.5195 4.6543 27.3242C4.6543 27.1289 4.6543 26.9727 4.6543 26.8555L4.5957 26.2109L4.77148 25.5664C5.04492 24.668 5.20117 24.1016 5.24023 23.8672L5.29883 23.5742C5.29883 23.4961 5.10352 23.3984 4.71289 23.2812C4.43945 23.1641 4.14648 23.0273 3.83398 22.8711C3.59961 22.7539 3.38477 22.6562 3.18945 22.5781C2.99414 22.4609 2.83789 22.3633 2.7207 22.2852C2.60352 22.168 2.52539 22.1094 2.48633 22.1094C2.29102 22.0703 1.99805 21.8164 1.60742 21.3477C1.5293 21.1133 1.43164 20.7422 1.31445 20.2344C1.27539 20.1562 1.25586 20.0781 1.25586 20C1.25586 19.9219 1.23633 19.8633 1.19727 19.8242C1.1582 19.7461 1.09961 19.4336 1.02148 18.8867L0.962891 18.4766ZM8.75586 28.7891C8.75586 28.8672 8.9707 29.0039 9.40039 29.1992C9.43945 29.3164 9.67383 29.4727 10.1035 29.668C10.2207 29.7461 10.5723 29.9414 11.1582 30.2539C11.2363 30.293 11.3535 30.3516 11.5098 30.4297C11.666 30.4688 11.7637 30.4688 11.8027 30.4297L12.2715 29.5508C12.3105 29.2773 12.3691 29.043 12.4473 28.8477C12.5645 28.6523 12.6621 28.5547 12.7402 28.5547L13.1504 27.5586C13.541 26.7773 13.7559 26.2891 13.7949 26.0938C14.1855 25.5078 14.4395 25.0977 14.5566 24.8633V24.5703L13.7363 24.5117C13.6191 24.4336 13.502 24.3945 13.3848 24.3945C13.3066 24.3555 13.248 24.3359 13.209 24.3359L12.916 24.2773L11.9199 24.3945C11.4902 24.3945 11.2363 24.375 11.1582 24.3359H10.748C10.5918 24.3359 10.4551 24.4336 10.3379 24.6289L9.69336 26.0352C9.49805 26.5039 9.32227 26.8945 9.16602 27.207C9.04883 27.4805 8.95117 27.7148 8.87305 27.9102C8.75586 28.3789 8.7168 28.6719 8.75586 28.7891Z" fill="#4A443D"/>
</svg>
