<svg width="171" height="61" viewBox="0 0 171 61" fill="none" xmlns="http://www.w3.org/2000/svg">
<path d="M164.568 55.875C164.334 55.875 164.158 55.8164 164.041 55.6992L163.748 55.6406C163.631 55.7188 163.514 55.7383 163.396 55.6992H162.576C161.873 55.6992 161.482 55.6797 161.404 55.6406C161.287 55.6016 160.975 55.5625 160.467 55.5234C159.646 55.4844 159.197 55.4453 159.119 55.4062L158.885 55.3477L158.709 55.2891L158.064 55.1719L157.361 55.1133C157.283 55.0742 157.107 55.0547 156.834 55.0547L156.365 54.9961C156.287 54.918 156.189 54.8789 156.072 54.8789L155.604 54.9375L155.252 54.7617C155.096 54.6836 154.959 54.6445 154.842 54.6445C154.373 54.6445 154.061 54.6055 153.904 54.5273C153.904 54.5273 153.748 54.4688 153.436 54.3516C153.279 54.3516 153.162 54.3125 153.084 54.2344C153.006 54.1562 152.713 54.1172 152.205 54.1172C151.893 54.0781 151.678 54 151.561 53.8828C151.482 53.8828 151.424 53.8633 151.385 53.8242C151.229 53.8242 151.072 53.7852 150.916 53.707C150.799 53.6289 150.701 53.5898 150.623 53.5898L150.389 53.4727L150.096 53.4141L149.92 53.3555C149.686 53.2773 149.549 53.2383 149.51 53.2383C149.236 53.2383 149.021 53.1992 148.865 53.1211L148.338 52.8281C148.182 52.8281 148.045 52.75 147.928 52.5938L142.068 51.1875L140.721 50.7188C140.643 50.6797 140.506 50.6406 140.311 50.6016C140.154 50.5234 140.037 50.4844 139.959 50.4844L139.256 50.25C138.748 50.0938 138.396 49.9766 138.201 49.8984C138.045 49.8203 137.947 49.7812 137.908 49.7812L137.264 49.4883L136.326 49.0781L135.857 48.9023C135.584 48.7852 135.232 48.6289 134.803 48.4336C134.412 48.2383 134.1 48.082 133.865 47.9648L133.455 47.7891C133.338 47.75 133.24 47.7305 133.162 47.7305C133.123 47.7305 133.084 47.75 133.045 47.7891C132.967 47.9453 132.83 48.2383 132.635 48.668C132.439 49.0977 132.264 49.4688 132.107 49.7812C131.951 49.8203 131.834 49.9766 131.756 50.25C131.365 51.0312 131.092 51.4805 130.936 51.5977C130.896 51.5977 130.838 51.6367 130.76 51.7148C130.682 51.793 130.604 51.8711 130.525 51.9492C130.33 52.2617 130.174 52.4766 130.057 52.5938C129.939 52.7109 129.764 52.8086 129.529 52.8867L129.178 53.0039L129.002 53.1211C128.924 53.1992 128.826 53.2383 128.709 53.2383C128.631 53.2383 128.572 53.1992 128.533 53.1211C128.494 53.082 128.436 53.0234 128.357 52.9453C128.279 52.8672 128.24 52.8086 128.24 52.7695L127.947 52.5938L127.654 52.4766C126.873 52.4766 126.248 52.418 125.779 52.3008C125.311 52.1836 125.135 51.793 125.252 51.1289L125.486 49.4883C125.486 49.2539 125.467 49.0977 125.428 49.0195C125.389 48.9805 125.369 48.8828 125.369 48.7266C125.447 48.6094 125.545 48.4727 125.662 48.3164C125.818 48.1602 125.975 48.0234 126.131 47.9062C126.326 47.7109 126.443 47.5547 126.482 47.4375L127.186 46.6172C127.225 46.5781 127.264 46.5391 127.303 46.5C127.342 46.4219 127.361 46.3438 127.361 46.2656L127.654 45.7383C127.693 45.7383 127.732 45.6797 127.771 45.5625C127.771 45.4453 127.85 45.3281 128.006 45.2109C128.045 45.1328 128.104 45.0352 128.182 44.918C128.299 44.8008 128.377 44.7031 128.416 44.625C128.455 44.5859 128.494 44.5469 128.533 44.5078C128.572 44.4688 128.592 44.4297 128.592 44.3906V44.2734L128.709 43.9805C128.709 43.8242 128.748 43.707 128.826 43.6289C128.904 43.5508 128.943 43.4336 128.943 43.2773C128.943 43.1602 128.982 43.043 129.061 42.9258C129.139 42.7695 129.217 42.6523 129.295 42.5742C129.451 42.5742 129.529 42.4961 129.529 42.3398C129.529 42.1445 129.568 41.9688 129.646 41.8125C129.725 41.8125 129.803 41.6758 129.881 41.4023C129.959 41.2461 130.037 41.168 130.115 41.168L130.232 40.9336L130.291 40.7578L130.408 40.5234C130.447 40.3672 130.506 40.2305 130.584 40.1133C130.662 39.9961 130.701 39.8984 130.701 39.8203L130.76 39.5273L130.818 39.293C131.014 38.8242 131.111 38.5117 131.111 38.3555L131.17 38.0039C131.209 37.9648 131.229 37.8867 131.229 37.7695V37.5352L131.287 37.1836C131.365 36.5977 131.424 36.2656 131.463 36.1875L131.639 35.9531C131.873 35.9531 132.244 35.9922 132.752 36.0703C133.299 36.1484 133.631 36.2461 133.748 36.3633C133.943 36.5586 134.08 36.7344 134.158 36.8906C134.275 37.1641 134.373 37.5156 134.451 37.9453C134.451 38.0234 134.471 38.1211 134.51 38.2383C134.588 38.3555 134.627 38.4922 134.627 38.6484C134.666 38.8828 134.686 39.3125 134.686 39.9375C134.686 41.1094 134.607 42.0859 134.451 42.8672L134.275 43.6875C134.275 43.7656 134.295 43.8438 134.334 43.9219C134.412 43.9609 134.51 43.9805 134.627 43.9805L134.979 44.0391L135.389 44.0977C135.467 44.0977 135.564 44.1367 135.682 44.2148C135.838 44.2539 135.975 44.2734 136.092 44.2734L136.678 44.3906H136.854L136.795 42.6914V42.1641C136.795 41.7734 136.795 41.5195 136.795 41.4023C136.834 41.2461 136.854 41.1484 136.854 41.1094C136.893 41.0703 136.932 40.5039 136.971 39.4102C136.971 39.1758 136.971 39.0195 136.971 38.9414C137.01 38.8633 137.029 38.8047 137.029 38.7656L137.264 37.5938L137.322 37.0664V36.7734L137.381 36.1875C137.42 35.8359 137.439 35.4062 137.439 34.8984C137.439 34.3906 137.42 34.0195 137.381 33.7852H137.146C136.951 33.7461 136.814 33.7656 136.736 33.8438C136.502 34.0391 136.17 34.1367 135.74 34.1367C135.623 34.0977 135.467 34.0781 135.271 34.0781C135.037 34.0781 134.861 34.0977 134.744 34.1367C134.588 34.1758 134.393 34.1953 134.158 34.1953C133.729 34.1953 133.455 34.2734 133.338 34.4297H133.104C132.869 34.3125 132.537 34.2344 132.107 34.1953C131.482 34.1953 131.131 34.1562 131.053 34.0781C130.975 33.9219 130.76 33.8047 130.408 33.7266C130.213 33.6484 130.115 33.5898 130.115 33.5508C130.037 33.5117 129.998 33.2773 129.998 32.8477C129.959 32.5742 129.939 32.2812 129.939 31.9688C129.9 31.8516 129.881 31.5977 129.881 31.207L129.764 30.6797C129.764 30.4453 129.803 30.25 129.881 30.0938C130.193 29.7812 130.389 29.625 130.467 29.625L130.818 29.5078L131.053 29.4492C131.131 29.4492 131.229 29.3906 131.346 29.2734C131.58 29.1562 131.717 29.0977 131.756 29.0977C131.834 29.0586 131.932 29.0391 132.049 29.0391C132.205 29 132.361 28.9414 132.518 28.8633L133.396 28.5703C133.631 28.4922 133.846 28.4531 134.041 28.4531C134.119 28.4141 134.314 28.3359 134.627 28.2188C135.018 28.0625 135.369 27.9844 135.682 27.9844L137.322 27.5156C137.635 27.4375 138.104 27.3789 138.729 27.3398C138.924 27.3398 139.061 27.3008 139.139 27.2227C139.412 27.2227 139.939 27.1836 140.721 27.1055C141.619 27.0273 142.596 27.0664 143.65 27.2227C144.275 27.3008 144.92 27.5938 145.584 28.1016C145.896 28.2578 146.053 28.4531 146.053 28.6875C146.053 28.7656 146.033 28.8438 145.994 28.9219C145.994 28.9609 146.014 29.0586 146.053 29.2148C146.092 29.293 146.111 29.4102 146.111 29.5664L145.994 30.1523C146.033 30.4648 146.014 30.6992 145.936 30.8555V31.207C145.936 31.3633 145.916 31.5 145.877 31.6172C145.838 31.6953 145.74 31.7734 145.584 31.8516C145.428 32.0078 144.92 32.1445 144.061 32.2617C143.943 32.2617 143.826 32.2812 143.709 32.3203C143.592 32.3594 143.514 32.3984 143.475 32.4375C143.045 32.4375 142.771 32.4766 142.654 32.5547C142.498 32.5547 142.4 32.5742 142.361 32.6133L141.6 32.8477L141.307 32.9062C141.111 32.9062 140.994 32.9258 140.955 32.9648C140.877 33.0039 140.818 33.0625 140.779 33.1406C140.74 33.1797 140.721 33.2383 140.721 33.3164V33.668C140.799 33.668 140.838 33.9805 140.838 34.6055C140.877 35.1914 140.916 35.4844 140.955 35.4844C141.229 35.4844 141.443 35.4648 141.6 35.4258C142.225 35.1523 142.674 35.0156 142.947 35.0156C143.768 35.0156 144.275 35.0547 144.471 35.1328C144.666 35.1719 144.803 35.1914 144.881 35.1914L145.467 35.4844C145.506 35.5234 145.604 35.582 145.76 35.6602C145.955 35.6992 146.092 35.7188 146.17 35.7188C146.365 35.875 146.482 35.9922 146.521 36.0703C146.561 36.1484 146.58 36.2461 146.58 36.3633C146.58 36.4414 146.561 36.5195 146.521 36.5977C146.521 36.5586 146.561 36.6953 146.639 37.0078C146.717 37.2422 146.736 37.3984 146.697 37.4766L146.639 38.0039C146.639 38.3164 146.619 38.4922 146.58 38.5312V39.1172C146.58 39.2734 146.561 39.3906 146.521 39.4688C146.521 39.5469 146.521 39.625 146.521 39.7031L146.346 39.9375C146.072 40.2109 145.779 40.3672 145.467 40.4062C145.193 40.4453 144.959 40.5625 144.764 40.7578C144.686 40.8359 144.588 40.875 144.471 40.875C143.689 41.0312 143.182 41.1484 142.947 41.2266C142.908 41.2656 142.811 41.2852 142.654 41.2852L142.479 41.3438C142.439 41.3438 142.244 41.4023 141.893 41.5195C141.58 41.5977 141.365 41.6367 141.248 41.6367C140.818 41.6367 140.564 41.6953 140.486 41.8125C140.447 41.8516 140.408 41.9688 140.369 42.1641C140.33 42.3594 140.311 42.5156 140.311 42.6328L140.252 43.6289L140.193 44.5078V44.625C140.193 44.7031 140.252 44.7617 140.369 44.8008C140.525 44.8008 140.662 44.8203 140.779 44.8594C141.014 44.8984 141.717 45.1523 142.889 45.6211C142.967 45.6602 143.064 45.6797 143.182 45.6797C143.299 45.6797 143.396 45.6992 143.475 45.7383L143.885 45.7969L144.412 45.8555L145.936 46.0898L146.287 46.1484C146.365 46.2266 146.482 46.2656 146.639 46.2656C146.678 46.3047 146.736 46.3242 146.814 46.3242C146.932 46.3242 147.049 46.3633 147.166 46.4414H147.635C148.299 46.5586 149.061 46.6172 149.92 46.6172C150.037 46.6172 150.135 46.6367 150.213 46.6758C150.291 46.6758 150.35 46.6562 150.389 46.6172L150.506 46.5L150.447 45.9727C150.447 45.6602 150.428 45.4844 150.389 45.4453C150.389 45.2891 150.369 45.1914 150.33 45.1523C150.33 44.8789 150.271 44.7227 150.154 44.6836L150.096 44.0977C150.096 43.8242 150.076 43.668 150.037 43.6289V43.3945C150.076 43.3164 150.135 43.2383 150.213 43.1602C150.33 43.043 150.447 42.9648 150.564 42.9258L150.857 42.8672L151.033 42.6914L151.209 42.457L151.326 42.3398C151.326 42.3398 151.365 42.3008 151.443 42.2227L151.619 41.9883L151.912 41.8125C151.99 41.6953 152.107 41.5781 152.264 41.4609C152.42 41.3047 152.557 41.1875 152.674 41.1094C152.83 40.9531 152.908 40.875 152.908 40.875L153.143 40.6992C153.338 40.6211 153.455 40.4844 153.494 40.2891C153.533 40.1328 153.768 39.8984 154.197 39.5859L154.432 39.4688L154.725 39.1758C154.764 39.0977 154.822 39.0195 154.9 38.9414C155.018 38.8242 155.135 38.6875 155.252 38.5312C155.604 38.0625 155.779 37.8086 155.779 37.7695L154.959 37.3594C154.959 37.3203 154.939 37.3008 154.9 37.3008C154.861 37.3008 154.842 37.2812 154.842 37.2422C154.725 37.2031 154.627 36.9688 154.549 36.5391C154.549 36.3438 154.529 36.2266 154.49 36.1875C154.49 36.1094 154.49 36.0508 154.49 36.0117L154.197 35.9531H153.904C153.826 35.875 153.787 35.5625 153.787 35.0156C153.787 34.3516 153.807 33.7461 153.846 33.1992C153.846 32.6914 153.826 32.3398 153.787 32.1445C153.787 31.9102 153.748 31.7539 153.67 31.6758C153.592 31.4805 153.553 31.2461 153.553 30.9727C153.709 30.4258 153.787 29.918 153.787 29.4492L153.904 28.043L153.963 27.0469L154.021 25.9922L154.08 25.2305L154.197 23.4141L154.256 22.7695C154.334 22.1836 154.412 21.8125 154.49 21.6562C154.529 21.4219 154.529 21.1875 154.49 20.9531C154.49 20.6797 154.51 20.4258 154.549 20.1914L154.607 19.7812C154.646 19.7031 154.666 19.5469 154.666 19.3125C154.705 18.9219 154.822 18.5312 155.018 18.1406C155.057 18.1016 155.154 18.0625 155.311 18.0234C155.623 18.0234 155.857 17.9453 156.014 17.7891L156.658 17.6133L157.01 17.4375C157.088 17.3594 157.127 17.1836 157.127 16.9102C157.127 16.4805 157.166 16.1875 157.244 16.0312L157.361 15.7383C157.361 15.6602 157.283 15.6211 157.127 15.6211L156.365 15.6797L156.014 15.6211C155.74 15.6211 155.486 15.6797 155.252 15.7969C155.135 15.7969 155.018 15.7578 154.9 15.6797C154.627 15.5625 154.373 15.5039 154.139 15.5039H153.846L153.553 15.2695C153.279 15.0742 153.084 14.9766 152.967 14.9766C152.85 14.9375 152.693 14.8984 152.498 14.8594C152.342 14.7812 152.205 14.7031 152.088 14.625C152.049 14.625 152.029 14.5664 152.029 14.4492V13.8047C152.029 12.3984 152.068 11.5391 152.146 11.2266C152.186 11.1484 152.205 11.0508 152.205 10.9336C152.205 10.6211 152.264 10.4062 152.381 10.2891C152.537 10.1328 152.811 10.0156 153.201 9.9375L153.67 9.82031L154.021 9.76172H154.432C154.432 9.76172 154.627 9.72266 155.018 9.64453C155.174 9.60547 155.35 9.58594 155.545 9.58594C155.857 9.46875 156.111 9.41016 156.307 9.41016H156.541C157.01 9.41016 157.361 9.39062 157.596 9.35156L158.475 9.29297C158.67 9.25391 158.904 9.23438 159.178 9.23438C159.607 9.15625 160.096 9.11719 160.643 9.11719C161.229 9.07812 161.736 9.07812 162.166 9.11719C163.143 9.35156 163.592 9.44922 163.514 9.41016C164.1 9.56641 164.568 9.74219 164.92 9.9375C165.506 10.3672 165.838 10.6992 165.916 10.9336C165.955 11.1289 165.955 11.2852 165.916 11.4023C165.877 11.4805 165.877 11.5977 165.916 11.7539C165.994 12.0273 166.014 12.2422 165.975 12.3984L165.857 13.3359C165.74 13.375 165.682 13.5508 165.682 13.8633V14.2148C165.643 14.293 165.545 14.3906 165.389 14.5078C165.271 14.5859 165.135 14.625 164.979 14.625L164.51 14.6836H163.807L163.279 14.7422C163.123 14.7422 162.908 14.7812 162.635 14.8594C162.4 14.8984 162.264 14.9375 162.225 14.9766C162.186 14.9766 162.146 14.9961 162.107 15.0352C162.107 15.0352 162.088 15.0352 162.049 15.0352C161.932 14.957 161.775 14.957 161.58 15.0352H161.229C160.564 15.1133 160.213 15.1719 160.174 15.2109C160.057 15.25 159.998 15.3281 159.998 15.4453L159.822 16.9688V17.1445L160.936 17.0859H161.287L162.107 17.1445C162.146 17.1836 162.225 17.2031 162.342 17.2031C162.928 17.3203 163.416 17.5156 163.807 17.7891C163.963 17.9062 164.139 18.0234 164.334 18.1406C164.568 18.2578 164.705 18.3359 164.744 18.375C164.979 18.6875 165.115 19.0781 165.154 19.5469L165.213 20.0156C165.291 20.1328 165.33 20.2891 165.33 20.4844V20.8359C165.369 20.9922 165.408 21.7148 165.447 23.0039C165.525 24.2539 165.564 25.543 165.564 26.8711C165.564 28.8242 165.506 29.8984 165.389 30.0938V30.7969C165.389 31.1484 165.369 31.3438 165.33 31.3828V31.9102C165.252 32.5742 165.154 33.1602 165.037 33.668C164.998 33.7852 164.979 33.9023 164.979 34.0195C165.018 34.1367 165.057 34.2148 165.096 34.2539C165.174 34.4492 165.193 34.5664 165.154 34.6055L165.037 35.7773C165.076 35.8945 165.057 35.9531 164.979 35.9531C164.9 36.0312 164.842 36.0703 164.803 36.0703L164.451 36.1875C164.256 36.3438 164.139 36.4609 164.1 36.5391C164.1 36.5781 164.197 36.6367 164.393 36.7148L164.803 36.9492L166.15 37.7695C166.697 38.2383 167.4 38.7266 168.26 39.2344C168.377 39.3125 168.514 39.3906 168.67 39.4688C168.826 39.5469 168.943 39.6055 169.021 39.6445C169.295 39.7617 169.49 39.8789 169.607 39.9961C169.764 40.0742 169.92 40.2109 170.076 40.4062C170.193 40.5234 170.311 40.7188 170.428 40.9922C170.506 41.1094 170.545 41.2656 170.545 41.4609L170.604 41.9883C170.643 42.1445 170.662 42.4961 170.662 43.043C170.662 44.332 170.623 45.1328 170.545 45.4453C170.467 45.5234 170.428 45.6211 170.428 45.7383C170.467 45.8555 170.506 45.9531 170.545 46.0312C170.584 46.1094 170.604 46.207 170.604 46.3242C170.604 46.5586 170.33 46.9492 169.783 47.4961C169.666 47.5742 169.51 47.6133 169.314 47.6133C169.197 47.6133 169.1 47.6133 169.021 47.6133C168.982 47.5742 168.924 47.5156 168.846 47.4375L168.436 47.2031C168.436 47.1641 168.357 47.1055 168.201 47.0273L167.732 46.8516C167.146 46.6172 166.854 46.5 166.854 46.5C166.619 46.4609 166.463 46.4219 166.385 46.3828C166.307 46.3047 166.248 46.2461 166.209 46.207C165.584 45.8945 165.076 45.3867 164.686 44.6836L164.451 44.2734C164.295 44.1172 164.217 44.0391 164.217 44.0391L163.689 43.4531L163.221 42.8086L162.811 42.3398C162.732 42.3398 162.654 42.3203 162.576 42.2812C162.537 42.2031 162.518 42.1445 162.518 42.1055L160.584 40.2305C160.428 40.0742 160.33 39.957 160.291 39.8789C160.252 39.8008 160.213 39.7422 160.174 39.7031C160.096 39.625 160.037 39.4883 159.998 39.293C159.92 39.0586 159.803 38.8242 159.646 38.5898C159.529 38.3555 159.373 38.0039 159.178 37.5352C159.139 37.418 159.08 37.3594 159.002 37.3594C158.924 37.3594 158.826 37.4375 158.709 37.5938C158.631 37.75 158.592 37.9062 158.592 38.0625V38.5312L158.299 39.5859C158.143 39.9375 158.006 40.1719 157.889 40.2891C157.811 40.4453 157.732 40.582 157.654 40.6992C157.576 40.8164 157.537 40.8945 157.537 40.9336C157.381 41.0898 157.264 41.2656 157.186 41.4609L156.775 42.2812L156.541 42.8672C156.541 42.9062 156.443 43.0234 156.248 43.2188L155.896 43.6289L154.666 45.2109L154.197 45.5625L153.67 45.9727L152.85 46.6172C152.85 46.6562 152.947 46.6953 153.143 46.7344C153.338 46.7344 153.65 46.7344 154.08 46.7344H155.604C155.955 46.7734 156.17 46.7539 156.248 46.6758H156.834L158.592 46.6172H160.701C161.639 46.6562 162.322 46.7148 162.752 46.793C163.416 46.832 164.451 47.1641 165.857 47.7891L166.502 48.082L166.912 48.375C167.068 48.5312 167.205 48.6289 167.322 48.668C167.947 49.0977 168.279 49.4883 168.318 49.8398C168.357 49.9961 168.377 50.25 168.377 50.6016C168.338 50.7188 168.318 50.8359 168.318 50.9531C168.357 51.0312 168.377 51.0898 168.377 51.1289L168.201 52.0664C168.123 52.2227 168.064 52.3789 168.025 52.5352C168.025 52.6914 168.045 52.9453 168.084 53.2969C168.123 53.5312 168.123 53.707 168.084 53.8242C168.045 53.8633 167.967 53.9805 167.85 54.1758L167.674 54.6445C167.557 54.7617 167.498 54.8398 167.498 54.8789C167.459 54.9961 167.303 55.0938 167.029 55.1719C166.912 55.1719 166.795 55.2305 166.678 55.3477C166.209 55.6211 165.623 55.7578 164.92 55.7578L164.686 55.875H164.568ZM132.225 25.7578C132.186 25.6797 132.166 25.2109 132.166 24.3516C132.166 23.4922 132.186 23.043 132.225 23.0039V22.125C132.225 21.6953 132.244 21.4414 132.283 21.3633V20.6016L132.342 19.6055C132.342 19.2539 132.381 18.9219 132.459 18.6094C132.42 18.4531 132.4 18.3164 132.4 18.1992C132.439 18.043 132.459 17.9453 132.459 17.9062C132.537 17.3594 132.576 16.5195 132.576 15.3867C132.615 15.1523 132.615 14.8789 132.576 14.5664C132.576 14.2148 132.596 13.8633 132.635 13.5117L132.693 12.0469L132.635 11.2852V11.1094C132.635 10.875 132.713 10.7188 132.869 10.6406C133.025 10.5234 133.299 10.4648 133.689 10.4648C134.002 10.4648 134.158 10.3867 134.158 10.2305C134.197 10.1133 134.314 10.0156 134.51 9.9375C134.705 9.82031 134.9 9.74219 135.096 9.70312C135.213 9.70312 135.311 9.66406 135.389 9.58594C135.428 9.58594 135.486 9.58594 135.564 9.58594C135.643 9.54688 135.799 9.52734 136.033 9.52734L136.854 9.46875C137.01 9.39062 137.264 9.35156 137.615 9.35156H138.553L139.842 9.41016C139.998 9.44922 140.154 9.46875 140.311 9.46875C140.506 9.42969 140.662 9.41016 140.779 9.41016H141.482C141.521 9.44922 141.58 9.46875 141.658 9.46875C142.322 9.66406 142.713 9.80078 142.83 9.87891L143.24 10.1133L143.475 10.2305L143.65 10.4648C144.002 10.6602 144.256 10.8945 144.412 11.168C144.529 11.4414 144.607 11.793 144.646 12.2227C144.686 12.6133 144.705 13.3164 144.705 14.332V16.3828C144.705 16.7344 144.705 17.1641 144.705 17.6719C144.744 18.1406 144.744 18.7461 144.705 19.4883L144.646 21.4219C144.607 22.125 144.549 22.7109 144.471 23.1797C144.393 23.6484 144.314 24.0586 144.236 24.4102L143.943 25.3477C143.709 25.582 143.514 25.6992 143.357 25.6992C143.123 25.6992 142.928 25.6211 142.771 25.4648C142.615 25.4648 142.498 25.4453 142.42 25.4062C142.264 25.3672 142.166 25.3672 142.127 25.4062C142.01 25.4453 141.834 25.5039 141.6 25.582C141.404 25.6602 141.248 25.7188 141.131 25.7578C141.014 25.7578 140.936 25.7773 140.896 25.8164C140.74 25.9727 140.525 26.0508 140.252 26.0508L139.607 26.168C139.568 26.207 139.51 26.2266 139.432 26.2266C139.393 26.2266 139.334 26.2461 139.256 26.2852C139.1 26.2852 138.885 26.3633 138.611 26.5195C137.947 26.7148 137.537 26.8125 137.381 26.8125L137.146 26.8711C137.068 26.9102 136.795 26.9492 136.326 26.9883L135.096 27.0469C134.666 27.0469 134.393 27.0078 134.275 26.9297C134.197 26.9297 134.119 26.8906 134.041 26.8125C133.533 26.7344 133.123 26.6367 132.811 26.5195L132.518 26.3438C132.4 26.2656 132.322 26.1875 132.283 26.1094C132.283 26.0312 132.283 25.9727 132.283 25.9336L132.225 25.7578ZM135.799 14.6836C135.799 15.4258 135.818 15.8555 135.857 15.9727C135.857 16.0898 135.857 16.168 135.857 16.207C135.896 16.2461 135.936 16.2656 135.975 16.2656L136.092 16.207L136.502 16.1484C136.541 16.1484 136.736 16.0898 137.088 15.9727L137.557 15.9141L137.85 15.8555C137.889 15.8555 137.947 15.8359 138.025 15.7969C138.143 15.7578 138.26 15.7383 138.377 15.7383L138.846 15.5625C139.08 15.4844 139.393 15.4453 139.783 15.4453H140.193C140.311 15.3672 140.408 15.3672 140.486 15.4453C140.682 15.4453 140.799 15.4258 140.838 15.3867C141.033 15.3867 141.131 15.3672 141.131 15.3281C141.17 15.2891 141.189 15.2109 141.189 15.0938C141.15 15.0547 141.131 14.9766 141.131 14.8594C141.131 14.7812 141.092 14.7227 141.014 14.6836C140.975 14.6055 140.916 14.5664 140.838 14.5664C140.76 14.5273 140.701 14.5078 140.662 14.5078C140.584 14.5078 140.525 14.5078 140.486 14.5078C140.447 14.4688 140.408 14.4492 140.369 14.4492H139.959L139.314 14.3906H139.08L138.846 14.4492C138.65 14.4492 138.436 14.4297 138.201 14.3906C138.006 14.3125 137.85 14.293 137.732 14.332C137.654 14.332 137.518 14.3125 137.322 14.2734C137.127 14.2344 137.01 14.2344 136.971 14.2734C136.932 14.2344 136.814 14.2148 136.619 14.2148C136.072 14.2148 135.799 14.3711 135.799 14.6836ZM136.033 21.4805C136.033 21.5195 136.053 21.5391 136.092 21.5391C136.287 21.5391 136.424 21.5195 136.502 21.4805L137.322 21.3047C137.4 21.2656 137.479 21.2461 137.557 21.2461C137.674 21.2461 137.752 21.2266 137.791 21.1875L138.553 21.1289C138.748 21.0117 138.924 20.9531 139.08 20.9531C139.158 20.875 139.568 20.8359 140.311 20.8359C140.428 20.7969 140.545 20.8164 140.662 20.8945C140.857 21.0117 140.955 20.9922 140.955 20.8359C140.955 20.8359 140.955 20.7578 140.955 20.6016C140.994 20.4062 140.994 20.1719 140.955 19.8984L140.896 19.0195C140.936 18.9023 140.936 18.8242 140.896 18.7852C140.896 18.7461 140.877 18.7266 140.838 18.7266C140.799 18.6875 140.74 18.668 140.662 18.668C140.545 18.668 140.408 18.707 140.252 18.7852C140.135 18.8242 140.057 18.8633 140.018 18.9023L139.842 18.9609C139.686 18.9609 139.49 19 139.256 19.0781C139.139 19.1172 138.826 19.1953 138.318 19.3125C138.123 19.3516 137.889 19.3906 137.615 19.4297C137.342 19.4688 137.068 19.4883 136.795 19.4883H136.033C135.994 19.7227 135.975 20.0547 135.975 20.4844C135.975 20.9141 135.994 21.2461 136.033 21.4805ZM156.893 33.1406C156.893 33.5312 156.912 33.7461 156.951 33.7852L157.83 33.6094L158.299 33.5508C158.338 33.5117 158.475 33.4922 158.709 33.4922L159.178 33.4336C159.334 33.3945 159.607 33.375 159.998 33.375C160.115 33.3359 160.33 33.3164 160.643 33.3164C160.799 33.2383 161.072 33.1992 161.463 33.1992L162.166 33.1406C162.205 33.1016 162.205 33.0234 162.166 32.9062C162.166 32.7891 162.186 32.5742 162.225 32.2617L162.283 30.8555C162.244 30.7773 162.186 30.7773 162.107 30.8555H161.873C161.795 30.8945 161.697 30.9141 161.58 30.9141C161.502 30.9141 161.443 30.9336 161.404 30.9727L161.111 31.0312C160.994 31.0703 160.838 31.1094 160.643 31.1484C160.447 31.1875 160.291 31.2266 160.174 31.2656C160.174 31.2656 159.822 31.3438 159.119 31.5L158.709 31.6172L158.357 31.6758H157.947C157.908 31.7148 157.732 31.7344 157.42 31.7344L157.068 31.793C156.99 31.793 156.951 31.9883 156.951 32.3789L156.893 32.9062V33.1406ZM156.951 23.4141C156.951 23.5312 156.971 23.6289 157.01 23.707C157.049 23.7852 157.088 23.8438 157.127 23.8828L157.361 23.8242C157.908 23.668 158.26 23.5898 158.416 23.5898C158.65 23.5898 158.846 23.5508 159.002 23.4727L159.764 23.4141C160.037 23.4141 160.174 23.3945 160.174 23.3555C160.408 23.2383 160.916 23.1797 161.697 23.1797C162.166 23.1797 162.42 23.1602 162.459 23.1211V22.9453C162.459 22.5547 162.439 22.3398 162.4 22.3008C162.4 22.2617 162.322 22.2031 162.166 22.125L161.932 22.0664C161.854 22.0273 161.775 22.0078 161.697 22.0078C161.619 21.9688 161.561 21.9688 161.521 22.0078H160.818L160.057 22.125C160.018 22.1641 159.744 22.1836 159.236 22.1836C159.119 22.2227 158.982 22.2422 158.826 22.2422C158.709 22.2422 158.611 22.2617 158.533 22.3008C158.455 22.3008 158.26 22.3398 157.947 22.418C157.791 22.418 157.654 22.4375 157.537 22.4766C157.42 22.5156 157.283 22.6133 157.127 22.7695C157.088 22.8086 157.049 22.9062 157.01 23.0625C156.971 23.1797 156.951 23.2969 156.951 23.4141ZM157.127 27.8086C157.166 27.8477 157.205 27.8672 157.244 27.8672C157.283 27.8281 157.361 27.8086 157.479 27.8086L158.182 27.75C158.26 27.7109 158.338 27.6914 158.416 27.6914C158.494 27.6523 158.553 27.6133 158.592 27.5742C158.787 27.5742 158.963 27.5547 159.119 27.5156C159.627 27.5156 159.939 27.4961 160.057 27.457C160.096 27.457 160.135 27.4375 160.174 27.3984C160.213 27.3594 160.291 27.3398 160.408 27.3398H161.17C161.326 27.3008 161.561 27.2812 161.873 27.2812C162.186 27.2422 162.342 27.2031 162.342 27.1641C162.381 27.125 162.4 26.9883 162.4 26.7539C162.4 26.5977 162.381 26.4805 162.342 26.4023C162.303 26.3242 162.225 26.3047 162.107 26.3438C162.029 26.3438 161.971 26.3242 161.932 26.2852C161.854 26.207 161.717 26.168 161.521 26.168C161.482 26.1289 161.424 26.1094 161.346 26.1094C161.58 26.1094 161.307 26.1875 160.525 26.3438C159.744 26.5 159.256 26.5977 159.061 26.6367L158.709 26.6953C158.553 26.6953 158.436 26.7148 158.357 26.7539L157.889 26.8125H157.186C157.146 26.8516 157.107 26.9883 157.068 27.2227C157.068 27.457 157.088 27.6523 157.127 27.8086Z" fill="#4A443D"/>
<path d="M113.357 54.5859C113.318 54.5469 113.162 54.5273 112.889 54.5273C112.811 54.4883 112.713 54.4492 112.596 54.4102C112.479 54.3711 112.361 54.3516 112.244 54.3516C112.166 54.3125 112.068 54.293 111.951 54.293C111.834 54.293 111.736 54.1367 111.658 53.8242L111.482 53.4727C111.404 53.4336 111.346 53.3945 111.307 53.3555C111.268 53.2773 111.248 53.2188 111.248 53.1797C111.248 53.0625 111.229 52.9453 111.189 52.8281C111.15 52.7109 111.111 52.6328 111.072 52.5938C111.033 52.5156 110.975 52.3984 110.896 52.2422C110.818 52.0469 110.76 51.832 110.721 51.5977L110.604 51.3633C110.564 51.2461 110.545 51.1094 110.545 50.9531C110.545 50.9531 110.779 50.8164 111.248 50.543C111.717 50.3086 112.049 50.1133 112.244 49.957C112.439 49.7617 112.576 49.5273 112.654 49.2539C112.732 49.1758 112.791 49.0781 112.83 48.9609C112.908 48.8438 112.967 48.7461 113.006 48.668C113.162 48.4727 113.279 48.1406 113.357 47.6719C113.357 47.4766 113.396 47.3398 113.475 47.2617C113.475 47.1836 113.494 47.125 113.533 47.0859C113.572 47.0078 113.592 46.9102 113.592 46.793C113.631 46.7539 113.65 46.7148 113.65 46.6758C113.65 46.5977 113.67 46.5586 113.709 46.5586L113.826 45.7383L114.002 44.625L114.061 43.8047C114.1 43.7656 114.119 43.6289 114.119 43.3945L114.178 43.043C114.217 43.0039 114.236 42.8477 114.236 42.5742C114.275 42.457 114.295 42.2422 114.295 41.9297L114.412 41.2266L114.646 39.3516L114.705 38.2969C114.744 38.1016 114.764 37.8672 114.764 37.5938L114.822 36.7734L114.881 35.6602L115.057 32.8477C115.057 32.1836 115.076 31.8125 115.115 31.7344L115.232 30.3281C115.311 30.0938 115.271 29.9766 115.115 29.9766C115.076 30.0156 114.92 30.0352 114.646 30.0352L114.178 30.0938C114.178 30.0938 114.08 30.1328 113.885 30.2109C112.83 30.3672 112.244 30.4648 112.127 30.5039C112.01 30.582 111.756 30.6211 111.365 30.6211L110.779 30.6797L110.311 30.7969C110.232 30.8359 109.803 30.8555 109.021 30.8555C108.709 30.8555 108.514 30.8359 108.436 30.7969C108.396 30.7578 108.338 30.7383 108.26 30.7383C108.221 30.7383 108.182 30.7188 108.143 30.6797C108.025 30.6797 107.928 30.7188 107.85 30.7969C107.771 30.8359 107.693 30.9141 107.615 31.0312C107.42 31.3047 107.225 31.3438 107.029 31.1484C107.029 31.0703 106.932 30.9336 106.736 30.7383C106.736 30.7383 106.6 30.6016 106.326 30.3281C106.248 30.1328 106.15 30.1328 106.033 30.3281C105.916 30.5234 105.76 30.5234 105.564 30.3281C105.486 30.25 105.408 30.2109 105.33 30.2109L104.979 30.2695C104.822 30.2695 104.705 30.2305 104.627 30.1523C104.549 30.1133 104.51 29.9961 104.51 29.8008L104.393 28.1602C104.393 27.9258 104.354 27.7695 104.275 27.6914L104.217 25.3477V24.7031L103.924 24.2344V21.6562C103.924 20.6797 103.924 19.9766 103.924 19.5469C103.963 19.1172 103.982 18.8438 103.982 18.7266L104.041 17.7891C104.119 17.1641 104.158 16.8516 104.158 16.8516L104.217 16.1484C104.217 15.3672 104.236 14.7617 104.275 14.332L104.334 13.043C104.373 12.7695 104.393 12.3594 104.393 11.8125V10.5234L104.51 10.3477L104.744 10.1719C104.861 10.0938 105.018 10.0156 105.213 9.9375C105.408 9.85938 105.584 9.82031 105.74 9.82031L106.268 9.64453L107.205 9.41016C107.557 9.33203 107.771 9.25391 107.85 9.17578C108.162 8.94141 108.436 8.82422 108.67 8.82422C108.943 8.82422 109.119 8.80469 109.197 8.76562H110.018C110.174 8.72656 110.35 8.70703 110.545 8.70703C110.545 8.62891 110.682 8.58984 110.955 8.58984C111.307 8.58984 111.541 8.57031 111.658 8.53125L112.244 8.47266C112.791 8.39453 113.299 8.39453 113.768 8.47266L114.178 8.58984C114.334 8.58984 114.705 8.6875 115.291 8.88281C115.369 8.88281 115.447 8.90234 115.525 8.94141C115.604 8.98047 115.701 9.01953 115.818 9.05859L116.932 9.64453C117.049 9.72266 117.166 9.80078 117.283 9.87891C117.4 9.95703 117.498 10.0156 117.576 10.0547L118.279 10.4062C118.279 10.4844 118.318 10.543 118.396 10.582C118.475 10.6211 118.553 10.7188 118.631 10.875C118.748 10.9922 118.846 11.1289 118.924 11.2852C119.119 11.7539 119.256 12.2031 119.334 12.6328C119.412 12.7891 119.451 12.9258 119.451 13.043C119.607 13.2383 119.686 13.9219 119.686 15.0938C119.686 16.2656 119.705 17.3203 119.744 18.2578L119.803 21.3633L119.861 23.5898C119.861 24.8398 119.822 26.207 119.744 27.6914C119.705 27.9258 119.686 28.707 119.686 30.0352C119.686 31.2461 119.666 31.8711 119.627 31.9102C119.627 32.2617 119.588 32.6133 119.51 32.9648C119.51 33.5898 119.49 33.9219 119.451 33.9609C119.451 34.3906 119.432 34.7617 119.393 35.0742L119.334 36.6562L119.217 38.5312L119.158 40.2305L119.1 41.7539C119.1 42.1445 119.08 42.418 119.041 42.5742C119.041 42.7305 119.041 42.8281 119.041 42.8672L118.982 43.3359C118.982 43.3359 118.943 43.8047 118.865 44.7422L118.807 45.5039C118.807 45.6211 118.768 45.8359 118.689 46.1484L118.631 46.793L118.514 47.4961L118.455 47.9648C118.455 48.1602 118.436 48.3164 118.396 48.4336L118.338 49.1953L118.279 49.8398C118.24 49.957 118.143 50.3672 117.986 51.0703C117.908 51.5 117.811 51.793 117.693 51.9492C117.498 52.4961 117.381 52.7891 117.342 52.8281L117.225 53.0625C117.107 53.375 116.756 53.7266 116.17 54.1172C116.131 54.1562 115.936 54.2344 115.584 54.3516C115.467 54.4688 115.193 54.5469 114.764 54.5859C114.568 54.625 114.334 54.6445 114.061 54.6445C113.787 54.6445 113.553 54.625 113.357 54.5859ZM83.7676 46.9102C83.7676 46.2461 83.7871 45.4844 83.8262 44.625C83.8652 43.7266 83.9043 43.0039 83.9434 42.457C83.9824 42.3789 84.002 42.1641 84.002 41.8125C84.1582 40.8359 84.2363 40.3281 84.2363 40.2891L84.2949 39.5859C84.2949 39.1172 84.3145 38.8633 84.3535 38.8242L84.4121 37.125L84.4707 36.7148C84.5098 36.6367 84.5684 35.9141 84.6465 34.5469V33.7266L84.7051 31.207V28.5703C84.7441 28.4531 84.7637 28.1992 84.7637 27.8086C84.7246 27.5352 84.7246 26.7539 84.7637 25.4648C84.8027 24.1367 84.8223 23.4531 84.8223 23.4141C84.8613 23.2969 84.8809 23.1016 84.8809 22.8281C84.8809 22.5547 84.9004 22.2812 84.9395 22.0078C84.9395 21.0703 84.959 20.5625 84.998 20.4844C84.998 20.4453 84.998 20.3477 84.998 20.1914C85.0371 20.0352 85.0566 19.8008 85.0566 19.4883L85.1738 17.3203C85.2129 17.2812 85.2324 17.1445 85.2324 16.9102C85.2324 16.6367 85.252 16.4609 85.291 16.3828L85.3496 15.7383C85.3496 15.4258 85.3691 15.1523 85.4082 14.918C85.4473 14.6445 85.4668 14.4883 85.4668 14.4492C85.5059 14.332 85.5449 14.1562 85.584 13.9219C85.623 13.6875 85.6426 13.4531 85.6426 13.2188C85.7207 12.8281 85.8574 12.5352 86.0527 12.3398C86.1309 12.2617 86.3262 12.1055 86.6387 11.8711L86.9902 11.5781L87.3418 11.3438C87.3809 11.3438 87.4395 11.3047 87.5176 11.2266C87.6348 11.1484 87.752 11.0703 87.8691 10.9922C88.3379 10.7969 88.5723 10.6992 88.5723 10.6992C88.6504 10.6992 88.8066 10.6211 89.041 10.4648L89.5098 10.2891L89.7441 10.1719L90.8574 9.9375L91.0918 9.87891C91.1309 9.83984 91.3066 9.82031 91.6191 9.82031L92.0293 9.76172C92.0684 9.72266 92.2637 9.70312 92.6152 9.70312C92.8496 9.66406 93.1816 9.66406 93.6113 9.70312C94.041 9.70312 94.334 9.70312 94.4902 9.70312C94.959 9.78125 95.4473 9.91797 95.9551 10.1133C96.2676 10.1914 96.5215 10.2695 96.7168 10.3477C96.9121 10.4258 97.0879 10.543 97.2441 10.6992C97.6738 10.8945 98.0059 11.0898 98.2402 11.2852C98.5918 11.4805 98.8457 11.8125 99.002 12.2812C99.041 12.3594 99.1191 12.6914 99.2363 13.2773L99.3535 13.9219V15.0938L99.4121 16.1484V18.668L99.3535 21.1289L99.1777 24.4688C99.1387 24.5078 99.1191 24.7031 99.1191 25.0547C99.0801 25.25 99.0605 25.4648 99.0605 25.6992C99.0215 25.7773 99.002 25.875 99.002 25.9922C99.002 26.0703 98.9824 26.168 98.9434 26.2852L98.8262 26.8711L98.7676 27.457C98.6895 27.7695 98.6504 28.082 98.6504 28.3945C98.5723 28.3945 98.5332 28.4727 98.5332 28.6289C98.4551 28.9805 98.2793 29.4297 98.0059 29.9766C97.7715 30.5234 97.5371 30.9141 97.3027 31.1484C96.9902 31.5781 96.6387 31.793 96.248 31.793C96.0918 31.793 95.8574 31.6367 95.5449 31.3242C95.2715 31.1289 95.0566 31.0117 94.9004 30.9727C94.7832 30.8945 94.5488 30.8164 94.1973 30.7383C93.9629 30.6992 93.7871 30.6797 93.6699 30.6797C93.5918 30.6797 93.4941 30.7188 93.377 30.7969C93.2207 30.875 93.1035 30.9141 93.0254 30.9141H92.8496C92.7715 30.9922 92.6738 30.9922 92.5566 30.9141C92.0488 30.9141 91.7168 30.9531 91.5605 31.0312C91.4043 31.0703 91.1895 31.1094 90.916 31.1484C90.6426 31.1484 90.4277 31.1484 90.2715 31.1484C90.0762 31.1484 89.9395 31.1289 89.8613 31.0898L89.5098 31.0312C89.3535 31.0312 89.2754 31.0508 89.2754 31.0898C89.2363 31.1289 89.2168 31.2266 89.2168 31.3828C89.2168 31.3828 89.2559 31.9492 89.334 33.082L89.3926 34.7227C89.3926 35.6211 89.4121 36.168 89.4512 36.3633L89.5098 38.2383L89.5684 40.9336V43.6289C89.6074 43.668 89.627 44.6641 89.627 46.6172L89.6855 48.7852C89.6855 49.918 89.7051 50.6211 89.7441 50.8945L89.8027 52.3594C89.8027 52.9062 89.7441 53.2773 89.627 53.4727C89.5879 53.5117 89.5684 53.5898 89.5684 53.707L89.2754 54.293H88.9824C88.9043 54.332 88.8262 54.3125 88.748 54.2344L88.5137 53.8828L88.2207 53.6484C88.1035 53.6484 87.9277 53.5703 87.6934 53.4141L87.5762 53.2969L87.459 53.4727L87.4004 53.5898C87.3223 53.6289 87.1465 53.6094 86.873 53.5312H86.5215C86.4434 53.6094 86.3262 53.6484 86.1699 53.6484C86.0527 53.6875 85.9746 53.6875 85.9355 53.6484C85.8184 53.6094 85.7207 53.5117 85.6426 53.3555C85.6035 53.1992 85.5449 52.9844 85.4668 52.7109L85.4082 52.3594L85.3496 52.125L85.2324 51.5977C85.1543 51.168 85.0566 50.8555 84.9395 50.6602L84.7637 50.3086C84.7637 50.1523 84.7441 50.0352 84.7051 49.957C84.666 49.8789 84.6465 49.7422 84.6465 49.5469C84.6465 49.4297 84.627 49.332 84.5879 49.2539L84.3535 48.2578C84.3535 48.0625 84.3145 47.9648 84.2363 47.9648L84.002 47.9062C83.9238 47.9062 83.8652 47.8281 83.8262 47.6719C83.7871 47.5156 83.7676 47.2617 83.7676 46.9102ZM88.6309 17.9062C88.6309 18.9219 88.6895 19.4297 88.8066 19.4297C88.8066 19.4688 88.8848 19.4688 89.041 19.4297C89.7051 19.2344 90.1934 19.1172 90.5059 19.0781L90.9746 18.9609C91.209 18.9609 91.3848 18.9023 91.502 18.7852L92.0879 18.7266C93.0645 18.5312 93.8652 18.4727 94.4902 18.5508C94.7246 18.5508 94.8418 18.5312 94.8418 18.4922C94.8809 18.4922 94.9004 18.2188 94.9004 17.6719C94.9004 17.125 94.8809 16.832 94.8418 16.793C94.8027 16.793 94.7246 16.7734 94.6074 16.7344C94.4902 16.6953 94.2363 16.6367 93.8457 16.5586C93.7285 16.5195 93.4941 16.5 93.1426 16.5L92.6152 16.5586C92.3027 16.5586 92.0879 16.5781 91.9707 16.6172L91.502 16.7344L90.9746 16.793L90.623 16.8516C90.3496 16.8125 90.1348 16.832 89.9785 16.9102L89.7441 17.0273L89.2168 17.2617C89.1777 17.3008 89.0801 17.3594 88.9238 17.4375C88.8066 17.4766 88.7285 17.5352 88.6895 17.6133C88.6504 17.6914 88.6309 17.7891 88.6309 17.9062ZM88.9238 25.2305C88.9238 25.6602 88.9434 25.8945 88.9824 25.9336C88.9824 25.9727 89.1191 25.9922 89.3926 25.9922C89.5488 25.9531 90.0371 25.8945 90.8574 25.8164C90.9746 25.7773 91.1113 25.7578 91.2676 25.7578C91.4238 25.7578 91.541 25.7383 91.6191 25.6992L92.8496 25.582C93.4355 25.582 93.7676 25.543 93.8457 25.4648C93.8848 25.3867 93.9434 25.2695 94.0215 25.1133C94.1387 24.957 94.2168 24.8008 94.2559 24.6445L94.373 24.2344C94.4902 23.8828 94.5098 23.668 94.4316 23.5898C94.3926 23.5508 94.2363 23.5703 93.9629 23.6484C93.8066 23.6484 93.6504 23.6875 93.4941 23.7656C93.0645 23.8438 92.8105 23.9609 92.7324 24.1172L92.498 24.1758L92.0293 24.2344C91.7949 24.3125 91.6387 24.3516 91.5605 24.3516C91.4043 24.3516 91.2676 24.3906 91.1504 24.4688C90.916 24.5469 90.7012 24.5859 90.5059 24.5859H88.9824C88.9434 24.625 88.9238 24.8398 88.9238 25.2305ZM95.4277 42.6328L95.5449 41.6953L95.6035 40.582C95.6426 40.4258 95.6621 40.2695 95.6621 40.1133C95.6621 39.918 95.6816 39.7422 95.7207 39.5859L95.7793 38.7656L95.8379 37.7109V36.7148C95.877 36.6758 95.8965 36.6172 95.8965 36.5391C95.8965 36.4609 95.916 36.3828 95.9551 36.3047C95.9551 36.0312 96.0137 35.7383 96.1309 35.4258L96.1895 35.0156C96.3066 34.3516 96.5996 33.9609 97.0684 33.8438C97.1465 33.7656 97.3223 33.6875 97.5957 33.6094C97.8691 33.4922 98.1035 33.4141 98.2988 33.375C98.377 33.3359 98.4551 33.3164 98.5332 33.3164C98.6504 33.3164 98.748 33.2969 98.8262 33.2578H99.1777C99.2949 33.2188 99.5488 33.1602 99.9395 33.082L100.408 33.0234C100.564 32.9453 100.76 32.9062 100.994 32.9062C101.072 32.8672 101.15 32.8477 101.229 32.8477C101.346 32.8477 101.424 32.8281 101.463 32.7891L101.932 32.7305L102.518 32.6719H103.279C103.592 32.6719 103.846 32.6914 104.041 32.7305L104.686 32.9062C104.842 32.9062 105.037 32.9648 105.271 33.082C105.506 33.1992 105.76 33.3164 106.033 33.4336C106.58 33.668 106.932 33.8633 107.088 34.0195C107.283 34.1758 107.459 34.4883 107.615 34.957L107.791 35.8359C107.791 35.9531 107.83 36.168 107.908 36.4805L107.967 37.3594L108.025 38.0625C108.064 38.1406 108.064 38.8828 108.025 40.2891V40.582L107.967 42.8086C107.928 42.8477 107.908 43.4531 107.908 44.625C107.869 46.5 107.83 47.6133 107.791 47.9648V48.668C107.83 48.9414 107.811 49.1758 107.732 49.3711C107.732 49.5273 107.713 49.6641 107.674 49.7812L107.557 50.0742L107.381 50.3672C107.381 50.4453 107.361 50.5039 107.322 50.543C107.283 50.582 107.264 50.6211 107.264 50.6602C107.225 50.7383 107.166 50.8164 107.088 50.8945C107.049 50.9336 107.029 50.9727 107.029 51.0117C107.029 51.0117 106.99 51.0508 106.912 51.1289C106.834 51.207 106.736 51.2852 106.619 51.3633C106.502 51.4414 106.385 51.5 106.268 51.5391C106.15 51.5781 106.033 51.6172 105.916 51.6562C105.799 51.6562 105.721 51.6367 105.682 51.5977C105.682 51.5586 105.545 51.5391 105.271 51.5391C105.037 51.5391 104.881 51.5195 104.803 51.4805H103.865C103.67 51.4805 103.533 51.5 103.455 51.5391C103.377 51.5391 103.318 51.5391 103.279 51.5391C103.201 51.5781 102.889 51.5977 102.342 51.5977L101.521 51.6562C101.365 51.6953 101.111 51.7148 100.76 51.7148C100.408 51.7148 100.154 51.6953 99.998 51.6562C99.9199 51.6562 99.8223 51.5977 99.7051 51.4805C99.627 51.3633 99.5293 51.2656 99.4121 51.1875C99.334 51.1094 99.2363 51.1094 99.1191 51.1875C99.002 51.2266 98.9238 51.3047 98.8848 51.4219C98.8066 51.5391 98.709 51.6172 98.5918 51.6562C98.4746 51.6953 98.3965 51.6758 98.3574 51.5977C98.2012 51.4414 98.123 51.3633 98.123 51.3633C98.084 51.2461 97.9668 51.1484 97.7715 51.0703C97.5762 50.9531 97.4395 50.8945 97.3613 50.8945C97.2441 51.0117 97.1074 50.9922 96.9512 50.8359C96.873 50.7969 96.7754 50.7773 96.6582 50.7773H96.3066C96.1895 50.7773 96.0918 50.7578 96.0137 50.7188C95.9746 50.6406 95.9551 50.5234 95.9551 50.3672L95.8965 49.6055C95.8574 49.4492 95.8379 49.1367 95.8379 48.668C95.8379 48.5117 95.8184 48.3945 95.7793 48.3164C95.7793 48.2383 95.7793 48.1797 95.7793 48.1406C95.7402 48.0625 95.6816 47.5352 95.6035 46.5586L95.5449 45.9141H95.4277C95.3496 45.875 95.291 45.7773 95.252 45.6211C95.252 45.4258 95.252 45.1523 95.252 44.8008L95.4277 42.6328ZM99.1777 43.7461C99.2168 43.7461 99.2363 43.7656 99.2363 43.8047C99.2754 43.8047 99.3145 43.8047 99.3535 43.8047C99.4316 43.8438 99.5488 43.8633 99.7051 43.8633C99.9004 43.8633 100.057 43.8438 100.174 43.8047C100.252 43.7656 100.818 43.7461 101.873 43.7461C102.498 43.668 102.811 43.6289 102.811 43.6289C102.928 43.5898 103.006 43.3359 103.045 42.8672L103.104 39.9961C103.104 39.8398 102.947 39.7227 102.635 39.6445H102.283L102.107 39.5273C101.873 39.4883 101.736 39.4883 101.697 39.5273C101.619 39.5664 101.502 39.6055 101.346 39.6445C101.229 39.6445 101.111 39.625 100.994 39.5859H100.467C100.35 39.5859 100.252 39.6055 100.174 39.6445C100.135 39.6445 100.096 39.6445 100.057 39.6445C99.7441 39.7617 99.5293 39.9961 99.4121 40.3477V40.6992C99.373 41.0508 99.3145 41.5586 99.2363 42.2227C99.1973 42.8867 99.1777 43.3945 99.1777 43.7461ZM108.143 24.5273C108.143 24.918 108.182 25.1523 108.26 25.2305C108.26 25.2305 108.26 25.25 108.26 25.2891C108.299 25.2891 108.318 25.2891 108.318 25.2891C108.396 25.2891 108.611 25.2305 108.963 25.1133L110.018 24.9375C110.369 24.9375 110.564 24.918 110.604 24.8789H111.717C111.912 24.8398 112.4 24.8203 113.182 24.8203C114.354 24.8203 115.037 24.8398 115.232 24.8789C115.35 24.918 115.428 24.918 115.467 24.8789C115.506 24.8008 115.525 24.6836 115.525 24.5273C115.564 24.0195 115.584 23.2969 115.584 22.3594L115.525 22.125C115.486 22.0859 115.369 22.0859 115.174 22.125L114.881 22.1836C114.842 22.2227 114.705 22.2422 114.471 22.2422L113.416 22.418C113.221 22.5352 113.045 22.5547 112.889 22.4766C112.85 22.4375 112.674 22.457 112.361 22.5352C112.322 22.5742 112.264 22.5938 112.186 22.5938C112.146 22.5938 112.107 22.6133 112.068 22.6523C111.912 22.6523 111.814 22.6719 111.775 22.7109C111.736 22.75 111.639 22.7695 111.482 22.7695H111.189C111.15 22.8086 111.072 22.8281 110.955 22.8281L110.604 22.8867L109.666 22.9453C109.041 22.9453 108.65 22.9258 108.494 22.8867C108.455 22.8477 108.396 22.8281 108.318 22.8281C108.24 22.8281 108.201 23.0625 108.201 23.5312L108.143 24.5273ZM108.318 17.9062C108.357 17.9453 108.455 17.9453 108.611 17.9062C109.197 17.7891 109.783 17.7305 110.369 17.7305C110.877 17.6914 111.404 17.6719 111.951 17.6719C112.498 17.6719 112.947 17.6914 113.299 17.7305C113.377 17.7695 113.475 17.7891 113.592 17.7891C113.709 17.7891 113.807 17.8086 113.885 17.8477H114.236C114.275 17.8867 114.314 17.9062 114.354 17.9062C114.393 17.8672 114.432 17.8477 114.471 17.8477C114.588 17.8086 114.744 17.7891 114.939 17.7891C115.291 17.7891 115.467 17.7109 115.467 17.5547V17.1445C115.467 16.9102 115.447 16.7148 115.408 16.5586C115.408 16.2852 115.369 16.1094 115.291 16.0312C115.213 15.9531 115.037 15.9141 114.764 15.9141C114.451 15.9141 114.217 15.875 114.061 15.7969C113.982 15.7578 113.768 15.7383 113.416 15.7383C112.986 15.7383 112.693 15.7578 112.537 15.7969C112.381 15.7969 112.264 15.7969 112.186 15.7969C112.107 15.8359 111.736 15.875 111.072 15.9141C110.486 15.9141 110.115 15.9336 109.959 15.9727C109.881 16.0508 109.764 16.0703 109.607 16.0312L109.139 16.0898L108.67 16.3242C108.514 16.3242 108.396 16.3633 108.318 16.4414C108.279 16.5977 108.26 16.8516 108.26 17.2031C108.26 17.5156 108.279 17.75 108.318 17.9062Z" fill="#4A443D"/>
<path d="M64.666 54.7617C64.1582 54.7617 63.8652 54.7422 63.7871 54.7031C63.748 54.6641 63.6504 54.6445 63.4941 54.6445C63.377 54.6445 63.2402 54.6055 63.084 54.5273C63.123 54.5664 62.9473 54.5273 62.5566 54.4102C62.0488 54.4102 61.7559 54.3711 61.6777 54.293L61.4434 54.1758C61.3652 54.1758 61.2871 54.1367 61.209 54.0586L60.1543 53.5312C59.959 53.4531 59.7051 53.3164 59.3926 53.1211L59.041 52.9453L58.0449 52.5352L57.8105 52.3594C57.3418 52.1641 56.8535 51.7344 56.3457 51.0703C56.2285 50.9141 56.0723 50.6797 55.877 50.3672C55.7207 50.0156 55.6035 49.7031 55.5254 49.4297L55.3496 48.9609L55.291 48.8438L55.1738 48.4336L55.0566 47.7305C55.0176 47.6133 54.998 47.4961 54.998 47.3789C54.998 47.2617 54.9785 47.1641 54.9395 47.0859L54.8223 46.4414V45.8555C54.7832 45.6992 54.7637 45.5039 54.7637 45.2695C54.7637 44.9961 54.7441 44.7227 54.7051 44.4492V42.5156C54.666 42.3984 54.6465 41.7148 54.6465 40.4648C54.6465 39.7617 54.627 39.2734 54.5879 39C54.5488 38.6875 54.5098 38.6094 54.4707 38.7656L54.2949 39.1172C54.2168 39.1953 54.1777 39.293 54.1777 39.4102C54.0215 39.9961 53.5527 41.0508 52.7715 42.5742C52.4199 43.1992 52.127 43.707 51.8926 44.0977L51.6582 44.5078L51.3652 44.918C51.1699 45.1914 51.0723 45.3477 51.0723 45.3867C50.7598 45.8555 50.5645 46.1289 50.4863 46.207L50.1348 46.6172C49.5879 47.3594 48.8066 48.1797 47.791 49.0781C47.3223 49.5469 46.8926 49.9375 46.502 50.25L45.7988 50.8945L45.2129 51.4219L44.6855 51.832C44.5684 51.9492 44.4902 52.0078 44.4512 52.0078L44.2168 52.2422C44.0215 52.3984 43.7676 52.5742 43.4551 52.7695C43.1816 52.9258 42.9473 53.0625 42.752 53.1797C42.4785 53.2969 42.2441 53.3164 42.0488 53.2383C41.9707 53.1992 41.873 53.1016 41.7559 52.9453C41.5996 52.7109 41.4629 52.5742 41.3457 52.5352L40.9941 52.4766C40.877 52.4766 40.7402 52.4375 40.584 52.3594C40.5059 52.2812 40.3887 52.2422 40.2324 52.2422C40.0371 52.2422 39.9199 52.2227 39.8809 52.1836L39.7637 52.125V51.3633L39.8223 50.4258C39.8613 50.3477 39.8809 50.0547 39.8809 49.5469C39.8809 48.7266 39.9004 48.2773 39.9395 48.1992C40.0176 48.043 39.998 47.8086 39.8809 47.4961C39.8418 47.418 39.8223 47.3398 39.8223 47.2617C39.8223 47.1445 39.8613 47.0469 39.9395 46.9688C40.1348 46.6953 40.4082 46.4023 40.7598 46.0898C41.1113 45.7383 41.4434 45.4453 41.7559 45.2109C41.873 45.0938 41.9316 45.0352 41.9316 45.0352L42.166 44.8594L42.5762 44.5664C42.6152 44.5273 42.6543 44.4883 42.6934 44.4492C42.7715 44.4102 42.8301 44.3906 42.8691 44.3906L43.3965 43.9219L43.9238 43.3945L44.2754 43.2188C44.3535 43.0625 44.5293 42.9062 44.8027 42.75C44.9199 42.7109 45.1152 42.5547 45.3887 42.2812L45.7402 41.9297C45.8184 41.9297 45.916 41.8711 46.0332 41.7539C46.1504 41.5977 46.248 41.5195 46.3262 41.5195C46.5605 41.4414 46.6777 41.3633 46.6777 41.2852C46.6777 41.168 46.7949 41.0312 47.0293 40.875C47.1074 40.7578 47.2637 40.6211 47.498 40.4648L47.6152 40.2891L47.8496 40.0547C48.0449 39.7812 48.1426 39.625 48.1426 39.5859C48.1816 39.5469 48.2012 39.4883 48.2012 39.4102C48.2402 39.4102 48.2988 39.332 48.377 39.1758L48.6699 38.7656C48.748 38.6094 48.9629 38.3555 49.3145 38.0039C49.4316 37.9258 49.4902 37.8281 49.4902 37.7109C49.4512 37.6719 49.3535 37.6133 49.1973 37.5352C49.0801 37.457 48.9629 37.418 48.8457 37.418L48.6113 37.3008L47.8496 37.0664C47.3809 36.8711 47.127 36.7539 47.0879 36.7148L46.9121 36.5977C46.7949 36.5586 46.7168 36.4219 46.6777 36.1875C46.6387 35.9141 46.5801 35.4844 46.502 34.8984L46.4434 34.0195L46.3848 33.375V32.9062C46.3457 32.8281 46.3262 32.5156 46.3262 31.9688C46.2871 31.4609 46.2285 31.1094 46.1504 30.9141C46.0723 30.6797 46.0137 30.3086 45.9746 29.8008C45.9355 28.9805 45.916 28.1211 45.916 27.2227C45.9551 26.9492 45.9746 26.6562 45.9746 26.3438C45.9746 26.0312 45.9941 25.7383 46.0332 25.4648C46.0332 24.1758 46.0723 23.2969 46.1504 22.8281C46.1504 22.75 46.1895 22.2031 46.2676 21.1875C46.3066 21.0703 46.3262 20.9531 46.3262 20.8359C46.3262 20.6797 46.3457 20.543 46.3848 20.4258C46.3848 20.1133 46.4043 19.8398 46.4434 19.6055V18.7852C46.5215 18.5508 46.5801 18.0625 46.6191 17.3203L46.6777 16.793L46.7363 16.0898C46.9316 14.0586 47.0879 12.6719 47.2051 11.9297C47.2832 11.7734 47.3223 11.4219 47.3223 10.875L47.2637 9.82031C47.1855 9.66406 47.1855 9.54688 47.2637 9.46875C47.3027 9.39062 47.3613 9.3125 47.4395 9.23438C47.5176 9.11719 47.6152 9.03906 47.7324 9C48.123 8.80469 48.9629 8.70703 50.252 8.70703C50.5254 8.66797 51.4043 8.64844 52.8887 8.64844C54.2949 8.64844 55.0371 8.66797 55.1152 8.70703L55.9355 8.76562L56.5801 8.82422L57.5176 8.94141C57.5957 8.98047 57.7129 9 57.8691 9C58.0645 9 58.2988 9.05859 58.5723 9.17578L59.2754 9.35156L60.0371 9.52734L60.8574 9.82031L61.502 9.99609C61.5801 10.0352 61.7949 10.1328 62.1465 10.2891C62.6543 10.5234 63.0254 10.7188 63.2598 10.875C63.4941 10.9922 63.6699 11.1289 63.7871 11.2852C63.8652 11.4023 63.9434 11.6367 64.0215 11.9883C64.1387 12.3398 64.1973 12.6719 64.1973 12.9844L64.2559 13.5117C64.2949 13.668 64.3535 14.1367 64.4316 14.918V19.957C64.3926 20.1523 64.373 20.3672 64.373 20.6016C64.373 20.8359 64.3535 21.0508 64.3145 21.2461L64.2559 22.1836L64.1973 23.0625L64.1387 24.0586C64.1387 24.0977 64.0801 25.0156 63.9629 26.8125L63.9043 27.9844L63.8457 28.9219C63.7676 30.1719 63.6895 30.9922 63.6113 31.3828L63.5527 32.2031L63.4355 32.9062C63.4355 32.9844 63.416 33.1406 63.377 33.375C63.377 33.5703 63.3965 33.8633 63.4355 34.2539L63.377 34.7227C63.2598 34.918 63.2598 35.1328 63.377 35.3672C63.377 35.4844 63.3574 35.582 63.3184 35.6602C63.2402 35.8555 63.1035 36.0117 62.9082 36.1289C62.7129 36.1289 62.5176 36.2266 62.3223 36.4219C62.2832 36.4609 62.2051 36.4805 62.0879 36.4805C61.9707 36.4414 61.873 36.4609 61.7949 36.5391C61.4043 36.6562 60.9551 36.7734 60.4473 36.8906C60.252 36.8906 60.0566 36.9492 59.8613 37.0664L59.334 37.1836C59.1387 37.1836 59.002 37.2031 58.9238 37.2422C58.6895 37.3203 58.5137 37.3594 58.3965 37.3594C58.1621 37.3594 58.0254 37.3789 57.9863 37.418L57.752 37.4766C57.6348 37.4766 57.5762 37.5352 57.5762 37.6523C57.5762 37.7305 57.5957 37.8477 57.6348 38.0039L57.6934 38.5312C57.6934 38.9219 57.752 39.2734 57.8691 39.5859C57.8691 39.7812 57.8887 39.9375 57.9277 40.0547C57.9277 40.0938 57.9863 40.5234 58.1035 41.3438C58.1035 41.5 58.1426 41.6562 58.2207 41.8125C58.416 43.2188 58.8066 44.3516 59.3926 45.2109C59.5488 45.4453 59.666 45.582 59.7441 45.6211C59.8223 45.6211 60.1152 45.6211 60.623 45.6211L61.7363 45.5625H62.0879C62.0879 45.5234 62.1855 45.5039 62.3809 45.5039C62.5762 45.5039 62.791 45.4648 63.0254 45.3867L63.6113 45.2695L64.0801 45.1523L64.7246 44.9766L65.1934 44.8008C65.584 44.6445 65.8184 44.5664 65.8965 44.5664L66.1309 44.5078C66.3652 44.3516 66.6387 44.2344 66.9512 44.1562C67.0684 44.1562 67.166 44.1172 67.2441 44.0391L68.0645 43.6289C68.1035 43.6289 68.1621 43.5898 68.2402 43.5117C68.2793 43.4727 68.3379 43.4336 68.416 43.3945C68.5332 43.3164 68.6309 43.2578 68.709 43.2188L68.9434 43.043C69.2949 42.7695 69.5684 42.6133 69.7637 42.5742C69.8027 42.5742 69.8418 42.5547 69.8809 42.5156C69.959 42.4766 70.0176 42.4375 70.0566 42.3984L70.291 42.2812C70.5254 42.125 70.7012 41.9883 70.8184 41.8711C71.0918 41.7148 71.4043 41.5977 71.7559 41.5195C71.7949 41.5195 71.9902 41.5391 72.3418 41.5781L72.8105 41.6953C73.0449 41.8516 73.2598 41.9297 73.4551 41.9297C73.5332 41.8906 73.5918 41.8906 73.6309 41.9297C73.6699 41.9297 73.709 41.9297 73.748 41.9297L73.9824 42.0469C74.1387 42.0469 74.3145 42.1445 74.5098 42.3398C74.666 42.4961 74.8027 42.5742 74.9199 42.5742C75.0371 42.5742 75.1348 42.6133 75.2129 42.6914L75.5645 42.8672L75.8574 43.043L75.9746 43.1602C76.0918 43.1602 76.2285 43.1992 76.3848 43.2773C76.541 43.3555 76.6387 43.4141 76.6777 43.4531C76.7168 43.4922 76.7559 43.5898 76.7949 43.7461C76.873 43.9023 76.9316 44.0195 76.9707 44.0977L77.0293 44.2734C77.1074 44.3906 77.1074 44.5469 77.0293 44.7422L76.9707 45.0938C76.9707 45.2891 77.0098 45.543 77.0879 45.8555C77.166 46.207 77.1855 46.4609 77.1465 46.6172C77.1074 46.6562 77.0879 46.8516 77.0879 47.2031C77.0879 47.6719 77.0684 48.043 77.0293 48.3164C76.9902 48.5898 76.9121 48.8047 76.7949 48.9609C76.6387 49.2734 76.5801 49.5859 76.6191 49.8984C76.6582 50.2109 76.6777 50.4453 76.6777 50.6016C76.6777 50.7188 76.6582 50.8164 76.6191 50.8945C76.6191 50.9727 76.5996 51.0312 76.5605 51.0703C76.5215 51.1094 76.502 51.1484 76.502 51.1875C76.4629 51.1875 76.4043 51.2656 76.3262 51.4219C76.1309 51.6953 76.0137 51.8516 75.9746 51.8906C75.8184 52.0469 75.7402 52.125 75.7402 52.125C75.7402 52.125 75.6426 52.2227 75.4473 52.418C75.291 52.5742 75.1543 52.6328 75.0371 52.5938C74.959 52.5938 74.8809 52.6328 74.8027 52.7109C74.7637 52.75 74.6465 52.7695 74.4512 52.7695C74.2168 52.8086 74.002 52.9062 73.8066 53.0625L73.3379 53.2969L73.1621 53.3555C72.6934 53.5117 72.459 53.5898 72.459 53.5898L72.2246 53.6484C72.1465 53.7266 71.9512 53.7852 71.6387 53.8242C71.5996 53.8633 71.541 53.8828 71.4629 53.8828C71.4238 53.8828 71.3848 53.9023 71.3457 53.9414L71.1113 54L70.8184 54.1172C70.4277 54.2734 69.9199 54.3906 69.2949 54.4688C68.9434 54.4688 68.7285 54.4883 68.6504 54.5273C68.2988 54.5664 67.8887 54.6055 67.4199 54.6445L65.7793 54.7031C65.7402 54.7422 65.3691 54.7617 64.666 54.7617ZM50.8379 30.8555C50.8379 31.5977 50.8574 31.9883 50.8965 32.0273C50.8965 32.1055 50.916 32.1641 50.9551 32.2031C51.0332 32.2422 51.0918 32.2422 51.1309 32.2031C51.1309 32.1641 51.3652 32.1445 51.834 32.1445C52.0684 32.1055 52.3418 32.0859 52.6543 32.0859C52.7324 32.0469 52.8105 32.0273 52.8887 32.0273C53.0059 32.0273 53.123 32.0078 53.2402 31.9688L54.002 31.9102L54.8809 31.8516C55.3887 31.8516 55.6816 31.832 55.7598 31.793C55.916 31.7539 56.1113 31.7344 56.3457 31.7344C56.5801 31.7344 56.8145 31.7148 57.0488 31.6758L58.2793 31.6172C58.748 31.6172 58.9824 31.5586 58.9824 31.4414C58.9824 31.3633 58.9629 31.3047 58.9238 31.2656C58.9238 31.1875 58.9434 31.1094 58.9824 31.0312L59.041 30.6211C59.041 30.5039 58.9824 30.3867 58.8652 30.2695C58.6699 30.0742 58.6309 29.8984 58.748 29.7422C58.7871 29.7031 58.8066 29.6445 58.8066 29.5664C58.8066 29.4883 58.7871 29.4297 58.748 29.3906L58.0449 29.332C58.0449 29.3711 57.9277 29.3906 57.6934 29.3906C57.0684 29.3906 56.6387 29.4297 56.4043 29.5078C56.3652 29.5469 56.2676 29.5664 56.1113 29.5664C55.1738 29.5664 54.666 29.6055 54.5879 29.6836L54.3535 29.7422C54.2363 29.7422 54.1582 29.7617 54.1191 29.8008H53.8262C53.748 29.7617 53.5527 29.7422 53.2402 29.7422C52.6934 29.7422 52.3809 29.7617 52.3027 29.8008H51.6582L51.1309 29.7422L50.9551 29.6836C50.877 29.6836 50.8379 30.0742 50.8379 30.8555ZM50.8379 17.1445C50.8379 17.7305 50.877 18.0625 50.9551 18.1406C50.9551 18.1797 51.502 18.1992 52.5957 18.1992C53.7676 18.1992 54.4316 18.2188 54.5879 18.2578C55.1738 18.2578 55.7012 18.2773 56.1699 18.3164L58.3379 18.375L59.2754 18.4336C59.3145 18.4336 59.334 18.3945 59.334 18.3164C59.4121 18.0039 59.4512 17.7695 59.4512 17.6133L59.5684 17.1445C59.6074 16.8711 59.5684 16.6953 59.4512 16.6172C59.4121 16.5781 59.0996 16.5195 58.5137 16.4414L57.9277 16.3828C57.8105 16.3438 57.6543 16.3242 57.459 16.3242C57.3027 16.3242 57.166 16.3438 57.0488 16.3828H56.873C56.7559 16.3047 56.5605 16.3047 56.2871 16.3828H55.6426C55.3301 16.3438 55.0566 16.3438 54.8223 16.3828H54.2949L53.5918 16.3242C52.9277 16.3242 52.5176 16.3633 52.3613 16.4414L51.8926 16.3828L51.4824 16.2656C51.0918 16.3047 50.8965 16.3633 50.8965 16.4414L50.8379 17.1445ZM50.9551 23.4141C50.9551 24.0781 50.9746 24.4297 51.0137 24.4688C52.3809 24.4688 53.0645 24.4688 53.0645 24.4688L55.9355 24.5273L57.1074 24.5859H57.9863C58.377 24.625 58.5918 24.625 58.6309 24.5859C58.709 24.5469 58.7676 24.4492 58.8066 24.293C58.8457 24.2148 58.8652 23.9219 58.8652 23.4141C58.9043 23.1406 58.9238 22.8477 58.9238 22.5352V22.3008C58.8848 22.2617 58.6113 22.2422 58.1035 22.2422C58.0254 22.2812 57.8496 22.3008 57.5762 22.3008C56.6387 22.3008 55.8965 22.3203 55.3496 22.3594C55.1152 22.3984 54.8613 22.418 54.5879 22.418H53.2988C52.8301 22.3789 52.2637 22.3594 51.5996 22.3594C51.209 22.3203 51.0137 22.3398 51.0137 22.418C50.9746 22.418 50.9551 22.75 50.9551 23.4141Z" fill="#4A443D"/>
<path d="M18.084 60.5039C18.0449 60.4648 17.9668 60.4258 17.8496 60.3867C17.7715 60.3867 17.7129 60.3672 17.6738 60.3281L17.2051 60.2109H16.7949C16.6387 60.25 16.4043 60.2695 16.0918 60.2695C15.5449 60.3086 15.252 60.3086 15.2129 60.2695C15.1738 60.2305 15.1543 60.1133 15.1543 59.918C15.1152 59.8789 15.0762 59.7812 15.0371 59.625C15.0371 59.5078 15.0176 59.4297 14.9785 59.3906C14.9004 59.2344 14.8223 58.9609 14.7441 58.5703C14.666 58.1406 14.5684 57.8477 14.4512 57.6914L14.334 57.5742L14.0996 56.6953C14.0996 56.6562 14.0801 56.6172 14.041 56.5781C14.002 56.5391 13.9824 56.4805 13.9824 56.4023C13.9824 56.0508 13.8457 55.7969 13.5723 55.6406C13.416 55.5625 13.3379 55.4648 13.3379 55.3477C13.3379 55.2695 13.377 55.1328 13.4551 54.9375C13.5332 54.8594 13.5723 54.6055 13.5723 54.1758C13.5723 51.4805 13.5332 50.0547 13.4551 49.8984V49.7812L13.5137 48.7852V46.2656C13.5527 46.0312 13.5723 45.4062 13.5723 44.3906C13.6504 43.9219 13.6895 43.2969 13.6895 42.5156C13.6895 42.3203 13.709 42.0664 13.748 41.7539C13.7871 41.4414 13.8066 41.0898 13.8066 40.6992C13.8066 40.1914 13.7871 39.8594 13.748 39.7031C13.748 39.5469 13.6699 39.4492 13.5137 39.4102C13.2012 39.2148 12.5176 39.1172 11.4629 39.1172H10.6426C10.6035 39.0781 10.5645 39.0781 10.5254 39.1172C10.4863 39.1172 10.4473 39.1172 10.4082 39.1172C10.252 39.1953 10.1738 39.3125 10.1738 39.4688L10.291 40.0547C10.4082 41.7734 10.4668 42.6328 10.4668 42.6328L10.5254 43.3359L10.584 44.3906C10.623 44.8594 10.623 45.4453 10.584 46.1484C10.5449 46.8125 10.5059 47.2812 10.4668 47.5547L10.4082 47.9648C10.3691 48.2383 10.2715 48.4922 10.1152 48.7266C9.99805 48.9219 9.86133 49.0586 9.70508 49.1367C9.54883 49.2148 9.41211 49.1758 9.29492 49.0195C9.17773 48.9023 9.02148 48.8047 8.82617 48.7266C8.63086 48.6484 8.47461 48.6094 8.35742 48.6094C8.24023 48.6094 8.16211 48.6289 8.12305 48.668C7.9668 48.7461 7.81055 48.7656 7.6543 48.7266C7.57617 48.6875 7.45898 48.6875 7.30273 48.7266C6.95117 48.8438 6.7168 48.8242 6.59961 48.668L6.42383 48.082C6.38477 47.8867 6.3457 47.7305 6.30664 47.6133C6.26758 47.4961 6.22852 47.3984 6.18945 47.3203L6.01367 46.8516L5.89648 46.3828L5.60352 45.7969L5.42773 45.1523C5.38867 45.0742 5.36914 44.957 5.36914 44.8008C5.36914 44.6445 5.34961 44.5273 5.31055 44.4492C5.27148 44.332 5.19336 44.2344 5.07617 44.1562C4.88086 44.0391 4.7832 43.8828 4.7832 43.6875L4.90039 42.9258L5.07617 41.6953C5.07617 41.3047 5.0957 41.0703 5.13477 40.9922C5.13477 40.9141 5.1543 40.7969 5.19336 40.6406C5.23242 40.4453 5.25195 40.2305 5.25195 39.9961C5.25195 39.4883 5.27148 39.1953 5.31055 39.1172V37.8281C5.31055 36.8906 5.33008 36.3047 5.36914 36.0703L5.42773 35.4844L5.54492 35.0742C5.58398 34.9961 5.64258 34.9375 5.7207 34.8984C5.79883 34.8203 5.87695 34.7422 5.95508 34.6641C6.15039 34.5469 6.42383 34.4688 6.77539 34.4297C6.93164 34.3516 7.06836 34.3125 7.18555 34.3125L7.53711 34.0781C7.69336 34.0391 7.83008 34.0391 7.94727 34.0781C8.29883 34.1562 8.61133 34.1562 8.88477 34.0781L12.5176 33.9609C12.9082 33.9219 13.2598 33.9219 13.5723 33.9609C13.8848 33.9609 14.0996 33.9414 14.2168 33.9023C14.2949 33.9023 14.334 33.8828 14.334 33.8438C14.4512 33.6484 14.5684 33.3555 14.6855 32.9648C14.8027 32.5352 14.8809 32.2031 14.9199 31.9688L14.7441 31.8516L14.4512 31.7344C14.4121 31.6953 14.3535 31.6953 14.2754 31.7344C14.1973 31.7734 14.0996 31.8516 13.9824 31.9688C13.8262 32.125 13.709 32.2227 13.6309 32.2617C13.5527 32.2617 13.4355 32.2227 13.2793 32.1445C13.2012 32.0664 13.084 31.9688 12.9277 31.8516C12.7715 31.6953 12.6543 31.6172 12.5762 31.6172C12.498 31.5781 12.4395 31.5977 12.4004 31.6758C12.2832 31.7148 12.166 31.7148 12.0488 31.6758C11.9316 31.6367 11.7754 31.6367 11.5801 31.6758C11.502 31.7148 11.4043 31.7344 11.2871 31.7344C11.1309 31.7344 11.0527 31.5391 11.0527 31.1484C11.0137 31.0312 10.9941 30.875 10.9941 30.6797C10.9941 30.6797 10.9551 30.4844 10.877 30.0938L10.8184 29.4492C10.7402 29.332 10.6621 29.1562 10.584 28.9219C10.5449 28.6484 10.5254 28.4141 10.5254 28.2188C10.5254 28.0234 10.4668 27.8281 10.3496 27.6328C10.2715 27.5156 10.2324 27.3789 10.2324 27.2227C10.2324 27.0273 10.252 26.8906 10.291 26.8125L10.3496 26.2266L10.4082 25.4648C10.4863 25.2305 10.5254 24.9766 10.5254 24.7031L10.6426 23.9414C10.7598 23.5898 10.8379 23.0039 10.877 22.1836C10.9551 21.793 10.9941 21.5977 10.9941 21.5977L11.0527 21.2461C11.1309 21.0508 11.2676 20.7969 11.4629 20.4844C11.4629 20.3672 11.5215 20.3086 11.6387 20.3086C11.7559 20.3086 11.834 20.2891 11.873 20.25C11.9512 20.2109 12.0293 20.1914 12.1074 20.1914C12.1465 20.1523 12.2051 20.1328 12.2832 20.1328C12.4004 20.1328 12.498 20.1133 12.5762 20.0742C12.7715 20.0742 12.9473 20.0352 13.1035 19.957C13.8848 19.7617 14.3926 19.6641 14.627 19.6641C15.0176 19.5859 15.3691 19.5469 15.6816 19.5469C15.9941 19.5078 16.2285 19.4688 16.3848 19.4297C16.6582 19.4297 16.8145 19.4102 16.8535 19.3711H17.6738C18.0645 19.3711 18.416 19.4102 18.7285 19.4883C19.4316 19.5664 20.0762 19.7227 20.6621 19.957C20.8184 20.0352 20.9551 20.0742 21.0723 20.0742C21.3066 20.1523 21.541 20.3867 21.7754 20.7773C21.9316 21.4023 22.0098 21.7148 22.0098 21.7148L22.127 22.2422C22.2441 22.7891 22.3223 23.3945 22.3613 24.0586C22.4004 24.6836 22.4199 25.582 22.4199 26.7539C22.4199 28.5898 22.3809 29.7422 22.3027 30.2109C22.1074 30.6797 21.9512 31.0117 21.834 31.207C21.7559 31.2461 21.6582 31.3242 21.541 31.4414C21.4238 31.5586 21.3457 31.6172 21.3066 31.6172C21.0723 31.6172 20.916 31.5586 20.8379 31.4414C20.7598 31.3633 20.623 31.3633 20.4277 31.4414H20.1348C19.9785 31.3633 19.8418 31.3242 19.7246 31.3242L18.7285 31.2656H18.3184C17.8496 31.2656 17.5762 31.2852 17.498 31.3242L17.3223 31.4414L17.498 31.6172C17.6543 31.6562 17.791 31.7344 17.9082 31.8516C17.9863 31.9297 18.1621 32.3594 18.4355 33.1406C18.5527 33.5312 18.6309 33.7266 18.6699 33.7266C18.709 33.7656 19.2949 33.7852 20.4277 33.7852C22.6934 33.7852 23.8652 33.8047 23.9434 33.8438L24.5293 33.9609C24.959 33.9609 25.2129 34 25.291 34.0781L25.7598 34.2539C25.9941 34.332 26.3262 34.4492 26.7559 34.6055C27.2246 34.7227 27.5176 34.8594 27.6348 35.0156C27.6738 35.1719 27.752 35.3672 27.8691 35.6016C27.9863 35.8359 28.0645 36.0312 28.1035 36.1875C28.1426 36.2266 28.2012 36.3047 28.2793 36.4219C28.3574 36.5391 28.416 36.6562 28.4551 36.7734L28.748 37.9453C28.7871 38.0234 28.8066 38.1211 28.8066 38.2383C28.8066 38.3164 28.8262 38.375 28.8652 38.4141L28.9824 39C29.0605 39.3906 29.0996 39.5859 29.0996 39.5859V41.3438C29.0996 42.0469 29.0801 42.5742 29.041 42.9258C29.041 43.2383 28.9824 43.5703 28.8652 43.9219L28.8066 44.4492C28.5723 45.1523 28.4551 45.5039 28.4551 45.5039L28.0449 46.3828C28.0059 46.5391 27.9277 46.7344 27.8105 46.9688C27.8105 47.0078 27.7715 47.0469 27.6934 47.0859C27.6543 47.125 27.6348 47.1641 27.6348 47.2031C27.3613 47.6328 27.0684 47.9453 26.7559 48.1406C26.3262 48.4531 25.9551 48.668 25.6426 48.7852C25.4082 48.8242 25.1543 48.8438 24.8809 48.8438C24.8027 48.8047 24.7246 48.7852 24.6465 48.7852C24.5684 48.7852 24.5098 48.7656 24.4707 48.7266L23.1816 48.4922C22.9082 48.4922 22.7129 48.4922 22.5957 48.4922C22.4785 48.4531 22.3809 48.3945 22.3027 48.3164C21.9902 48.1602 21.7559 47.9648 21.5996 47.7305C21.4434 47.457 21.1895 46.9492 20.8379 46.207C20.291 44.7227 19.9785 43.9805 19.9004 43.9805C19.8613 43.9414 19.8418 44.0195 19.8418 44.2148L19.9004 45.4453C19.9395 45.6016 19.959 45.7969 19.959 46.0312C19.959 46.2656 19.9785 46.4805 20.0176 46.6758C20.0176 46.9492 20.0371 47.1641 20.0762 47.3203C20.1152 47.4766 20.1348 47.5742 20.1348 47.6133C20.1738 47.6914 20.1934 47.9453 20.1934 48.375C20.2324 48.5312 20.252 48.707 20.252 48.9023C20.252 49.0586 20.2715 49.1953 20.3105 49.3125L20.3691 50.4258L20.4277 51.3633L20.4863 52.0664C20.4863 52.3398 20.4863 53.082 20.4863 54.293C20.5254 55.5039 20.5254 56.1289 20.4863 56.168L20.4277 56.6953C20.3496 57.1641 20.252 57.6523 20.1348 58.1602C19.9785 58.7461 19.8223 59.1953 19.666 59.5078C19.5098 59.8203 19.3145 60.0742 19.0801 60.2695C18.6504 60.7773 18.3184 60.8555 18.084 60.5039ZM0.271484 19.2539C0.271484 19.2148 0.271484 19.1562 0.271484 19.0781C0.310547 19 0.330078 18.8633 0.330078 18.668C0.408203 18.4336 0.447266 18.1602 0.447266 17.8477L0.681641 16.207C0.759766 16.1289 0.798828 15.9141 0.798828 15.5625L0.857422 14.8008L0.916016 14.3906C0.916016 14.1953 0.974609 14.0391 1.0918 13.9219C1.0918 13.6875 1.11133 13.5508 1.15039 13.5117C1.15039 13.3945 1.20898 13.2773 1.32617 13.1602C1.44336 13.0039 1.58008 12.9062 1.73633 12.8672C1.89258 12.8281 2.00977 12.7305 2.08789 12.5742C2.16602 12.5352 2.2832 12.4961 2.43945 12.457C2.5957 12.3789 2.75195 12.3398 2.9082 12.3398C3.02539 12.3008 3.18164 12.2812 3.37695 12.2812L4.08008 12.1641C4.11914 12.125 4.23633 12.0859 4.43164 12.0469C4.62695 12.0078 4.76367 11.9883 4.8418 11.9883L5.31055 11.9297C5.34961 11.8906 5.4082 11.8711 5.48633 11.8711C5.56445 11.8711 5.64258 11.8516 5.7207 11.8125L7.12695 11.6367C8.57227 11.4023 9.31445 11.2656 9.35352 11.2266C9.35352 11.1875 9.25586 11.0312 9.06055 10.7578C8.5918 10.25 8.18164 9.70312 7.83008 9.11719C7.63477 8.60938 7.51758 7.88672 7.47852 6.94922C7.47852 6.83203 7.45898 6.65625 7.41992 6.42188C7.38086 6.14844 7.3418 5.97266 7.30273 5.89453C7.26367 5.85547 7.20508 5.40625 7.12695 4.54688C7.12695 4.39062 7.10742 4.27344 7.06836 4.19531C7.06836 4.11719 7.06836 4.05859 7.06836 4.01953L7.00977 3.72656C7.00977 3.41406 7.04883 3.23828 7.12695 3.19922C7.24414 3.16016 7.30273 3.14062 7.30273 3.14062H7.47852C8.18164 3.14062 8.72852 3.25781 9.11914 3.49219L9.93945 3.72656L10.8184 4.13672C10.9355 4.29297 11.2871 4.625 11.873 5.13281L12.752 5.95312C13.1426 6.46094 13.377 6.75391 13.4551 6.83203C13.5332 6.87109 13.5723 6.75391 13.5723 6.48047C13.5332 6.40234 13.5137 6.22656 13.5137 5.95312C13.4746 5.875 13.4551 5.69922 13.4551 5.42578C13.416 5.30859 13.3965 4.91797 13.3965 4.25391C13.3965 3.62891 13.416 3.25781 13.4551 3.14062C13.4941 3.0625 13.5137 2.86719 13.5137 2.55469C13.5137 2.20312 13.6113 1.89062 13.8066 1.61719C13.8848 1.14844 13.9434 0.894531 13.9824 0.855469C13.9824 0.777344 14.002 0.71875 14.041 0.679688C14.0801 0.640625 14.0996 0.601562 14.0996 0.5625C14.1387 0.484375 14.2363 0.445312 14.3926 0.445312C14.5879 0.445312 14.7441 0.484375 14.8613 0.5625L15.2715 0.738281C15.3496 0.777344 15.4277 0.816406 15.5059 0.855469C15.623 0.855469 15.7207 0.875 15.7988 0.914062C16.1113 1.03125 16.3652 1.1875 16.5605 1.38281C16.7559 1.73438 16.9707 2.33984 17.2051 3.19922C17.4395 4.01953 17.6152 4.82031 17.7324 5.60156C17.7324 5.79688 17.752 5.91406 17.791 5.95312C17.9863 5.91406 18.1426 5.85547 18.2598 5.77734L18.4941 5.71875C18.5723 5.71875 18.6309 5.67969 18.6699 5.60156L19.4316 5.07422C19.627 4.87891 19.7246 4.78125 19.7246 4.78125C19.7246 4.78125 19.7832 4.72266 19.9004 4.60547C19.9004 4.60547 19.9785 4.52734 20.1348 4.37109C20.2129 4.25391 20.3105 4.19531 20.4277 4.19531C20.7012 4.23438 20.877 4.19531 20.9551 4.07812L21.3652 3.78516L21.5996 3.66797H22.127C22.791 3.66797 23.2012 3.74609 23.3574 3.90234L23.8262 4.01953C23.9434 4.05859 24.041 4.09766 24.1191 4.13672C24.1973 4.13672 24.2559 4.15625 24.2949 4.19531C24.334 4.27344 24.373 4.35156 24.4121 4.42969C24.4512 4.50781 24.4707 4.58594 24.4707 4.66406C24.4707 4.74219 24.4902 4.82031 24.5293 4.89844C24.5684 4.9375 24.5879 4.99609 24.5879 5.07422L24.7051 5.25L24.7637 6.30469V7.41797C24.7637 7.61328 24.5488 7.92578 24.1191 8.35547C23.9629 8.55078 23.8262 8.64844 23.709 8.64844C23.6309 8.64844 23.5137 8.72656 23.3574 8.88281C22.9668 9.27344 22.6738 9.46875 22.4785 9.46875C22.4004 9.46875 22.3613 9.48828 22.3613 9.52734L22.1855 9.64453C22.0684 9.68359 21.9121 9.76172 21.7168 9.87891C21.5605 9.99609 21.4238 10.1133 21.3066 10.2305C21.1895 10.2695 21.0527 10.3281 20.8965 10.4062C20.7793 10.4844 20.6621 10.5234 20.5449 10.5234L20.3105 10.6406L20.252 10.7578C20.252 10.7969 20.4277 10.8164 20.7793 10.8164H23.9434C25.0762 10.8164 25.9941 10.8359 26.6973 10.875C27.4004 10.875 27.9668 10.9141 28.3965 10.9922C28.5137 10.9922 28.9238 11.0703 29.627 11.2266L30.3887 11.4609C30.7402 11.5781 30.9941 11.6953 31.1504 11.8125C31.3066 11.8906 31.4434 12.0273 31.5605 12.2227C31.7949 12.457 31.9707 12.8867 32.0879 13.5117C32.2051 13.8633 32.2637 14.0391 32.2637 14.0391C32.4199 14.5078 32.5176 14.8594 32.5566 15.0938V16.1484L32.6152 17.0859C32.6543 17.2422 32.6543 17.6328 32.6152 18.2578C32.5371 18.7266 32.3809 19.2344 32.1465 19.7812C31.9512 20.1719 31.7949 20.4062 31.6777 20.4844C31.5605 20.5625 31.4238 20.5039 31.2676 20.3086C31.2285 20.1523 31.1113 20.0742 30.916 20.0742C30.7988 19.957 30.7402 19.8984 30.7402 19.8984C30.7012 19.8203 30.6035 19.7812 30.4473 19.7812C30.3301 19.8984 30.2324 19.957 30.1543 19.957C30.0762 19.957 29.9785 19.957 29.8613 19.957C29.7832 19.918 29.6855 19.918 29.5684 19.957C29.2949 19.9961 29.1387 19.918 29.0996 19.7227C29.0605 19.6445 29.0215 19.5078 28.9824 19.3125C28.9824 19.1172 28.9238 18.8633 28.8066 18.5508C28.7676 18.2773 28.709 18.0625 28.6309 17.9062C28.5527 17.7109 28.5137 17.5938 28.5137 17.5547C28.5137 17.5547 28.4551 17.5547 28.3379 17.5547C28.2207 17.5156 27.9863 17.4961 27.6348 17.4961L26.6973 17.4375C26.3066 17.4375 25.7793 17.5156 25.1152 17.6719C24.7637 17.6719 24.5488 17.6328 24.4707 17.5547C24.3535 17.5156 24.1973 17.5547 24.002 17.6719C23.8848 17.7109 23.6504 17.7305 23.2988 17.7305C22.8691 17.7305 22.4785 17.6719 22.127 17.5547C22.0879 17.5156 22.0293 17.5156 21.9512 17.5547C21.9121 17.5547 21.8535 17.5547 21.7754 17.5547C21.6191 17.6328 21.1895 17.6719 20.4863 17.6719C20.4863 17.6328 20.3691 17.6328 20.1348 17.6719C19.9395 17.6719 19.7832 17.6719 19.666 17.6719H15.3301L14.627 17.7305C14.4707 17.6914 14.2559 17.6719 13.9824 17.6719C13.8652 17.7109 13.6504 17.7305 13.3379 17.7305C12.8691 17.6914 12.2832 17.6914 11.5801 17.7305C11.2676 17.7695 10.9355 17.7891 10.584 17.7891C10.2324 17.7891 9.90039 17.8086 9.58789 17.8477H7.77148C7.69336 17.8086 7.5957 17.7891 7.47852 17.7891L6.36523 17.8477C5.89648 17.8477 5.52539 17.8672 5.25195 17.9062C5.01758 17.9062 4.88086 17.9453 4.8418 18.0234C4.80273 18.0625 4.7832 18.3359 4.7832 18.8438L4.8418 19.5469C4.88086 19.9766 4.88086 20.6211 4.8418 21.4805C4.8418 22.3008 4.82227 22.9648 4.7832 23.4727C4.7832 23.5898 4.76367 23.6875 4.72461 23.7656C4.72461 23.8438 4.66602 23.9023 4.54883 23.9414C4.4707 24.0977 4.43164 24.2539 4.43164 24.4102C4.39258 24.5273 4.29492 24.5859 4.13867 24.5859C3.98242 24.5859 3.8457 24.5273 3.72852 24.4102L3.43555 24.0586C3.39648 24.0586 3.33789 24.0391 3.25977 24C3.2207 23.9609 3.20117 23.9023 3.20117 23.8242L3.08398 23.707L2.9082 23.8242C2.71289 23.9023 2.55664 23.9219 2.43945 23.8828C2.32227 23.8438 2.22461 23.8438 2.14648 23.8828C2.10742 23.8828 2.06836 23.8828 2.0293 23.8828L1.73633 23.9414C1.61914 23.9805 1.52148 23.8633 1.44336 23.5898L1.20898 22.5938L1.15039 22.0664C1.11133 21.9492 1.0918 21.8125 1.0918 21.6562C0.974609 21.5781 0.916016 21.4805 0.916016 21.3633L0.857422 20.8945C0.818359 20.7773 0.798828 20.543 0.798828 20.1914C0.798828 20.0742 0.779297 19.9766 0.740234 19.8984C0.740234 19.7812 0.681641 19.7031 0.564453 19.6641C0.369141 19.625 0.271484 19.4883 0.271484 19.2539ZM14.6855 26.168L14.8027 26.2852L17.498 26.1094C17.7324 25.9531 17.8496 25.8555 17.8496 25.8164C17.8887 25.7773 17.9082 25.543 17.9082 25.1133C17.9082 24.918 17.8887 24.7617 17.8496 24.6445C17.8105 24.4883 17.791 24.3906 17.791 24.3516C17.791 24.1953 17.752 24.1172 17.6738 24.1172C17.6348 24.0781 17.2441 24.0195 16.502 23.9414C15.7598 23.9414 15.3887 23.9805 15.3887 24.0586H15.0957L14.6855 24.1758C14.6465 24.332 14.627 24.5273 14.627 24.7617L14.6855 26.168ZM20.252 40.0547C20.5254 41.1875 20.877 42.1445 21.3066 42.9258C21.4238 43.3164 21.541 43.5117 21.6582 43.5117C21.8145 43.5117 22.0684 43.2188 22.4199 42.6328C22.459 42.5547 22.5566 42.3398 22.7129 41.9883C22.8691 41.5977 23.0449 41.0898 23.2402 40.4648L23.3574 40.0547C23.4355 39.8203 23.4746 39.6641 23.4746 39.5859C23.4746 39.5078 23.3965 39.4492 23.2402 39.4102L23.123 39.3516L21.9512 39.4102C20.9355 39.4102 20.3691 39.4688 20.252 39.5859C20.1738 39.5859 20.1738 39.7422 20.252 40.0547Z" fill="#4A443D"/>
</svg>
