<svg width="120" height="120" viewBox="0 0 120 120" fill="none" xmlns="http://www.w3.org/2000/svg">
<path d="M2.55685 30.1029C-0.915769 33.4657 1.52346 38.8191 6.34908 39.0715C17.8709 40.1907 26.8305 44.8938 32.6995 49.0304L25.0538 53.0404C24.9846 53.1011 24.905 53.1457 24.8293 53.202C24.6747 53.3367 24.5295 53.4818 24.3948 53.6363L17.2619 64.3361C17.1336 64.5478 17.0488 64.7829 17.0123 65.0277C16.9759 65.2726 16.9885 65.5222 17.0496 65.7621C17.1106 66.0019 17.2188 66.2273 17.3678 66.4249C17.5168 66.6225 17.7037 66.7885 17.9175 66.9131L24.1852 70.2131V93.8764C24.1854 94.2025 24.2745 94.5223 24.443 94.8015C24.6115 95.0806 24.8531 95.3085 25.1415 95.4604L58.6942 113.12C58.8609 113.296 59.0618 113.437 59.2846 113.533C59.5074 113.629 59.7475 113.678 59.9901 113.678C60.2327 113.678 60.4728 113.629 60.6956 113.533C60.9185 113.437 61.1194 113.296 61.286 113.12L94.8387 95.4604C95.1272 95.3085 95.3687 95.0806 95.5372 94.8015C95.7057 94.5223 95.7949 94.2025 95.795 93.8764V69.9773L101.617 66.9131C101.831 66.7885 102.018 66.6225 102.167 66.4249C102.316 66.2273 102.424 66.0019 102.485 65.7621C102.546 65.5222 102.559 65.2726 102.522 65.0277C102.486 64.7829 102.401 64.5478 102.272 64.3361L95.1394 53.6367C95.0033 53.482 94.8574 53.3361 94.7025 53.2001C94.631 53.1461 94.5551 53.1046 94.4891 53.0467L84.4661 47.7055C90.4199 42.2109 100.079 35.3441 113.432 32.2341C118.495 31.29 120.515 25.5187 116.386 22.3816C114.774 21.1518 110.01 18.8204 100.601 23.7034C90.4608 28.9671 83.318 37.9982 79.0305 44.8304L60.8309 35.1267C60.5734 34.989 60.2861 34.9166 59.9941 34.9156C59.7021 34.9147 59.4144 34.9854 59.156 35.1214L38.1809 46.1474C33.5886 40.4275 26.1945 33.0023 16.5992 29.4344C7.85069 26.1798 3.86462 28.8164 2.55685 30.1029ZM98.1927 64.6701L67.496 80.8262L62.3582 73.1213L93.0562 56.9654L98.1927 64.6701ZM52.0388 80.8262L27.3562 67.8353C27.2029 67.6379 27.0092 67.4756 26.788 67.3591C26.5668 67.2427 26.3234 67.1749 26.0738 67.1603L21.3431 64.6701L26.4795 56.9654L57.1776 73.1213L52.0388 80.8262ZM27.7654 72.0964L51.7991 84.7458C52.059 84.872 52.3425 84.9422 52.6312 84.9521C52.9249 84.9452 53.2128 84.8695 53.4719 84.731C53.7309 84.5925 53.9538 84.3952 54.1227 84.1548L58.2004 78.0408V108.813L27.7654 92.7948V72.0964ZM92.2144 92.7948L61.7801 108.813V78.7094L65.4112 84.1555C65.5801 84.3958 65.8031 84.5931 66.0621 84.7316C66.3211 84.8701 66.609 84.9459 66.9027 84.9528C67.1914 84.9428 67.4749 84.8725 67.7348 84.7465L92.2144 71.8611V92.7948ZM102.254 26.8818C106.136 24.6408 114.682 22.4157 115.012 26.943C114.835 27.7647 113.942 28.4395 112.622 28.7462C102.524 31.1016 93.1045 35.7521 85.0947 42.3367C89.1846 36.7735 94.9137 30.6918 102.254 26.8818ZM59.9847 38.7316L77.1962 47.9091C76.0747 49.8629 75.0622 51.8772 74.1632 53.9427C73.9923 54.3533 73.9803 54.8128 74.1295 55.2317C74.2787 55.6506 74.5785 55.999 74.9704 56.2092C75.3623 56.4193 75.8183 56.4762 76.2498 56.3686C76.6813 56.2611 77.0574 55.9969 77.3048 55.6274C77.3464 55.5655 78.8427 53.3834 81.7804 50.3331L89.8261 54.6205L59.7671 70.4391L29.7313 54.6314L35.8603 51.4167C37.5396 52.7547 39.1151 54.218 40.5733 55.794C40.7416 55.99 40.9502 56.1474 41.185 56.2553C41.4198 56.3631 41.6751 56.4189 41.9335 56.4189C43.2551 56.457 44.1876 54.8908 43.4912 53.7475C42.5396 52.1231 41.5051 50.5486 40.3919 49.0304L59.9847 38.7316ZM15.3525 32.7918C21.6902 35.1487 27.0784 39.4643 31.2131 43.7072C23.7596 39.1681 15.3796 36.3659 6.695 35.5087C5.59539 35.4011 4.79808 34.9396 4.56223 34.2745C4.37762 30.1677 12.0532 31.401 15.3525 32.7918Z" fill="#4A443D"/>
<path d="M55.1297 56.6093C54.82 58.1093 53.4504 60.2268 54.8045 61.3297C55.0656 61.5561 55.3865 61.7023 55.7287 61.7505C56.0708 61.7987 56.4196 61.747 56.7331 61.6015L59.9902 60.0874C60.5472 60.2841 63.4358 61.8595 64.0023 61.7684C64.2809 61.7655 64.5551 61.6982 64.8033 61.5716C65.0515 61.4451 65.2671 61.2628 65.433 61.039C65.599 60.8152 65.7108 60.556 65.7599 60.2817C65.8089 60.0075 65.7937 59.7256 65.7156 59.4581L64.8504 56.6093C65.8365 55.4998 68.0846 54.3478 67.4851 52.728C66.9977 51.0729 64.5386 51.4906 62.9389 51.1738L61.591 48.4779C60.9827 47.2645 58.9965 47.2645 58.3882 48.4779L57.0402 51.1738C55.4394 51.4913 52.984 51.0718 52.4941 52.728C51.8945 54.3452 54.145 55.5018 55.1297 56.6093ZM58.4043 54.6247C59.1723 54.5594 59.7197 53.9668 59.9902 53.2821C60.2717 54.0205 60.8913 54.6157 61.7122 54.6404C61.4171 54.8764 61.2024 55.198 61.0975 55.561C60.9926 55.9241 61.0027 56.3107 61.1265 56.6677C60.7873 56.4504 60.3929 56.3349 59.99 56.3349C59.5872 56.3349 59.1928 56.4504 58.8536 56.6677C58.9774 56.3107 58.9875 55.9241 58.8826 55.561C58.7777 55.198 58.563 54.8764 58.2679 54.6404L58.4043 54.6247Z" fill="#FF5F1F"/>
<path d="M118.977 74.1281C118.491 72.4737 116.031 72.8905 114.431 72.5739L113.083 69.8781C112.475 68.6647 110.489 68.6647 109.88 69.8781L108.532 72.5739C106.931 72.8914 104.476 72.4719 103.986 74.1281C103.386 75.7461 105.636 76.902 106.621 78.0094C106.311 79.5094 104.941 81.627 106.296 82.7298C106.557 82.9558 106.878 83.1017 107.22 83.1499C107.562 83.1982 107.91 83.1467 108.224 83.0017L111.481 81.4876C112.038 81.6844 114.927 83.2597 115.493 83.1685C115.772 83.1657 116.046 83.0983 116.294 82.9718C116.542 82.8452 116.758 82.6629 116.924 82.4391C117.09 82.2153 117.202 81.9561 117.251 81.6819C117.3 81.4076 117.285 81.1257 117.207 80.8583L116.341 78.0094C117.329 76.8997 119.577 75.7477 118.977 74.1281ZM113.085 76.1517C112.83 76.3911 112.65 76.6997 112.567 77.0399C112.484 77.3801 112.502 77.737 112.619 78.0671C112.279 77.8499 111.885 77.7344 111.482 77.7344C111.08 77.7344 110.685 77.8499 110.346 78.0671C110.47 77.7101 110.48 77.3235 110.375 76.9605C110.27 76.5975 110.055 76.2759 109.76 76.0398C110.581 76.0151 111.201 75.419 111.482 74.6815C111.764 75.42 112.382 76.0151 113.204 76.0398L113.085 76.1517Z" fill="#FF5F1F"/>
<path d="M54.3322 18.8461C53.8457 17.1918 51.3857 17.6083 49.786 17.2919L48.4385 14.5961C47.8302 13.3827 45.8442 13.3827 45.2357 14.5961L43.8878 17.2919C42.2865 17.6095 39.8327 17.1899 39.3416 18.8461C38.7405 20.4655 40.9953 21.6237 41.9763 22.7272C41.6673 24.224 40.2968 26.345 41.6493 27.4476C41.9108 27.6737 42.232 27.8197 42.5743 27.8679C42.9167 27.9161 43.2657 27.8646 43.5795 27.7195L46.8365 26.2056C47.3939 26.4022 50.2824 27.9777 50.8487 27.8865C51.1273 27.8837 51.4015 27.8163 51.6498 27.6898C51.898 27.5632 52.1136 27.3809 52.2796 27.1571C52.4455 26.9333 52.5574 26.674 52.6065 26.3998C52.6555 26.1255 52.6403 25.8435 52.5622 25.5761L51.6968 22.7272C52.6847 21.6177 54.9317 20.4657 54.3322 18.8461ZM48.4404 20.8698C48.1847 21.109 48.0044 21.4177 47.9214 21.7579C47.8385 22.0981 47.8566 22.4551 47.9735 22.7851C47.6346 22.5682 47.2405 22.4529 46.838 22.4529C46.4356 22.4529 46.0415 22.5682 45.7025 22.7851C45.8268 22.4282 45.837 22.0414 45.7318 21.6784C45.6266 21.3153 45.4111 20.994 45.1152 20.7588C45.9361 20.7341 46.5557 20.138 46.8372 19.4005C47.1188 20.1389 47.7384 20.7341 48.5592 20.7588L48.4404 20.8698Z" fill="#FF5F1F"/>
<path d="M87.7999 12.7065C87.7139 12.3837 87.5393 12.0915 87.2958 11.8629C87.0523 11.6343 86.7497 11.4784 86.4222 11.4128L82.7761 10.6838L80.9493 7.3944C80.3198 6.25786 78.4492 6.25786 77.8198 7.3944L75.9926 10.684L72.3465 11.413C72.019 11.4786 71.7164 11.6345 71.4728 11.8631C71.2293 12.0917 71.0546 12.3838 70.9684 12.7065C70.8822 13.0291 70.888 13.3695 70.9851 13.6891C71.0823 14.0086 71.2668 14.2946 71.518 14.5148L74.218 16.8774L73.2112 20.2326C73.111 20.5672 73.1109 20.9239 73.211 21.2586C73.311 21.5933 73.5068 21.8915 73.7741 22.1163C74.0415 22.3411 74.3688 22.4829 74.7157 22.524C75.0626 22.5651 75.414 22.5039 75.7265 22.3478L79.384 20.5192C79.9685 20.7382 83.2438 22.6478 83.8422 22.5368C84.1204 22.534 84.3941 22.467 84.642 22.3409C84.8899 22.2148 85.1053 22.0331 85.2714 21.81C85.4374 21.5868 85.5496 21.3283 85.5992 21.0547C85.6488 20.781 85.6345 20.4995 85.5573 20.2323L84.5498 16.8779L87.2498 14.5152C87.5015 14.2954 87.6866 14.0094 87.7838 13.6896C87.8811 13.3699 87.8867 13.0292 87.7999 12.7065ZM81.3259 14.9417C80.6172 15.529 80.6075 16.4973 80.9361 17.2923C80.4977 17.0846 79.885 16.6923 79.3835 16.7276C78.8844 16.6923 78.2668 17.0846 77.8312 17.2923C78.1595 16.4971 78.1498 15.529 77.4412 14.9417L76.6074 14.2118L77.506 14.0318C78.4928 13.9185 78.9559 12.6892 79.3835 11.9505C79.8135 12.6917 80.2725 13.9164 81.2613 14.0318L82.1599 14.2118L81.3259 14.9417Z" fill="#FF5F1F"/>
<path d="M18.2514 91.1716C18.1654 90.8488 17.9908 90.5566 17.7473 90.3279C17.5039 90.0993 17.2012 89.9434 16.8737 89.8779L13.2276 89.1489L11.4006 85.8595C10.7713 84.7213 8.9004 84.7213 8.27109 85.8595L6.44409 89.1489L2.79793 89.8779C2.47042 89.9435 2.16783 90.0996 1.92436 90.3282C1.68089 90.5569 1.50627 90.8492 1.42024 91.172C1.33422 91.4947 1.34022 91.8351 1.43756 92.1547C1.53491 92.4742 1.71972 92.7601 1.97109 92.9801L4.67109 95.3429L3.66401 98.6979C3.5639 99.0325 3.56387 99.3892 3.66391 99.7239C3.76395 100.059 3.9597 100.357 4.22705 100.582C4.49441 100.806 4.82168 100.948 5.16858 100.989C5.51547 101.031 5.86683 100.969 6.1794 100.813L9.83686 98.9847C10.4214 99.2037 13.6965 101.113 14.2949 101.002C14.573 101 14.8467 100.932 15.0946 100.806C15.3426 100.68 15.558 100.499 15.724 100.276C15.8901 100.052 16.0023 99.7939 16.0519 99.5202C16.1015 99.2465 16.0871 98.9651 16.01 98.6979L15.0006 95.3429L17.7006 92.9801C17.9524 92.7604 18.1376 92.4744 18.235 92.1547C18.3323 91.835 18.338 91.4944 18.2514 91.1716ZM11.7774 93.4068C11.0687 93.9941 11.0593 94.9624 11.3876 95.7574C10.9492 95.5497 10.3365 95.1574 9.83524 95.1927C9.33586 95.1574 8.71855 95.5495 8.28263 95.7574C8.61101 94.9622 8.60155 93.9941 7.89263 93.4068L7.05886 92.6764L7.95747 92.4964C8.94401 92.3831 9.40717 91.1533 9.83524 90.4149C10.2654 91.1559 10.7246 92.381 11.7128 92.4962L12.6114 92.6764L11.7774 93.4068Z" fill="#FF5F1F"/>
<path d="M107.431 52.818C113.333 52.6636 113.332 44.0204 107.431 43.8669C101.53 44.0213 101.531 52.6646 107.431 52.818ZM107.431 47.4473C108.601 47.4533 108.601 49.2319 107.431 49.2376C106.261 49.2316 106.261 47.4531 107.431 47.4473Z" fill="#4A443D"/>
<path d="M7.17713 67.1405C13.0788 66.9861 13.0776 58.3429 7.17713 58.1895C1.27567 58.3438 1.27682 66.9871 7.17713 67.1405ZM7.17713 61.7698C8.34736 61.7758 8.34713 63.5541 7.17713 63.5601C6.00736 63.5534 6.00736 61.7765 7.17713 61.7698Z" fill="#4A443D"/>
<path d="M18.8141 10.7473C18.6597 4.84542 10.0156 4.84703 9.86279 10.7476C10.0172 16.649 18.6604 16.6479 18.8141 10.7473ZM13.4432 10.7473C13.4497 9.57711 15.2273 9.57734 15.2335 10.7473C15.2273 11.9178 13.4494 11.9176 13.4432 10.7473Z" fill="#4A443D"/>
<path d="M92.2144 105.631C92.3687 111.532 101.012 111.531 101.166 105.631C101.011 99.729 92.3678 99.7301 92.2144 105.631ZM97.5851 105.631C97.5788 106.801 95.801 106.801 95.7947 105.631C95.8012 104.46 97.5788 104.46 97.5851 105.631Z" fill="#4A443D"/>
</svg>
