<?xml version="1.0" encoding="UTF-8"?>
<svg id="_圖層_1" data-name="圖層_1" xmlns="http://www.w3.org/2000/svg" version="1.1" viewBox="0 0 24 24">
  <!-- Generator: Adobe Illustrator 29.6.1, SVG Export Plug-In . SVG Version: 2.1.1 Build 9)  -->
  <defs>
    <style>
      .st0 {
        fill: none;
        stroke: #6e675f;
        stroke-linecap: round;
        stroke-linejoin: round;
        stroke-width: 2px;
      }
    </style>
  </defs>
  <path class="st0" d="M3.71,5.4h15.21c1.38,0,2.37,1.27,2,2.55l-1.65,5.6c-.25.86-1.07,1.45-1.99,1.45h-9.16c-.93,0-1.74-.59-2-1.45L3.71,5.4ZM3.71,5.4l-.71-2.4M16.5,21c.4,0,.78-.16,1.06-.44s.44-.66.44-1.06-.16-.78-.44-1.06-.66-.44-1.06-.44-.78.16-1.06.44c-.28.28-.44.66-.44,1.06s.16.78.44,1.06c.28.28.66.44,1.06.44ZM8.5,21c.4,0,.78-.16,1.06-.44.28-.28.44-.66.44-1.06s-.16-.78-.44-1.06c-.28-.28-.66-.44-1.06-.44s-.78.16-1.06.44-.44.66-.44,1.06.16.78.44,1.06.66.44,1.06.44Z"/>
</svg>