<?xml version="1.0" encoding="UTF-8"?>
<svg id="_圖層_1" data-name="圖層_1" xmlns="http://www.w3.org/2000/svg" version="1.1" viewBox="0 0 24 24">
  <!-- Generator: Adobe Illustrator 29.6.1, SVG Export Plug-In . SVG Version: 2.1.1 Build 9)  -->
  <defs>
    <style>
      .st0 {
        fill: #6e675f;
      }
    </style>
  </defs>
  <path class="st0" d="M22,17c0,2.82-1.96,5.26-4.71,5.86l-.64-1.91c1.18-.19,2.22-.91,2.82-1.95h-2.47c-1.1,0-2-.9-2-2v-4c0-1.1.9-2,2-2h2.94c-.55-4.38-4.56-7.49-8.94-6.94-3.62.46-6.48,3.31-6.94,6.94h2.94c1.1,0,2,.9,2,2v4c0,1.1-.9,2-2,2h-3c-1.1,0-2-.9-2-2v-5C2,6.48,6.48,2,12,2s10,4.48,10,10v5ZM20,17v-4h-3v4h3ZM4,13v4h3v-4h-3Z"/>
</svg>