<svg width="24" height="24" viewBox="0 0 24 24" fill="none" xmlns="http://www.w3.org/2000/svg">
<path d="M14.0249 3.47063L15.7101 6.70313C15.8355 6.94108 16.0154 7.14595 16.2352 7.30095C16.455 7.45596 16.7084 7.55668 16.9746 7.59488L20.5341 8.08238C22.4376 8.34488 23.1756 10.6916 21.7679 11.9966L19.3304 14.2459C19.1229 14.437 18.9671 14.6775 18.8776 14.945C18.788 15.2125 18.7676 15.4983 18.8181 15.7759L19.4129 19.0744C19.7436 20.9119 17.8319 22.3444 16.1541 21.5044L12.7521 19.8169C12.518 19.7022 12.2606 19.6425 11.9999 19.6425C11.7391 19.6425 11.4818 19.7022 11.2476 19.8169L7.84563 21.5044C6.16713 22.3369 4.25613 20.9119 4.58688 19.0744L5.18163 15.7751C5.28663 15.2126 5.09163 14.6351 4.67013 14.2451L2.23188 11.9966C0.82413 10.6991 1.56213 8.34412 3.46563 8.08162L7.02513 7.59413C7.29214 7.55831 7.54655 7.45853 7.76671 7.30327C7.98686 7.14801 8.16626 6.94187 8.28963 6.70237L9.97563 3.47063C10.8336 1.84312 13.1736 1.84312 14.0241 3.47063" fill="#FFC107"/>
</svg>
