<svg width="24" height="24" viewBox="0 0 24 24" fill="none" xmlns="http://www.w3.org/2000/svg">
<path d="M4.64008 14.4154H21.2309C21.3334 14.4168 21.4347 14.4384 21.5288 14.479C21.623 14.5196 21.7082 14.5784 21.7796 14.6519C21.851 14.7255 21.9073 14.8124 21.9451 14.9077C21.9829 15.003 22.0015 15.1048 21.9999 15.2073C22.0014 15.3098 21.9826 15.4115 21.9448 15.5067C21.9069 15.6019 21.8507 15.6887 21.7793 15.7621C21.7078 15.8356 21.6227 15.8942 21.5286 15.9348C21.4345 15.9753 21.3333 15.9969 21.2309 15.9983H2.77109C2.0831 15.9983 1.7411 15.1413 2.2301 14.6443L7.54905 9.2284C7.6198 9.15562 7.70453 9.09788 7.79814 9.05864C7.89175 9.01939 7.99232 8.99945 8.09382 9.00001C8.19532 9.00057 8.29567 9.02162 8.38884 9.0619C8.48201 9.10217 8.56609 9.16085 8.63604 9.2344C8.77932 9.38574 8.85876 9.58649 8.85782 9.7949C8.85689 10.0033 8.77567 10.2033 8.63104 10.3534L4.64008 14.4154Z" fill="#4A443D"/>
</svg>
