<svg width="121" height="121" viewBox="0 0 121 121" fill="none" xmlns="http://www.w3.org/2000/svg">
<path d="M110.043 44.6115L82.3146 47.1326C82.0371 47.1577 81.7691 47.2461 81.5312 47.3911C81.2933 47.5361 81.0918 47.7337 80.9424 47.9689C80.7929 48.204 80.6994 48.4703 80.669 48.7472C80.6387 49.0241 80.6723 49.3044 80.7673 49.5663L81.9432 52.8045L81.1314 52.8755C79.283 53.0504 77.4184 52.839 75.6561 52.2548L65.55 48.9328C64.0986 48.4442 62.5392 48.3729 61.0493 48.7268C59.5594 49.0808 58.1987 49.8459 57.1222 50.9351L53.5836 54.4791H42.116L38.9287 52.9137L39.6131 50.9114C39.7002 50.6585 39.7305 50.3895 39.7018 50.1235C39.6731 49.8575 39.5862 49.6012 39.4471 49.3726C39.3081 49.1441 39.1204 48.949 38.8974 48.8012C38.6744 48.6535 38.4216 48.5567 38.1569 48.5178L11.0532 44.6224C10.7948 44.5851 10.5314 44.6038 10.2809 44.6772C10.0303 44.7507 9.79853 44.8772 9.60118 45.0481C9.40384 45.219 9.24557 45.4304 9.13712 45.6679C9.02868 45.9054 8.97258 46.1634 8.97266 46.4245V85.8604C8.97266 86.3432 9.16443 86.8062 9.5058 87.1475C9.84716 87.4889 10.3102 87.6807 10.7929 87.6807H25.7081C26.0876 87.6807 26.4576 87.5621 26.7663 87.3414C27.0751 87.1208 27.3071 86.8092 27.4301 86.4502L28.231 84.1166H29.254L54.4173 109.265C54.9538 109.807 55.5919 110.237 56.295 110.531C56.9982 110.825 57.7525 110.978 58.5147 110.98C59.2769 110.982 60.032 110.833 60.7367 110.543C61.4414 110.252 62.0818 109.826 62.6212 109.287C63.2525 108.665 63.7315 107.906 64.021 107.068C65.2262 107.649 66.5808 107.845 67.9012 107.63C69.2217 107.416 70.4444 106.801 71.4039 105.869C72.2713 105.007 72.8707 103.913 73.1295 102.718C74.269 103.073 75.4834 103.112 76.6432 102.831C77.8031 102.55 78.8649 101.959 79.7152 101.121C80.324 100.518 80.8063 99.7986 81.1342 99.0064C81.462 98.2141 81.6288 97.3645 81.6247 96.5071C81.6247 96.4343 81.6065 96.367 81.6047 96.296C81.6502 96.296 81.692 96.3069 81.7375 96.3069C82.88 96.3129 84.005 96.0269 85.0058 95.4759C86.0067 94.925 86.8501 94.1274 87.4561 93.1589C88.062 92.1904 88.4105 91.0831 88.4683 89.9421C88.526 88.8011 88.2913 87.6643 87.7863 86.6395L93.3217 84.1767L94.159 86.4848C94.2865 86.8362 94.5191 87.1399 94.8253 87.3545C95.1314 87.5692 95.4962 87.6843 95.87 87.6843H110.208C110.691 87.6843 111.154 87.4926 111.495 87.1512C111.837 86.8098 112.028 86.3468 112.028 85.8641V46.4245C112.03 46.1709 111.978 45.9198 111.876 45.6874C111.774 45.455 111.625 45.2465 111.438 45.0751C111.251 44.9037 111.03 44.7733 110.79 44.6922C110.55 44.6111 110.295 44.5812 110.043 44.6042V44.6115ZM12.6132 84.0402V48.5251L35.4574 51.8197L25.2531 81.5792L25.2403 81.6174L24.4085 84.0402H12.6132ZM83.9674 91.7472C83.3934 92.2661 82.6563 92.5683 81.8832 92.6015C81.1102 92.6348 80.3498 92.3969 79.7334 91.9292L79.7243 91.9183L69.4526 81.6283C69.2859 81.4503 69.0851 81.3076 68.8622 81.2087C68.6392 81.1098 68.3987 81.0567 68.1548 81.0525C67.9109 81.0484 67.6687 81.0933 67.4425 81.1846C67.2164 81.2759 67.0109 81.4118 66.8382 81.584C66.6656 81.7563 66.5293 81.9616 66.4375 82.1875C66.3457 82.4135 66.3003 82.6556 66.3039 82.8995C66.3075 83.1434 66.3601 83.384 66.4586 83.6072C66.557 83.8303 66.6993 84.0314 66.8769 84.1985L77.1632 94.5012V94.5103C77.4284 94.7719 77.6388 95.0837 77.7823 95.4275C77.9257 95.7712 77.9993 96.1401 77.9987 96.5126C77.9996 96.893 77.9246 97.2697 77.778 97.6208C77.6314 97.9718 77.4162 98.29 77.145 98.5567C76.5996 99.0761 75.8742 99.3639 75.1211 99.3598C74.3679 99.3557 73.6457 99.0601 73.1059 98.5349L71.788 97.2371L71.606 97.0277C71.5732 96.9895 71.4604 96.8639 71.424 96.8293L62.3045 87.728C62.1364 87.5543 61.9355 87.4158 61.7133 87.3205C61.4912 87.2253 61.2523 87.1752 61.0106 87.1733C60.7689 87.1714 60.5292 87.2176 60.3056 87.3093C60.082 87.401 59.8788 87.5363 59.7081 87.7073C59.5373 87.8783 59.4022 88.0817 59.3109 88.3054C59.2195 88.5292 59.1736 88.7689 59.1759 89.0106C59.1782 89.2523 59.2285 89.4911 59.3241 89.7131C59.4197 89.9351 59.5585 90.1359 59.7324 90.3037L68.9429 99.5124L69.0503 99.6289C69.4699 100.158 69.6812 100.823 69.6443 101.498C69.6074 102.173 69.3249 102.811 68.8501 103.291C68.3269 103.792 67.6305 104.072 66.9061 104.072C66.1816 104.072 65.4852 103.792 64.962 103.291L53.3233 91.6725C52.9805 91.3404 52.5209 91.1563 52.0436 91.1597C51.5663 91.1632 51.1095 91.354 50.7715 91.691C50.4335 92.028 50.2415 92.4843 50.2366 92.9616C50.2318 93.4389 50.4147 93.899 50.7458 94.2427L60.0856 103.652C60.2869 103.854 60.4462 104.094 60.554 104.358C60.6618 104.622 60.7161 104.905 60.7138 105.191C60.7114 105.476 60.6524 105.758 60.5402 106.02C60.428 106.283 60.2648 106.52 60.0601 106.719C59.8637 106.919 59.6287 107.077 59.3692 107.183C59.1098 107.29 58.8314 107.342 58.5511 107.338C58.2674 107.341 57.9861 107.286 57.7242 107.178C57.4623 107.069 57.2253 106.908 57.0275 106.704L31.2945 81.0131C30.9532 80.6717 30.4903 80.4798 30.0076 80.4797H29.4779L37.7473 56.3904L40.8873 57.9322C41.1373 58.0538 41.412 58.1161 41.69 58.1142H49.9431L46.2115 61.8457C45.7951 62.2621 45.4653 62.7568 45.2413 63.3014C45.0172 63.846 44.9034 64.4296 44.9064 65.0185V81.0367C44.9079 81.9646 45.2771 82.8541 45.9332 83.5103C46.5894 84.1664 47.4789 84.5357 48.4068 84.5371H50.9442C53.2036 84.5337 55.3695 83.6344 56.9668 82.0365C58.5641 80.4385 59.4624 78.2722 59.4649 76.0128V70.552L62.8178 67.2009L83.7471 87.1346L84.0602 87.4768C84.5865 88.0702 84.8685 88.8409 84.8496 89.6339C84.8307 90.4268 84.5122 91.1831 83.9583 91.7508L83.9674 91.7472ZM85.4236 83.7052L64.041 63.3183C63.6967 62.9889 63.2369 62.8076 62.7605 62.8134C62.284 62.8192 61.8288 63.0116 61.4926 63.3493L56.3504 68.5006C56.009 68.8419 55.8172 69.3048 55.8171 69.7875V76.0092C55.8161 77.3035 55.3017 78.5446 54.3869 79.4602C53.472 80.3757 52.2313 80.891 50.9369 80.8929H48.5397V65.0239C48.5376 64.9132 48.5576 64.8033 48.5985 64.7004C48.6395 64.5976 48.7005 64.504 48.7781 64.425L59.6997 53.5035C60.3009 52.8951 61.0609 52.4678 61.8931 52.2702C62.7253 52.0726 63.5963 52.1126 64.4069 52.3858L74.5275 55.7133C76.7624 56.4496 79.1254 56.716 81.4682 56.496L83.2302 56.3431L92.0784 80.7346L85.4236 83.7052ZM108.393 84.0402H97.1461L84.9958 50.5474L108.388 48.4177L108.393 84.0402Z" fill="#4A443D"/>
<path d="M59.8008 15.3269C60.3253 14.1167 62.0655 11.2207 66.6157 11.2207C71.2433 11.2207 75.3206 14.4237 75.3206 20.2722C75.3206 22.6389 74.8482 24.6664 73.5279 26.9291C70.8163 31.5763 59.8001 38.7939 59.8001 38.7939C59.8001 38.7939 48.7873 31.5403 46.0969 26.9291C44.7766 24.6664 44.3008 22.6389 44.3008 20.2722C44.3008 14.4237 48.3715 11.2207 52.9991 11.2207C57.5492 11.2207 59.2771 14.1167 59.8008 15.3269ZM59.8008 15.3269C58.3523 17.5806 58.9801 20.5979 61.203 22.0665" stroke="#FF5F1F" stroke-width="3.23123" stroke-miterlimit="10" stroke-linecap="round" stroke-linejoin="round"/>
</svg>
