<svg width="32" height="32" viewBox="0 0 32 32" fill="none" xmlns="http://www.w3.org/2000/svg">
<path d="M29.005 10.5007H27.02C27.02 10.4507 27.025 10.4057 27.025 10.3557C27.025 7.40066 20.915 5.80566 15.17 5.80566C9.425 5.80566 3.31 7.40066 3.31 10.3557C3.31 12.8857 4.195 15.2057 5.67 17.0407C2.65 18.0157 1 19.4007 1 20.9807C1 23.9557 7.015 26.1957 14.99 26.1957C22.965 26.1957 28.99 23.9557 28.99 20.9807C28.99 19.5857 27.68 18.3307 25.275 17.3907H26.11C27.415 17.3907 28.645 16.8807 29.565 15.9557C30.49 15.0307 31 13.8057 31 12.4957C31 11.3957 30.105 10.5007 29.005 10.5007ZM4.31 10.3557C4.31 8.67566 8.77 6.80566 15.17 6.80566C21.57 6.80566 26.025 8.67566 26.025 10.3557C26.025 10.5407 25.965 10.7307 25.855 10.9207C23.945 9.40066 19.785 8.40066 15.17 8.40066C10.555 8.40066 6.395 9.40066 4.485 10.9207C4.375 10.7307 4.31 10.5407 4.31 10.3557ZM4.55 12.4657C6.625 14.0607 10.99 14.9057 15.17 14.9057C19.35 14.9057 23.715 14.0607 25.79 12.4657C24.82 16.8107 20.945 20.0707 16.31 20.0707H14.025C9.395 20.0707 5.515 16.8107 4.55 12.4657ZM27.99 20.9807C27.99 22.9757 22.65 25.1957 14.99 25.1957C7.33 25.1957 2 22.9757 2 20.9807C2 19.8557 3.68 18.6757 6.395 17.8657C8.34 19.8407 11.04 21.0707 14.025 21.0707H16.31C19.255 21.0707 21.92 19.8757 23.86 17.9507C26.45 18.7607 27.99 19.8857 27.99 20.9807ZM28.86 15.2507C28.125 15.9857 27.145 16.3907 26.11 16.3907H25.16C26.13 14.9657 26.77 13.3007 26.965 11.5007H29.005C29.555 11.5007 30 11.9507 30 12.4957C30 13.5357 29.595 14.5157 28.86 15.2507Z" fill="#4A443D"/>
</svg>
