<svg width="120" height="121" viewBox="0 0 120 121" fill="none" xmlns="http://www.w3.org/2000/svg">
<path d="M31.1559 36.9969H28.8309V34.6719C28.8309 33.7016 28.0434 32.9141 27.073 32.9141C26.1027 32.9141 25.3152 33.7016 25.3152 34.6719V36.9969H22.9902C22.0199 36.9969 21.2324 37.7844 21.2324 38.7547C21.2324 39.725 22.0199 40.5125 22.9902 40.5125H25.3152V42.8375C25.3152 43.8078 26.1027 44.5953 27.073 44.5953C28.0434 44.5953 28.8309 43.8078 28.8309 42.8375V40.5125H31.1559C32.1262 40.5125 32.9137 39.725 32.9137 38.7547C32.9137 37.7844 32.1262 36.9969 31.1559 36.9969Z" fill="#4A443D"/>
<mask id="mask0_1187_2269" style="mask-type:luminance" maskUnits="userSpaceOnUse" x="21" y="32" width="12" height="13">
<path d="M31.1559 36.9969H28.8309V34.6719C28.8309 33.7016 28.0434 32.9141 27.073 32.9141C26.1027 32.9141 25.3152 33.7016 25.3152 34.6719V36.9969H22.9902C22.0199 36.9969 21.2324 37.7844 21.2324 38.7547C21.2324 39.725 22.0199 40.5125 22.9902 40.5125H25.3152V42.8375C25.3152 43.8078 26.1027 44.5953 27.073 44.5953C28.0434 44.5953 28.8309 43.8078 28.8309 42.8375V40.5125H31.1559C32.1262 40.5125 32.9137 39.725 32.9137 38.7547C32.9137 37.7844 32.1262 36.9969 31.1559 36.9969Z" fill="white"/>
</mask>
<g mask="url(#mask0_1187_2269)">
<path d="M28.8301 36.9969H25.0301V40.7969H28.8301V36.9969ZM25.3144 36.9969V40.7969H29.1144V36.9969H25.3144ZM25.3144 40.5125H29.1144V36.7125H25.3144V40.5125ZM28.8301 40.5125V36.7125H25.0301V40.5125H28.8301ZM31.1551 36.9969V33.1969H28.8301V36.9969V40.7969H31.1551V36.9969ZM28.8301 36.9969H32.6301V34.6719H28.8301H25.0301V36.9969H28.8301ZM28.8301 34.6719H32.6301C32.6301 31.6029 30.1412 29.1141 27.0722 29.1141V32.9141V36.7141C25.9439 36.7141 25.0301 35.8002 25.0301 34.6719H28.8301ZM27.0722 32.9141V29.1141C24.0033 29.1141 21.5144 31.6029 21.5144 34.6719H25.3144H29.1144C29.1144 35.8002 28.2006 36.7141 27.0722 36.7141V32.9141ZM25.3144 34.6719H21.5144V36.9969H25.3144H29.1144V34.6719H25.3144ZM25.3144 36.9969V33.1969H22.9894V36.9969V40.7969H25.3144V36.9969ZM22.9894 36.9969V33.1969C19.9204 33.1969 17.4316 35.6857 17.4316 38.7547H21.2316H25.0316C25.0316 39.8831 24.1178 40.7969 22.9894 40.7969V36.9969ZM21.2316 38.7547H17.4316C17.4316 41.8237 19.9204 44.3125 22.9894 44.3125V40.5125V36.7125C24.1178 36.7125 25.0316 37.6263 25.0316 38.7547H21.2316ZM22.9894 40.5125V44.3125H25.3144V40.5125V36.7125H22.9894V40.5125ZM25.3144 40.5125H21.5144V42.8375H25.3144H29.1144V40.5125H25.3144ZM25.3144 42.8375H21.5144C21.5144 45.9065 24.0033 48.3953 27.0722 48.3953V44.5953V40.7953C28.2006 40.7953 29.1144 41.7091 29.1144 42.8375H25.3144ZM27.0722 44.5953V48.3953C30.1412 48.3953 32.6301 45.9065 32.6301 42.8375H28.8301H25.0301C25.0301 41.7091 25.9439 40.7953 27.0722 40.7953V44.5953ZM28.8301 42.8375H32.6301V40.5125H28.8301H25.0301V42.8375H28.8301ZM28.8301 40.5125V44.3125H31.1551V40.5125V36.7125H28.8301V40.5125ZM31.1551 40.5125V44.3125C34.2241 44.3125 36.7129 41.8237 36.7129 38.7547H32.9129H29.1129C29.1129 37.6263 30.0267 36.7125 31.1551 36.7125V40.5125ZM32.9129 38.7547H36.7129C36.7129 35.6857 34.2241 33.1969 31.1551 33.1969V36.9969V40.7969C30.0267 40.7969 29.1129 39.8831 29.1129 38.7547H32.9129Z" fill="#4A443D"/>
</g>
<path d="M42.9647 69.5388C44.0913 65.2157 45.4674 59.9428 50.6915 52.4331C55.9156 44.9235 64.4592 35.5364 62.8947 24.5848C61.3302 13.6332 67.2754 17.5967 71.9689 21.4558C77.6011 26.3579 86.6753 38.9783 81.6689 50.8686C76.6624 62.7589 87.614 66.2008 91.6818 62.7589C92.8291 62.1331 95.1237 60.1931 95.1237 57.4396C95.1237 53.9977 97.314 53.9976 98.8785 56.5009C100.443 59.0041 110.143 75.5879 101.382 90.6072C92.6203 105.627 78.2272 107.191 68.2141 105.627C64.1199 104.987 57.1496 101.304 52.4857 97.3337C48.3 93.2484 40.5357 81.97 42.9647 69.5388Z" stroke="#4A443D" stroke-width="3.5"/>
<path d="M69.2807 67.7773H20.4451C17.4436 67.7773 15 70.219 15 73.2224V93.5292C15 96.5308 17.4417 98.9743 20.4451 98.9743H69.2807C77.8809 98.9743 84.8782 91.977 84.8782 83.3768C84.8782 74.7766 77.8809 67.7792 69.2807 67.7792V67.7773ZM69.2807 96.1638H20.4451C18.9921 96.1638 17.8087 94.9804 17.8087 93.5274V73.2206C17.8087 71.7676 18.9921 70.5842 20.4451 70.5842H69.2807C76.3323 70.5842 82.0695 76.3214 82.0695 83.373C82.0695 90.4247 76.3323 96.1619 69.2807 96.1619V96.1638Z" fill="#FF5F1F"/>
<path d="M69.2806 96.1638H20.445C18.992 96.1638 17.8086 94.9804 17.8086 93.5274V73.2206C17.8086 71.7676 18.992 70.5842 20.445 70.5842H69.2806C76.3322 70.5842 82.0694 76.3214 82.0694 83.373C82.0694 90.4247 76.3322 96.1619 69.2806 96.1619V96.1638Z" fill="#F5F1EB"/>
<path d="M34.3803 79.2411H33.6407C33.798 78.449 33.9534 77.6532 34.1032 76.8593C34.2474 76.0972 33.7455 75.3632 32.9834 75.219C32.2214 75.0749 31.4874 75.5767 31.3432 76.3388C31.1597 77.3068 30.9706 78.2749 30.7758 79.2429H28.2237C28.3828 78.4509 28.5401 77.6588 28.6918 76.8649C28.8378 76.1028 28.3398 75.367 27.5777 75.2209C26.8156 75.0749 26.0797 75.5729 25.9336 76.335C25.7464 77.3049 25.5535 78.2749 25.3569 79.2429H24.0069C23.2317 79.2429 22.6025 79.8721 22.6025 80.6473C22.6025 81.4225 23.2317 82.0516 24.0069 82.0516H24.7783C24.5499 83.1414 24.3215 84.2218 24.093 85.2947H22.7149C21.9397 85.2947 21.3105 85.9239 21.3105 86.6991C21.3105 87.4743 21.9397 88.1034 22.7149 88.1034H23.4976C23.3309 88.888 23.1643 89.6707 22.9976 90.4571C22.8385 91.2154 23.3253 91.9607 24.0837 92.1198C24.181 92.1404 24.2784 92.1498 24.3739 92.1498C25.0236 92.1498 25.6078 91.6948 25.7464 91.0338C25.9524 90.0526 26.1602 89.079 26.3681 88.1034H28.9127C28.7442 88.8861 28.5776 89.6688 28.409 90.4533C28.248 91.2117 28.7311 91.9569 29.4913 92.1198C29.5906 92.1404 29.6879 92.1517 29.7853 92.1517C30.435 92.1517 31.0174 91.6985 31.1578 91.0394C31.3656 90.0583 31.5772 89.0808 31.7851 88.1053H33.0883C33.8635 88.1053 34.4926 87.4761 34.4926 86.7009C34.4926 85.9257 33.8635 85.2966 33.0883 85.2966H32.3861C32.6146 84.2237 32.843 83.1414 33.0696 82.0535H34.3803C35.1555 82.0535 35.7846 81.4244 35.7846 80.6492C35.7846 79.874 35.1555 79.2448 34.3803 79.2448V79.2411ZM26.9672 85.2929C27.1957 84.2199 27.4241 83.1395 27.6507 82.0498H30.2028C29.9763 83.1377 29.746 84.2181 29.5175 85.2929H26.9672Z" fill="#FF5F1F"/>
<path d="M76.1346 78.6055H42.4903C41.7151 78.6055 41.0859 79.2346 41.0859 80.0098C41.0859 80.785 41.7151 81.4142 42.4903 81.4142H76.1346C76.9098 81.4142 77.5389 80.785 77.5389 80.0098C77.5389 79.2346 76.9098 78.6055 76.1346 78.6055Z" fill="#FF5F1F"/>
<path d="M74.0291 85.335H40.3848C39.6096 85.335 38.9805 85.9641 38.9805 86.7393C38.9805 87.5145 39.6096 88.1436 40.3848 88.1436H74.0291C74.8043 88.1436 75.4335 87.5145 75.4335 86.7393C75.4335 85.9641 74.8043 85.335 74.0291 85.335Z" fill="#FF5F1F"/>
<path d="M97.3166 12.2032C97.598 11.5539 98.5317 10 100.973 10C103.456 10 105.644 11.7186 105.644 14.8566C105.644 16.1265 105.39 17.2143 104.682 18.4284C103.227 20.9219 97.3163 24.7945 97.3163 24.7945C97.3163 24.7945 91.4073 20.9026 89.9637 18.4284C89.2553 17.2143 89 16.1265 89 14.8566C89 11.7186 91.1842 10 93.6671 10C96.1085 10 97.0356 11.5539 97.3166 12.2032ZM97.3166 12.2032C96.5394 13.4124 96.8763 15.0314 98.069 15.8193" stroke="#FF5F1F" stroke-width="2.46575" stroke-miterlimit="10" stroke-linecap="round" stroke-linejoin="round"/>
</svg>
