<svg width="32" height="32" viewBox="0 0 32 32" fill="none" xmlns="http://www.w3.org/2000/svg">
<path d="M3.615 14.3557C3.635 14.3607 3.65 14.3807 3.65 14.4057V18.3807C3.23 18.5257 2.92 18.9207 2.92 19.3907V23.5857C2.92 24.1757 3.405 24.6557 3.995 24.6557H5.54C6.13 24.6557 6.615 24.1757 6.615 23.5857V19.3907C6.615 18.9457 6.34 18.5657 5.955 18.4007V14.4057C5.955 14.3807 5.97 14.3607 5.99 14.3507C7.55 13.8357 8.6 12.3857 8.6 10.7407V8.4957C8.6 7.8607 8.085 7.3457 7.45 7.3457C6.815 7.3457 6.295 7.8607 6.295 8.4957V10.7407C6.295 11.0957 6.17 11.4257 5.955 11.6857V8.4957C5.955 7.8607 5.44 7.3457 4.8 7.3457C4.165 7.3457 3.65 7.8607 3.65 8.4957V11.6907C3.43 11.4307 3.305 11.0957 3.305 10.7407V8.4957C3.305 7.8607 2.785 7.3457 2.15 7.3457C1.515 7.3457 1 7.8607 1 8.4957V10.7407C1 12.3857 2.05 13.8357 3.615 14.3557ZM5.615 23.5857C5.615 23.6257 5.58 23.6557 5.54 23.6557H3.995C3.955 23.6557 3.92 23.6257 3.92 23.5857V19.3907C3.92 19.3507 3.955 19.3157 3.995 19.3157H4.135C4.14 19.3157 4.145 19.3207 4.15 19.3207C4.155 19.3207 4.16 19.3157 4.165 19.3157H5.44C5.445 19.3157 5.45 19.3207 5.455 19.3207C5.46 19.3207 5.465 19.3157 5.47 19.3157H5.54C5.58 19.3157 5.615 19.3507 5.615 19.3907V23.5857Z" fill="#4A443D"/>
<path d="M15.8103 23.4846C20.0053 23.4846 23.4203 20.0696 23.4203 15.8746C23.4203 11.6796 20.0053 8.26465 15.8103 8.26465C11.6153 8.26465 8.19531 11.6796 8.19531 15.8746C8.19531 20.0696 11.6103 23.4846 15.8103 23.4846ZM15.8103 9.26465C19.4553 9.26465 22.4203 12.2296 22.4203 15.8746C22.4203 19.5196 19.4553 22.4846 15.8103 22.4846C12.1653 22.4846 9.19531 19.5196 9.19531 15.8746C9.19531 12.2296 12.1653 9.26465 15.8103 9.26465Z" fill="#4A443D"/>
<path d="M15.8094 19.3504C17.7286 19.3504 19.2844 17.7946 19.2844 15.8754C19.2844 13.9562 17.7286 12.4004 15.8094 12.4004C13.8902 12.4004 12.3344 13.9562 12.3344 15.8754C12.3344 17.7946 13.8902 19.3504 15.8094 19.3504Z" fill="#4A443D"/>
<path d="M27.4856 7.3457C25.5106 7.3457 23.9656 9.5557 23.9656 12.3807C23.9656 14.4007 24.7656 16.1057 25.9406 16.9157V23.1157C25.9406 23.9657 26.6306 24.6557 27.4856 24.6557C28.3356 24.6557 29.0306 23.9657 29.0306 23.1157V16.9107C30.2056 16.1057 31.0006 14.4007 31.0006 12.3807C31.0006 9.5557 29.4556 7.3457 27.4856 7.3457ZM28.0306 23.1157C28.0306 23.4157 27.7856 23.6557 27.4856 23.6557C27.1856 23.6557 26.9406 23.4157 26.9406 23.1157V17.3507C27.1156 17.3857 27.2956 17.4157 27.4856 17.4157C27.6706 17.4157 27.8506 17.3857 28.0306 17.3507V23.1157Z" fill="#4A443D"/>
</svg>
