<svg width="120" height="121" viewBox="0 0 120 121" fill="none" xmlns="http://www.w3.org/2000/svg">
<mask id="mask0_1187_2268" style="mask-type:luminance" maskUnits="userSpaceOnUse" x="0" y="0" width="120" height="121">
<path d="M120 0.5H0V120.5H120V0.5Z" fill="white"/>
</mask>
<g mask="url(#mask0_1187_2268)">
<path d="M44.6691 14.2403C44.9799 13.5231 46.0114 11.8066 48.7082 11.8066C51.4509 11.8066 53.8675 13.705 53.8675 17.1714C53.8675 18.5741 53.5875 19.7757 52.805 21.1168C51.1979 23.8712 44.6687 28.1489 44.6687 28.1489C44.6687 28.1489 38.1416 23.8498 36.5469 21.1168C35.7644 19.7757 35.4824 18.5741 35.4824 17.1714C35.4824 13.705 37.8951 11.8066 40.6378 11.8066C43.3346 11.8066 44.3587 13.5231 44.6691 14.2403ZM44.6691 14.2403C43.8106 15.5761 44.1827 17.3644 45.5002 18.2348" stroke="#FF5F1F" stroke-width="2.72372" stroke-miterlimit="10" stroke-linecap="round" stroke-linejoin="round"/>
<path fill-rule="evenodd" clip-rule="evenodd" d="M61.9094 86.7773H61.8379C61.8616 86.8107 61.8854 86.844 61.9094 86.8773V86.7773Z" fill="#4A443D"/>
<path fill-rule="evenodd" clip-rule="evenodd" d="M107.194 66.5149C105.573 66.5223 103.969 66.8485 102.473 67.475C102.202 64.2792 100.74 61.302 98.3758 59.1344C96.0118 56.9668 92.9193 55.7672 89.712 55.7737C88.0804 55.7678 86.4633 56.0804 84.9515 56.6938L79.6108 30.2108C79.375 29.0317 78.7379 27.9708 77.8079 27.2086C76.878 26.4465 75.7127 26.03 74.5103 26.0303H50.1475H40.5664H16.1836C14.9846 26.0347 13.824 26.4532 12.8982 27.215C11.9723 27.9768 11.3382 29.0351 11.103 30.2108L0.181728 84.437C0.0243293 85.205 0.039932 85.9985 0.227403 86.7598C0.414875 87.5211 0.76951 88.231 1.26556 88.8382C1.76162 89.4453 2.38664 89.9344 3.09526 90.2699C3.80388 90.6053 4.5783 90.7788 5.36232 90.7777H66.6894C67.8218 91.3238 69.028 91.7012 70.2698 91.8978V109.5C70.2698 110.03 70.4805 110.539 70.8556 110.914C71.2307 111.289 71.7395 111.5 72.27 111.5H107.194C107.725 111.5 108.233 111.289 108.608 110.914C108.983 110.539 109.194 110.03 109.194 109.5V99.7987V91.8978C112.39 91.4214 115.287 89.7501 117.299 87.2214C119.311 84.6927 120.289 81.4948 120.035 78.2733C119.781 75.0518 118.314 72.0465 115.931 69.8642C113.548 67.6818 110.425 66.4849 107.194 66.5149ZM56.4882 86.7773L55.8681 48.8929C56.9529 49.3102 58.1063 49.5206 59.2685 49.513C60.8777 49.5278 62.4653 49.1429 63.889 48.3928L67.3094 67.615C65.5374 68.3614 63.9567 69.4979 62.6849 70.94C61.4131 72.382 60.483 74.0924 59.9639 75.9438C59.4449 77.7951 59.3502 79.7397 59.6869 81.6328C60.0165 83.4855 60.7509 85.242 61.8373 86.7773H61.9088V86.8773C61.8848 86.844 61.861 86.8107 61.8373 86.7773H56.4882ZM29.7126 45.9358C28.5715 45.7311 27.3987 45.7916 26.2847 46.1126L20.024 86.7773H34.9857L36.986 49.0529C35.5059 48.7562 34.1031 48.1569 32.8655 47.2927C31.9325 46.6047 30.8537 46.1404 29.7126 45.9358ZM44.9869 47.2927C43.7694 48.1053 42.4136 48.6883 40.9864 49.0129L38.9062 86.6972H52.3477L51.6876 46.6927C50.8555 46.2516 49.9291 46.0182 48.9873 46.0126C47.55 45.9923 46.1454 46.4418 44.9869 47.2927ZM67.5495 46.1526L71.2099 66.5749C71.3328 66.5681 71.4534 66.5589 71.5732 66.5498C71.8044 66.5323 72.0329 66.5149 72.27 66.5149C73.8977 66.5223 75.5082 66.8485 77.0105 67.475C77.2797 64.183 78.8226 61.1259 81.311 58.9541L79.0508 47.7328C75.1503 45.4725 71.89 44.6724 69.1496 45.4725C68.5937 45.6419 68.0573 45.8698 67.5495 46.1526ZM74.5103 30.0307H16.1836C15.9086 30.0306 15.6423 30.1264 15.4305 30.3017C15.2187 30.477 15.0747 30.7207 15.0234 30.9908L12.5231 42.6922C14.0139 43.7779 15.7832 44.4163 17.6237 44.5324C19.1986 44.5381 20.7484 44.1386 22.1242 43.3723C24.215 42.2054 26.5945 41.6574 28.985 41.7921C31.0861 41.9033 33.1151 42.5958 34.8457 43.7923C35.9404 44.6387 37.2825 45.1024 38.6661 45.1125H38.9462C40.3851 45.0839 41.7809 44.6163 42.9466 43.7723C44.6893 42.5856 46.7489 41.9509 48.8573 41.9509C50.9657 41.9509 53.0253 42.5856 54.768 43.7723L55.2681 44.0923C56.4054 44.997 57.8153 45.4905 59.2685 45.4925C60.9086 45.4354 62.4839 44.8376 63.749 43.7923C65.0495 42.8404 66.4948 42.1042 68.0295 41.6121C71.3873 40.7681 74.9366 41.1585 78.0307 42.7122L75.6704 30.9908C75.6228 30.719 75.4799 30.473 75.2673 30.297C75.0546 30.121 74.7862 30.0266 74.5103 30.0307ZM4.05399 85.8115C4.11352 85.9971 4.21964 86.1643 4.36221 86.2972C4.4802 86.4494 4.632 86.572 4.80559 86.6553C4.97919 86.7386 5.1698 86.7804 5.36232 86.7773H16.0235L22.0242 47.8728C20.6205 48.4053 19.124 48.6502 17.6237 48.5929C15.584 48.5027 13.5953 47.9266 11.8231 46.9127L4.02217 85.2371C3.98351 85.4281 3.99446 85.6259 4.05399 85.8115ZM74.2702 101.799V107.5H105.194V101.799H74.2702ZM105.78 88.6633C106.155 88.2881 106.664 88.0774 107.194 88.0774L107.134 88.1374C109.463 88.1374 111.696 87.2123 113.343 85.5655C114.99 83.9187 115.915 81.6853 115.915 79.3564C115.915 77.0275 114.99 74.794 113.343 73.1473C111.696 71.5005 109.463 70.5754 107.134 70.5754C105.021 70.5962 102.987 71.3854 101.413 72.7956C101.092 73.079 100.689 73.252 100.262 73.289C99.8357 73.3259 99.4085 73.2251 99.0435 73.0011C98.6785 72.7772 98.395 72.4421 98.2347 72.045C98.0744 71.648 98.0458 71.21 98.153 70.7954C98.342 70.0633 98.4427 69.3112 98.453 68.5552C98.451 66.9497 98.0079 65.3756 97.1721 64.0048C96.3362 62.634 95.1397 61.5193 93.7133 60.7824C92.287 60.0454 90.6855 59.7146 89.0838 59.8261C87.4822 59.9375 85.942 60.487 84.6314 61.4143C83.5009 62.2219 82.5791 63.2872 81.9426 64.5221C81.306 65.757 80.9729 67.1258 80.971 68.5152C80.979 69.2727 81.0866 70.0259 81.291 70.7554C81.3961 71.1702 81.3653 71.6077 81.2033 72.0038C81.0413 72.3998 80.7566 72.7334 80.3909 72.9557C80.0255 73.1754 79.5993 73.2725 79.1747 73.233C78.7501 73.1934 78.3492 73.0191 78.0307 72.7356C76.9655 71.7882 75.6857 71.1144 74.3018 70.7723C72.918 70.4302 71.4716 70.4302 70.0877 70.7722C68.7038 71.1143 67.424 71.7881 66.3589 72.7355C65.2937 73.6829 64.4752 74.8754 63.9741 76.21C63.473 77.5445 63.3043 78.981 63.4827 80.3954C63.6611 81.8097 64.1811 83.1593 64.9978 84.3277C65.8145 85.4961 66.9035 86.448 68.1705 87.1013C69.4375 87.7546 70.8445 88.0896 72.27 88.0774C72.8005 88.0774 73.3093 88.2881 73.6844 88.6633C74.0595 89.0384 74.2702 89.5471 74.2702 90.0776V97.7985H105.194V90.0776C105.194 89.5471 105.405 89.0384 105.78 88.6633Z" fill="#4A443D"/>
</g>
</svg>
