<svg width="32" height="32" viewBox="0 0 32 32" fill="none" xmlns="http://www.w3.org/2000/svg">
<path d="M29.05 6.5957H2.95C1.875 6.5957 1 7.4707 1 8.5457V23.4557C1 24.5307 1.875 25.4057 2.95 25.4057H29.05C30.125 25.4057 31 24.5307 31 23.4557V8.5457C31 7.4707 30.125 6.5957 29.05 6.5957ZM30 23.4557C30 23.9807 29.575 24.4057 29.05 24.4057H2.95C2.425 24.4057 2 23.9807 2 23.4557V8.5457C2 8.0207 2.425 7.5957 2.95 7.5957H29.05C29.575 7.5957 30 8.0207 30 8.5457V23.4557Z" fill="#4A443D"/>
<path d="M13.2053 8.77051H3.74532C3.47032 8.77051 3.24532 8.99051 3.24532 9.27051V16.6905C3.24532 16.9655 3.47032 17.1905 3.74532 17.1905H13.2053C13.4803 17.1905 13.7053 16.9655 13.7053 16.6905V9.27051C13.7053 8.99051 13.4803 8.77051 13.2053 8.77051Z" fill="#4A443D"/>
<path d="M28.4644 14.5996H15.5844C15.3094 14.5996 15.0844 14.8246 15.0844 15.0996V22.5246C15.0844 22.7996 15.3094 23.0246 15.5844 23.0246H28.4644C28.7394 23.0246 28.9644 22.7996 28.9644 22.5246V15.0996C28.9644 14.8246 28.7394 14.5996 28.4644 14.5996ZM27.9644 22.0246H16.0844V15.5996H27.9644V22.0246Z" fill="#4A443D"/>
<path d="M27.5194 8.77051H17.0294C16.2344 8.77051 15.5844 9.41551 15.5844 10.2155V12.3605C15.5844 13.1605 16.2344 13.8055 17.0294 13.8055H27.5194C28.3144 13.8055 28.9644 13.1605 28.9644 12.3605V10.2155C28.9644 9.41551 28.3144 8.77051 27.5194 8.77051Z" fill="#4A443D"/>
<path d="M17.6062 21.4989C17.8827 21.4989 18.1062 21.2749 18.1062 20.9989V16.6279C18.1062 16.3519 17.8827 16.1279 17.6062 16.1279C17.3297 16.1279 17.1062 16.3519 17.1062 16.6279V20.9989C17.1062 21.2749 17.3297 21.4989 17.6062 21.4989Z" fill="#4A443D"/>
<path d="M19.8156 21.4989C20.0921 21.4989 20.3156 21.2749 20.3156 20.9989V16.6279C20.3156 16.3519 20.0921 16.1279 19.8156 16.1279C19.5391 16.1279 19.3156 16.3519 19.3156 16.6279V20.9989C19.3156 21.2749 19.5391 21.4989 19.8156 21.4989Z" fill="#4A443D"/>
<path d="M22.025 21.4989C22.3015 21.4989 22.525 21.2749 22.525 20.9989V16.6279C22.525 16.3519 22.3015 16.1279 22.025 16.1279C21.7485 16.1279 21.525 16.3519 21.525 16.6279V20.9989C21.525 21.2749 21.7485 21.4989 22.025 21.4989Z" fill="#4A443D"/>
<path d="M24.2344 21.4989C24.5109 21.4989 24.7344 21.2749 24.7344 20.9989V16.6279C24.7344 16.3519 24.5109 16.1279 24.2344 16.1279C23.9579 16.1279 23.7344 16.3519 23.7344 16.6279V20.9989C23.7344 21.2749 23.9579 21.4989 24.2344 21.4989Z" fill="#4A443D"/>
<path d="M26.4438 21.4989C26.7203 21.4989 26.9438 21.2749 26.9438 20.9989V16.6279C26.9438 16.3519 26.7203 16.1279 26.4438 16.1279C26.1673 16.1279 25.9438 16.3519 25.9438 16.6279V20.9989C25.9438 21.2749 26.1673 21.4989 26.4438 21.4989Z" fill="#4A443D"/>
<path d="M12.7817 18.1709H4.16875C3.89225 18.1709 3.66875 18.3949 3.66875 18.6709C3.66875 18.9469 3.89225 19.1709 4.16875 19.1709H12.7817C13.0582 19.1709 13.2817 18.9469 13.2817 18.6709C13.2817 18.3949 13.0582 18.1709 12.7817 18.1709Z" fill="#4A443D"/>
<path d="M12.7817 19.9365H4.16875C3.89225 19.9365 3.66875 20.1605 3.66875 20.4365C3.66875 20.7125 3.89225 20.9365 4.16875 20.9365H12.7817C13.0582 20.9365 13.2817 20.7125 13.2817 20.4365C13.2817 20.1605 13.0582 19.9365 12.7817 19.9365Z" fill="#4A443D"/>
<path d="M10.5807 21.7031H6.36719C6.09069 21.7031 5.86719 21.9271 5.86719 22.2031C5.86719 22.4791 6.09069 22.7031 6.36719 22.7031H10.5807C10.8572 22.7031 11.0807 22.4791 11.0807 22.2031C11.0807 21.9271 10.8572 21.7031 10.5807 21.7031Z" fill="#4A443D"/>
</svg>
