<svg width="32" height="32" viewBox="0 0 32 32" fill="none" xmlns="http://www.w3.org/2000/svg">
<path d="M28.985 1.23535H3.015C1.905 1.23535 1 2.14035 1 3.25035C1 4.18535 1.645 4.97035 2.515 5.19535V27.4554C2.515 29.2804 4 30.7654 5.825 30.7654C7.01 30.7654 8.05 30.1354 8.63 29.1954C9.215 30.1354 10.255 30.7654 11.44 30.7654C12.625 30.7654 13.665 30.1354 14.25 29.1954C14.835 30.1354 15.875 30.7654 17.06 30.7654C18.53 30.7654 19.775 29.8054 20.205 28.4754H29.155C29.43 28.4754 29.655 28.2554 29.655 27.9754V5.14035C30.435 4.86535 31 4.12535 31 3.25035C31 2.14035 30.095 1.23535 28.985 1.23535ZM28.655 27.4754H20.37V26.3904H27.065C27.34 26.3904 27.565 26.1653 27.565 25.8904V5.26535H28.655V27.4754ZM20.37 25.3904V5.26535H26.565V25.3904H20.37ZM28.985 4.26535H3.015C2.455 4.26535 2 3.81035 2 3.25035C2 2.69035 2.455 2.23535 3.015 2.23535H28.985C29.545 2.23535 30 2.69035 30 3.25035C30 3.81035 29.545 4.26535 28.985 4.26535Z" fill="#4A443D"/>
<path d="M22.0521 20.9325L23.6486 19.336C23.8441 19.1405 23.8441 18.8245 23.6486 18.629C23.4531 18.4335 23.1371 18.4335 22.9416 18.629L21.3451 20.2255C21.1496 20.421 21.1496 20.737 21.3451 20.9325C21.4426 21.03 21.5706 21.079 21.6986 21.079C21.8266 21.079 21.9546 21.03 22.0521 20.9325Z" fill="#4A443D"/>
<path d="M24.8824 19.0128L21.7279 22.1668C21.5324 22.3623 21.5324 22.6783 21.7279 22.8738C21.8254 22.9713 21.9534 23.0203 22.0814 23.0203C22.2094 23.0203 22.3374 22.9713 22.4349 22.8738L25.5894 19.7198C25.7849 19.5243 25.7849 19.2083 25.5894 19.0128C25.3939 18.8173 25.0779 18.8173 24.8824 19.0128Z" fill="#4A443D"/>
</svg>
