<svg width="252" height="288" viewBox="0 0 252 288" fill="none" xmlns="http://www.w3.org/2000/svg">
<g clip-path="url(#clip0_1344_8296)">
<path fill-rule="evenodd" clip-rule="evenodd" d="M52.3796 9.3896C57.907 7.29496 60.6214 22.865 56.838 25.1088C56.5263 24.0956 57.2003 23.9031 57.1449 23.091C54.1713 22.8112 48.439 10.8893 52.3796 9.3896ZM57.0066 21.6154C57.7012 17.6847 57.7534 10.2366 52.7198 10.3501C51.27 14.5851 53.4689 20.7421 57.0066 21.6154Z" fill="#F5F1EB"/>
<path fill-rule="evenodd" clip-rule="evenodd" d="M18.2079 28.4861C17.5162 28.2216 17.7273 26.8716 17.256 26.3362C13.6304 26.572 6.0178 21.0979 8.56193 18.2197C12.8853 13.3316 20.8985 23.968 18.2079 28.4861ZM17.3931 25.0848C16.4483 21.2329 13.3027 16.4949 9.36651 18.8865C10.4458 22.8843 12.9437 25.1602 17.3931 25.0848Z" fill="#F5F1EB"/>
<path fill-rule="evenodd" clip-rule="evenodd" d="M43.0352 31.364C42.9625 32.7677 41.3066 33.6486 40.0713 34.1231C33.5783 33.3435 34.1938 25.2338 33.0723 20.3852C35.7532 19.9002 43.1704 28.8494 43.0352 31.364ZM40.9165 32.5552C42.477 29.1897 37.642 25.1063 35.2936 22.9123C34.3082 27.6541 36.7102 32.3325 40.9165 32.5552Z" fill="#F5F1EB"/>
<path fill-rule="evenodd" clip-rule="evenodd" d="M88.97 36.9863C88.1396 36.889 87.3542 36.7375 86.4609 36.7254C83.2779 33.6338 80.465 30.0864 79.1309 24.749C84.5817 25.618 94.257 30.9486 88.97 36.9863ZM80.997 26.0668C82.2701 29.0206 84.8963 36.4009 88.3394 35.5526C93.4622 34.3007 84.5132 25.1991 80.997 26.0668Z" fill="#F5F1EB"/>
<path fill-rule="evenodd" clip-rule="evenodd" d="M112.963 38.7069C111.492 39.4286 111.541 40.1246 110.174 40.7073C112.557 34.2498 104.555 33.3865 102.775 27.9993C108.713 20.3202 110.26 34.778 112.963 38.7069ZM104.209 27.3686C104.848 30.9782 107.058 32.689 109.555 34.0644C109.146 30.1831 107.956 23.894 104.209 27.3686Z" fill="#F5F1EB"/>
<path fill-rule="evenodd" clip-rule="evenodd" d="M24.8036 38.0412C30.8485 35.9981 34.7672 47.9609 31.1278 52.5847C30.5436 47.9984 22.0752 46.0698 23.0163 40.1896C23.1272 39.5495 24.1567 38.2562 24.8036 38.0412ZM31.0072 48.6305C31.6591 43.3111 29.1491 37.0374 24.5193 40.3029C25.6132 44.3661 27.9361 46.9545 31.0072 48.6305Z" fill="#F5F1EB"/>
<path fill-rule="evenodd" clip-rule="evenodd" d="M4.36683 42.4414C5.1777 42.553 5.6972 43.0255 6.20551 43.5116C5.80149 47.2064 10.2414 50.4094 9.55046 55.3572C8.75533 61.0611 1.63528 59.1519 1.89358 53.1022C2.0836 48.681 5.81686 45.7247 4.36683 42.4414ZM4.78222 46.8725C3.95566 50.3735 0.881404 56.8916 6.98647 57.0905C9.18023 54.0325 7.20089 49.5938 5.52603 46.8028C5.27808 46.826 5.02604 46.8497 4.78222 46.8725Z" fill="#F5F1EB"/>
<path fill-rule="evenodd" clip-rule="evenodd" d="M64.3196 41.2888C62.8268 44.7981 61.89 49.7897 56.1056 49.0104C53.2678 44.7522 61.1151 36.9441 64.3196 41.2888ZM63.0188 40.6644C58.9637 41.3867 56.8478 43.7201 56.459 47.4886C60.5668 49.2841 62.3657 43.9239 63.0188 40.6644Z" fill="#F5F1EB"/>
<path fill-rule="evenodd" clip-rule="evenodd" d="M128.434 37.0131C128.274 36.4568 126.962 35.8919 127.538 35.3584C127.694 35.915 129.201 36.249 128.434 37.0131Z" fill="#F5F1EB"/>
<path fill-rule="evenodd" clip-rule="evenodd" d="M131.112 38.991C130.333 39.306 129.203 37.7065 130.243 37.584C130.117 38.5548 130.919 38.4003 131.112 38.991Z" fill="#F5F1EB"/>
<path fill-rule="evenodd" clip-rule="evenodd" d="M119.969 39.2939C124.373 44.5684 128.074 50.6971 131.786 56.8039C127.714 51.4814 122.82 44.2721 119.969 39.2939Z" fill="#F5F1EB"/>
<path fill-rule="evenodd" clip-rule="evenodd" d="M127.49 58.6918C124.561 53.1913 120.8 48.6903 118.072 42.9456C118.417 42.9217 118.607 42.7787 118.793 42.6279C121.49 48.046 125.53 53.3005 127.49 58.6918Z" fill="#F5F1EB"/>
<path fill-rule="evenodd" clip-rule="evenodd" d="M103.804 52.223C103.794 50.7812 103.494 49.6792 102.993 48.8255C100.119 46.9769 95.3157 49.7708 92.86 49.2797C97.0161 45.0078 107.567 47.4876 104.636 53.1416C102.542 57.1742 93.8096 53.1395 91.3486 51.6565C93.5431 48.7403 99.9869 56.1546 103.804 52.223Z" fill="#F5F1EB"/>
<path fill-rule="evenodd" clip-rule="evenodd" d="M133.259 56.6662C132.882 56.0302 132.082 55.8968 132.09 54.7909C133.075 54.5276 133.747 56.0574 133.259 56.6662Z" fill="#F5F1EB"/>
<path fill-rule="evenodd" clip-rule="evenodd" d="M60.5968 62.4813C63.8326 65.2927 60.1332 69.8554 60.0901 72.9535C60.4763 72.8923 60.2255 72.307 60.7833 72.3881C60.5102 74.2777 60.3275 76.2421 58.4687 76.8251C57.5597 74.0207 56.9702 70.0896 55.4088 67.9301C54.2853 63.9948 58.2593 60.4488 60.5968 62.4813ZM58.2706 72.1317C60.0468 70.0887 59.8225 66.0066 59.1634 63.112C54.8868 63.6966 57.0699 69.4172 58.2706 72.1317Z" fill="#F5F1EB"/>
<path fill-rule="evenodd" clip-rule="evenodd" d="M114.88 59.13C114.827 58.7389 113.685 57.6867 114.742 57.6543C114.711 58.0908 115.547 58.8173 114.88 59.13Z" fill="#F5F1EB"/>
<path fill-rule="evenodd" clip-rule="evenodd" d="M34.362 65.9375C34.6798 69.5939 38.7329 80.7226 30.1291 78.9942C24.6315 73.4469 32.6994 70.2591 34.362 65.9375ZM31.2679 77.8908C36.2006 78.5249 34.6202 72.8269 33.5264 70.2316C31.8842 70.9903 30.3727 71.8534 29.5982 73.3313C29.6554 75.4526 30.1505 77.0449 31.2679 77.8908Z" fill="#F5F1EB"/>
<path fill-rule="evenodd" clip-rule="evenodd" d="M83.5553 69.2695C84.3856 69.3668 85.4216 69.2112 85.6187 70.0684C82.8546 73.4009 84.0463 81.1326 77.9567 80.9657C73.9214 75.5856 81.6325 73.1277 83.5553 69.2695ZM79.3165 79.5955C81.8209 78.339 82.0792 75.2249 82.8758 72.5607C81.1405 74.1954 76.5285 76.4044 79.3165 79.5955Z" fill="#F5F1EB"/>
<path fill-rule="evenodd" clip-rule="evenodd" d="M152.896 70.2182C150.062 70.0503 147.293 70.5269 145.336 71.6694C145.702 69.2166 151.21 68.9626 152.896 70.2182Z" fill="#F5F1EB"/>
<path fill-rule="evenodd" clip-rule="evenodd" d="M22.232 87.4285C26.1511 88.4119 28.0815 95.9743 30.0488 99.3509C27.2611 96.8727 19.6834 96.6619 17.5969 93.5718C15.4327 90.3638 19.0469 86.6263 22.232 87.4285ZM18.5576 93.2356C21.3017 94.7588 24.4993 95.739 27.3594 97.122C25.5677 93.5289 22.7869 85.5208 18.2801 90.276C18.3732 91.2681 18.4653 92.2518 18.5576 93.2356Z" fill="#F5F1EB"/>
<path fill-rule="evenodd" clip-rule="evenodd" d="M80.1676 101.858C72.3344 107.15 71.8165 95.2645 69.6436 90.1851C75.4771 90.0216 79.6182 95.642 80.1676 101.858ZM72.1988 90.9379C72.5567 94.4445 72.6489 102.988 78.4253 101.771C80.3008 97.0082 75.1983 93.2293 72.1988 90.9379Z" fill="#F5F1EB"/>
<path fill-rule="evenodd" clip-rule="evenodd" d="M181.599 82.6553C180.428 80.7345 177.084 81.094 174.778 81.3102C176.644 79.2839 181.204 79.7276 181.599 82.6553Z" fill="#F5F1EB"/>
<path fill-rule="evenodd" clip-rule="evenodd" d="M144.003 83.9476C142.429 84.0077 141.415 85.7289 140.17 85.3036C140.615 84.2653 142.71 82.8721 144.003 83.9476Z" fill="#F5F1EB"/>
<path fill-rule="evenodd" clip-rule="evenodd" d="M118.155 88.8619C117.012 88.3686 115.944 89.0234 115.313 87.6397C116.196 85.6221 117.703 87.866 118.155 88.8619Z" fill="#F5F1EB"/>
<path fill-rule="evenodd" clip-rule="evenodd" d="M53.1387 96.6914C53.8798 100.462 55.5826 108.842 50.2805 108.626C42.8994 108.335 48.7597 96.806 53.1387 96.6914ZM51.6681 107.508C53.7563 105.636 52.5686 102.174 52.332 98.7602C47.9058 99.1712 45.6365 107.381 51.6681 107.508Z" fill="#F5F1EB"/>
<path fill-rule="evenodd" clip-rule="evenodd" d="M159.857 88.9238C160.185 89.5269 159.219 90.1679 159.995 90.3995C161.174 90.4683 161.804 90.0838 161.87 89.2312C161.511 88.0223 159.571 88.7254 159.227 87.4901C166.766 86.2283 161.019 95.3656 157.536 90.6301C157.699 89.5181 158.843 88.6519 159.857 88.9238Z" fill="#F5F1EB"/>
<path fill-rule="evenodd" clip-rule="evenodd" d="M104.169 109.032C103.394 107.133 101.207 105.499 101.18 103.604C102.461 104.731 104.894 107.296 104.169 109.032Z" fill="#F5F1EB"/>
<path fill-rule="evenodd" clip-rule="evenodd" d="M21.2621 111.347C27.3689 112.408 30.7987 119.513 31.0518 125.815C26.3997 123.95 13.3982 116.8 21.2621 111.347ZM30.1642 124.172C29.0586 118.872 24.0765 109.039 19.6643 115.47C22.8709 118.547 25.9816 123.18 30.1642 124.172Z" fill="#F5F1EB"/>
<path fill-rule="evenodd" clip-rule="evenodd" d="M176.195 99.0524C174.792 100.448 170.203 99.7478 168.544 99.524C170.252 98.313 174.57 97.858 176.195 99.0524Z" fill="#F5F1EB"/>
<path fill-rule="evenodd" clip-rule="evenodd" d="M201.705 95.9121C206.692 96.0073 208.09 100.438 211.272 102.713C210.582 103.853 208.898 102.835 207.81 102.787C207.106 99.7213 203.13 97.9885 199.675 98.0874C200.56 97.5331 201.817 97.2901 201.705 95.9121Z" fill="#F5F1EB"/>
<path fill-rule="evenodd" clip-rule="evenodd" d="M129.776 106.882C125.228 104.569 120.529 108.905 117.125 109.553C119.056 106.537 126.956 102.456 129.776 106.882Z" fill="#F5F1EB"/>
<path fill-rule="evenodd" clip-rule="evenodd" d="M196.337 110.075C193.965 111.54 191.137 109.62 191.045 106.593C193.705 104.73 196.359 106.937 196.337 110.075ZM195.032 109.451C195.66 107.391 193.948 106.25 192.365 107.466C193.099 108.315 193.541 109.516 195.032 109.451Z" fill="#F5F1EB"/>
<path fill-rule="evenodd" clip-rule="evenodd" d="M64.3211 128.657C64.294 128.234 64.0721 128.047 63.7562 127.968C62.3279 130.341 61.5496 133.245 58.9193 134.626C58.5613 131.341 58.1056 126.48 57.4717 121.852C60.9898 116.201 66.6743 122.853 64.3211 128.657ZM60.0988 131.288C62.5359 129.225 63.5168 125.947 63.1564 121.569C56.9513 118.302 59.4479 126.879 60.0988 131.288Z" fill="#F5F1EB"/>
<path fill-rule="evenodd" clip-rule="evenodd" d="M128.73 116.911C126.556 118.366 124.438 119.866 121.378 120.582C123.312 118.883 125.3 116.703 128.73 116.911Z" fill="#F5F1EB"/>
<path fill-rule="evenodd" clip-rule="evenodd" d="M0.443944 130.188C-0.89287 139.675 2.76472 155.256 1.25681 165.364C1.19162 159.732 0.314932 154.16 -0.288886 148.875C-1.0322 142.369 -1.67251 135.449 -0.0477628 130.234C0.10927 130.219 0.274514 130.204 0.443944 130.188Z" fill="#F5F1EB"/>
<path fill-rule="evenodd" clip-rule="evenodd" d="M224.581 117.602C224.319 115.6 223.045 113.485 222.625 112.573C224.836 113.383 225.393 116.171 226.397 118.428C226.054 118.598 225.829 118.865 225.73 119.233C222.398 118.958 220.91 116.47 219.52 113.857C222.67 111.806 221.38 117.836 224.581 117.602Z" fill="#F5F1EB"/>
<path fill-rule="evenodd" clip-rule="evenodd" d="M89.3835 126.058C88.1149 128.712 87.1001 131.585 85.9396 134.325C85.6446 131.267 86.3069 127.081 89.3835 126.058Z" fill="#F5F1EB"/>
<path fill-rule="evenodd" clip-rule="evenodd" d="M20.9047 149.864C21.3751 145.988 19.4813 140.148 20.9096 136.708C21.8292 151.187 24.0428 165.24 26.0857 178.671C24.1365 171.219 22.6318 160.948 21.3372 151.808C20.9005 151.774 20.0922 152.713 20.0784 151.676C18.3057 146.33 17.1662 140.224 14.4007 136.071C14.1537 145.844 15.5951 156.638 16.4522 165.914C16.4952 166.373 16.5509 170.746 16.2567 169.164C15.0255 155.853 12.2351 144.143 13.6324 133.166C17.3325 137.193 17.7286 145.2 20.9047 149.864Z" fill="#F5F1EB"/>
<path fill-rule="evenodd" clip-rule="evenodd" d="M9.4414 165.333C8.4817 154.206 5.55757 142.359 7.22422 133.767C7.33698 142.129 9.75843 157.33 9.4414 165.333Z" fill="#F5F1EB"/>
<path fill-rule="evenodd" clip-rule="evenodd" d="M99.2051 127.62C99.7034 130 98.8739 133.247 97.926 135.187C97.1949 132.724 97.5263 128.077 99.2051 127.62Z" fill="#F5F1EB"/>
<path fill-rule="evenodd" clip-rule="evenodd" d="M218.04 127.15C216.324 128.491 213.793 125.86 214.024 124.053C215.327 124.04 217.859 124.903 218.04 127.15Z" fill="#F5F1EB"/>
<path fill-rule="evenodd" clip-rule="evenodd" d="M171.238 128.313C171.277 128.726 171.315 129.131 171.353 129.544C169.577 130.211 167.093 130.39 165.609 131.822C166.083 129.488 168.119 128.447 171.238 128.313Z" fill="#F5F1EB"/>
<path fill-rule="evenodd" clip-rule="evenodd" d="M140.461 136.17C139.583 138.851 137.448 140.477 135.579 142.337C135.802 140.006 138.177 137.544 140.461 136.17Z" fill="#F5F1EB"/>
<path fill-rule="evenodd" clip-rule="evenodd" d="M234.838 136.992C235.134 135.801 234.351 133.719 235.475 133.209C236.026 135.892 237.594 141.85 234.38 142.739C232.513 142.164 231.144 138.994 232.645 137.44C233.244 136.812 234.55 137.44 234.838 136.992ZM234.733 141.222C234.911 140.363 235.564 139.009 234.953 138.224C234.008 138.204 233.845 138.816 233.303 139.125C233.301 140.389 233.604 141.311 234.733 141.222Z" fill="#F5F1EB"/>
<path fill-rule="evenodd" clip-rule="evenodd" d="M74.4009 148.812C73.699 150.575 74.6787 153.731 73.7697 155.33C72.8737 153.154 72.5233 150.706 73.1695 148.927C73.5868 148.888 73.9876 148.85 74.4009 148.812Z" fill="#F5F1EB"/>
<path fill-rule="evenodd" clip-rule="evenodd" d="M179.613 148.871C178.957 144.546 176.456 142.462 173.415 141.017C176.883 140.521 180.543 144.973 179.613 148.871Z" fill="#F5F1EB"/>
<path fill-rule="evenodd" clip-rule="evenodd" d="M84.7907 151.065C85.2415 152.983 84.6995 155.961 83.6487 157.381C83.1999 154.817 83.9254 153.219 84.0593 151.134C84.299 151.111 84.547 151.088 84.7907 151.065Z" fill="#F5F1EB"/>
<path fill-rule="evenodd" clip-rule="evenodd" d="M145.901 151.79C143.85 152.316 142.179 150.096 139.788 150.124C141.361 148.133 144.777 150.549 145.901 151.79Z" fill="#F5F1EB"/>
<path fill-rule="evenodd" clip-rule="evenodd" d="M168.181 156.647C166.694 154.793 164.51 153.781 162.806 152.185C165.527 150.445 167.057 154.659 168.181 156.647Z" fill="#F5F1EB"/>
<path fill-rule="evenodd" clip-rule="evenodd" d="M225.911 150.243C226.665 151.791 226.639 154.629 224.574 154.584C223.151 152.996 224.211 149.852 225.911 150.243Z" fill="#F5F1EB"/>
<path fill-rule="evenodd" clip-rule="evenodd" d="M114.318 161.698C111.741 163.207 111.575 166.813 112.152 170.341C110.032 167.738 109.474 161.656 114.318 161.698Z" fill="#F5F1EB"/>
<path fill-rule="evenodd" clip-rule="evenodd" d="M79.5139 179.613C79.668 174.987 78.7623 170.393 79.4813 165.968C81.277 169.381 81.2591 176.439 79.5139 179.613Z" fill="#F5F1EB"/>
<path fill-rule="evenodd" clip-rule="evenodd" d="M71.4105 169.95C71.1669 171.886 71.7636 176.43 70.4482 178.23C69.5887 175.375 69.6794 171.405 71.4105 169.95Z" fill="#F5F1EB"/>
<path fill-rule="evenodd" clip-rule="evenodd" d="M119.906 165.649C120.18 169.334 121.353 174.336 121.012 177.454C119.505 173.968 118.654 169.686 119.17 165.718C119.418 165.695 119.662 165.672 119.906 165.649Z" fill="#F5F1EB"/>
<path fill-rule="evenodd" clip-rule="evenodd" d="M62.1639 171.808C62.3829 173.21 62.1319 175.381 62.2258 177.761C60.6659 176.552 60.5962 172.606 62.1639 171.808Z" fill="#F5F1EB"/>
<path fill-rule="evenodd" clip-rule="evenodd" d="M179.958 173.663C178.285 171.569 178.06 167.737 176.025 166.089C179.056 165.292 180.263 170.428 179.958 173.663Z" fill="#F5F1EB"/>
<path fill-rule="evenodd" clip-rule="evenodd" d="M58.2977 188.799C58.1219 184.566 55.9087 181.279 57.7747 177.927C57.2923 181.008 59.9874 185.7 58.2977 188.799Z" fill="#F5F1EB"/>
<path fill-rule="evenodd" clip-rule="evenodd" d="M235.421 177.642C235.957 174.552 238.437 171.259 239.196 167.614C239.689 171.671 238.897 176.165 235.421 177.642Z" fill="#F5F1EB"/>
<path fill-rule="evenodd" clip-rule="evenodd" d="M226.061 170.332C226.226 170.317 226.388 170.301 226.548 170.286C227.098 170.906 226.899 172.422 227.1 173.462C226.624 174.378 225.939 172.77 225.626 173.6C225.397 174.635 226.269 176.513 224.156 176.469C222.872 174.417 224.694 171.628 226.061 170.332Z" fill="#F5F1EB"/>
<path fill-rule="evenodd" clip-rule="evenodd" d="M74.9553 199.651C74.6253 197.376 72.2927 194.684 72.8572 193.147C74.0686 194.505 76.4964 197.547 74.9553 199.651Z" fill="#F5F1EB"/>
<path fill-rule="evenodd" clip-rule="evenodd" d="M155.075 194.117C156.219 193.639 156.966 193.335 157.801 194.107C158.161 197.764 154.504 195.755 153.092 196.784C153.766 194.423 151.097 194.448 150.705 192.538C152.256 190.145 153.632 193.785 155.075 194.117Z" fill="#F5F1EB"/>
<path fill-rule="evenodd" clip-rule="evenodd" d="M123.775 199.038C124.042 199.709 123.492 199.706 123.643 200.293C128.245 200.783 135.006 200.061 134.577 205.718C131.042 206.825 128.43 203.959 127.967 201.376C126.647 201.704 124.107 201.592 122.732 201.12C122.448 199.909 123.247 199.588 123.775 199.038ZM133.521 205.075C134.152 203.223 131.583 201.662 129.824 202.69C130.777 203.819 131.887 204.765 133.521 205.075Z" fill="#F5F1EB"/>
<path fill-rule="evenodd" clip-rule="evenodd" d="M205.518 194.844C205.461 195.925 205.274 196.91 204.255 197.202C203.719 196.639 204.148 195.431 204.277 194.719C204.835 194.583 205.214 194.664 205.518 194.844Z" fill="#F5F1EB"/>
<path fill-rule="evenodd" clip-rule="evenodd" d="M224.436 195.313C224.806 197.663 224.141 199.152 222.102 199.501C218.984 197.821 221.49 192.09 224.436 195.313Z" fill="#F5F1EB"/>
<path fill-rule="evenodd" clip-rule="evenodd" d="M78.8477 209.46C79.7026 212.533 80.7416 217.568 80.1798 221.003C79.0489 218.011 77.1442 213.256 78.1162 209.529C78.3559 209.507 78.5997 209.484 78.8477 209.46Z" fill="#F5F1EB"/>
<path fill-rule="evenodd" clip-rule="evenodd" d="M61.1764 211.61C60.7785 215.813 63.2314 219.657 64.0719 223.999C63.6695 224.42 63.1723 224.763 62.6931 225.12C58.9228 223.502 58.5792 215.077 60.7039 211.905C60.7435 211.705 60.8837 211.6 61.1764 211.61ZM62.1685 222.192C62.5409 221.273 61.3646 219.887 61.3261 218.543C60.7029 219.765 61.8724 221.169 62.1685 222.192Z" fill="#F5F1EB"/>
<path fill-rule="evenodd" clip-rule="evenodd" d="M70.6862 212.459C69.5178 214.27 72.9673 219.538 70.781 221.386C69.9787 219.01 68.0935 214.996 69.4589 212.574C69.8639 212.536 70.2812 212.497 70.6862 212.459Z" fill="#F5F1EB"/>
<path fill-rule="evenodd" clip-rule="evenodd" d="M179.706 210.679C179.182 213.497 174.163 213.543 173.239 210.535C173.601 210.076 174.215 209.831 175.169 209.862C175.788 210.204 175.616 211.513 176.557 211.471C178.574 211.327 178.435 209.393 178.156 207.347C176.47 205.825 173.152 207.341 171.206 207.257C174.284 204.341 180.767 205.017 179.706 210.679Z" fill="#F5F1EB"/>
<path fill-rule="evenodd" clip-rule="evenodd" d="M127.56 215.564C126.949 215.809 124.919 215.729 124.959 214.32C125.225 214.086 125.589 213.931 126.171 213.956C126.199 215.012 127.168 214.942 127.56 215.564Z" fill="#F5F1EB"/>
<path fill-rule="evenodd" clip-rule="evenodd" d="M158.758 228.025C156.533 228.705 153.02 231.34 150.734 229.77C153.097 229.306 156.89 225.973 158.758 228.025Z" fill="#F5F1EB"/>
<path fill-rule="evenodd" clip-rule="evenodd" d="M83.5723 238.794C83.6263 241.016 83.9642 242.886 85.7064 243.06C85.9478 241.499 84.6829 241.747 84.4964 240.692C86.2429 240.6 86.8311 241.895 87.0117 243.688C84.1555 246.483 80.2204 240.126 83.5723 238.794Z" fill="#F5F1EB"/>
<path fill-rule="evenodd" clip-rule="evenodd" d="M204.843 229.913C204.776 232.125 203.79 233.573 202.037 234.392C201.855 232.858 202.783 230.352 204.843 229.913Z" fill="#F5F1EB"/>
<path fill-rule="evenodd" clip-rule="evenodd" d="M192.631 234.777C193.574 236.79 190.843 239.806 189.31 239.058C190.214 237.593 190.963 234.862 192.631 234.777Z" fill="#F5F1EB"/>
<path fill-rule="evenodd" clip-rule="evenodd" d="M173.977 239.511C173.241 240.873 172.767 242.439 171.079 243.011C167.295 241.422 172.129 235.719 173.977 239.511Z" fill="#F5F1EB"/>
<path fill-rule="evenodd" clip-rule="evenodd" d="M110.4 252.175C110.212 254.67 104.694 254.282 103.333 253.585C104.81 252.441 108.39 251.455 110.4 252.175Z" fill="#F5F1EB"/>
<path fill-rule="evenodd" clip-rule="evenodd" d="M119.279 254.319C117.853 255.033 116.654 255.925 115.01 256.455C114.518 255.12 118.365 251.069 119.279 254.319Z" fill="#F5F1EB"/>
<path fill-rule="evenodd" clip-rule="evenodd" d="M189.612 247.474C190.046 250.235 186.285 252.535 184.191 253.199C184.908 250.388 187.16 248.846 189.612 247.474Z" fill="#F5F1EB"/>
<path fill-rule="evenodd" clip-rule="evenodd" d="M148.507 253.809C149.183 253.454 148.702 252.152 149.581 251.97C152.021 254.026 148.087 256.538 145.203 255.604C145.074 255.032 144.728 254.714 144.797 253.903C146.142 252.997 147.191 253.457 148.507 253.809Z" fill="#F5F1EB"/>
<path fill-rule="evenodd" clip-rule="evenodd" d="M85.4866 261.711C84.583 264.168 87.844 264.179 86.9271 266.538C83.8646 267.4 81.903 260.17 85.4866 261.711Z" fill="#F5F1EB"/>
<path fill-rule="evenodd" clip-rule="evenodd" d="M169.582 253.574C171.08 256.34 167.537 259.237 165.499 257.685C165.122 254.868 167.558 254.39 169.582 253.574Z" fill="#F5F1EB"/>
<path fill-rule="evenodd" clip-rule="evenodd" d="M140.114 264.778C141.763 268.493 136.902 269.741 133.861 269.584C134.811 267.043 139.34 267.469 140.114 264.778Z" fill="#F5F1EB"/>
<path fill-rule="evenodd" clip-rule="evenodd" d="M-66.1228 111.103C-65.7701 109.352 -66.079 107.567 -65.6424 105.599C-65.0067 102.729 -62.9881 100.159 -61.9816 97.0662C-61.2355 94.7528 -61.0348 92.0903 -60.1874 89.7007C-58.4696 84.8568 -55.3726 79.8711 -53.6384 74.9339C-51.6566 69.3481 -50.5 66.2123 -47.6737 61.719C-46.263 59.4684 -45.4728 56.9132 -44.1147 54.68C-40.0725 48.0377 -34.4751 41.6207 -28.5282 35.5963C-19.2585 26.1953 -10.8134 16.9801 0.411907 10.7858C8.13371 6.52966 18.9806 2.43495 28.2273 0.483508C34.5025 -0.838943 36.854 0.854466 41.7712 1.94447C58.9188 5.7403 77.0831 12.6433 91.6469 17.8699C106.158 23.068 121.3 27.3939 135.119 34.1456C142.031 37.5255 149.833 39.0162 156.726 42.2935C167.753 47.5391 178.669 52.007 189.179 57.618C192.891 59.5966 196.346 62.0289 200.23 64.2791C208.614 69.1387 217.392 73.0357 223.738 79.45C224.89 80.618 225.317 82.5045 226.364 83.6697C229.276 86.9034 232.033 88.8257 234.359 92.1102C236.522 95.1724 239.001 97.3834 240.842 100.434C241.983 102.333 242.128 104.725 243.185 106.919C244.165 108.942 245.911 109.82 246.847 111.534C250.498 118.23 249.514 127.788 250.671 136.495C251.129 139.959 252.539 144.588 251.779 148.304C250.863 152.772 249.568 156.826 249.044 161.47C248.013 170.482 245.902 179.316 242.224 186.683C237.194 196.754 233.964 206.06 225.817 212.795C227.999 216.965 224.73 218.689 223.425 221.705C220.751 227.911 218.083 233.206 213.049 238.069C209.321 241.667 206.051 245.877 202.432 249.244C195.714 255.499 188.093 259.888 179.526 264.294C169.023 269.703 158.132 274.348 146.442 279.314C138.344 282.755 130.251 285.149 121.861 287.082C113.475 289.011 103.809 287.695 96.1057 285.028C91.4783 283.427 85.9597 280.767 81.3191 278.225C76.4193 275.541 70.8493 273.711 66.7615 271.151C54.1879 263.273 42.6474 253.476 29.6456 245.835C23.1029 241.991 16.6771 237.969 9.75116 234.795C6.28013 233.211 3.0892 231.413 -0.200409 229.273C-3.51752 227.108 -7.13457 225.746 -10.3959 223.775C-19.2696 218.411 -27.0322 210.891 -35.8958 205.813C-41.8292 202.421 -47.4382 199.286 -52.7516 195.481C-58.9357 183.943 -64.4276 171.252 -66.2374 154.793C-67.599 142.536 -70.8923 127.996 -68.3226 116.763C-67.9042 114.956 -66.5578 113.266 -66.1228 111.103ZM-67.1205 121.625C-65.8123 120.06 -65.8326 117.397 -65.5053 115.019C-67.2388 116.228 -66.7163 119.31 -67.1205 121.625ZM-64.1341 108.435C-63.3987 107.607 -63.6804 105.936 -63.2295 104.877C-64.0597 105.626 -64.23 106.922 -64.1341 108.435ZM31.0812 1.70867C14.0112 5.1903 -1.76084 11.711 -11.7026 21.8588C-7.19926 20.4023 -4.45 16.0663 -0.0466537 13.8103C9.2017 9.07319 20.7229 6.3455 31.1273 2.20055C31.2556 1.96752 31.3834 1.73036 31.0812 1.70867ZM159.674 47.2335C154.315 44.8506 149.716 41.5458 143.835 39.7873C144.732 41.9674 148.398 43.5041 147.633 45.8818C145.887 42.9598 143.474 40.8636 141.68 38.0004C138.076 37.5002 135.793 35.4251 132.211 34.9188C133.056 37.5708 134.565 41.2573 137.867 42.3278C138.081 41.8239 137.515 40.8971 138.711 40.7599C140.03 41.1741 140.57 42.5329 141.451 43.4843C142.052 43.5323 141.943 42.9879 142.66 43.1208C144.443 44.5298 145.244 47.1192 147.574 47.8764C147.132 46.4501 148.503 46.53 148.852 45.7675C153.928 45.2122 156.43 47.7629 159.855 49.2015C160.406 48.5451 159.577 48.1517 159.674 47.2335ZM136.375 50.1652C135.168 49.8781 135.378 47.8903 134.6 47.1043C133.12 48.4815 135.378 52.1144 136.339 52.4037C135.75 51.554 136.155 50.9364 136.375 50.1652ZM137.092 49.852C137.331 47.728 136.268 44.8086 135.233 43.3253C134.985 43.3486 134.737 43.3718 134.489 43.3951C134.991 45.9876 136.242 47.68 137.092 49.852ZM138.795 44.2297C139.507 46.8483 142.155 49.473 143.955 51.6852C142.996 49.3733 141.433 45.4209 138.795 44.2297ZM158.587 51.5554C159.108 51.1021 156.847 49.0457 156.734 50.2406C155.613 49.1364 154.259 47.4496 152.317 48.1738C151.506 48.1498 151.571 47.0637 151.168 46.5427C150.561 46.5621 150.448 46.9981 149.987 47.1497C151.48 50.6667 156.832 54.9808 160.181 52.6443C158.556 52.8177 157.573 52.3886 157.024 50.7096C157.629 50.8947 157.877 51.501 158.587 51.5554ZM161.533 48.5521C161.794 49.6951 162.673 50.0963 163.684 50.3352C163.315 49.3274 163.044 48.181 161.533 48.5521ZM165.918 55.5839C165.578 57.509 161.229 55.9028 160.643 57.5673C162.691 57.5296 164.204 57.0415 166.033 56.8116C165.996 56.1979 166.417 56.0125 165.918 55.5839ZM166.175 53.0787C166.348 54.1593 167.741 54.8834 168.533 54.3463C168.425 53.1054 167.53 52.8099 166.175 53.0787ZM167.775 56.8984C168.899 56.8305 170.597 57.1884 171.245 56.8231C170.916 56.0159 167.862 55.4142 167.775 56.8984ZM175.749 54.6618C176.824 56.8336 179.708 56.8175 181.978 57.5512C180.337 56.0663 178.3 55.0564 175.749 54.6618ZM249.361 146.304C248.225 146.949 249.349 149.47 248.77 150.584C250.24 150.654 249.165 148.045 249.361 146.304ZM102.766 284.658C101.941 282.796 99.1476 281.945 96.8786 282.733C98.3076 284.012 100.995 283.781 102.766 284.658ZM93.1633 280.1C98.6467 280.782 103.677 282.012 108.157 283.906C106.614 284.43 105.085 284.223 103.018 284.634C107.975 285.441 116.159 286.162 123.392 284.958C133.515 283.283 143.215 278.554 152.498 275.027C158.017 272.937 163.655 270.69 168.25 268.341C170.159 267.357 171.579 265.577 173.358 264.63C174.534 264.007 175.913 264.124 176.984 263.548C178.214 262.882 179.266 261.433 180.684 260.72C182.224 259.942 184.182 259.758 185.486 259.027C186.698 258.35 187.584 256.946 188.697 256.245C203.486 247.01 215.482 234.268 222.533 220.058C222.365 217.643 223.418 216.252 223.191 213.788C214.208 213.296 210.304 217.815 204.283 221.274C199.599 223.961 192.313 223.431 186.09 225.712C185.15 226.058 185.143 227.181 184.284 227.62C182.616 228.464 180.475 227.493 178.94 228.863C175.881 238.22 163.447 235.249 153.638 236.945C145.446 238.364 140.709 244.083 133.057 245.084C123.819 246.288 112.267 243.481 106.266 239.899C104.168 238.641 102.559 236.065 100.772 234.214C95.0242 228.265 89.5525 222.548 89.7379 209.183C89.8092 203.985 91.7339 200.368 91.1759 195.396C90.4755 189.124 86.4992 181.661 86.1998 174.021C86.0476 170.307 87.4386 165.845 89.1338 163.071C93.8483 155.373 100.273 147.461 103.698 138.37C109.231 132.514 118.909 130.101 126.346 125.822C132.308 120.175 139.95 115.918 149.215 113.006C159.612 113.315 167.534 111.379 177.69 112.316C181.651 112.682 184.271 115.497 187.587 117.346C190.543 118.996 193.606 119.517 195.452 121.821C197.312 124.14 199.559 127.265 202.211 130.373C207.578 136.667 212.891 146.426 208.912 156.803C207.534 160.393 204.4 163.014 203.391 166.749C202.544 169.868 203.652 173.676 203.527 176.173C203.257 181.515 198.253 184.081 195.709 188.073C190.644 188.331 186.124 190.281 181.509 190.147C177.455 190.035 172.764 186.647 167.964 185.955C163.953 185.38 160.494 186.322 156.282 185.812C150.787 183.938 136.972 175.847 139.1 166.574C139.794 163.536 143.86 162.884 146.181 162.683C156.738 165.37 159.299 177.702 168.358 182.198C176.424 184.899 183.406 181.12 188.523 177.576C192.683 174.688 200.884 172.559 198.822 165.685C196.827 159.033 195.217 142.309 189.432 137.03C189.33 129.717 183.747 124.9 177.767 123.726C170.084 122.22 161.197 117.995 150.371 120.091C145.47 121.042 140.293 124.117 136.328 126.37C131.61 129.052 128.638 134.134 123.844 136.226C119.832 137.979 116.449 138.355 114.425 141.58C112.212 145.099 111.42 150.26 109.428 154.454C106.743 160.093 102.182 166.138 100.483 172.923C99.0997 178.44 98.7187 185.227 98.7293 191.21C98.7258 194.242 98.5124 198.857 99.4227 201.319C101.436 206.793 106.741 211.087 110.173 215.452C112.524 218.426 115.598 220.627 119.325 223.033C124.21 226.182 128.048 231.581 132.391 232.729C134.387 233.259 136.824 232.847 138.904 233.365C140.444 233.741 141.891 234.807 143.27 234.936C147.367 235.335 149.879 232.694 154.055 233.432C154.757 234.021 154.499 232.653 155.204 232.578C164.881 238.142 173.931 226.085 180.487 224.248C185.921 222.721 191.37 221.822 197.545 220.909C205.42 219.75 213.31 212.667 220.893 210.53C227.615 208.632 229.213 204.604 232.672 198.504C233.424 197.183 234.739 196.271 235.566 195.005C242.007 185.123 245.96 173.706 247.655 159.862C247.692 150.03 247.878 137.557 245.254 126.332C239.33 100.893 225.441 78.3604 206.356 68.6666C205.901 68.2965 204.884 68.6088 204.118 68.6264C195.37 62.0204 182.517 60.3736 169.9 58.4338C168.622 58.6287 170.387 59.9393 169.597 60.4471C163.859 55.9814 152.389 60.9101 145.326 60.9846C144.955 61.6867 146.454 61.3543 145.643 61.6971C127.07 69.6815 111.116 79.8302 97.3427 91.7928C91.1735 101.583 83.3271 109.979 77.4024 119.975C77.1649 120.91 77.3891 122.236 77.2108 123.225C76.3204 124.221 76.2822 122.523 75.1977 122.917C70.5687 128.68 68.0774 136.391 65.0531 144.464C62.6077 151.019 58.6483 157.566 56.7503 164.357C56.0219 166.948 56.3117 169.64 55.7382 172.149C55.242 174.327 53.2887 176.303 52.8767 178.623C51.9724 183.74 53.6862 188.859 53.7877 193.678C53.856 196.674 53.2174 199.736 53.1194 202.426C52.6864 215.64 55.9688 227.662 59.9566 238.272C66.886 256.736 80.4784 269.034 93.1633 280.1ZM112.823 225.136C108.188 224.466 104.236 231.191 105.718 236.723C111.837 241.478 120.323 243.372 130.63 243.073C131.218 241.128 130.897 239.562 130.794 236.857C126.208 233.396 120.349 226.219 112.823 225.136ZM118.256 224.877C117.889 224.031 116.589 223.332 115.976 224.34C116.356 224.98 117.265 224.978 118.256 224.877ZM97.9951 164.967C97.2309 164.864 97.3118 165.461 96.5509 165.348C94.5525 162.396 92.2609 166.368 89.2127 166.537C86.5539 171.928 88.2448 181.16 90.6396 187.007C100.444 186.512 96.7065 174.791 99.31 168.321C99.1072 166.914 98.3514 166.189 97.9951 164.967ZM101.459 162.161C105.666 157.943 107.71 151.909 108.25 144.644C106.21 144.36 103.899 143.093 101.784 144.509C100.623 150.043 94.4281 154.71 97.6216 161.028C98.8292 161.369 100.513 162.396 101.459 162.161ZM94.4724 159.097C93.0844 159.544 94.5415 160.412 94.9043 161.037C95.4642 160.605 94.8236 159.331 94.4724 159.097ZM92.1303 163.286C91.3467 163.243 91.5477 164.008 90.9762 164.137C91.2937 164.678 92.5264 164.087 92.1303 163.286ZM96.0344 207.6C97.1087 207.72 97.0324 206.906 96.8838 206.032C96.0746 206.116 96.0149 206.814 96.0344 207.6ZM96.1956 209.32C88.1295 213.817 93.8637 226.647 99.6586 230.34C103.127 230.165 104.754 227.415 106.602 224.981C110.154 220.27 108.713 217.882 105.494 213.168C101.075 213.474 101.596 207.829 96.1956 209.32ZM110.169 141.233C110.548 143.503 113.554 140.569 112.49 139.531C111.586 139.991 111.918 141.477 110.169 141.233ZM117.971 131.819C118.875 131.735 118.836 130.871 119.33 130.449C117.97 130.081 115.877 131.061 115.53 132.294C116.052 132.083 117.493 130.597 117.971 131.819ZM118.449 134.256C118.395 133.685 118.341 133.107 118.288 132.536C117.142 132.418 117.557 134.481 118.449 134.256ZM124.229 129.74C123.282 129.866 123.355 130.831 122.625 131.133C121.983 131.268 122.337 130.201 121.572 130.485C119.975 130.831 119.981 133.874 121 135.009C124.911 135.026 125.4 132.186 124.229 129.74ZM125.469 127.142C125.077 126.474 124.396 127.435 124.022 127.528C124.37 128.496 125.335 127.664 125.469 127.142ZM130.754 127.889C131.754 127.662 132.112 126.899 132.854 126.454C132.762 125.829 131.982 126.044 131.329 126.105C131.374 126.889 130.115 127.294 130.754 127.889ZM135.986 120.197C134.949 120.165 134.663 120.755 133.822 120.896C133.901 122.407 136.714 121.918 135.986 120.197ZM134.862 124.03C135.118 124.899 136.042 124.27 136.329 123.893C136.121 123.057 135.373 123.837 134.862 124.03ZM138.293 120.977C141.964 120.458 144.784 119.243 147.438 117.885C147.844 116.933 147.304 116.233 147.184 115.177C142.518 115.698 139.579 117.654 138.293 120.977ZM187.604 125.534C188.99 125.325 189.603 126.047 190.205 126.779C190.207 127.421 189.753 126.48 189.226 126.871C189.226 128.076 190.696 128.589 189.994 129.776C189.314 129.59 189.092 128.86 188.62 128.416C188.253 129.873 189.884 131.271 190.272 132.727C191.47 132.135 191.995 130.981 192.747 130.014C192.417 128.673 191.013 128.626 190.519 127.492C190.818 126.688 191.653 128.119 191.993 127.354C191.325 125.152 189.699 124.095 188.559 122.463C188.664 122.258 188.778 122.043 188.737 121.704C190.107 121.146 189.761 122.659 190.797 122.504C190.448 121.54 191.075 121.377 191.398 120.959C188.411 116.623 188.4 124.78 185.08 125.025C185.576 126.621 187.172 126.884 187.862 128.237C188.574 127.337 186.964 126.491 187.604 125.534ZM184.127 183.701C185.765 185.111 189.93 184.587 190.36 186.59C196.996 185.438 200.283 181.502 201.239 175.641C200.391 174.857 200.017 176.523 199.272 175.825C198.768 175.339 198.844 174.147 198.321 173.684C191.813 176.3 188.108 181.251 181.66 183.932C182.336 185.095 183.466 184.292 184.127 183.701ZM183.986 187.434C184.725 187.364 185.456 187.296 186.2 187.226C186.143 186.389 183.707 186.238 183.986 187.434ZM202.59 163.597C202.99 162.296 201.078 161.658 199.901 161.368C199.947 161.86 199.994 162.356 200.039 162.843C201.612 162.229 201.604 163.518 202.59 163.597ZM203.701 159.523C203.626 159.788 203.863 160.308 203.801 160.589C203.719 160.643 203.655 160.72 203.568 160.774C203.714 160.772 203.777 160.696 203.801 160.589C211.048 155.623 208.568 136.995 201.393 132.185C200.6 132.134 200.562 132.709 199.685 132.599C199.166 132.218 199.444 130.879 198.764 130.697C187.032 130.363 194.803 141.397 196.734 148.755C198.247 154.53 199.941 158.549 203.701 159.523ZM195.711 127.259C194.715 124.993 193.255 123.291 190.825 122.755C192.087 124.697 193.364 126.629 195.711 127.259ZM185.856 122.721C188.248 113.627 171.999 111.153 166.203 116.875C172.26 119.409 178.386 121.883 185.856 122.721ZM167.851 113.239C166.448 113.087 164.832 113.059 164.469 114.306C165.175 115.204 167.532 114.111 167.851 113.239ZM180.266 184.805C179.618 184.39 178.272 184.834 177.285 184.839C177.906 185.552 178.943 185.759 180.11 185.812C180.276 185.576 180.319 185.234 180.266 184.805ZM172.545 184.537C171.819 183.679 170.814 183.148 169.213 183.357C169.901 184.159 171.762 185.557 172.545 184.537ZM146.829 164.361C144.189 163.808 140.489 164.893 140.416 167.443C140.218 174.546 152.05 185.85 159.947 182.491C160.307 173.029 149.668 170.854 146.829 164.361ZM137.373 63.4736C134.062 63.1545 130.855 64.8772 128.158 65.8223C128.331 69.2212 123.266 68.2827 122.962 71.2801C127.636 68.5692 132.657 66.1426 137.373 63.4736ZM115.374 69.7567C115.946 69.6239 116.368 69.3675 116.808 69.1261C116.823 67.3733 115.654 67.0493 115.254 65.7984C113.899 66.5468 114.561 68.8615 115.374 69.7567ZM112.976 73.2092C113.176 73.9619 113.32 74.7948 113.676 75.3786C114.66 74.7568 115.666 74.1495 115.927 72.9325C114.47 73.0024 113.815 71.7544 112.976 73.2092ZM117.498 68.5652C118.367 68.6838 118.409 68.1127 119.198 68.1556C118.347 65.8918 117.636 63.4608 115.473 62.7964C114.854 65.4022 116.996 66.4648 117.498 68.5652ZM116.257 71.1626C116.157 71.6098 116.69 72.5815 116.147 72.6616C117.708 72.6695 118.855 70.3727 120.586 69.7641C119.257 68.567 117.593 70.8706 116.257 71.1626ZM116.134 75.148C117.982 75.0165 119.669 72.7858 122.076 72.3557C122.048 71.7495 121.994 71.1667 121.689 70.9033C119.259 71.836 118.257 73.9524 116.134 75.148ZM107.019 81.2153C109.673 80.0865 111.039 77.8902 113.005 76.1879C110.278 73.7333 108.905 79.4956 107.019 81.2153ZM110.501 62.7706C106.29 62.0981 102.03 65.2623 102.763 70.1932C107.733 70.6027 108.997 65.9849 110.501 62.7706ZM94.1915 92.5971C91.6622 96.0326 87.4091 99.2253 86.7692 103.472C89.7591 100.414 92.7873 96.2064 94.1915 92.5971ZM85.1273 104.368C84.0369 104.833 83.4965 105.739 83.3825 107.013C84.1026 107.179 85.8856 105.431 85.1273 104.368ZM82.3991 107.105C81.9961 107.076 81.9996 107.38 81.6826 107.422C81.3361 107.818 81.5859 108.703 81.6194 109.417C82.586 109.277 82.6524 107.54 82.3991 107.105ZM80.8606 109.238C79.16 111.02 76.6962 113.332 77.3009 116.269C78.6237 115.928 78.3105 114.231 78.4722 112.932C79.7153 112.807 80.4625 111.573 81.2191 110.439C81.3648 109.725 80.821 109.838 80.8606 109.238ZM76.12 116.88C75.1124 118.538 73.5359 119.733 73.3868 122.099C74.3675 120.51 76.9945 119.271 76.12 116.88ZM72.473 122.935C72.0597 123.195 71.6602 123.47 71.8442 124.232C72.5896 124.179 73.0245 123.392 72.473 122.935ZM64.3261 139.332C63.5511 139.959 62.5982 141.445 63.1316 142.421C64.237 141.984 64.2885 140.666 64.3261 139.332ZM60.8605 139.407C60.6126 139.43 60.3687 139.453 60.1248 139.476C59.8204 140.363 60.1163 141.741 60.1997 142.942C61.4985 142.299 61.6565 140.65 60.8605 139.407ZM55.5099 161.755C57.4565 159.662 57.7304 156.18 58.4202 153.042C56.7546 155.375 56.1231 158.557 55.5099 161.755ZM57.5495 146.422C57.1421 146.39 57.1417 146.698 56.8289 146.74C56.7818 147.529 57.2705 147.67 57.4632 148.169C57.8029 147.791 58.0418 146.827 57.5495 146.422ZM48.477 158.194C48.8856 159.44 49.4915 160.434 50.0313 161.522C51.1266 160.844 51.8595 159.858 52.5033 158.809C52.4776 157.289 51.771 156.601 51.2198 155.702C50.2194 156.459 49.0525 157.085 48.477 158.194ZM50.6168 154.516C49.7813 154.586 49.6004 155.191 49.23 155.643C49.65 156.12 50.7305 155.239 50.6168 154.516ZM43.5446 208.795C45.3513 208.101 44.3351 205.798 43.1991 205.108C41.6625 205.749 42.5854 208.168 43.5446 208.795ZM40.6148 201.377C39.4291 201.98 38.9241 201.352 38.3118 200.6C38.3154 202.418 40.4218 204.076 41.2781 205.785C43.3166 204.538 41.5399 202.662 40.6148 201.377ZM46.8509 238.771C48.6523 238.243 47.0661 235.953 46.5045 235.076C46.0873 235.34 45.7876 235.702 45.6093 236.156C45.8371 237.252 46.2711 238.1 46.8509 238.771ZM46.9585 245.212C47.0962 244.502 46.5475 244.608 46.595 244.003C45.6175 243.936 46.3392 245.499 46.9585 245.212ZM53.8584 234.144C54.4519 228.647 50.0234 222.987 46.4996 219.193C45.3606 220.251 47.2203 221.811 47.3607 223.086C47.9758 223.066 48.0892 222.63 48.5416 222.475C48.1787 226.521 51.9432 227.589 53.0434 230.743C51.6961 230.823 51.6884 229.273 50.8687 228.712C49.6834 231.054 52.8812 232.614 53.8584 234.144ZM52.3237 236.273C52.3488 235.695 52.1937 235.33 51.9561 235.065C51.2311 235.158 51.4367 236.594 52.3237 236.273ZM52.849 162.496C50.4172 162.349 51.9214 165.631 51.8165 167.313C50.4803 167.735 50.7547 166.216 49.5092 166.537C48.9038 167.995 50.4136 169.025 50.8388 170.136C53.0062 168.132 53.2818 163.423 53.6795 160.684C52.5292 160.554 52.2185 161.863 52.849 162.496ZM53.569 156.97C53.5599 155.983 53.4154 155.154 52.8782 154.804C51.7976 155.106 52.8448 157.072 53.569 156.97ZM50.3232 193.765C50.4806 192.908 50.4808 191.932 50.5653 191.011C50.3959 191.027 50.2307 191.043 50.0694 191.058C48.8308 191.274 48.9938 193.769 50.3232 193.765ZM48.6605 183.989C47.7421 184.375 48.9501 185.121 47.7966 185.312C47.9592 185.668 48.2185 185.898 48.381 186.254C48.4387 185.49 49.1874 184.54 48.6605 183.989ZM48.7192 195.154C48.793 194.784 49.0388 195.228 49.4507 195.086C49.5027 194.484 48.963 194.597 49.096 193.88C47.3001 194.557 46.9496 196.688 48.2566 198.179C49.3124 198.147 49.442 197.351 49.8606 196.79C49.9405 195.686 48.9722 195.852 48.7192 195.154ZM49.4935 200.79C47.5568 201.164 47.2591 204.215 48.9022 205.065C49.3433 205.057 49.3908 204.719 49.8628 204.729C50.2292 203.79 49.8817 201.684 49.4935 200.79ZM49.8384 212.429C50.3559 211.901 50.2684 210.879 49.8828 210.19C48.9178 210.702 49.3302 211.722 49.8384 212.429ZM49.3696 212.719C46.2298 214.135 49.9647 217.334 51.1547 218.51C51.1558 215.854 50.3638 214.165 49.3696 212.719ZM47.6753 215.86C45.0482 218.875 50.155 221.898 51.6852 224.169C52.2787 220.227 49.6895 218.135 47.6753 215.86ZM46.934 213.198C49.4554 211.589 46.4318 209.709 45.7098 208.1C43.4389 209.535 45.7539 212.083 46.934 213.198ZM48.6203 210.062C48.8062 208.844 49.3599 208.659 48.8623 207.308C47.916 207.13 48.2168 207.982 47.4328 207.934C46.8811 207.386 48.2264 206.484 48.2044 205.627C47.4948 205.573 47.7326 204.374 46.6372 204.786C45.3423 206.892 47.0947 209.042 48.6203 210.062ZM46.6274 202.055C48.2339 201.183 48.4967 198.694 46.9558 197.555C45.8853 197.876 46.122 199.288 45.4403 199.932C45.8922 200.573 46.2581 201.319 46.6274 202.055ZM46.2106 194.897C48.4437 193.771 47.4749 191.264 46.2179 189.684C44.9416 189.988 45.2069 191.572 44.4774 192.329C44.848 193.436 45.5704 194.115 46.2106 194.897ZM48.5942 191.196C48.7286 189.295 47.5039 189.038 46.8149 188.136C46.0045 188.875 47.5967 190.873 48.5942 191.196ZM47.7796 187.799C47.7853 187.148 47.5854 186.75 46.9473 186.88C46.9416 187.532 47.1337 187.935 47.7796 187.799ZM46.6706 183.929C47.4547 183.977 47.2571 183.203 47.8332 183.078C47.5715 182.11 47.0672 181.444 46.619 180.711C46.3712 180.734 46.1232 180.757 45.8753 180.78C45.2955 182.111 46.2772 182.978 46.6706 183.929ZM48.1317 181.061C48.938 180.368 49.0073 179.061 49.6098 178.195C49.4729 177.445 48.9688 177.138 48.7048 176.545C47.3528 177.377 46.6238 179.739 48.1317 181.061ZM50.2333 171.682C49.7086 170.576 49.1096 169.569 48.6868 168.349C45.9552 169.627 47.648 172.12 48.2068 173.857C49.1245 173.329 49.7126 172.531 50.2333 171.682ZM51.1155 173.088C50.4294 172.973 50.6653 173.622 50.1777 173.668C50.0704 174.437 50.5183 174.545 50.5598 175.12C50.5782 175.673 49.9101 174.86 49.3365 175.235C49.53 176.276 49.9415 177.063 50.5469 177.607C51.7568 176.639 51.9271 174.542 51.1155 173.088ZM50.1901 179.137C49.9422 179.161 49.7066 179.183 49.4587 179.206C49.566 180.751 48.7185 182.561 49.8737 183.633C50.7626 182.887 50.7896 180.374 50.1901 179.137ZM53.5278 235.91C53.9764 236.56 53.9299 237.798 54.9479 237.761C54.9715 236.546 54.4553 235.977 53.5278 235.91ZM53.5707 241.614C52.9249 242.063 53.6842 243.092 53.9719 243.315C54.6185 242.875 53.8543 241.838 53.5707 241.614ZM50.6869 234.688C52.2354 233.775 50.1849 232.179 49.8453 231.047C49.0446 230.909 49.1252 231.502 48.6642 231.654C48.7502 233.372 49.8253 233.901 50.6869 234.688ZM51.3217 246.796C51.9361 246.546 52.3069 246.099 52.4418 245.448C52.0723 244.707 51.5003 244.21 50.576 244.134C50.0405 245.048 50.8107 246.281 51.3217 246.796ZM48.3298 233.424C47.1056 233.973 48.767 235.33 49.0521 235.837C49.8182 234.894 48.4751 234.174 48.3298 233.424ZM48.837 238.835C48.1154 238.919 47.9723 239.483 47.7019 239.934C48.1204 241.062 48.2969 242.501 49.4497 242.747C49.9467 241.779 49.3402 240.289 48.837 238.835ZM47.2436 229.798C47.7463 228.446 46.3145 227.846 45.7438 226.962C45.5307 227.09 45.318 227.223 45.2981 227.5C45.5069 228.794 46.357 229.323 47.2436 229.798ZM47.4857 227.044C47.8569 225.446 46.5213 223.695 45.8202 222.484C43.8896 223.77 45.88 226.769 47.4857 227.044ZM46.0208 216.753C47.3934 214.631 45.5814 212.912 44.5338 211.43C42.0881 212.735 44.6391 215.978 46.0208 216.753ZM44.9602 205.439C46.3072 205 46.8248 202.116 45.1103 201.706C43.7835 202.36 43.3924 204.769 44.9602 205.439ZM44.5622 198.525C46.4524 197.343 45.5738 195.22 44.3722 193.831C43.0093 193.834 43.3731 195.268 42.8372 195.956C43.3495 196.884 43.8927 197.788 44.5622 198.525ZM43.2774 192.691C42.6518 190.598 40.3106 189.104 40.0095 192.251C40.6568 193.108 41.2644 194.031 41.9861 194.793C43.1041 194.667 42.6981 193.271 43.2774 192.691ZM43.3975 191.438C44.4972 190.984 44.5799 189.688 45.1377 188.789C44.839 187.871 44.2635 187.291 43.9278 186.421C42.4117 186.526 42.7532 188.166 41.9247 188.844C42.149 190.037 43.0132 190.452 43.3975 191.438ZM45.22 187.042C47.1159 186.544 46.0006 184.163 45.1264 183.332C43.8581 184.21 44.4694 186.062 45.22 187.042ZM44.6205 180.648C46.6649 179.243 44.2014 177.289 43.6756 175.77C42.8958 176.035 42.446 176.574 42.3302 177.385C43.2639 178.273 43.83 179.596 44.6205 180.648ZM46.0945 177.783C47.1888 177.405 47.1884 176.112 47.8533 175.378C47.4571 174.219 46.8843 173.268 46.3265 172.298C45.2535 172.77 44.7501 173.714 44.3193 174.722C44.7983 175.873 45.5735 176.672 46.0945 177.783ZM45.8477 169.858C46.8675 169.22 47.97 167.595 47.5188 166.474C46.3177 166.691 45.708 167.39 45.1985 168.18C45.2413 168.947 45.6064 169.33 45.8477 169.858ZM47.5783 164.483C50.1914 163.675 48.6587 160.266 47.5437 158.778C46.2801 158.951 46.0868 160.003 45.4903 160.709C45.8871 162.319 46.9302 163.172 47.5783 164.483ZM53.0851 151.808C52.1266 151.989 52.0503 152.909 51.5039 153.44C51.866 154.411 54.1014 152.688 53.0851 151.808ZM53.3272 149.054C53.8568 148.699 55.1259 147.43 53.8779 147.013C53.8455 146.578 55.08 147.296 55.334 146.626C54.8207 143.684 53.0303 142.285 52.2019 139.719C52.2419 142.725 52.5392 146.296 53.3272 149.054ZM54.3166 151.692C55.544 151.489 56.1168 150.752 56.9075 150.202C56.3698 149.848 56.7497 148.386 56.208 148.033C54.9787 148.794 53.7792 150.141 54.3166 151.692ZM54.9005 152.63C54.8807 153.486 55.1251 154.001 55.3333 154.578C55.9991 153.986 56.6207 153.369 56.6009 152.224C55.999 151.718 55.3706 152.352 54.9005 152.63ZM59.433 259.191C59.5697 258.382 58.9729 258.463 58.8216 258.006C58.5098 258.193 58.4162 258.573 58.4218 259.031C58.6631 259.205 59.0044 259.244 59.433 259.191ZM57.8422 258.097C58.2093 257.567 57.7921 257.785 57.7496 257.11C57.4975 257.133 57.2536 257.156 57.014 257.179C57.0041 257.83 57.2 258.229 57.8422 258.097ZM57.7903 254.875C57.776 254.634 58.0696 254.653 58.2547 254.581C58.3335 252.176 55.5428 251.579 55.7261 254.068C56.613 254.101 56.9449 254.796 57.7903 254.875ZM56.2165 251.295C55.4724 251.673 54.5904 251.914 54.8945 253.157C55.6266 252.784 56.2088 252.279 56.2165 251.295ZM55.3343 249.889C54.9449 248.624 54.0205 248.015 53.3389 247.103C52.6875 247.314 52.2317 247.699 51.9559 248.225C52.4765 249.331 52.9521 250.492 53.506 251.553C54.3697 251.205 54.7862 250.49 55.3343 249.889ZM52.6106 252.629C52.2926 251.638 51.6981 250.989 51.1482 250.281C50.556 250.545 50.4561 251.214 50.0363 251.628C50.2183 252.591 50.9595 252.893 51.4481 253.481C52.2399 253.523 52.0432 252.758 52.6106 252.629ZM52.1155 257.888C51.468 257.294 51.0011 256.496 49.9828 256.349C49.5877 257.116 51.5894 258.234 52.1155 257.888ZM50.5724 249.343C49.7956 249.462 49.1176 249.654 49.1811 250.466C49.8747 250.972 50.5551 250.091 50.5724 249.343ZM49.2446 248.475C49.7221 247.921 49.0828 247.506 48.8541 247.023C47.7182 246.913 48.0611 249.057 49.2446 248.475ZM48.166 252.8C48.4158 252.485 48.361 251.902 48.2711 251.298C47.6856 251.277 47.2096 250.913 46.8 251.436C47.199 251.957 47.4257 252.686 48.166 252.8ZM45.8979 233.898C45.1121 234.01 44.868 234.562 45.0524 235.462C45.4823 235.067 46.088 234.814 45.8979 233.898ZM29.1875 219.824C30.1971 218.854 31.4501 218.837 32.4494 217.534C32.3471 216.442 30.7689 216.061 31.4518 214.896C32.4023 214.94 32.7195 215.744 33.0929 216.481C34.5592 216.114 34.8044 214.727 36.3736 214.434C36.7704 215.598 37.5149 216.337 38.1255 217.247C37.0631 217.343 37.1018 216.109 36.0389 216.2C35.5429 217.002 34.9742 217.739 34.5238 218.582C34.7537 220.678 36.0135 221.532 36.4598 223.358C37.868 222.638 38.7426 221.472 39.9196 220.552C39.7666 219.366 38.6594 219.34 38.6863 217.937C39.7605 217.924 39.8641 219.073 40.3381 219.771C41.2882 219.945 40.9874 219.093 41.7714 219.14C42.1074 220.101 41.1053 219.949 41.4413 220.91C42.2166 221.709 42.9502 222.553 43.6662 223.433C44.4162 222.849 44.6176 221.796 44.3731 220.389C41.1814 217.115 38.6867 213.004 35.4395 209.806C32.5263 211.86 29.9603 214.193 27.919 216.966C28.522 217.706 28.7725 218.867 29.1875 219.824ZM27.0172 217.797C26.2133 218.114 25.8748 218.817 25.4328 219.438C26.0968 220.385 26.02 221.923 26.781 223.282C27.8339 222.862 28.2141 221.892 28.8113 221.102C28.6724 219.443 27.5901 218.928 27.0172 217.797ZM31.2969 221.115C31.9141 221.028 32.2141 220.671 32.1842 220.04C31.3459 219.947 31.322 220.537 31.2969 221.115ZM35.2365 223.473C35.1436 221.859 34.1887 221.278 33.6947 220.144C33.2278 221.789 32.186 224.639 33.5279 226.368C34.0222 226.172 34.2683 225.774 34.6855 225.509C34.6614 224.452 34.1943 223.917 33.7425 223.367C34.154 222.286 35.1033 224.232 35.2365 223.473ZM43.3859 225.69C44.2098 225.096 43.4615 224.674 43.2247 223.97C42.1262 224.082 43.3017 225.281 43.3859 225.69ZM42.8352 227.731C42.0429 228.706 40.0983 229.797 41.2142 231.606C41.9875 231.717 41.6221 230.888 42.3958 231.003C43.3832 231.353 43.3082 232.999 44.1204 233.569C44.9884 233.533 44.8525 232.662 45.5072 232.442C44.7268 230.743 43.3838 229.714 42.8352 227.731ZM42.0936 235.74C41.8447 234.775 41.3326 234.114 40.8837 233.372C40.4467 234.093 41.2145 235.701 42.0936 235.74ZM40.794 240.332C42.0008 240.131 42.4538 239.004 41.5889 238.272C40.9978 238.815 40.1163 239.373 40.794 240.332ZM46.3519 254.705C47.504 254.322 46.1882 252.781 45.5237 253.786C45.6495 254.283 46.2347 254.211 46.3519 254.705ZM45.3009 246.118C45.7599 245.545 44.9448 244.187 44.1366 244.238C44.2738 245.167 45.0173 245.36 45.3009 246.118ZM41.7247 231.804C41.1011 232.668 42.5947 233.303 42.6991 234.194C43.2257 233.453 41.9231 232.586 41.7247 231.804ZM43.4792 242.561C43.4394 241.514 43.0887 240.842 42.7527 240.148C42.0708 240.032 42.3071 240.686 41.8195 240.732C41.995 241.803 42.0989 242.957 43.4792 242.561ZM42.4828 245.139C41.6708 245.149 41.3239 245.54 41.3435 246.239C42.2862 246.334 42.516 245.849 42.4828 245.139ZM40.2212 244.851C41.0053 244.899 41.1475 244.414 41.6505 244.221C41.7943 243.219 40.8414 243.55 40.9975 242.547C39.9772 242.781 39.9014 244.151 40.2212 244.851ZM39.3739 238.48C40.1268 238.418 40.2838 237.869 40.7881 237.601C40.6312 236.327 40.3058 235.257 39.5239 234.742C37.8784 235.334 38.5537 237.468 39.3739 238.48ZM38.2668 226.67C38.9684 226.417 38.7981 225.445 39.902 225.525C40.8448 225.666 40.4054 227.471 40.6663 228.43C41.4212 228.301 41.5565 227.655 42.0493 227.308C41.6615 225.305 39.8742 225.006 39.198 223.351C38.0233 223.362 38.0063 224.335 37.3423 224.768C37.731 225.311 37.8865 226.126 38.2668 226.67ZM37.722 231.442C37.556 229.981 36.6887 229.224 35.7866 229.384C36.1554 228.649 36.4275 227.193 35.5327 226.677C32.7966 227.817 35.7935 230.614 36.3344 232.56C37.2785 232.58 37.4138 231.934 37.722 231.442ZM35.8755 235.581C34.909 235.454 35.0557 236.262 34.4733 236.454C34.7226 237.156 35.1858 237.605 35.6144 238.086C37.1145 237.858 36.1499 236.551 35.8755 235.581ZM35.4266 241.331C35.8313 241.068 35.9783 240.412 35.5636 240.08C34.9296 240.164 35.0665 241.048 35.4266 241.331ZM35.4192 246.544C35.9072 245.835 36.6836 246.78 37.115 246.135C36.8208 245.575 36.5722 244.968 35.5517 245.289C35.7066 245.875 35.1516 245.869 35.4192 246.544ZM34.0526 239.971C35.3662 239.665 34.3854 238.185 33.8449 237.756C32.6576 238.076 34.0894 239.297 34.0526 239.971ZM33.8897 235.521C34.6688 235.56 34.4807 234.798 35.0564 234.669C34.6645 232.579 33.2615 231.71 32.1738 230.469C30.5086 232.139 32.81 234.588 33.8897 235.521ZM29.7121 222.752C28.4568 222.924 28.2635 223.977 27.6628 224.684C28.2904 226.042 28.663 228.326 29.8664 229.689C32.2814 228.103 30.074 224.345 29.7121 222.752ZM29.3342 231.974C28.8163 231.918 28.7055 232.204 28.3785 232.318C28.3345 233.094 28.6961 233.393 29.4497 233.206C29.4109 232.793 29.373 232.387 29.3342 231.974ZM30.1286 243.071C30.6656 242.307 29.7903 240.93 28.7081 241.215C29.0972 241.942 29.6728 242.434 30.1286 243.071ZM27.2979 231.419C27.913 231.399 28.026 230.958 28.4873 230.811C27.2241 229.253 27.5613 227.424 26.7442 225.512C25.4849 226.13 25.0887 227.464 24.0245 228.252C24.7974 229.693 26.1992 230.371 27.2979 231.419ZM17.9522 224.356C17.957 223.25 17.161 223.121 16.788 222.476C16.4075 222.954 16.9343 224.66 17.9522 224.356ZM16.875 231.408C17.4608 231.432 17.8173 231.278 18.0831 231.045C18.0788 230.599 17.7371 230.556 17.7429 230.084C16.831 230.007 16.8196 230.684 16.875 231.408ZM18.2056 227.059C19.2543 227.173 19.1189 226.306 19.5891 225.941C19.4717 225.623 19.1225 225.589 19.0275 225.243C17.7174 225.32 17.8564 226.091 18.2056 227.059ZM17.5268 217.194C17.1102 215.42 16.4354 213.957 15.8387 212.395C14.4618 212.916 13.6862 213.935 13.1146 215.131C13.9547 216.399 15.0378 217.369 15.9232 218.587C16.7897 218.402 17.2126 217.845 17.5268 217.194ZM17.0177 219.723C17.363 221.317 18.5206 221.926 19.312 222.986C20.613 221.7 18.5107 219.996 18.4049 218.601C17.4654 218.585 17.3301 219.231 17.0177 219.723ZM20.6676 221.616C22.3979 221.308 22.926 220.003 23.9064 219.077C23.7855 217.12 22.4816 216.596 22.4851 214.498C20.5088 214.896 20.1741 216.663 19.071 217.792C19.4993 219.203 20.1847 220.289 20.6676 221.616ZM21.5461 223.026C22.3034 224.256 22.1048 225.605 23.1465 226.846C26.2268 225.819 26.4069 222.804 24.5178 220.262C23.4564 221.125 22.2324 221.853 21.5461 223.026ZM23.9249 232.481C23.9177 231.027 22.7842 230.941 22.4442 229.893C21.6606 229.85 21.8533 230.616 21.282 230.749C21.875 231.56 23.128 232.786 23.9249 232.481ZM19.6868 229.652C20.7771 229.72 21.0093 229.085 21.3139 228.511C21.0381 227.302 19.8926 226.421 18.9878 227.486C18.9786 228.5 19.3668 229.039 19.6868 229.652ZM18.898 234.446C19.6918 233.929 18.8506 233.095 18.6904 232.23C18.5041 232.377 18.3139 232.528 17.9739 232.548C17.916 233.621 18.5286 233.884 18.898 234.446ZM18.0529 236.014C17.9756 235.279 17.3382 235.238 17.1707 234.608C16.5589 235.107 17.3267 236.228 18.0529 236.014ZM16.7134 229.684C16.8583 228.874 16.0292 229.236 15.8814 228.77C15.3638 228.985 16.0023 230.06 16.7134 229.684ZM15.3705 228.568C15.5742 227.76 15.997 227.112 16.9554 226.93C16.4232 225.834 14.1957 227.552 15.3705 228.568ZM13.6141 225.751C14.8142 225.968 15.0143 226.191 16.0729 225.52C16.0194 224.95 15.9656 224.375 15.9117 223.801C14.6426 224.049 14.5769 222.859 14.0309 222.238C12.036 222.259 13.4408 224.525 13.6141 225.751ZM13.1762 221.08C12.5157 219.77 11.5861 218.794 11.0836 217.302C10.2828 217.165 10.36 217.766 9.89824 217.91C10.0419 219.931 11.4401 220.438 12.0181 221.935C12.8017 221.978 12.6088 221.208 13.1762 221.08ZM12.2228 216.203C11.9302 216.193 11.7899 216.298 11.7544 216.497C11.8506 217.656 12.3627 218.317 12.9685 218.865C13.5813 218.019 12.6755 216.674 12.2228 216.203ZM12.687 229.07C11.7412 227.386 11.2548 226.11 11.2648 224.483C10.3493 224.41 9.96656 224.775 9.58805 225.14C10.4064 226.711 11.0709 228.462 12.687 229.07ZM6.68257 210.022C6.27888 209.985 6.28321 210.297 5.96657 210.343C6.95917 212.794 7.70121 215.551 9.56265 216.953C10.4205 214.542 7.55624 212.137 6.68257 210.022ZM11.1208 230.951C11.2507 229.98 10.4395 230.131 10.2432 229.549C9.63095 230.044 10.3992 231.169 11.1208 230.951ZM8.26851 224.272C11.5348 223.761 8.97083 221.224 8.12392 220.061C7.31486 219.924 7.38765 220.522 6.9345 220.669C7.59599 222.166 7.33662 223.091 8.26851 224.272ZM7.96312 218.346C7.12277 215.785 5.27993 214.448 4.38534 211.976C3.51623 211.866 3.3654 212.347 2.95203 212.607C3.68262 215.286 5.78431 216.315 6.97553 218.438C6.04379 218.638 6.36849 217.344 5.18662 217.856C5.37157 218.539 5.87976 218.846 6.08381 219.51C6.89105 219.272 7.2105 218.633 7.96312 218.346ZM2.82495 205.914C1.86997 206.266 2.73993 207.631 3.47408 207.592C3.37141 206.896 2.92763 206.609 2.82495 205.914ZM6.30194 200.625C5.04542 200.651 3.43177 202.337 3.12805 203.9C4.91236 203.412 5.20957 201.691 6.30194 200.625ZM-0.285578 207.198C0.436051 207.113 1.09483 206.981 0.857845 206.098C0.0462054 206.112 -0.305219 206.499 -0.285578 207.198ZM-1.79505 201.635C-2.07994 201.62 -2.23217 201.73 -2.26806 201.925C-2.36335 202.777 -1.56965 204.662 -0.492882 204.986C0.0778899 203.648 -1.59525 202.921 -1.79505 201.635ZM0.298481 208.135C0.459932 209.68 1.29464 210.402 1.63249 211.738C2.19501 211.602 2.61707 211.346 3.05343 211.109C2.96261 209.295 2.14268 208.375 1.45267 207.285C0.681842 207.245 0.874182 208.006 0.298481 208.135ZM1.83283 219.167C2.51315 219.887 2.62245 221.319 4.00307 221.194C3.64444 220.081 2.79066 219.556 1.83283 219.167ZM4.34739 222.154C4.3186 222.737 4.47742 223.097 4.70625 223.359C5.43615 223.274 5.22617 221.834 4.34739 222.154ZM6.74111 231.858C5.76557 230.39 2.75547 229.009 0.893907 227.695C1.18333 228.914 4.86017 230.738 6.74111 231.858ZM1.648 217.195C2.08757 216.37 0.727874 215.384 0.627515 214.313C0.049487 214.284 -0.315313 214.439 -0.576558 214.677C-0.142112 215.887 1.04464 216.184 1.648 217.195ZM-0.223572 213.151C-0.623273 212.267 -1.16608 211.546 -1.46092 210.535C-2.56067 210.455 -2.39439 211.428 -3.08735 211.685C-2.83047 212.557 -2.11269 212.878 -1.89624 213.808C-1.1298 213.757 -0.751231 213.392 -0.223572 213.151ZM-3.34384 201.034C-4.2819 200.855 -4.08885 201.625 -4.50634 201.885C-4.27258 203.89 -2.97178 204.602 -2.36764 206.155C-1.21626 204.696 -3.51762 203.093 -3.34384 201.034ZM-7.5797 206.143C-8.26169 206.028 -8.02576 206.677 -8.51675 206.731C-8.08501 208.313 -7.31285 209.479 -5.98309 209.967C-6.21208 208.325 -7.27168 207.695 -7.5797 206.143ZM-8.92062 197.087C-9.61088 196.972 -9.37044 197.625 -9.85768 197.675C-9.35465 199.617 -8.52909 201.174 -7.87923 202.948C-6.0097 201.501 -8.52866 199.089 -8.92062 197.087ZM-4.84384 208.868C-4.06022 208.911 -3.91394 208.426 -3.41469 208.238C-3.91462 206.195 -4.51944 204.28 -6.31551 203.798C-7.43189 205.541 -5.61534 207.664 -4.84384 208.868ZM-3.67596 210.743C-2.70149 210.643 -2.25621 210.101 -2.33487 209.129C-3.30483 209.232 -3.75011 209.774 -3.67596 210.743ZM-1.68305 218.75C-1.30418 217.722 -2.60773 216.668 -2.96236 215.643C-3.57745 215.663 -3.68633 216.102 -4.14774 216.25C-3.40556 217.185 -3.1772 218.732 -1.68305 218.75ZM-3.33273 219.651C-4.43534 218.695 -4.39912 216.369 -6.36681 216.458C-5.81472 218.078 -5.08025 219.465 -3.33273 219.651ZM-7.69052 215.59C-6.21652 215.393 -6.97139 213.834 -7.65028 213.351C-7.83624 213.502 -8.0225 213.649 -8.36252 213.668C-8.41725 214.641 -8.01815 215.074 -7.69052 215.59ZM-8.28156 219.869C-8.61101 218.712 -9.43356 218.164 -10.6814 218.105C-10.3215 219.231 -9.35961 219.62 -8.28156 219.869ZM-9.35611 211.03C-10.0235 211.426 -9.05921 212.107 -8.96985 212.482C-8.29794 212.09 -9.26261 211.405 -9.35611 211.03ZM-9.90984 205.123C-7.49819 203.633 -11.1773 201.831 -11.153 199.777C-12.0762 199.847 -12.525 200.306 -12.7803 200.918C-12.1533 202.715 -11.1402 204.05 -9.90984 205.123ZM-13.7126 212.185C-12.456 212.159 -13.1626 210.449 -14.0993 210.728C-14.1978 211.501 -13.7589 211.601 -13.7126 212.185ZM-12.9006 207.639C-12.9666 206.623 -13.115 205.707 -14.069 205.759C-14.55 206.542 -13.7346 207.592 -12.9006 207.639ZM-14.6028 205.313C-14.6226 204.702 -15.0624 204.589 -15.2099 204.127C-16.0276 204.3 -15.364 205.464 -14.6028 205.313ZM-16.4296 199.034C-16.8366 199.005 -16.8376 199.305 -17.1501 199.351C-16.9459 200.462 -16.111 200.83 -15.6922 201.696C-14.6601 201.099 -16.2049 199.83 -16.4296 199.034ZM-17.7788 200.649C-18.3228 201.517 -17.4993 203.054 -16.3356 202.749C-16.5669 201.749 -17.3258 201.39 -17.7788 200.649ZM-17.5152 206.087C-18.1587 206.381 -18.4896 206.941 -19.1378 207.231C-18.8242 208.219 -18.2257 208.868 -17.2381 209.042C-17.1347 208.678 -16.9015 208.406 -16.5635 208.232C-16.4426 206.987 -17.2053 206.812 -17.5152 206.087ZM-20.9448 193.248C-21.0143 194.597 -19.8955 196.436 -18.6038 197.007C-17.9431 195.873 -19.2735 193.287 -20.9448 193.248ZM-15.8353 213.376C-16.7832 212.694 -16.892 210.999 -18.521 211.143C-17.6444 211.912 -17.012 212.966 -15.8353 213.376ZM-17.1914 214.742C-17.1752 213.536 -18.2785 213.685 -18.6073 212.89C-19.0931 213.578 -18.011 214.715 -17.1914 214.742ZM-20.4889 206.115C-19.4076 206.177 -19.1482 205.564 -18.5867 205.195C-18.7125 204.164 -19.6479 204.102 -19.7778 203.071C-20.9361 203.168 -21.0906 204.099 -21.6066 204.732C-21.4771 205.491 -20.8315 205.618 -20.4889 206.115ZM-22.6617 196.145C-23.1883 196.086 -23.2988 196.375 -23.6265 196.481C-23.203 197.797 -22.2808 198.519 -21.5993 199.519C-20.3609 198.41 -22.4347 197.233 -22.6617 196.145ZM-22.1157 207.26C-21.3821 207.171 -21.5964 205.731 -22.4793 206.052C-22.5039 206.634 -22.3491 206.995 -22.1157 207.26ZM-22.6866 203.84C-21.8347 203.41 -21.1275 202.86 -21.1522 201.707C-21.8857 201.443 -23.1525 202.383 -23.2285 203.395C-22.9912 203.481 -22.7621 203.568 -22.6866 203.84ZM-24.1445 201.496C-23.2394 201.411 -22.8759 200.885 -22.5133 200.351C-22.8162 199.166 -23.8756 198.894 -24.2379 197.785C-25.0412 197.577 -24.8053 198.226 -25.1712 198.369C-24.9867 199.582 -24.1928 200.091 -24.1445 201.496ZM-26.9304 198.28C-27.5237 193.419 -30.6101 189.222 -33.5204 186.238C-32.8264 190.973 -30.5772 196.199 -26.9304 198.28ZM-41.671 181.294C-40.9014 188.482 -35.0323 191.901 -31.5366 196.727C-33.5723 189.954 -38.3741 186.535 -41.671 181.294ZM-23.9667 195.521C-24.7197 191.313 -28.4908 188.393 -30.4411 184.711C-30.1974 188.466 -27.471 193.894 -23.9667 195.521ZM-25.264 208.052C-24.7525 206.482 -26.0385 204.593 -27.1949 205.998C-26.7609 206.937 -26.3497 207.899 -25.264 208.052ZM-26.5616 202.215C-25.7739 200.744 -28.082 199.514 -28.6477 201.172C-28.225 201.858 -27.691 202.396 -26.5616 202.215ZM-28.5113 199.917C-27.8705 198.881 -29.0039 198.086 -29.4857 197.527C-29.9519 198.2 -29.4845 200.075 -28.5113 199.917ZM-31.6574 203.443C-31.7304 202.887 -32.4283 200.734 -33.8783 200.92C-33.4521 202.131 -32.2083 202.369 -31.6574 203.443ZM-35.6114 198.352C-35.269 197.29 -36.0978 195.299 -37.6032 195.561C-37.4309 197.088 -36.3079 197.458 -35.6114 198.352ZM-29.829 201.779C-32.1821 197.134 -35.8048 194.021 -38.634 189.945C-37.3321 193.693 -33.6278 199.233 -29.829 201.779ZM-40.7268 199.328C-40.5247 199.838 -39.193 199.413 -39.0036 199.166C-39.0696 197.884 -40.0093 197.642 -41.1363 197.627C-41.0719 197.913 -41.149 198.07 -41.3381 198.142C-41.5514 198.892 -40.0666 198.945 -40.7268 199.328ZM-39.2212 194.22C-39.3642 192.561 -41.0516 191.327 -41.9609 191.5C-41.2751 192.678 -40.3676 193.598 -39.2212 194.22ZM-40.3216 190.354C-40.2856 188.024 -41.4042 187.078 -42.4644 186.085C-43.4932 187.474 -41.9025 190.298 -40.3216 190.354ZM-46.2418 172.295C-47.1902 174.806 -44.6342 179.971 -43.5306 182.715C-42.9003 179.566 -45.625 175.76 -46.2418 172.295ZM-46.1332 194.618C-45.5991 194.135 -46.4359 192.991 -47.2552 193.235C-47.2196 194.103 -46.3444 193.967 -46.1332 194.618ZM-43.8704 186.963C-44.4584 182.736 -47.259 181.188 -49.3554 178.791C-49.7513 183.107 -45.8476 184.592 -43.8704 186.963ZM-53.2857 179.156C-53.3819 178.531 -53.7387 178.235 -54.3654 178.265C-54.4574 179.107 -53.8683 179.123 -53.2857 179.156ZM-53.8346 183.928C-53.6546 185.537 -52.0819 185.46 -51.1417 186.152C-51.9542 185.311 -52.3147 183.91 -53.8346 183.928ZM-54.6247 172.831C-54.6797 174.379 -52.8529 178.348 -50.8083 179.17C-50.9994 175.752 -53.2389 174.807 -54.6247 172.831ZM-55.9415 166.745C-57.1385 169.585 -53.6649 171.465 -52.5885 173.386C-51.9015 170.086 -54.8249 168.784 -55.9415 166.745ZM-47.1885 175.357C-47.597 170.821 -49.8138 168.476 -52.0304 166.132C-53.4914 169.714 -49.3041 173.378 -47.1885 175.357ZM-50.6171 173.201C-51.6373 176.549 -47.4239 178.272 -45.9683 180.459C-45.6567 176.889 -49.3506 175.772 -50.6171 173.201ZM-48.2848 192.835C-48.1514 189.366 -51.8905 188.257 -53.4026 185.868C-54.1158 185.73 -54.0066 186.275 -54.611 186.231C-55.1569 185.699 -54.8934 184.198 -55.5816 183.837C-55.9269 183.89 -56.2764 183.94 -56.3449 183.654C-56.2391 187.673 -50.7451 189.847 -48.2848 192.835ZM-54.9802 182.292C-54.7188 179.878 -56.0747 179.422 -56.8477 178.247C-58.0309 179.322 -56.7751 181.022 -57.1677 182.747C-56.3012 182.341 -55.4891 182.557 -54.9802 182.292ZM-56.0487 176.188C-56.0347 175.536 -56.2344 175.138 -56.8808 175.269C-56.8865 175.92 -56.6904 176.323 -56.0487 176.188ZM-57.9584 166.442C-57.9876 165.286 -58.3306 164.517 -58.704 163.781C-59.6935 164.12 -58.7444 166.462 -57.9584 166.442ZM-58.1572 180.109C-56.9566 177.486 -59.1263 174.395 -60.3287 172.865C-60.3235 175.054 -58.8757 177.87 -58.1572 180.109ZM-59.447 169.063C-59.4726 165.988 -61.4044 165.214 -62.2385 163.12C-63.2968 165.083 -61.098 167.904 -59.447 169.063ZM-63.2151 157.995C-63.4126 156.867 -63.8351 156.006 -64.2273 155.113C-64.9637 155.307 -64.0039 157.852 -63.2151 157.995ZM-53.8778 167.548C-53.3364 160.738 -60.8084 157.565 -63.2999 151.798C-63.5722 150.894 -62.4078 151.177 -62.4316 150.479C-63.149 148.607 -64.0127 146.907 -65.1267 145.519C-66.6531 156.541 -58.307 161.167 -53.8778 167.548ZM-64.1204 145.671C-63.6793 145.663 -63.6279 145.32 -63.16 145.33C-63.0325 143.755 -65.0966 142.593 -65.7903 141.107C-60.3262 146.566 -56.3025 156.133 -50.6534 162.275C-54.7639 159.383 -58.1304 153.223 -61.8309 148.925C-60.1839 156.623 -54.1291 161.355 -49.9711 166.932C-49.5262 166.919 -49.483 166.577 -49.0111 166.587C-47.7993 167.595 -48.2438 170.593 -46.6055 171.082C-46.725 169.763 -47.3272 169.031 -47.6409 167.952C-45.3969 168.721 -45.0786 174.162 -43.8143 177.021C-40.3628 180.708 -37.6416 185.278 -34.4715 189.3C-34.2661 183.485 -38.2565 180.365 -40.3952 176.45C-39.4323 177.027 -38.6229 177.789 -37.9493 178.706C-37.5989 178.619 -37.9315 177.962 -37.531 177.92C-35.3981 180.839 -34.2965 184.985 -31.2356 186.774C-31.1982 184.994 -32.3445 184.639 -32.5614 183.171C-31.7039 182.223 -30.9457 185.242 -30.2853 183.704C-28.1513 185.968 -26.5565 188.883 -24.6068 191.361C-24.4282 190.598 -24.0544 190.004 -23.2653 189.751C-22.0626 190.217 -21.9539 192 -21.2194 193.032C-19.7744 191.325 -23.3103 189.404 -23.5191 187.043C-20.8888 188.064 -20.6057 191.928 -18.4518 193.515C-18.5924 192.415 -18.8346 191.432 -19.212 190.609C-17.8399 191.327 -17.6366 193.451 -16.8254 194.855C-15.1671 194.045 -14.6581 192.271 -12.3863 191.958C-12.6476 194.463 -14.572 195.59 -15.5963 197.471C-14.8328 198.1 -14.634 199.42 -13.6425 199.769C-12.5593 199.584 -12.2572 198.405 -12.8708 197.461C-12.8084 196.171 -10.9364 197.597 -11.553 195.599C-10.8587 195.58 -11.1376 196.74 -10.229 196.471C-9.88581 195.017 -8.14161 194.724 -6.99436 193.933C-5.85405 194.268 -6.83882 195.77 -7.28253 196.195C-7.93921 196.261 -6.72933 194.892 -7.39801 194.963C-9.69318 196.05 -6.52646 199.101 -5.63188 200.506C-2.93782 198.427 -1.22418 195.539 1.39304 193.397C1.64516 196.175 -1.68596 197.951 -2.92514 200.252C-1.08465 200.497 -0.93689 202.785 0.600652 203.399C3.34186 201.512 5.1019 198.807 8.20548 197.228C8.41409 200.431 5.00551 202.582 3.48365 205.114C4.32798 206.294 4.2394 208.596 5.599 209.135C6.27721 208.054 4.91883 207.527 4.85348 206.474C5.4989 205.888 6.15055 207.637 6.9671 207.764C10.9981 204.071 14.2747 199.757 18.5362 196.255C16.4834 200.905 10.8973 204.598 7.56974 208.946C8.57173 209.273 9.29704 211.14 10.2176 210.687C10.0528 209.864 9.36104 208.265 9.91762 207.488C10.0095 208.868 11.6728 211.047 12.2178 213.481C13.8582 212.881 14.9552 211.819 15.1123 209.982C18.9041 208.717 20.6571 203.849 24.7933 202.123C25.3443 204.398 23.2554 206.441 21.8586 207.86C22.2526 206.372 23.4378 205.54 23.9988 204.186C21.5078 205.675 18.792 208.944 16.4779 211.342C17.1314 212.932 17.5819 214.758 18.4147 216.127C22.0926 213.647 24.149 208.634 28.7936 207.706C28.4231 209.446 27.6634 210.86 26.4601 211.899C25.7069 211.336 27.3172 210.814 27.015 209.858C25.3502 211.132 23.5308 212.27 22.7067 214.24C23.7746 214.87 23.8693 216.679 24.5278 217.789C27.811 217.014 31.9153 208.589 35.0817 208.613C38.6016 208.629 40.3949 216.196 43.1872 218.278C44.3767 217.67 44.1569 218.483 45.425 218.314C45.045 216.573 43.6776 216.038 43.0846 214.56C42.2965 214.513 42.5935 215.369 41.6558 215.194C42.0505 210.066 36.8731 207.399 35.0655 203.148C38.3352 204.23 39.575 210.118 42.8536 212.096C43.5823 206.261 36.2431 203.613 35.2474 197.172C37.3241 197.224 37.4387 199.648 39.2417 200.025C38.0379 196.523 34.6811 194.244 33.939 191.086C37.6856 194.054 39.5401 199.297 42.7438 202.92C44.785 201.569 44.0984 198.915 42.7052 197.215C41.5812 196.966 42.143 198.11 41.2992 198.093C42.1992 194.886 38.5208 191.624 36.7283 189.09C37.2587 189.011 38.938 189.892 39.151 191.098C42.0381 189.476 39.0165 186.728 37.8576 185.26C36.9428 185.108 37.7548 186.387 36.9703 186.336C37.3921 184.387 36.4146 183.165 35.576 182.001C37.1845 177.68 33.2834 171.687 34.1225 166.496C36.2067 173.831 35.9851 183.964 40.8451 187.957C42.1443 187.452 42.4527 186.118 42.7752 184.799C40.5518 182.293 39.1016 178.83 36.5545 176.697C36.6111 176.366 36.9606 176.271 36.9814 175.914C39.6252 177.835 41.0335 181.251 43.1792 183.773C45.1507 182.391 42.8166 179.904 41.9589 178.671C41.2975 178.107 41.4787 179.241 40.5068 179.057C41.6292 177.334 39.5341 174.595 38.2302 173.316C39.5809 172.693 41.0364 174.3 41.2092 176.01C44.4396 175.428 41.4028 172.739 40.7709 171.335C40.079 171.291 41.0953 172.66 40.3988 172.612C39.6792 171.562 40.1468 169.079 38.7981 168.789C39.5037 161.463 34.4882 152.476 35.6233 145.506C37.3269 153.807 38.2231 167.725 43.4686 173.563C47.6897 170.386 41.227 166.017 39.9634 162.721C42.4612 162.995 42.6967 165.996 44.3631 167.274C45.2725 166.747 46.0953 166.14 46.6562 165.32C46.0944 163.997 45.6139 162.562 44.3664 162.062C44.2723 163.192 45.1322 165.117 44.2015 165.551C43.4997 163.311 44.0118 158.634 41.9 156.83C43.4691 151.6 37.5139 142.46 40.8362 137.565C40.2153 143.928 42.567 152.961 44.3415 159.083C45.6819 158.84 45.9266 157.67 46.6158 156.884C46.2435 155.581 45.682 155.062 45.5953 154.003C46.7366 153.904 46.4926 155.482 47.4884 155.564C49.973 153.075 47.9228 148.147 46.8877 143.953C45.9357 140.069 44.3607 135.496 43.6981 131.096C46.7191 137.218 46.935 146.726 50.627 152.046C53.3096 151.624 52.245 148.004 51.0988 146.54C53.2656 143.372 49.0798 137.409 51.1348 133.626C53.0009 137.213 53.7772 142.114 55.9509 145.334C58.9144 144.084 54.6651 140.113 55.8203 138.649C56.6976 139.693 57.0428 141.374 57.6918 142.694C58.9978 142.083 58.7448 140.139 58.2983 138.667C59.0019 140.169 59.4294 138.549 59.9795 138.013C60.9812 137.982 61.2164 138.89 61.6118 139.595C64.6178 137.774 64.4372 133.313 64.3376 128.915C65.1758 130.208 65.0326 131.793 65.047 133.814C69.4811 129.128 64.9634 118.56 65.4108 111.192C67.264 111.794 67.1678 114.726 68.1255 116.404C67.4004 117.252 67.4214 115.653 67.0302 115.26C66.356 118.651 68.1894 124.246 67.761 128.347C69.9508 126.003 70.2742 122.115 72.4135 119.721C72.4381 115.67 70.7254 110.385 71.4896 107.153C72.9006 108.73 72.889 112.029 73.6487 114.397C73.4737 115.11 72.9621 114.099 72.6922 114.733C72.7023 115.908 73.289 116.387 73.2208 117.661C74.0803 117.668 74.1376 116.411 73.814 116.117C77.2158 115.672 75.0732 107.98 74.1594 103.925C76.7927 104.399 75.5309 109.571 76.6437 111.881C77.8442 110.681 78.7239 109.214 78.6684 106.975C79.3171 106.735 78.5991 108.149 79.2523 107.913C82.1071 106.703 77.3644 105.163 79.1081 103.707C80.0134 103.98 80.0015 105.366 80.3414 106.322C84.9659 104.692 80.7063 96.1636 82.0045 92.2681C83.0239 94.3826 83.0738 99.6278 83.5302 103.296C84.4154 103.088 85.1056 101.868 84.3098 100.984C85.0707 100.608 84.5708 101.768 85.3357 101.388C86.6826 96.2786 83.6167 88.2098 84.6078 83.0838C86.8052 87.181 85.9973 94.1704 86.6262 99.2779C87.7731 99.016 87.8807 97.8967 88.6799 97.3506C88.5527 95.9489 87.8529 95.2432 87.8376 93.7017C88.6878 94.1432 88.3272 96.0326 89.548 96.0265C90.2145 90.9519 88.642 85.4283 88.1174 80.7656C90.2263 83.6952 89.9579 89.504 90.6182 94.1915C98.8569 89.8452 91.7941 78.5401 93.8401 70.3045C95.0756 70.5431 94.8959 72.4948 95.3903 73.6327C94.9276 74.435 94.8826 72.4418 94.0707 72.764C94.6806 76.8683 95.264 82.3804 95.9151 87.2356C99.8701 85.8889 96.189 79.8417 95.8879 76.3173C96.9937 77.2643 96.8602 79.7079 97.7973 80.8543C98.7878 78.4346 95.5642 73.754 98.2714 72.616C99.3304 74.3514 99.7041 76.9142 100.37 79.1202C99.5545 79.009 100.136 77.2114 98.9768 77.5162C99.1813 79.7863 99.4008 80.3494 99.6862 82.416C101.191 82.0997 100.746 80.6945 100.171 79.6309C100.589 78.8828 100.926 80.5192 101.266 80.7708C102.276 80.7803 101.933 79.6533 102.63 79.4002C101.78 78.7001 102.004 76.5942 102.532 75.6899C103.348 75.9762 103.332 77.2828 103.738 78.0579C105.483 77.2395 106.531 75.8319 106.815 73.7995C107.536 73.4817 107.301 74.3085 107.404 74.7367C108.474 74.4112 108.921 73.5729 109.987 73.2519C109.842 72.4231 109.994 71.2413 109.508 70.8157C106.433 72.2008 104.813 72.8113 100.947 72.1149C97.487 65.8927 105.856 60.5293 113.172 59.5512C113.362 60.6133 112.583 60.8824 112.64 61.832C112.875 62.0016 113.222 62.0484 113.642 61.9882C113.484 65.0137 108.766 68.1457 112.014 71.0811C112.899 69.9765 113.812 67.7224 112.609 66.8053C113.725 64.7367 115.019 62.0091 115.448 60.0842C117.341 62.2709 118.707 65.0951 120.589 67.2995C122.892 66.7874 124.363 65.582 126.581 64.9987C124.832 60.801 122.453 55.9244 118.029 55.8682C119.202 58.6813 122.784 61.4101 122.302 64.4076C119.086 59.893 117.532 53.3711 112.378 51.1857C113.942 50.2886 112.706 49.1577 112.524 47.4442C115.559 49.5323 116.017 54.7308 120.221 55.4083C120.027 52.6285 117.115 50.7498 116.288 47.8376C119.535 50.6731 120.65 56.081 124.675 57.9719C124.92 58.6286 123.506 57.9064 123.743 58.5598C124.659 60.8256 126.54 61.9377 127.27 64.4296C130.507 63.1751 134.326 62.4125 137.916 61.4461C136.895 60.2075 135.692 59.1987 134.615 58.032C137.173 58.993 139.782 62.6764 143.523 60.424C143.313 59.3929 142.078 59.6046 141.634 58.8624C142.931 58.6865 144.001 59.0323 144.736 57.579C145.451 57.9081 145.196 59.4123 145.711 59.9728C147.505 59.4125 150.041 59.4708 151.009 58.2333C150.096 54.9496 147.881 53.2434 146.558 50.4611C149.872 51.7556 149.64 57.3275 153.914 57.4688C153.822 56.5726 152.579 57.0643 152.769 55.8415C154.194 55.4867 153.962 57.1307 154.901 57.3761C155.699 56.901 156.99 56.8383 156.977 55.6886C155.974 55.349 154.986 54.9872 154.354 54.2C153.389 54.2321 153.122 54.8451 152.452 55.1207C151.533 50.6575 147.094 50.4442 145.251 47.1102C144.565 46.9993 145.534 48.2554 144.848 48.1446C143.324 47.2366 143.151 44.7135 141.261 44.2611C142.819 49.1355 147.148 53.0286 149.713 57.6167C147.676 57.8495 146.618 54.617 145.534 52.7963C144.588 52.6224 144.898 53.4732 144.101 53.427C142.639 52.3715 142.28 49.97 140.496 49.2992C141.12 51.0129 140.846 53.3069 141.247 54.6913C140.649 55.7773 139.256 56.2166 138.771 57.4046C137.401 57.2453 136.372 56.6664 134.749 56.7894C129.663 48.7849 123.444 42.1334 118.467 33.9936C121.103 34.1008 121.522 36.8762 123.304 38.0101C123.47 38.5242 123.001 38.5097 122.611 38.5713C124.984 41.6471 127.221 44.8816 129.236 48.3745C130.864 47.9843 129.873 45.5503 129.162 44.908C129.927 44.5319 129.426 45.6839 130.196 45.3114C130.909 43.1346 131.77 40.8104 134.225 40.7136C132.581 38.7746 130.475 37.3917 129.002 35.2448C128.829 34.4228 130.058 34.758 129.604 33.6997C124.325 30.7088 119.22 29.0401 113.341 27.0353C112.602 26.8878 113.034 26.6889 113.001 26.0707C91.1727 20.1035 69.9977 10.9685 47.0438 5.44883C39.3576 -0.543748 27.5121 5.43769 20.2831 8.45917C16.9975 9.83065 11.9337 9.88861 8.39043 11.3134C-0.0342975 14.6973 -6.5109 20.5421 -14.0963 25.586C-24.4246 32.4551 -31.5512 41.3715 -39.0524 50.5149C-42.3087 54.4689 -43.5647 58.9442 -46.5381 63.3805C-46.8284 63.9748 -47.4772 64.2608 -47.8981 64.7507C-55.4678 82.6822 -63.14 101.741 -64.9556 123.686C-67.3942 129.069 -67.9237 140.986 -64.1204 145.671ZM132.55 43.8189C131.078 44.5741 131.214 47.5927 131.826 49.3535C132.435 47.8076 132.391 45.7311 132.55 43.8189Z" fill="#F5F1EB"/>
<path fill-rule="evenodd" clip-rule="evenodd" d="M203.566 160.778C203.649 160.724 203.717 160.646 203.8 160.593C203.772 160.7 203.712 160.777 203.566 160.778Z" fill="#F5F1EB"/>
<path fill-rule="evenodd" clip-rule="evenodd" d="M129.239 61.5071C129.112 60.4723 128.177 60.414 128.048 59.3838C128.755 59.5426 129.622 60.9332 129.239 61.5071Z" fill="#F5F1EB"/>
<path fill-rule="evenodd" clip-rule="evenodd" d="M4.27718 81.1734C4.69907 80.204 3.91829 79.3015 5.37034 79.5823C5.70744 82.3778 8.63177 92.6283 3.37142 92.6797C1.23894 92.7004 -1.3367 89.3725 -0.895468 86.8751C-0.566711 85.0012 3.31397 83.3946 4.27718 81.1734ZM4.70795 91.0615C5.71856 89.1236 5.26633 85.4549 4.68632 82.8697C0.175103 83.3971 -1.35667 91.3384 4.70795 91.0615Z" fill="#F5F1EB"/>
<path fill-rule="evenodd" clip-rule="evenodd" d="M205.485 80.6704C205.075 80.9298 204.821 81.3331 204.322 81.5217C202.123 80.3436 199.725 79.4009 199.347 76.0255C202.11 74.6405 204.47 78.1595 205.485 80.6704Z" fill="#F5F1EB"/>
<path fill-rule="evenodd" clip-rule="evenodd" d="M68.9323 238.687C70.1151 241.433 73.9493 244.534 72.2995 248.058C67.2435 247.844 70.756 241.598 68.4639 238.981C68.4994 238.782 68.6433 238.673 68.9323 238.687Z" fill="#F5F1EB"/>
</g>
<defs>
<clipPath id="clip0_1344_8296">
<rect width="252" height="288" fill="white"/>
</clipPath>
</defs>
</svg>
