<svg width="468" height="268" viewBox="0 0 468 268" fill="none" xmlns="http://www.w3.org/2000/svg">
<g clip-path="url(#clip0_1344_8398)">
<mask id="mask0_1344_8398" style="mask-type:luminance" maskUnits="userSpaceOnUse" x="0" y="0" width="468" height="268">
<path d="M468 0H0V268H468V0Z" fill="white"/>
</mask>
<g mask="url(#mask0_1344_8398)">
<path fill-rule="evenodd" clip-rule="evenodd" d="M356.24 94.4648C357.507 94.8954 358.657 94.9781 359.197 93.1976C358.832 93.0085 358.456 92.8185 358.084 92.6455C357.537 93.4312 356.89 93.9259 356.24 94.4648Z" fill="#F5F1EB"/>
<path fill-rule="evenodd" clip-rule="evenodd" d="M210.659 37.8483C211.365 37.8081 211.911 37.3225 212.318 36.3876C212.046 35.8669 211.579 35.4091 210.671 35.1006C210.094 36.2057 209.231 37.4 210.659 37.8483Z" fill="#F5F1EB"/>
<path fill-rule="evenodd" clip-rule="evenodd" d="M164.532 21.5497C164.802 21.1594 165.31 21.4428 165.812 21.7424C166.307 20.7638 166.795 19.7959 167.301 18.8182C166.93 18.6287 166.559 18.4446 166.193 18.2666C165.967 19.8157 163.988 20.7803 164.532 21.5497Z" fill="#F5F1EB"/>
<path fill-rule="evenodd" clip-rule="evenodd" d="M349.223 151.023C346.436 152.47 343.834 154.481 341.648 157.763C344.732 157.81 348.164 154.024 349.223 151.023Z" fill="#F5F1EB"/>
<path fill-rule="evenodd" clip-rule="evenodd" d="M443.093 201.388C441.282 201.91 442.976 204.04 441.42 204.67C399.091 212.581 352.08 206.34 303.016 193.875C326.069 202.005 348.501 205.315 370.334 207.502C379.954 208.468 389.659 210.557 398.316 210.544C409.018 210.521 420.149 209.131 430.727 208.471C436.714 208.103 443.296 207.764 448.407 204.506C448.836 202.295 444.679 201.449 443.093 201.388Z" fill="#F5F1EB"/>
<path fill-rule="evenodd" clip-rule="evenodd" d="M306.731 186.562C294.215 184.557 281.463 181.712 267.915 177.622C254.797 173.66 239.63 171.068 227.648 164.277C208.246 153.278 184.384 139.459 165.926 128.688C180.812 139.363 198.741 149.044 215.512 159.107C178.651 145.546 153.797 122.058 133.077 101.642C127.77 96.4082 121.122 92.4817 117.123 87.6587C112.653 82.2995 111.185 73.5102 108.17 68.0294C129.248 89.5836 150.912 114.188 179.904 131.122C167.165 122.723 155.119 113.072 144.682 102.422C134.203 91.7303 122.048 82.704 113.501 72.0826C110.139 67.9084 108.096 59.9082 102.684 59.7705C106.815 69.0754 109.048 81.4674 115.823 89.3031C119.738 93.8309 125.91 97.9208 130.876 102.362C135.7 106.693 140.322 111.62 145.178 115.97C166.389 135.018 189.035 149.91 215.685 161.482C243.897 173.723 273.797 187.095 302.654 193.692C287.283 187.385 266.791 183.463 251.548 174.444C292.337 189.256 330.422 189.413 367.811 195.222C373.091 196.049 378.571 198.108 383.822 197.3C383.58 197.176 383.327 197.051 383.091 196.933C359.004 191.046 333.404 190.853 306.731 186.562Z" fill="#F5F1EB"/>
<path fill-rule="evenodd" clip-rule="evenodd" d="M180.281 132.225C181.15 132.397 182.469 133.893 183.034 133.158C182.333 132.555 181.118 131.084 180.281 132.225Z" fill="#F5F1EB"/>
<path fill-rule="evenodd" clip-rule="evenodd" d="M41.8516 126.923C40.908 127.717 40.2846 128.052 40.1934 129.3C41.1379 130.222 43.363 127.516 41.8516 126.923Z" fill="#F5F1EB"/>
<path fill-rule="evenodd" clip-rule="evenodd" d="M92.5154 165.216C91.3224 166.63 93.1449 167.036 92.3243 168.329C91.3852 168.268 90.6774 168.897 89.566 168.322C88.8295 165.866 91.3127 164.307 92.7021 163.025C89.8451 162.061 88.3906 165.405 86.8027 168.31C89.0002 175.617 101.648 166.272 92.5154 165.216Z" fill="#F5F1EB"/>
<path fill-rule="evenodd" clip-rule="evenodd" d="M39.7701 139.187C40.0975 139.068 41.518 137.883 40.7045 137.36C40.0031 137.695 38.6425 138.251 39.7701 139.187Z" fill="#F5F1EB"/>
<path fill-rule="evenodd" clip-rule="evenodd" d="M219.276 233.465C219.532 233.696 219.554 233.986 219.288 234.388C226.185 238.994 226 228.92 219.276 233.465Z" fill="#F5F1EB"/>
<path fill-rule="evenodd" clip-rule="evenodd" d="M279.194 263.556C277.444 265.383 280.455 266.803 278.437 267.765C276.6 267.985 277.283 265.221 275.505 264.456C273.867 265.775 272.597 267.899 273.274 269.757C278.21 273.424 285.586 265.591 279.194 263.556Z" fill="#F5F1EB"/>
<path fill-rule="evenodd" clip-rule="evenodd" d="M189.13 220.164C188.951 220.528 188.765 220.903 188.581 221.266C189.414 222.257 190.159 222.292 190.973 221.089C190.612 220.05 190.068 220.586 189.13 220.164Z" fill="#F5F1EB"/>
<path fill-rule="evenodd" clip-rule="evenodd" d="M61.2462 159.601C62.9771 159.028 68.1953 161.517 68.0437 163.472C65.2363 167.34 61.438 168.215 56.9792 167.095C56.3795 165.971 59.1429 163.75 57.7352 162.892C56.1109 164.178 54.3775 166.656 55.3135 168.555C61.3496 170.435 66.4043 169.346 69.886 163.48C70.3067 159.496 62.7895 156.264 61.2462 159.601Z" fill="#F5F1EB"/>
<path fill-rule="evenodd" clip-rule="evenodd" d="M160.638 209.07C157.653 203.569 150.395 212.327 156.398 212.905C157.118 211.549 155.379 210.999 156.775 209.423C157.584 207.841 159.699 210.231 160.638 209.07Z" fill="#F5F1EB"/>
<path fill-rule="evenodd" clip-rule="evenodd" d="M59.1973 162.699C61.0706 163.098 62.7882 163.058 63.9971 161.44C62.1012 160.972 60.2957 160.778 59.1973 162.699Z" fill="#F5F1EB"/>
<path fill-rule="evenodd" clip-rule="evenodd" d="M234.476 250.741C232.189 253.438 228.593 255.811 231.142 259.157C241.646 266.001 246.416 249.497 234.476 250.741ZM231.705 256.222C232.139 249.834 242.141 253.291 239.25 257.724C238.111 259.447 232.986 259.076 231.705 256.222Z" fill="#F5F1EB"/>
<path fill-rule="evenodd" clip-rule="evenodd" d="M102.925 185.581C104.595 186.309 106.079 186.173 105.306 188.157C104.621 189.138 103.693 189.433 102.544 189.062C101.302 188.656 102.289 187.526 100.715 187.227C99.4608 187.631 99.8016 189.068 99.7822 189.966C103.72 192.618 106.031 190.329 107.892 186.712C107.029 185.668 103.872 182.231 102.925 185.581Z" fill="#F5F1EB"/>
<path fill-rule="evenodd" clip-rule="evenodd" d="M152.853 223.508C151.408 227.014 148.86 228.401 146.58 226.771C146.102 227.751 145.385 228.79 145.658 229.516C146.17 229.75 146.372 230.099 146.57 230.431C149.501 229.717 152.34 228.746 154.317 225.148C153.697 224.645 154.189 223.778 152.853 223.508Z" fill="#F5F1EB"/>
<path fill-rule="evenodd" clip-rule="evenodd" d="M167.549 231.8C160.089 230.994 166.663 244.02 170.288 237.304C171.54 234.995 168.706 231.933 167.549 231.8ZM167.535 236.376C166.204 235.896 165.492 235.214 166.441 233.993C167.783 234.473 168.472 235.16 167.535 236.376Z" fill="#F5F1EB"/>
<path fill-rule="evenodd" clip-rule="evenodd" d="M70.1203 197.544C73.5225 199.255 77.5142 196.895 77.3083 193.357C74.3308 188.979 69.5217 193.887 70.1203 197.544ZM71.6037 194.619C71.9966 192.722 73.4696 194.107 74.1796 193.162C76.3703 194.652 72.4602 197.112 71.6037 194.619Z" fill="#F5F1EB"/>
<path fill-rule="evenodd" clip-rule="evenodd" d="M212.147 267.498C210.757 269.074 212.124 269.746 211.216 271.154C209.437 271.334 208.006 272.574 205.869 271.688C206.345 269.508 208.689 269.749 208.289 267.846C205.921 267.348 203.637 270.439 203.119 272.588C207.365 275.663 212.274 273.279 215.279 269.522C215.154 268.545 213.377 267.192 212.147 267.498Z" fill="#F5F1EB"/>
<path fill-rule="evenodd" clip-rule="evenodd" d="M89.2056 212.636C89.1213 213.58 91.6215 213.672 91.4052 214.66C90.4313 217.641 86.4084 217.882 85.5089 215.369C84.6225 216.573 85.0425 217.349 84.9466 218.297C88.6021 219.767 90.814 216.881 93.4223 215.221C93.5995 213.512 90.8013 211.214 89.2056 212.636Z" fill="#F5F1EB"/>
<path fill-rule="evenodd" clip-rule="evenodd" d="M149.789 255.901C148.585 242.776 161.903 257.83 149.789 255.901V255.901ZM150.903 253.709C151.36 251.71 154.472 252.188 152.92 254.269C152.344 254.358 151.693 254.258 150.903 253.709Z" fill="#F5F1EB"/>
<path fill-rule="evenodd" clip-rule="evenodd" d="M46.8752 207.884C45.6232 209.41 48.1008 209.722 47.0546 211.186C45.471 212.236 43.1903 211.978 41.5266 210.245C40.7055 215.215 48.3109 213.71 49.8134 211.187C49.6903 209.894 48.9592 207.583 46.8752 207.884Z" fill="#F5F1EB"/>
<path fill-rule="evenodd" clip-rule="evenodd" d="M65.7644 226.095C65.6342 227.63 63.5403 227.913 64.2814 229.015C65.6286 227.557 67.8514 228.705 69.4355 227.938C70.8702 228.376 69.9549 229.594 71.0851 230.142C71.4542 229.415 72.317 230.17 72.5551 229.044C71.3721 226.081 68.2622 227.515 65.7644 226.095Z" fill="#F5F1EB"/>
<path fill-rule="evenodd" clip-rule="evenodd" d="M62.9753 232.495C64.0692 233.007 64.7684 232.344 65.5641 231.949C64.7033 231.528 63.8548 231.09 62.9893 230.657C62.2132 231.52 63.3397 231.756 62.9753 232.495Z" fill="#F5F1EB"/>
<path fill-rule="evenodd" clip-rule="evenodd" d="M451.062 235.663C462.289 216.849 471.671 195.528 465.638 181.511C462.221 173.589 453.519 166.128 446.937 160.195C443.936 145.039 434.348 131.849 434.413 115.828C434.422 113.257 436.385 110.563 433.703 108.13C426.213 111.749 419.951 119.051 411.56 119.951C406.182 106.773 399.934 93.8845 398.481 79.4304C389.113 83.8552 378.706 85.1173 367.89 85.1759C361.112 78.5453 360.899 67.9691 353.076 60.7584C348.135 63.9788 341.968 67.605 338.126 71.1374C330.152 65.9481 325.82 54.7615 321.098 46.5278C312.295 48.6462 304.294 53.1648 294.92 53.5674C290.887 44.7201 286.897 34.2485 281.775 26.7785C277.704 28.8602 268.139 37.9248 264.251 36.7821C258.365 35.0582 254.831 18.9222 251.261 15.1265C236.901 25.745 222.756 37.0356 206.775 42.7804C206.37 41.5939 205.312 40.6184 205.325 39.2973C210.125 38.2603 207.315 34.3063 210.691 30.527C208.836 29.2458 208.244 31.7668 206.276 30.1437C204.894 32.3263 204.464 33.7653 203.313 35.0767C200.453 31.341 200.189 26.7546 199.123 22.4289C189.627 24.9774 181.92 36.2232 172.57 33.8614C172.541 31.7872 176.443 30.7258 176.087 27.8321C170.66 33.6537 164.621 37.6396 158.729 42.0423C162.07 35.3996 169.466 31.4067 171.124 25.7958C167.964 27.6531 166.034 33.2431 162.444 33.8174C161.537 29.7428 169.173 27.5459 168.742 25.0519C164.392 27.3456 161.077 32.7904 156.733 35.079C156.391 33.6584 156.398 32.1313 156.187 30.6764C158.133 26.9652 162.646 26.1006 163.412 21.9154C159.921 24.6582 157.146 29.5391 153.069 30.4871C154.657 23.4711 162.024 20.7202 166.75 17.1779C176.433 9.90542 187.935 5.25557 199.213 3.19933C204.736 13.9942 207.947 27.1667 215.643 36.2286C212.608 23.3028 205.809 11.6047 199.583 -0.277344C183.335 4.94697 167.665 11.9266 153.647 23.899C152.775 23.4766 152.884 22.7239 151.628 22.4275C123.591 26.0749 88.3242 30.7671 71.3569 68.8043C69.0266 74.0081 65.9252 78.8583 63.3749 84.5229C59.2173 93.7748 53.1241 115.021 44.1083 116.134C41.2335 116.48 35.8914 114.22 33.4338 114.442C28.9182 114.846 20.4838 124.014 19.0177 128.301C17.5413 132.576 21.5399 136.966 18.6018 140.934C22.3024 142.901 20.9436 146.019 23.3597 147.915C32.2382 154.907 43.1414 146.956 49.5026 146.372C34.6168 187.163 17.0413 230.882 0.0410156 271.07C2.00055 282.382 5.69252 294.324 14.2638 303.908C17.5579 307.588 19.9133 311.346 22.3313 314.37C36.0256 331.631 57.0363 350.102 78.6428 365.142C86.3678 370.518 95.1032 377.337 102.329 381.164C106.11 383.165 111.021 384.72 115.016 387.076C131.91 397.055 150.799 406.171 169.955 414.212C182.805 419.603 198.506 422.23 212.809 426.094C227.079 429.962 241.674 431.793 254.02 433.035C280.928 435.74 306.836 438.589 331.345 433.337C341.919 431.077 353.84 430.592 358.823 420.992C363.471 412.039 368.908 404.441 374.202 395.227C378.21 388.263 379.987 378.245 384.616 370.184C391.626 357.991 396.178 347.691 402.798 335.279C409.931 335.754 422.73 332.093 426.416 322.366C427.722 318.922 423.554 312.397 422.984 306.421C420.954 285.079 437.732 257.981 451.062 235.663ZM431.11 112.336C430.153 132.16 445.595 146.605 443.045 166.951C441.567 167.721 440.315 169.18 438.426 168.768C438.219 166.975 440.874 167.234 441.401 164.753C441.349 164.054 441.434 163.316 440.489 162.911C436.122 163.62 433.263 168.872 429.59 171.662C430.159 166.701 438.083 163.898 437.006 159.788C432.787 159.392 430.816 165.796 426.856 166.164C428.38 163.798 428.856 163.629 430.365 161.961C423.95 164.174 418.886 170.501 412.828 173.797C413.542 167.903 424.662 163.712 424.302 157.547C420.725 157.516 418.646 162.067 415.263 162.635C416.631 159.824 421.045 159.002 420.266 155.52C414.344 158.288 409.628 164.73 403.831 167.902C405.853 163.785 412.686 158.271 416.951 154.771C410.159 155.222 406.274 164.484 399.608 165.322C402.352 159.678 408.783 157.261 412.914 152.74C412.912 152.34 412.916 151.923 412.553 151.645C406.767 153.012 402.508 158.968 397.045 161.293C396.447 162.091 398.816 161.929 397.593 162.94C393.64 159.976 401.865 156.391 403.885 154.174C403.708 152.566 402.261 154.733 401.307 153.793C403.991 149.488 408.99 147.467 410.916 143.948C407.743 142.372 406.954 148.016 404.098 147.397C406.676 144.106 409.656 141.98 412.588 139.739C412.592 139.328 412.601 138.928 412.227 138.633C407.874 139.682 404.883 144.83 400.974 147.207C401.71 143.336 405.889 138.924 409.672 135.51C409.786 134.974 409.316 134.621 409.489 134.051C408.242 132.989 407.248 134.713 406.724 133.117C414.626 125.497 422.68 118.344 431.11 112.336ZM426.654 169.27C427.134 171.223 423.449 176.101 421.105 175.66C421.613 172.994 424.991 171.492 426.654 169.27ZM427.031 166.71C426.617 167.951 425.779 167.881 425.187 168.535C424.562 167.799 426.027 165.622 427.031 166.71ZM409.145 171.031C410.554 168.051 414.934 166.365 417.28 163.19C416.764 165.095 412.482 171.415 409.145 171.031ZM398.102 170.984C397.624 170.741 397.119 170.492 396.64 170.249C396.647 168.722 398.075 168.454 399.045 167.329C400.6 167.937 398.294 169.815 398.102 170.984ZM403.241 129.072C403.583 125.738 407.357 124.822 408.8 121.772C410.59 124.97 405.013 127.614 403.241 129.072ZM379.74 160.848C380.715 157.99 382.717 157.388 383.078 155.182C377.022 154.495 374.212 163.578 368.676 164.465C371.052 159.536 376.077 157.884 377.74 153.878C370.701 155.421 367.522 168.681 359.283 166.627C360.78 164.964 362.585 164.23 364.083 162.618C363.56 160.795 362.103 163.966 360.781 162.786C364.291 157.645 368.567 154.852 372.601 151.295C373.141 150.52 371.747 150.358 372.059 149.643C366.483 152.564 361.766 158.079 355.636 159.281C357.599 154.643 362.74 151.794 366.341 149.071C361.073 148.005 356.557 157.13 351.209 158.902C352.463 153.682 361.182 149.48 362.502 144.849C356.396 148.629 351.656 156.526 345.143 159.064C345.462 160.783 345.987 162.445 347.875 163.657C344.854 163.73 340.713 159.163 339.444 156.66C350.842 150.964 354.978 133.567 350.62 123.739C360.36 118.61 369.954 113.002 380.132 109.207C383.944 112.621 384.265 116.912 386.524 122.051C392.557 135.785 404.307 146.58 388.945 160.888C386.483 158.793 389.519 156.582 389.158 154.11C385.927 154.44 380.277 161.555 379.74 160.848ZM382.488 165.441C380.919 166.882 379.2 167.878 377.14 167.797C377.771 165.213 380.973 162.875 382.683 160.49C384.438 161.548 381.655 164.083 382.488 165.441ZM373.465 163.199C374.442 160.891 375.994 160.327 377.35 159.187C377.328 160.696 375.382 164.324 373.465 163.199ZM355.799 162.587C357.534 159.505 360.11 158.98 362.26 157.117C361.502 159.47 358.642 163.444 355.799 162.587ZM333.38 151.323C334.236 144.818 342.34 139.63 344.685 134.516C336.728 137.033 333.277 153.154 324.723 153.853C327.045 149.765 330.372 148.71 332.858 145.095C330.691 145.962 329.03 148.368 326.94 149.463C329.928 143.204 339.08 138.163 340.996 131.755C336.77 133.469 332.826 141.399 327.702 145.261C324.875 140.311 333.973 137.421 335.852 131.916C335.383 131.763 335.241 131.502 335.3 131.185C332.45 129.688 330.966 132.268 328.849 132.995C327.431 132.847 329.175 131.664 327.757 131.522C322.465 137.465 316.007 139.869 310.577 145.374C310.428 145.929 311.339 146.138 311.859 146.478C310.303 147.03 309.371 149.475 307.974 150.49C306.61 142.086 320.633 134.453 324.813 128.219C318.816 130.808 314.438 138.221 308.926 142.253C308.671 140 311.062 136.884 309.329 135.113C305.839 136.622 303.518 141.632 300.454 144.414C299.896 134.916 308.354 125.439 313.246 120.104C306.888 124.038 301.922 132.189 295.508 135.968C297.194 126.627 302.687 122.616 308.477 116.794C300.336 121.83 293.372 130.399 286.296 138.683C286.043 127.615 295.845 119.391 302.958 114.943C298.959 114.019 294.858 120.665 290.97 123.138C289.754 122.317 289.422 121.203 288.757 120.197C292.213 117.04 295.646 113.815 299.657 112.362C293.407 110.788 288.484 121.198 282.309 122.912C283.826 113.869 291.872 112.587 294.711 107.583C287.495 107.462 281.509 118.896 274.58 122.702C288.008 101.847 307.562 99.5098 324.961 90.6743C332.182 102.338 340.91 113.495 348.578 125.01C348.873 135.393 340.003 144.266 333.38 151.323ZM335.772 151.152C337.918 148.972 339.691 145.703 341.695 143.118C342 144.875 337.817 153.375 335.772 151.152ZM315.897 149.426C318.023 140.385 326.152 136.009 331.982 132.269C332.631 132.468 332.444 132.937 332.91 133.19C327.267 138.706 322.354 146.383 315.897 149.426ZM313.12 153.99C311.929 153.788 311.009 154.417 309.625 153.611C309.42 151.579 311.708 150.371 312.768 149.23C314.633 150.251 313.324 152.295 313.12 153.99ZM303.92 151.207C304.539 151.515 305.151 151.823 305.764 152.131C305.591 153.712 302.396 152.639 303.92 151.207ZM302.647 149.187C301.09 148.023 303.405 144.823 304.508 143.703C305.733 144.824 303.894 148.233 302.647 149.187ZM300.121 134.167C300.88 136.053 298.814 138.855 297.893 141.295C295.862 139.828 299.551 136.484 300.121 134.167ZM296.215 145.499C297.867 145.881 296.586 148.427 295.287 147.322C295.596 146.718 295.905 146.114 296.215 145.499ZM293.503 132.67C293.807 135.005 291.888 142.69 288.497 141.624C290.185 139.087 290.548 135.271 293.503 132.67ZM280.251 131.52C279.519 128.714 282.199 125.765 284.333 124.39C284.22 126.853 281.584 129.667 280.251 131.52ZM276.397 128.213C277.194 126.647 277.581 124.177 279.179 122.728C279.978 123.805 278.613 129.017 276.397 128.213ZM282.561 106.989C283.672 104.48 285.726 104.844 287.172 103.344C287.117 105.35 284.43 107.377 282.561 106.989ZM295.506 93.3074C296.045 92.1878 296.999 92.2721 297.721 91.6721C298.308 92.6059 296.477 94.0319 295.506 93.3074ZM301.017 96.991C301.505 97.2452 302 97.4887 302.478 97.7309C302.274 99.2151 299.568 98.3963 301.017 96.991ZM334.712 94.1946C335.958 90.7296 340.036 88.1262 342.668 85.7952C343.511 86.021 343.51 86.5375 343.951 86.8991C340.956 89.5855 338.091 92.6764 334.712 94.1946ZM346.129 96.254C342.566 97.8359 342.143 103.797 337.982 104.094C337.532 102.043 339.67 101.624 340.752 101.351C340.701 98.4816 343.276 95.5962 346.129 96.254ZM349.668 83.8162C351.39 84.365 351.37 85.491 351.493 86.567C350.515 87.9473 349.357 88.7639 347.806 88.3838C348.101 87.0288 348.579 84.4659 349.668 83.8162ZM395.702 128.494C395.268 129.344 394.833 130.199 394.409 131.055C392.556 130.541 393.703 126.84 395.702 128.494ZM399.052 120.085C399.412 120.268 399.783 120.447 400.154 120.636C399.362 122.564 397.992 122.737 396.823 123.547C396.21 121.945 398.419 121.037 399.052 120.085ZM394.59 83.4368C400.174 95.5361 404.431 108.05 408.433 120.672C404.732 120.582 403.176 127.023 399.576 127.225C400.229 125.497 401.149 124.579 401.979 123.387C400.541 122.766 399.872 124.414 398.847 125.03C398.768 122.591 401.402 120.96 401.989 119.727C401.527 119.348 400.551 120.411 399.786 118.614C396.59 119.141 395.026 124.615 392.035 125.735C392.776 122.948 394.747 119.644 396.674 115.681C396.188 114.311 396.074 112.83 395.021 111.649C391.203 112.85 388.268 118.152 390.562 121.333C387.282 115.593 381.163 108.158 382.554 99.8774C377.213 100.189 373.284 109.375 367.437 105.133C367.928 104.054 368.844 102.83 368.55 102.013C365.985 101.966 364.685 105.766 361.73 104.556C363.422 102.252 365.487 101.111 367.812 100.729C368.599 99.8728 367.456 99.6296 367.82 98.8965C364.015 99.4266 361.096 102.641 358.041 105.456C356.705 104.975 357.499 103.803 356.942 103.066C358.681 99.6505 361.31 98.9524 363.599 97.2284C360.527 94.865 358.238 102.56 354.739 101.958C353.546 101.133 354.652 99.5523 353.644 98.6528C354.284 97.4577 355.201 97.1448 355.694 95.5494C353.707 94.5193 351.115 99.6419 348.309 99.1821C349.77 94.2338 354.512 94.5811 355.337 90.7893C353.332 89.78 352.205 93.8041 350.558 91.1336C352.155 88.612 355.775 86.6568 358.678 86.9518C370.739 88.1886 383.825 87.4543 394.59 83.4368ZM360.185 78.5409C357.695 79.4718 354.716 83.4648 352.434 81.9954C353.591 79.8955 355.973 78.773 356.143 76.5141C355.034 74.8182 353.868 76.5395 352.277 75.9508C352.372 74.8026 352.948 73.497 352.104 72.649C349.091 72.1789 348.299 78.4285 345.277 77.9354C344.773 74.4972 346.435 71.7195 345.687 68.0459C354.127 58.0117 357.587 72.2255 360.185 78.5409ZM340.307 74.9876C339.075 74.3765 337.867 73.756 338.848 72.4148C340.286 72.9529 340.852 73.7907 340.307 74.9876ZM320.328 52.5624C326.981 63.194 336.099 73.0093 342.855 83.6043C338.998 86.4524 335.976 91.803 331.226 91.9773C333.494 87.652 338.443 86.6986 340.097 83.5926C336.421 85.0547 331.18 85.5912 330.494 90.6934C328.702 88.9506 330.115 86.1483 328.119 84.4564C324.97 88.4031 319.755 91.9189 314.652 92.8382C317.44 89.5137 320.998 88.5593 324.252 86.6371C324.597 85.1471 323.273 85.8732 322.233 85.1712C322.793 83.781 323.498 82.8242 324.266 82.0665C318.433 82.6798 314.462 93.7791 308.765 91.7032C310.885 89.7829 312.987 87.8166 315.231 86.2391C311.381 85.1159 308.033 93.5079 303.415 93.1479C303.528 90.7513 306.663 90.2198 307.668 87.4862C306.044 86.6061 303.607 91.2517 301.577 92.2235C298.873 90.9439 301.297 88.347 302.889 87.8359C295.839 89.3779 290.689 96.665 283.709 98.3845C287.805 92.8829 292.702 89.787 297.364 85.9843C295.34 82.3515 292.038 89.9971 289.616 91.2666C285.373 88.8801 282.077 95.0153 278.185 96.5274C279.426 90.529 289.381 85.4493 291.313 81.5648C288.227 83.3333 285.28 85.5456 281.552 85.3706C281.96 78.8194 289.518 78.133 291.721 74.4303C284.51 77.0431 278.924 84.5578 271.596 86.8006C275.551 80.7328 281.201 72.2565 288.966 68.9195C282.666 68.7027 279.56 78.152 272.926 76.9207C277.189 71.9263 282.152 68.9965 286.599 64.5161C282.283 62.9239 278.8 63.8288 275.913 66.4901C274.926 64.1702 275.83 61.2344 275.743 58.6114C276.877 59.465 275.623 61.0907 276.838 61.9117C291.08 57.9999 305.921 55.9449 320.328 52.5624ZM277.04 106.971C276.812 107.815 276.299 107.814 275.924 108.252C274.7 107.836 275.149 106.87 275.758 105.862C276.599 106.098 276.599 106.598 277.04 106.971ZM265.571 120.478C265.102 121.853 264.902 123.132 263.894 124.676C260.414 120.01 267.046 115.081 270.022 111.698C265.248 112.121 262.68 119.173 258.57 121.546C256.59 118.055 262.226 113.711 264.5 111.68C258.742 111.91 253.904 122.876 248.785 128.105C245.897 120.123 257.684 113.24 261.948 106.724C256.8 107.856 253.767 115.35 249.557 119.31C247.757 118.894 248.979 117.466 247.536 116.922C246.424 121.824 244.568 125.67 241.047 128.8C238.722 118.6 250.19 110.637 256.242 104.325C251.094 105.402 247.61 111.572 243.495 115.812C242.284 116.235 242.39 114.871 240.921 114.514C238.807 118.307 239.026 122.245 235.551 124.201C236.203 113.997 245.299 107.612 252.21 101.371C245.409 102.732 239.227 113.967 232.069 117.412C232.408 115.477 233.831 113.187 232.648 111.735C236.647 108.059 240.217 103.139 244.66 100.792C237.879 101.899 233.558 110.455 227.671 114.28C226.575 113.724 226.905 112.705 226.021 112.076C221.789 115.456 223.449 121.772 218.615 123.034C220.669 110.666 233.312 105.559 238.605 97.289C234.022 97.6261 230.749 101.952 227.156 105.298C227.512 106.614 228.903 103.221 230.108 104.024C227.475 106.011 224.7 112.269 221.8 110.408C219.345 114.414 216.778 118.06 213.853 120.636C214.38 110.027 224.077 105.394 230.498 99.6442C230.229 98.2237 226.039 101.773 226.629 99.9916C228.456 98.1099 230.619 97.2204 232.361 95.0711C225.305 96.6126 220.757 105.717 213.898 107.818C214.271 99.0597 221.147 94.4937 227.769 90.4748C221.818 90.6735 218.328 98.3768 212.451 98.8367C214.398 94.7589 219.497 92.3729 222.803 89.3548C219.835 87.5828 216.987 93.9189 213.763 94.4491C210.307 88.1013 221.399 84.8476 224.681 81.1222C218.736 81.3825 212.397 88.4505 206.592 92.2212C211.556 81.8591 223.923 77.9366 232.631 72.728C238.867 67.7795 245.218 63.2232 252.194 60.5424C248.957 80.3969 272.707 91.4131 272.619 110.248C268.939 113.354 271.137 121.005 265.571 120.478ZM259.614 134.002C260.476 132.246 261.964 132.427 262.945 131.086C263.947 132.929 261.294 134.659 259.614 134.002ZM255.752 132.523C256.095 133.221 257.032 133.737 257.042 134.538C256.02 135.77 254.594 135.8 252.994 135.26C253.632 133.504 254.843 133.442 255.752 132.523ZM257.813 125.759C259.543 126.925 258.873 128.868 257.979 130.883C255.87 129.849 257.011 127.748 257.813 125.759ZM254.881 122.446C255.959 125.545 252.939 130.279 250.969 133.789C244.8 130.454 253.066 125.973 254.881 122.446ZM249.496 135.792C248.738 136.917 247.235 135.779 245.991 135.406C246.403 134.488 246.827 133.621 247.481 133.399C247.721 134.339 249.198 134.875 249.496 135.792ZM242.486 135.948C240.35 135.129 241.164 133.336 240.294 132.097C241.64 130.295 242.911 128.248 244.374 126.805C245.066 129.258 245.135 133.407 242.486 135.948ZM237.011 126.768C236.416 128.678 236.901 131.57 234.775 132.99C232.973 131.674 234.037 126.018 237.011 126.768ZM232.369 134.994C231.5 134.816 230.86 135.367 229.79 134.618C229.427 133.246 231.399 133.309 232.19 132.614C232.791 133.227 232.685 134.085 232.369 134.994ZM231.877 120.53C233.248 122.369 230.567 126.979 229.633 128.579C227.184 126.897 230.326 122.594 231.877 120.53ZM226.492 133.871C225.546 133.465 224.691 133.038 224.467 132.404C225.349 131.467 227.705 132.059 226.492 133.871ZM223.037 120.668C225.423 119.218 227.319 116.292 229.688 114.841C229.614 118.318 227.392 124.852 224.114 126.722C222.892 124.99 223.481 122.658 223.037 120.668ZM221.902 130.191C220.924 129.699 219.728 129.28 219.506 128.535C220.313 125.559 223.825 128.145 221.902 130.191ZM209.231 120.62C207.508 120.293 209.05 117.334 210.164 117.881C211.892 118.208 210.351 121.156 209.231 120.62ZM214.279 100.676C215.453 102.605 211.815 106.886 210.374 109.27C206.611 106.448 212.405 102.66 214.279 100.676ZM207.411 114.209C205.842 113.194 207.281 111.199 207.987 109.448C208.476 109.691 208.965 109.939 209.454 110.183C209.322 111.317 208.581 113.671 207.411 114.209ZM208.232 95.3411C209.927 96.31 207.726 98.5574 207.112 100.282C204.213 99.2098 206.955 96.3318 208.232 95.3411ZM205.625 101.373C204.646 102.403 203.697 103.553 202.665 104.479C199.747 102.644 204.376 97.1116 205.625 101.373ZM219.777 61.6927C220.266 61.9413 220.756 62.1789 221.239 62.4326C220.941 63.6818 220.201 63.575 219.76 64.4355C218.454 63.6354 218.885 62.4686 219.777 61.6927ZM220.634 76.3511C220.352 77.0294 219.793 76.892 219.524 77.6268C217.243 76.5796 219.782 74.4415 220.634 76.3511ZM222.696 66.8327C221.497 65.7964 223.544 63.1705 224.915 64.2757C224.613 66.1633 224.03 66.2575 222.696 66.8327ZM221.762 72.3215C220.982 71.8672 221.439 71.008 221.954 70.131C223.079 70.4562 224.007 70.1608 224.716 69.2209C225.973 70.8672 222.551 71.0767 221.762 72.3215ZM225.672 60.0676C223.741 56.4532 229.456 54.1922 231.044 52.2199C231.745 55.1344 227.876 59.809 225.672 60.0676ZM219.009 68.6495C218.597 67.4737 219.758 66.9849 220.494 66.636C221.748 67.6043 220.606 69.361 219.009 68.6495ZM240.756 62.142C241.038 60.8193 241.916 61.3033 242.422 60.6866C243.576 61.4252 242.002 63.293 240.756 62.142ZM255.304 62.5642C257.031 64.0632 257.564 61.9433 259.17 63.1275C258.399 65.4292 256.628 64.7211 255.654 66.4128C254.349 65.5238 254.449 64.165 255.304 62.5642ZM259.904 62.584C259.787 60.5642 261.755 61.254 262.669 59.8465C263.047 61.0198 261.101 63.0647 259.904 62.584ZM259.155 67.7092C257.862 67.0322 258.075 64.8599 259.536 64.2332C259.902 64.4168 260.267 64.6005 260.638 64.7845C259.995 65.8794 260.456 67.2813 259.155 67.7092ZM261.126 80.1644C259.776 80.5774 258.758 79.1605 260.032 77.7807C261.283 78.2933 261.577 79.1047 261.126 80.1644ZM267.603 71.0405C269.312 73.1215 265.614 76.2983 263.538 75.4168C263.375 72.6991 266.095 71.6803 267.603 71.0405ZM263 72.8537C260.68 72.1646 262.897 68.9295 264.122 68.8292C265.639 69.3622 264.033 72.4941 263 72.8537ZM267.174 89.1719C266.045 88.5243 265.101 87.813 265.703 86.5983C266.94 86.2821 268.551 87.6889 267.174 89.1719ZM274.979 68.3181C275.873 68.0257 276.356 69.4182 277.913 69.7987C276.324 71.7765 274.705 73.652 272.737 74.5342C271.421 73.1445 274.501 70.3034 274.979 68.3181ZM283.311 57.3648C281.898 58.6617 280.137 58.9042 278.513 59.5461C277.371 57.131 281.597 56.2778 280.009 53.8672C281.993 52.7641 284.04 51.8602 285.731 49.8569C287.093 52.239 282.126 54.863 283.311 57.3648ZM280.843 30.4398C285.819 36.1211 286.245 43.3028 291.261 48.9705C288.934 51.9748 292.281 53.1038 292.154 55.3882C291.487 56.498 288.765 56.1724 288.65 55.9192C286.947 55.5608 289.844 53.7056 287.557 53.5356C288.051 52.557 288.54 51.5835 289.045 50.6113C289.452 49.2539 286.81 48.9011 286.294 47.8505C283.413 48.7125 281.767 53.3022 278.174 52.0322C277.838 48.8734 284.258 50.1217 282.792 46.5596C280.847 45.5826 280.536 49.5915 278.375 48.0037C279.135 46.1956 280.985 45.3821 279.496 43.9847C277.363 43.1211 276.459 45.9235 274.331 45.0603C274.917 43.4832 276.955 43.273 276.56 41.5984C274.779 40.5119 273.738 41.6874 272.506 42.3094C271.24 41.7123 273.436 39.9755 272.152 39.3826C270.242 37.5862 269.898 40.5817 268.109 39.1778C270.334 33.8159 277.013 34.0342 280.843 30.4398ZM271.184 50.3569C270.761 49.1802 271.938 48.6984 272.663 48.3485C274.176 48.7924 272.151 51.5643 271.184 50.3569ZM249.218 19.1414C257.434 34.5368 272.456 47.7104 273.148 65.5668C271.988 66.6943 270.598 67.121 269.09 67.1996C267.2 66.2991 268.84 64.2363 267.454 63.1689C266.303 63.1028 266.162 66.0749 265.039 66.0832C262.891 65.2629 263.293 63.6106 262.852 62.2325C263.59 61.0726 264.729 61.1434 265.263 59.3068C261.524 58.8421 258.399 60.1743 255.128 61.1008C253.781 59.8198 254.537 57.8392 254.961 55.972C251.187 54.7435 249.75 60.5936 246.286 60.3333C244.346 59.8456 246.372 58.068 245.011 57.4025C241.228 58.012 238.634 62.2234 234.504 61.7565C236.004 56.8167 242.341 57.3419 242.083 53.1782C236.82 54.5686 233.41 61.5281 228.047 62.644C229.373 57.2021 235.593 55.1298 239.322 51.3332C237.586 50.3944 236.784 52.305 235.448 52.6024C234.83 51.7884 233.914 51.0737 233.439 50.2151C234.144 48.9804 235.445 49.4858 236.205 48.3943C234.744 45.9214 232.879 49.1556 231.591 50.2066C230.111 49.7819 231.754 48.3249 231.053 47.6434C226.987 47.7257 226.175 57.6121 221.987 57.3185C221.771 50.2416 227.923 45.2979 232.533 42.8854C230.669 41.4314 228.046 45.224 225.9 45.9702C224.764 45.4275 224.859 44.485 224.25 43.7661C224.882 41.3761 226.382 41.5578 227.576 40.8496C228.952 36.2836 223.923 37.7585 221.876 38.4457C231.103 32.3103 240.211 25.9047 249.218 19.1414ZM208.642 82.7075C207.623 81.8849 208.664 81.4927 209.206 80.6955C210.122 81.2046 209.374 82.497 208.642 82.7075ZM218.312 59.125C216.679 57.9332 217.825 57.2045 218.7 55.6441C219.65 56.428 219.121 58.7038 218.312 59.125ZM220.947 43.0182C221.37 42.1008 221.789 41.233 222.436 41.0161C224.302 41.5926 222.164 43.806 220.947 43.0182ZM218.912 48.8669C219.341 48.0166 219.771 47.1607 220.21 46.3168C221.604 46.4238 219.814 49.9193 218.912 48.8669ZM195.786 28.0831C200.803 36.9115 202.749 46.743 212.069 54.1575C212.368 57.0023 214.024 59.4069 216.092 61.6821C215.842 68.1454 211.365 76.6896 206.256 80.1359C205.103 79.5974 204.729 78.8076 204.051 78.1168C205.237 76.4358 206.408 74.7259 207.4 72.4468C204.385 73.5153 202.337 77.5298 199.447 79.0133C198.608 76.2215 203.125 75.0795 204.09 71.7095C200.218 73.3177 197.319 77.789 194.104 81.3695C192.678 80.3157 193.011 78.6804 192.468 77.3389C194.43 74.2121 198.504 72.875 199.481 69.856C194.441 71.2633 190.961 77.4732 186.368 80.2369C183.963 75.3251 189.356 72.1728 192.307 68.5442C187.358 70.5697 183.572 76.1062 178.833 78.7476C176.46 73.7772 183.973 68.4267 187.343 66.5135C183.102 64.2493 180.145 73.7156 175.532 73.4282C175.029 76.1781 172.525 77.708 170.362 78.1696C171.23 69.9262 178.679 65.9041 183.317 60.8219C175.851 62.3374 171.339 72.773 164.669 76.6828C163.264 68.3038 173.471 61.1993 179.099 57.3263C174.671 57.242 171.742 61.6666 168.39 64.7866C166.399 63.8172 167.818 61.7264 165.832 60.752C168.136 58.4846 170.56 56.5375 173.029 54.7328C169.269 53.8888 165.284 60.3376 161.585 62.7423C158.966 56.6143 167.411 53.2185 171.211 50.155C168.018 47.8435 164.457 56.6024 161.249 54.3231C162.283 50.2141 169.795 49.1964 169.753 44.8382C166.55 45.309 164.289 48.6905 160.727 48.095C171.89 39.8251 184.57 36.1822 195.786 28.0831ZM198.7 82.3055C198.955 81.8196 199.2 81.3329 199.444 80.8462C200.471 81.2194 200.396 81.9635 199.807 82.8626C199.448 82.6739 199.071 82.4895 198.7 82.3055ZM197.026 88.3373C196.666 88.1542 196.295 87.9701 195.924 87.7861C196.174 87.2998 196.424 86.8135 196.668 86.3268C197.694 86.7055 197.609 87.4433 197.026 88.3373ZM191.866 89.4189C191.329 90.572 190.199 89.952 189.102 89.4067C189.693 88.1967 189.401 87.2855 190.41 85.9354C190.929 87.0918 190.814 88.4382 191.866 89.4189ZM186.718 87.7517C184.061 87.0867 186.144 83.4193 187.658 83.1856C189.432 83.9383 187.98 86.9598 186.718 87.7517ZM181.744 89.3808C180.593 88.5314 182.025 86.8471 182.311 85.5303C183.816 86.068 182.469 89.1142 181.744 89.3808ZM182.869 83.5235C181.529 82.9374 181.929 80.8739 183.065 80.4112C183.73 81.2065 183.603 82.2633 182.869 83.5235ZM178.996 84.7871C178.08 84.278 178.89 83.2013 179.373 82.2274C180.603 82.7162 179.895 84.5005 178.996 84.7871ZM174.394 83.8562C175.937 84.2635 173.99 85.8194 173.826 86.7844C172.509 86.2667 173.462 84.2013 174.394 83.8562ZM173.67 81.662C173.414 80.7869 174.482 78.6858 175.344 78.3687C176.875 78.8695 175.254 82.8445 173.67 81.662ZM169.969 84.3887C170.098 83.0766 170.505 83.0966 171.459 82.3866C172.966 82.8244 170.948 85.5914 169.969 84.3887ZM167.031 84.7465C166.252 84.2867 166.71 83.4219 167.225 82.5449C168.361 83.0154 167.854 84.5041 167.031 84.7465ZM160.793 78.8572C160.037 78.016 160.955 75.609 161.724 75.2013C162.639 75.9993 162.042 78.3032 160.793 78.8572ZM162.306 70.4411C161.929 68.4569 161.665 68.1922 160.474 66.7676C161.715 64.0133 163.221 62.0902 165.64 62.9424C164.526 65.351 164.883 69.4613 162.306 70.4411ZM156.953 73.7186C155.369 73.3249 156.096 72.1641 155.298 71.5085C156.44 70.2464 158.191 72.3749 156.953 73.7186ZM156.605 67.1205C156.05 68.2222 155.496 69.3185 154.936 70.4143C154.39 69.678 153.689 68.9965 153.843 68.0251C154.566 67.1196 155.265 66.1734 156.605 67.1205ZM154.601 61.9896C152.759 61.4761 153.731 60.0397 153.883 58.8738C155.507 59.454 155.172 60.6836 154.601 61.9896ZM97.0519 41.7912C92.06 50.4958 81.3266 57.8432 74.8614 68.2623C80.0095 56.3201 88.657 46.9961 97.0519 41.7912ZM29.8986 122.292C30.3974 120.036 33.1808 116.767 36.0022 118.478C34.495 121.351 31.9857 121.158 29.8986 122.292ZM31.5012 140.074C31.6724 138.66 33.1843 134.36 34.8339 134.403C36.2645 136.118 34.07 141.082 31.5012 140.074ZM49.3679 136.663C48.358 136.146 49.368 134.502 50.1106 134.287C50.4817 134.471 50.8471 134.654 51.213 134.832C50.8578 136.244 50.0205 136.169 49.3679 136.663ZM57.3101 130.095C58.041 130.463 58.7721 130.83 59.5142 131.198C58.6174 132.823 57.844 134.803 56.183 134.114C56.6749 132.741 56.4398 131.595 57.3101 130.095ZM52.4529 146.926C52.1572 144.115 52.9774 141.245 55.2376 139.607C56.2706 141.409 53.1961 144.545 52.4529 146.926ZM40.5382 181.307C42.0339 180.528 44.4228 179.822 45.8696 181.689C44.3627 184.845 42.113 185.772 39.5969 185.884C40.2545 184.246 39.8405 182.959 40.5382 181.307ZM41.4655 178.568C47.6828 166.952 52.4376 153.531 58.7389 140.904C74.198 151.611 92.2802 151.755 108.027 154.652C109.978 155.124 107.431 157.078 108.752 157.763C114.665 160 118.744 156.147 123.649 162.034C122.61 166.642 123.732 170.539 123.048 175.036C117.646 174.771 113.499 181.586 120.425 184.728C116.109 201.428 107.9 218.273 103.477 234.476C102.192 234.555 101.66 233.204 100.167 233.728C95.4767 236.029 94.135 242.741 100.123 243.801C98.8473 246.353 98.002 248.754 97.3387 251.114C93.6842 252.728 89.6129 253.093 85.1749 252.352C87.3768 250.316 86.5431 247.169 83.3667 245.931C83.1603 248.232 84.4832 250.038 84.8149 252.169C83.0167 253.537 80.4152 252.448 77.6407 250.852C77.9811 249.128 79.1339 249.817 79.6645 248.663C77.1757 247.272 75.9137 249.647 73.96 249.925C61.2669 244.307 37.9948 237.205 32.8183 224.676C37.1197 223.001 38.1283 228.572 39.423 230.743C42.5008 226.63 34.3811 219.863 29.8785 223.195C27.7329 222.275 27.1234 220.845 26.2094 219.525C29.4425 210.385 34.5552 198.54 37.9289 189.172C44.1865 189.781 53.134 178.891 41.4655 178.568ZM76.7292 109.117C80.0258 104.415 88.7452 105.178 95.5107 108.453C103.116 112.136 113.128 121.859 119.541 129.245C125.724 136.357 127.14 148.703 124.034 157.642C101.299 144.993 80.3201 154.686 60.2331 137.986C61.5846 129.274 73.4426 118.802 76.1689 112.956C76.8756 111.405 75.8147 110.396 76.7292 109.117ZM121.92 179.066C121.468 179.92 122.007 180.461 121.172 181.441C120.408 181.71 118.822 180.916 118.598 180.138C119.253 178.394 120.353 178.034 121.92 179.066ZM100.5 241.241C99.072 240.793 98.9325 239.927 98.2947 239.222C99.3823 237.584 100.57 236.236 102.537 237.226C101.448 238.675 102.093 240.575 100.5 241.241ZM67.3055 302.091C68.1837 302.647 68.2791 303.939 67.1132 304.281C66.5031 303.651 66.1669 302.443 67.3055 302.091ZM66.1776 306.121C65.1917 305.585 65.1317 306.357 64.7156 305.386C64.9597 304.255 65.8165 305.016 66.1852 304.294C66.7898 304.707 66.7017 305.339 66.1776 306.121ZM55.6645 313.218C53.2615 308.201 46.6088 305.63 41.7188 300.71C39.6465 298.629 38.4737 295.896 36.4103 293.915C33.0768 290.743 28.4433 289.498 24.6465 286.179C22.3563 284.171 22.1753 280.818 20.4538 278.103C16.3861 271.725 10.7879 264.991 9.11326 258.646C14.5475 246.759 19.9724 233.483 25.2666 223.185C40.8352 240.256 74.1548 257.995 95.4687 254.775C90.5302 268.695 84.5093 282.603 74.8854 294.435C69.8612 300.604 56.0013 301.029 55.6645 313.218ZM46.6619 307.322C39.6841 304.12 32.9456 298.194 30.7118 292.434C37.2149 297.005 40.1021 302.764 46.6619 307.322ZM10.5499 267.628C8.97359 268.223 8.79479 265.776 8.16978 265.051C9.36772 264.582 9.90782 266.906 10.5499 267.628ZM5.96978 263.033C6.54013 261.944 9.11104 263.284 7.98338 264.503C7.05981 264.099 6.18272 263.672 5.96978 263.033ZM167.943 409.986C174.882 409.652 183.527 414.477 191.303 416.678C185.677 416.853 175.075 414.288 167.943 409.986ZM324.53 432.214C327.572 429.648 331.815 430.736 335.225 429.324C334.264 430.845 327.991 432.085 324.53 432.214ZM349.967 424.801C350.724 424.326 351.292 423.264 352.543 424.271C351.958 425.259 351.118 425.506 349.967 424.801ZM291.022 432.82C260.283 435.938 224.814 426.694 188.742 413.549C181.932 411.06 174.928 409.139 167.961 407.237C161.327 405.429 153.823 404.469 147.911 402.216C136.358 397.813 125.79 390.147 115.949 384.326C110.69 381.211 104.472 379.741 99.5912 376.572C63.4271 353.026 34.8761 327.515 15.0291 297.856C9.36947 289.395 7.68324 278.162 6.31727 268.703C22.4938 284.487 30.7139 303.999 55.1023 316.147C54.5513 325.553 64.6741 339.974 76.5682 334.727C95.0641 347.75 113.71 361.434 133.483 373.401C138.123 376.212 143.589 377.882 148.189 380.784C150.494 382.239 151.982 384.658 154.236 386.12C161.509 390.85 170.618 392.638 179.602 396.105C184.563 398.025 189.496 401.597 194.318 402.572C198.556 403.437 203.39 403.685 209.393 405.563C223.469 409.976 237.767 411.245 251.897 413.608C267.51 416.206 283.972 417.37 297.904 417.451C308.337 417.507 317.286 419.41 326.614 419.026C335.561 418.658 344.018 417.112 353.873 416.202C354.413 416.149 354.795 415.974 355.355 416.027C355.623 416.242 355.53 416.574 355.896 416.757C338.258 432.196 313.746 430.499 291.022 432.82ZM64.4872 315.817C65.582 316.39 64.2277 318.947 63.0075 317.831C62.5906 316.655 63.7509 316.166 64.4872 315.817ZM84.7288 318.649C85.1382 317.402 85.9759 317.473 86.5735 316.824C87.223 317.018 87.0303 317.487 87.4966 317.74C86.8937 319.031 86.0989 319.704 84.7288 318.649ZM359.231 410.192C354.817 415.186 339.308 415.567 330.304 416.304C319.48 417.189 309.216 415.896 299.191 414.905C274.138 412.404 253.466 413.318 227.794 406.559C206.516 400.96 176.964 394.475 153.148 380.993C147.488 377.793 141.05 375.337 135.698 371.766C133.924 370.596 132.457 368.2 130.747 366.986C121.27 360.298 108.594 356.048 101.177 348.924C96.7119 344.648 87.0777 337.176 80.4246 333.461C103.997 320.205 103.787 287.711 119.568 259.997C132.759 262.148 139.27 269.136 148.954 275.679C152.535 278.103 153.789 281.454 156.479 284.499C159.075 287.46 162.654 289.045 165.826 291.494C170.632 295.19 173.079 299.572 176.644 304.723C184.492 316.074 195.743 322.509 206.542 330.287C232.898 341.697 256.773 345.629 278.486 343.03C272.335 352.352 270.947 364.198 278.571 369.216C293.516 379.068 318.213 362.478 311.055 345.174C326.405 340.882 336.384 359.594 350.007 367.484C359.033 372.715 367.912 371.346 377.585 374C369.158 383.429 367.979 400.292 359.231 410.192ZM90.2664 315.003C90.8245 315.296 89.6952 318.119 88.7863 317.021C89.0902 315.767 89.8306 315.868 90.2664 315.003ZM97.4784 305.323C97.8439 305.507 98.2204 305.691 98.5859 305.875C98.8625 306.629 98.0533 308.206 97.2872 308.436C95.9529 307.857 96.3535 305.787 97.4784 305.323ZM131.835 231.298C140.957 214.345 151.789 194.706 164.241 184.719C172.223 194.269 187.327 201.856 200.61 204.825C200.336 212.397 194.653 217.188 190.41 224.017C189.545 224.151 188.109 222.508 186.368 221.985C184.941 222.175 183.255 225.473 183.956 226.733C184.878 227.953 186.215 227.423 187.817 228.218C178.313 248.013 160.241 272.068 167.132 289.85C161.028 286.254 157.129 281.944 154.669 277.161C156.955 275.198 158.206 272.311 156.342 270.214C155.067 270.665 156.474 271.967 155.235 273.322C154.294 272.922 154.385 272.179 153.771 271.671C152.44 271.347 151.848 273.284 150.804 273.854C142.093 270.686 140.111 263.19 132.63 261.511C130.685 260.017 134.774 256.542 132.102 255.282C129.787 255.538 131.529 258.921 129.691 260.952C126.03 260.271 127.504 256.602 129.513 255.828C126.269 254.956 124.534 258.685 120.87 256.531C122.787 251.329 125.328 245.919 128.11 240.439C129.597 239.703 131.62 240.547 133.255 240.272C135.992 236.233 134.856 233.457 131.835 231.298ZM167.93 183.819C177.736 170.934 208.616 182.753 201.178 201.897C189.366 199.246 174.635 193.121 167.93 183.819ZM186.718 225.828C185.697 225.455 185.777 224.717 186.36 223.818C187.392 224.191 187.312 224.935 186.718 225.828ZM173.799 280.357C175.135 277.321 177.422 277.13 179.159 275.253C178.791 277.546 176.036 280.596 173.799 280.357ZM197.164 283.378C198.903 279.246 197.648 273.833 199.061 269.648C204.583 253.318 215.198 229.497 229.09 219.587C229.539 219.272 230.052 218.928 230.746 219.048C249.811 237.12 277.708 247.156 302.588 256.503C303.18 259.664 303.257 262.986 302.543 266.581C299.395 266.05 293.37 271.809 296.257 275.336C298.379 274.839 298.478 269.452 301.432 269.678C301.424 275.755 301.528 286 298.751 294.947C295.006 307.014 290.421 321.421 281.505 325.275C281.059 327.352 282.206 328.906 284.064 330.227C282.08 333.913 281.103 337.004 278.876 341.382C257.771 341.195 236.724 341.185 211.719 329.206C212.364 326.945 218.023 327.057 214.687 324.274C212.499 323.684 214.16 326.25 213.205 327.193C211.459 327.164 209.731 327.198 208.048 327.358C190.347 318.417 179.887 307.116 173.555 294.448C179.745 298.007 183.964 295.598 189.02 295.785C190.347 290.487 195.251 287.959 197.164 283.378ZM233.892 216.501C235.727 213.725 238.269 213.065 240.354 211.019C250.804 209.205 262.207 212.158 274.024 216.47C289.991 222.289 299.474 239.776 301.677 252.838C277.291 244.756 248.326 234.167 233.892 216.501ZM285.002 327.493C283.602 327.108 284.327 325.541 285.189 325.297C286.611 325.539 285.179 326.719 285.002 327.493ZM308.656 350.839C311.184 352.366 309.996 354.514 308.441 356.701C307.027 356.353 307.098 355.513 306.612 354.865C308.507 354.2 308.249 352.552 308.656 350.839ZM392.288 337.799C391.827 338.559 393.503 338.62 393.936 339.087C392.557 339.87 391.221 340.757 389.151 339.436C390.526 338.125 391.141 338.189 391.921 336.699C384.463 335.939 387.845 344.103 392.824 342.197C391.165 347.307 387.122 353.212 385.578 358.283C380.926 356.27 374.791 355.021 372.862 358.789C370.229 363.943 380.004 365.859 382.07 359.74C386.497 361.341 380.473 366.357 379.818 369.622C364.96 372.397 350.14 365.194 337.542 353.884C329.292 346.496 321.423 341.104 310.335 341.147C310.886 336.995 318.221 332.781 310.751 328.508C314.1 310.384 327.729 286.367 336.77 269.097C339.829 268.465 343.411 269.44 346.882 270.05C347.477 266.919 342.653 267.121 340.28 265.816C343.483 259.447 347.789 256.417 353.013 256.156C355.312 264.038 344.224 273.724 340.759 282.107C337.127 280.689 333.445 279.134 331.549 282.988C331.013 283.78 332.409 283.927 332.097 284.636C335.567 286.48 336.57 280.885 340.385 283.757C332.528 296.79 330.433 307.805 339.342 313.972C343.323 316.721 355.739 316.913 360.142 314.79C376.246 307.039 369.716 292.59 374.286 276.938C382.25 277.148 391.244 273.294 399.153 274.285C403.345 274.812 400.772 284.435 399.273 288.57C396.624 295.943 392.271 308.569 389.583 316.74C387.723 322.43 388.736 326.796 390.815 330.66C393.012 330.695 395.039 331.917 396.711 333.617C396.762 336.704 394.122 337.479 392.288 337.799ZM378.953 359.54C378.089 361.245 376.788 361.668 375.079 360.803C374.565 358.509 378.107 357.703 378.953 359.54ZM310.932 335.466C309.645 334.773 310.061 333.517 310.757 332.171C312.622 332.891 312.016 334.594 310.932 335.466ZM339.077 293.632C340.659 294.631 338.018 296.628 337.414 296.931C336.509 295.718 338.048 294.086 339.077 293.632ZM358.181 304.152C359.724 305.926 356.352 307.5 355.407 307.806C355.031 306.31 357.295 304.918 358.181 304.152ZM376.717 273.096C381.669 264.767 398.325 259.756 398.817 271.348C391.608 271.839 383.314 273.875 376.717 273.096ZM424.211 320.347C421.499 321.399 419.31 324.059 416.462 324.707C416.279 322.676 419.932 320.935 419.98 319.594C415.062 319.861 413.213 329.373 407.801 328.158C408.849 326.233 411.937 322.861 414.085 321.225C409.393 320.954 407.253 328.388 402.464 327.771C404.005 324.112 406.791 324.187 408.558 321.201C405.25 320.797 403.597 325.336 400.817 326.478C398.218 323.412 404.774 322.904 404.334 320.449C401.746 320.111 400.02 326.028 397.327 322.438C398.573 319.412 400.706 319.054 402.136 316.597C399.793 315.701 398.913 319.194 397.138 320.052C395.017 315.862 402.37 313.004 404.371 309.458C400.917 308.91 399.586 314.768 396.247 314.556C395.043 309.776 404.338 305.062 403.665 300.85C401.083 301.374 400.166 306.941 397.204 306.32C398.541 301.962 402.474 301.23 402.21 297.361C400.8 296.025 399.652 297.87 399.079 296.259C400.269 291.646 403.249 287.348 404.111 282.72C406.36 270.494 396.989 257.11 384.67 262.869C381.014 264.577 376.686 268.25 374.327 271.44C366.19 282.398 372.659 296.193 366.091 304.915C365.753 301.418 364.254 303.685 362.606 300.876C361.538 300.4 361.157 302.064 360.577 303.064C359.925 303.27 359.066 302.826 358.188 302.331C355.486 305.268 352.693 307.947 349.506 309.43C349.766 305.584 353.65 304.677 355.612 302.861C355.554 302.168 355.645 301.425 354.698 301.03C352.537 301.608 350.938 303.869 348.971 305.034C349.551 302.162 352.786 299.268 355.071 298.46C351.47 298.378 349.32 302.695 346.206 304.1C346.119 300.694 350.533 300.016 351.95 296.431C347.622 297.227 343.025 304 341.415 307.198C340.5 306.684 341.309 305.607 341.792 304.633C341.491 303.627 340.711 304.467 339.588 303.531C342.446 300.023 345.983 294.956 349.943 292.216C345.325 291.279 342.044 302.253 336.468 301.503C340.133 293.913 348.984 287.655 350.353 282.322C346.988 283.586 344.826 288.49 341.486 289.8C341.649 283.08 353.526 277.554 353.895 271.722C351.917 270.365 351.658 274.206 349.842 273.355C352.189 268.225 362.892 255.442 353.228 253.034C350.543 252.373 343.276 256.642 341.79 258.3C331.21 270.225 322.587 290.961 313.972 310.38C307.538 324.93 306.436 338.854 308.845 349.554C306.596 352.336 304.254 354.818 301.826 357.031C300.551 354.828 305.416 352.574 305.167 350.455C301.82 350.848 300.345 356.906 296.854 356.833C297.622 354.215 301.145 352.99 301.858 349.706C297.671 351.268 295.408 358.632 290.775 358.827C292.282 353.432 297.468 351.303 300.026 346.038C295.369 348.342 292.283 355.366 287.283 356.609C289.117 352.484 293.218 350.576 294.315 347.305C290.162 347.714 288.13 354.547 283.978 354.951C284.976 350.5 288.097 347.773 291.014 344.725C287.388 344.246 286.337 351.609 282.526 350.55C284.181 345.272 290.356 345.152 290.48 341.24C286.616 342.243 284.504 348.53 280.496 349.078C282.934 342.421 289.975 340.195 291.043 335.572C287.654 336.423 285.472 340.939 282.367 342.672C284.101 334.856 294.2 331.593 297.343 324.974C294.337 324.499 292.884 328.754 290.528 330.257C288.941 329.413 289.789 327.261 288.135 329.511C289.598 320.43 296.502 314.794 301.291 308.141C299.061 308.514 297.752 311.64 295.749 312.698C295.105 307.904 300.95 305.398 302.979 300.271C302.855 299.206 300.13 301.436 299.669 299.529C302.617 293.638 306.723 291.243 310.026 286.38C310.598 284.98 308.387 284.478 307.824 283.445C309.143 281.419 314.476 278.612 311.721 275.762C309.554 278.145 307.2 279.981 304.709 281.417C304.098 283.898 305.907 285.632 303.205 288.001C301.248 280.474 310.94 272.508 309.005 264.766C307.339 263.71 306.999 266.728 305.322 265.672C305.735 263.304 305.352 261.186 305.529 258.9C306.924 257.263 305.974 261.011 306.989 261.461C308.297 262.017 309.149 261.184 309.941 260.194C309.269 258.554 307.327 257.032 305.364 257.426C304.604 244.769 294.151 224.014 280.303 215.935C275.607 213.198 269.75 213.903 264.856 211.845C262.611 210.906 261.001 209.132 258.795 208.346C252.769 206.19 246.612 208.817 241.118 207.728C229.817 215.193 214.062 227.949 207.652 245.51C206.918 247.487 205.534 248.981 204.493 250.812C198.174 261.942 195.943 273.702 193.677 283.91C192.637 285.658 192.878 283.128 191.844 282.992C189.602 284.542 188.249 288.804 185.925 290.115C184.039 287.581 190.595 284.846 190.562 281.888C187.817 282.211 186.364 286.471 183.911 287.716C179.412 283.582 190.991 283.049 188.367 278.942C185.273 281.316 182.557 284.862 179.309 286.785C176.036 282.258 186.639 281.132 184.694 276.189C181.891 276.684 180.993 282.931 177.491 281.285C177.656 279.009 180.772 278.437 181.93 276.176C181.296 273.845 179.199 270.995 176.984 271.397C175.313 272.863 178.38 272.771 178.078 273.781C176.788 275.732 175.191 276.815 173.649 277.974C172.431 276.031 175.253 272.775 174.046 270.833C175.421 270.172 178.614 267.879 177.57 265.715C175.466 265.559 174.749 269.548 172.397 268.629C174.338 263.69 177.99 263.904 180.533 260.783C181.602 259.315 179.009 259.043 179.253 257.845C180.355 256.241 181.951 256.114 183.123 254.749C183.005 252.962 184.084 250.778 183.697 249.077C181.441 247.498 180.59 250.188 179.095 250.89C180.176 246.168 185.862 247.304 187.965 242.505C188.325 241.472 186.254 241.235 186.316 240.295C187.7 238.007 189.46 236.837 190.94 234.818C189.575 223.987 201.786 216.158 204.126 204.289C206.622 194.277 202.648 182.801 193.194 177.692C175.85 168.323 154.948 186.667 143.363 206.797C130.769 228.7 118.583 254.772 109.029 278.086C108.097 277.57 109.13 276.422 108.851 275.701C102.7 285.738 100.604 297.931 90.3288 305.847C89.5124 307.228 91.0223 307.85 91.6029 308.789C89.9816 310.036 88.5877 312.023 86.797 312.791C86.6806 313.643 87.2805 314.262 88.0862 314.818C86.2903 315.58 84.6314 316.736 82.9132 317.72C81.0868 317.508 83.8156 315.807 82.746 315.341C81.168 315.814 80.4471 318.914 78.4821 318.258C78.6943 316.602 80.8121 316.082 80.1611 314.971C77.3864 316.331 76.773 319.344 74.0621 321.535C72.4181 321.203 70.6831 320.603 69.1001 320.421C70.2733 318.111 69.6427 316.38 67.653 315.105C68.3494 312.031 71.2652 311.589 71.3451 309.622C68.0457 308.603 66.6502 313.345 64.1475 314.725C62.4179 313.264 64.3791 310.589 64.5466 308.501C65.7594 308.199 64.898 308.794 65.4692 309.421C67.9219 306.599 72.6528 304.068 71.2099 299.919C72.6012 297.965 74.7304 298.234 76.3726 297.004C94.3779 272.367 102.817 242.119 113.148 215.476C119.713 198.521 125.772 180.311 125.125 164.602C125.548 163.685 125.973 162.812 126.615 162.595C128.494 148.674 129.112 135.157 118.838 125.208C111.059 117.151 95.8777 100.626 82.1072 104.002C80.9249 103.262 82.9094 101.509 81.9385 100.706C78.3585 105.32 74.3513 108.673 71.0205 114.033C69.4388 112.034 73.4568 107.893 73.6186 106.167C69.9113 107.31 66.4409 115.62 68.2431 118.592C67.2364 121.131 65.1608 120.388 63.625 121.326C62.1822 120.776 63.8382 119.226 62.7157 118.579C59.5434 123.19 55.9107 126.394 52.3672 129.888C51.1058 129.592 51.6041 128.713 50.3372 128.416C46.1581 132.472 43.8938 139.848 38.5038 141.734C35.9406 137.054 43.7212 133.363 44.6285 130.594C42.6082 130.361 41.4017 132.596 39.8265 133.681C38.3085 133.164 38.3661 132.136 36.6999 131.658C35.596 131.995 34.6797 132.936 33.9299 134.395C32.2704 133.112 34.4335 130.567 32.8427 129.262C33.7832 126.857 35.8369 127.809 36.7334 125.25C34.157 123.98 33.334 127.966 31.2001 127.975C29.5196 123.219 36.587 123.322 38.0536 119.03C40.7744 119.877 43.0101 119.205 45.5867 119.608C55.8556 115.513 57.4781 102.301 62.4459 92.7561C76.7511 65.3521 96.8641 41.4046 118.102 32.1805C129.073 30.7673 139.961 24.1706 151.26 26.8154C143.887 35.3206 145.311 45.6896 153.739 51.0026C146.641 63.6838 153.138 71.926 155.831 81.4094C157.337 82.8692 157.753 81.0458 158.96 81.6051C171.83 95.4579 192.238 94.9079 204.221 88.7396C200.802 95.1597 198.006 102.699 198.987 109.051C199.89 114.981 204.397 124.77 210.503 129.055C227.578 141.031 253.855 141.648 267.558 132.951C271.766 151.055 299.162 156.974 315.314 159.68C316.553 160.342 316.839 158.092 318.076 158.776C321.467 161.78 330.785 159.001 335.946 158.12C347.8 172.117 370.646 178.882 383.028 168.921C402.184 188.55 438.452 193.123 447.492 163.687C467.939 180.071 468.611 196.537 458.125 218.113C452.161 230.421 442.35 243.082 436.442 255.388C425.649 277.835 413.019 301.279 424.211 320.347Z" fill="#F5F1EB"/>
<path fill-rule="evenodd" clip-rule="evenodd" d="M402.913 118.814C404.639 119.741 402.975 119.891 402.535 121.38C404.53 121.794 404.982 118.129 404.948 116.621C404.229 117.26 403.363 117.399 402.913 118.814Z" fill="#F5F1EB"/>
<path fill-rule="evenodd" clip-rule="evenodd" d="M318.766 125.634C316.169 125.846 313.202 129.829 312.295 132.02C314.313 129.47 316.802 128.339 318.766 125.634Z" fill="#F5F1EB"/>
<path fill-rule="evenodd" clip-rule="evenodd" d="M165.934 127.777C161.05 124.792 154.904 119.004 151.245 117.646C155.272 121.099 160.337 125.848 165.934 127.777Z" fill="#F5F1EB"/>
<path fill-rule="evenodd" clip-rule="evenodd" d="M172.8 206.911C170.239 207.464 169.12 211.878 170.946 213.318C176.077 217.361 178.234 205.756 172.8 206.911Z" fill="#F5F1EB"/>
</g>
</g>
<defs>
<clipPath id="clip0_1344_8398">
<rect width="468" height="268" fill="white"/>
</clipPath>
</defs>
</svg>
