<svg width="216" height="332" viewBox="0 0 216 332" fill="none" xmlns="http://www.w3.org/2000/svg">
<mask id="mask0_1344_8498" style="mask-type:luminance" maskUnits="userSpaceOnUse" x="0" y="0" width="216" height="332">
<path d="M216 0H0V332H216V0Z" fill="white"/>
</mask>
<g mask="url(#mask0_1344_8498)">
<path fill-rule="evenodd" clip-rule="evenodd" d="M109.438 8.69429C109.9 12.6728 108.684 16.1937 109.545 20.2729C111.243 18.1744 110.266 15.3375 110.556 12.9213C110.748 11.3189 112.03 9.2928 110.178 8.28027C109.937 8.41529 109.682 8.55821 109.438 8.69429Z" fill="#F5F1EB"/>
<path fill-rule="evenodd" clip-rule="evenodd" d="M112.806 19.0951C112.525 21.4011 111.828 25.1801 114.06 25.8268C113.921 20.2251 114.584 14.8311 115.103 9.405C114.939 9.24317 114.731 9.23744 114.463 9.43572C113.562 12.4773 113.219 15.6668 112.806 19.0951Z" fill="#F5F1EB"/>
<path fill-rule="evenodd" clip-rule="evenodd" d="M117.695 29.3023C118.905 25.6437 119.825 21.9063 119.249 17.7598C117.275 20.3857 117.623 25.4302 117.695 29.3023Z" fill="#F5F1EB"/>
<path fill-rule="evenodd" clip-rule="evenodd" d="M117.098 85.2445C117.837 84.276 117.336 82.9706 117.425 81.8281C117.099 81.9909 116.899 81.7034 116.544 81.9938C116.6 83.048 117.04 84.195 117.098 85.2445Z" fill="#F5F1EB"/>
<path fill-rule="evenodd" clip-rule="evenodd" d="M145.198 67.9248C141.216 67.9735 137.792 70.2616 135.975 72.4289C132.71 76.3291 134.252 85.8751 139 88.5188C147.603 93.3088 157.347 80.6199 151.727 72.998C149.635 70.1483 146.279 71.1482 145.198 67.9248ZM135.291 76.3678C136.391 75.7061 135.877 74.5996 137.214 74.0034C137.465 78.0611 137.447 82.046 139.939 86.7082C136.14 85.4242 136.004 79.3946 135.291 76.3678ZM151.892 78.4087C152.058 82.8335 147.354 89.0554 143.572 87.9022C139.131 86.5502 137.452 73.8452 139.765 71.5994C143.587 67.9031 151.662 72.1779 151.892 78.4087Z" fill="#F5F1EB"/>
<path fill-rule="evenodd" clip-rule="evenodd" d="M78.7023 118.332C77.4891 119.597 77.0668 123.922 77.406 125.201C77.8737 126.982 79.6223 128.187 81.4982 130.031C88.3937 131.685 96.3508 121.989 90.3955 116.979C87.8214 114.807 81.2816 115.645 78.7023 118.332ZM86.2523 128.015C85.2263 127.195 83.8529 127.606 82.4233 128.216C78.5176 126.727 78.2698 121.523 82.0904 119.671C80.7938 119.334 80.9822 121.145 79.4993 121.443C79.0482 117.054 86.6076 116.168 88.8963 117.813C92.2119 122.353 90.4719 125.521 86.2523 128.015Z" fill="#F5F1EB"/>
<path fill-rule="evenodd" clip-rule="evenodd" d="M74.6629 164.883C72.1305 160.727 73.1506 154.914 71.2413 150.951C70.7629 153.644 70.6003 156.42 71.9533 159.603C71.4564 160.863 71.9681 165.942 74.6629 164.883Z" fill="#F5F1EB"/>
<path fill-rule="evenodd" clip-rule="evenodd" d="M117.466 135.471C117.627 133.933 117.711 132.376 117.73 130.794C116.733 131.978 116.172 134.354 117.466 135.471Z" fill="#F5F1EB"/>
<path fill-rule="evenodd" clip-rule="evenodd" d="M118.522 138.436C118.711 139.458 118.273 141.388 119.611 142.037C119.255 141.051 119.856 138.336 118.522 138.436Z" fill="#F5F1EB"/>
<path fill-rule="evenodd" clip-rule="evenodd" d="M65.8175 185.992C65.3426 184.551 64.0053 183.1 63.209 182.6C63.4288 183.365 64.7309 185.892 65.8175 185.992Z" fill="#F5F1EB"/>
<path fill-rule="evenodd" clip-rule="evenodd" d="M58.9039 185.975C58.7376 186.496 59.3462 187.556 59.8907 187.688C60.5033 187.098 61.0989 186.504 61.068 185.735C60.3361 185.839 59.8386 185.123 58.9039 185.975Z" fill="#F5F1EB"/>
<path fill-rule="evenodd" clip-rule="evenodd" d="M138.378 151.265C138.692 152.064 137.894 153.955 139.155 153.743C138.801 153.06 140.065 150.974 138.378 151.265Z" fill="#F5F1EB"/>
<path fill-rule="evenodd" clip-rule="evenodd" d="M233.578 94.8447C231.285 94.2268 229.302 94.8558 228.131 93.3621C226.273 91.0021 226.757 84.5556 226.923 82.7174C222.941 77.9234 224.156 72.1798 220.637 67.8079C219.083 65.8823 214.439 64.3071 211.932 62.9707C208.775 61.2803 205.797 59.6674 203.134 58.51C201.054 57.6051 198.505 57.7453 196.265 56.849C193.001 55.544 190.003 53.394 186.651 51.5501C181.128 48.52 175.45 47.3529 170.528 44.0751C170.384 28.2356 156.747 15.7359 145.809 9.70852C143.301 8.3283 140.989 6.72959 139.092 6.02506C135.969 4.87238 132.956 5.72848 130.067 4.6022C128.122 3.84321 126.603 2.59402 124.554 1.86433C119.854 0.193044 116.299 0.389976 111.029 0.0473998C103.68 -0.434037 92.4039 2.77848 84.3711 8.47558C79.1302 12.1965 75.3653 19.1624 75.6435 24.6695C78.2826 24.9394 79.9884 22.6115 82.7736 21.6552C86.7457 20.288 94.3256 21.1361 98.1764 22.7447C104.031 25.2037 107.509 34.9637 108.244 41.3693C108.699 45.3183 107.564 48.8842 107.679 52.3571C104.415 55.3867 104.012 59.1997 102.867 62.8004C99.8177 62.557 99.9866 67.2043 97.4976 67.7387C92.88 58.2325 76.9131 70.4774 85.8535 77.1574C82.8736 79.1421 80.7895 81.9029 79.0302 83.5511C76.8886 85.5615 74.162 86.4536 71.6125 88.3423C66.1205 92.4166 62.0375 99.1359 55.8489 101.999C55.4616 97.5647 51.5663 96.6471 51.1366 92.6713C48.2263 91.7823 46.9523 95.387 44.9896 97.3994C44.125 98.2832 42.9728 98.7163 42.2932 99.5525C40.194 102.134 40.465 106.868 42.5482 109.11C43.7012 110.357 45.1837 109.297 45.7303 111.212C41.6131 112.568 38.8099 116.38 34.3729 118.85C34.0804 116.593 34.5879 114.918 33.0393 113.127C30.1665 109.788 25.1447 113.101 23.8945 116.619C24.3293 119.584 26.2279 122.395 28.4053 124.443C12.6661 131.826 9.47039 144.888 4.50603 155.901C3.38368 158.398 1.75237 160.689 1.16116 162.622C0.607801 164.405 0.819371 167.312 0.638987 169.702C0.44724 172.362 -0.274466 175.082 -0.124072 176.916C0.0195846 178.656 1.39138 181.144 2.29414 183.974C3.07946 186.41 3.31565 189.318 4.07639 191.062C5.65545 194.665 7.1377 194.647 9.22752 196.587C11.8171 198.982 13.1563 201.427 15.5526 202.431C11.0064 206.849 8.03827 216.854 14.4628 222.763C16.1593 224.321 19.1488 223.935 21.1488 225.816C21.0262 226.433 21.2599 227.034 21.497 227.563C23.865 232.783 29.1163 238.783 32.4254 243.118C34.6409 246.017 36.3824 249.156 38.5241 251.995C39.8532 253.756 41.8578 255.245 43.393 257.032C48.4346 262.896 52.4131 269.319 57.7197 273.918C61.2317 276.971 64.0213 280.612 67.4587 283.996C70.6939 287.186 74.732 289.573 77.7711 292.785C80.727 295.904 83.0994 299.49 85.9561 302.434C91.5699 308.229 97.3918 313.508 103.189 318.673C107.188 322.248 111.625 324.588 115.014 329.523C116.014 329.942 117.231 329.579 118.337 329.602C122.047 333.05 126.861 330.985 131.441 330.69C134.838 330.465 137.461 331.358 140.51 330.472C143.742 329.535 146.659 327.895 150.542 326.808C153.996 325.841 157.609 325.608 161.029 324.502C164.671 323.327 168.398 321.585 172.164 319.9C186.598 313.428 203.785 306.419 215.898 298.375C221.218 294.843 227.187 292.388 232.534 289.077C240.783 283.966 247.002 277.482 253.453 271.248C259.176 265.72 265.803 260.985 270.641 255.497C272.041 253.912 274.41 251.719 273.638 249.3C271.214 249.213 270.84 253.916 268.419 254.479C269.736 251.01 271.599 247.749 272.876 244.55C275.56 237.842 272.709 232.589 270.353 223.65C269.686 221.102 269.602 218.143 268.89 215.415C267.285 209.213 265.599 203.715 264.412 198.517C263.748 195.585 263.511 192.645 262.81 190.038C262.386 188.436 261.416 187.246 260.776 185.36C259.249 180.852 257.287 175.308 256.396 170.351C255.719 166.584 254.837 162.714 254.128 159.007C253.393 155.141 253.52 151.169 252.642 147.874C251.888 145.054 250.674 142.494 250.153 139.57C248.673 131.304 244.91 122.53 242.55 114.394C243.231 110.575 245.898 107.121 244.531 103.59C243.855 101.847 241.666 99.3476 240.402 98.1391C238.57 96.3869 235.265 95.2966 233.578 94.8447ZM222.463 80.6837C220.103 79.9327 218.728 77.0826 218.199 74.9868C219.568 74.8407 220.542 76.0897 221.414 77.7146C221.209 78.199 220.952 78.3466 220.424 78.2705C220.975 79.3581 222.72 79.0429 222.463 80.6837ZM217.548 67.5918C218.196 67.5189 218.723 67.8868 219.139 68.6412C218.325 69.2112 217.442 68.0685 217.548 67.5918ZM175.379 51.3766C176.237 51.0616 176.008 50.4469 176.98 50.1637C180.282 51.1032 184.72 52.8234 187.979 55.0084C196.789 60.9142 211.241 60.6403 218.447 72.5785C216.863 72.7526 215.989 70.3896 214.595 69.8804C216.629 74.6144 218.723 81.575 223.758 83.5119C223.328 84.9053 223.197 86.3828 223.749 88.0455C220.802 87.8333 218.434 85.5755 216.398 82.1278C216.137 87.681 225.598 90.4355 224.783 95.5491C221.494 94.8376 219.123 90.8482 216.234 88.6799C215.668 87.6002 215.552 85.9123 214.187 86.2689C214.811 90.1987 218.153 92.931 220.925 95.1159C222.508 96.3631 225.44 97.1581 224.738 99.4536C224.061 100.114 223.93 98.8408 223.317 99.2751C222.198 99.7948 223.489 100.972 222.285 101.467C221.119 100.327 219.251 99.3153 217.727 97.5527C215.292 94.7229 214.103 90.0926 211.523 89.0557C210.041 89.8241 211.736 91.4472 212.357 92.7908C211.647 93.3484 211.229 92.8383 210.479 93.5182C212.34 97.8773 214.788 102.388 216.808 106.791C211.861 106.542 210.328 96.5462 207.648 93.1581C207.249 96.6308 210.257 101.021 211.853 105.035C211.238 105.278 210.928 105.608 210.756 105.971C212.244 107.776 214.645 110.432 213.535 112.506C210.034 108.648 209.492 102.756 206.81 99.1242C207.207 103.085 209.792 107.634 211.586 111.972C210.171 112.55 209.065 112.016 207.872 111.786C205.458 107.349 205.163 103.488 203.627 99.2893C202.256 99.8791 202.968 101.03 203.658 102.187C203.634 105.615 205.622 109.599 207.586 113.57C206.684 114.149 206.832 115.018 206.16 115.656C202.719 111.271 202.017 105.87 200.54 101.34C198.656 103.781 200.735 107.305 201.93 110.585C199.734 112.69 203.855 115.465 202.185 117.874C202.577 119.166 203.946 119.443 203.737 120.563C202.054 121.324 201.4 118.429 199.489 120.027C199.349 121.472 202.269 121.775 202.094 123.421C201.85 123.557 201.601 123.694 201.35 123.836C199.465 123.683 199.05 121.052 198.428 119.325C197.226 116.02 196.141 112.47 195.731 109.519C194.093 112.634 197.6 119.517 199.467 124.564C198.39 125.188 197.745 124.25 196.669 124.838C195.532 122.884 196.832 121.583 197.183 120.028C196.655 118.926 195.459 120.193 194.953 119.009C193.852 115.959 193.631 113.146 192.823 110.178C191.045 112.862 193.86 116.787 194.241 120.058C193.843 121.115 192.916 122.036 191.962 122.945C190.697 121.729 190.785 119.217 190.142 117.501C189.472 121.851 192.914 127.33 189.317 130.888C188.161 128.715 188.378 126.918 187.847 124.915C186.405 126.103 187.911 128.098 187.974 129.698C187.69 130.727 186.856 129.913 186.202 130.036C186.22 130.901 187.584 132.277 188.393 132.69C188.712 133.815 187.089 134.399 188.559 135.834C188 136.572 186.8 137.146 185.723 137.742C184.332 133.172 184.294 128.964 183.742 124.622C181.61 126.259 184.579 131.028 182.934 133.482C181.841 131.963 183.025 130.136 181.812 129.256C179.811 130.361 182.855 132.842 181.303 134.069C179.686 132.237 179.285 128.827 177.675 128.342C176.695 129.178 178.177 130.681 178.76 131.936C178.175 132.65 177.829 132.615 176.668 133.425C168.579 123.127 166.188 113.738 165.889 103.886C165.66 96.3369 165.135 89.773 168.009 83.6265C167.983 80.8714 168.528 78.2685 168.988 75.6412C169.973 74.8795 170.059 77.3103 170.865 77.1814C171.351 76.627 170.345 75.666 171.406 75.2664C178.067 90.0069 193.199 72.7052 187.307 64.1177C184.023 59.337 177.752 59.1376 170.771 63.332C169.23 57.9613 171.971 53.7602 170.747 48.473C172.548 48.5495 173.504 51.6081 175.379 51.3766ZM224.987 89.62C225.566 90.744 225.491 91.683 225.401 92.6224C224.184 92.7182 223.477 91.0072 222.574 89.9974C223.422 89.7171 224.17 89.7922 224.987 89.62ZM218.931 100.766C219.659 100.65 220.149 101.38 220.662 102.064C219.311 102.739 219.892 101.164 218.931 100.766ZM221.156 104.049C222.18 103.369 222.991 103.47 223.703 103.918C224.17 105.005 223.26 105.718 222.562 106.491C221.924 106.258 221.027 104.704 221.156 104.049ZM216.621 103.023C217.517 102.9 218.748 104.417 218.668 105.438C217.67 105.433 216.739 104.056 216.621 103.023ZM220.533 109.245C220.455 109.566 219.939 109.77 220.068 110.149C219.386 110.527 218.817 109.324 218.972 108.822C219.621 108.497 220.143 108.635 220.533 109.245ZM216.729 102.641C214.239 100.897 213.161 96.6146 212.047 93.9392C212.3 93.801 212.547 93.6602 212.796 93.5231C214.373 96.6158 216.284 98.5101 217.942 101.317C217.283 101.688 216.395 101.996 216.729 102.641ZM218.361 111.743C218.694 112.943 217.293 113.653 216.336 114.495C216.007 113.309 217.405 112.588 218.361 111.743ZM214.914 116.584C214.255 116.956 213.587 117.325 212.931 117.696C212.231 116.614 212.362 115.755 212.267 114.835C213.442 114.38 214.09 115.804 214.914 116.584ZM207.4 119.49C208.69 119.126 209.778 119.47 210.979 119.434C210.878 120.508 209.299 121.176 208.173 121.969C208.519 121.014 207.452 120.122 207.4 119.49ZM208.326 117.679C207.46 116.754 208.189 116.268 208.081 115.556C208.894 115.536 210.182 116.479 210.095 117.333C209.317 118.121 209.035 117.13 208.326 117.679ZM204.428 116.626C203.148 117.063 202.735 114.5 202.211 113.337C203.251 113.138 204.346 115.791 204.428 116.626ZM206.676 122.806C206.267 123.854 204.172 125.348 202.987 125.515C202.802 123.77 205.082 122.539 206.676 122.806ZM196.952 129.853C196.419 130.005 195.651 131.026 195.429 130.057C195.573 129.486 196.585 129.1 196.952 129.853ZM194.112 131.762C193.057 130.168 193.579 129.005 192.608 127.435C192.937 127.252 193.264 127.065 193.596 126.88C193.07 128.32 196.526 130.838 194.112 131.762ZM194.691 128.208C194.305 127.429 195.736 126.95 196.077 127.757C195.537 128.159 195.094 128.255 194.691 128.208ZM194.782 122.661C195.373 123.443 195.473 124.089 195.657 124.757C193.614 125.857 191.465 123.826 194.782 122.661ZM192.243 130.224C192.813 131.206 193.258 132.148 192.76 132.842C192.051 133.391 191.712 132.619 191.204 132.417C190.805 131.483 191.321 130.796 192.243 130.224ZM184.385 138.814C184.169 139.513 182.848 139.909 182.046 140.448C180.676 138.375 178.306 136.697 177.748 134.122C178.612 133.873 178.238 133.291 179.096 133.044C181.102 135.29 182.985 137.664 184.385 138.814ZM158.86 101.347C159.166 102.112 158.985 102.753 158.329 103.263C157.081 102.797 157.785 101.256 158.86 101.347ZM156.748 99.948C156.44 98.6209 157.739 97.7397 158.878 96.8112C160.963 98.4653 158.141 100.565 156.748 99.948ZM160.918 101.496C163.345 103.521 162.193 106.521 162.345 109.097C159.58 107.94 157.861 103.31 160.918 101.496ZM162.165 100.801C160.761 97.9309 158.399 95.0326 162.01 93.1275C162.759 95.8727 162.721 98.4061 162.165 100.801ZM170.699 66.6055C171.806 63.4225 176.172 63.61 177.978 61.5735C180.531 61.4165 182.831 62.1721 184.982 63.4765C191.985 69.1961 181.573 83.2847 175.692 78.6894C172.194 75.9647 171.373 70.1498 170.699 66.6055ZM167.76 42.7075C165.446 31.3173 155.835 18.9241 148.028 12.9979C156.503 18.0155 169.629 30.9689 167.76 42.7075ZM139.149 19.2465C138.449 17.1941 137.733 16.2001 138.64 14.3625C135.865 14.5655 135.028 10.0606 133.416 7.58401C133.664 7.44319 133.916 7.30503 134.164 7.16791C141.292 10.6608 149.709 15.463 155.578 22.6804C167.862 37.8207 169.382 57.0769 167.569 70.2966C163.524 71.2131 166.522 75.3949 164.115 77.403C163.513 75.9545 163.623 73.7563 162.077 72.7223C160.226 75.0388 163.232 78.6714 163.568 81.5876C162.604 83.521 164.157 86.1457 161.857 87.7173C160.953 86.249 161.946 84.3752 160.728 83.4971C158.627 84.5342 161.862 88.7377 160.602 90.682C160.974 90.8496 161.313 91.1543 161.554 91.7658C160.559 92.3106 159.664 92.5085 158.896 92.2793C157.542 95.2797 153.796 97.6297 152.568 100.663C153.403 101.675 154.905 100.302 155.569 101.894C154.099 105.792 148.953 108.19 147.785 111.741C151.397 110.869 152.695 105.968 156.312 103.746C156.898 103.882 157.248 104.874 157.685 105.563C156.707 106.346 155.316 107.361 153.929 107.017C153.952 109.015 156.584 110.329 156.75 111.911C152.798 114.618 153.002 118.457 149.709 121.339C153.733 120.477 154.202 115.157 157.559 112.751C157.322 118.805 150.044 124.731 149.221 131.312C152.077 131.21 152.772 127.1 155.043 125.472C155.326 125.96 155.609 126.452 155.887 126.938C153.655 129.285 150.783 131.463 150.272 134.28C151.356 135.554 152.635 133.178 153.673 133.351C154.585 134.466 154.368 135.273 153.135 135.27C152.852 140.418 155.809 146.448 154.502 151.319C152.629 146.58 153.241 140.434 150.407 136.793C149.26 141.021 151.633 146.203 151.14 150.608C149.102 147.648 149.737 143.626 148.404 140.174C148.066 139.897 147.678 139.793 147.238 139.852C146.761 142.029 147.736 144.843 148.275 147.355C148.829 149.927 150.263 152.661 148.926 154.75C147.678 153.733 148.538 151.665 148.306 150.253C147.316 149.275 146.698 151.959 145.823 151.64C144.703 148.842 145.579 145.544 143.973 143.298C141.92 147.622 146.805 153.829 143.465 157.802C142.567 156.16 142.256 152.962 142.064 150.828C140.611 150.921 141.558 153.24 141.493 154.384C141.114 154.969 139.912 155.328 140.179 156.084C139.795 156.199 139.618 155.586 139.363 155.249C138.722 157.416 139.107 159.856 136.752 161.55C135.696 158.1 134.837 154.703 134.554 151.465C132.452 154.81 136.69 159.879 134.807 163.286C135.606 164.401 136.679 167.004 135.326 168.175C134.186 166.988 135.056 164.698 133.885 162.837C132.98 162.538 134.06 164.521 133.096 164.889C131.334 162.694 133.237 161.489 133.078 159.725C133.265 158.838 131.901 158.955 131.241 158.816C130.86 156.787 130.516 154.771 130.409 152.809C127.559 154.525 132.641 160.15 128.996 162.328C127.064 157.187 126.347 153.255 125.823 148.26C123.749 149.588 125.466 152.882 125.935 155.306C126.469 158.019 126.955 160.742 127.361 162.916C119.042 155.14 115.902 141.031 113.657 131.134C113.391 130.071 112.631 130.785 112.313 129.944C113.575 124.65 111.848 118.541 114.768 113.699C114.456 110.724 116.238 108.323 116.248 105.438C116.659 105.208 117.078 104.971 117.487 104.745C117.637 103.773 116.755 103.804 116.749 102.896C120.301 94.2045 123.101 85.1208 127.635 76.7707C129.495 73.3421 130.105 69.2077 131.779 65.7269C134.285 62.0065 136.536 58.221 138.332 54.3031C137.252 51.1952 138.685 48.7638 138.395 45.8667C139.703 42.8155 141.139 37.9002 141.227 34.2553C141.345 29.6355 140.52 23.2551 139.149 19.2465ZM166.804 132.795C167.139 132.61 167.468 132.426 167.803 132.237C169.332 134.246 170.891 136.154 172.347 138.431C168.983 138.742 169.363 134.58 166.804 132.795ZM161.123 148.578C161.379 149.541 161.387 150.437 161.792 151.442C162.427 152.155 163.286 152.083 164.125 152.081C164.685 153.13 162.318 153.51 161.783 153.707C162.449 151.781 159.009 149.991 161.123 148.578ZM159.105 149.057C157.335 146.725 158.357 144.048 159.693 143.237C160.594 145.481 161.312 147.668 159.105 149.057ZM157.106 142.741C156.141 140.483 155.444 138.298 154.965 136.18C156.781 136.912 158.979 139.484 159.617 141.985C158.458 142.296 157.838 142.353 157.106 142.741ZM161.245 143.658C162.5 143.077 163.241 145.261 161.732 145.65C161.276 144.907 161.364 144.312 161.245 143.658ZM163.263 145.447C164.103 145.424 164.853 145.746 165.385 146.851C164.938 147.283 165.021 147.855 164.171 148.171C163.518 147.168 163.643 146.375 163.263 145.447ZM159.711 136.434C158.856 135.874 159.277 137.816 158.221 137.269C156.807 135.579 155.579 133.255 153.984 132.203C154.953 131.094 155.319 129.814 156.618 128.793C157.211 128.936 157.562 129.919 157.993 130.614C157.9 131.206 156.638 131.483 156.54 132.073C157.549 133.2 158.844 133.306 160.179 133.269C162.808 136.125 162.909 139.677 163.625 142.659C161.113 142.394 159.848 137.601 159.711 136.434ZM151.804 127.274C151.824 125.424 153.283 123.959 154.62 122.473C155.779 123.854 153.477 125.985 151.804 127.274ZM166.742 141.235C167.382 142.166 167.025 142.829 165.954 143.291C164.814 142.244 165.574 141.022 166.742 141.235ZM176.311 140.742C176.819 141.706 175.915 142.286 174.885 142.832C173.902 141.769 175.26 140.612 176.311 140.742ZM169.604 132.525C169.321 132.033 169.038 131.545 168.757 131.061C169.574 130.45 170.822 132.126 169.604 132.525ZM158.723 125.029C160.297 123.812 159.976 122.073 161.958 120.961C163.529 123.465 164.082 125.978 165.579 128.957C162.784 129.457 160.478 128.216 158.723 125.029ZM166.221 138.622C165.008 137.46 163.935 135.803 162.803 134.39C163.215 134.159 163.631 133.927 164.039 133.698C165.274 134.651 168.728 137.133 166.221 138.622ZM160.475 119.523C160.091 121.103 159.474 123.614 157.515 124.085C156.42 121.995 158.768 120.845 160.475 119.523ZM155.967 121.395C154.87 118.483 158.726 116.921 158.789 114.324C160.072 113.711 160.691 115.51 161.58 116.32C159.797 117.915 158.074 120.56 155.967 121.395ZM162.131 131.528C160.886 132.018 159.273 130.596 159.199 129.283C160.477 128.707 161.958 130.578 162.131 131.528ZM168.219 144.939C170.256 143.9 171.812 144.579 173.032 146.455C172.505 147.412 170.592 147.99 169.445 148.78C168.642 147.396 168.509 146.187 168.219 144.939ZM163.482 130.448C164.482 130.133 165.426 130.006 165.957 131.331C165.751 132.055 165.425 131.439 164.721 132.023C164.195 131.898 163.86 131.101 163.482 130.448ZM178.46 142.774C177.661 143.38 177.052 144.04 175.868 144.542C175.361 143.303 177.448 140.665 178.46 142.774ZM167.075 125.858C165.213 125.275 162.387 121.001 162.352 118.792C163.971 118.264 164.745 120.715 166.17 120.864C166.721 122.595 165.896 123.959 167.075 125.858ZM160.254 110.591C162.225 110.907 164.546 114.315 163.494 116.222C162.234 114.885 159.435 112.567 160.254 110.591ZM158.03 107.311C158.952 107.106 160.052 109.098 160.076 109.722C158.978 110.579 158.046 107.989 158.03 107.311ZM155.675 147.096C155.359 145.911 155.132 144.753 154.98 143.605C156.098 143.449 157.083 146.591 155.675 147.096ZM156.94 151.565C156.86 151.132 156.955 150.743 156.87 150.307C157.776 149.963 158.09 151.321 156.94 151.565ZM159.191 155.476C158.53 156.08 158.147 155.735 157.557 156.068C156.682 154.731 157.725 153.913 157.645 152.79C158.92 152.39 159.127 154.875 159.191 155.476ZM154.689 157.354C154.158 157.75 153.716 157.846 153.305 157.8C152.997 156.066 153.195 154.47 152.644 152.667C153.27 153.391 154.187 155.974 154.689 157.354ZM147.58 153.561C147.88 155.086 147.935 156.544 147.035 157.744C146.368 156.214 145.553 153.687 147.58 153.561ZM145.682 161.088C146.124 161.691 145.799 162.085 145.109 162.381C144.715 161.924 144.912 161.634 144.796 161.263C145.157 160.967 145.356 161.251 145.682 161.088ZM141.8 157.76C142.144 159.919 142.37 162.043 142.517 164.15C140.103 163.434 139.197 158.298 141.8 157.76ZM139.304 161.417C139.417 162.839 140.71 166.49 138.264 165.879C139.528 164.181 137.481 162.8 139.304 161.417ZM104.383 127.581C103.637 126.695 103.818 126.054 104.925 125.661C105.673 126.555 105.491 127.192 104.383 127.581ZM110.925 132.658C109.929 132.689 109.894 131.68 109.938 130.946C111.16 130.669 110.491 131.965 110.925 132.658ZM106.661 124.694C106.014 123.485 107.805 122.076 109.083 122.051C110.387 123.739 107.971 124.82 106.661 124.694ZM109.545 87.5239C111.674 90.1235 111.147 93.8555 109.026 94.6023C105.741 95.7622 102.013 86.8421 106.644 85.9059C107.047 86.4323 106.084 86.5809 106.323 87.0574C107.32 87.4939 108.5 87.2445 109.545 87.5239ZM110.361 86.0908C110.609 85.9536 110.857 85.8128 111.105 85.6757C113.618 87.2823 115.03 90.7845 112.505 92.6584C112.913 90.5844 112.488 87.7091 110.361 86.0908ZM120.553 87.835C121.012 88.8528 120.195 89.5235 120.048 90.3789C119.047 90.0273 119.57 88.3329 120.553 87.835ZM126.906 72.6427C126.424 70.7972 127.335 69.3258 127.274 67.5904C129.941 67.9164 128.149 71.4259 126.906 72.6427ZM133.858 47.1001C133.022 44.8106 133.288 42.8201 132.359 40.5044C132.621 40.3035 132.834 40.3082 132.994 40.4711C133.378 42.7074 134.545 45.1602 133.858 47.1001ZM134.067 36.6349C136.145 40.2231 137.894 43.7272 135.593 46.1292C135.052 43.7654 131.715 38.8996 134.067 36.6349ZM134.628 49.58C133.851 49.3735 134.035 48.3762 133.893 47.7291C134.72 47.0673 135.764 49.4587 134.628 49.58ZM135.63 34.7941C135.993 34.5053 136.196 34.7881 136.514 34.6274C137.212 35.5027 137.123 36.1661 137.147 36.8579C135.922 37.1357 136.304 35.576 135.63 34.7941ZM136.722 26.426C137.283 27.4033 137.074 28.1721 137.635 29.1494C136.582 29.9178 135.842 29.5815 134.76 30.43C133.4 28.6457 134.919 26.6813 136.722 26.426ZM132.126 24.143C133.305 23.6904 134.565 26.1134 133.67 26.8341C132.524 27.0778 131.962 24.8152 132.126 24.143ZM137.483 31.1718C137.595 32.0304 137.807 32.9094 136.838 33.4711C136.292 32.5017 136.508 31.7309 137.483 31.1718ZM135.375 15.5404C134.347 16.4058 133.354 14.9543 134.814 14.563C135.001 14.8863 135.188 15.2134 135.375 15.5404ZM106.351 66.0242C108.962 60.3461 110.029 53.0906 109.668 46.7165C110.534 41.9761 109.785 35.9419 107.808 30.9405C107.029 28.9903 105.024 24.7671 103.726 23.8477C97.5136 19.4806 86.7412 17.6785 78.7969 21.6105C78.1112 17.5903 82.2269 14.6502 85.3064 11.8274C86.744 10.5123 87.824 8.68621 89.4322 7.5831C92.2416 5.65395 96.981 3.95302 100.316 3.11879C105.677 1.78754 113.792 1.98744 119.477 2.76097C123.831 3.35517 129.902 5.61 131.884 10.0511C132.444 10.8253 131.047 11.0589 130.816 11.6224C131.402 14.0976 133.533 16.6292 135.116 17.9482C133.861 18.9165 133.859 20.2186 132.345 21.1156C131.349 18.9185 130.366 16.7258 129.569 14.5851C128.306 16.6497 130.265 19.5882 131.385 22.2978C131.088 25.8615 132.894 30.0004 131.454 33.2523C131.819 34.4397 132.796 33.4406 133.296 34.1635C132.714 38.062 128.993 41.1038 128.76 45.1008C129.911 43.8336 130.121 42.3062 131.36 41.0587C132.555 44.0782 131.811 48.3256 134.649 52.4759C134.061 53.0074 134.622 53.845 133.723 54.2871C132.351 50.6578 131.241 49.5425 130.99 46.1195C129.603 47.4125 130.361 49.6523 130.511 51.5583C130.651 53.3118 130.437 57.2635 131.871 57.9094C133.544 58.6683 132.355 59.411 131.541 61.3306C131.009 62.5929 130.98 64.3692 129.553 64.7072C127.005 62.3282 129.661 58.5817 128.096 56.4671C126.444 57.9379 126.989 61.131 126.696 63.7197C126.383 66.3854 126.421 69.293 125.286 70.9708C123.073 66.2189 127.83 61.535 124.131 56.4194C122.332 53.9429 117.174 52.3555 113.758 53.8073C104.976 57.5495 112.925 77.0365 123.382 68.7995C123.654 72.2442 124.66 75.8837 122.502 78.6691C120.843 75.9302 122.289 72.9923 121.077 71.059C119.003 74.6871 122.474 79.8266 119.94 83.3318C118.715 80.4398 119.668 77.0882 118.727 74.9556C116.695 79.7698 120.326 86.1141 117.261 90.6494C115.899 87.5883 116.449 83.2872 115.527 79.6563C114.522 81.7849 116.079 84.6238 115.012 86.7337C112.108 83.6395 108.183 84.1795 104.171 85.0306C98.7741 90.6474 105.213 101.091 113.03 95.2743C114.196 94.4102 114.486 93.3193 115.022 91.8966C117.893 95.77 114.926 99.8429 113.711 103.299C112.933 103.269 113.235 101.812 113.224 101.308C112.763 102.143 112.365 103 112.08 103.882C110.746 103.671 112.13 101.72 110.672 101.441C108.614 102.597 110.412 104.806 110.301 106.494C110.676 107.391 111.471 106.814 112.001 107.162C112.075 108.35 112.009 109.503 110.501 110.262C108.972 108.565 109.884 104.774 107.941 102.965C107.43 106.333 109.373 110.37 108.117 113.53C107.032 112.376 107.879 110.139 106.147 110.103C105.079 113.255 109.041 117.771 105.021 120.114C104.228 119.146 104.645 118.498 103.856 117.529C102.65 118.919 104.101 121.033 103.488 122.581C101.17 124.497 99.2278 126.512 98.1928 128.776C98.5326 130.043 99.6071 128.705 99.9188 130.071C97.721 132.704 96.1121 135.496 96.0389 138.71C99.8796 138.337 100.505 133.632 103.071 131.547C103.446 132.201 103.819 132.852 104.2 133.504C101.233 137.645 98.6363 141.894 97.2117 146.454C101.174 145.505 100.588 139.828 103.757 137.304C105.522 139.127 104.135 140.679 105.724 142.991C103.341 147.092 101.182 151.243 97.9311 155.104C96.4545 153.464 97.7562 152.578 97.7313 151.335C96.2443 153.127 95.816 155.218 96.0136 157.471C96.7422 158.102 97.8204 157.482 98.918 156.816C99.6806 158.468 98.2527 159.521 98.3787 161.003C98.7202 162.021 99.6344 161 100.074 161.668C99.7569 163.301 100.171 165.137 99.3159 166.617C97.5889 167.546 96.8608 164.915 95.1775 165.7C95.6669 167.12 97.8119 168.618 99.1987 169.269C99.3048 171.498 100.906 174.134 101.375 176.458C100.601 176.993 99.661 178.165 98.6372 177.988C97.3817 174.621 96.6004 171.382 95.5521 168.074C93.7182 169.52 96.1007 173.845 96.9064 176.69C95.3467 177.708 95.5606 179.213 94.4142 180.343C92.2181 178.061 92.5248 173.673 90.6151 171.471C89.5238 173.512 91.5899 176.412 91.9055 178.835C89.9168 179.39 90.1352 181.433 88.8537 181.515C87.4463 179.847 87.6562 175.869 85.8986 174.111C85.1835 177.009 87.0464 180.613 87.9625 183.955C86.7145 185.225 86.09 187.662 84.8693 188.266C83.0496 183.784 82.154 179.555 80.2006 175.03C79.6393 177.011 80.4579 179.365 81.4534 181.77C80.5625 182.901 80.2664 184.197 78.8219 185.178C77.6676 184.039 77.5535 180.498 76.0785 179.273C75.1653 180.538 76.8999 182.525 76.8438 184.022C75.3897 185.9 75.8768 188.299 73.3174 189.871C72.3359 187.219 70.558 183.431 69.1317 180.895C68.0569 182.584 70.4498 184.112 70.6711 185.855C70.8784 187.45 69.9018 188.776 68.7057 189.86C67.6909 189.516 67.2625 187.053 66.2449 186.714C65.5835 187.98 67.8225 190.03 68.4207 191.632C68.0352 192.49 67.8214 193.396 66.4996 194C65.7138 192.818 66.0919 191.962 65.3084 190.787C64.2474 191.594 66.1521 193.214 64.8374 193.956C63.447 193.434 62.686 190.66 61.4123 189.726C60.5794 191.016 63.5602 193.335 63.3419 194.789C61.3422 194.783 59.8628 193.204 58.2165 192.158C56.0766 190.791 53.6212 190.075 51.8559 187.952C49.9357 185.63 48.5629 181.545 46.8951 178.761C42.358 171.184 46.7447 163.167 45.7245 156.785C47.5379 154.295 47.3404 151.141 48.7335 148.317C50.87 143.977 55.6182 140.841 56.3837 135.961C62.1553 129.828 67.7846 123.652 72.1285 117.135C77.3433 114.268 78.7748 109.322 81.7307 105.308C84.7446 101.214 87.3339 97.2508 90.4436 93.6452C93.3609 90.2728 95.7672 85.4183 98.1756 80.2758C100.579 75.1306 104.233 70.6388 106.351 66.0242ZM124.109 60.9523C124.892 63.9714 122.801 69.0894 118.774 68.7872C123.019 66.845 121.948 63.4591 124.109 60.9523ZM116.264 67.2756C112.6 63.5671 111.522 57.2652 116.87 54.6519C124.299 54.7636 123.859 67.1894 116.264 67.2756ZM108.537 147.895C107.303 146.255 106.958 144.854 107.802 143.776C109.655 145.499 114.341 148.42 113.306 151.048C111.274 151.578 110.683 146.973 108.537 147.895ZM121.622 165.482C121.2 165.991 121.138 166.587 120.164 166.939C118.59 164.931 117.241 163.187 116.536 161.212C118.617 161.247 119.636 165.086 121.622 165.482ZM107.286 138.894C106.135 139.275 105.454 136.563 105.208 135.853C106.135 135.579 107.35 138.142 107.286 138.894ZM97.9162 135.723C98.1871 133.141 101.124 129.232 103.284 128.522C102.034 130.946 100.288 134.288 97.9162 135.723ZM114.51 151.997C115.726 151.179 116.408 153.508 115.245 153.844C114.407 153.623 114.333 152.549 114.51 151.997ZM109.903 142.288C110.97 141.951 111.775 142.568 112.737 142.64C112.674 143.591 114.055 144.927 113.927 145.852C112.271 145.787 110.976 144.44 109.903 142.288ZM114.166 159.945C112.953 160.168 110.969 158.046 112.862 157.115C113.798 157.525 113.93 159.085 114.166 159.945ZM116.522 163.476C115.651 164.269 114.902 162.634 115.036 162.042C115.626 162.205 116.062 162.889 116.522 163.476ZM114.275 169.264C111.556 169.411 106.482 165.956 111.287 163.494C112.657 164.593 113.88 166.184 115.1 167.832C114.065 167.534 113.262 166.417 112.305 165.837C111.459 167.378 114.498 167.784 114.275 169.264ZM107.86 171.228C108.698 170.715 109.424 170.633 109.804 171.76C108.913 172.452 108.397 171.825 107.86 171.228ZM111.068 176.226C110.643 176.268 110.492 175.305 110.011 175.523C109.343 176.104 109.977 177.025 109.611 177.686C107.774 177.471 107.734 175.231 106.973 173.667C108.399 173.737 112.902 173.85 111.068 176.226ZM107.551 167.841C108.281 167.446 108.94 168.895 108.785 169.413C107.525 169.98 106.971 168.658 107.551 167.841ZM104.935 166.723C104.618 164.504 107.404 163.128 108.352 161.251C107.75 163.104 106.866 165.909 104.935 166.723ZM116.664 175.687C116.534 176.134 115.944 176.454 115.316 176.762C114.677 175.866 114.527 176.203 113.59 175.467C113.583 174.922 113.907 174.456 114.794 174.145C115.363 174.856 116.163 174.733 116.664 175.687ZM117.308 173.388C118.206 172.674 118.559 173.917 119.042 174.68C118.191 175.229 117.19 174.031 117.308 173.388ZM108.227 156.476C107.716 157.349 108.525 157.303 108.965 158.326C105.908 160.999 105.57 164.418 102.53 167.098C98.1347 166.005 102.029 161.082 103.409 157.228C104.824 153.281 104.82 150.784 106.234 147.89C107.296 147.091 107.634 148.873 108.249 149.671C107.749 149.947 107.546 149.185 106.971 149.737C107.932 152.586 111.163 153.505 110.88 155.96C109.81 156.809 109.279 155.707 108.227 156.476ZM108.576 179.879C106.795 181.497 106.189 178.936 104.607 179.832C104.112 178.321 105.181 176.147 106.181 175.72C106.849 177.311 107.395 178.647 108.576 179.879ZM109.311 181.733C109.466 182.441 105.413 184.102 105.201 183.706C104.761 182.906 108.289 182.194 109.311 181.733ZM102.447 180.075C101.57 180.475 100.798 180.483 99.8214 181.218C99.5673 180.603 99.688 180.078 99.0854 179.364C99.8222 178.655 100.367 177.082 101.785 177.206C102.002 178.159 102.307 179.136 102.447 180.075ZM103.311 177.004C102.266 175.626 103.909 175.304 102.402 174.279C103.226 173.818 104.057 173.354 104.882 172.893C105.102 174.464 104.327 175.77 103.311 177.004ZM101.133 172.078C100.738 171.494 101.08 171.103 100.925 170.579C101.492 170.561 102.045 170.555 102.373 171.385C102.228 171.881 101.637 172.209 101.133 172.078ZM97.5637 179.569C98.0215 180.794 98.7462 182.089 99.0445 183.267C98.233 183.913 97.676 183.653 97.0223 183.747C97.6204 182.275 94.5423 179.872 97.5637 179.569ZM95.7494 181.547C96.9783 183.764 94.0559 182.974 95.7494 181.547ZM89.366 184.142C90.5143 183.075 90.6519 180.65 92.1038 180.357C93.8365 183.099 92.9157 185.112 90.9193 186.838C89.9416 186.468 90.3278 185.147 89.366 184.142ZM83.2576 189.498C82.3296 189.597 81.1574 190.539 80.3569 190.151C80.1029 189.536 80.221 189.016 79.6185 188.301C80.7597 187.309 80.5397 185.937 81.9978 185.031C83.0729 185.937 83.0814 188.166 83.2576 189.498ZM77.1802 185.784C77.6127 186.386 77.6957 186.886 76.9932 187.177C76.5618 186.579 76.4816 186.075 77.1802 185.784ZM75.2922 191.045C75.7068 190.809 76.1161 190.583 76.5318 190.352C77.3808 191.049 75.5315 192.455 75.2922 191.045ZM70.5022 192.429C69.985 191.391 70.9025 190.748 71.7837 190.091C73.2527 191.606 71.8487 193.39 70.5022 192.429ZM53.3876 195.197C55.6106 194.993 57.7321 195.14 59.5833 196.264C57.9167 197.22 56.3721 197.754 54.8308 198.272C54.3661 197.248 53.2537 196.057 53.3876 195.197ZM49.2315 189.115C48.2217 188.69 48.0883 187.127 47.9285 186.289C48.7279 185.982 50.5149 188.701 49.2315 189.115ZM25.955 145.864C28.4341 142.546 35.5428 142.192 38.2848 144.469C46.6437 152.581 30.6744 162.759 26.1713 154.793C25.0176 152.74 24.6175 147.654 25.955 145.864ZM23.3677 147.635C22.6961 145.595 23.0891 142.747 24.7328 142.021C25.57 144.243 24.7504 146.016 23.3677 147.635ZM26.3507 143.702C25.018 131.411 50.219 136.454 42.42 147.659C38.6766 140.588 32.8692 140.886 26.3507 143.702ZM40.9066 155.294C41.4328 154.545 41.6009 153.692 42.5806 153.067C43.2073 155.303 42.7542 157.238 42.1363 159.135C41.6353 157.83 42.2415 156.822 40.9066 155.294ZM39.8711 157.487C39.9626 158.679 41.0438 160.142 39.9393 161.009C38.5537 160.222 38.0355 157.432 39.8711 157.487ZM58.5143 130.584C59.2562 128.809 61.1512 125.546 63.1008 125.433C62.526 127.41 60.4728 128.98 58.5143 130.584ZM68.3636 118.616C68.6507 120.137 67.0445 121.148 65.8713 122.269C64.4664 120.442 67.4901 119.822 68.3636 118.616ZM65.3937 115.744C66.1326 115.889 67.2848 117.895 65.7833 118.115C64.8371 117.756 65.6986 116.565 65.3937 115.744ZM70.1838 114.36C70.0398 114.113 69.9054 113.871 69.7624 113.628C69.904 113.133 70.4944 112.805 70.9982 112.936C71.552 113.636 70.9197 114.016 70.1838 114.36ZM94.6572 67.3892C90.6497 66.7863 86.0795 70.0488 85.3989 73.5319C82.6912 69.4288 91.8114 62.8337 94.6572 67.3892ZM95.4646 70.4933C92.6176 72.4049 90.4051 74.479 87.7253 76.4359C84.9665 72.395 92.2793 65.8568 95.4646 70.4933ZM80.1187 84.8843C81.7948 83.3271 84.1714 80.5127 87.0812 78.7352C88.0946 78.1013 88.6563 79.0823 89.6292 78.6034C90.588 74.1845 98.143 71.5626 100.678 67.5784C100.256 70.0033 98.5103 72.0789 98.8859 74.7246C94.9329 78.5973 94.7347 83.4908 90.74 87.3592C90.3628 86.7099 90.0451 85.8444 89.3967 86.169C88.3176 87.392 89.777 89.2963 89.3831 90.7035C87.8669 91.2381 88.3959 88.8911 87.0916 88.4285C86.0825 91.2488 87.7994 94.8097 84.8653 97.1089C83.1835 93.0352 80.0865 88.0428 75.8596 88.8903C76.2126 86.8757 78.6438 86.2536 80.1187 84.8843ZM67.1645 96.0056C70.0605 91.0224 78.0428 88.0539 81.0527 92.7712C83.5091 96.6209 82.1519 103.686 77.1545 105.942C72.0536 108.246 67.0145 101.772 67.1645 96.0056ZM71.2585 110.528C70.6923 109.828 71.0529 109.376 70.9065 108.782C71.2644 108.49 71.4685 108.777 71.7908 108.615C72.5016 109.495 71.8629 110.008 71.2585 110.528ZM50.8398 94.4586C51.5515 96.0604 48.8854 95.8938 48.1084 95.9827C47.7719 95.1784 50.3057 93.7572 50.8398 94.4586ZM45.9389 98.4879C48.2254 97.0519 50.0839 97.1443 51.8954 97.4255C53.5047 100.062 54.6166 102.563 54.069 104.619C50.929 105.244 49.7832 108.801 47.0366 109.511C43.957 105.1 45.3746 101.911 45.9389 98.4879ZM53.2771 106.673C53.4163 108.087 51.967 109.066 50.2592 109.977C50.0257 108.629 52.1275 106.973 53.2771 106.673ZM43.503 107.933C41.7785 104.854 41.5695 102.181 43.9799 100.232C43.7295 102.773 44.1997 105.508 43.503 107.933ZM26.6892 116.359C28.6746 114.496 29.2709 117.599 30.8326 117.279C30.9774 114.991 28.4351 115.876 27.7235 114.162C33.1901 111.268 34.8572 121.043 29.5746 122.504C27.3799 121.835 25.4671 118.268 26.6892 116.359ZM6.01511 181.902C4.50506 183.896 7.06775 187.002 6.66583 189.298C4.01139 186.253 3.47407 181.805 2.8711 178.157C1.78733 171.525 2.89865 165.395 4.56021 159.431C9.78921 148.859 12.338 136.592 24.2468 128.065C26.7559 126.276 29.6895 125.047 32.1612 123C34.9346 120.706 38.2072 117.258 42.5695 114.273C43.8052 113.426 45.5719 112.31 46.7877 111.915C47.922 111.547 49.2371 112.23 50.6102 111.72C52.6154 110.969 54.1791 108.936 54.9844 107.338C55.8396 105.647 55.4575 104.36 57.69 102.919C60.7062 100.976 62.7999 99.095 64.7869 97.0119C64.5102 100.674 67.7625 103.471 69.0111 106.616C70.2608 109.764 68.7012 112.982 68.205 115.471C66.3122 113.624 67.3859 110.873 65.7852 108.422C63.2606 111.792 65.5376 116.471 63.9749 120.1C61.8332 118.162 64.2023 112.911 61.9149 110.256C60.6457 114.793 62.3266 120.132 59.4615 124.237C58.1625 120.93 59.7274 118.394 58.4625 115.094C56.2794 116.565 57.5179 119.45 57.519 121.441C57.5273 123.754 57.7089 126.007 57.7445 128.105C56.4019 128.623 57.0387 126.693 56.6184 126.147C55.5019 126.874 56.3431 128.136 55.2303 128.862C53.9999 125.78 55.8854 123.541 55.0414 120.563C51.6711 122.501 54.0882 128.23 53.0656 131.369C53.3752 132.038 55.07 131.589 54.6486 132.421C55.0265 133.214 54.2091 133.669 53.7262 134.231C52.634 134.887 53.587 133.479 53.0225 133.01C52.33 133.858 52.4957 136.027 51.5226 136.111C50.4739 132.731 51.2721 129.854 50.2415 126.481C48.525 128.348 49.368 131.267 49.4737 133.692C49.5825 136.101 50.4559 138.871 48.9563 140.775C45.8102 137.233 48.769 133.765 46.7617 130.688C45.0417 133.587 46.7311 137.419 45.8777 140.555C41.5931 134.421 35.4088 135.072 29.0354 136.39C29.9542 134.342 33.4281 132.778 35.0603 134.311C35.1279 131.134 31.0927 132.507 29.6473 133.457C28.1944 134.409 28.0573 136.132 27.0481 137.499C25.6841 139.353 23.34 140.434 22.468 142.645C19.2753 150.713 26.2168 166.385 37.7832 158.98C38.5148 160.848 38.8466 163.002 39.2522 164.949C39.6478 166.847 40.5854 168.952 39.9422 170.705C38.272 168.687 36.7449 166.167 34.8953 164.795C34.7599 167.623 38.2507 170.178 39.4384 173.252C39.0575 174.38 38.1445 172.882 37.3812 173.103C37.5329 174.378 37.9713 175.649 38.468 176.7C40.7672 181.596 45.8042 184.878 46.5717 189.633C42.9154 185.727 40.128 178.752 36.1335 176.066C39.3947 183.631 47.0347 192.442 51.2915 198.96C48.8032 199.933 47.9328 195.214 46.6623 193.784C45.8281 193.433 46.9505 195.364 45.3486 195.487C41.0157 191.187 38.6253 183.239 33.9977 179.196C34.5909 184.248 39.8718 188.787 42.3432 194.254C41.5776 194.735 41.5716 195.419 40.6391 195.855C38.7252 192.947 37.301 189.756 35.8187 186.912C34.4152 184.229 33.2302 180.967 30.9504 179.607C30.0838 182.655 33.4524 185.66 35.137 188.587C36.9891 191.815 38.5188 195.204 39.9961 198.158C38.5715 199.349 38.4451 200.897 37.3958 202.196C34.2991 199.742 37.919 197.404 37.5278 195.014C35.645 194.09 35.9496 197.278 34.439 197.057C32.9426 192.923 30.0149 187.9 29.1665 184.484C28.1178 190.041 37.331 198.39 32.1896 202.837C29.9727 200.765 31.9734 198.124 31.8212 195.931C30.3813 195.49 31.0753 197.368 29.8725 197.668C27.7463 193.035 26.3626 188.603 24.283 183.977C23.5684 188.668 28.147 194.796 29.2258 199.972C27.8061 200.475 27.9625 201.569 27.2018 202.716C23.3864 196.846 21.7078 187.638 18.1926 182.53C18.1719 186.236 21.0061 190.723 22.2997 194.786C20.8299 195.623 21.0705 196.925 19.385 197.702C15.8264 191.964 13.7165 185.048 10.8698 179.503C10.143 181.43 11.3222 184.263 12.4037 186.727C14.1213 190.643 16.9554 194.891 18.1716 199.022C17.3128 199.757 17.0289 199.996 16.0462 199.891C14.7689 198.239 16.2993 197.345 14.9234 195.661C14.3019 195.064 14.208 196.26 13.6801 196.355C10.2393 188.405 7.04822 180.632 5.18326 173.624C3.71851 179.948 9.9314 187.7 11.3117 195.095C7.44083 192.91 7.88461 185.684 6.01511 181.902ZM50.2741 194.349C49.709 194.371 49.288 193.894 48.9309 193.159C49.8865 192.705 50.1269 193.64 50.2741 194.349ZM41.9382 198.682C41.7007 197.658 42.074 196.8 43.4741 196.214C44.7523 197.474 43.1568 198.761 41.9382 198.682ZM44.383 198.938C44.7238 199.785 44.8205 200.573 43.596 200.994C43.0476 200.229 42.6947 199.509 43.1047 199.003C43.6813 198.443 43.8863 199.212 44.383 198.938ZM41.8259 201.336C41.9661 201.584 42.109 201.828 42.2472 202.069C41.7893 202.464 41.4947 202.27 41.1141 202.385C40.9261 201.914 41.2156 201.582 41.8259 201.336ZM30.0997 202.067C30.2725 203.077 31.2851 204.315 31.2909 205.28C29.6846 206.714 27.9166 202.608 30.0997 202.067ZM23.9481 199.364C24.9059 200.933 25.5141 202.4 25.8428 203.797C24.8252 204.444 24.1705 203.788 23.2949 203.929C23.6247 202.44 22.2479 200.484 23.9481 199.364ZM20.8255 200.781C19.2755 198.914 20.084 197.695 22.1485 196.812C22.1675 198.259 22.0827 199.684 20.8255 200.781ZM47.3778 259.981C44.9137 256.88 41.5257 253.893 40.1422 251.42C39.676 250.588 39.2745 250.01 39.759 249.044C45.2638 253.812 49.9793 261.403 54.9607 268.029C52.3014 266.576 49.9033 263.169 47.3778 259.981ZM157.991 322.651C162.51 320.972 167.446 317.823 171.428 318.058C166.872 319.847 161.885 323.198 157.991 322.651ZM201.678 302.768C205.055 298.724 211.28 297.352 216.475 294.825C213.139 299.112 206.63 300.832 201.678 302.768ZM247.856 137.301C246.704 137.103 247.22 135.626 246.833 134.959C247.807 135.103 247.894 136.747 247.856 137.301ZM242.295 126.504C244.509 133.91 247.545 141.607 249.906 149.411C252.891 159.273 254.367 169.368 256.329 178.8C257.341 183.66 259.332 188.797 260.853 194.057C263.885 204.564 266.094 212.766 268.832 223.87C270.123 229.107 272.596 234.792 272.045 238.559C271.906 239.508 271.067 240.64 270.578 242.293C268.028 250.876 263.706 257.566 256.2 265.196C252.731 268.722 248.454 271.384 244.059 274.889C235.616 281.623 225.752 287.675 216.125 293.086C212.191 295.293 207.329 296.497 203.146 299.045C195.488 303.707 187.217 308.509 178.281 312.29C174.032 314.09 169.738 315.292 165.869 316.961C162.428 318.444 160.112 320.311 157.146 321.19C155.113 321.789 152.601 321.552 150.168 322.182C147.124 322.971 143.754 324.246 140.485 325.326C137.139 326.43 133.707 328.21 130.701 328.852C126.882 329.666 122.44 327.508 118.52 328.226C113.164 323.185 107.668 318.618 101.955 314.846C98.6048 310.974 95.123 307.139 91.0084 303.823C86.8425 300.47 84.0724 296.516 80.1756 292.422C75.8203 287.86 70.5919 283.941 65.9096 279.059C56.4737 269.232 48.7318 256.937 39.4908 246.293C34.0697 240.068 27.9406 233.834 25.4169 227.001C25.1682 226.587 25.2402 226.26 25.4937 225.985C35.5612 221.769 45.277 222.321 55.3648 220.29C59.2558 219.5 61.6526 219.195 65.8547 217.979C72.15 216.164 79.912 212.754 87.66 209.675C91.9098 207.991 96.619 207.072 100.986 205.459C105.467 203.815 110.045 203.176 114.209 201.632C121.042 199.092 126.556 195.53 133.258 191.957C142.214 187.188 151.28 182.999 159.016 178.538C166.619 174.151 173.987 169.074 181.405 164.411C188.959 159.657 196.601 154.967 203.793 150.279C207.156 148.092 209.955 145.056 213.234 142.74C220.261 137.791 226.795 133.282 232.122 127.661C234.555 125.098 236.062 121.696 239.12 119.873C241.705 121.124 241.631 124.294 242.295 126.504ZM59.4455 217.679C61.9733 216.124 66.2085 214.966 69.2327 214.151C66.5867 216.098 62.2406 217.674 59.4455 217.679ZM71.3942 213.915C72.6611 212.345 77.0259 210.764 78.9393 211.64C76.3436 212.691 73.9489 213.003 71.3942 213.915ZM103.978 201.527C104.241 200.636 106.152 200.194 107.066 199.481C107.448 200.615 104.695 201.287 103.978 201.527ZM109.818 200.849C111.675 199.373 117.429 196.531 120.214 196.66C116.496 198.236 113.357 200.796 109.818 200.849ZM121.851 193.8C121.535 192.939 126.691 190.866 127.952 190.714C128.345 191.559 121.851 193.8 121.851 193.8ZM135.888 188.545C137.949 186.17 143.524 184.303 146.071 182.855C143.258 185.955 139.246 186.718 135.888 188.545ZM232.035 123.51C231.908 122.447 233.547 121.859 234.202 121.009C234.149 122.022 233.282 122.814 232.035 123.51ZM238.864 112.58C237.904 113.502 236.855 112.501 236.494 113.584C225.633 129.93 206.234 143.475 185.079 156.536C175.311 162.569 164.411 169.445 154.88 175.345C145.988 180.858 136.463 183.566 126.681 188.518C118.701 192.552 110.161 196.107 102.495 200.089C94.6633 204.161 87.3697 205.409 79.7635 207.937C76.6086 208.988 73.686 210.749 70.5117 211.818C67.9974 212.659 64.9693 212.785 62.2893 213.501C59.2431 214.31 56.3972 215.83 53.7454 216.334C51.5294 216.761 49.5473 216.351 47.5104 216.908C44.2653 217.801 40.6106 219.694 37.1221 221.094C34.0162 221.118 31.8738 221.448 28.974 221.766C27.718 221.908 22.7213 223.222 21.0742 222.3C19.8722 221.629 15.2032 215.399 14.8023 212.552C14.6234 211.281 15.8746 206.174 17.1249 205.757C19.1422 205.091 18.5211 207.188 20.3382 208.49C23.0087 208.404 25.4825 208.197 28.2381 207.955C30.8151 207.728 33.2955 208.333 35.927 208.182C38.8367 208.025 42.7414 207.1 46.4453 206.506C50.1279 205.923 54.0018 205.764 57.0727 204.449C63.3519 201.76 69.5163 197.853 76.6471 197.393C78.9087 194.743 82.7063 194.925 86.787 193.344C89.7703 192.189 92.7048 190.384 95.5142 189.118C100.536 186.847 106.795 185.473 112.18 182.718C116.497 180.504 121.058 178.142 125.624 175.851C129.164 174.077 131.704 171.341 134.169 173.017C134.212 169.871 138.916 169.034 142.049 167.326C143.171 166.323 143.286 168.881 144.278 168.341C146.064 167.66 144.586 166.088 145.778 165.241C155.8 159.288 169.388 151.343 180.372 144.943C184.263 142.676 187.789 139.545 191.189 139.22C192.26 138.686 191.696 137.709 192.615 137.129C206.407 125.411 224.885 114.965 227.084 100.085C227.226 99.5064 228.233 99.1616 228.929 98.7322C229.113 97.6548 228.619 97.461 227.907 96.3942C236.967 93.8755 242.526 106.289 238.864 112.58ZM241.598 111.051C241.482 108.197 242.3 105.601 241.269 102.508C244.492 104.595 242.249 108.65 241.598 111.051Z" fill="#F5F1EB"/>
<path fill-rule="evenodd" clip-rule="evenodd" d="M68.0695 156.284C68.5469 154.011 67.2411 151.246 66.6437 148.674C65.8822 152.116 67.92 156.314 68.2693 160.053C69.0608 160.606 68.8775 157.516 68.0695 156.284Z" fill="#F5F1EB"/>
<path fill-rule="evenodd" clip-rule="evenodd" d="M158.906 202.845C157.763 201.351 156.126 200.702 154.629 199.415C151.778 196.957 149.333 193.343 147.14 193.256C142.484 193.066 139.915 197.243 136.495 199.849C135.69 203.367 135.784 205.317 136.358 209.3C137.209 215.247 138.285 220.032 141.046 227.693C142.749 232.403 144.81 237.657 147.062 242.118C150.519 248.998 155.314 254.048 158.402 260.672C160.236 264.607 161.64 268.818 163.854 271.853C165.918 274.687 169.411 276.746 171.937 279.623C173.542 281.443 174.615 283.554 176.173 284.689C177.336 285.534 178.746 285.444 180.595 286.098C182.328 286.709 183.805 288.041 184.911 287.888C185.801 287.768 189.863 285.346 190.73 284.314C193.233 281.333 191.267 273.705 189.75 268.372C187.954 262.027 187.426 256.554 184.743 251.126C181.906 245.387 178.873 239.531 176.266 233.555C173.498 227.209 170.628 220.765 167.36 215.249C165.95 212.868 163.647 210.568 161.86 207.977C160.688 206.28 160.037 204.341 158.906 202.845ZM140.998 197.979C142.874 206.968 145.181 217.502 145.939 225.933C146.051 227.211 146.938 229.662 145.536 230.365C142.294 219.093 134.129 206.493 140.998 197.979ZM147.59 230.506C145.687 221.122 145.243 212.124 143.041 202.658C143.805 201.695 144.063 200.601 144.147 199.456C143.61 197.897 142.687 197.703 141.96 196.796C143.99 195.54 145.885 194.732 147.599 194.617C150.069 197.301 153.589 200.1 155.223 203.285C152.941 202.696 151.37 199.597 149.11 198.942C146.916 200.6 147.376 204.371 147.519 207.589C147.648 210.279 147.678 212.866 147.787 214.879C148.158 222.161 149.204 230.004 148.141 236.017C147.249 233.987 145.269 231.665 147.59 230.506ZM150.599 241.436C150.375 240.544 150.435 239.737 150.851 239.03C150.605 238.172 149.824 239.208 149.651 238.083C149.239 225.596 148.522 213.022 148.425 200.618C148.694 200.639 148.968 200.646 149.306 200.452C152.586 204.691 156.827 205.496 159.938 210.353C155.938 209.664 153.349 203.959 149.443 202.961C150.966 206.496 155.011 209.104 152.244 212.391C152.622 213.044 152.998 213.693 153.373 214.347C153.663 223.436 153.961 232.351 154.312 241.625C154.419 244.518 154.156 248.072 156.199 250.596C157.028 249.929 156.164 248.797 155.529 247.733C154.758 237.21 154.575 226.846 154.251 216.442C159.853 218.069 159.079 223.93 159.272 229.157C159.399 232.614 159.586 235.732 159.775 238.577C160.362 247.387 160.238 254.14 162.786 261.469C164.413 262.009 163.857 259.426 165.125 259.835C167.124 262.559 169.099 264.83 168.607 267.59C167.527 268.147 168.32 266.309 167.263 266.4C166.694 267.269 168.06 268.677 168.602 269.855C170.179 270.166 169.375 267.496 171.05 267.839C172.758 270.847 171.805 273.133 171.592 275.619C163.661 266.726 155.29 253.34 150.599 241.436ZM180.605 259.909C178.032 259.644 176.903 256.139 177.223 254.038C178.176 253.644 178.654 254.916 179.24 255.823C178.81 256.102 178.545 255.817 178.105 256.135C178.992 257.668 180.255 258.522 180.605 259.909ZM172.461 248.615C174.943 249.237 177.305 253.436 175.769 255.497C174.598 252.802 171.944 250.919 172.461 248.615ZM175.841 266.447C176.22 267.1 176.597 267.749 176.971 268.403C176.798 269.266 175.792 268.616 175.626 269.477C176.697 271.286 177.907 273.124 176.774 274.33C170.622 267.283 173.516 260.94 172.659 254.644C174.868 254.643 177.993 259.635 176.212 261.39C175.462 260.84 174.88 259.661 174.273 258.593C172.721 260.782 179.612 264.577 175.841 266.447ZM170.401 250.739C170.874 251.553 171.34 252.369 171.809 253.184C171.088 257.385 173.008 262.315 171.487 266.3C168.411 264.667 170.997 260.776 168.391 258.648C168.561 258.282 168.873 257.955 169.492 257.715C169.319 257.096 168.819 257.627 168.579 257.255C167.711 251.449 167.62 245.858 166.898 240.091C170.696 240.274 168.377 244.685 169.32 247.145C170.218 245.872 169.272 244.104 170.502 242.927C172.098 245.252 172.241 248.681 170.401 250.739ZM161.892 254.198C160.92 243.208 159.926 232.208 159.761 221.44C162.976 222.176 166.807 227.89 164.479 230.771C164.803 231.606 165.425 231.385 165.713 232.343C166.074 241.651 167.331 251.212 167.856 260.562C164.932 260.136 164.685 254.712 161.892 254.198ZM160.287 214.359C158.565 214.32 158.912 216.399 158.396 217.354C156.993 216.887 155.998 214.933 154.541 214.657C153.986 212.644 153.614 210.688 153.849 208.897C155.491 209.278 157.804 211.236 158.301 213.201C159.07 213.214 159.855 213.139 160.287 214.359ZM169.241 238.456C168.458 238.255 167.679 238.041 166.903 237.823C166.317 236.633 166.844 235.743 166.351 234.576C168.032 234.079 169.855 237.055 169.241 238.456ZM172.436 245.72C173.884 245.684 175.354 248.2 175.826 249.322C174.464 249.294 172.779 246.954 172.436 245.72ZM170.928 241.391C169.836 240.989 170.341 239.702 170.16 238.915C171.379 238.491 171.687 241.012 170.928 241.391ZM172.24 241.951C172.484 241.811 172.735 241.673 172.984 241.536C174.005 242.776 175.719 245.013 176.048 246.286C174.415 246.314 172.709 243.696 172.24 241.951ZM167.315 231.121C167.788 232.738 169.355 233.383 169.398 234.165C168.752 233.343 165.845 232.493 167.315 231.121ZM165.872 228.047C166.112 227.912 166.364 227.77 166.612 227.633C167.669 229.546 170.288 230.608 170.072 232.492C168.369 232.093 167.222 229.71 165.872 228.047ZM160.634 216.103C162.547 217.497 164.281 219.525 165.925 221.873C163.585 222.222 157.646 218.848 160.634 216.103ZM162.969 260.061C162.223 258.692 162.257 257.529 162.134 256.326C163.591 256.319 164.511 259.531 162.969 260.061ZM173.272 273.383C172.709 272.681 173.075 272.232 172.921 271.64C174.051 271.058 174.187 273.199 173.272 273.383ZM180.149 280.203C180.745 281.825 182.34 283.017 182.406 284.12C179.104 283.448 176.654 279.749 173.536 278.406C174.402 276.92 174.074 275.115 175.072 273.667C177.065 275.426 177.351 278.001 178.098 280.06C178.486 280.667 179.21 280.082 179.871 279.717C179.691 278.087 180.753 276.789 180.132 275.042C179.25 275.624 180.203 276.711 179.097 277.235C177.521 275.403 178.485 272.555 178.094 270.361C179.811 271.499 182.121 274.939 182.285 277.073C181.83 277.463 181.535 277.273 181.149 277.381C181.335 278.463 181.987 279.674 182.1 280.733C181.231 281.346 180.961 279.813 180.149 280.203ZM183.369 282.93C184.28 282.432 184.627 283.912 185.669 282.939C186.138 280.636 181.963 280.479 182.958 277.667C184.652 278.341 185.653 281.514 187.087 283.118C186.778 285.16 183.402 285.711 183.369 282.93ZM178.534 266.562C179.641 268.201 181.436 270.16 181.879 271.8C180.066 271.807 179.143 268.627 177.789 266.977C178.038 266.84 178.286 266.703 178.534 266.562ZM185.371 277.29C184.225 277.406 182.872 275.069 182.764 273.901C184.032 273.607 184.446 276.342 185.371 277.29ZM177.669 259.933C180.708 261.832 181.854 265.453 181.573 268.421C179.06 266.447 176.892 262.557 177.669 259.933ZM188.097 278.03C187.764 278.215 187.432 278.399 187.098 278.588C186.544 277.889 186.691 277.372 187.536 277.053C187.718 277.377 187.906 277.704 188.097 278.03ZM184.918 273.659C182.485 271.017 182.158 268.414 182.077 265.877C185.46 266.068 185.477 271.456 184.918 273.659ZM187.998 273.882C186.176 273.676 186.457 270.987 186.386 269.937C188.109 269.995 187.754 272.865 187.998 273.882ZM180.086 257.287C180.725 257.241 181.162 257.929 181.572 258.721C180.838 259.085 180.53 257.954 180.086 257.287ZM182.565 258.169C180.683 255.316 178.451 253.205 176.813 251.034C178.812 251.136 179.716 255.127 181.862 254.68C182.407 255.926 183.281 257.262 182.565 258.169ZM179.162 247.134C177.76 247.405 177.057 245.174 176.053 244.021C177.16 244.794 178.904 245.645 179.162 247.134ZM175.789 238.997C173.972 238.546 169.888 233.641 173.711 233.689C174.745 234.861 175.318 237.332 175.789 238.997ZM172.06 229.115C171.091 229.398 171.317 230.013 170.468 230.33C169.589 229.741 169.028 228.013 168.137 227.427C169.191 227.157 169.533 229.405 170.653 228.933C170.654 227.595 168.851 227.132 168.181 225.786C167.29 224.717 168.796 224.09 168.542 222.999C167.996 220.704 165.205 219.311 164.025 217.436C164.522 217.162 165.017 216.884 165.517 216.605C168.837 219.627 170.258 225.187 172.06 229.115Z" fill="#F5F1EB"/>
<path fill-rule="evenodd" clip-rule="evenodd" d="M190.669 167.957C189.131 168.782 190.279 170.325 189.315 171.301C176.587 171.845 180.286 183.288 181.956 191.576C183.641 199.992 186.854 206.74 187.697 212.94C193.624 225.127 193.927 239.306 202.41 251.598C203.842 253.678 205.97 255.467 207.843 257.615C209.725 259.757 210.979 262.825 212.961 264.783C214.64 266.45 219.058 268.639 221.063 268.012C225.056 266.775 225.889 261.397 226.44 258.545C226.737 256.985 227.531 255.618 227.622 254.327C228.361 243.93 221.617 231.352 221.635 221.14C219.283 216.654 219.305 212.808 216.86 208.292C218.284 203.704 214.287 198.343 211.984 193.561C210.752 191.01 209.976 188.001 208.502 185.802C203.166 177.861 197.477 171.368 191.017 169.705C190.89 169.065 191.714 168.241 190.669 167.957ZM183.559 176.132C182.047 174.357 187.329 171.903 188.137 173.25C184.702 175.821 184.165 179.184 182.092 182.125C181.604 179.978 180.656 176.678 183.559 176.132ZM188.482 174.998C188.069 180.866 187.462 186.679 185.179 192.043C183.3 185.549 183.083 179.51 188.482 174.998ZM195.579 228.909C195.376 226.95 196.724 222.857 197.275 219.878C198.374 213.863 199.412 207.929 200.407 201.959C201.172 197.386 201.291 193.896 202.326 189.895C204.18 190.58 206.477 193.384 207.23 195.561C205.978 196.042 205.558 193.569 204.331 193.951C203.529 194.63 205.015 195.923 205.382 196.919C202.631 209.921 201.384 223.33 200.476 236.837C202.13 236.132 201.092 234.058 201.163 232.897C201.41 228.848 202.263 224.175 202.761 219.717C203.42 213.833 203.524 207.64 205.936 202.425C206.74 203.518 207.502 204.798 208.405 205.572C208.357 219.657 205.042 232.853 204.196 246.717C201.408 242.66 196.103 234.076 195.579 228.909ZM211.072 200.525C209.372 200.361 206.726 197.714 207.26 196.191C208.982 196.007 209.868 198.845 211.072 200.525ZM206.323 245.856C206.147 245.243 205.652 245.776 205.407 245.401C205.827 233.684 208.264 222.521 209.198 210.952C209.446 210.811 209.697 210.673 209.946 210.536C210.715 212.042 212.747 213.539 212.228 215.077C211.494 216.371 210.556 215.491 209.47 215.974C209.171 217.243 210.551 217.069 210.984 218.038C209.537 218.785 211.626 219.213 211.226 220.166C209.959 231.234 208.835 242.341 208.145 253.572C205.49 251.035 204.711 248.17 206.323 245.856ZM217.079 226.917C215.304 226.706 214.017 223.599 213.232 221.954C214.692 222.968 215.907 224.857 217.079 226.917ZM215.021 229.036C213.829 227.341 211.347 225.083 212.028 223.276C212.386 222.985 212.588 223.267 212.915 223.105C213.414 224.698 217.039 227.427 215.021 229.036ZM216.504 230.471C216.748 230.335 217 230.193 217.248 230.056C218.173 231.031 220.125 233.608 219.682 234.842C218.226 234.417 216.368 232.225 216.504 230.471ZM214.312 261.436C211.569 260.632 209.69 255.607 209.524 253.123C211.471 255.075 215.003 258.844 214.312 261.436ZM217.817 264.658C216.107 264.987 215.148 262.437 215.452 261.126C216.58 260.848 217.658 263.852 217.817 264.658ZM217.51 259.008C215.26 258.122 214.909 255.43 215.44 253.697C217.552 254.461 218.366 257.432 217.51 259.008ZM213.948 254.528C213.167 253.081 213.443 251.914 213.36 250.652C213.624 250.455 213.836 250.459 213.996 250.622C214.91 252.176 214.842 253.464 213.948 254.528ZM221.886 264.322C220.296 263.216 218.609 260.956 218.783 258.94C220.164 259.018 223.467 262.97 221.886 264.322ZM222.321 260.516C220.225 258.274 217.465 254.497 219.579 252.35C220.803 255.155 223.044 258.239 222.321 260.516ZM219.345 250.224C220.008 250.091 220.23 251.542 220.719 252.041C218.959 253.122 219.636 251.053 219.345 250.224ZM223.887 258.678C222.81 257.525 222.579 256.72 221.914 255.252C223.22 255.551 225.699 257.538 223.887 258.678ZM216.884 244.807C218.02 247.404 219.012 250.769 217.46 253.209C214.038 249.006 216.065 244.804 215.905 240.825C217.359 241.158 219.013 244.737 218.471 245.858C217.729 246.264 217.486 244.887 216.884 244.807ZM223.197 252.919C221.733 251.55 218.843 248.859 219.424 246.945C221.002 247.415 222.613 251.353 223.197 252.919ZM213.656 234.65C213.041 234.893 213.79 235.511 213.338 235.797C216.245 240.143 214.804 244.593 214.149 248.6C213.378 246.851 212.163 246.714 211.392 244.962C209.938 245.978 212.277 246.743 212.587 248.173C210.866 249.152 211.179 250.677 211.265 252.146C207.954 250.399 209.908 242.745 210.208 239.476C210.608 235.113 210.839 231.492 211.41 228.458C211.769 228.17 211.972 228.453 212.293 228.288C213.195 230.436 214.338 230.875 215.25 233.427C214.872 234.339 214.133 233.87 213.656 234.65ZM217.115 237.238C216.742 236.588 216.216 235.896 216.382 235.391C216.625 235.251 216.878 235.113 217.121 234.973C217.713 235.112 218.062 236.104 218.494 236.789C217.704 236.762 217.744 236.532 217.115 237.238ZM223.147 244.865C222.829 243.097 221.23 242.258 221.003 240.569C222.097 241.329 224.606 243.472 223.147 244.865ZM222.211 239.242C221.564 238.668 220.374 237.367 220.411 236.69C221.324 236.256 223.584 238.42 222.211 239.242ZM222.26 235.336C220.343 233.675 218.539 230.29 217.36 227.402C219.693 229.961 222.915 231.752 222.26 235.336ZM220.696 225.218C219.37 225.708 220.286 226.542 219.417 227.55C217.108 225.424 215.567 221.77 212.683 218.702C212.856 217.924 213.796 217.358 213.714 216.511C216.352 218.649 219.608 221.925 220.696 225.218ZM218.98 219.389C215.209 217.846 213.003 211.484 209.628 209.419C209.061 208.854 209.834 208.655 209.56 208.165C212.737 209.039 214.494 214.98 217.754 215.548C218.558 216.936 218.693 218.136 218.98 219.389ZM215.754 209.227C214.724 209.914 214.424 208.01 213.632 207.823C213.385 209.433 215.946 210.739 215.787 212.116C213.231 210.362 209.573 206.548 209.823 203.484C209.487 202.963 208.707 203.971 208.196 204.07C207.012 202.32 204.424 199.098 207.006 198.59C209.051 201.516 211.065 204.547 213.861 204.785C214.894 206.377 214.806 207.663 215.754 209.227ZM212.034 199.343C210.795 198.886 209.661 197.139 209.28 195.704C209.939 195.101 210.151 196.112 210.808 195.502C211.75 196.932 212.02 198.169 212.034 199.343ZM193.772 173.339C198.304 174.722 200.633 178.483 203.618 183.028C200.83 182.269 199.071 177.841 196.271 177.109C198.299 183.374 206.467 184.509 209.048 191.314C205.68 189.878 202.851 186.519 199.935 183.468C198.434 184.506 200.713 186.952 201.586 188.042C199.006 200.749 198.271 213.955 194.807 226.426C193.832 224.921 193.835 223.691 193.049 222.238C194.053 209.236 195.403 196.337 196.993 183.499C195.43 186.154 195.482 189.325 195.16 192.281C194.546 198.025 193.587 203.797 193.162 209.887C192.96 212.75 193.329 215.952 191.962 218.641C190.752 215.421 189.979 212.324 188.772 209.108C189.238 201.457 189.526 194.124 190.505 186.477C190.812 184.061 192.393 181.524 191.132 179.017C188.566 181.55 189.71 185.091 188.414 187.971C188.736 188.811 189.356 188.582 189.644 189.544C188.427 194.163 189.324 199.357 187.724 203.871C184.037 194.177 189.075 183.531 189.732 174.298C189.859 172.499 191.455 172.636 193.772 173.339Z" fill="#F5F1EB"/>
<path fill-rule="evenodd" clip-rule="evenodd" d="M104.353 275.685C102.588 272.832 100.971 269.295 99.1368 266.637C92.6201 257.194 84.2155 250.276 76.9338 243.473C72.2828 239.138 67.3955 235.079 63.2971 232.342C61.9468 231.437 58.3762 229.775 57.1455 229.639C52.4307 229.113 49.976 234.109 48.3096 236.518C49.6936 241.501 52.6926 246.928 53.4648 251.742C54.667 252.569 55.3114 250.736 56.511 251.328C60.4392 257.055 65.8913 261.103 69.2133 266.539C71.8861 266.856 72.5094 269.193 74.5817 271.298C80.2069 277.034 89.869 284.491 93.9266 291.203C97.8937 293.258 101.185 298.109 104.831 301.599C108.901 305.478 113.692 308.117 117.594 310.634C120.089 309.87 123.108 310.613 125.28 308.598C126.664 303.654 123.754 300.765 119.975 295.4C114.967 288.289 108.524 282.426 104.353 275.685ZM100.574 271.973C94.2969 265.38 87.7924 255.909 81.9074 250.397C88.6011 255.592 95.8069 262.301 100.574 271.973ZM54.0916 232.311C54.4034 233.621 53.432 235.501 52.0999 235.688C51.7284 234.283 52.7025 233.245 54.0916 232.311ZM50.5313 237.535C50.8941 237.246 51.097 237.529 51.4182 237.364C51.3307 237.891 51.8369 238.58 50.9913 238.896C50.5812 238.371 50.4869 237.931 50.5313 237.535ZM58.2651 233.857C59.3461 237.448 61.8539 241.068 63.4687 245.176C61.8303 246.216 61.9052 248.478 61.5768 250.438C59.7623 248.074 61.1543 243.738 59.3071 241.359C56.7041 242.991 61.3948 246.605 57.8641 247.985C56.1977 245.487 56.5616 241.889 55.9819 239.013C53.2485 240.558 57.0567 245.627 56.4826 248.438C50.8964 244.515 51.6867 234.434 58.2651 233.857ZM65.4895 256.66C64.2746 254.859 64.3186 251.685 63.9593 249.434C65.5728 250.521 67.3926 255.159 65.4895 256.66ZM59.4099 252.939C58.7611 252.768 58.3852 251.616 57.8936 250.879C58.4875 250.505 59.0695 250.175 59.5283 250.291C59.9051 251.292 60.2788 252.281 59.4099 252.939ZM63.1851 256.652C62.4309 257.046 61.6813 255.567 62.7276 255.287C63.1351 255.816 63.231 256.248 63.1851 256.652ZM66.7494 261.127C66.3704 260.542 66.0316 259.97 66.1463 259.523C66.3973 259.381 66.6456 259.244 66.893 259.103C67.3013 259.903 67.5637 260.66 66.7494 261.127ZM72.1973 262.61C70.7225 262.23 71.2224 264.59 69.8574 264.24C67.2839 259.349 69.0397 255.63 68.2683 251.227C67.9457 250.387 67.0249 251.681 66.6062 251.183C64.8415 245.891 62.782 240.518 60.2481 235.017C63.8157 234.992 66.6782 237.491 69.4776 240.207C70.1552 240.872 68.8628 241.001 68.9078 241.496C71.3089 249.848 73.6623 258.189 72.6208 265.605C71.039 264.925 72.8188 263.686 72.1973 262.61ZM79.1426 272.952C78.1541 273.052 77.0198 271.56 77.4833 270.648C77.845 270.356 78.0479 270.638 78.3692 270.473C79.0879 271.422 79.1883 272.208 79.1426 272.952ZM79.28 263.505C81.1225 264.923 81.6638 269.498 81.7622 271.814C78.7597 270.041 79.9918 266.009 79.28 263.505ZM84.9389 276.181C82.8382 273.865 82.9488 270.429 83.2234 268.085C79.2851 263.846 80.6156 256.561 77.1163 251.777C76.0795 254.106 78.9313 257.498 78.9673 260.119C77.2946 262.689 79.3376 266.271 78.1564 268.971C77.1946 268.417 76.5802 266.633 75.2574 267.361C74.4818 266.256 74.0974 265.257 74.5921 264.497C75.3263 264.132 75.6391 265.262 76.0735 265.928C76.3708 262.591 72.9358 258.045 74.0586 254.45C71.8504 250.703 70.8444 245.638 70.3081 241.672C74.3261 243.454 75.8936 247.2 76.5761 251.421C78.135 250.471 74.7825 248.185 76.4805 247.268C78.6883 249.858 81.0127 252.036 83.2593 254.479C82.464 259.283 85.2688 265.064 86.9264 270.533C84.3948 271.906 86.682 274.589 84.9389 276.181ZM87.0032 274.057C88.7036 274.205 89.6844 279.069 89.5294 280.729C86.7471 280.032 86.951 275.92 87.0032 274.057ZM94.2591 285.522C91.1831 283.338 91.9896 278.742 90.9244 275.742C90.5976 274.675 89.8158 275.212 89.3328 274.689C87.4733 268.545 84.3569 262.061 84.4004 256.432C86.7692 256.861 89.753 260.839 88.2076 263.035C89.3833 265.306 91.1123 265.61 92.295 267.863C93.8346 267.861 95.4453 267.599 96.255 270.175C95.0718 269.923 93.9399 269.468 92.7465 269.222C93.1494 272.978 94.707 277.042 95.5414 280.917C93.8976 282.122 94.4702 283.93 94.2591 285.522ZM94.0552 272.054C98.1326 272.829 101.685 280.94 101.028 285.299C100.334 285.772 99.9381 285.172 99.2508 285.643C98.2889 286.893 100.128 288.907 98.8459 290.071C96.3786 283.829 95.9739 278.15 94.0552 272.054ZM105.901 300.035C105.176 299.894 104.583 299.269 104.027 298.494C104.141 298.183 104.442 297.919 104.884 297.696C105.324 297.873 105.833 299.319 105.901 300.035ZM103.231 293.115C100.965 291.097 102.315 288.353 101.448 286.028C103.036 287.038 103.866 291.349 103.231 293.115ZM106.593 293.826C104.48 291.254 102.656 285.38 102.381 281.955C104.506 282.493 105.663 285.559 107.003 287.13C106.345 289.217 108.901 292.185 106.593 293.826ZM113.701 297.613C114.586 297.944 115.201 299.254 115.991 299.888C114.73 300.208 113.373 298.87 113.701 297.613ZM107.798 282.804C109.024 284.646 110.46 285.75 111.645 287.771C110.144 287.315 105.067 284.572 107.798 282.804Z" fill="#F5F1EB"/>
<path fill-rule="evenodd" clip-rule="evenodd" d="M124.331 235.737C121.735 231.854 118.649 227.422 115.875 223.329C113.008 219.107 109.284 214.146 106.732 212.59C104.621 211.307 99.0328 210.606 96.4944 212.491C94.6232 213.891 91.7593 222.398 91.8963 224.44C92.1254 228.084 95.5134 234.413 98.0465 239.107C100.88 244.353 103.906 249.848 106.957 255.141C112.736 265.177 120.095 278.398 126.092 285.512C128.503 288.372 132.385 291.525 135.656 294.712C140.992 299.91 148.613 306.667 153.56 299.583C152.044 296.932 153.539 293.362 153.089 290.797C152.596 287.912 150.49 284.268 148.98 280.805C147.496 277.403 146.452 273.451 144.977 270.433C142.327 265.021 137.934 260.964 135.494 255.689C134.986 254.585 135.064 253.054 134.516 251.71C132.711 247.28 129.86 244.482 127.716 241.607C126.43 239.882 125.587 237.614 124.331 235.737ZM93.8139 222.073C94.0801 221.871 94.2857 221.881 94.4536 222.042C95.8716 226.692 99.206 231.862 98.904 236.042C99.4079 237.231 100.602 235.956 101.134 237.061C104.558 244.133 110.858 249.706 108.62 255.188C102.921 244.586 94.0507 232.314 93.8139 222.073ZM137.366 293.118C135.354 293.228 134.538 291.176 133.228 289.936C131.261 288.07 128.751 286.347 126.908 284.091C121.371 277.296 117.136 268.162 111.684 259.942C111.564 258.606 112.567 257.568 112.124 256.143C111.357 255.574 111.282 257.216 110.49 256.73C110.12 255.117 109.95 253.556 109.725 251.985C110.087 251.693 110.29 251.976 110.608 251.815C112.166 254.482 113.893 256.556 115.368 259.505C113.821 265.47 120.829 269.279 122.081 275.154C122.715 276.374 123.903 275.628 124.698 276.28C126.485 280.448 129.943 282.961 131.86 285.855C132.17 286.323 132.213 287.278 132.601 287.708C134.194 289.472 137.198 290.123 137.366 293.118ZM117.578 265.048C117.214 264.4 116.687 263.708 116.844 263.197C117.598 262.791 118.771 264.768 117.578 265.048ZM105.473 241.747C106.13 241.384 106.837 240.867 107.355 241.022C107.892 242.337 107.777 243.475 107.802 244.65C106.808 244.344 106.513 243.169 105.473 241.747ZM135.928 287.778C134.764 286.59 134.636 285.652 133.812 284.109C134.988 283.55 137.016 287.068 135.928 287.778ZM131.108 276.568C123.798 269.398 126.607 261.377 124.635 253.348C124.879 253.208 125.134 253.069 125.375 252.934C128.513 255.277 128.014 257.911 129.391 261.039C129.121 262.061 128.469 261.157 127.765 261.625C130.153 264.336 130.587 267.62 131.064 270.776C131.358 272.782 131.67 275.01 131.108 276.568ZM134.629 272.983C131.358 273.121 131.364 269.068 131.353 266.736C134.012 267.2 134.418 270.883 134.629 272.983ZM139.521 280.92C138.463 280.976 137.76 279.731 136.982 278.782C138.112 278.487 138.807 279.734 139.521 280.92ZM140.736 289.292C137.924 287.517 136.564 284.028 136.724 281.185C139.259 282.419 141.058 287.014 140.736 289.292ZM135.586 271.802C137.953 271.969 139.186 275.273 139.081 277.287C136.538 277.581 135.574 273.662 135.586 271.802ZM140.316 276.595C142.392 277.034 144.175 280.529 143.698 282.466C141.706 282.063 139.666 278.449 140.316 276.595ZM137.577 270.689C136.358 269.452 134.689 268.384 134.791 266.428C135.995 266.922 139.176 269.133 137.577 270.689ZM131.902 260.283C131.116 260.411 129.817 259.883 130.031 258.737C130.952 258.205 131.377 259.428 131.902 260.283ZM133.06 265.13C131.778 265.719 131.307 263.415 130.485 262.363C131.683 261.973 133.554 264.054 133.06 265.13ZM132.599 275.733C134.912 276.449 136.424 280.79 135.128 282.401C133.049 280.302 132.755 277.885 132.599 275.733ZM145.913 299.979C145.693 299.526 145.311 299.636 145.1 299.144C145.177 298.819 145.699 298.614 145.562 298.237C146.538 297.885 146.796 299.613 145.913 299.979ZM144.754 295.129C143.461 295.214 142.758 292.56 142.783 291.703C143.541 291.476 144.514 294.198 144.754 295.129ZM141.84 288.353C143.303 288.592 144.181 290.954 145.262 292.584C143.988 291.482 142.38 289.875 141.84 288.353ZM149.518 300.551C148.591 299.556 149.201 298.296 150.305 298.495C150.721 299.365 150.508 300.063 149.518 300.551ZM140.898 282.736C142.497 282.645 144.923 285.43 144.715 287.072C143.311 286.263 141.449 284.215 140.898 282.736ZM148.761 293.536C147.321 291.048 145.617 289.42 146.128 287.249C146.789 287.38 147.487 287.381 148.181 287.399C149.197 289.667 149.252 291.675 148.761 293.536ZM147.45 283.28C146.758 283.848 146.538 284.548 146.663 285.335C144.662 284.944 145.264 281.834 144.872 280.514C146.569 280.001 146.554 281.937 147.45 283.28ZM139.555 271.849C141.11 272.278 142.213 274.313 143.473 275.802C141.637 276.466 139.428 273.561 139.555 271.849ZM142.1 271.718C141.02 271.852 139.552 270.201 139.525 268.952C139.887 268.659 140.091 268.945 140.409 268.785C141.515 269.231 141.504 270.759 142.1 271.718ZM139.075 265.325C134.418 263.833 134.8 255.603 129.335 255.247C128.717 254.393 129.974 254.043 129.096 253.118C126.306 253.565 123.691 249.879 124.053 247.207C125.855 246.988 126.854 249.66 128.432 250.258C128.947 250.413 129.65 249.898 130.313 249.525C133.585 254.888 136.146 260.058 139.075 265.325ZM124.17 242.297C123.197 242.652 125.006 243.756 123.881 244.07C122.378 243.212 121.44 240.316 119.605 240.644C119.744 242.653 121.88 243.977 122.924 245.255C123.35 252.797 124.294 260.481 125.291 268.179C124.659 268.49 124.071 268.81 123.943 269.253C123.685 270.627 126.831 272.927 125.343 273.968C121.011 267.895 120.934 263.706 120.397 257.979C119.958 253.152 119.442 249.312 120.119 245.522C117.885 243.742 118.272 241.123 117.339 238.992C118.292 237.84 118.475 239.434 119.251 238.894C119.414 237.779 117.682 237.057 116.847 237.002C116.071 239.957 117.21 243.423 118.658 246.979C118.27 252.241 119.838 258.031 119.918 263.414C113.38 256.746 116.147 249.061 113.929 242.191C114.051 241.67 115.011 241.386 115.141 240.867C114.677 239.308 114.019 237.918 113.735 236.157C113.336 233.602 115.044 229.517 111.702 229.212C112.172 231.539 111.93 233.671 113.104 236.19C112.482 236.918 112.159 237.723 111.821 238.523C113.43 244.118 114.867 249.669 114.207 254.648C108.556 248.228 108.267 242.233 107.575 235.723C107.055 230.727 107.325 225.73 105.92 221.451C103.522 226.024 108.696 232.657 105.34 236.973C104.115 232.146 102.128 227.263 101.385 222.692C101.178 221.424 102.06 219.809 100.546 218.958C99.7485 222.146 100.791 226.35 101.788 230.228C102.52 233.069 104.436 235.897 103.635 238.571C100.375 233.42 98.1796 228.56 98.7947 224.468C98.5159 223.723 97.5534 225.409 97.2681 224.67C96.4322 222.313 94.6456 219.693 97.1893 218.249C96.8111 217.596 96.4366 216.942 96.0583 216.289C101.781 206.897 110.898 218.171 114.802 224.894C109.824 223.472 106.552 215.966 101.695 214.111C100.316 214.379 96.6985 214.259 97.2275 216.606C98.7261 216.236 100.356 215.39 101.655 215.751C105.835 220.365 112.212 224.091 116.805 228.946C117.169 229.324 117.707 230.08 118.04 230.518C121.496 235.067 124.679 239.472 127.874 244.749C126.308 245.126 125.516 242.724 124.17 242.297Z" fill="#F5F1EB"/>
</g>
</svg>
