<svg width="292" height="60" viewBox="0 0 292 60" fill="none" xmlns="http://www.w3.org/2000/svg">
<path d="M10.5801 51.541L10.3457 51.3652L10.2871 51.4238C10.209 51.502 10.0723 51.502 9.87695 51.4238C9.68164 51.3848 9.54492 51.3848 9.4668 51.4238C9.1543 51.502 8.93945 51.4824 8.82227 51.3652C8.66602 51.2871 8.56836 50.623 8.5293 49.373C8.49023 49.1777 8.4707 48.9238 8.4707 48.6113C8.43164 48.4551 8.41211 48.2988 8.41211 48.1426C8.41211 47.9473 8.39258 47.752 8.35352 47.5566C8.35352 47.166 8.31445 46.8145 8.23633 46.502L8.11914 45.8574L8.06055 45.3887C8.02148 45.0762 8.00195 44.7051 8.00195 44.2754C8.00195 43.8066 8.02148 43.416 8.06055 43.1035C8.13867 42.6348 8.17773 41.6777 8.17773 40.2324C8.2168 37.0684 8.27539 35.252 8.35352 34.7832L8.4707 32.4395C8.58789 31.8535 8.64648 30.8184 8.64648 29.334L8.70508 28.1621C8.74414 28.0449 8.76367 27.9277 8.76367 27.8105C8.76367 27.6543 8.7832 27.498 8.82227 27.3418L8.88086 25.7012C8.91992 25.2324 8.93945 24.9199 8.93945 24.7637C8.97852 24.6074 8.95898 24.5293 8.88086 24.5293L8.64648 24.6465C8.41211 24.8809 8.13867 25.0762 7.82617 25.2324L7.5918 25.4082L7.00586 25.7598L6.24414 26.1699L6.00977 26.3457C5.89258 26.3457 5.79492 26.3848 5.7168 26.4629L5.36523 26.5801C5.28711 26.6191 5.22852 26.6777 5.18945 26.7559C5.15039 26.873 5.01367 26.9316 4.7793 26.9316C4.66211 26.9707 4.50586 26.9902 4.31055 26.9902C4.11523 26.9902 3.97852 26.9707 3.90039 26.9316C3.82227 26.8926 3.74414 26.7949 3.66602 26.6387C3.43164 26.2871 3.04102 26.0918 2.49414 26.0527C2.02539 26.0137 1.69336 25.9746 1.49805 25.9355C1.3418 25.8965 1.26367 25.7988 1.26367 25.6426C1.26367 25.1348 1.24414 24.627 1.20508 24.1191C1.16602 23.6113 1.12695 23.2402 1.08789 23.0059L1.0293 22.3613C1.06836 22.2051 1.06836 22.0879 1.0293 22.0098C1.0293 21.8926 1.0293 21.834 1.0293 21.834C0.990234 21.7168 0.990234 21.4629 1.0293 21.0723C1.10742 20.8379 1.14648 20.6035 1.14648 20.3691C1.14648 20.252 1.18555 20.1543 1.26367 20.0762C1.3418 20.0371 1.41992 19.9395 1.49805 19.7832L1.73242 19.4902C1.9668 19.2559 2.08398 19.1387 2.08398 19.1387L2.49414 18.8457C2.57227 18.8457 2.63086 18.7676 2.66992 18.6113L2.96289 18.377C3.27539 18.1816 3.50977 18.0059 3.66602 17.8496C3.82227 17.6934 3.97852 17.5762 4.13477 17.498L4.7207 17.0879C4.87695 16.9707 5.07227 16.8535 5.30664 16.7363L6.47852 16.0918C6.55664 16.0137 6.63477 15.9551 6.71289 15.916C6.83008 15.8379 6.9082 15.7598 6.94727 15.6816L7.29883 15.3887C8.11914 14.8418 8.80273 14.4316 9.34961 14.1582C9.4668 14.1582 9.56445 14.1191 9.64258 14.041C9.7207 13.9629 9.81836 13.9238 9.93555 13.9238C10.0527 13.9238 10.1699 13.8652 10.2871 13.748L10.873 13.5137C10.9902 13.4746 11.0879 13.416 11.166 13.3379C11.2832 13.2598 11.4004 13.2012 11.5176 13.1621C11.7129 13.0449 11.8691 12.9863 11.9863 12.9863L12.4551 12.8105C12.7285 12.6934 13.1387 12.5957 13.6855 12.5176L14.0371 12.459H14.2129L14.6816 12.5176C15.3066 12.5957 15.6777 12.6934 15.7949 12.8105C15.834 12.8887 16.0098 13.0059 16.3223 13.1621C16.4395 13.2402 16.5566 13.3184 16.6738 13.3965C16.791 13.4355 16.8691 13.4941 16.9082 13.5723C16.9863 13.6113 17.0449 13.6699 17.084 13.748C17.1621 13.8652 17.2012 14.0215 17.2012 14.2168C17.2012 14.4512 17.2207 14.6074 17.2598 14.6855C17.2598 14.7637 17.2793 14.8613 17.3184 14.9785C17.3574 15.0957 17.3574 15.1934 17.3184 15.2715C17.2793 15.3105 17.2598 15.5254 17.2598 15.916C17.2598 16.3066 17.2207 16.5801 17.1426 16.7363L17.084 17.0293L17.1426 17.3809C17.1816 17.459 17.2012 17.5762 17.2012 17.7324C17.2012 17.8105 17.0254 18.084 16.6738 18.5527C16.5566 18.748 16.3223 18.9629 15.9707 19.1973L15.2676 19.7246L14.9746 19.959L14.5645 20.1348C14.4082 20.291 14.291 20.3691 14.2129 20.3691L13.334 21.0723L12.9824 21.3652C12.8262 21.5215 12.7285 21.6582 12.6895 21.7754C12.6895 21.8926 12.709 22.127 12.748 22.4785L12.8066 25.3496L12.8652 28.6895V31.2676L12.9238 32.6738C12.9629 32.752 12.9824 33.7285 12.9824 35.6035C12.9824 37.4395 12.9629 38.3965 12.9238 38.4746C12.8848 38.5137 12.8652 39.4121 12.8652 41.1699V44.5098C12.8652 45.0957 12.8262 45.6426 12.748 46.1504C12.709 46.6582 12.6895 46.9316 12.6895 46.9707L12.6309 47.6152L12.5723 48.4355C12.4941 48.709 12.4355 49.2168 12.3965 49.959C12.3574 50.3887 12.2988 50.7402 12.2207 51.0137C12.1816 51.2871 12.1035 51.4629 11.9863 51.541C11.9473 51.5801 11.9082 51.6582 11.8691 51.7754C11.8301 51.8535 11.7715 51.9121 11.6934 51.9512C11.6152 52.1074 11.5566 52.1855 11.5176 52.1855C11.4785 52.2246 11.4199 52.2441 11.3418 52.2441C11.2637 52.2441 11.2051 52.2246 11.166 52.1855L10.5801 51.541ZM19.5449 35.6035C19.584 35.3691 19.584 35.2129 19.5449 35.1348L19.4863 34.7832L19.6621 34.4316C19.7793 34.1582 19.916 33.9434 20.0723 33.7871L20.7754 33.3184C21.2051 33.0449 21.5566 32.7715 21.8301 32.498C21.8301 32.498 21.9863 32.3418 22.2988 32.0293C22.416 31.9902 22.5527 31.9121 22.709 31.7949C22.8652 31.6777 23.0605 31.5605 23.2949 31.4434C23.334 31.4043 23.373 31.3652 23.4121 31.3262C23.4902 31.2871 23.5488 31.2676 23.5879 31.2676C23.7832 31.1895 23.9395 31.0527 24.0566 30.8574L24.3496 30.5645L24.584 30.3887C24.7012 30.2715 24.8184 30.1738 24.9355 30.0957C25.0918 30.0176 25.209 29.9785 25.2871 29.9785C25.3652 29.9004 25.4238 29.8027 25.4629 29.6855C25.502 29.6074 25.6191 29.4707 25.8145 29.2754L26.166 28.9824C26.2832 28.9043 26.3613 28.8262 26.4004 28.748C26.4785 28.6699 26.5371 28.6309 26.5762 28.6309L26.752 28.3965C27.0254 28.0059 27.2207 27.791 27.3379 27.752L27.6895 27.5762C27.7285 27.5371 27.7285 27.498 27.6895 27.459C27.6504 27.4199 27.6309 27.3809 27.6309 27.3418L27.748 27.2246L27.9824 27.0488C28.0605 26.9707 28.2559 26.873 28.5684 26.7559L28.8613 26.6387C28.9785 26.6387 29.1152 26.7363 29.2715 26.9316C29.4277 27.0098 29.5254 27.0293 29.5645 26.9902C29.6035 26.9902 29.623 26.834 29.623 26.5215V26.1113C29.6621 26.0332 29.6816 25.7598 29.6816 25.291C29.7207 25.0566 29.7402 24.8027 29.7402 24.5293L29.7988 23.8848C29.7988 23.6504 29.8184 23.4746 29.8574 23.3574C29.8965 23.2402 29.9551 23.1621 30.0332 23.123C30.0332 23.123 30.0918 23.0645 30.209 22.9473C30.248 22.8301 30.3848 22.752 30.6191 22.7129L31.791 22.8301L32.377 23.123C32.5723 23.2012 32.6895 23.2988 32.7285 23.416C32.8066 23.4941 32.8848 23.6895 32.9629 24.002L33.1387 24.6465C33.1387 24.8809 33.1582 25.0371 33.1973 25.1152C33.1973 25.3496 33.2168 25.5059 33.2559 25.584C33.334 26.0527 33.373 26.541 33.373 27.0488L33.4316 27.752C33.5879 28.5332 33.666 30.0176 33.666 32.2051V34.1387C33.627 34.2168 33.6074 35.4082 33.6074 37.7129C33.6074 40.5645 33.5684 42.2637 33.4902 42.8105C33.4512 42.8496 33.4316 43.0059 33.4316 43.2793C33.3926 43.3574 33.373 43.4551 33.373 43.5723C33.373 43.6504 33.3535 43.7285 33.3145 43.8066L33.2559 44.4512C33.1777 44.9199 33.1191 45.291 33.0801 45.5645C33.041 45.8379 33.002 46.1113 32.9629 46.3848C32.8848 46.6191 32.8457 46.8145 32.8457 46.9707C32.6113 48.1816 32.4551 48.8652 32.377 49.0215C32.2207 49.4902 32.1426 49.7246 32.1426 49.7246L31.791 50.3691L31.6152 50.6621L31.3809 51.0723C31.2246 51.2285 31.0293 51.4434 30.7949 51.7168C30.5605 51.9902 30.4043 52.1465 30.3262 52.1855C30.209 52.3027 29.877 52.4785 29.3301 52.7129C29.1348 52.791 28.9199 52.8301 28.6855 52.8301C28.1777 52.8301 27.8066 52.7715 27.5723 52.6543C27.5332 52.6543 27.4551 52.5957 27.3379 52.4785C27.1035 52.2832 26.8301 52.1074 26.5176 51.9512C26.2441 51.7949 26.0488 51.7168 25.9316 51.7168C25.8926 51.7168 25.834 51.6973 25.7559 51.6582C25.7168 51.6191 25.6387 51.5996 25.5215 51.5996C25.4824 51.5605 25.4238 51.541 25.3457 51.541C25.2676 51.541 25.209 51.5215 25.1699 51.4824C25.0527 51.4824 24.916 51.4434 24.7598 51.3652C24.4863 51.209 24.2715 50.916 24.1152 50.4863C24.0371 50.3301 23.998 50.1738 23.998 50.0176C24.0371 49.9395 24.0566 49.7637 24.0566 49.4902V49.0215C24.0566 48.1621 24.0371 47.5957 23.998 47.3223L23.9395 46.9121V46.6777C23.9785 46.5996 23.9785 46.4824 23.9395 46.3262C23.9004 46.1309 23.9004 45.9941 23.9395 45.916L23.998 45.4473L24.0566 45.0957L23.8809 44.9199C23.8027 44.7637 23.7637 44.666 23.7637 44.627C23.7637 44.5098 23.8027 44.4316 23.8809 44.3926C23.959 44.3535 24.0762 44.2949 24.2324 44.2168C24.623 44.0996 24.9551 43.9824 25.2285 43.8652C25.4629 43.709 25.7168 43.5918 25.9902 43.5137C26.1855 43.3574 26.459 43.2012 26.8105 43.0449C27.2012 42.8496 27.4746 42.6543 27.6309 42.459C27.8262 42.2637 27.8652 42.0098 27.748 41.6973V41.5215C27.748 41.3652 27.8652 40.9355 28.0996 40.2324C28.0996 40.1934 28.1582 39.998 28.2754 39.6465L28.5684 39.1777L28.6855 38.7676L28.8613 38.2402L29.0957 36.9512C29.1738 36.6777 29.2324 36.2285 29.2715 35.6035L29.3301 34.7246C29.3691 34.4121 29.3887 34.0215 29.3887 33.5527C29.4277 33.0449 29.4277 32.6738 29.3887 32.4395C29.3887 32.2832 29.3691 32.2051 29.3301 32.2051C29.3301 32.2051 29.1738 32.5176 28.8613 33.1426C28.666 33.4941 28.3535 33.9434 27.9238 34.4902L27.6895 34.7832C27.6504 34.9004 27.6113 35.0762 27.5723 35.3105C27.5332 35.5449 27.4551 35.7207 27.3379 35.8379C27.1426 36.0332 27.0449 36.1504 27.0449 36.1895C27.0449 36.1895 26.7715 36.502 26.2246 37.127C26.0293 37.3223 25.834 37.5176 25.6387 37.7129C25.4824 37.8691 25.3848 37.9863 25.3457 38.0645C25.3066 38.1426 25.1309 38.2988 24.8184 38.5332C24.6621 38.5723 24.5254 38.6895 24.4082 38.8848C24.2129 39.1582 23.998 39.373 23.7637 39.5293L22.3574 40.291C22.084 40.4473 21.9082 40.5059 21.8301 40.4668C21.7129 40.4668 21.6348 40.3887 21.5957 40.2324C21.3613 39.959 21.1465 39.8027 20.9512 39.7637C20.7168 39.6855 20.3457 39.6465 19.8379 39.6465C19.6426 39.6465 19.5449 39.5684 19.5449 39.4121V38.6504C19.584 38.416 19.6035 38.0645 19.6035 37.5957V37.127C19.5645 37.0488 19.5449 36.8535 19.5449 36.541L19.4863 36.0723L19.5449 35.6035ZM21.5957 17.498L22.2402 16.1504C22.2402 15.9941 22.3184 15.7598 22.4746 15.4473L23.1777 14.0996C23.1777 14.0215 23.1973 13.9238 23.2363 13.8066C23.3145 13.6895 23.3926 13.5918 23.4707 13.5137C23.4707 13.4746 23.4902 13.416 23.5293 13.3379C23.5684 13.2207 23.5879 13.1035 23.5879 12.9863L23.7051 12.5176C23.7832 12.4395 23.8223 12.3027 23.8223 12.1074L23.9395 11.7559C24.0176 11.6777 24.0566 11.5801 24.0566 11.4629C24.0566 11.4238 24.0762 11.3457 24.1152 11.2285C24.1543 11.1113 24.2129 10.9355 24.291 10.7012C24.291 10.5449 24.3301 10.3887 24.4082 10.2324C24.4082 10.1543 24.5254 9.7832 24.7598 9.11914C24.8379 9.04102 24.8965 9.00195 24.9355 9.00195C24.9746 8.96289 25.0332 8.94336 25.1113 8.94336C25.2285 8.94336 25.3848 8.98242 25.5801 9.06055C25.7754 9.13867 25.9512 9.2168 26.1074 9.29492C26.1855 9.37305 26.2441 9.41211 26.2832 9.41211C26.3613 9.45117 26.459 9.50977 26.5762 9.58789C26.6934 9.66602 26.791 9.74414 26.8691 9.82227C27.0254 10.1348 27.123 10.4277 27.1621 10.7012C27.3184 11.248 27.3965 11.873 27.3965 12.5762C27.3965 12.7715 27.3965 12.9082 27.3965 12.9863C27.4355 13.0645 27.5137 13.123 27.6309 13.1621L28.627 13.0449C28.7832 12.9668 28.959 12.9277 29.1543 12.9277C29.2324 12.9277 29.3105 12.9082 29.3887 12.8691C29.5059 12.791 29.623 12.752 29.7402 12.752L30.5605 12.5762C30.834 12.498 31.1074 12.459 31.3809 12.459C31.6543 12.4199 31.9473 12.3809 32.2598 12.3418L33.2559 12.2832C33.4902 12.2051 33.7051 12.166 33.9004 12.166C34.1348 12.166 34.291 12.1465 34.3691 12.1074C34.6816 12.1074 34.916 12.0879 35.0723 12.0488L35.7754 11.9902C36.0098 11.9512 36.3223 11.9316 36.7129 11.9316C37.1035 11.9316 37.5332 11.9707 38.002 12.0488L38.5293 12.166C38.6074 12.166 38.8027 12.2441 39.1152 12.4004L39.4668 12.459C39.5449 12.459 40.0723 12.7715 41.0488 13.3965C41.4785 13.6699 41.8301 13.9629 42.1035 14.2754C42.3379 14.666 42.4746 15.0957 42.5137 15.5645C42.5918 15.9941 42.6309 16.7363 42.6309 17.791C42.6309 18.4941 42.6113 18.9043 42.5723 19.0215L42.4551 20.252C42.4551 20.5645 42.377 20.8184 42.2207 21.0137C42.1426 21.3652 42.084 21.541 42.0449 21.541L41.9863 21.7168C41.7129 22.1465 41.5176 22.4004 41.4004 22.4785C41.2051 22.7129 41.0098 22.9277 40.8145 23.123C40.6191 23.2793 40.4824 23.377 40.4043 23.416H40.3457C40.2285 23.416 40.1113 23.2988 39.9941 23.0645C39.9941 23.0254 39.8965 22.9082 39.7012 22.7129L39.4082 22.4785L39.2324 22.5371C39.0762 22.5762 38.959 22.5762 38.8809 22.5371C38.7246 22.498 38.6074 22.498 38.5293 22.5371C38.2949 22.6152 38.1777 22.6152 38.1777 22.5371C38.0996 22.459 38.0605 22.166 38.0605 21.6582L38.1191 20.9551V20.3691C38.0801 20.291 38.0605 20.1348 38.0605 19.9004L37.9434 19.4316L37.5332 19.1973C37.2988 19.1191 37.084 19.0801 36.8887 19.0801L36.1855 19.1387C35.7559 19.2168 35.4238 19.2168 35.1895 19.1387C35.1113 19.0996 34.9941 19.0801 34.8379 19.0801L34.1934 19.1387C34.0371 19.1387 33.8027 19.1582 33.4902 19.1973C33.1777 19.2363 32.9238 19.2754 32.7285 19.3145C32.5332 19.3535 32.3965 19.3535 32.3184 19.3145L31.8496 19.2559C31.6152 19.2559 31.4395 19.2754 31.3223 19.3145C31.166 19.3535 31.0293 19.373 30.9121 19.373C30.834 19.373 30.7168 19.3535 30.5605 19.3145H30.2676L29.0371 19.4316C28.7637 19.4316 28.6074 19.4512 28.5684 19.4902L27.8652 19.5488C27.4746 19.5488 27.2207 19.5684 27.1035 19.6074C27.0254 19.6855 26.8887 19.7246 26.6934 19.7246C26.4199 19.8027 26.2637 19.8809 26.2246 19.959C26.2246 19.998 26.1465 20.0566 25.9902 20.1348C25.9512 20.1348 25.8535 20.1934 25.6973 20.3105C25.5801 20.3887 25.4629 20.5449 25.3457 20.7793L25.0527 21.3652C24.6621 22.1465 24.291 22.6348 23.9395 22.8301C23.8223 22.8691 23.7246 22.8691 23.6465 22.8301C23.5684 22.8301 23.4707 22.7715 23.3535 22.6543L23.1191 22.3613C23.002 22.2832 22.9043 22.2441 22.8262 22.2441C22.7871 22.2051 22.7285 22.2051 22.6504 22.2441C22.5332 22.2441 22.4551 22.2246 22.416 22.1855C22.377 22.1855 22.3379 22.1855 22.2988 22.1855C22.2598 22.1465 22.1816 22.127 22.0645 22.127C21.9082 22.127 21.8105 22.1074 21.7715 22.0684C21.7324 22.0293 21.7129 21.6973 21.7129 21.0723C21.6738 20.7988 21.6543 20.3301 21.6543 19.666L21.5957 18.5527C21.6348 18.3965 21.6152 18.2598 21.5371 18.1426L21.4199 17.8496L21.5957 17.498ZM34.252 30.4473C34.252 30.2129 34.2324 30.0566 34.1934 29.9785C34.0762 29.8223 34.0762 29.6855 34.1934 29.5684C34.2715 29.4121 34.3887 29.3145 34.5449 29.2754H35.0723L36.0684 29.3926C36.2637 29.5488 36.5566 29.627 36.9473 29.627C37.0254 29.666 37.1035 29.6855 37.1816 29.6855C37.2598 29.6855 37.3184 29.7051 37.3574 29.7441L38.2949 29.8613L38.5879 29.9199C38.7051 29.959 38.8809 29.998 39.1152 30.0371C39.3887 30.0762 39.6621 30.0957 39.9355 30.0957C40.0918 30.1348 40.541 30.1543 41.2832 30.1543C41.9473 30.1934 42.416 30.252 42.6895 30.3301L43.1582 30.4473C43.2754 30.4473 43.373 30.4668 43.4512 30.5059L43.9785 30.6816C44.4082 30.7598 44.7012 30.8965 44.8574 31.0918L45.6777 31.502L46.0879 31.7363L46.2637 31.7949L46.6738 32.0293C46.8691 32.1465 47.0059 32.2637 47.084 32.3809C47.2012 32.498 47.2988 32.7129 47.377 33.0254L47.4941 33.3184L47.4355 33.6699L47.377 34.1387C47.377 34.2949 47.416 34.4512 47.4941 34.6074C47.5723 34.7246 47.6113 34.9199 47.6113 35.1934C47.6504 35.4277 47.6309 35.584 47.5527 35.6621C47.5137 35.7402 47.4941 35.916 47.4941 36.1895C47.5332 36.4629 47.5332 36.7754 47.4941 37.127L47.4355 37.5957C47.4355 37.752 47.377 37.8887 47.2598 38.0059L47.1426 38.1816L47.084 38.7676C47.084 39.1582 47.1035 39.4121 47.1426 39.5293C47.1426 39.6074 47.1426 39.6855 47.1426 39.7637C47.1816 39.8027 47.1816 39.8418 47.1426 39.8809C47.1426 39.959 47.1035 40.0566 47.0254 40.1738C46.9473 40.291 46.9082 40.3691 46.9082 40.4082C46.8301 40.4082 46.752 40.5059 46.6738 40.7012C46.5566 40.8184 46.4395 40.8965 46.3223 40.9355C46.166 40.9746 46.0684 41.0527 46.0293 41.1699L45.9707 41.4043L45.7363 41.3457L45.3262 41.2285C45.209 41.2285 45.0137 41.1504 44.7402 40.9941C44.3887 40.7988 44.1348 40.7012 43.9785 40.7012C43.5488 40.584 42.6895 40.2129 41.4004 39.5879L40.4043 39.0605C40.3262 39.0605 40.209 39.0215 40.0527 38.9434C38.7246 38.2793 37.9043 37.8105 37.5918 37.5371L37.1816 37.3027C37.1035 37.3027 36.7324 37.0488 36.0684 36.541C36.0293 36.502 35.9707 36.4629 35.8926 36.4238C35.8535 36.3848 35.8145 36.3652 35.7754 36.3652C35.2676 35.8574 35.0137 35.6035 35.0137 35.6035L34.6035 35.1348L34.3105 34.666V32.0879C34.2715 31.9707 34.252 31.8145 34.252 31.6191C34.252 31.3848 34.2324 31.1699 34.1934 30.9746L34.252 30.4473Z" fill="#4A443D"/>
<path d="M89.9395 38.1816C89.8223 38.1816 89.7441 38.2012 89.7051 38.2402C89.5879 38.3574 89.4707 38.377 89.3535 38.2988H89.1191C89.041 38.377 88.9629 38.416 88.8848 38.416C88.7676 38.416 88.6504 38.3965 88.5332 38.3574C88.416 38.2793 88.2598 38.2207 88.0645 38.1816L87.7715 38.0645C87.7324 38.0645 87.6934 38.0645 87.6543 38.0645C87.6543 38.0645 87.6543 38.0449 87.6543 38.0059H87.127C87.0879 38.0059 87.0488 37.9863 87.0098 37.9473C86.9707 37.8691 86.9121 37.8301 86.834 37.8301L86.3652 37.6543C86.209 37.6152 85.9746 37.5762 85.6621 37.5371C85.3887 37.498 85.1543 37.459 84.959 37.4199H84.7246C84.4512 37.4199 84.2363 37.3418 84.0801 37.1855L83.7871 36.9512C83.748 36.873 83.6895 36.8145 83.6113 36.7754C83.5332 36.7363 83.4746 36.7168 83.4355 36.7168L83.3184 36.5996C83.2793 36.5605 83.2598 36.5215 83.2598 36.4824C83.2598 36.4434 83.2207 36.4043 83.1426 36.3652C82.9473 36.3262 82.6934 36.1895 82.3809 35.9551C82.0684 35.6816 81.873 35.4863 81.7949 35.3691C81.7559 35.3301 81.7363 35.2715 81.7363 35.1934C81.7363 35.1152 81.7168 35.0371 81.6777 34.959C81.6777 34.6074 81.6387 34.4316 81.5605 34.4316C81.5605 34.3926 81.541 34.2754 81.502 34.0801C81.502 33.8457 81.4434 33.6699 81.3262 33.5527C81.3262 33.2793 81.3066 33.123 81.2676 33.084V32.791C81.2676 32.791 81.209 32.6152 81.0918 32.2637C80.9746 32.1465 80.916 31.9902 80.916 31.7949C80.916 31.6387 80.8965 31.5215 80.8574 31.4434C80.8574 31.3652 80.8184 31.3066 80.7402 31.2676C80.6621 31.1504 80.623 31.0332 80.623 30.916C80.6621 30.877 80.6816 30.6816 80.6816 30.3301C80.6816 30.0957 80.7012 29.959 80.7402 29.9199V29.6855C80.7402 29.4512 80.8574 29.2949 81.0918 29.2168C81.1309 29.2168 81.1504 29.1582 81.1504 29.041L81.3262 28.9824C81.4824 28.9043 81.9121 28.8652 82.6152 28.8652C82.8496 28.8652 83.1426 28.8848 83.4941 28.9238C83.8457 28.9629 84.1387 29.002 84.373 29.041C84.4902 29.041 84.5879 29.0605 84.666 29.0996C84.7832 29.1387 84.8809 29.1582 84.959 29.1582C85.0762 29.2754 85.252 29.334 85.4863 29.334C85.6035 29.373 85.7402 29.4316 85.8965 29.5098C86.0527 29.5879 86.1504 29.627 86.1895 29.627L86.834 29.7441C86.834 29.7441 87.3223 29.9199 88.2988 30.2715L88.8848 30.5645C89.1973 30.7598 89.4316 30.9355 89.5879 31.0918C89.7441 31.209 89.8613 31.3652 89.9395 31.5605C90.0566 31.834 90.1152 32.0098 90.1152 32.0879C90.2324 32.3613 90.3105 32.5566 90.3496 32.6738C90.5059 32.9863 90.584 33.2207 90.584 33.377L90.7012 34.0801V34.4316C90.7793 34.7441 90.7988 34.959 90.7598 35.0762C90.6816 35.5449 90.5449 36.1699 90.3496 36.9512C90.1543 37.7324 90.0176 38.1426 89.9395 38.1816ZM58.2988 19.3145C58.2207 19.2363 58.2207 19.1973 58.2988 19.1973C58.4941 19.1191 58.4941 19.0605 58.2988 19.0215V18.7871L58.6504 18.2598C58.8066 18.1816 58.9824 18.0449 59.1777 17.8496C59.373 17.6543 59.5293 17.5176 59.6465 17.4395C59.8027 17.2051 59.9199 17.0879 59.998 17.0879C59.998 17.0098 60.0957 16.9316 60.291 16.8535L60.5254 16.6777C60.6035 16.5996 60.6621 16.541 60.7012 16.502C60.7793 16.4629 60.8379 16.4238 60.877 16.3848C60.916 16.3457 60.9941 16.3066 61.1113 16.2676C61.2285 16.2285 61.3262 16.1895 61.4043 16.1504C61.4434 16.0332 61.5605 15.8965 61.7559 15.7402C61.9902 15.5449 62.166 15.4277 62.2832 15.3887L62.5176 15.3301C62.6348 15.2129 62.7129 15.1543 62.752 15.1543L63.1035 15.0957C63.1816 15.0957 63.2402 15.0957 63.2793 15.0957C63.3184 15.0566 63.3379 15.0176 63.3379 14.9785L64.1582 14.5098L64.4512 14.2754C64.4902 14.1582 64.6465 14.041 64.9199 13.9238L65.3887 13.6895C65.4277 13.6895 65.4668 13.6699 65.5059 13.6309C65.584 13.5527 65.6816 13.4941 65.7988 13.4551L66.1504 13.3379C66.3066 13.2988 66.4238 13.2598 66.502 13.2207C66.6191 13.1426 66.7168 13.084 66.7949 13.0449C67.1465 12.9277 67.3223 12.8691 67.3223 12.8691L67.7324 12.8105C67.9277 12.8105 68.1035 12.8496 68.2598 12.9277L69.2559 13.1035C69.2559 13.1426 69.3535 13.1621 69.5488 13.1621C69.666 13.2793 69.7637 13.3379 69.8418 13.3379L70.1348 13.4551C70.3301 13.5332 70.4863 13.6309 70.6035 13.748C70.7988 13.9434 70.8965 14.2168 70.8965 14.5684L71.0137 15.0371L71.0723 15.3887C70.9941 15.7012 70.9551 16.3457 70.9551 17.3223V17.9668L70.8379 18.2012C70.6035 18.5527 70.4668 18.7285 70.4277 18.7285C69.959 19.041 69.6855 19.2363 69.6074 19.3145C69.5684 19.3145 69.5098 19.373 69.4316 19.4902C69.3535 19.5684 69.2754 19.627 69.1973 19.666C68.9629 19.7051 68.8457 19.7832 68.8457 19.9004L68.7285 20.1348L68.4355 20.252L68.1426 20.4277C67.9863 20.4668 67.8887 20.5254 67.8496 20.6035C67.8105 20.6426 67.791 20.6621 67.791 20.6621L67.6738 20.7793L67.4395 20.8965L66.9121 21.248L66.4434 21.5996L66.3262 21.7168H66.3848C67.166 21.7168 67.6543 21.6777 67.8496 21.5996C68.2012 21.5605 68.6309 21.541 69.1387 21.541C69.6465 21.541 70.0762 21.5605 70.4277 21.5996C70.9355 21.6387 71.3262 21.7168 71.5996 21.834C71.873 21.9121 72.2246 22.0684 72.6543 22.3027L73.123 22.4785C73.4355 22.5566 73.709 22.7324 73.9434 23.0059C74.0996 23.084 74.2363 23.2793 74.3535 23.5918C74.666 24.334 74.8809 25.0371 74.998 25.7012C74.998 25.8184 75.0371 25.9551 75.1152 26.1113L75.3496 27.5176C75.3887 27.6348 75.3887 27.752 75.3496 27.8691C75.3496 27.9863 75.3691 28.084 75.4082 28.1621C75.4473 28.4355 75.4668 30.2715 75.4668 33.6699C75.4668 34.4121 75.4473 34.998 75.4082 35.4277C75.4082 36.3652 75.3105 37.9082 75.1152 40.0566C75.1152 40.7988 75.0957 41.4629 75.0566 42.0488C75.0176 42.6348 74.9785 43.0645 74.9395 43.3379C74.7051 44.002 74.4902 44.5098 74.2949 44.8613C74.2559 45.0566 74.1582 45.2324 74.002 45.3887C73.8457 45.5449 73.7285 45.6426 73.6504 45.6816C73.4941 45.8379 73.3574 45.8574 73.2402 45.7402C73.1621 45.6621 73.0254 45.623 72.8301 45.623H72.3613C72.2441 45.5449 72.0684 45.5449 71.834 45.623C71.7949 45.6621 71.7168 45.7207 71.5996 45.7988C71.4824 45.8379 71.3262 45.8574 71.1309 45.8574C70.9355 45.8965 70.7207 45.9746 70.4863 46.0918C70.291 46.209 70.1152 46.2676 69.959 46.2676C69.8027 46.2285 69.666 46.209 69.5488 46.209H69.373C69.334 46.2871 69.2559 46.3457 69.1387 46.3848C69.0215 46.4238 68.9238 46.4824 68.8457 46.5605C68.7676 46.5996 68.5527 46.6777 68.2012 46.7949L66.209 46.8535C65.6621 46.8535 65.291 46.834 65.0957 46.7949C64.9395 46.7168 64.7051 46.6777 64.3926 46.6777C64.3145 46.6387 64.2168 46.6191 64.0996 46.6191C64.0215 46.6191 63.9434 46.5996 63.8652 46.5605C63.5137 46.4824 63.2793 46.4434 63.1621 46.4434C63.0449 46.4434 62.9082 46.5215 62.752 46.6777C62.5957 47.0293 62.4004 47.0293 62.166 46.6777C62.0879 46.4824 62.0293 46.3848 61.9902 46.3848C61.9121 46.3848 61.7754 46.2871 61.5801 46.0918C61.4629 45.9746 61.4043 45.916 61.4043 45.916L61.2871 46.0332C61.1699 46.1113 61.0527 46.1699 60.9355 46.209C60.8574 46.209 60.7793 46.1699 60.7012 46.0918L60.5254 45.9746L60.4082 46.0918C60.1348 46.1699 59.9785 46.1699 59.9395 46.0918C59.8223 45.9746 59.7441 45.584 59.7051 44.9199C59.7051 44.8418 59.6855 44.7832 59.6465 44.7441C59.6465 44.666 59.6465 44.6074 59.6465 44.5684L59.5879 44.2168L59.3535 43.6309C59.3535 43.5137 59.334 43.3965 59.2949 43.2793C59.2559 43.123 59.2363 42.9863 59.2363 42.8691C59.2363 42.791 59.2168 42.7129 59.1777 42.6348C59.1387 42.5566 59.1191 42.4395 59.1191 42.2832C59.002 42.0488 58.9434 41.873 58.9434 41.7559V41.3457L58.6504 40.9941L58.5332 40.877V39.2363C58.5332 39.2363 58.5332 39.2168 58.5332 39.1777C58.5723 39.0996 58.5918 38.9434 58.5918 38.709L58.6504 38.123C58.6504 37.9668 58.6699 37.8105 58.709 37.6543C58.7871 37.498 58.8262 37.3418 58.8262 37.1855L58.8848 36.7168C58.9238 36.5996 58.9434 36.3652 58.9434 36.0137C58.9434 35.8574 58.9629 35.7207 59.002 35.6035C59.041 35.4863 59.0605 35.4082 59.0605 35.3691C59.0996 35.291 59.1191 35.2129 59.1191 35.1348C59.1191 35.0176 59.1582 34.8809 59.2363 34.7246C59.2363 33.9824 59.3145 33.2988 59.4707 32.6738C59.4707 32.6348 59.4902 32.5176 59.5293 32.3223C59.5684 32.0879 59.5879 31.8145 59.5879 31.502L59.6465 29.9785V25.8184C59.6855 25.7793 59.7051 25.623 59.7051 25.3496V24.7051L59.8809 24.3535L60.0566 23.709C60.0566 23.6699 59.998 23.6504 59.8809 23.6504C59.8027 23.6113 59.666 23.5918 59.4707 23.5918H58.9434C58.7871 23.5918 58.6895 23.5723 58.6504 23.5332C58.6113 23.4551 58.6113 23.3184 58.6504 23.123L58.5918 22.6543C58.5918 22.6152 58.5723 22.5566 58.5332 22.4785C58.5332 22.4004 58.5332 22.2832 58.5332 22.127V21.5996C58.4941 21.4824 58.4746 20.9941 58.4746 20.1348C58.4746 19.5879 58.416 19.3145 58.2988 19.3145ZM62.6348 28.5723C62.6348 29.041 62.6738 29.3145 62.752 29.3926H63.3379L64.4512 29.2168H65.0957C65.4863 29.1777 65.9746 29.1582 66.5605 29.1582C67.1855 29.1582 67.7129 29.1777 68.1426 29.2168L69.2559 29.2754C69.8027 29.3535 70.0762 29.3926 70.0762 29.3926L70.8965 29.4512C71.0918 29.4902 71.2285 29.5098 71.3066 29.5098C71.3848 29.5098 71.4434 29.4902 71.4824 29.4512C71.5605 29.373 71.6191 29.002 71.6582 28.3379C71.6582 27.8301 71.6191 27.498 71.541 27.3418C71.4629 27.2246 71.3066 27.166 71.0723 27.166H67.6152L66.9121 27.1074C66.6387 27.1074 66.4043 27.127 66.209 27.166C65.9746 27.166 65.7988 27.1855 65.6816 27.2246C65.5645 27.3027 65.3301 27.3418 64.9785 27.3418C64.627 27.3418 64.3535 27.4004 64.1582 27.5176L63.6309 27.6348C63.123 27.752 62.8301 27.8691 62.752 27.9863C62.6348 28.2207 62.5957 28.416 62.6348 28.5723ZM62.8691 35.6035C62.8691 36.3457 62.9277 36.8145 63.0449 37.0098V38.3574C63.0449 39.1387 63.0645 39.5684 63.1035 39.6465L63.1621 39.7051C63.5137 39.7051 63.8457 39.627 64.1582 39.4707L64.4512 39.4121L65.0957 39.2949L66.209 39.1777C66.3652 39.1387 66.541 39.1191 66.7363 39.1191H67.4395L67.791 39.002C67.9473 38.9629 68.123 38.9629 68.3184 39.002C68.5137 39.002 68.709 38.9824 68.9043 38.9434L70.0176 38.7676L70.4863 38.709C70.5254 38.6309 70.5645 38.3574 70.6035 37.8887C70.6426 37.4199 70.7207 37.0098 70.8379 36.6582L70.8965 35.9551C70.9746 35.6426 71.0137 35.3887 71.0137 35.1934C71.0137 35.1152 70.9355 35.0762 70.7793 35.0762C70.6621 35.0371 70.584 35.0176 70.5449 35.0176L70.252 35.0762C70.1738 35.0762 70.0176 35.0957 69.7832 35.1348C69.5488 35.1738 69.1582 35.2324 68.6113 35.3105C68.377 35.3105 68.2402 35.3301 68.2012 35.3691C68.123 35.4082 68.0254 35.4277 67.9082 35.4277C67.791 35.3887 67.7129 35.3496 67.6738 35.3105C67.5566 35.1934 67.2637 35.1348 66.7949 35.1348C66.6777 35.1348 66.3066 35.1738 65.6816 35.252C65.4473 35.252 65.2129 35.2324 64.9785 35.1934C64.7441 35.1152 64.5879 35.0762 64.5098 35.0762L64.2168 35.0176C64.1777 34.9785 64.041 34.959 63.8066 34.959C63.7676 34.959 63.709 34.959 63.6309 34.959C63.5918 34.9199 63.4941 34.9004 63.3379 34.9004C63.2207 34.8613 63.1426 34.8613 63.1035 34.9004C63.0645 34.9395 63.0449 34.998 63.0449 35.0762C63.0449 35.3496 62.9863 35.5254 62.8691 35.6035ZM80.2129 20.3105C80.2129 20.2324 80.2324 20.1543 80.2715 20.0762C80.3105 19.998 80.3496 19.9004 80.3887 19.7832L80.7988 18.9629L80.9746 18.7285C81.0527 18.6504 81.1309 18.4746 81.209 18.2012C81.248 18.084 81.3457 17.9668 81.502 17.8496C81.6191 17.3809 81.7363 17.0879 81.8535 16.9707C81.9707 16.8535 82.0488 16.6777 82.0879 16.4434L82.2637 16.209L82.6738 15.0957C82.7129 15.0566 82.7324 14.9785 82.7324 14.8613C82.7715 14.7441 82.8301 14.627 82.9082 14.5098L82.9668 13.9824C83.084 13.748 83.1621 13.5332 83.2012 13.3379C83.2012 13.2988 83.2402 13.123 83.3184 12.8105C83.5137 12.3027 83.6699 11.9707 83.7871 11.8145C83.9043 11.6191 84.0605 11.502 84.2559 11.4629L84.4316 11.4043C84.4707 11.3652 84.5293 11.3457 84.6074 11.3457C84.6855 11.3066 84.7637 11.2676 84.8418 11.2285H85.0176C85.0566 11.2285 85.1152 11.248 85.1934 11.2871C85.3105 11.3262 85.4277 11.3457 85.5449 11.3457C85.7012 11.3457 85.8184 11.3652 85.8965 11.4043C85.9746 11.4043 86.0332 11.4434 86.0723 11.5215C86.1504 11.6777 86.209 11.7559 86.248 11.7559L86.7754 11.8145C86.8145 11.8926 86.873 11.9707 86.9512 12.0488C87.0684 12.0879 87.1465 12.127 87.1855 12.166C87.2637 12.166 87.3613 12.2051 87.4785 12.2832C87.5957 12.3223 87.6543 12.3613 87.6543 12.4004L87.7715 12.6348L87.8887 13.1035L87.9473 13.6895C88.0254 14.4707 88.0645 15.0176 88.0645 15.3301C88.0645 15.5254 88.1035 15.6816 88.1816 15.7988C88.2207 15.877 88.3379 15.916 88.5332 15.916C88.8066 15.7598 89.373 15.6816 90.2324 15.6816L91.1113 15.623C91.5801 15.5449 91.9707 15.5059 92.2832 15.5059C92.4395 15.5059 93.0449 15.5645 94.0996 15.6816C94.4512 15.7598 94.8613 15.9551 95.3301 16.2676L96.1504 16.4434C96.2285 16.4824 96.3066 16.541 96.3848 16.6191C96.4629 16.6973 96.541 16.7559 96.6191 16.7949C96.8535 16.9121 96.9902 17.0488 97.0293 17.2051C97.2246 17.6348 97.3809 18.0254 97.498 18.377C97.6152 18.6895 97.6934 18.9043 97.7324 19.0215L97.791 19.3145L97.8496 19.7832C97.9668 19.9395 98.0254 20.1348 98.0254 20.3691C98.0254 20.6426 98.0449 20.8965 98.084 21.1309L98.1426 21.834V23.1816C98.1816 23.2207 98.2012 23.9434 98.2012 25.3496V27.752C98.3184 29.1973 98.377 30.5449 98.377 31.7949C98.416 33.0059 98.416 33.8457 98.377 34.3145C98.2598 34.3535 98.2012 34.8809 98.2012 35.8965L98.1426 41.5801C98.1035 41.6973 98.084 41.873 98.084 42.1074L98.0254 42.8105C98.0254 42.8496 97.9473 43.0254 97.791 43.3379C97.752 43.7676 97.6152 44.373 97.3809 45.1543L97.0879 46.0332C97.0098 46.2676 96.9707 46.5801 96.9707 46.9707L96.9121 47.2051C96.873 47.2441 96.8535 47.3418 96.8535 47.498L96.7949 47.5566C96.7559 47.5957 96.6191 48.0449 96.3848 48.9043C95.9941 49.998 95.623 50.7012 95.2715 51.0137C95.1152 51.1309 95.0371 51.2285 95.0371 51.3066C94.998 51.3066 94.959 51.3262 94.9199 51.3652C94.8809 51.4043 94.8418 51.4238 94.8027 51.4238L94.6855 51.541C94.6465 51.5801 94.627 51.6387 94.627 51.7168C94.627 51.7559 94.6074 51.7949 94.5684 51.834C94.4512 51.9512 94.3926 52.0684 94.3926 52.1855C94.3926 52.2246 94.373 52.2637 94.334 52.3027C94.2949 52.3418 94.2559 52.3613 94.2168 52.3613L93.8066 52.7715L93.3379 53.0059L93.0449 53.2402L92.2832 53.8262C92.166 53.9434 92.0098 54.0605 91.8145 54.1777C91.6191 54.2949 91.4629 54.3926 91.3457 54.4707L90.9941 54.5879C90.7988 54.627 90.584 54.6855 90.3496 54.7637C90.1543 54.8418 89.959 54.9199 89.7637 54.998C89.7246 55.0762 89.666 55.0762 89.5879 54.998C89.5488 54.959 89.3926 54.959 89.1191 54.998C88.9629 54.998 88.7871 54.959 88.5918 54.8809L88.1816 54.5879L87.9473 54.4707H86.9512C86.5605 54.4707 86.248 54.4512 86.0137 54.4121C85.8184 54.4121 85.6621 54.373 85.5449 54.2949C85.4668 54.2168 85.3887 54.1191 85.3105 54.002C85.2324 53.8848 85.1738 53.7871 85.1348 53.709L85.0762 53.416C85.0371 53.377 85.0176 53.2402 85.0176 53.0059L84.8418 52.127C84.8027 52.0488 84.7637 51.9512 84.7246 51.834C84.6855 51.6777 84.5879 51.4629 84.4316 51.1895C84.3535 50.9941 84.3145 50.7598 84.3145 50.4863C84.3145 50.2129 84.2559 50.0566 84.1387 50.0176C83.9824 49.8613 83.9043 49.666 83.9043 49.4316C83.9043 49.2754 83.8848 49.1582 83.8457 49.0801C83.8066 48.9629 83.7285 48.8848 83.6113 48.8457C83.4941 48.7676 83.4355 48.6504 83.4355 48.4941C83.4355 48.2988 83.5332 48.1035 83.7285 47.9082C83.8066 47.8301 83.9043 47.7715 84.0215 47.7324C84.1387 47.6934 84.2363 47.6738 84.3145 47.6738L84.5488 47.498C84.627 47.498 84.7246 47.459 84.8418 47.3809C84.959 47.3027 85.0371 47.2637 85.0762 47.2637C85.1543 47.1855 85.252 47.127 85.3691 47.0879C85.5254 47.0488 85.6621 46.9707 85.7793 46.8535L86.1895 46.502L86.541 46.3848C86.541 46.2676 86.5801 46.1895 86.6582 46.1504C86.7363 46.1113 86.834 46.0137 86.9512 45.8574C87.1074 45.7012 87.2246 45.584 87.3027 45.5059C87.6152 45.3887 87.8105 45.2715 87.8887 45.1543C88.084 44.959 88.2207 44.8418 88.2988 44.8027C88.4551 44.6855 88.6113 44.5293 88.7676 44.334C88.9238 44.0996 89.041 43.9629 89.1191 43.9238C89.2754 43.8457 89.4512 43.6504 89.6465 43.3379C89.6855 43.2988 89.7246 43.2402 89.7637 43.1621C89.8027 43.0449 89.8418 42.9277 89.8809 42.8105C90.2715 41.9512 90.584 41.2676 90.8184 40.7598C91.0918 40.252 91.248 39.9199 91.2871 39.7637L91.6973 38.6504L92.166 37.4199L92.4004 35.7207L92.459 34.9004C92.498 34.8223 92.5176 34.5488 92.5176 34.0801C92.5176 33.8457 92.5762 33.6699 92.6934 33.5527C92.7324 33.3965 92.752 33.1816 92.752 32.9082C92.752 32.6348 92.7715 32.4004 92.8105 32.2051L92.9863 30.2715C93.0254 29.998 93.0449 29.666 93.0449 29.2754C93.2012 28.1816 93.2793 27.2246 93.2793 26.4043C93.2793 25.2324 93.2988 24.5098 93.3379 24.2363C93.3379 23.6895 93.2988 23.3574 93.2207 23.2402C93.1816 23.123 93.0645 23.0254 92.8691 22.9473L92.459 23.0059C92.1465 23.084 91.5801 23.123 90.7598 23.123H90.5254C90.4863 23.1621 90.3887 23.1816 90.2324 23.1816L90.0566 23.2402C89.9785 23.3574 89.8223 23.4746 89.5879 23.5918C89.3926 23.5918 89.2559 23.6309 89.1777 23.709C89.0215 23.7871 88.9238 23.8262 88.8848 23.8262L88.4746 24.1777C88.4746 24.2559 88.4355 24.2949 88.3574 24.2949C88.1621 24.4121 88.0449 24.4902 88.0059 24.5293C87.9668 24.5293 87.9277 24.5488 87.8887 24.5879C87.8887 24.627 87.8496 24.6465 87.7715 24.6465C87.6934 24.6465 87.5957 24.666 87.4785 24.7051C87.3613 24.7441 87.2832 24.8027 87.2441 24.8809L86.9512 25.2324H86.834C86.4824 25.2324 86.2676 25.3301 86.1895 25.5254L86.0723 25.8184C85.877 25.8965 85.5254 26.1504 85.0176 26.5801C84.5879 26.9707 84.3535 27.166 84.3145 27.166C84.002 27.166 83.8262 27.0879 83.7871 26.9316C83.7871 26.8535 83.709 26.7559 83.5527 26.6387L83.3184 26.5215C83.2402 26.4824 83.1621 26.4629 83.084 26.4629C83.0059 26.4629 82.9473 26.4824 82.9082 26.5215C82.6348 26.5215 82.459 26.502 82.3809 26.4629H82.0293C81.6387 26.4629 81.3652 26.4434 81.209 26.4043C81.1309 26.3262 81.0918 26.0332 81.0918 25.5254V24.9395C80.9746 24.7441 80.916 24.4902 80.916 24.1777L80.7402 23.123C80.6621 23.0449 80.623 22.8496 80.623 22.5371V21.834C80.584 21.7168 80.584 21.541 80.623 21.3066C80.623 20.9551 80.5449 20.7402 80.3887 20.6621C80.3496 20.584 80.3105 20.5254 80.2715 20.4863C80.2324 20.4473 80.2129 20.3887 80.2129 20.3105Z" fill="#4A443D"/>
<path d="M127.521 58.8066C127.326 58.8066 127.17 58.748 127.053 58.6309L126.994 58.5723C126.799 58.5332 126.643 58.5332 126.525 58.5723H125.998C125.842 58.6504 125.705 58.6895 125.588 58.6895C125.275 58.6895 125.002 58.416 124.768 57.8691L124.357 56.5215L124.24 56.2871L124.123 55.877C124.123 55.877 124.123 55.8965 124.123 55.9355C124.162 56.0137 124.162 56.0332 124.123 55.9941V55.877L124.006 55.584L123.947 55.3496C123.908 55.3496 123.85 55.2324 123.771 54.998C123.498 54.5293 123.4 54.0215 123.479 53.4746C123.518 53.4355 123.537 53.3574 123.537 53.2402L123.596 52.9473C123.596 52.7129 123.615 52.5371 123.654 52.4199V52.3027C123.693 52.1855 123.713 51.9902 123.713 51.7168C123.752 51.5605 123.771 51.4043 123.771 51.248C123.771 51.0918 123.791 50.9551 123.83 50.8379L123.889 50.6035V50.252C123.889 49.9785 123.908 49.7637 123.947 49.6074C123.986 49.4902 124.006 49.041 124.006 48.2598L124.123 45.2129V44.627C124.123 44.4707 124.182 44.3926 124.299 44.3926C124.416 44.3926 124.494 44.4121 124.533 44.4512C124.494 44.4902 124.436 44.6074 124.357 44.8027C124.279 44.959 124.162 45.1543 124.006 45.3887L123.596 45.9746L123.068 46.6191L122.248 47.6738C122.092 47.9473 121.721 48.377 121.135 48.9629C120.822 49.3926 120.568 49.666 120.373 49.7832C120.295 49.9004 120.197 49.998 120.08 50.0762L119.904 50.252C119.357 50.7988 119.084 51.0723 119.084 51.0723L117.736 52.2441C117.189 52.8301 116.76 53.2012 116.447 53.3574L116.154 53.5332C115.646 53.8457 115.295 54.002 115.1 54.002C114.904 53.9629 114.553 53.8262 114.045 53.5918C113.967 53.4746 113.869 53.3965 113.752 53.3574C113.635 53.3184 113.42 53.2988 113.107 53.2988C112.678 53.2988 112.424 53.2012 112.346 53.0059C112.268 52.8105 112.209 52.4004 112.17 51.7754L112.111 50.8965V50.7207C112.072 50.6426 112.053 50.4668 112.053 50.1934L111.994 49.6074V49.5488C111.994 49.3535 112.033 49.1777 112.111 49.0215L112.521 49.2559C112.521 49.0605 112.502 48.9238 112.463 48.8457L112.111 49.1387C111.916 48.8652 111.818 48.6699 111.818 48.5527C111.818 48.3184 111.975 48.084 112.287 47.8496L112.404 47.791L112.58 47.6738C112.893 47.4785 113.127 47.3809 113.283 47.3809C113.361 47.3809 113.42 47.3223 113.459 47.2051C113.576 46.8926 113.947 46.5996 114.572 46.3262L114.689 46.2676C114.689 46.2676 114.768 46.1895 114.924 46.0332L115.334 45.7988L115.51 45.6816L115.861 45.5645C115.9 45.5645 115.881 45.584 115.803 45.623C115.764 45.6621 115.725 45.6816 115.686 45.6816C115.646 45.6816 115.646 45.6426 115.686 45.5645H115.744C115.9 45.4082 115.979 45.3301 115.979 45.3301C116.018 45.291 116.076 45.2715 116.154 45.2715C116.076 45.3496 116.057 45.3496 116.096 45.2715C116.096 45.2715 116.174 45.1934 116.33 45.0371L116.623 44.7441C116.936 44.5879 117.209 44.3926 117.443 44.1582L118.674 42.9277C119.338 42.3418 119.768 42.0488 119.963 42.0488C120.002 42.0098 120.041 41.9316 120.08 41.8145C120.119 41.6973 120.217 41.541 120.373 41.3457L120.666 41.1113C120.9 40.877 121.115 40.7598 121.311 40.7598C121.389 40.7598 121.389 40.7988 121.311 40.877C121.271 40.9551 121.213 40.9941 121.135 40.9941C121.057 40.9941 121.057 40.916 121.135 40.7598C121.213 40.5645 121.389 40.3301 121.662 40.0566C122.014 39.7051 122.287 39.5098 122.482 39.4707C122.561 39.4316 122.639 39.373 122.717 39.2949C122.795 39.2168 122.834 39.1387 122.834 39.0605C122.99 38.709 123.186 38.4551 123.42 38.2988L123.596 38.0645C123.791 37.791 123.889 37.6543 123.889 37.6543L124.357 37.8301L124.299 37.7129L124.064 38.123C124.143 38.1621 124.201 38.1816 124.24 38.1816C124.279 38.1426 124.279 38.1426 124.24 38.1816L123.068 38.4746C122.99 38.4746 122.893 38.4941 122.775 38.5332C122.658 38.5723 122.619 38.5723 122.658 38.5332L122.307 38.6504L121.779 38.709C121.662 38.709 121.584 38.7285 121.545 38.7676C121.232 38.8457 120.842 38.9238 120.373 39.002C119.943 39.041 119.631 39.041 119.436 39.002L119.143 38.7676C119.143 38.7285 119.123 38.709 119.084 38.709L118.908 38.5332L118.322 38.4746C118.088 38.4355 117.854 38.3574 117.619 38.2402C117.385 38.123 117.229 38.0059 117.15 37.8887C117.033 37.7715 116.955 37.6152 116.916 37.4199C116.916 37.1855 116.916 36.873 116.916 36.4824C116.916 36.248 116.896 36.0527 116.857 35.8965C116.857 35.7012 116.896 35.6621 116.975 35.7793L116.857 35.4277V34.959C116.818 34.7637 116.799 34.5488 116.799 34.3145V33.7285V33.7871C116.799 33.748 116.799 33.7285 116.799 33.7285C116.799 33.6895 116.779 33.6699 116.74 33.6699C116.701 33.5527 116.682 33.3965 116.682 33.2012C116.682 32.9277 116.838 32.6934 117.15 32.498C117.229 32.459 117.268 32.4785 117.268 32.5566C117.268 32.5957 117.287 32.5371 117.326 32.3809L118.088 31.5605C118.205 31.4043 118.303 31.3262 118.381 31.3262C118.498 31.2871 118.537 31.2285 118.498 31.1504L118.85 30.7402L119.201 30.5645C119.123 30.5645 119.104 30.5254 119.143 30.4473C119.143 30.3691 119.162 30.3105 119.201 30.2715L119.436 29.8613L119.494 29.7441C119.533 29.627 119.572 29.5293 119.611 29.4512C119.65 29.373 119.689 29.3145 119.729 29.2754C119.729 29.2754 119.729 29.2949 119.729 29.334L119.904 29.041C119.904 29.002 119.963 28.8652 120.08 28.6309C120.119 28.5918 120.119 28.6309 120.08 28.748C120.041 28.8262 120.021 28.8262 120.021 28.748L120.08 28.5723C120.158 28.377 120.236 28.2402 120.314 28.1621C120.354 28.123 120.373 28.1035 120.373 28.1035C120.451 28.0254 120.49 27.9668 120.49 27.9277L120.9 28.1621C120.939 28.0449 120.939 27.9473 120.9 27.8691H120.432V27.9277C120.354 27.7715 120.314 27.5957 120.314 27.4004V25.9355L120.666 25.5254C120.744 25.4473 120.9 25.3496 121.135 25.2324L121.252 25.1738L121.604 25.1152C122.072 24.998 122.346 24.9395 122.424 24.9395L122.717 24.8809H122.834L123.068 24.8223C123.107 24.8223 123.146 24.8223 123.186 24.8223C123.225 24.8223 123.264 24.8223 123.303 24.8223L123.537 24.7637C123.615 24.7246 123.654 24.7246 123.654 24.7637C123.654 24.7637 123.635 24.7832 123.596 24.8223L123.947 24.7051C124.182 24.7051 124.377 24.6855 124.533 24.6465C124.729 24.6465 124.885 24.627 125.002 24.5879H125.119C125.51 24.4707 125.705 24.5293 125.705 24.7637C125.705 24.8809 125.646 25.0176 125.529 25.1738C125.412 25.3301 125.295 25.4082 125.178 25.4082C124.943 25.4082 124.885 25.0762 125.002 24.4121L125.061 24.002C125.061 23.7676 125.08 23.5723 125.119 23.416L125.236 23.0059C125.158 23.0449 125.041 23.0645 124.885 23.0645C124.729 23.0645 124.592 23.084 124.475 23.123C124.357 23.123 124.279 23.123 124.24 23.123C124.201 23.123 124.201 23.0645 124.24 22.9473L123.83 23.1816C123.635 23.1816 123.459 23.1426 123.303 23.0645C123.068 23.0645 122.912 23.0449 122.834 23.0059C122.678 23.0059 122.561 22.9863 122.482 22.9473H122.365L122.014 22.8301C122.092 22.8691 122.072 22.8887 121.955 22.8887L121.662 22.8301L121.018 22.7129L120.432 22.4199V22.3613C120.119 22.2441 119.963 22.0488 119.963 21.7754L119.904 21.6582C119.787 21.502 119.729 21.1895 119.729 20.7207C119.729 20.5254 119.787 20.4473 119.904 20.4863C120.061 20.4863 120.139 20.5254 120.139 20.6035L119.729 20.3105C119.572 20.0762 119.494 19.8418 119.494 19.6074V19.3145L119.553 19.1387C119.67 18.9043 119.787 18.748 119.904 18.6699L120.139 18.4941C120.373 18.2598 120.646 18.1426 120.959 18.1426L121.369 17.9668L122.365 17.5566C122.6 17.4785 122.717 17.5176 122.717 17.6738C122.717 17.752 122.639 17.8496 122.482 17.9668C122.365 18.084 122.307 18.084 122.307 17.9668L122.775 17.498H123.186C123.225 17.459 123.283 17.4395 123.361 17.4395L123.596 17.3809H123.654L124.357 17.2051C124.553 17.0488 124.924 16.9707 125.471 16.9707L125.822 16.9121C125.861 16.9121 125.881 16.9316 125.881 16.9707L125.998 16.9121C126.154 16.834 126.799 16.7559 127.932 16.6777C128.479 16.6387 129.025 16.6191 129.572 16.6191C130.119 16.6191 130.529 16.6387 130.803 16.6777C130.881 16.7168 131.018 16.7363 131.213 16.7363C131.799 16.7754 132.58 17.0488 133.557 17.5566C133.869 17.7129 134.123 17.8691 134.318 18.0254C134.514 18.1816 134.65 18.3379 134.729 18.4941C134.885 18.6113 135.002 18.7871 135.08 19.0215L135.139 19.1387V19.373L135.197 20.0176V20.6035C135.197 21.3848 135.178 21.873 135.139 22.0684L135.08 22.5957L134.846 23.5918L134.787 23.8262L134.67 24.1777L134.494 24.8223L134.025 26.6387C133.947 27.0293 133.908 27.2441 133.908 27.2832L133.791 27.9277L133.732 28.1621C133.693 28.2012 133.674 28.2598 133.674 28.3379L133.615 28.5137V28.5723L132.854 28.8066H131.916C130.783 28.8066 130.1 28.7871 129.865 28.748C129.787 29.0605 129.729 29.2168 129.689 29.2168L129.865 31.0918L129.982 31.1504C130.1 31.1504 130.217 31.1309 130.334 31.0918C130.49 31.0527 130.646 31.0137 130.803 30.9746C131.037 30.9355 131.857 30.916 133.264 30.916C133.498 30.916 133.85 30.8184 134.318 30.623C134.826 30.4277 135.178 30.3301 135.373 30.3301H136.545C137.053 30.3301 137.404 30.3496 137.6 30.3887C137.795 30.3887 137.951 30.3887 138.068 30.3887H138.244C138.322 30.4277 138.42 30.4473 138.537 30.4473C138.928 30.4863 139.631 30.7402 140.646 31.209C141.076 31.4824 141.447 31.7949 141.76 32.1465C142.189 32.7715 142.424 33.3965 142.463 34.0215L142.58 36.3652C142.619 36.873 142.58 38.0449 142.463 39.8809C142.385 40.8184 142.346 41.4238 142.346 41.6973V41.9902C142.307 42.1465 142.287 42.3223 142.287 42.5176C142.209 42.6348 142.17 42.8496 142.17 43.1621V43.2793C142.053 43.748 141.994 44.1777 141.994 44.5684C141.799 45.7402 141.584 46.502 141.35 46.8535C141.115 47.3613 140.842 47.6738 140.529 47.791L140.178 48.1426C140.061 48.2598 139.924 48.3574 139.768 48.4355C139.65 48.4746 139.514 48.4941 139.357 48.4941L139.299 48.5527L139.064 48.6113C138.947 48.6895 138.752 48.7285 138.479 48.7285L138.01 48.8457H138.068L137.834 48.9043L137.717 48.9629C137.639 49.002 137.521 49.0215 137.365 49.0215H137.189C137.15 48.9824 137.053 48.9824 136.896 49.0215C136.701 49.0605 136.408 49.0801 136.018 49.0801C135.627 49.041 135.354 48.9824 135.197 48.9043C135.041 48.8262 134.943 48.7676 134.904 48.7285L134.787 48.6699C134.826 48.6699 134.807 48.6504 134.729 48.6113L134.377 48.4355C134.221 48.3574 134.045 48.2988 133.85 48.2598C132.99 48.1816 132.404 47.9863 132.092 47.6738C131.857 47.5566 131.623 47.2441 131.389 46.7363C131.271 46.4238 131.213 46.1699 131.213 45.9746C131.213 45.7402 131.193 45.5645 131.154 45.4473V44.7441C131.154 44.627 131.135 44.5293 131.096 44.4512L131.037 44.1582L130.861 43.1035V42.752C130.822 42.5957 130.803 42.3809 130.803 42.1074V41.7559L130.92 41.873C130.92 41.834 130.822 41.6582 130.627 41.3457C130.471 40.9941 130.471 40.7598 130.627 40.6426L130.861 40.4668C130.939 40.3887 131.096 40.3496 131.33 40.3496C132.307 40.3496 133.107 40.3887 133.732 40.4668C134.357 40.5449 134.787 40.584 135.021 40.584H135.373C135.725 40.584 136.018 40.6035 136.252 40.6426C136.486 40.6426 136.682 40.623 136.838 40.584C137.033 40.5449 137.229 40.3105 137.424 39.8809C137.619 39.5293 137.795 38.8848 137.951 37.9473C137.951 37.6738 137.99 37.3809 138.068 37.0684C138.146 36.7168 138.166 36.4434 138.127 36.248L137.834 35.8379H137.717V36.3066H137.482C137.443 36.3457 137.365 36.3652 137.248 36.3652C137.131 36.4043 136.994 36.4238 136.838 36.4238C136.721 36.3848 136.604 36.3652 136.486 36.3652H135.959L134.963 36.4238C134.807 36.541 134.553 36.5605 134.201 36.4824L134.318 36.0137L133.967 36.0723L134.143 36.4824C133.635 36.7168 132.814 36.834 131.682 36.834H131.447C131.174 36.9121 130.627 36.9512 129.807 36.9512C129.689 36.9512 129.631 36.9316 129.631 36.8926C129.709 36.8535 129.748 36.9902 129.748 37.3027C129.748 37.5762 129.729 37.9082 129.689 38.2988C129.611 39.0801 129.572 39.7441 129.572 40.291C129.572 43.2988 129.553 44.9395 129.514 45.2129C129.514 47.4004 129.533 48.5527 129.572 48.6699C129.611 48.748 129.631 49.5293 129.631 51.0137C129.631 52.6934 129.611 53.7285 129.572 54.1191L129.514 55.2324V55.3496L129.455 55.8184L129.396 56.2285V56.2871L129.279 56.6387C129.201 56.7168 129.182 56.6973 129.221 56.5801C129.299 56.4629 129.338 56.4629 129.338 56.5801C129.299 56.6191 129.279 56.6973 129.279 56.8145L128.693 58.0449C128.459 58.3574 128.264 58.5527 128.107 58.6309C127.951 58.748 127.756 58.8066 127.521 58.8066ZM123.713 31.9121C123.908 31.9121 124.025 31.8926 124.064 31.8535L124.65 31.7949C125.158 31.7168 125.451 31.6191 125.529 31.502C125.607 31.4238 125.646 31.2676 125.646 31.0332C125.646 30.7988 125.607 30.6621 125.529 30.623C125.529 30.5449 125.412 30.5059 125.178 30.5059C124.982 30.5059 124.807 30.5449 124.65 30.623L124.475 30.6816L123.771 30.5059C123.615 30.5059 123.498 30.5059 123.42 30.5059C123.342 30.4668 123.283 30.4473 123.244 30.4473C123.088 30.4473 123.01 30.584 123.01 30.8574L122.951 31.0918L122.834 31.8535C122.834 31.9316 122.873 31.9902 122.951 32.0293C123.068 32.0293 123.205 32.0098 123.361 31.9707L123.713 31.9121ZM128.869 24.7051C128.986 24.7441 129.104 24.7637 129.221 24.7637C129.377 24.7637 129.514 24.7441 129.631 24.7051H130.334C130.764 24.7051 131.018 24.6855 131.096 24.6465C131.174 24.5684 131.213 24.334 131.213 23.9434L131.271 23.416V23.2402C131.271 22.8887 131.232 22.6348 131.154 22.4785C131.076 22.4395 130.939 22.4199 130.744 22.4199C130.549 22.4199 130.373 22.4395 130.217 22.4785H129.514L128.869 22.5371C128.83 22.5371 128.811 22.8887 128.811 23.5918C128.811 24.334 128.83 24.7051 128.869 24.7051ZM112.99 16.7363C112.99 16.6973 112.99 16.6777 112.99 16.6777L112.932 16.3848C112.971 16.4238 113.01 16.502 113.049 16.6191C113.088 16.6973 113.049 16.6777 112.932 16.5605L112.756 16.3848H112.932L113.166 16.1504C113.088 16.3066 112.951 16.4043 112.756 16.4434C112.6 16.4824 112.424 16.4629 112.229 16.3848L112.053 16.209C112.092 16.1699 112.15 16.1699 112.229 16.209C112.346 16.248 112.424 16.2871 112.463 16.3262H111.76L111.525 16.1504L111.408 15.8574V15.7988L111.35 14.9785V14.1582C111.311 13.9629 111.291 13.6504 111.291 13.2207V12.752C111.291 12.2051 111.33 11.7754 111.408 11.4629V11.3457L111.467 10.9941L111.584 10.4668L111.76 10.1152C111.838 9.8418 111.896 9.68555 111.936 9.64648C111.936 9.56836 111.975 9.45117 112.053 9.29492C112.053 9.13867 112.131 8.98242 112.287 8.82617L112.463 8.29883V8.12305C112.619 7.6543 112.697 7.41992 112.697 7.41992C112.932 6.7168 113.068 6.24805 113.107 6.01367L113.166 5.60352L113.225 5.42773V5.36914C113.225 5.25195 113.264 5.1543 113.342 5.07617L113.4 4.72461V4.54883L113.459 4.49023C113.42 4.45117 113.439 4.37305 113.518 4.25586C113.518 4.02148 113.537 3.86523 113.576 3.78711C113.732 3.66992 113.889 3.57227 114.045 3.49414C114.201 3.37695 114.318 3.31836 114.396 3.31836L114.572 2.9082H114.631C114.826 2.9082 115.061 3.00586 115.334 3.20117C115.646 3.35742 115.861 3.5332 115.979 3.72852C116.174 4.00195 116.33 4.29492 116.447 4.60742C116.447 4.68555 116.467 4.74414 116.506 4.7832C116.506 4.74414 116.545 4.95898 116.623 5.42773L116.682 5.54492V5.95508L116.799 6.6582V6.59961C116.799 6.24805 116.857 6.01367 116.975 5.89648C117.014 5.81836 117.092 5.75977 117.209 5.7207C117.326 5.64258 117.443 5.60352 117.561 5.60352C117.482 5.60352 117.463 5.58398 117.502 5.54492C117.541 5.50586 117.619 5.44727 117.736 5.36914C117.854 5.29102 117.971 5.25195 118.088 5.25195H118.146C118.303 5.17383 118.42 5.13477 118.498 5.13477C118.576 5.13477 118.635 5.11523 118.674 5.07617L119.084 4.95898H119.143C119.221 4.88086 119.318 4.8418 119.436 4.8418C119.787 4.72461 120.119 4.66602 120.432 4.66602C120.979 4.66602 121.604 4.8418 122.307 5.19336C122.619 5.34961 122.873 5.50586 123.068 5.66211C123.264 5.81836 123.4 6.01367 123.479 6.24805C123.557 6.7168 123.596 7.20508 123.596 7.71289C123.596 8.2207 123.576 8.57227 123.537 8.76758C123.537 8.92383 123.498 9.08008 123.42 9.23633C123.303 9.4707 123.01 9.62695 122.541 9.70508C122.346 9.70508 121.975 9.7832 121.428 9.93945C121.271 10.0176 121.154 10.0566 121.076 10.0566C121.076 10.0566 121.096 10.0371 121.135 9.99805C121.213 9.95898 121.271 9.95898 121.311 9.99805C121.232 10.0371 121.115 10.0762 120.959 10.1152C120.842 10.1543 120.822 10.1738 120.9 10.1738H120.959L120.607 10.2324C120.373 10.2324 120.256 10.1543 120.256 9.99805C120.295 9.8418 120.373 9.72461 120.49 9.64648C120.607 9.56836 120.666 9.64648 120.666 9.88086L120.549 9.58789L120.783 9.82227C121.018 10.1738 121.525 10.6035 122.307 11.1113C122.502 11.1895 122.736 11.3652 123.01 11.6387C123.166 11.873 123.244 12.166 123.244 12.5176L123.361 12.8691V13.1621L123.303 13.4551L123.244 13.5723L123.186 14.1582C123.186 14.3145 123.146 14.4316 123.068 14.5098V14.627C123.146 14.8613 123.166 15.0371 123.127 15.1543L123.068 15.3301C122.951 15.5645 122.717 15.7598 122.365 15.916C122.287 15.9551 122.033 15.9746 121.604 15.9746C121.291 15.9746 121.076 15.9551 120.959 15.916L120.783 15.8574H120.725L119.963 15.5645L119.377 15.2715H119.201L119.084 15.2129L118.322 14.7441L117.912 14.5098C117.639 14.3535 117.326 14.1191 116.975 13.8066C116.662 13.4941 116.447 13.2402 116.33 13.0449L116.154 12.752C116.076 12.5957 115.998 12.498 115.92 12.459L115.803 12.1074L116.096 12.2246L116.33 11.9316C116.33 12.0098 116.291 12.166 116.213 12.4004C116.135 12.6348 116.096 12.7715 116.096 12.8105C116.096 13.0059 116.037 13.2207 115.92 13.4551L115.803 13.9238C115.646 14.3145 115.451 14.7637 115.217 15.2715C115.021 15.7402 114.826 16.1309 114.631 16.4434C114.201 16.9121 113.85 17.1465 113.576 17.1465C113.381 17.1465 113.186 17.0098 112.99 16.7363ZM136.369 14.7441C135.939 14.627 135.666 14.5293 135.549 14.4512L135.139 14.334L134.846 14.1582C134.807 14.1191 134.689 14.0605 134.494 13.9824C134.338 13.8652 134.143 13.7285 133.908 13.5723C133.283 13.2988 132.834 13.084 132.561 12.9277C132.287 12.7715 131.994 12.5566 131.682 12.2832C131.33 11.8535 131.115 11.5605 131.037 11.4043C130.998 11.2871 130.939 11.209 130.861 11.1699C130.822 11.0918 130.803 11.0332 130.803 10.9941C130.764 10.916 130.705 10.916 130.627 10.9941L130.451 11.4629C130.178 12.2832 129.885 12.9668 129.572 13.5137C129.26 14.0605 129.006 14.334 128.811 14.334C128.732 14.334 128.674 14.2949 128.635 14.2168L128.518 13.9824C128.479 13.9824 128.439 13.9629 128.4 13.9238C128.361 13.8848 128.342 13.8457 128.342 13.8066C128.303 13.7676 128.225 13.748 128.107 13.748C128.029 13.7871 127.951 13.8066 127.873 13.8066C127.795 13.7676 127.756 13.748 127.756 13.748C127.717 13.709 127.639 13.6895 127.521 13.6895C127.365 13.6895 127.268 13.6309 127.229 13.5137C127.229 13.3965 127.229 13.1816 127.229 12.8691C127.229 12.2832 127.209 11.873 127.17 11.6387C127.131 11.3652 127.072 11.1699 126.994 11.0527C126.838 10.8965 126.818 10.7207 126.936 10.5254C126.975 10.4863 126.994 10.4082 126.994 10.291L127.111 10.0566C127.15 10.0176 127.248 9.66602 127.404 9.00195C127.404 8.92383 127.443 8.80664 127.521 8.65039L127.58 8.35742C127.619 8.31836 127.658 8.25977 127.697 8.18164C127.736 8.06445 127.775 7.94727 127.814 7.83008L127.99 7.24414L128.107 7.00977C128.225 6.77539 128.283 6.63867 128.283 6.59961L128.459 5.95508L128.635 5.42773C128.635 5.34961 128.654 5.29102 128.693 5.25195C128.732 5.17383 128.752 5.0957 128.752 5.01758L129.279 3.43555C129.279 3.35742 129.299 3.25977 129.338 3.14258C129.416 3.02539 129.475 2.92773 129.514 2.84961L129.631 2.61523C129.67 2.41992 129.787 2.22461 129.982 2.0293C130.061 1.99023 130.178 1.99023 130.334 2.0293C130.881 2.38086 131.154 2.57617 131.154 2.61523C131.232 2.73242 131.311 2.98633 131.389 3.37695C131.467 3.72852 131.506 4.06055 131.506 4.37305C131.506 4.49023 131.525 4.58789 131.564 4.66602C131.604 4.74414 131.643 4.76367 131.682 4.72461C131.799 4.60742 131.877 4.54883 131.916 4.54883L132.268 4.31445C132.346 4.19727 132.443 4.13867 132.561 4.13867L132.678 4.02148L132.912 3.96289L133.205 3.8457L133.557 3.72852L133.791 3.61133C134.299 3.41602 134.67 3.31836 134.904 3.31836L135.256 3.20117H136.428C136.623 3.20117 136.799 3.2207 136.955 3.25977C137.189 3.33789 137.385 3.41602 137.541 3.49414C137.619 3.57227 137.678 3.63086 137.717 3.66992C137.795 3.66992 137.854 3.68945 137.893 3.72852C138.088 3.76758 138.264 3.88477 138.42 4.08008C138.459 4.11914 138.479 4.23633 138.479 4.43164C138.479 4.70508 138.498 4.88086 138.537 4.95898C138.576 5.03711 138.576 5.13477 138.537 5.25195L138.479 5.66211C138.479 5.81836 138.42 6.0332 138.303 6.30664C138.303 6.42383 138.342 6.52148 138.42 6.59961C138.42 6.7168 138.381 6.83398 138.303 6.95117C138.264 7.10742 138.107 7.20508 137.834 7.24414C137.678 7.32227 137.561 7.36133 137.482 7.36133C137.326 7.43945 137.17 7.47852 137.014 7.47852L136.369 7.71289L135.9 7.77148C135.744 7.77148 135.646 7.79102 135.607 7.83008L135.256 7.88867C135.021 7.88867 134.904 7.92773 134.904 8.00586C135.021 8.08398 135.236 8.16211 135.549 8.24023L136.018 8.47461C136.057 8.47461 136.193 8.5332 136.428 8.65039C136.779 8.76758 137.229 8.96289 137.775 9.23633C138.322 9.50977 138.732 9.76367 139.006 9.99805C139.201 10.2324 139.318 10.5645 139.357 10.9941C139.357 11.4629 139.338 11.8926 139.299 12.2832C139.299 12.4785 139.26 12.7324 139.182 13.0449C139.104 13.2012 139.084 13.377 139.123 13.5723C139.123 13.7285 139.104 13.8848 139.064 14.041C139.025 14.1582 138.928 14.2754 138.771 14.3926L138.479 14.7441H136.369Z" fill="#4A443D"/>
<path d="M166.979 36.1309H166.744C166.666 36.1699 166.607 36.1699 166.568 36.1309C166.412 36.0527 166.217 36.0137 165.982 36.0137H165.807L165.104 35.8965C164.986 35.8574 164.85 35.8379 164.693 35.8379L164.049 35.8965C163.854 35.8965 163.717 35.8965 163.639 35.8965C163.561 35.8574 163.502 35.8379 163.463 35.8379C163.307 35.7598 163.15 35.7207 162.994 35.7207L162.643 35.6621C162.564 35.623 162.467 35.6035 162.35 35.6035L161.471 35.3691L161.295 35.252L160.826 35.1348L159.947 34.9004C159.713 34.8613 159.4 34.7441 159.01 34.5488C158.932 34.4707 158.814 34.4121 158.658 34.373C158.58 34.373 158.541 34.334 158.541 34.2559L158.189 34.0801C158.072 34.002 157.721 33.6699 157.135 33.084C156.939 32.8887 156.842 32.6738 156.842 32.4395C156.764 32.2832 156.725 32.1465 156.725 32.0293L156.666 31.4434C156.666 31.248 156.627 31.0723 156.549 30.916C156.432 30.6035 156.373 30.4082 156.373 30.3301L156.314 30.0957C156.275 30.0176 156.256 29.8809 156.256 29.6855C156.256 29.4902 156.197 29.3145 156.08 29.1582C156.041 29.0801 156.041 28.9629 156.08 28.8066C156.158 28.6113 156.295 28.4941 156.49 28.4551L156.666 28.3965C156.666 28.3574 156.842 28.2793 157.193 28.1621C157.467 28.084 158.268 28.0254 159.596 27.9863C160.104 27.9863 160.357 27.9668 160.357 27.9277L160.826 27.8691C162.271 27.791 163.189 27.6934 163.58 27.5762L163.814 27.5176C164.049 27.5176 164.361 27.459 164.752 27.3418C164.83 27.3027 164.908 27.2832 164.986 27.2832C165.064 27.2832 165.123 27.2637 165.162 27.2246L165.631 27.166C165.748 27.127 165.943 27.1074 166.217 27.1074L166.744 27.0488C166.822 27.0098 167.037 26.9902 167.389 26.9902C168.287 26.9121 168.814 26.8535 168.971 26.8145L171.197 26.6973C171.588 26.6973 171.861 26.6973 172.018 26.6973C172.174 26.6582 172.271 26.6387 172.311 26.6387C172.389 26.5996 173.092 26.5801 174.42 26.5801L176.588 26.5215L177.291 26.5801L178.873 26.6387C179.303 26.6387 179.596 26.6582 179.752 26.6973C179.908 26.6973 180.006 26.6973 180.045 26.6973C180.24 26.7363 180.357 26.7363 180.396 26.6973L182.037 26.5801L183.15 26.5215H184.029C184.068 26.4824 184.166 26.4629 184.322 26.4629C184.4 26.502 184.693 26.5215 185.201 26.5215C185.475 26.5605 185.787 26.5801 186.139 26.5801L186.607 26.6973C187.428 26.8145 188.365 27.0879 189.42 27.5176C189.928 27.752 190.26 28.0449 190.416 28.3965C190.416 28.4355 190.475 28.5137 190.592 28.6309C190.709 28.748 190.826 28.9043 190.943 29.0996C191.061 29.2949 191.119 29.4512 191.119 29.5684C191.236 30.0762 191.314 30.3691 191.354 30.4473L191.471 30.916C191.471 31.0723 191.49 31.1699 191.529 31.209C191.607 31.5605 191.627 32.0293 191.588 32.6152C191.588 32.8105 191.646 33.084 191.764 33.4355C191.803 33.6699 191.744 33.8652 191.588 34.0215C191.549 34.0215 191.51 34.041 191.471 34.0801C191.432 34.1191 191.412 34.1582 191.412 34.1973C191.295 34.4707 191.158 34.5293 191.002 34.373C190.963 34.373 190.924 34.3535 190.885 34.3145C190.846 34.2754 190.787 34.2559 190.709 34.2559L190.416 34.0801C190.416 34.041 190.377 34.041 190.299 34.0801L189.947 34.1387C189.791 34.1387 189.674 34.1777 189.596 34.2559H189.068C188.912 34.2168 188.697 34.2168 188.424 34.2559H187.428C187.35 34.2559 187.213 34.2949 187.018 34.373C186.861 34.4121 186.686 34.4316 186.49 34.4316L186.021 34.4902C185.748 34.4902 185.611 34.5098 185.611 34.5488L185.377 34.6074L185.025 34.666C184.869 34.7441 184.674 34.7832 184.439 34.7832H184.029L182.799 34.8418L182.447 34.9004L181.979 34.959C181.393 34.959 180.963 34.9785 180.689 35.0176C180.572 35.0566 180.396 35.0566 180.162 35.0176C179.928 35.0176 179.752 35.0371 179.635 35.0762C179.557 35.1152 179.225 35.1348 178.639 35.1348L177.643 35.1934C177.447 35.1934 177.271 35.1543 177.115 35.0762C177.037 35.0371 176.9 35.0566 176.705 35.1348C176.549 35.2129 176.412 35.252 176.295 35.252L175.24 35.3691H174.947L174.186 35.4277L173.893 35.4863C173.814 35.4473 173.697 35.4277 173.541 35.4277C173.385 35.4277 173.229 35.4473 173.072 35.4863C173.033 35.4863 172.994 35.5059 172.955 35.5449C172.916 35.5449 172.877 35.5254 172.838 35.4863C172.76 35.4863 172.701 35.5059 172.662 35.5449H172.311C172.037 35.5449 171.842 35.5645 171.725 35.6035C171.646 35.6035 171.588 35.6035 171.549 35.6035C171.51 35.6426 171.432 35.6621 171.314 35.6621L170.904 35.7207H170.436C170.396 35.6816 170.299 35.6621 170.143 35.6621L169.439 35.7793C169.166 35.8965 168.951 35.9551 168.795 35.9551C168.717 35.9551 168.561 35.9551 168.326 35.9551C168.092 35.916 167.936 35.9355 167.857 36.0137C167.779 36.0527 167.662 36.0918 167.506 36.1309C167.389 36.1699 167.271 36.1895 167.154 36.1895L166.979 36.1309Z" fill="#4A443D"/>
<path d="M210.479 52.1855C209.697 52.1074 209.287 52.0684 209.248 52.0684L208.896 52.0098C208.818 51.9707 208.721 51.9512 208.604 51.9512C208.564 51.9512 208.369 51.834 208.018 51.5996C207.822 51.4824 207.568 51.3848 207.256 51.3066C207.178 51.3066 207.061 51.2871 206.904 51.248C206.787 51.1699 206.689 51.0918 206.611 51.0137C206.494 50.8965 206.475 50.7793 206.553 50.6621C206.553 50.5059 206.533 50.3691 206.494 50.252C206.455 49.9785 206.455 49.7246 206.494 49.4902V49.0801C206.455 49.041 206.416 48.748 206.377 48.2012V47.3809L206.494 47.1465L206.729 46.7363C206.885 46.5801 207.139 46.4434 207.49 46.3262L207.783 46.209L208.193 46.1504C208.975 45.9551 209.307 45.877 209.189 45.916H209.365L209.6 45.7988C209.678 45.7207 209.873 45.6426 210.186 45.5645C210.225 45.5254 210.264 45.5059 210.303 45.5059C210.381 45.5059 210.439 45.4863 210.479 45.4473L211.768 45.1543C211.885 45.1543 211.963 45.1348 212.002 45.0957C212.08 45.0566 212.119 44.998 212.119 44.9199C212.119 44.8809 212.08 44.7832 212.002 44.627L211.885 44.5098V43.4551L211.826 40.584C211.826 38.709 211.807 37.752 211.768 37.7129C211.729 37.4004 211.729 36.9512 211.768 36.3652C211.846 35.7793 211.904 35.4473 211.943 35.3691C211.982 35.252 212.041 35.1738 212.119 35.1348C212.236 35.0957 212.432 35.0566 212.705 35.0176L213.408 34.9004C213.643 34.7832 213.916 34.7246 214.229 34.7246L214.639 34.666L215.107 34.6074L215.752 34.5488C215.83 34.5098 216.006 34.4902 216.279 34.4902L217.334 34.3145C217.373 34.2754 217.354 34.1973 217.275 34.0801C217.236 34.041 217.197 34.002 217.158 33.9629C217.119 33.9238 217.1 33.8848 217.1 33.8457C217.061 33.7676 217.021 33.7285 216.982 33.7285C216.943 33.7285 216.904 33.748 216.865 33.7871C216.826 33.9043 216.729 33.9238 216.572 33.8457C216.533 33.8066 216.436 33.8066 216.279 33.8457C216.084 33.8457 215.967 33.8066 215.928 33.7285L215.869 33.2012C215.83 33.0449 215.811 32.8105 215.811 32.498C215.732 32.1074 215.693 31.5801 215.693 30.916C215.693 30.7207 215.674 30.584 215.635 30.5059L215.576 30.0957L215.518 29.5684C215.479 29.2949 215.459 28.5918 215.459 27.459C215.537 27.1465 215.576 26.7363 215.576 26.2285C215.693 25.1348 215.771 24.5684 215.811 24.5293L215.869 24.1191L215.928 23.6504C215.967 23.6113 215.986 23.5527 215.986 23.4746C215.986 23.3965 216.006 23.3184 216.045 23.2402C216.045 22.9668 216.104 22.6348 216.221 22.2441L216.338 21.8926C216.338 21.7754 216.377 21.6582 216.455 21.541C216.533 21.3848 216.611 21.2871 216.689 21.248C216.729 21.209 216.807 21.209 216.924 21.248C217.002 21.248 217.119 21.2871 217.275 21.3652C217.354 21.4043 217.451 21.4238 217.568 21.4238C217.764 21.4238 217.939 21.3457 218.096 21.1895C218.525 20.9551 219.033 20.7988 219.619 20.7207C219.736 20.7207 219.814 20.7207 219.854 20.7207C219.932 20.6816 219.99 20.6621 220.029 20.6621C221.162 20.6621 221.924 20.6816 222.314 20.7207C222.666 20.7207 222.881 20.7402 222.959 20.7793C223.389 20.8184 223.799 20.877 224.189 20.9551C224.307 20.9941 224.521 21.0723 224.834 21.1895C225.186 21.3066 225.381 21.3848 225.42 21.4238C225.459 21.4238 225.498 21.4434 225.537 21.4824C225.615 21.5215 225.674 21.5605 225.713 21.5996C226.104 21.7168 226.338 21.873 226.416 22.0684C226.611 22.3027 226.729 22.6543 226.768 23.123L226.826 23.709L226.885 24.5293C226.924 25.584 226.904 26.8926 226.826 28.4551C226.748 29.9785 226.65 30.9746 226.533 31.4434C226.377 31.9121 226.201 32.2441 226.006 32.4395C225.811 32.6348 225.518 32.8105 225.127 32.9668C225.049 33.0059 224.795 33.0449 224.365 33.084C223.975 33.084 223.779 33.1035 223.779 33.1426H223.545L222.783 33.3184H222.432L222.08 33.377C222.041 33.416 221.846 33.4355 221.494 33.4355L220.791 33.5527C220.635 33.5918 220.146 33.6113 219.326 33.6113C219.092 33.6113 218.936 33.5918 218.857 33.5527L218.564 33.3184L218.389 33.2598C218.311 33.2598 218.232 33.377 218.154 33.6113L218.096 34.0215C218.057 34.0605 218.057 34.1191 218.096 34.1973C218.135 34.2363 218.213 34.2559 218.33 34.2559C218.447 34.2559 218.564 34.2363 218.682 34.1973C218.994 34.1191 219.502 34.0801 220.205 34.0801L220.908 34.0215C221.221 33.9434 222.354 33.9043 224.307 33.9043C224.854 33.9043 225.674 33.9434 226.768 34.0215C227.549 34.1387 228.115 34.2754 228.467 34.4316C229.678 34.9004 230.479 35.3301 230.869 35.7207C230.986 35.7988 231.084 35.916 231.162 36.0723C231.24 36.1895 231.299 36.3262 231.338 36.4824L231.396 36.7754L231.572 38.0059V39.8223C231.611 40.4473 231.611 40.9746 231.572 41.4043C231.572 41.834 231.514 42.3613 231.396 42.9863C231.318 43.416 231.318 43.6309 231.396 43.6309C231.396 43.6699 231.514 43.6895 231.748 43.6895C232.686 43.7676 233.311 43.8652 233.623 43.9824C233.818 43.9824 234.033 44.0215 234.268 44.0996C234.346 44.0996 234.873 44.2949 235.85 44.6855C236.162 44.8027 236.436 44.959 236.67 45.1543C236.709 45.1543 236.748 45.1738 236.787 45.2129C236.865 45.252 236.924 45.291 236.963 45.3301C237.432 45.5645 237.764 45.7793 237.959 45.9746C238.115 46.1309 238.154 46.4043 238.076 46.7949L238.135 47.3809L238.193 47.7324L238.135 48.1426C238.096 48.7285 238.018 49.1387 237.9 49.373C237.822 49.5684 237.803 49.8418 237.842 50.1934C237.842 50.3887 237.822 50.5449 237.783 50.6621L237.197 51.5996C237.08 51.7168 236.963 51.7949 236.846 51.834L236.553 51.9512L236.377 52.0684L236.201 52.127H234.385C233.682 52.127 233.213 52.1465 232.979 52.1855C232.744 52.1855 232.607 52.1855 232.568 52.1855L231.689 52.127C231.455 52.0879 231.143 52.0684 230.752 52.0684C230.361 52.0293 230.049 52.0293 229.814 52.0684C229.541 52.1465 229.287 52.1465 229.053 52.0684H228.525C228.369 52.1074 228.252 52.127 228.174 52.127C228.096 52.0879 228.057 52.0684 228.057 52.0684C228.018 52.0293 227.939 52.0098 227.822 52.0098C227.705 52.0098 227.627 51.9902 227.588 51.9512C227.51 51.9121 227.275 51.8926 226.885 51.8926C226.689 51.8926 226.396 51.9121 226.006 51.9512C225.654 51.9512 225.42 51.9316 225.303 51.8926H224.834C223.857 51.8926 223.291 51.9121 223.135 51.9512C223.057 51.9902 222.92 51.9902 222.725 51.9512C222.607 51.9121 222.471 51.8926 222.314 51.8926L222.08 51.834L221.904 51.7754L221.436 51.8926L221.084 51.834C220.654 51.834 220.42 51.8535 220.381 51.8926C220.342 51.9316 220.186 51.9512 219.912 51.9512C219.365 51.9512 218.74 51.9902 218.037 52.0684L217.393 52.127C217.041 52.0879 216.729 52.0879 216.455 52.127H214.346L213.994 52.1855C213.838 52.2246 213.721 52.2246 213.643 52.1855C213.486 52.1465 213.291 52.127 213.057 52.127C212.822 52.127 212.607 52.1465 212.412 52.1855C212.373 52.2246 212.275 52.2441 212.119 52.2441H211.533L210.479 52.1855ZM205.029 21.248C205.068 21.1699 205.088 21.0723 205.088 20.9551C205.088 20.8379 205.107 20.7207 205.146 20.6035L205.205 20.0762C205.244 20.0371 205.283 19.3145 205.322 17.9082C205.322 17.6348 205.342 17.459 205.381 17.3809L205.439 17.0879C205.439 16.9316 205.4 16.7949 205.322 16.6777C205.244 16.4824 205.225 16.3066 205.264 16.1504C205.342 16.0332 205.518 15.877 205.791 15.6816C205.986 15.5645 206.279 15.4668 206.67 15.3887C206.787 15.3887 206.904 15.3496 207.021 15.2715C207.139 15.1934 207.295 15.0566 207.49 14.8613C207.529 14.8223 207.568 14.7832 207.607 14.7441C207.686 14.7051 207.764 14.6855 207.842 14.6855L208.193 14.3926C208.232 14.3535 208.271 14.3145 208.311 14.2754C208.35 14.2363 208.389 14.2168 208.428 14.2168C208.584 14.1387 208.779 13.9824 209.014 13.748L209.541 13.2793C209.619 13.2793 209.717 13.2207 209.834 13.1035C209.912 13.0254 209.971 12.9863 210.01 12.9863C210.088 12.9473 210.146 12.9082 210.186 12.8691C210.225 12.8301 210.264 12.8105 210.303 12.8105C210.381 12.7715 210.459 12.7129 210.537 12.6348L210.947 12.2832L211.416 11.9316C211.416 11.9316 211.553 11.7949 211.826 11.5215L212.705 10.8184C212.822 10.6621 212.92 10.584 212.998 10.584C212.998 10.584 213.271 10.3105 213.818 9.76367C214.053 9.5293 214.209 9.41211 214.287 9.41211L214.58 9.17773C214.58 9.17773 214.658 9.09961 214.814 8.94336C214.932 8.94336 215.049 8.86523 215.166 8.70898C215.361 8.47461 215.537 8.31836 215.693 8.24023C215.771 8.24023 215.811 8.20117 215.811 8.12305L216.104 8.00586C216.221 7.9668 216.318 7.9082 216.396 7.83008C216.396 7.67383 216.455 7.57617 216.572 7.53711C216.611 7.49805 216.65 7.45898 216.689 7.41992C216.729 7.3418 216.748 7.26367 216.748 7.18555L217.686 6.13086C217.881 5.93555 218.018 5.83789 218.096 5.83789C218.252 5.79883 218.33 5.74023 218.33 5.66211C218.369 5.58398 218.428 5.48633 218.506 5.36914C218.623 5.25195 218.74 5.13477 218.857 5.01758C218.936 4.93945 218.975 4.8418 218.975 4.72461C219.014 4.60742 219.053 4.5293 219.092 4.49023C219.17 4.45117 219.287 4.43164 219.443 4.43164C219.678 4.43164 219.912 4.35352 220.146 4.19727L220.264 4.08008H220.498C220.928 4.11914 221.182 4.19727 221.26 4.31445L221.67 4.60742C221.904 4.76367 222.021 4.99805 222.021 5.31055L222.08 5.54492L223.252 6.36523L223.955 6.83398C224.385 7.22461 224.893 7.55664 225.479 7.83008L225.947 8.12305L226.299 8.29883C226.416 8.29883 226.631 8.37695 226.943 8.5332C227.256 8.72852 227.725 8.92383 228.35 9.11914L228.877 9.29492L229.463 9.4707L229.873 9.5293L231.514 10.0566C231.904 10.1348 232.236 10.2324 232.51 10.3496L232.744 10.4082C232.861 10.4082 232.998 10.4473 233.154 10.5254C233.311 10.5645 233.447 10.623 233.564 10.7012C233.643 10.7012 233.799 10.7598 234.033 10.877L234.502 11.0527C234.541 11.0918 234.6 11.1309 234.678 11.1699C234.795 11.209 234.893 11.2676 234.971 11.3457L235.498 11.6387C235.615 11.7559 235.713 11.8145 235.791 11.8145L236.084 12.1074C236.24 12.2246 236.396 12.3223 236.553 12.4004L236.963 12.6934C236.963 12.6934 237.041 12.7715 237.197 12.9277C237.471 13.0449 237.646 13.2988 237.725 13.6895C237.764 13.7285 237.783 13.7871 237.783 13.8652C237.783 13.9434 237.803 14.002 237.842 14.041L237.783 14.5684C237.705 14.8027 237.666 14.9199 237.666 14.9199C237.666 15.2324 237.666 15.5059 237.666 15.7402C237.705 15.9355 237.705 16.0527 237.666 16.0918C237.627 16.1699 237.607 16.3066 237.607 16.502C237.607 16.7363 237.588 16.8926 237.549 16.9707C237.51 17.0488 237.49 17.166 237.49 17.3223C237.49 17.5566 237.412 17.791 237.256 18.0254L237.08 18.2598L237.021 19.0215C237.021 19.4512 237.002 19.6855 236.963 19.7246L236.787 20.0176C236.748 20.0957 236.572 20.2324 236.26 20.4277C236.26 20.4277 236.201 20.4863 236.084 20.6035C236.084 20.6816 236.045 20.7402 235.967 20.7793L235.791 20.8379C235.713 20.877 235.615 20.877 235.498 20.8379L234.912 20.7207L234.619 20.6035C234.58 20.6035 234.521 20.584 234.443 20.5449C234.404 20.5059 234.365 20.4668 234.326 20.4277C234.209 20.3105 234.092 20.2324 233.975 20.1934C233.779 20.1934 233.662 20.1738 233.623 20.1348L233.33 20.0176L233.096 19.8418L232.861 19.7246L232.686 19.666L232.334 19.4902C232.139 19.4902 231.865 19.373 231.514 19.1387C231.436 19.0605 231.162 18.9043 230.693 18.6699L230.342 18.4941C230.225 18.416 230.127 18.3574 230.049 18.3184C229.971 18.2793 229.912 18.2598 229.873 18.2598L229.053 17.8496L228.643 17.6152L227.939 17.2051L227.412 16.9121L227.119 16.7363C226.885 16.5801 226.709 16.502 226.592 16.502C226.475 16.541 226.416 16.7559 226.416 17.1465C226.416 17.459 226.396 17.6348 226.357 17.6738C226.318 17.752 226.299 17.9082 226.299 18.1426C226.299 18.416 226.279 18.5723 226.24 18.6113L226.123 18.7285L225.947 18.8457C225.83 18.9629 225.713 19.0215 225.596 19.0215C225.479 19.0215 225.342 19.0605 225.186 19.1387L224.6 19.2559C224.092 19.2559 223.799 19.2949 223.721 19.373L223.369 19.4316C223.213 19.4316 223.096 19.4512 223.018 19.4902C222.861 19.5684 222.588 19.6074 222.197 19.6074C221.963 19.6074 221.67 19.666 221.318 19.7832L220.791 19.9004L220.557 19.959C220.518 19.998 220.381 20.0176 220.146 20.0176C219.873 20.0566 219.697 20.1152 219.619 20.1934L219.326 20.252C219.209 20.291 219.072 20.3105 218.916 20.3105C218.76 20.3105 218.643 20.291 218.564 20.252H218.389C218.154 20.1738 217.979 20.1152 217.861 20.0762C217.627 19.8418 217.354 19.7246 217.041 19.7246C216.572 19.6074 216.299 19.5293 216.221 19.4902L216.162 19.1387C216.162 18.8262 216.143 18.6309 216.104 18.5527L216.045 17.9082C216.045 17.3613 215.986 17.0879 215.869 17.0879C215.83 17.0879 215.693 17.2051 215.459 17.4395C215.42 17.5176 215.244 17.7129 214.932 18.0254C214.814 18.1816 214.502 18.5137 213.994 19.0215L213.232 19.9004L212.588 20.4277L211.357 21.541L210.889 21.9512L210.361 22.3613L209.893 22.7129L209.365 22.9473C209.131 23.1035 208.955 23.1816 208.838 23.1816C208.682 23.2598 208.447 23.2988 208.135 23.2988C207.9 23.2988 207.725 23.2793 207.607 23.2402C207.412 23.123 207.236 22.9277 207.08 22.6543C207.041 22.498 206.943 22.4004 206.787 22.3613L206.436 22.2441C206.357 22.2441 206.24 22.2051 206.084 22.127L205.791 22.0684C205.713 22.0684 205.518 21.9902 205.205 21.834C205.088 21.7168 205.029 21.5215 205.029 21.248ZM215.166 41.6387L215.225 42.752C215.264 42.9473 215.283 43.2988 215.283 43.8066C215.322 44.1582 215.361 44.373 215.4 44.4512C215.439 44.4902 215.537 44.4902 215.693 44.4512L216.221 44.3926L216.807 44.2168C217.002 44.2168 217.139 44.1973 217.217 44.1582C217.295 44.1191 217.334 44.0215 217.334 43.8652C217.334 43.748 217.295 43.6113 217.217 43.4551C217.178 43.2988 217.139 43.1816 217.1 43.1035C217.061 42.8691 217.021 42.498 216.982 41.9902C216.982 41.4824 217.002 40.9551 217.041 40.4082C217.041 40.1348 217.021 39.9785 216.982 39.9395C216.982 39.9395 216.943 39.9395 216.865 39.9395C216.826 39.9004 216.689 39.8809 216.455 39.8809H215.928C215.85 39.9199 215.713 39.959 215.518 39.998C215.361 39.998 215.244 40.0176 215.166 40.0566C215.088 40.0566 215.068 40.252 215.107 40.6426L215.166 41.6387ZM218.213 14.334H218.389C218.662 14.334 218.955 14.2949 219.268 14.2168C219.424 14.1777 219.873 14.1387 220.615 14.0996C221.514 14.0996 222.08 14.1191 222.314 14.1582C222.9 14.1582 223.213 14.1387 223.252 14.0996C223.252 14.0605 222.842 13.6309 222.021 12.8105C221.396 12.1855 221.084 11.834 221.084 11.7559C220.967 11.5996 220.83 11.4629 220.674 11.3457L220.264 10.9355C220.186 10.9355 220.107 11.0137 220.029 11.1699C220.029 11.209 219.873 11.4824 219.561 11.9902L219.209 12.5176C219.17 12.5566 219.111 12.6348 219.033 12.752C218.994 12.8301 218.955 12.9277 218.916 13.0449L218.154 14.2168L218.213 14.334ZM218.389 26.5801C218.389 26.8145 218.408 26.9512 218.447 26.9902C218.486 26.9902 218.545 27.0098 218.623 27.0488C218.701 27.0488 218.838 27.0488 219.033 27.0488L220.615 27.1074C221.318 27.1074 221.807 27.127 222.08 27.166L222.842 27.2246C222.92 27.2246 223.057 27.2246 223.252 27.2246C223.447 27.1855 223.584 27.1465 223.662 27.1074C223.74 26.9512 223.779 26.5801 223.779 25.9941C223.779 25.6035 223.76 25.3496 223.721 25.2324C223.682 25.1934 223.604 25.1348 223.486 25.0566L223.252 24.998H223.076L222.783 24.9395C222.783 24.9395 222.588 24.9004 222.197 24.8223H221.611C221.533 24.7832 221.436 24.7637 221.318 24.7637C221.24 24.7637 221.201 24.7637 221.201 24.7637L220.557 24.8223C220.127 24.8223 219.814 24.8613 219.619 24.9395C219.346 25.0566 219.17 25.1543 219.092 25.2324C218.779 25.623 218.584 25.8965 218.506 26.0527L218.389 26.5801ZM220.674 41.1113C220.713 41.3457 220.732 41.873 220.732 42.6934C220.732 43.3184 220.752 43.6504 220.791 43.6895C220.83 43.7285 220.908 43.748 221.025 43.748L221.787 43.6895C222.217 43.6504 222.451 43.6113 222.49 43.5723C222.529 43.5332 222.588 43.377 222.666 43.1035C222.783 42.791 222.842 42.6348 222.842 42.6348L222.959 42.2246L223.193 41.6387L223.428 41.1699C223.428 40.9746 223.467 40.8379 223.545 40.7598C223.662 40.6035 223.76 40.4277 223.838 40.2324C223.916 39.998 223.936 39.8613 223.896 39.8223C223.896 39.7441 223.818 39.7441 223.662 39.8223L222.959 39.8809H221.963C221.768 39.959 221.592 39.959 221.436 39.8809C221.24 39.8809 221.104 39.9004 221.025 39.9395L220.732 39.998C220.654 40.0371 220.615 40.1348 220.615 40.291C220.615 40.4082 220.635 40.6816 220.674 41.1113ZM226.064 43.5723C226.221 43.6113 226.436 43.6309 226.709 43.6309C226.982 43.6309 227.197 43.6113 227.354 43.5723C227.432 43.4551 227.471 43.3574 227.471 43.2793L227.881 42.2832C227.92 42.2441 227.939 42.166 227.939 42.0488L228.057 41.7559L228.467 40.4082C228.467 40.1738 228.506 40.0176 228.584 39.9395V39.5879C228.584 39.5098 228.545 39.4707 228.467 39.4707C228.389 39.4316 228.291 39.4121 228.174 39.4121C227.939 39.4121 227.764 39.3926 227.646 39.3535C227.451 39.3535 227.334 39.373 227.295 39.4121H227.061C227.021 39.373 226.982 39.3535 226.943 39.3535C226.904 39.3535 226.885 39.373 226.885 39.4121L226.475 39.4707C226.318 39.4707 226.201 39.5098 226.123 39.5879C226.084 39.627 226.084 39.6855 226.123 39.7637C226.123 40.1934 226.143 40.584 226.182 40.9355C226.182 41.6777 226.143 42.3613 226.064 42.9863C225.986 43.2988 225.986 43.4941 226.064 43.5723Z" fill="#4A443D"/>
<path d="M279.76 51.1895C279.057 51.1895 278.627 51.1699 278.471 51.1309H278.119C278.002 51.1309 277.904 51.1113 277.826 51.0723L277.533 51.0137L277.064 50.9551L276.654 50.8965L275.951 50.7207L275.424 50.6621C275.189 50.6621 274.74 50.6035 274.076 50.4863C273.764 50.4082 273.529 50.3301 273.373 50.252C273.256 50.1348 273.178 49.9785 273.139 49.7832L272.904 49.0801L272.787 48.6699C272.787 48.3574 272.709 48.123 272.553 47.9668C272.475 47.8887 272.436 47.8301 272.436 47.791C272.357 47.2832 272.221 46.7949 272.025 46.3262C271.869 45.9746 271.85 45.7012 271.967 45.5059L272.025 45.1543C272.025 44.959 272.045 44.8223 272.084 44.7441C272.162 44.627 272.279 44.4902 272.436 44.334C272.514 44.2559 272.553 44.1777 272.553 44.0996C272.592 43.9824 272.592 43.8457 272.553 43.6895L272.494 43.2207C272.494 41.502 272.572 40.4082 272.729 39.9395C272.768 39.7832 272.787 39.4902 272.787 39.0605C272.787 38.5527 272.787 38.2012 272.787 38.0059C272.826 37.7715 272.846 37.6348 272.846 37.5957C272.885 37.5957 272.904 37.498 272.904 37.3027C272.904 36.3262 272.943 35.7598 273.021 35.6035C273.061 35.5254 273.08 35.3105 273.08 34.959C273.08 34.6465 273.1 34.4512 273.139 34.373C273.178 34.2168 273.178 34.041 273.139 33.8457C273.139 33.6113 273.158 33.4355 273.197 33.3184C273.314 32.9668 273.373 32.4395 273.373 31.7363V31.3262C273.49 31.209 273.549 30.9355 273.549 30.5059C273.51 30.4668 273.49 30.4082 273.49 30.3301C273.529 30.2129 273.549 30.1543 273.549 30.1543L273.607 29.4512C273.607 29.0605 273.627 28.8262 273.666 28.748V28.3379L273.725 27.6934C273.764 27.5762 273.783 27.4395 273.783 27.2832C273.783 27.127 273.803 26.9902 273.842 26.873L273.9 26.0527V25.7598C273.9 25.6035 273.861 25.4473 273.783 25.291C273.666 25.1738 273.607 24.959 273.607 24.6465C273.607 24.4902 273.588 24.3926 273.549 24.3535C273.471 24.2754 273.373 24.2363 273.256 24.2363C273.1 24.2363 272.885 24.1973 272.611 24.1191C272.338 24.041 272.084 23.9629 271.85 23.8848L270.678 23.416L270.326 23.1816C270.17 23.1426 270.053 23.0645 269.975 22.9473C269.936 22.8301 269.916 22.6738 269.916 22.4785L269.799 21.5996L269.74 21.0723C269.662 20.9941 269.623 20.7793 269.623 20.4277C269.584 20.1934 269.564 19.9395 269.564 19.666C269.643 19.5488 269.643 19.4316 269.564 19.3145V19.0215C269.721 18.7871 269.955 18.5918 270.268 18.4355C270.775 18.2402 271.127 18.1426 271.322 18.1426C271.439 18.1426 271.518 18.123 271.557 18.084L272.025 17.9668C272.455 17.8496 272.807 17.791 273.08 17.791C273.354 17.791 273.529 17.752 273.607 17.6738C273.725 17.5566 273.783 17.0488 273.783 16.1504C273.783 15.5645 273.803 15.2324 273.842 15.1543C273.881 15.0762 273.9 14.8809 273.9 14.5684V14.041C273.939 14.002 273.959 13.7676 273.959 13.3379C273.959 12.9082 273.979 12.6348 274.018 12.5176C274.057 12.4785 274.076 12.4199 274.076 12.3418C274.076 12.2246 274.096 12.127 274.135 12.0488C274.135 11.8926 274.174 11.7363 274.252 11.5801L274.428 11.2871L274.545 11.0527H274.604L274.721 11.1113C274.799 11.1504 274.916 11.1504 275.072 11.1113C275.189 11.0723 275.307 11.0723 275.424 11.1113C275.463 11.1113 275.502 11.1309 275.541 11.1699C275.619 11.1699 275.697 11.1504 275.775 11.1113C276.01 11.1113 276.205 11.1895 276.361 11.3457L276.596 11.4629C276.752 11.502 276.908 11.5801 277.064 11.6973C277.26 11.7754 277.416 11.8535 277.533 11.9316L277.65 12.166C277.65 12.2832 277.689 12.3809 277.768 12.459C277.807 12.498 277.826 12.5762 277.826 12.6934C277.787 12.7715 277.768 12.8301 277.768 12.8691C277.807 12.9082 277.826 12.9473 277.826 12.9863C277.982 13.3379 278.061 13.6699 278.061 13.9824L278.119 14.5684L278.178 15.916C278.178 16.6973 278.197 17.0879 278.236 17.0879L278.354 17.1465L279.525 17.0879C280.307 17.0098 280.951 16.9707 281.459 16.9707C281.889 16.9707 282.299 16.9512 282.689 16.9121C283.119 16.873 283.354 16.8535 283.393 16.8535C283.471 16.8145 283.51 16.6973 283.51 16.502L283.568 16.0332C283.646 15.7988 283.686 15.4473 283.686 14.9785C283.686 14.666 283.725 14.4707 283.803 14.3926C283.881 14.2363 283.92 13.9238 283.92 13.4551C283.92 13.2207 283.959 13.0449 284.037 12.9277C284.154 12.8105 284.213 12.6934 284.213 12.5762C284.213 12.4199 284.232 12.2637 284.271 12.1074C284.35 11.9121 284.428 11.7754 284.506 11.6973C284.545 11.5801 284.643 11.502 284.799 11.4629C284.916 11.4629 285.014 11.4238 285.092 11.3457C285.287 11.2285 285.482 11.2285 285.678 11.3457L286.029 11.4629C286.42 11.5801 286.674 11.7168 286.791 11.873C286.908 12.0293 287.025 12.3027 287.143 12.6934C287.26 13.0449 287.338 13.2988 287.377 13.4551L287.611 15.3887C287.611 15.7402 287.631 15.9355 287.67 15.9746V16.502C287.67 16.8145 287.689 16.9707 287.729 16.9707L287.846 17.0879C288.861 17.166 289.584 17.3223 290.014 17.5566C290.053 17.5566 290.385 17.6934 291.01 17.9668L291.42 18.1426C291.537 18.2598 291.635 18.5137 291.713 18.9043L291.771 19.4902C291.889 19.6855 291.908 19.9395 291.83 20.252C291.752 20.4082 291.732 20.5254 291.771 20.6035C291.85 20.6816 291.889 20.8379 291.889 21.0723C291.889 21.2676 291.85 21.4043 291.771 21.4824L291.713 21.7754C291.713 21.9316 291.752 22.0879 291.83 22.2441L291.889 22.5371C291.928 22.6152 291.869 22.7324 291.713 22.8887C291.557 23.1621 291.342 23.2988 291.068 23.2988C290.912 23.2988 290.795 23.3379 290.717 23.416C290.639 23.4941 290.561 23.5332 290.482 23.5332L290.248 23.5918C290.248 23.6699 290.15 23.709 289.955 23.709C289.76 23.748 289.389 23.7676 288.842 23.7676L287.904 24.002C287.748 24.041 287.65 24.0996 287.611 24.1777C287.572 24.2559 287.553 24.4121 287.553 24.6465L287.494 25.5254C287.416 26.3066 287.377 26.7168 287.377 26.7559L287.494 29.8613C287.533 30.1348 287.572 30.291 287.611 30.3301C287.807 30.5254 287.904 30.7207 287.904 30.916C287.904 31.0723 287.943 31.209 288.021 31.3262C288.1 31.4434 288.139 31.6387 288.139 31.9121C288.139 32.1855 288.158 32.3809 288.197 32.498C288.275 32.7715 288.295 32.9277 288.256 32.9668L288.314 33.4355L288.373 33.7871L288.256 34.0215C288.139 34.1777 288.021 34.2754 287.904 34.3145C287.826 34.3535 287.768 34.3926 287.729 34.4316C287.689 34.4707 287.67 34.5293 287.67 34.6074C287.631 34.6855 287.611 35.3301 287.611 36.541V38.4746C287.572 38.5527 287.553 38.8848 287.553 39.4707L287.436 41.5801C287.396 41.6973 287.377 41.8535 287.377 42.0488C287.377 42.2441 287.357 42.4395 287.318 42.6348C287.318 43.2988 287.299 43.6504 287.26 43.6895L287.143 45.0957C287.143 45.3691 287.162 45.5254 287.201 45.5645C287.201 45.7207 287.221 45.8379 287.26 45.916C287.26 46.0723 287.279 46.1699 287.318 46.209L287.494 46.9121V48.084L287.611 48.377L287.729 48.8457C287.729 49.041 287.631 49.2949 287.436 49.6074C287.318 49.8027 287.221 49.959 287.143 50.0762C287.064 50.1543 286.908 50.2129 286.674 50.252L286.205 50.3691C286.166 50.4082 286.068 50.4277 285.912 50.4277C285.756 50.4277 285.639 50.4668 285.561 50.5449H285.15L284.74 50.6035C284.701 50.6426 284.623 50.6621 284.506 50.6621C284.428 50.6621 284.35 50.6816 284.271 50.7207C284.037 50.7207 283.881 50.7402 283.803 50.7793C283.686 50.8184 283.588 50.8184 283.51 50.7793C283.432 50.7402 283.334 50.7207 283.217 50.7207C283.178 50.7207 282.865 50.7793 282.279 50.8965L281.107 51.0723C280.99 51.1113 280.873 51.1309 280.756 51.1309C280.678 51.0918 280.6 51.0918 280.521 51.1309C280.443 51.1699 280.189 51.1895 279.76 51.1895ZM250.58 22.7715C250.541 22.5371 250.58 22.4004 250.697 22.3613C250.775 22.3613 250.834 22.3027 250.873 22.1855C250.912 22.0684 250.99 21.9902 251.107 21.9512L251.4 21.834C251.518 21.834 251.596 21.8145 251.635 21.7754C251.791 21.6973 252.104 21.6387 252.572 21.5996L253.041 21.4824L254.447 21.3066C254.76 21.2285 255.053 21.1895 255.326 21.1895L256.146 21.0723C256.732 20.9941 257.025 20.9355 257.025 20.8965C257.064 20.8965 257.084 20.4668 257.084 19.6074L257.143 18.2012V18.1426C257.143 18.0645 256.947 18.0254 256.557 18.0254H255.912L255.443 17.9082L255.15 17.8496L254.975 17.791L254.74 17.6738C254.701 17.6348 254.643 17.6152 254.564 17.6152C254.525 17.6152 254.447 17.5957 254.33 17.5566C254.252 17.5176 254.174 17.459 254.096 17.3809L253.803 17.2637C253.764 17.2637 253.568 17.2051 253.217 17.0879L252.865 16.9707C252.826 16.9707 252.611 16.873 252.221 16.6777C251.986 16.5215 251.869 16.3262 251.869 16.0918C251.908 16.0137 251.908 15.9355 251.869 15.8574C251.869 15.7793 251.869 15.7012 251.869 15.623C251.869 15.2715 251.85 15.0176 251.811 14.8613C251.811 14.5098 251.791 14.3145 251.752 14.2754C251.674 13.9629 251.635 13.5137 251.635 12.9277C251.635 12.6543 251.615 12.4785 251.576 12.4004L251.459 12.166C251.459 12.0098 251.771 11.834 252.396 11.6387L253.451 11.4043L254.096 11.1699C254.33 11.1699 254.525 11.1309 254.682 11.0527L256.439 10.7598C256.752 10.7598 256.947 10.7207 257.025 10.6426L257.436 10.584C257.631 10.584 257.846 10.5449 258.08 10.4668C258.783 10.3105 259.623 10.2324 260.6 10.2324C260.951 10.1934 261.322 10.1738 261.713 10.1738C262.025 10.1738 262.396 10.2324 262.826 10.3496C263.256 10.4668 263.51 10.5645 263.588 10.6426C264.057 10.877 264.408 11.0332 264.643 11.1113C264.916 11.2285 265.072 11.3848 265.111 11.5801C265.15 11.6973 265.15 11.834 265.111 11.9902C265.072 12.1074 265.092 12.2637 265.17 12.459C265.248 12.6934 265.268 12.8691 265.229 12.9863L265.17 13.6309C265.17 13.8262 265.131 14.041 265.053 14.2754C265.014 14.3535 264.994 14.4512 264.994 14.5684C265.033 14.6465 265.053 14.7441 265.053 14.8613V15.2715L264.936 15.4473L264.877 15.623L264.701 15.7988C264.428 16.0723 264.232 16.209 264.115 16.209C263.92 16.209 263.725 16.2676 263.529 16.3848C263.49 16.502 263.412 16.5605 263.295 16.5605L262.943 16.6777L262.24 16.8535C262.24 16.8926 262.084 16.9512 261.771 17.0293C261.498 17.1074 261.322 17.1855 261.244 17.2637C261.166 17.2637 261.088 17.2832 261.01 17.3223C260.932 17.3613 260.854 17.4004 260.775 17.4395C260.658 17.4395 260.58 17.459 260.541 17.498C260.502 17.5371 260.482 17.5762 260.482 17.6152C260.482 17.7324 260.502 17.8301 260.541 17.9082L260.658 18.2012C260.658 18.3574 260.678 18.4941 260.717 18.6113C260.795 18.7676 260.854 19.2949 260.893 20.1934C260.893 20.3887 260.912 20.5254 260.951 20.6035C260.99 20.6816 261.029 20.7207 261.068 20.7207C261.068 20.7207 261.303 20.7598 261.771 20.8379C262.592 20.8379 263.236 20.8965 263.705 21.0137L263.998 21.1895L264.525 21.3652C264.838 21.4824 265.053 21.5801 265.17 21.6582C265.326 21.6973 265.443 21.7754 265.521 21.8926C265.6 22.2051 265.639 22.3809 265.639 22.4199C265.639 22.6152 265.678 22.7715 265.756 22.8887C265.834 23.0449 265.873 23.2012 265.873 23.3574C265.834 23.5918 265.814 23.7676 265.814 23.8848C265.854 24.002 265.873 24.0996 265.873 24.1777C265.912 24.373 265.912 24.5293 265.873 24.6465C265.756 24.8809 265.756 25.1348 265.873 25.4082C265.99 25.6816 265.971 25.916 265.814 26.1113C265.697 26.2285 265.639 26.3066 265.639 26.3457C265.6 26.3457 265.521 26.4043 265.404 26.5215C265.287 26.6387 265.229 26.6973 265.229 26.6973L264.936 26.8145C264.896 26.8535 264.838 26.873 264.76 26.873C264.721 26.873 264.682 26.8926 264.643 26.9316C264.525 26.9316 264.447 26.9512 264.408 26.9902C264.33 27.0293 264.213 27.0488 264.057 27.0488L263.764 27.1074L263.002 27.4004L262.416 27.459C262.104 27.459 261.908 27.4785 261.83 27.5176L261.479 27.5762C261.361 27.5762 261.205 27.6348 261.01 27.752L260.717 27.8691V28.1035C260.717 28.2598 260.697 28.3574 260.658 28.3965L260.541 30.5059L260.482 30.916C260.482 31.1504 260.502 31.2871 260.541 31.3262C260.58 31.3652 260.678 31.3848 260.834 31.3848H261.068C261.693 31.3848 262.084 31.4238 262.24 31.502L262.65 31.5605C262.729 31.5605 262.963 31.6387 263.354 31.7949L263.881 31.9707L264.291 32.0879C264.604 32.2832 264.838 32.5371 264.994 32.8496C265.15 33.1621 265.307 33.7676 265.463 34.666C265.463 34.8613 265.502 34.998 265.58 35.0762C265.58 35.3105 265.6 35.4668 265.639 35.5449L265.697 36.0723C265.736 36.3066 265.756 37.2637 265.756 38.9434V41.7559C265.756 42.5762 265.795 43.0645 265.873 43.2207C265.951 43.377 265.99 43.5137 265.99 43.6309C265.99 43.8262 266.01 43.9434 266.049 43.9824C266.049 44.0215 266.049 44.0996 266.049 44.2168C266.088 44.334 266.107 44.5684 266.107 44.9199C266.107 45.4277 266.127 45.7207 266.166 45.7988C266.283 45.9551 266.283 46.1895 266.166 46.502L266.049 46.7949L265.99 46.9121C265.912 47.0293 265.814 47.1465 265.697 47.2637C265.58 47.3809 265.482 47.4785 265.404 47.5566C265.131 47.6348 264.955 47.791 264.877 48.0254C264.838 48.1816 264.682 48.377 264.408 48.6113C264.135 48.8457 263.9 48.9824 263.705 49.0215L263.295 49.0801L262.65 49.1387C262.572 49.1387 262.455 49.1582 262.299 49.1973C262.182 49.1973 262.104 49.1777 262.064 49.1387C261.83 49.1387 261.654 49.1582 261.537 49.1973L261.186 49.2559C261.146 49.2949 261.088 49.3145 261.01 49.3145C260.971 49.3145 260.932 49.334 260.893 49.373L260.424 49.4902C260.072 49.4902 259.545 49.6465 258.842 49.959C258.686 50.0762 258.295 50.1543 257.67 50.1934C257.553 50.2324 257.436 50.252 257.318 50.252C257.201 50.252 257.104 50.2715 257.025 50.3105H256.732C256.42 50.3105 256.205 50.3691 256.088 50.4863L255.795 50.8965C255.561 51.248 255.404 51.4238 255.326 51.4238C255.248 51.4238 255.111 51.3262 254.916 51.1309C254.604 50.8184 254.369 50.6621 254.213 50.6621L254.096 50.7207C253.939 50.877 253.783 50.8965 253.627 50.7793C253.549 50.7402 253.432 50.7402 253.275 50.7793C253.002 50.9355 252.826 50.9355 252.748 50.7793C252.67 50.7012 252.592 50.4277 252.514 49.959L252.455 49.5488C252.416 49.4707 252.396 49.3926 252.396 49.3145C252.396 49.1973 252.377 49.0996 252.338 49.0215C252.338 48.8262 252.299 48.6504 252.221 48.4941C252.182 48.416 252.123 48.2207 252.045 47.9082C251.967 47.5957 251.928 47.4395 251.928 47.4395L251.869 46.9707C251.869 46.5801 251.771 46.3652 251.576 46.3262C251.498 46.248 251.459 46.1699 251.459 46.0918V45.8574C251.459 45.4668 251.479 45.1934 251.518 45.0371C251.557 44.8809 251.557 44.7637 251.518 44.6855C251.439 44.373 251.459 44.1387 251.576 43.9824L251.693 43.5723V43.2793C251.732 43.2793 251.752 43.2012 251.752 43.0449C251.791 42.8887 251.811 42.752 251.811 42.6348C251.811 42.2051 251.83 41.9707 251.869 41.9316C251.869 41.7754 251.889 41.6582 251.928 41.5801C251.928 41.3457 251.947 41.209 251.986 41.1699L252.045 40.6426L252.279 39.2949L252.338 38.8848L252.396 38.416C252.436 38.377 252.455 38.3184 252.455 38.2402C252.455 38.123 252.475 38.0254 252.514 37.9473C252.553 37.8691 252.572 37.791 252.572 37.7129C252.572 37.6348 252.592 37.5762 252.631 37.5371L252.807 36.3066L252.924 35.7207C252.963 35.6816 253.021 35.3496 253.1 34.7246C253.178 34.2559 253.256 33.9238 253.334 33.7285C253.334 33.5332 253.393 33.2988 253.51 33.0254C253.627 32.5176 253.744 32.2441 253.861 32.2051L254.154 31.9707L254.447 31.7949C254.721 31.7949 254.896 31.8145 254.975 31.8535L255.678 32.1465L255.795 32.2051C255.834 32.3223 256.01 32.3418 256.322 32.2637L256.732 32.1465L257.201 32.0293L257.377 31.9121V30.9746C257.377 30.4277 257.338 30.0371 257.26 29.8027C257.182 29.4902 257.143 29.2363 257.143 29.041L257.084 28.5137L256.674 28.4551C256.244 28.4551 255.854 28.416 255.502 28.3379H255.209L254.799 28.2793L254.33 28.1621L253.51 27.9277C253.275 27.8105 252.963 27.7129 252.572 27.6348C251.947 27.5566 251.537 27.4199 251.342 27.2246C251.264 27.1465 251.186 27.0488 251.107 26.9316C251.068 26.7754 251.068 26.6777 251.107 26.6387L250.99 25.9941L250.932 25.4668C250.932 25.1152 250.893 24.8613 250.814 24.7051L250.697 24.1777L250.639 23.8262C250.6 23.748 250.6 23.5332 250.639 23.1816C250.639 22.9863 250.619 22.8496 250.58 22.7715ZM256.674 41.9316C256.674 41.9707 256.713 41.9902 256.791 41.9902C257.025 41.9902 257.396 41.9121 257.904 41.7559L258.549 41.6387L259.486 41.4629C259.682 41.4238 259.896 41.4043 260.131 41.4043C260.209 41.4043 260.287 41.3848 260.365 41.3457C260.482 41.3066 260.561 41.2676 260.6 41.2285C260.6 41.1113 260.619 41.0137 260.658 40.9355C260.658 40.7012 260.678 40.5254 260.717 40.4082L260.775 39.6465C260.893 38.5918 260.971 38.0254 261.01 37.9473C261.088 37.5566 261.088 37.3223 261.01 37.2441L260.775 37.127C260.619 37.0879 260.443 37.0684 260.248 37.0684C260.053 37.0684 259.896 37.0879 259.779 37.127C259.467 37.2832 259.213 37.3223 259.018 37.2441H258.666L257.494 37.3613L257.025 37.4785C256.908 37.4785 256.811 37.5176 256.732 37.5957C256.693 37.6348 256.674 38.3574 256.674 39.7637V41.9316ZM278.236 26.7559C278.275 26.9512 278.295 27.1855 278.295 27.459C278.295 27.7324 278.314 28.0059 278.354 28.2793C278.354 29.2559 278.393 29.8223 278.471 29.9785L278.705 30.0371L279.35 29.9199C280.053 29.8027 280.854 29.7051 281.752 29.627C282.221 29.627 282.494 29.5879 282.572 29.5098L282.689 29.4512V28.8652C282.689 28.4355 282.709 28.1816 282.748 28.1035C282.787 28.0645 282.807 28.0059 282.807 27.9277C282.807 27.8496 282.787 27.752 282.748 27.6348C282.748 27.5176 282.729 27.4199 282.689 27.3418C282.689 27.2637 282.709 27.1855 282.748 27.1074C282.787 27.0293 282.807 26.7168 282.807 26.1699C282.846 25.8965 282.865 25.5449 282.865 25.1152C282.904 25.0371 282.904 24.959 282.865 24.8809C282.865 24.8027 282.865 24.7637 282.865 24.7637C282.826 24.7246 282.748 24.7246 282.631 24.7637C282.514 24.7637 282.396 24.7832 282.279 24.8223C282.201 24.8613 282.064 24.8809 281.869 24.8809C281.674 24.8809 281.537 24.9004 281.459 24.9395C281.342 24.9785 281.146 24.998 280.873 24.998C280.639 24.959 280.424 24.9785 280.229 25.0566C279.994 25.0957 279.74 25.0957 279.467 25.0566C279.311 25.0176 279.076 25.0176 278.764 25.0566C278.686 25.0957 278.588 25.1152 278.471 25.1152C278.393 25.1152 278.314 25.1348 278.236 25.1738C278.197 25.291 278.178 25.5254 278.178 25.877C278.178 26.1895 278.197 26.4824 278.236 26.7559ZM278.588 42.166C278.588 42.5957 278.607 42.8301 278.646 42.8691C278.686 42.9082 279.311 42.9082 280.521 42.8691C281.029 42.8691 281.303 42.8496 281.342 42.8105C281.42 42.7324 281.459 42.5566 281.459 42.2832C281.537 41.6582 281.615 41.2871 281.693 41.1699L281.752 40.7012C281.791 40.2715 281.85 39.8613 281.928 39.4707L282.045 38.8262L282.104 38.123C282.26 37.4199 282.338 37.0098 282.338 36.8926C282.338 36.6582 282.377 36.502 282.455 36.4238C282.533 36.0723 282.553 35.877 282.514 35.8379C281.576 35.8379 281.029 35.8574 280.873 35.8965C280.834 35.9355 280.756 35.9355 280.639 35.8965C280.482 35.8965 280.346 35.877 280.229 35.8379L279.818 35.7793L279.174 35.7207C278.822 35.7207 278.627 35.7402 278.588 35.7793C278.549 35.8184 278.549 36.9121 278.588 39.0605C278.588 40.2715 278.568 40.9355 278.529 41.0527V41.4043L278.588 42.166Z" fill="#4A443D"/>
</svg>
