<svg width="192" height="56" viewBox="0 0 192 56" fill="none" xmlns="http://www.w3.org/2000/svg">
<path d="M30.3047 51.3906C30.2266 51.3516 29.8359 51.293 29.1328 51.2148C28.7031 51.2148 28.3711 51.1953 28.1367 51.1562C27.9023 51.1562 27.6094 51.0781 27.2578 50.9219C26.7891 50.7266 26.457 50.4922 26.2617 50.2188C25.9102 49.7891 25.6758 49.3984 25.5586 49.0469L25.3828 48.4609C25.3047 48.3047 25.2656 48.168 25.2656 48.0508C25.2266 47.9336 25.1484 47.7773 25.0312 47.582C24.9531 47.3867 24.875 47.2109 24.7969 47.0547L24.6211 46.5273C24.6211 46.3711 24.582 46.2148 24.5039 46.0586C24.4258 45.8633 24.3477 45.7266 24.2695 45.6484C24.0742 45.4141 23.9766 45.2188 23.9766 45.0625C23.9766 44.8281 24.0547 44.6914 24.2109 44.6523C24.2891 44.6133 24.5234 44.5938 24.9141 44.5938H25.6172C25.6953 44.6328 25.7539 44.6328 25.793 44.5938C25.8711 44.5547 25.9297 44.5547 25.9688 44.5938L26.3203 44.6523C26.3984 44.6914 26.5352 44.7109 26.7305 44.7109C26.8086 44.75 26.9062 44.7695 27.0234 44.7695C27.1016 44.8086 27.1992 44.7891 27.3164 44.7109L27.668 44.4766C27.7461 44.3984 27.8242 44.3398 27.9023 44.3008C28.0195 44.2617 28.1172 44.2031 28.1953 44.125C28.2344 44.0469 28.332 43.9688 28.4883 43.8906C28.6055 43.8516 28.7031 43.7734 28.7812 43.6562L28.8984 43.5391L29.0156 43.3047L29.1328 43.1289C29.1719 43.0898 29.2305 43.0117 29.3086 42.8945C29.3086 42.7773 29.3281 42.6992 29.3672 42.6602L29.4844 42.4258C29.4844 42.3086 29.6211 42.0742 29.8945 41.7227L30.0117 41.4883L30.1875 41.0195L30.6562 39.6133C30.8516 38.9492 30.9297 38.5781 30.8906 38.5L30.9492 38.2656C30.9883 38.2266 31.0078 38.168 31.0078 38.0898C31.0078 38.0117 31.0273 37.9336 31.0664 37.8555C31.0664 37.8164 31.0859 37.7773 31.125 37.7383C31.1641 37.6602 31.1836 37.582 31.1836 37.5039L31.3008 37.0938C31.3789 36.8984 31.3984 36.6641 31.3594 36.3906C31.3594 36.0781 31.3594 35.9023 31.3594 35.8633C31.3984 35.7461 31.418 35.5898 31.418 35.3945C31.457 35.1992 31.457 35.0234 31.418 34.8672C31.457 34.7891 31.4766 34.7109 31.4766 34.6328C31.4766 34.5156 31.4961 34.418 31.5352 34.3398C31.5742 34.2617 31.6133 34.0664 31.6523 33.7539C31.6914 33.4414 31.7109 33.207 31.7109 33.0508V32.9336L31.125 32.9922H29.9531C29.6016 32.9922 29.3672 32.9727 29.25 32.9336H28.0195C27.6289 32.9336 27.1211 32.8945 26.4961 32.8164L26.0273 32.7578C25.8711 32.7578 25.6758 32.7383 25.4414 32.6992C25.207 32.6211 25.0117 32.582 24.8555 32.582L24.5039 32.5234C24.5039 32.6016 24.3672 32.6016 24.0938 32.5234C23.9375 32.5234 23.7617 32.5234 23.5664 32.5234C23.4102 32.4844 23.2734 32.4258 23.1562 32.3477C23.0391 32.3086 22.6289 32.25 21.9258 32.1719C21.5352 32.1328 21.1445 32.0547 20.7539 31.9375C20.6367 31.8594 20.4219 31.8203 20.1094 31.8203C19.6016 31.6641 19.3281 31.5664 19.2891 31.5273C19.25 31.5273 19.2305 31.4492 19.2305 31.293L18.6445 29.5938L18.8203 29.4766L19.1133 29.1836C19.3477 28.9492 19.582 28.7539 19.8164 28.5977C19.9727 28.5586 20.0703 28.4805 20.1094 28.3633C20.1484 28.2852 20.207 28.2461 20.2852 28.2461C20.3242 28.2852 20.4414 28.2656 20.6367 28.1875C20.7148 28.1094 20.793 28.0508 20.8711 28.0117C20.9883 27.9727 21.0664 27.9336 21.1055 27.8945L21.8086 27.6602C22.2383 27.3867 22.5898 27.2109 22.8633 27.1328C22.9023 27.0938 22.9805 27.0742 23.0977 27.0742C23.1367 27.0352 23.1758 27.0156 23.2148 27.0156C23.293 27.0156 23.3711 26.9961 23.4492 26.957C23.6445 26.957 23.7812 26.918 23.8594 26.8398C23.9375 26.8008 24.0352 26.7812 24.1523 26.7812L24.6211 26.6055C24.9336 26.6055 25.1289 26.5664 25.207 26.4883L25.6172 26.4297C25.6562 26.3906 25.7148 26.3711 25.793 26.3711C25.8711 26.3711 25.9492 26.3516 26.0273 26.3125L26.6719 26.1367C26.75 26.1367 26.8086 26.1367 26.8477 26.1367C26.8867 26.0977 26.9258 26.0781 26.9648 26.0781C27.043 26.0781 27.1406 26.0586 27.2578 26.0195C27.375 25.9414 27.4531 25.8828 27.4922 25.8438C27.4531 25.6875 27.4336 25.2578 27.4336 24.5547L27.375 24.1445L27.3164 23.4414C27.1992 22.8555 27.1406 22.1914 27.1406 21.4492V21.2148L26.9648 20.8633L26.8477 20.5117V20.1602C26.8477 19.7695 26.8867 19.4766 26.9648 19.2812L27.082 19.0469C27.1211 18.8906 27.1992 18.7148 27.3164 18.5195C27.4727 18.2852 27.5898 18.0898 27.668 17.9336C27.7461 17.8164 27.8242 17.7383 27.9023 17.6992C27.9023 17.582 28.1172 17.2109 28.5469 16.5859C28.5859 16.4688 28.625 16.3711 28.6641 16.293C28.7422 16.1758 28.8008 16.0977 28.8398 16.0586L29.0156 15.7656C29.3281 15.3359 29.4844 15.082 29.4844 15.0039C29.4844 14.9258 29.3281 14.8477 29.0156 14.7695C28.8984 14.7305 28.6836 14.7109 28.3711 14.7109C27.5898 14.7109 27.1211 14.6914 26.9648 14.6523C26.6133 14.6523 26.3984 14.6133 26.3203 14.5352C26.2422 14.457 26.125 14.418 25.9688 14.418L25.5 14.2422L25.0312 14.125C24.9922 14.0859 24.9336 14.0664 24.8555 14.0664C24.8164 14.0273 24.7773 13.9883 24.7383 13.9492C24.6992 13.9102 24.6602 13.832 24.6211 13.7148C24.582 13.5977 24.5625 13.3828 24.5625 13.0703C24.5234 12.9531 24.5039 12.8555 24.5039 12.7773C24.5039 12.6602 24.4844 12.5625 24.4453 12.4844C24.3672 12.3281 24.3281 11.9375 24.3281 11.3125C24.3281 11.1172 24.3867 10.9609 24.5039 10.8438C24.6211 10.6875 24.9922 10.4531 25.6172 10.1406C25.6562 10.1016 25.6953 10.0625 25.7344 10.0234C25.8125 9.98438 25.8711 9.96484 25.9102 9.96484L26.3203 9.78906L26.7891 9.61328C26.8672 9.53516 26.9648 9.49609 27.082 9.49609C27.1992 9.49609 27.4336 9.41797 27.7852 9.26172C28.3711 8.94922 28.8984 8.77344 29.3672 8.73438L29.6602 8.67578L30.0703 8.61719C30.2266 8.57812 30.4414 8.55859 30.7148 8.55859C31.0664 8.55859 31.5352 8.61719 32.1211 8.73438C32.7852 8.8125 33.2734 8.96875 33.5859 9.20312L33.9961 9.4375L34.4648 9.61328C35.0117 9.92578 35.3633 10.2188 35.5195 10.4922C35.7148 10.9609 35.8711 11.625 35.9883 12.4844L36.1055 13.3047C36.1836 13.7734 36.2031 14.1055 36.1641 14.3008L36.0469 15.8242V16.293C36.0469 16.7227 35.9883 17.0938 35.8711 17.4062V17.7578L35.7539 17.9922C35.7539 18.1094 35.7344 18.207 35.6953 18.2852L35.5195 18.6953C35.4414 18.7734 35.4023 18.8711 35.4023 18.9883L34.9922 19.8672C34.875 19.9453 34.7773 20.082 34.6992 20.2773L34.3477 20.9219L33.9375 21.5664L33.6445 22.1523C33.5664 22.2305 33.5078 22.3477 33.4688 22.5039C33.4688 23.168 33.5078 23.5391 33.5859 23.6172C33.8594 23.8516 34.1133 24.1055 34.3477 24.3789L34.6406 24.6719L35.6953 24.5547C35.7734 24.4766 35.9297 24.4375 36.1641 24.4375C36.3594 24.4375 36.5742 24.3789 36.8086 24.2617C36.8867 24.2227 37.2383 24.1836 37.8633 24.1445L40.5 23.793C40.8906 23.793 41.2422 23.7344 41.5547 23.6172C42.1797 23.3828 42.5703 23.3438 42.7266 23.5C42.7656 23.5391 42.8633 23.5586 43.0195 23.5586C43.0977 23.5977 43.2148 23.6172 43.3711 23.6172C43.4102 23.6562 43.5273 23.6758 43.7227 23.6758L44.0156 23.7344C44.0156 23.8125 44.1133 23.8516 44.3086 23.8516C44.4258 23.8906 44.5234 23.9688 44.6016 24.0859C44.6797 24.1641 44.7773 24.2031 44.8945 24.2031L45.8906 24.6719L46.0078 24.7305C46.0078 24.7305 46.0273 24.7305 46.0664 24.7305C46.1055 24.7305 46.125 24.7305 46.125 24.7305C46.1641 24.7695 46.2227 24.7891 46.3008 24.7891C46.3398 24.7891 46.3789 24.8281 46.418 24.9062C46.4961 24.9844 46.5547 25.0625 46.5938 25.1406C46.75 25.5703 46.8281 25.8242 46.8281 25.9023L47.0039 26.8984C47.0039 27.3281 46.9844 27.6211 46.9453 27.7773C46.9453 27.9336 46.9453 28.0508 46.9453 28.1289C46.8281 28.4805 46.7891 28.7539 46.8281 28.9492L46.8867 29.3008V29.4766C46.8867 29.8672 46.6719 30.3164 46.2422 30.8242L46.0078 31L45.7148 31.1758C45.6367 31.1758 45.5195 31.2148 45.3633 31.293L45.0117 31.3516C44.9727 31.3125 44.9141 31.3125 44.8359 31.3516C44.7578 31.3516 44.7188 31.3516 44.7188 31.3516H44.4844L44.0156 31.4688H43.4883C43.4102 31.5078 43.3125 31.5273 43.1953 31.5273C43.1172 31.4883 42.9805 31.4883 42.7852 31.5273H41.9062C41.4766 31.5273 41.1641 31.5664 40.9688 31.6445C40.8906 31.6836 40.7539 31.7031 40.5586 31.7031C40.5195 31.7422 40.4609 31.7617 40.3828 31.7617C40.3047 31.7617 40.2461 31.7812 40.207 31.8203L39.7969 31.9375C39.7578 31.9766 39.6992 31.9961 39.6211 31.9961C39.582 31.9961 39.543 32.0156 39.5039 32.0547C39.4648 32.0938 39.1328 32.1133 38.5078 32.1133H38.2734C38.0391 32.1133 37.8828 32.1328 37.8047 32.1719L37.2773 32.2305H36.9258L36.6914 32.2891C36.5742 32.3281 36.4961 32.3867 36.457 32.4648C36.6133 35.082 36.6914 37.1133 36.6914 38.5586C36.6914 40.082 36.6719 41.0781 36.6328 41.5469L36.457 42.8945C36.418 42.9727 36.3594 43.4023 36.2812 44.1836C36.2812 44.418 36.2422 44.5742 36.1641 44.6523L36.0469 45.1211L35.8125 46.293C35.5 47.6211 35.1289 48.7344 34.6992 49.6328C34.5039 49.9453 34.2109 50.2773 33.8203 50.6289C33.4688 50.9414 33.2148 51.1172 33.0586 51.1562C32.8242 51.1562 32.6289 51.1953 32.4727 51.2734L31.4766 51.4492H31.0078L30.3047 51.3906ZM0.0117188 19.2812C-0.0273438 19.2031 0.03125 19.125 0.1875 19.0469C0.34375 19.0469 0.441406 19.0273 0.480469 18.9883C0.636719 18.8711 0.8125 18.793 1.00781 18.7539C1.24219 18.7148 1.57422 18.6562 2.00391 18.5781L3 18.4023C3.39062 18.4023 3.64453 18.3828 3.76172 18.3438H4.46484C4.62109 18.3438 4.79688 18.3242 4.99219 18.2852C5.1875 18.2461 5.36328 18.2266 5.51953 18.2266C5.98828 18.1484 6.4375 18.1094 6.86719 18.1094H7.62891L7.74609 17.9922L7.92188 17.6406C7.96094 17.5234 8 17.4258 8.03906 17.3477C8.11719 17.2305 8.17578 17.1523 8.21484 17.1133L8.44922 16.7617C8.48828 16.7227 8.50781 16.6641 8.50781 16.5859C8.54688 16.5078 8.60547 16.4297 8.68359 16.3516C8.87891 15.7656 8.97656 15.4727 8.97656 15.4727L9.09375 15.2969C9.21094 15.1016 9.26953 14.9648 9.26953 14.8867L9.50391 14.418L9.85547 13.9492C9.89453 13.8711 9.99219 13.7539 10.1484 13.5977L10.2656 13.3047C10.3047 13.1484 10.3828 12.9922 10.5 12.8359C10.6562 12.6406 10.7734 12.5234 10.8516 12.4844L11.0273 12.25C10.9883 12.2109 11.0273 12.0938 11.1445 11.8984C11.2617 11.8594 11.3594 11.7422 11.4375 11.5469C11.5938 11.3906 11.6719 11.3125 11.6719 11.3125L11.9648 11.2539C12.1211 11.2539 12.2773 11.3125 12.4336 11.4297C12.5117 11.4688 12.6484 11.5469 12.8438 11.6641C13.0781 11.7812 13.2148 11.8984 13.2539 12.0156C13.332 12.1328 13.3906 12.2695 13.4297 12.4258C13.5078 13.2852 13.5469 13.8711 13.5469 14.1836C13.5469 14.8086 13.5078 15.4141 13.4297 16C13.4297 16.1953 13.332 16.6836 13.1367 17.4648C13.0977 17.582 13.0781 17.7188 13.0781 17.875C13.0391 17.9531 13.0195 18.0312 13.0195 18.1094C13.0586 18.1484 13.1367 18.168 13.2539 18.168L13.6055 18.2852L14.25 18.3438C14.3281 18.3828 14.3867 18.4023 14.4258 18.4023C14.5039 18.4023 14.5625 18.4219 14.6016 18.4609L14.8359 18.5195C14.8359 18.5195 15.168 18.6172 15.832 18.8125L16.3008 18.9883C16.8086 19.2227 17.082 19.418 17.1211 19.5742C17.1992 19.6523 17.2383 19.75 17.2383 19.8672C17.3164 19.9453 17.3359 20.0234 17.2969 20.1016V20.3359L17.5312 20.5117C17.6875 20.5898 17.7656 20.6484 17.7656 20.6875C17.8438 20.8047 17.9023 20.9609 17.9414 21.1562C18.0195 21.3516 18.0586 21.4883 18.0586 21.5664L18.1172 21.8008L18.293 22.5625L18.4102 23.0898L18.3516 23.1484C18.2734 23.1875 18.1953 23.3633 18.1172 23.6758C18.1172 24.1445 18.0781 24.4961 18 24.7305C17.9609 24.8086 17.9414 24.9258 17.9414 25.082C17.9414 25.1602 17.9023 25.3359 17.8242 25.6094C17.7852 25.8438 17.7656 26.0586 17.7656 26.2539C17.7266 26.293 17.707 26.3516 17.707 26.4297C17.707 26.5078 17.6875 26.5859 17.6484 26.6641C17.6484 26.6641 17.5898 26.8398 17.4727 27.1914C17.4336 27.2695 17.3945 27.3867 17.3555 27.543C17.3555 27.6602 17.3164 27.8164 17.2383 28.0117C16.8477 29.3398 16.5938 30.2383 16.4766 30.707L16.3008 31.1758L15.9492 32.1719L15.7734 32.5234L15.7148 32.9336C15.6367 33.207 15.5195 33.5391 15.3633 33.9297C15.207 34.2812 15.1484 34.4766 15.1875 34.5156L15.6562 34.8672L16.1836 35.5117L16.6523 35.9219L17.5312 37.0352L17.7656 37.3867L18.0586 37.9141L18.4102 38.4414L18.7031 38.9102C18.8984 39.1836 18.9961 39.3984 18.9961 39.5547C19.0352 39.8281 19.1133 40.043 19.2305 40.1992C19.2305 40.1992 19.3086 40.4727 19.4648 41.0195C19.5039 41.0586 19.5234 41.1172 19.5234 41.1953C19.5234 41.2734 19.543 41.332 19.582 41.3711C19.582 41.4102 19.582 41.4883 19.582 41.6055C19.6211 41.7227 19.6406 41.8984 19.6406 42.1328C19.6406 42.3281 19.6602 42.5039 19.6992 42.6602C19.7383 42.7773 19.7578 42.875 19.7578 42.9531C19.875 43.3047 19.9336 43.6562 19.9336 44.0078L19.875 44.3008V44.5938C19.8359 44.6328 19.7969 44.6914 19.7578 44.7695C19.7188 44.8086 19.6797 44.8672 19.6406 44.9453C19.4844 45.2969 19.3086 45.5117 19.1133 45.5898C18.957 45.5898 18.7812 45.4922 18.5859 45.2969L18.1758 45.0625L17.9414 44.9453C17.8242 44.8672 17.6875 44.8477 17.5312 44.8867L17.1211 44.8281H16.5938C16.4375 44.8281 16.2812 44.8281 16.125 44.8281C16.0078 44.8281 15.9297 44.8086 15.8906 44.7695C15.8516 44.7695 15.793 44.75 15.7148 44.7109C15.6758 44.6719 15.6367 44.6523 15.5977 44.6523L15.3047 44.5352C15.3047 44.457 15.2461 44.418 15.1289 44.418C14.7383 44.1445 14.3281 43.7734 13.8984 43.3047C13.7812 43.1484 13.5469 42.8945 13.1953 42.543C12.9219 42.2695 12.7852 42.1328 12.7852 42.1328C12.668 42.0156 12.5312 41.8789 12.375 41.7227C12.2578 41.5664 12.1797 41.5078 12.1406 41.5469C12.1406 41.5469 11.9844 41.8008 11.6719 42.3086L11.2617 42.8359C11.2227 42.9141 11.1641 43.0117 11.0859 43.1289C11.0469 43.207 11.0078 43.2852 10.9688 43.3633C10.9297 43.4805 10.8516 43.5977 10.7344 43.7148C10.6172 43.832 10.5586 43.9297 10.5586 44.0078C10.4023 44.3203 10.0898 44.7109 9.62109 45.1797C9.07422 45.8438 8.82031 46.1562 8.85938 46.1172C8.54688 46.4297 8.19531 46.7031 7.80469 46.9375L7.51172 47.1133L7.10156 47.4062L6.86719 47.4648C6.82812 47.4258 6.69141 47.4062 6.45703 47.4062H6.16406C5.89062 47.4062 5.69531 47.3867 5.57812 47.3477L5.28516 47.1719L4.99219 47.1133C4.91406 47.1523 4.77734 47.1719 4.58203 47.1719C4.19141 47.1328 3.9375 47.0938 3.82031 47.0547C3.70312 46.9375 3.64453 46.8789 3.64453 46.8789C3.60547 46.8398 3.54688 46.7812 3.46875 46.7031C3.42969 46.5859 3.41016 46.4883 3.41016 46.4102C3.41016 46.2539 3.39062 46.1172 3.35156 46L3.23438 45.5312C3.23438 45.3359 3.17578 45.1602 3.05859 45.0039L2.88281 44.4766L2.82422 44.1836C2.74609 44.1055 2.70703 44.0078 2.70703 43.8906C2.70703 43.5391 2.66797 43.3242 2.58984 43.2461C2.51172 43.207 2.47266 43.1289 2.47266 43.0117C2.43359 42.8945 2.49219 42.7773 2.64844 42.6602C2.76562 42.582 3 42.3672 3.35156 42.0156C3.70312 41.625 3.95703 41.332 4.11328 41.1367L4.46484 40.668C4.54297 40.5898 4.58203 40.4922 4.58203 40.375L4.93359 40.082C5.08984 39.9258 5.20703 39.7305 5.28516 39.4961L5.46094 39.1445C5.57812 39.1055 5.67578 38.9883 5.75391 38.793L6.04688 38.5C6.04688 38.5 6.14453 38.4023 6.33984 38.207C6.41797 37.9336 6.55469 37.7969 6.75 37.7969C6.82812 37.7969 6.88672 37.7578 6.92578 37.6797C7.00391 37.5234 7.08203 37.4258 7.16016 37.3867C7.35547 37.1914 7.45312 36.9961 7.45312 36.8008C7.45312 36.7617 7.375 36.6641 7.21875 36.5078C7.02344 36.3516 6.80859 36.1758 6.57422 35.9805C6.33984 35.7461 6.16406 35.5508 6.04688 35.3945C6.04688 35.3555 5.96875 35.2578 5.8125 35.1016C5.8125 35.1016 5.69531 34.9258 5.46094 34.5742C5.42188 34.4961 5.36328 34.4375 5.28516 34.3984C5.24609 34.3203 5.22656 34.2617 5.22656 34.2227C5.10938 34.1055 4.99219 33.793 4.875 33.2852C4.79688 32.9727 4.71875 32.6992 4.64062 32.4648C4.5625 32.2305 4.50391 31.9961 4.46484 31.7617V31.1172L4.34766 30.6484C4.30859 30.5703 4.28906 30.4922 4.28906 30.4141C4.28906 30.3359 4.26953 30.2773 4.23047 30.2383L4.17188 29.7109C4.17188 29.4375 4.11328 29.1836 3.99609 28.9492C3.83984 28.5977 3.74219 28.3242 3.70312 28.1289C3.70312 27.9336 3.70312 27.7773 3.70312 27.6602L3.64453 27.0156L3.82031 26.3711C4.09375 25.4727 4.25 24.9062 4.28906 24.6719L4.34766 24.3789C4.34766 24.3008 4.15234 24.2031 3.76172 24.0859C3.48828 23.9688 3.19531 23.832 2.88281 23.6758C2.64844 23.5586 2.43359 23.4609 2.23828 23.3828C2.04297 23.2656 1.88672 23.168 1.76953 23.0898C1.65234 22.9727 1.57422 22.9141 1.53516 22.9141C1.33984 22.875 1.04688 22.6211 0.65625 22.1523C0.578125 21.918 0.480469 21.5469 0.363281 21.0391C0.324219 20.9609 0.304688 20.8828 0.304688 20.8047C0.304688 20.7266 0.285156 20.668 0.246094 20.6289C0.207031 20.5508 0.148438 20.2383 0.0703125 19.6914L0.0117188 19.2812ZM7.80469 29.5938C7.80469 29.6719 8.01953 29.8086 8.44922 30.0039C8.48828 30.1211 8.72266 30.2773 9.15234 30.4727C9.26953 30.5508 9.62109 30.7461 10.207 31.0586C10.2852 31.0977 10.4023 31.1562 10.5586 31.2344C10.7148 31.2734 10.8125 31.2734 10.8516 31.2344L11.3203 30.3555C11.3594 30.082 11.418 29.8477 11.4961 29.6523C11.6133 29.457 11.7109 29.3594 11.7891 29.3594L12.1992 28.3633C12.5898 27.582 12.8047 27.0938 12.8438 26.8984C13.2344 26.3125 13.4883 25.9023 13.6055 25.668V25.375L12.7852 25.3164C12.668 25.2383 12.5508 25.1992 12.4336 25.1992C12.3555 25.1602 12.2969 25.1406 12.2578 25.1406L11.9648 25.082L10.9688 25.1992C10.5391 25.1992 10.2852 25.1797 10.207 25.1406H9.79688C9.64062 25.1406 9.50391 25.2383 9.38672 25.4336L8.74219 26.8398C8.54688 27.3086 8.37109 27.6992 8.21484 28.0117C8.09766 28.2852 8 28.5195 7.92188 28.7148C7.80469 29.1836 7.76562 29.4766 7.80469 29.5938Z" fill="#4A443D"/>
<path d="M87.8672 53.3828C87.75 53.3828 87.6328 53.2852 87.5156 53.0898L87.1641 52.6211C87.1641 52.6211 87.0469 52.5039 86.8125 52.2695L86.7539 52.1523L86.5195 52.2695C86.4805 52.3477 86.4023 52.3867 86.2852 52.3867C86.168 52.3867 86.0703 52.3477 85.9922 52.2695L85.875 52.0938L85.6992 52.1523C85.6602 52.1914 85.543 52.2109 85.3477 52.2109C85.1914 52.25 85.0742 52.25 84.9961 52.2109L84.9375 52.0938C84.8594 52.0156 84.8203 51.4102 84.8203 50.2773C84.7812 50.043 84.7617 49.8086 84.7617 49.5742C84.7617 49.3008 84.7422 49.0664 84.7031 48.8711C84.7031 48.3633 84.6836 48.0117 84.6445 47.8164C84.6445 47.0742 84.6055 46.625 84.5273 46.4688C84.4883 46.3125 84.4688 45.9805 84.4688 45.4727C84.4688 44.8086 84.4492 44.3594 84.4102 44.125C84.4102 43.6172 84.4297 43.207 84.4688 42.8945V42.1914C84.4297 41.6445 84.3906 40.9414 84.3516 40.082C84.3516 39.1836 84.3711 38.5 84.4102 38.0312C84.4492 37.9531 84.4688 37.1914 84.4688 35.7461L84.5273 32.582V31.7617C84.5273 31.5273 84.5078 31.3906 84.4688 31.3516C84.4297 31.3125 84.332 31.293 84.1758 31.293L83.5312 31.2344L82.7695 31.1758C82.4961 31.1367 82.3008 31.1367 82.1836 31.1758H81.3633C81.168 31.1367 80.9336 31.1172 80.6602 31.1172C80.5039 31.1172 80.3867 31.0977 80.3086 31.0586L79.7812 31C79.5859 31 79.3711 30.9609 79.1367 30.8828C78.9414 30.7656 78.8242 30.6875 78.7852 30.6484L78.5508 30.5898C78.5117 30.5508 78.4141 30.5312 78.2578 30.5312C78.0625 30.5312 77.5547 30.3945 76.7344 30.1211C76.6562 30.043 76.4805 29.9648 76.207 29.8867C75.8555 29.8086 75.5625 29.6523 75.3281 29.418C75.2891 29.3789 75.25 29.2031 75.2109 28.8906C75.1719 28.5781 75.1719 28.2852 75.2109 28.0117V27.6016C75.1719 27.5625 75.1523 27.3086 75.1523 26.8398V25.9023C75.1523 25.7461 75.1914 25.6289 75.2695 25.5508C75.4648 25.3164 75.8164 25.1406 76.3242 25.0234L76.793 24.8477C76.8711 24.8477 76.9297 24.8281 76.9688 24.7891C77.1641 24.6719 77.4375 24.5547 77.7891 24.4375C78.1797 24.3203 78.5117 24.2422 78.7852 24.2031L79.7227 24.0273C79.8398 23.9102 79.8398 23.7148 79.7227 23.4414C79.7227 23.3633 79.6836 23.2656 79.6055 23.1484C79.5664 23.0312 79.5469 22.9336 79.5469 22.8555L79.3711 22.2695C79.293 21.6445 79.2148 21.2344 79.1367 21.0391L79.0781 20.6875L79.0195 19.9844C78.9805 19.8672 78.9609 19.7695 78.9609 19.6914C78.9609 19.5742 78.9414 19.4766 78.9023 19.3984L78.7852 16.9375L78.7266 16.1172C78.6875 15.9609 78.668 15.8047 78.668 15.6484C78.668 15.4531 78.6484 15.3164 78.6094 15.2383V15.1211C78.6094 14.9258 78.6875 14.75 78.8438 14.5938L78.9609 14.4766H79.2539C79.5273 14.4766 79.8984 14.5156 80.3672 14.5938C80.8359 14.6719 81.0898 14.7695 81.1289 14.8867C81.207 15.0039 81.2656 15.2969 81.3047 15.7656C81.3047 15.9609 81.3242 16.1562 81.3633 16.3516C81.4414 16.5469 81.5391 16.8008 81.6562 17.1133C81.8125 17.3867 81.9297 17.6016 82.0078 17.7578L82.3594 18.6367C82.6328 19.2617 82.8281 19.8672 82.9453 20.4531L83.1797 21.1562L83.5312 22.2695C83.7266 23.0117 83.8633 23.4023 83.9414 23.4414C84.0195 23.4805 84.1172 23.5 84.2344 23.5C84.3516 23.5 84.4688 23.4805 84.5859 23.4414C84.6641 23.4023 84.7227 23.2656 84.7617 23.0312C84.8008 22.7578 84.8203 22.3086 84.8203 21.6836L84.8789 20.1602C84.8789 20.1211 84.8789 20.043 84.8789 19.9258C84.918 19.8086 84.9375 19.5938 84.9375 19.2812C84.9766 18.9688 84.9961 18.5195 84.9961 17.9336C85.0352 17.8164 85.0547 17.543 85.0547 17.1133C85.0938 16.957 85.1133 16.8203 85.1133 16.7031C85.1133 16.5469 85.1328 16.4102 85.1719 16.293V15.707C85.2109 15.6289 85.2305 15.5312 85.2305 15.4141C85.2695 15.2969 85.3086 15.1992 85.3477 15.1211L85.4062 14.5938C85.4453 14.4375 85.4453 14.3398 85.4062 14.3008C85.3281 14.2617 85.2305 14.2422 85.1133 14.2422C84.9961 14.2422 84.8789 14.2617 84.7617 14.3008L84.4102 14.3594C84.332 14.3594 84.1367 14.3203 83.8242 14.2422C83.668 14.2031 83.4336 14.1836 83.1211 14.1836C82.7305 14.1445 82.4375 14.1055 82.2422 14.0664C82.0859 13.9883 81.9102 13.8711 81.7148 13.7148C81.5977 13.5977 81.4609 13.5195 81.3047 13.4805C81.1875 13.4023 80.9727 13.3242 80.6602 13.2461C80.6602 13.2461 80.4844 13.1875 80.1328 13.0703C79.8984 12.875 79.7617 12.7578 79.7227 12.7188C79.7227 12.6797 79.7031 12.6406 79.6641 12.6016C79.6641 12.5625 79.6836 12.5039 79.7227 12.4258V12.25C79.7227 11.9766 79.7031 11.7617 79.6641 11.6055C79.5469 11.5273 79.5469 11.332 79.6641 11.0195C79.6641 10.668 79.625 10.4727 79.5469 10.4336V9.37891C79.5469 8.91016 79.5273 8.61719 79.4883 8.5C79.4883 8.34375 79.4883 8.26562 79.4883 8.26562C79.4492 8.26562 79.4297 8.24609 79.4297 8.20703C79.4297 8.12891 79.4102 8.07031 79.3711 8.03125C79.3711 7.91406 79.4297 7.79688 79.5469 7.67969C79.6641 7.5625 79.7812 7.50391 79.8984 7.50391L80.1914 7.32812C80.3086 7.28906 80.5039 7.26953 80.7773 7.26953C81.0117 7.26953 81.168 7.25 81.2461 7.21094C81.3242 7.13281 81.4414 7.09375 81.5977 7.09375L81.832 6.97656C81.8711 6.97656 82.0859 6.95703 82.4766 6.91797C82.8672 6.87891 83.1016 6.87891 83.1797 6.91797C83.2969 6.91797 83.375 6.89844 83.4141 6.85938C83.6094 6.78125 83.8242 6.74219 84.0586 6.74219C84.293 6.70312 84.625 6.66406 85.0547 6.625L86.2266 6.56641C86.3047 6.52734 86.5977 6.50781 87.1055 6.50781C87.3398 6.46875 87.9648 6.44922 88.9805 6.44922C89.8789 6.48828 90.4258 6.52734 90.6211 6.56641C91.5977 6.76172 92.3008 6.99609 92.7305 7.26953C92.7695 7.30859 92.8281 7.36719 92.9062 7.44531C93.0234 7.48438 93.1602 7.52344 93.3164 7.5625C93.668 7.75781 93.8828 7.95312 93.9609 8.14844C94.0391 8.34375 94.0781 8.61719 94.0781 8.96875C94.1172 9.4375 94.1172 9.86719 94.0781 10.2578C94.0781 10.5312 94.0391 10.7461 93.9609 10.9023C93.8828 11.0586 93.8438 11.293 93.8438 11.6055C93.8438 11.918 93.8047 12.1133 93.7266 12.1914C93.375 12.543 93.1602 12.7383 93.082 12.7773L92.7305 12.8945L92.3789 12.9531L92.0273 13.0703L91.6758 13.1289C91.4023 13.1289 91.1484 13.1875 90.9141 13.3047C90.4844 13.5 90.0742 13.5977 89.6836 13.5977C89.3711 13.5977 89.1367 13.6172 88.9805 13.6562C88.668 13.7344 88.4727 13.8125 88.3945 13.8906L88.3359 14.0078C88.3359 14.1641 88.375 14.3594 88.4531 14.5938C88.4922 14.75 88.5312 15.4531 88.5703 16.7031L88.6875 20.3359L88.8047 20.3945C89.0391 20.3945 89.2734 20.2773 89.5078 20.043C89.6641 19.8867 89.7617 19.7305 89.8008 19.5742C89.8398 19.457 89.9375 19.3398 90.0938 19.2227C90.25 19.0664 90.4258 18.9102 90.6211 18.7539L91.0898 18.3438C91.4414 17.9922 91.6758 17.7969 91.793 17.7578L92.4375 17.1133L92.6133 16.8203C92.6914 16.6641 92.7695 16.5859 92.8477 16.5859C93.0039 16.5078 93.1602 16.3516 93.3164 16.1172C93.3164 16.0781 93.375 16 93.4922 15.8828L94.0781 15.1797C94.1953 14.9844 94.3906 14.8867 94.6641 14.8867C94.8203 14.8867 95.0352 14.9648 95.3086 15.1211C95.7383 15.3164 95.9922 15.4727 96.0703 15.5898C96.1484 15.707 96.207 15.9609 96.2461 16.3516C96.3633 16.8594 96.3828 17.4844 96.3047 18.2266L96.1875 19.2812C96.1484 19.5156 95.9727 19.8867 95.6602 20.3945C95.3867 20.9023 95.1133 21.332 94.8398 21.6836C94.6836 21.7617 94.5664 21.8984 94.4883 22.0938C94.5664 22.0547 94.2344 22.3672 93.4922 23.0312L93.3164 23.3242V23.3828C93.3164 23.5391 93.5312 23.6367 93.9609 23.6758C94.4688 23.6758 95.0352 23.7539 95.6602 23.9102C96.0117 23.9883 96.3828 24.0859 96.7734 24.2031C97.1641 24.3203 97.4961 24.457 97.7695 24.6133L98.4141 25.0234C98.9219 25.2578 99.2539 25.4727 99.4102 25.668C99.5664 25.8633 99.625 26.1367 99.5859 26.4883C99.5859 26.6836 99.6055 26.8594 99.6445 27.0156L99.7031 27.3672C99.6641 27.3672 99.6445 27.6016 99.6445 28.0703C99.6445 28.4609 99.6055 28.7344 99.5273 28.8906C99.4492 29.1641 99.4492 29.418 99.5273 29.6523V29.8281C99.5273 30.0234 99.4688 30.1797 99.3516 30.2969C99.1562 30.4922 99.0586 30.5898 99.0586 30.5898C98.9805 30.6289 98.9023 30.6875 98.8242 30.7656C98.7852 30.8047 98.7461 30.8242 98.707 30.8242L98.5312 30.8828C98.4531 30.8828 98.4141 30.8828 98.4141 30.8828H98.1797C97.6719 30.8828 97.3984 30.9023 97.3594 30.9414C97.2812 31.0195 96.9102 31.0586 96.2461 31.0586C95.7773 31.0586 95.3086 31.0977 94.8398 31.1758L94.3125 31.2344H93.9609C93.7656 31.2734 93.5312 31.293 93.2578 31.293C92.9844 31.293 92.7695 31.2734 92.6133 31.2344C92.4961 31.2344 92.418 31.2539 92.3789 31.293C92.1836 31.3711 91.8906 31.3711 91.5 31.293H90.9141C90.7578 31.332 90.6406 31.332 90.5625 31.293H90.2695L89.6836 31.3516H89.5078C89.3516 31.3516 89.2539 31.3906 89.2148 31.4688C89.1758 31.5078 89.1562 31.6055 89.1562 31.7617V34.2227C89.1953 34.7695 89.2148 35.8438 89.2148 37.4453L89.2734 41.957V46.1758C89.3125 46.6836 89.293 47.4453 89.2148 48.4609C89.1758 49.4766 89.1172 50.2773 89.0391 50.8633C89 50.9023 88.9805 51.0195 88.9805 51.2148C88.9805 51.5273 88.8828 51.8789 88.6875 52.2695C88.3359 53.0117 88.0625 53.3828 87.8672 53.3828ZM57.2227 9.4375C57.1836 9.16406 57.2031 8.98828 57.2812 8.91016C57.5156 8.67578 57.8281 8.53906 58.2188 8.5C58.2969 8.42188 58.3945 8.38281 58.5117 8.38281C58.5898 8.34375 58.7266 8.32422 58.9219 8.32422L59.5078 8.14844L60.1523 8.03125C60.3867 7.91406 60.6016 7.85547 60.7969 7.85547C61.5781 7.66016 62.1641 7.5625 62.5547 7.5625C63.1016 7.48438 63.4531 7.40625 63.6094 7.32812C63.6875 7.28906 63.7266 7.21094 63.7266 7.09375C63.7266 6.46875 63.707 6.03906 63.668 5.80469C63.668 5.53125 63.668 5.35547 63.668 5.27734C63.6289 5.23828 63.6094 5.00391 63.6094 4.57422C63.6094 4.14453 63.5898 3.91016 63.5508 3.87109C63.5117 3.71484 63.5117 3.61719 63.5508 3.57812C63.5898 3.53906 63.6875 3.51953 63.8438 3.51953C64.1562 3.55859 64.5273 3.69531 64.957 3.92969C65.6211 4.32031 66.0898 4.67188 66.3633 4.98438C66.6758 5.33594 66.9102 5.86328 67.0664 6.56641L67.1836 7.03516C67.2227 7.15234 67.5352 7.23047 68.1211 7.26953L69.293 7.44531C69.8398 7.60156 70.1523 7.73828 70.2305 7.85547C70.3086 7.85547 70.3867 7.89453 70.4648 7.97266C70.543 8.05078 70.6406 8.12891 70.7578 8.20703C70.9922 8.32422 71.168 8.42188 71.2852 8.5C71.4023 8.53906 71.4805 8.63672 71.5195 8.79297C71.5977 8.91016 71.6367 9.08594 71.6367 9.32031C71.6367 9.51562 71.6562 9.65234 71.6953 9.73047C71.7344 9.84766 71.7539 9.98438 71.7539 10.1406L71.6953 10.7266C71.6953 11.0781 71.6367 11.3125 71.5195 11.4297C71.4805 11.5859 71.4805 11.7812 71.5195 12.0156C71.5195 12.25 71.5 12.4258 71.4609 12.543C71.4219 12.6211 71.2852 12.7578 71.0508 12.9531C70.8164 13.1484 70.6211 13.2656 70.4648 13.3047C70.3086 13.3828 70.1523 13.4219 69.9961 13.4219C69.957 13.3828 69.918 13.3828 69.8789 13.4219C69.8398 13.4219 69.8008 13.4219 69.7617 13.4219C69.6055 13.5 69.4688 13.5391 69.3516 13.5391C68.9609 13.6172 68.7461 13.6758 68.707 13.7148H68.5312L68.2383 13.832C68.1602 13.9102 68.043 13.9492 67.8867 13.9492C67.6914 13.9492 67.3203 14.0273 66.7734 14.1836H66.5391L66.3047 14.3008L66.0703 14.3594C65.9141 14.3594 65.8164 14.3789 65.7773 14.418L65.3672 14.5352C65.25 14.5352 65.1133 14.5742 64.957 14.6523C64.8789 14.6914 64.7031 14.7109 64.4297 14.7109H64.0195L63.668 14.8281L63.375 14.8867C63.0625 14.9648 62.7891 15.0039 62.5547 15.0039L62.0273 15.0625C61.9102 15.1016 61.6562 15.1211 61.2656 15.1211C60.875 15.1211 60.6211 15.1016 60.5039 15.0625C60.3477 14.9844 60.1914 14.9453 60.0352 14.9453C59.8398 14.9453 59.6836 14.9258 59.5664 14.8867C59.4492 14.8477 59.3516 14.7695 59.2734 14.6523C59 14.3789 58.7656 14.2422 58.5703 14.2422L58.1602 14.1836C57.8086 14.0664 57.6328 14.0078 57.6328 14.0078L57.3984 13.9492L57.3398 13.832V12.7188C57.3008 12.25 57.2812 11.6836 57.2812 11.0195V9.90625C57.2812 9.71094 57.2617 9.55469 57.2227 9.4375ZM58.8047 42.4844C58.8047 42.3281 58.8242 42.2305 58.8633 42.1914C58.8633 42.1133 58.8828 41.9375 58.9219 41.6641C58.9609 41.3906 58.9805 41 58.9805 40.4922V40.0234C59.0195 39.9453 59.0391 39.5352 59.0391 38.793L59.0977 37.5039C59.0977 36.7227 59.1172 36.0195 59.1562 35.3945C59.1562 34.6133 59.1562 34.0859 59.1562 33.8125C59.1953 33.5391 59.293 33.3047 59.4492 33.1094L59.8594 32.6406C60.0938 32.4062 60.2695 32.2891 60.3867 32.2891C60.5039 32.2891 60.6602 32.2305 60.8555 32.1133C61.0117 32.0742 61.1289 32.0352 61.207 31.9961C61.3242 31.918 61.4023 31.8594 61.4414 31.8203C62.2227 31.6641 62.6328 31.5859 62.6719 31.5859C62.7109 31.5469 62.7695 31.5273 62.8477 31.5273C62.9258 31.5273 62.9844 31.5078 63.0234 31.4688C63.1016 31.4297 63.1992 31.4102 63.3164 31.4102C63.4336 31.4102 63.5508 31.3906 63.668 31.3516L64.0781 31.293H64.4297C65.3281 31.293 65.8945 31.3125 66.1289 31.3516C67.5352 31.5078 68.707 31.8789 69.6445 32.4648C69.957 32.6211 70.1914 32.7969 70.3477 32.9922C70.5039 33.1484 70.6406 33.4023 70.7578 33.7539C70.875 34.1055 70.9531 34.4961 70.9922 34.9258C71.0703 35.3555 71.1094 35.7656 71.1094 36.1562L71.168 36.6836C71.207 36.7227 71.2266 37.3672 71.2266 38.6172C71.2266 39.9844 71.207 40.8242 71.168 41.1367C71.168 41.8789 71.1289 42.6211 71.0508 43.3633C71.0117 44.1055 70.9727 44.6719 70.9336 45.0625C70.8945 45.1016 70.875 45.1602 70.875 45.2383C70.875 45.3164 70.8555 45.375 70.8164 45.4141C70.8164 45.4531 70.7383 45.707 70.582 46.1758C70.4258 46.4883 70.25 46.7227 70.0547 46.8789C69.625 47.2305 69.1367 47.4648 68.5898 47.582C68.3945 47.582 68.2773 47.6016 68.2383 47.6406L68.0625 47.6992C67.9453 47.6992 67.8086 47.7383 67.6523 47.8164L67.1836 47.9336C66.7539 48.0117 66.5 48.0703 66.4219 48.1094L66.1289 48.3438L65.1328 48.6367L64.8398 48.7539C64.7617 48.832 64.6445 48.8711 64.4883 48.8711L64.1953 48.9297C64.1172 49.0078 64.0391 49.0469 63.9609 49.0469L63.668 49.1641C63.3555 49.2422 63.043 49.2812 62.7305 49.2812C62.2617 49.2812 62.0273 49.3008 62.0273 49.3398C61.793 49.418 61.6172 49.3398 61.5 49.1055C61.4219 48.9492 61.2852 48.793 61.0898 48.6367C60.9727 48.5586 60.8164 48.5195 60.6211 48.5195C60.4258 48.5195 60.2891 48.5 60.2109 48.4609C60.0547 48.3828 59.918 48.3438 59.8008 48.3438C59.5664 48.3438 59.4297 48.2852 59.3906 48.168C59.3516 48.0508 59.3125 47.6797 59.2734 47.0547L59.2148 45.8828C59.1367 45.4141 59.0977 44.8672 59.0977 44.2422V44.125L58.9805 43.6562C58.9414 43.5781 58.9219 43.5 58.9219 43.4219C58.9219 43.3047 58.9023 43.207 58.8633 43.1289C58.8633 42.7773 58.8438 42.5625 58.8047 42.4844ZM59.1562 26.4297C59.1953 26.1172 59.2344 25.9414 59.2734 25.9023C59.3125 25.9023 59.332 25.8828 59.332 25.8438C59.3711 25.8047 59.4102 25.7852 59.4492 25.7852L59.6836 25.6094C59.8398 25.5312 59.957 25.4531 60.0352 25.375L60.8555 24.9062C61.4414 24.7109 61.7539 24.5938 61.793 24.5547C61.8711 24.5547 61.9688 24.5352 62.0859 24.4961C62.2031 24.457 62.3594 24.418 62.5547 24.3789L63.082 24.2031L64.1367 23.9102L64.7812 23.793L65.543 23.6758C65.6602 23.6367 65.7969 23.6172 65.9531 23.6172C65.9922 23.5781 66.0508 23.5586 66.1289 23.5586C66.2461 23.5586 66.3438 23.5391 66.4219 23.5L67.125 23.4414C67.1641 23.4023 67.2812 23.3828 67.4766 23.3828C67.6719 23.3828 67.8086 23.3633 67.8867 23.3242C68.1211 23.2852 68.3945 23.2852 68.707 23.3242C68.9414 23.4023 69.2734 23.5586 69.7031 23.793C69.9375 23.9492 70.0742 24.0664 70.1133 24.1445C70.1523 24.1836 70.1719 24.3008 70.1719 24.4961C70.1719 24.5352 70.1914 24.5938 70.2305 24.6719C70.2695 24.75 70.3086 24.8086 70.3477 24.8477C70.3867 25.043 70.3867 25.1992 70.3477 25.3164C70.2695 25.3945 70.2305 25.4727 70.2305 25.5508C70.3086 25.6289 70.3477 25.7461 70.3477 25.9023L70.2305 26.3711V26.7227C70.3086 26.8008 70.3477 26.8984 70.3477 27.0156C70.0742 27.2891 69.8984 27.4453 69.8203 27.4844L69.4688 27.6602C69.3906 27.7383 69.2734 27.7773 69.1172 27.7773C69.0781 27.8164 69.0195 27.8359 68.9414 27.8359C68.8633 27.8359 68.8047 27.8555 68.7656 27.8945C68.4922 28.0508 68.2773 28.1289 68.1211 28.1289C67.8867 28.1289 67.4961 28.2461 66.9492 28.4805C66.7148 28.6367 66.5195 28.7148 66.3633 28.7148L66.0703 28.832L65.7188 29.0664L65.3086 29.2422C65.1523 29.2422 64.9961 29.2617 64.8398 29.3008C64.7227 29.3398 64.6445 29.3984 64.6055 29.4766C64.5664 29.4766 64.4688 29.5352 64.3125 29.6523C64.1562 29.7305 63.9414 29.8086 63.668 29.8867C63.4336 29.8867 63.2773 29.9258 63.1992 30.0039L62.0273 30.2969C61.9102 30.375 61.6367 30.375 61.207 30.2969C61.168 30.2578 61.0898 30.2383 60.9727 30.2383C60.8945 30.1992 60.8359 30.1602 60.7969 30.1211C60.6406 30.0039 60.3867 29.9258 60.0352 29.8867C59.957 29.8477 59.8594 29.8281 59.7422 29.8281C59.6641 29.8281 59.6055 29.8086 59.5664 29.7695C59.4883 29.7305 59.4297 29.6328 59.3906 29.4766C59.3516 29.3203 59.332 29.0664 59.332 28.7148L59.2734 27.8945C59.2344 27.7773 59.1953 27.6211 59.1562 27.4258C59.1562 27.2305 59.1562 27.0742 59.1562 26.957V26.4297ZM59.2148 18.6367C59.1758 18.5195 59.1758 18.3633 59.2148 18.168C59.2539 18.0117 59.2734 17.8359 59.2734 17.6406C59.2734 17.4844 59.293 17.3867 59.332 17.3477C59.4492 17.2695 59.5664 17.2695 59.6836 17.3477L59.7422 17.4062L60.0352 17.1719C60.1914 16.9766 60.3281 16.8789 60.4453 16.8789C60.4844 16.8398 60.5234 16.8203 60.5625 16.8203C60.6016 16.8203 60.6211 16.8008 60.6211 16.7617L60.8555 16.7031C61.2852 16.625 61.5391 16.5664 61.6172 16.5273C61.6953 16.4883 61.832 16.4492 62.0273 16.4102C62.2227 16.332 62.3984 16.293 62.5547 16.293L62.9648 16.2344L63.9609 16.1172L64.7227 16.0586C64.918 16.0586 65.0938 16.0391 65.25 16C66.7344 16 67.6328 16.0391 67.9453 16.1172C68.5703 16.3125 68.9805 16.4688 69.1758 16.5859L69.5859 16.7617L69.7617 16.8789C69.8789 16.918 69.957 17.0352 69.9961 17.2305V17.5234C69.9961 17.6406 70.0156 17.7383 70.0547 17.8164C70.1719 18.1289 70.1719 18.3438 70.0547 18.4609V18.6953L70.1133 19.0469C70.0742 19.2031 70.0352 19.3008 69.9961 19.3398L69.8203 19.5156C69.7812 19.5547 69.7812 19.6328 69.8203 19.75C69.8203 19.8281 69.8594 19.8672 69.9375 19.8672C69.9766 19.9062 69.9961 19.9453 69.9961 19.9844C69.9961 20.0234 69.9766 20.0625 69.9375 20.1016C69.8594 20.1797 69.8203 20.2578 69.8203 20.3359C69.7422 20.4141 69.6836 20.4531 69.6445 20.4531C69.5273 20.5312 69.3906 20.5898 69.2344 20.6289C69.1172 20.6289 69.0195 20.6094 68.9414 20.5703L68.6484 20.6289L68.1797 20.7461C68.0625 20.7461 67.9648 20.7656 67.8867 20.8047C67.8477 20.8047 67.8086 20.8047 67.7695 20.8047C67.7305 20.8438 67.6328 20.8633 67.4766 20.8633C67.0859 20.9414 66.6758 21.0586 66.2461 21.2148C66.1289 21.293 65.8359 21.3906 65.3672 21.5078L65.0742 21.5664C65.0352 21.6055 64.9766 21.6445 64.8984 21.6836C64.8203 21.7227 64.7617 21.7422 64.7227 21.7422L63.7852 21.9766C63.6289 22.0547 63.4922 22.0938 63.375 22.0938C63.1406 22.1719 63.0234 22.2109 63.0234 22.2109L62.6719 22.2695L62.3203 22.3867C62.2422 22.4258 62.125 22.4453 61.9688 22.4453C61.7344 22.4453 61.5195 22.3867 61.3242 22.2695C61.2852 22.2305 61.1094 22.1328 60.7969 21.9766C60.6797 21.9375 60.5234 21.918 60.3281 21.918C60.0547 21.918 59.8008 21.8789 59.5664 21.8008C59.4883 21.7227 59.4492 21.5859 59.4492 21.3906L59.3906 20.9805C59.3516 20.9414 59.332 20.6875 59.332 20.2188C59.332 19.75 59.3125 19.4766 59.2734 19.3984V18.9883C59.2734 18.832 59.2539 18.7148 59.2148 18.6367ZM62.7305 37.6797C62.7305 37.9531 62.75 38.1094 62.7891 38.1484V39.6133L62.8477 40.9609C62.9258 41.0391 63.1406 41.0586 63.4922 41.0195C63.5703 40.9805 63.6875 40.9609 63.8438 40.9609C64 40.9609 64.1367 40.9414 64.2539 40.9023L64.957 40.8438C65.0352 40.8047 65.1133 40.7852 65.1914 40.7852C65.3086 40.7852 65.4062 40.7656 65.4844 40.7266L66.0703 40.668C66.6953 40.5898 67.125 40.5703 67.3594 40.6094C67.6328 40.6484 67.7891 40.6289 67.8281 40.5508C67.8281 40.5117 67.8281 40.4336 67.8281 40.3164C67.8672 40.1992 67.8867 39.9844 67.8867 39.6719L67.9453 38.3242L68.0625 37.2109C68.0625 36.7031 68.0039 36.4102 67.8867 36.332C67.8086 36.2539 67.4375 36.2148 66.7734 36.2148C66.2266 36.2148 65.9141 36.2344 65.8359 36.2734C65.6406 36.2734 65.4844 36.2539 65.3672 36.2148C65.2109 36.1758 65.0156 36.1758 64.7812 36.2148C64.7422 36.2539 64.6055 36.3125 64.3711 36.3906C64.0977 36.4297 63.9023 36.4688 63.7852 36.5078C63.668 36.5469 63.5703 36.625 63.4922 36.7422C63.4141 36.8203 63.2578 36.918 63.0234 37.0352C62.8672 37.1133 62.7695 37.1914 62.7305 37.2695C62.7305 37.3477 62.7305 37.4844 62.7305 37.6797Z" fill="#4A443D"/>
<path d="M116.309 52.6797C116.27 52.6797 116.211 52.6406 116.133 52.5625C116.133 52.4453 116.035 52.2891 115.84 52.0938C115.684 51.9375 115.352 51.7812 114.844 51.625C114.336 51.4688 113.945 51.3711 113.672 51.332H113.555C113.594 51.293 113.613 51.2148 113.613 51.0977V49.5742C113.613 49.3398 113.613 49.0859 113.613 48.8125C113.652 48.5 113.652 48.2852 113.613 48.168L113.672 47.5234C113.75 47.25 113.73 47.0156 113.613 46.8203C113.574 46.7422 113.574 46.6836 113.613 46.6445C113.691 46.332 113.73 46.0977 113.73 45.9414V45.8828C113.73 45.8828 113.691 45.8828 113.613 45.8828L113.555 45.707L113.672 44.9453L114.258 44.4766C114.336 44.3984 114.414 44.3203 114.492 44.2422C114.609 44.1641 114.707 44.125 114.785 44.125C114.785 44.0859 114.824 44.0664 114.902 44.0664C114.941 44.0664 114.941 44.0469 114.902 44.0078C114.902 43.9688 115.156 43.8516 115.664 43.6562L115.957 43.4219L116.484 43.0117C116.523 42.9727 116.543 42.9531 116.543 42.9531L116.719 42.8359L117.188 42.3086L117.246 42.25C117.324 42.2109 117.441 42.1133 117.598 41.957L117.656 41.8984C117.773 41.7812 117.969 41.6641 118.242 41.5469C118.516 41.3906 118.691 41.2148 118.77 41.0195L119.004 40.668L120.234 39.3789V39.3203C120.391 39.1641 120.566 38.9492 120.762 38.6758C120.957 38.3633 121.094 38.1289 121.172 37.9727C121.172 37.9336 121.211 37.875 121.289 37.7969C121.289 37.7969 121.367 37.7188 121.523 37.5625L121.934 36.8594C122.051 36.8203 122.148 36.7227 122.227 36.5664C122.227 36.5664 122.324 36.4688 122.52 36.2734C122.676 36.1562 122.793 36 122.871 35.8047C123.223 35.1016 123.555 34.5938 123.867 34.2812L124.16 33.9883V33.9297L124.277 33.8125C124.434 33.5 124.531 33.2461 124.57 33.0508C124.609 32.8555 124.57 32.6992 124.453 32.582C124.336 32.4648 124.16 32.4062 123.926 32.4062C123.691 32.3672 123.418 32.3477 123.105 32.3477H122.461C122.383 32.2695 122.227 32.1914 121.992 32.1133L121.758 31.8789C121.445 31.5664 121.133 31.4102 120.82 31.4102C120.234 31.4102 120.02 30.7461 120.176 29.418V27.543C120.137 27.3477 120.098 27.2109 120.059 27.1328C120.059 27.0156 120.078 26.957 120.117 26.957C120.156 26.918 120.234 26.8789 120.352 26.8398C120.781 26.5664 120.977 26.4297 120.938 26.4297C121.016 26.4297 121.133 26.3906 121.289 26.3125L121.465 26.2539C121.504 26.2539 121.562 26.2344 121.641 26.1953C121.758 26.1562 121.914 26.1172 122.109 26.0781L122.988 25.7852C123.301 25.668 123.477 25.5898 123.516 25.5508H123.574C123.691 25.5508 123.828 25.5117 123.984 25.4336L124.98 25.1992L125.215 25.1406H125.273C125.547 25.1406 125.762 25.1211 125.918 25.082C126.113 25.082 126.328 25.0234 126.562 24.9062C126.719 24.8281 126.895 24.7695 127.09 24.7305C127.285 24.6914 127.422 24.6719 127.5 24.6719L129.316 24.4961C129.434 24.457 129.707 24.4375 130.137 24.4375L131.074 24.3789C131.465 24.3789 131.719 24.3594 131.836 24.3203C132.227 24.3984 132.441 24.457 132.48 24.4961H132.773C132.852 24.5352 132.988 24.5547 133.184 24.5547L134.297 24.7305L134.473 24.7891L134.59 24.8477L134.824 24.9062C134.941 24.9062 135.078 24.9648 135.234 25.082L137.051 25.5508L137.344 25.7266L137.695 25.8438L137.812 25.9609L138.281 26.1953C138.359 26.2734 138.398 26.3906 138.398 26.5469C138.477 26.6641 138.555 26.8398 138.633 27.0742C138.711 27.3086 138.73 27.4844 138.691 27.6016C138.73 27.6797 138.75 27.7773 138.75 27.8945L138.926 28.7734C139.004 29.0078 139.023 29.4375 138.984 30.0625L139.102 31.8789V32.0547C139.102 32.4844 139.062 32.9922 138.984 33.5781C138.945 34.1641 138.906 34.5938 138.867 34.8672V35.2773C138.828 35.3945 138.809 35.5703 138.809 35.8047L138.574 36.4492V36.5078L138.516 36.918V37.1523C138.477 37.1914 138.457 37.25 138.457 37.3281L138.398 37.6211C138.398 37.6992 138.379 37.7578 138.34 37.7969V38.1484C138.301 38.1875 138.281 38.2461 138.281 38.3242L138.164 38.8516L138.105 39.3203C137.91 39.6328 137.715 40.3164 137.52 41.3711L137.285 42.543C137.285 42.6211 137.266 42.6797 137.227 42.7188C137.109 42.9922 137.012 43.2852 136.934 43.5977C136.934 43.6758 136.914 43.7344 136.875 43.7734L136.816 44.125L136.758 44.3594V44.4766L136.699 44.5352C136.699 44.6133 136.68 44.7109 136.641 44.8281C136.602 44.9062 136.582 45.0039 136.582 45.1211L136.406 45.5898L136.348 45.8242L136.23 46.2344L135.938 46.9375C135.781 47.4062 135.645 47.7969 135.527 48.1094C135.488 48.2656 135.41 48.4023 135.293 48.5195L135.059 48.9883L134.648 49.457L134.355 49.6914L132.656 50.1602H132.246C132.129 50.1211 131.992 50.0625 131.836 49.9844C131.68 49.8672 131.543 49.7305 131.426 49.5742L130.547 49.2227L130.312 49.1641H130.195C129.727 48.9297 129.375 48.6953 129.141 48.4609L129.082 48.4023H129.141L128.906 48.1094L128.73 47.8164C128.73 47.7773 128.711 47.7578 128.672 47.7578C128.672 47.7188 128.672 47.6797 128.672 47.6406L128.379 46.9961L128.086 46.0586L128.027 45.6484L127.969 45.4727L127.852 45.0039C127.773 44.7695 127.734 44.418 127.734 43.9492C127.695 43.7148 127.676 43.4414 127.676 43.1289C127.715 42.7773 127.715 42.5039 127.676 42.3086L127.617 41.7812V41.7227L127.441 41.3711V41.2539C127.441 41.0586 127.559 40.9609 127.793 40.9609C128.184 40.9609 128.574 41.2344 128.965 41.7812C129.082 41.8203 129.199 41.9375 129.316 42.1328C129.629 42.7188 129.941 43.0117 130.254 43.0117C130.527 43.0117 130.801 42.8164 131.074 42.4258C131.191 42.2695 131.309 42.0938 131.426 41.8984C131.582 41.6641 131.699 41.4297 131.777 41.1953L131.836 41.0195C131.836 41.0586 131.855 41.0391 131.895 40.9609L131.953 40.7852C132.188 40.3555 132.324 40.0234 132.363 39.7891L132.48 39.4375L132.656 39.0859C132.656 39.0078 132.676 38.9688 132.715 38.9688C132.715 38.8125 132.754 38.6172 132.832 38.3828L132.949 37.9141L133.184 37.0938L133.242 36.8594L133.535 35.9219L133.652 34.9258C133.77 34.5352 133.848 34.2422 133.887 34.0469L133.945 33.8125V33.6953L134.004 33.5195L134.062 33.0508C134.102 32.9727 134.121 32.8555 134.121 32.6992C134.121 32.543 134.043 32.3867 133.887 32.2305L133.652 31.9375L131.66 31.8789L130.84 31.9375C130.645 31.9375 130.488 31.957 130.371 31.9961H130.02C129.668 31.9961 129.434 32.0352 129.316 32.1133C129.199 32.1523 129.102 32.2891 129.023 32.5234V32.582C128.984 32.6211 128.945 32.6992 128.906 32.8164C128.906 32.8945 128.887 32.9531 128.848 32.9922C128.77 33.2266 128.73 33.4219 128.73 33.5781C128.691 33.6562 128.672 33.7539 128.672 33.8711C128.672 33.9492 128.652 34.0273 128.613 34.1055L128.555 34.3398C128.516 34.5742 128.438 34.8672 128.32 35.2188C128.32 35.4141 128.281 35.5898 128.203 35.7461C128.125 36.0586 127.949 36.5078 127.676 37.0938L127.559 37.3867L127.5 37.7383L127.324 38.1484L127.09 38.793L126.973 38.9688V39.0273L126.211 40.5508L126.035 40.9609L125.742 41.7812L125.332 42.4844L125.098 42.8359L124.863 43.4219L124.629 43.7734L124.395 44.3594L124.16 44.7695L124.102 45.0039L123.809 45.5312L123.75 45.6484L123.574 45.8828L123.457 46.0586L123.223 46.3516L123.047 46.5859C122.656 47.2891 122.422 47.6797 122.344 47.7578L121.992 48.2852L121.641 48.6953L121.348 49.0469C121.348 49.0469 121.328 49.0664 121.289 49.1055C121.211 49.1836 121.172 49.2422 121.172 49.2812L121.055 49.3984V49.3398L120.762 49.6328C120.723 49.7109 120.586 49.8281 120.352 49.9844C119.688 50.6484 119.355 50.9805 119.355 50.9805L118.77 51.4492L118.535 51.5664H118.477L118.242 51.8008C118.242 51.8008 118.242 51.7812 118.242 51.7422L118.066 51.918C117.988 51.957 117.832 52.0352 117.598 52.1523C117.402 52.2695 117.266 52.3281 117.188 52.3281C116.953 52.4062 116.66 52.5234 116.309 52.6797ZM111.035 18.5781C111.348 18.1484 111.699 17.7773 112.09 17.4648H112.207L112.441 17.2891C112.48 17.2891 112.539 17.25 112.617 17.1719C112.969 16.9375 113.164 16.7422 113.203 16.5859H113.262L113.555 16.4102L113.789 16.1758H113.848L113.965 16.1172L115.137 15.4727C115.371 15.3164 115.508 15.2383 115.547 15.2383C115.82 15.0039 116.035 14.8672 116.191 14.8281C116.348 14.75 116.562 14.7109 116.836 14.7109L117.422 14.3594C117.539 14.3203 117.695 14.125 117.891 13.7734L118.008 13.6562V13.5977C118.047 13.5977 118.066 13.5781 118.066 13.5391H118.184L118.535 13.1875L118.711 13.0703L121.582 10.6094C121.66 10.4531 121.777 10.2969 121.934 10.1406C122.129 9.94531 122.305 9.82812 122.461 9.78906L122.637 9.73047L124.453 10.1406H124.512L124.629 10.2578L124.863 10.375C124.902 10.375 124.922 10.3555 124.922 10.3164L125.156 10.4922C125.156 10.4922 125.156 10.5312 125.156 10.6094C125.156 10.6875 125.156 10.8047 125.156 10.9609C125.234 11.5859 125.215 12.3867 125.098 13.3633L124.863 15.0625C124.707 15.6484 124.473 16.2539 124.16 16.8789C123.926 17.3477 123.75 17.6406 123.633 17.7578L123.574 17.9922C123.535 18.0312 123.535 18.0508 123.574 18.0508L123.457 18.168L123.398 18.2852L123.281 18.5781L123.223 18.6367L123.164 18.7539L122.871 19.1641C122.793 19.2812 122.734 19.3594 122.695 19.3984C122.656 19.4375 122.637 19.4766 122.637 19.5156C122.363 19.7891 122.168 20.043 122.051 20.2773C122.012 20.3945 121.914 20.5312 121.758 20.6875C121.523 20.9219 121.387 21.0781 121.348 21.1562C121.113 21.5078 120.879 21.8008 120.645 22.0352L120 22.6797L119.531 23.207L119.355 23.3242L119.062 23.6758C118.984 23.793 118.789 23.9883 118.477 24.2617L117.656 25.0234L117.422 25.2578L117.129 25.4922L116.25 26.3711L116.016 26.5469C115.859 26.6641 115.684 26.8008 115.488 26.957C115.332 27.1133 115.234 27.1914 115.195 27.1914L113.848 26.8984L113.613 26.6641H113.555L113.496 26.6055C113.262 26.3711 112.93 26.2734 112.5 26.3125C112.422 26.3516 112.363 26.3516 112.324 26.3125L112.09 26.0195L111.445 25.9609C111.367 25.7656 111.309 25.5117 111.27 25.1992C111.27 24.8477 111.27 24.5938 111.27 24.4375L111.211 23.793C111.289 23.6758 111.328 23.3633 111.328 22.8555C111.328 22.2695 111.309 21.7812 111.27 21.3906V21.0391L111.152 20.2773L111.328 19.5156V19.3398C111.328 19.1445 111.23 18.9688 111.035 18.8125V18.5781ZM113.496 51.332C113.535 51.3711 113.555 51.3711 113.555 51.332H113.496ZM132.188 11.2539C132.188 10.9023 132.188 10.668 132.188 10.5508C132.227 10.3945 132.246 10.2773 132.246 10.1992V10.1406C132.285 10.0625 132.559 9.96484 133.066 9.84766C133.613 9.69141 134.004 9.61328 134.238 9.61328L135.176 9.84766C135.254 9.88672 135.312 9.92578 135.352 9.96484C135.391 9.96484 135.43 9.98438 135.469 10.0234L136.699 10.668L137.109 10.8438C137.305 10.9219 137.695 11.1367 138.281 11.4883L138.75 11.7812L139.219 12.1914L139.863 12.543L140.273 12.7773L140.391 12.8945C141.094 13.2852 141.66 13.5586 142.09 13.7148L143.32 14.125L143.672 14.1836C143.906 14.2617 144.121 14.3008 144.316 14.3008C144.395 14.3008 144.453 14.3203 144.492 14.3594H144.609L144.902 14.418C144.98 14.3398 145.625 14.5547 146.836 15.0625C147.578 15.375 147.988 15.5703 148.066 15.6484L148.359 15.9414L148.77 16.1758L149.414 16.6445L149.531 16.7617C149.609 16.8398 149.766 16.918 150 16.9961L150.176 17.2891C150.176 17.5234 150.215 17.6992 150.293 17.8164L150.176 18.2852C150.176 18.7148 150.195 19.0469 150.234 19.2812C150.312 19.3984 150.293 19.5547 150.176 19.75L150.059 20.2773L150 20.7461C149.883 20.8633 149.863 21.0977 149.941 21.4492L149.883 21.6836L149.648 22.0938L149.531 22.4453L149.473 23.0312C149.473 23.5391 149.453 23.8125 149.414 23.8516L149.18 24.1445C149.18 24.1445 149.121 24.2031 149.004 24.3203H148.887L148.535 24.6719H148.477L147.129 24.5547L146.895 24.6133L146.016 24.4961C145.859 24.4961 145.742 24.457 145.664 24.3789L145.43 24.2617C144.961 24.2227 144.688 24.1641 144.609 24.0859H144.492C144.375 24.0859 144.219 24.0469 144.023 23.9688C143.867 23.8516 143.77 23.793 143.73 23.793C143.574 23.7539 143.32 23.6562 142.969 23.5C142.617 23.3438 142.344 23.207 142.148 23.0898C141.992 23.0117 141.895 22.9336 141.855 22.8555L139.336 21.4492C139.336 21.4492 139.316 21.4492 139.277 21.4492C139.277 21.4102 139.277 21.3906 139.277 21.3906C139.121 21.3125 139.004 21.2344 138.926 21.1562C138.809 21.0391 138.691 20.9414 138.574 20.8633C138.457 20.7852 138.359 20.707 138.281 20.6289C138.164 20.5898 138.047 20.5508 137.93 20.5117C137.852 20.4336 137.773 20.375 137.695 20.3359C137.578 20.2188 137.5 20.1602 137.461 20.1602L137.227 20.1016C137.227 20.1016 137.129 20.0234 136.934 19.8672L135.996 19.1641C135.488 18.7734 135.02 18.3438 134.59 17.875C134.395 17.7188 134.219 17.543 134.062 17.3477C134.062 17.3477 134.043 17.3477 134.004 17.3477C134.004 17.3086 134.004 17.2891 134.004 17.2891L133.652 16.8203C133.535 16.7422 133.359 16.5078 133.125 16.1172C132.891 15.6875 132.715 15.4141 132.598 15.2969L132.07 13.9492C131.992 13.793 131.953 13.5586 131.953 13.2461L132.188 11.2539Z" fill="#4A443D"/>
<path d="M175.863 55.9023C175.824 55.9023 175.648 55.8633 175.336 55.7852C174.75 55.5898 174.379 55.5117 174.223 55.5508C173.91 55.5898 173.695 55.6094 173.578 55.6094C173.461 55.6094 173.344 55.5703 173.227 55.4922C172.602 55.3359 172.016 54.75 171.469 53.7344C171.078 53.0703 170.766 52.2695 170.531 51.332C170.453 51.0195 170.297 50.5898 170.062 50.043C169.828 49.457 169.691 49.0859 169.652 48.9297C169.496 48.5391 169.398 48.1094 169.359 47.6406C169.32 47.4453 169.34 47.2695 169.418 47.1133L169.594 46.9961H170.238L170.824 47.0547C170.941 47.0547 171.117 47.0938 171.352 47.1719C171.469 47.25 171.625 47.4062 171.82 47.6406C171.938 47.6797 172.113 47.8164 172.348 48.0508L172.758 48.6367L173.051 49.0469C173.129 49.1641 173.207 49.2227 173.285 49.2227C173.363 49.2227 173.52 49.1445 173.754 48.9883C174.535 48.4023 175.062 47.9336 175.336 47.582C175.375 47.3477 175.473 47.1523 175.629 46.9961C175.707 46.8789 175.766 46.7617 175.805 46.6445C175.883 46.4883 175.961 46.3516 176.039 46.2344C176.039 46.1562 176.117 46 176.273 45.7656C176.508 45.5312 176.625 45.2773 176.625 45.0039C176.586 44.9648 176.449 44.9258 176.215 44.8867H175.277C174.379 44.8867 173.852 44.8672 173.695 44.8281C173.656 44.7891 173.539 44.7891 173.344 44.8281C173.227 44.8672 173.051 44.8867 172.816 44.8867C172.621 44.8477 172.387 44.8281 172.113 44.8281C171.879 44.8281 171.684 44.8477 171.527 44.8867C171.371 44.8867 171.273 44.8672 171.234 44.8281C171.156 44.7891 170.941 44.7695 170.59 44.7695C169.848 44.7695 169.398 44.7305 169.242 44.6523C169.164 44.5742 169.066 44.5352 168.949 44.5352C168.871 44.4961 168.793 44.4766 168.715 44.4766C168.676 44.4766 168.637 44.457 168.598 44.418H168.188L167.484 44.2422C167.445 44.2031 167.25 44.1445 166.898 44.0664C166.039 43.9102 165.492 43.7539 165.258 43.5977L164.789 43.3633L164.145 43.0117L164.027 42.8945V40.7852C164.027 40.5508 164.047 40.3359 164.086 40.1406C164.125 39.9062 164.145 39.7695 164.145 39.7305L164.203 39.3203V38.9102L164.379 38.793L164.848 38.6758C165.199 38.6758 165.414 38.6367 165.492 38.5586C165.492 38.4805 165.609 38.3828 165.844 38.2656C165.883 38.2656 165.922 38.2461 165.961 38.207C166 38.168 166.059 38.1484 166.137 38.1484C166.215 38.1484 166.312 38.0898 166.43 37.9727H166.957L167.25 37.9141C167.289 37.875 167.465 37.8359 167.777 37.7969C168.129 37.7188 168.441 37.6797 168.715 37.6797L169.301 37.6211C169.34 37.582 169.496 37.543 169.77 37.5039C170.043 37.4258 170.258 37.3867 170.414 37.3867C170.648 37.3867 170.844 37.3672 171 37.3281H171.41C171.996 37.3281 172.426 37.2695 172.699 37.1523C172.738 37.1133 173.07 37.0938 173.695 37.0938C174.32 37.0547 174.652 37.0156 174.691 36.9766V36.7422L174.633 35.8047L174.574 35.043L174.516 34.6914C174.516 34.418 174.594 34.2031 174.75 34.0469C174.789 34.0078 174.848 33.9688 174.926 33.9297C175.004 33.8516 175.043 33.793 175.043 33.7539C175.121 33.5977 175.16 33.4023 175.16 33.168C175.121 33.0898 175.043 33.0508 174.926 33.0508C174.848 33.0117 174.711 32.9922 174.516 32.9922C174.047 32.9922 173.695 32.9336 173.461 32.8164L173.109 32.6406C172.992 32.6406 172.914 32.6211 172.875 32.582C172.836 32.5039 172.816 32.4062 172.816 32.2891L172.641 31.0586L172.523 30.5898V30.4141C172.523 30.1797 172.602 29.9453 172.758 29.7109C172.836 29.6719 172.914 29.5742 172.992 29.418C172.992 29.3789 173.031 29.3398 173.109 29.3008C173.188 29.2227 173.246 29.1836 173.285 29.1836C173.48 29.1445 173.715 29.0859 173.988 29.0078C174.301 28.9297 174.535 28.8516 174.691 28.7734L175.277 28.6562H175.746C176.449 28.6562 176.996 28.7148 177.387 28.832C177.621 28.9102 177.895 29.0273 178.207 29.1836C178.559 29.3398 178.852 29.5156 179.086 29.7109C179.203 29.8281 179.32 29.9648 179.438 30.1211C179.555 30.2383 179.633 30.375 179.672 30.5312L179.789 30.8828C179.828 31.1172 179.848 31.6836 179.848 32.582C179.809 32.7383 179.789 33.0312 179.789 33.4609C179.789 33.8906 179.711 34.3203 179.555 34.75C179.438 35.1406 179.203 35.6484 178.852 36.2734L178.676 36.5078C178.559 36.6641 178.5 36.7617 178.5 36.8008C178.695 36.8398 179.066 36.8398 179.613 36.8008C179.809 36.7617 180.629 36.7422 182.074 36.7422C183.559 36.7422 184.398 36.7617 184.594 36.8008C184.75 36.8398 185.18 36.8594 185.883 36.8594C186.938 36.9375 187.719 37.0742 188.227 37.2695L189.633 37.7969C189.711 37.875 189.828 37.9531 189.984 38.0312L191.039 38.8516L191.098 39.2617C191.137 39.418 191.137 39.5352 191.098 39.6133C191.059 39.7305 191.059 39.8867 191.098 40.082C191.137 40.3945 191.137 40.6484 191.098 40.8438C191.098 40.8828 191.078 40.9414 191.039 41.0195C191 41.0977 190.961 41.1562 190.922 41.1953L190.863 41.6055L190.746 42.1914C190.668 42.4258 190.629 42.6602 190.629 42.8945C190.629 43.2461 190.551 43.5 190.395 43.6562C190.238 43.7734 190.121 43.832 190.043 43.832L189.75 43.9492C189.359 44.1055 189.066 44.1445 188.871 44.0664C188.715 44.0664 188.598 44.0859 188.52 44.125H188.051L187.406 44.1836C187.172 44.2617 186.918 44.3008 186.645 44.3008C186.566 44.3398 186.449 44.3789 186.293 44.418C186.137 44.418 186.02 44.4375 185.941 44.4766C185.863 44.4766 185.766 44.4961 185.648 44.5352C185.531 44.5352 185.395 44.5156 185.238 44.4766C184.926 44.4766 184.75 44.4961 184.711 44.5352C184.633 44.6133 184.32 44.6719 183.773 44.7109C183.266 44.7109 182.875 44.7109 182.602 44.7109C181.43 44.7109 180.746 44.7695 180.551 44.8867C180.512 44.8867 180.473 44.9648 180.434 45.1211C180.395 45.2383 180.375 45.4727 180.375 45.8242L180.258 47.2891C180.219 47.4062 180.18 47.5234 180.141 47.6406C180.102 47.7578 180.062 47.8555 180.023 47.9336L179.965 48.6953L179.848 49.2227L179.672 50.1016L179.145 52.0352C179.066 52.1133 178.988 52.25 178.91 52.4453C178.832 52.6406 178.773 52.7773 178.734 52.8555C178.344 53.5977 178.09 54.0664 177.973 54.2617C177.895 54.3398 177.836 54.418 177.797 54.4961C177.758 54.6133 177.738 54.6914 177.738 54.7305L177.387 55.082C177.191 55.2773 177.094 55.4141 177.094 55.4922C176.977 55.6094 176.82 55.707 176.625 55.7852C176.43 55.8633 176.234 55.9023 176.039 55.9023H175.863ZM163.969 10.4336C164.008 10.1992 164.027 9.67188 164.027 8.85156C164.027 8.57812 164.047 8.32422 164.086 8.08984C164.125 7.81641 164.145 7.66016 164.145 7.62109C164.184 7.34766 164.184 7.09375 164.145 6.85938C164.145 6.78125 164.164 6.72266 164.203 6.68359C164.359 6.60547 164.633 6.50781 165.023 6.39062C165.414 6.27344 165.863 6.19531 166.371 6.15625L166.84 6.09766C166.879 6.05859 166.938 6.03906 167.016 6.03906C167.133 6 167.211 5.96094 167.25 5.92188C167.523 5.92188 167.719 5.90234 167.836 5.86328L169.945 5.57031C170.453 5.57031 170.824 5.55078 171.059 5.51172C171.254 5.51172 171.391 5.49219 171.469 5.45312C171.586 5.41406 171.664 5.39453 171.703 5.39453H172.758C173.305 5.39453 173.812 5.375 174.281 5.33594C174.789 5.25781 175.141 5.19922 175.336 5.16016L175.395 5.04297C175.434 4.80859 175.453 4.47656 175.453 4.04688C175.492 3.57812 175.492 3.1875 175.453 2.875C175.453 2.5625 175.512 2.19141 175.629 1.76172C175.746 1.33203 175.883 1.09766 176.039 1.05859L176.215 1C176.371 1 176.527 1.03906 176.684 1.11719C176.879 1.15625 177.035 1.23438 177.152 1.35156C177.23 1.39062 177.387 1.52734 177.621 1.76172C177.816 1.91797 177.973 2.09375 178.09 2.28906C178.168 2.52344 178.266 2.99219 178.383 3.69531L178.5 4.57422C178.5 4.88672 178.559 5.04297 178.676 5.04297C178.715 5.16016 179.105 5.21875 179.848 5.21875C180.941 5.21875 182.074 5.27734 183.246 5.39453C183.324 5.39453 183.402 5.41406 183.48 5.45312C183.598 5.49219 183.734 5.51172 183.891 5.51172C184.359 5.58984 184.906 5.70703 185.531 5.86328C186.273 6.01953 186.84 6.23438 187.23 6.50781L187.816 6.80078C188.324 7.03516 188.598 7.21094 188.637 7.32812C188.715 7.71875 188.734 7.99219 188.695 8.14844C188.695 8.30469 188.715 8.44141 188.754 8.55859C188.793 8.71484 188.773 8.91016 188.695 9.14453L188.578 9.84766C188.578 10.1602 188.539 10.3555 188.461 10.4336C188.422 10.5508 188.402 10.7461 188.402 11.0195V11.4297C188.363 11.5078 188.246 11.625 188.051 11.7812C187.895 11.8984 187.758 11.9961 187.641 12.0742C187.523 12.1133 187.387 12.1328 187.23 12.1328H186.879C186.254 12.1328 185.883 12.1523 185.766 12.1914L185.121 12.25C185.004 12.2891 184.887 12.3281 184.77 12.3672C184.691 12.4062 184.613 12.4258 184.535 12.4258L183.598 12.4844C183.246 12.4844 182.992 12.5039 182.836 12.543C182.68 12.543 182.582 12.543 182.543 12.543C182.426 12.6211 182.094 12.6602 181.547 12.6602C181.234 12.6992 180.766 12.7188 180.141 12.7188C179.945 12.7578 179.477 12.7773 178.734 12.7773L177.562 12.8359C177.523 12.875 177.465 12.8945 177.387 12.8945C177.348 12.8555 177.309 12.8359 177.27 12.8359C177.113 12.7969 176.879 12.7969 176.566 12.8359C176.332 12.875 176.02 12.8945 175.629 12.8945L173.344 12.8359C173.305 12.7578 173.188 12.7578 172.992 12.8359C172.758 12.875 172.582 12.875 172.465 12.8359L172.172 12.7773C172.055 12.7773 171.84 12.8164 171.527 12.8945H171.234C171.156 12.8164 171.098 12.7773 171.059 12.7773H170.766C170.57 12.6992 170.336 12.6406 170.062 12.6016C169.789 12.5625 169.535 12.5625 169.301 12.6016C169.184 12.6406 169.066 12.6211 168.949 12.543C168.871 12.5039 168.695 12.4844 168.422 12.4844C168.188 12.4844 168.031 12.4648 167.953 12.4258C167.914 12.3867 167.738 12.3281 167.426 12.25C167.23 12.25 167.133 12.2305 167.133 12.1914C166.859 12.1914 166.645 12.1719 166.488 12.1328H165.961L165.727 11.8984C165.453 11.625 165.18 11.4688 164.906 11.4297L163.969 11.0781L163.91 10.9609L163.969 10.4336ZM170.355 18.8711C170.316 17.8945 170.395 16.9766 170.59 16.1172C170.707 15.7656 171.02 15.3359 171.527 14.8281L171.762 14.6523C171.801 14.5742 171.859 14.5156 171.938 14.4766C172.055 14.4375 172.172 14.418 172.289 14.418C172.484 14.418 172.66 14.3789 172.816 14.3008C173.598 14.1055 174.281 14.0078 174.867 14.0078L177.387 13.9492C178.09 13.9492 178.578 13.9688 178.852 14.0078C179.164 14.0078 179.398 14.0469 179.555 14.125L179.965 14.1836C180.355 14.3398 180.863 14.5742 181.488 14.8867C181.84 15.082 182.035 15.2383 182.074 15.3555C182.348 15.6289 182.504 16.1758 182.543 16.9961L182.602 17.5234C182.602 17.5625 182.582 18.2852 182.543 19.6914C182.504 21.1367 182.445 21.957 182.367 22.1523L182.309 22.6797C182.191 23.6172 181.996 24.3789 181.723 24.9648C181.566 25.3164 181.41 25.6094 181.254 25.8438L180.609 26.2539L180.141 26.6641C179.906 26.8203 179.77 26.9375 179.73 27.0156C179.652 27.0156 179.594 27.0352 179.555 27.0742L178.969 27.1914C178.578 27.1914 178.363 27.2109 178.324 27.25L178.09 27.3086C178.012 27.3086 177.934 27.3477 177.855 27.4258C177.777 27.4648 177.699 27.4844 177.621 27.4844C177.504 27.5625 177.348 27.6016 177.152 27.6016C176.918 27.6016 176.703 27.6406 176.508 27.7188C176.234 27.7969 175.922 27.8359 175.57 27.8359C175.492 27.875 175.375 27.9141 175.219 27.9531C175.102 27.9531 175.004 27.9727 174.926 28.0117C174.77 28.0508 174.633 28.0312 174.516 27.9531C174.438 27.9141 174.301 27.8945 174.105 27.8945C174.066 27.9336 174.008 27.9531 173.93 27.9531C173.773 27.9531 173.598 27.8555 173.402 27.6602C173.168 27.4258 172.953 27.3086 172.758 27.3086C172.523 27.3086 172.289 27.25 172.055 27.1328C171.898 27.0938 171.801 27.0352 171.762 26.957C171.723 26.8789 171.703 26.7422 171.703 26.5469C171.703 26.3906 171.664 26.2344 171.586 26.0781L171.527 25.9023L171.293 25.8438C171.137 25.8438 171.039 25.8047 171 25.7266C170.844 25.6094 170.766 25.1211 170.766 24.2617C170.727 24.1055 170.707 23.9492 170.707 23.793C170.707 23.5977 170.688 23.4609 170.648 23.3828L170.59 22.4453C170.59 22.0156 170.551 21.7227 170.473 21.5664C170.395 21.332 170.355 20.7461 170.355 19.8086V18.8711ZM174.223 22.3281H175.863C176.918 22.3281 177.484 22.3086 177.562 22.2695C178.031 22.1133 178.5 21.4688 178.969 20.3359C179.047 20.1797 179.086 20.0039 179.086 19.8086C179.086 19.6914 179.047 19.5742 178.969 19.457C178.891 19.3789 178.812 19.3398 178.734 19.3398C178.344 19.2617 177.992 19.2617 177.68 19.3398H177.211C176.898 19.3398 176.684 19.3594 176.566 19.3984L175.922 19.457L175.629 19.5156C175.59 19.5547 175.531 19.5742 175.453 19.5742C175.414 19.5742 175.375 19.5938 175.336 19.6328C175.258 19.6328 174.887 19.75 174.223 19.9844L174.105 20.1016V22.2695L174.223 22.3281Z" fill="#4A443D"/>
</svg>
