<svg width="104" height="32" viewBox="0 0 104 32" fill="none" xmlns="http://www.w3.org/2000/svg">
<path d="M17.1625 27.875C17.1208 27.8542 16.9125 27.8229 16.5375 27.7812C16.3083 27.7812 16.1313 27.7708 16.0063 27.75C15.8813 27.75 15.725 27.7083 15.5375 27.625C15.2875 27.5208 15.1104 27.3958 15.0063 27.25C14.8188 27.0208 14.6938 26.8125 14.6313 26.625L14.5375 26.3125C14.4958 26.2292 14.475 26.1562 14.475 26.0938C14.4542 26.0312 14.4125 25.9479 14.35 25.8438C14.3083 25.7396 14.2667 25.6458 14.225 25.5625L14.1313 25.2812C14.1313 25.1979 14.1104 25.1146 14.0688 25.0312C14.0271 24.9271 13.9854 24.8542 13.9438 24.8125C13.8396 24.6875 13.7875 24.5833 13.7875 24.5C13.7875 24.375 13.8292 24.3021 13.9125 24.2812C13.9542 24.2604 14.0792 24.25 14.2875 24.25H14.6625C14.7042 24.2708 14.7354 24.2708 14.7563 24.25C14.7979 24.2292 14.8292 24.2292 14.85 24.25L15.0375 24.2812C15.0792 24.3021 15.1521 24.3125 15.2563 24.3125C15.2979 24.3333 15.35 24.3438 15.4125 24.3438C15.4542 24.3646 15.5063 24.3542 15.5688 24.3125L15.7563 24.1875C15.7979 24.1458 15.8396 24.1146 15.8813 24.0938C15.9438 24.0729 15.9958 24.0417 16.0375 24C16.0583 23.9583 16.1104 23.9167 16.1938 23.875C16.2563 23.8542 16.3083 23.8125 16.35 23.75L16.4125 23.6875L16.475 23.5625L16.5375 23.4688C16.5583 23.4479 16.5896 23.4062 16.6313 23.3438C16.6313 23.2812 16.6417 23.2396 16.6625 23.2188L16.725 23.0938C16.725 23.0312 16.7979 22.9062 16.9438 22.7188L17.0063 22.5938L17.1 22.3438L17.35 21.5938C17.4542 21.2396 17.4958 21.0417 17.475 21L17.5063 20.875C17.5271 20.8542 17.5375 20.8229 17.5375 20.7812C17.5375 20.7396 17.5479 20.6979 17.5688 20.6562C17.5688 20.6354 17.5792 20.6146 17.6 20.5938C17.6208 20.5521 17.6313 20.5104 17.6313 20.4688L17.6938 20.25C17.7354 20.1458 17.7458 20.0208 17.725 19.875C17.725 19.7083 17.725 19.6146 17.725 19.5938C17.7458 19.5312 17.7563 19.4479 17.7563 19.3438C17.7771 19.2396 17.7771 19.1458 17.7563 19.0625C17.7771 19.0208 17.7875 18.9792 17.7875 18.9375C17.7875 18.875 17.7979 18.8229 17.8188 18.7812C17.8396 18.7396 17.8604 18.6354 17.8813 18.4688C17.9021 18.3021 17.9125 18.1771 17.9125 18.0938V18.0312L17.6 18.0625H16.975C16.7875 18.0625 16.6625 18.0521 16.6 18.0312H15.9438C15.7354 18.0312 15.4646 18.0104 15.1313 17.9688L14.8813 17.9375C14.7979 17.9375 14.6938 17.9271 14.5688 17.9062C14.4438 17.8646 14.3396 17.8438 14.2563 17.8438L14.0688 17.8125C14.0688 17.8542 13.9958 17.8542 13.85 17.8125C13.7667 17.8125 13.6729 17.8125 13.5688 17.8125C13.4854 17.7917 13.4125 17.7604 13.35 17.7188C13.2875 17.6979 13.0688 17.6667 12.6938 17.625C12.4854 17.6042 12.2771 17.5625 12.0688 17.5C12.0063 17.4583 11.8917 17.4375 11.725 17.4375C11.4542 17.3542 11.3083 17.3021 11.2875 17.2812C11.2667 17.2812 11.2563 17.2396 11.2563 17.1562L10.9438 16.25L11.0375 16.1875L11.1938 16.0312C11.3188 15.9062 11.4438 15.8021 11.5688 15.7188C11.6521 15.6979 11.7042 15.6562 11.725 15.5938C11.7458 15.5521 11.7771 15.5312 11.8188 15.5312C11.8396 15.5521 11.9021 15.5417 12.0063 15.5C12.0479 15.4583 12.0896 15.4271 12.1313 15.4062C12.1938 15.3854 12.2354 15.3646 12.2563 15.3438L12.6313 15.2188C12.8604 15.0729 13.0479 14.9792 13.1938 14.9375C13.2146 14.9167 13.2563 14.9062 13.3188 14.9062C13.3396 14.8854 13.3604 14.875 13.3813 14.875C13.4229 14.875 13.4646 14.8646 13.5063 14.8438C13.6104 14.8438 13.6833 14.8229 13.725 14.7812C13.7667 14.7604 13.8188 14.75 13.8813 14.75L14.1313 14.6562C14.2979 14.6562 14.4021 14.6354 14.4438 14.5938L14.6625 14.5625C14.6833 14.5417 14.7146 14.5312 14.7563 14.5312C14.7979 14.5312 14.8396 14.5208 14.8813 14.5L15.225 14.4062C15.2667 14.4062 15.2979 14.4062 15.3188 14.4062C15.3396 14.3854 15.3604 14.375 15.3813 14.375C15.4229 14.375 15.475 14.3646 15.5375 14.3438C15.6 14.3021 15.6417 14.2708 15.6625 14.25C15.6417 14.1667 15.6313 13.9375 15.6313 13.5625L15.6 13.3438L15.5688 12.9688C15.5063 12.6562 15.475 12.3021 15.475 11.9062V11.7812L15.3813 11.5938L15.3188 11.4062V11.2188C15.3188 11.0104 15.3396 10.8542 15.3813 10.75L15.4438 10.625C15.4646 10.5417 15.5063 10.4479 15.5688 10.3438C15.6521 10.2188 15.7146 10.1146 15.7563 10.0312C15.7979 9.96875 15.8396 9.92708 15.8813 9.90625C15.8813 9.84375 15.9958 9.64583 16.225 9.3125C16.2458 9.25 16.2667 9.19792 16.2875 9.15625C16.3292 9.09375 16.3604 9.05208 16.3813 9.03125L16.475 8.875C16.6417 8.64583 16.725 8.51042 16.725 8.46875C16.725 8.42708 16.6417 8.38542 16.475 8.34375C16.4125 8.32292 16.2979 8.3125 16.1313 8.3125C15.7146 8.3125 15.4646 8.30208 15.3813 8.28125C15.1938 8.28125 15.0792 8.26042 15.0375 8.21875C14.9958 8.17708 14.9333 8.15625 14.85 8.15625L14.6 8.0625L14.35 8C14.3292 7.97917 14.2979 7.96875 14.2563 7.96875C14.2354 7.94792 14.2146 7.92708 14.1938 7.90625C14.1729 7.88542 14.1521 7.84375 14.1313 7.78125C14.1104 7.71875 14.1 7.60417 14.1 7.4375C14.0792 7.375 14.0688 7.32292 14.0688 7.28125C14.0688 7.21875 14.0583 7.16667 14.0375 7.125C13.9958 7.04167 13.975 6.83333 13.975 6.5C13.975 6.39583 14.0063 6.3125 14.0688 6.25C14.1313 6.16667 14.3292 6.04167 14.6625 5.875C14.6833 5.85417 14.7042 5.83333 14.725 5.8125C14.7667 5.79167 14.7979 5.78125 14.8188 5.78125L15.0375 5.6875L15.2875 5.59375C15.3292 5.55208 15.3813 5.53125 15.4438 5.53125C15.5063 5.53125 15.6313 5.48958 15.8188 5.40625C16.1313 5.23958 16.4125 5.14583 16.6625 5.125L16.8188 5.09375L17.0375 5.0625C17.1208 5.04167 17.2354 5.03125 17.3813 5.03125C17.5688 5.03125 17.8188 5.0625 18.1313 5.125C18.4854 5.16667 18.7458 5.25 18.9125 5.375L19.1313 5.5L19.3813 5.59375C19.6729 5.76042 19.8604 5.91667 19.9438 6.0625C20.0479 6.3125 20.1313 6.66667 20.1938 7.125L20.2563 7.5625C20.2979 7.8125 20.3083 7.98958 20.2875 8.09375L20.225 8.90625V9.15625C20.225 9.38542 20.1938 9.58333 20.1313 9.75V9.9375L20.0688 10.0625C20.0688 10.125 20.0583 10.1771 20.0375 10.2188L19.9438 10.4375C19.9021 10.4792 19.8813 10.5312 19.8813 10.5938L19.6625 11.0625C19.6 11.1042 19.5479 11.1771 19.5063 11.2812L19.3188 11.625L19.1 11.9688L18.9438 12.2812C18.9021 12.3229 18.8708 12.3854 18.85 12.4688C18.85 12.8229 18.8708 13.0208 18.9125 13.0625C19.0583 13.1875 19.1938 13.3229 19.3188 13.4688L19.475 13.625L20.0375 13.5625C20.0792 13.5208 20.1625 13.5 20.2875 13.5C20.3917 13.5 20.5063 13.4688 20.6313 13.4062C20.6729 13.3854 20.8604 13.3646 21.1938 13.3438L22.6 13.1562C22.8083 13.1562 22.9958 13.125 23.1625 13.0625C23.4958 12.9375 23.7042 12.9167 23.7875 13C23.8083 13.0208 23.8604 13.0312 23.9438 13.0312C23.9854 13.0521 24.0479 13.0625 24.1313 13.0625C24.1521 13.0833 24.2146 13.0938 24.3188 13.0938L24.475 13.125C24.475 13.1667 24.5271 13.1875 24.6313 13.1875C24.6938 13.2083 24.7458 13.25 24.7875 13.3125C24.8292 13.3542 24.8813 13.375 24.9438 13.375L25.475 13.625L25.5375 13.6562C25.5375 13.6562 25.5479 13.6562 25.5688 13.6562C25.5896 13.6562 25.6 13.6562 25.6 13.6562C25.6208 13.6771 25.6521 13.6875 25.6938 13.6875C25.7146 13.6875 25.7354 13.7083 25.7563 13.75C25.7979 13.7917 25.8292 13.8333 25.85 13.875C25.9333 14.1042 25.975 14.2396 25.975 14.2812L26.0688 14.8125C26.0688 15.0417 26.0583 15.1979 26.0375 15.2812C26.0375 15.3646 26.0375 15.4271 26.0375 15.4688C25.975 15.6562 25.9542 15.8021 25.975 15.9062L26.0063 16.0938V16.1875C26.0063 16.3958 25.8917 16.6354 25.6625 16.9062L25.5375 17L25.3813 17.0938C25.3396 17.0938 25.2771 17.1146 25.1938 17.1562L25.0063 17.1875C24.9854 17.1667 24.9542 17.1667 24.9125 17.1875C24.8708 17.1875 24.85 17.1875 24.85 17.1875H24.725L24.475 17.25H24.1938C24.1521 17.2708 24.1 17.2812 24.0375 17.2812C23.9958 17.2604 23.9229 17.2604 23.8188 17.2812H23.35C23.1208 17.2812 22.9542 17.3021 22.85 17.3438C22.8083 17.3646 22.7354 17.375 22.6313 17.375C22.6104 17.3958 22.5792 17.4062 22.5375 17.4062C22.4958 17.4062 22.4646 17.4167 22.4438 17.4375L22.225 17.5C22.2042 17.5208 22.1729 17.5312 22.1313 17.5312C22.1104 17.5312 22.0896 17.5417 22.0688 17.5625C22.0479 17.5833 21.8708 17.5938 21.5375 17.5938H21.4125C21.2875 17.5938 21.2042 17.6042 21.1625 17.625L20.8813 17.6562H20.6938L20.5688 17.6875C20.5063 17.7083 20.4646 17.7396 20.4438 17.7812C20.5271 19.1771 20.5688 20.2604 20.5688 21.0312C20.5688 21.8438 20.5583 22.375 20.5375 22.625L20.4438 23.3438C20.4229 23.3854 20.3917 23.6146 20.35 24.0312C20.35 24.1562 20.3292 24.2396 20.2875 24.2812L20.225 24.5312L20.1 25.1562C19.9333 25.8646 19.7354 26.4583 19.5063 26.9375C19.4021 27.1042 19.2458 27.2812 19.0375 27.4688C18.85 27.6354 18.7146 27.7292 18.6313 27.75C18.5063 27.75 18.4021 27.7708 18.3188 27.8125L17.7875 27.9062H17.5375L17.1625 27.875ZM1.00625 10.75C0.985417 10.7083 1.01667 10.6667 1.1 10.625C1.18333 10.625 1.23542 10.6146 1.25625 10.5938C1.33958 10.5312 1.43333 10.4896 1.5375 10.4688C1.6625 10.4479 1.83958 10.4167 2.06875 10.375L2.6 10.2812C2.80833 10.2812 2.94375 10.2708 3.00625 10.25H3.38125C3.46458 10.25 3.55833 10.2396 3.6625 10.2188C3.76667 10.1979 3.86042 10.1875 3.94375 10.1875C4.19375 10.1458 4.43333 10.125 4.6625 10.125H5.06875L5.13125 10.0625L5.225 9.875C5.24583 9.8125 5.26667 9.76042 5.2875 9.71875C5.32917 9.65625 5.36042 9.61458 5.38125 9.59375L5.50625 9.40625C5.52708 9.38542 5.5375 9.35417 5.5375 9.3125C5.55833 9.27083 5.58958 9.22917 5.63125 9.1875C5.73542 8.875 5.7875 8.71875 5.7875 8.71875L5.85 8.625C5.9125 8.52083 5.94375 8.44792 5.94375 8.40625L6.06875 8.15625L6.25625 7.90625C6.27708 7.86458 6.32917 7.80208 6.4125 7.71875L6.475 7.5625C6.49583 7.47917 6.5375 7.39583 6.6 7.3125C6.68333 7.20833 6.74583 7.14583 6.7875 7.125L6.88125 7C6.86042 6.97917 6.88125 6.91667 6.94375 6.8125C7.00625 6.79167 7.05833 6.72917 7.1 6.625C7.18333 6.54167 7.225 6.5 7.225 6.5L7.38125 6.46875C7.46458 6.46875 7.54792 6.5 7.63125 6.5625C7.67292 6.58333 7.74583 6.625 7.85 6.6875C7.975 6.75 8.04792 6.8125 8.06875 6.875C8.11042 6.9375 8.14167 7.01042 8.1625 7.09375C8.20417 7.55208 8.225 7.86458 8.225 8.03125C8.225 8.36458 8.20417 8.6875 8.1625 9C8.1625 9.10417 8.11042 9.36458 8.00625 9.78125C7.98542 9.84375 7.975 9.91667 7.975 10C7.95417 10.0417 7.94375 10.0833 7.94375 10.125C7.96458 10.1458 8.00625 10.1562 8.06875 10.1562L8.25625 10.2188L8.6 10.25C8.64167 10.2708 8.67292 10.2812 8.69375 10.2812C8.73542 10.2812 8.76667 10.2917 8.7875 10.3125L8.9125 10.3438C8.9125 10.3438 9.08958 10.3958 9.44375 10.5L9.69375 10.5938C9.96458 10.7188 10.1104 10.8229 10.1313 10.9062C10.1729 10.9479 10.1938 11 10.1938 11.0625C10.2354 11.1042 10.2458 11.1458 10.225 11.1875V11.3125L10.35 11.4062C10.4333 11.4479 10.475 11.4792 10.475 11.5C10.5167 11.5625 10.5479 11.6458 10.5688 11.75C10.6104 11.8542 10.6313 11.9271 10.6313 11.9688L10.6625 12.0938L10.7563 12.5L10.8188 12.7812L10.7875 12.8125C10.7458 12.8333 10.7042 12.9271 10.6625 13.0938C10.6625 13.3438 10.6417 13.5312 10.6 13.6562C10.5792 13.6979 10.5688 13.7604 10.5688 13.8438C10.5688 13.8854 10.5479 13.9792 10.5063 14.125C10.4854 14.25 10.475 14.3646 10.475 14.4688C10.4542 14.4896 10.4438 14.5208 10.4438 14.5625C10.4438 14.6042 10.4333 14.6458 10.4125 14.6875C10.4125 14.6875 10.3813 14.7812 10.3188 14.9688C10.2979 15.0104 10.2771 15.0729 10.2563 15.1562C10.2563 15.2188 10.2354 15.3021 10.1938 15.4062C9.98542 16.1146 9.85 16.5938 9.7875 16.8438L9.69375 17.0938L9.50625 17.625L9.4125 17.8125L9.38125 18.0312C9.33958 18.1771 9.27708 18.3542 9.19375 18.5625C9.11042 18.75 9.07917 18.8542 9.1 18.875L9.35 19.0625L9.63125 19.4062L9.88125 19.625L10.35 20.2188L10.475 20.4062L10.6313 20.6875L10.8188 20.9688L10.975 21.2188C11.0792 21.3646 11.1313 21.4792 11.1313 21.5625C11.1521 21.7083 11.1938 21.8229 11.2563 21.9062C11.2563 21.9062 11.2979 22.0521 11.3813 22.3438C11.4021 22.3646 11.4125 22.3958 11.4125 22.4375C11.4125 22.4792 11.4229 22.5104 11.4438 22.5312C11.4438 22.5521 11.4438 22.5938 11.4438 22.6562C11.4646 22.7188 11.475 22.8125 11.475 22.9375C11.475 23.0417 11.4854 23.1354 11.5063 23.2188C11.5271 23.2812 11.5375 23.3333 11.5375 23.375C11.6 23.5625 11.6313 23.75 11.6313 23.9375L11.6 24.0938V24.25C11.5792 24.2708 11.5583 24.3021 11.5375 24.3438C11.5167 24.3646 11.4958 24.3958 11.475 24.4375C11.3917 24.625 11.2979 24.7396 11.1938 24.7812C11.1104 24.7812 11.0167 24.7292 10.9125 24.625L10.6938 24.5L10.5688 24.4375C10.5063 24.3958 10.4333 24.3854 10.35 24.4062L10.1313 24.375H9.85C9.76667 24.375 9.68333 24.375 9.6 24.375C9.5375 24.375 9.49583 24.3646 9.475 24.3438C9.45417 24.3438 9.42292 24.3333 9.38125 24.3125C9.36042 24.2917 9.33958 24.2812 9.31875 24.2812L9.1625 24.2188C9.1625 24.1771 9.13125 24.1562 9.06875 24.1562C8.86042 24.0104 8.64167 23.8125 8.4125 23.5625C8.35 23.4792 8.225 23.3438 8.0375 23.1562C7.89167 23.0104 7.81875 22.9375 7.81875 22.9375C7.75625 22.875 7.68333 22.8021 7.6 22.7188C7.5375 22.6354 7.49583 22.6042 7.475 22.625C7.475 22.625 7.39167 22.7604 7.225 23.0312L7.00625 23.3125C6.98542 23.3542 6.95417 23.4062 6.9125 23.4688C6.89167 23.5104 6.87083 23.5521 6.85 23.5938C6.82917 23.6562 6.7875 23.7188 6.725 23.7812C6.6625 23.8438 6.63125 23.8958 6.63125 23.9375C6.54792 24.1042 6.38125 24.3125 6.13125 24.5625C5.83958 24.9167 5.70417 25.0833 5.725 25.0625C5.55833 25.2292 5.37083 25.375 5.1625 25.5L5.00625 25.5938L4.7875 25.75L4.6625 25.7812C4.64167 25.7604 4.56875 25.75 4.44375 25.75H4.2875C4.14167 25.75 4.0375 25.7396 3.975 25.7188L3.81875 25.625L3.6625 25.5938C3.62083 25.6146 3.54792 25.625 3.44375 25.625C3.23542 25.6042 3.1 25.5833 3.0375 25.5625C2.975 25.5 2.94375 25.4688 2.94375 25.4688C2.92292 25.4479 2.89167 25.4167 2.85 25.375C2.82917 25.3125 2.81875 25.2604 2.81875 25.2188C2.81875 25.1354 2.80833 25.0625 2.7875 25L2.725 24.75C2.725 24.6458 2.69375 24.5521 2.63125 24.4688L2.5375 24.1875L2.50625 24.0312C2.46458 23.9896 2.44375 23.9375 2.44375 23.875C2.44375 23.6875 2.42292 23.5729 2.38125 23.5312C2.33958 23.5104 2.31875 23.4688 2.31875 23.4062C2.29792 23.3438 2.32917 23.2812 2.4125 23.2188C2.475 23.1771 2.6 23.0625 2.7875 22.875C2.975 22.6667 3.11042 22.5104 3.19375 22.4062L3.38125 22.1562C3.42292 22.1146 3.44375 22.0625 3.44375 22L3.63125 21.8438C3.71458 21.7604 3.77708 21.6562 3.81875 21.5312L3.9125 21.3438C3.975 21.3229 4.02708 21.2604 4.06875 21.1562L4.225 21C4.225 21 4.27708 20.9479 4.38125 20.8438C4.42292 20.6979 4.49583 20.625 4.6 20.625C4.64167 20.625 4.67292 20.6042 4.69375 20.5625C4.73542 20.4792 4.77708 20.4271 4.81875 20.4062C4.92292 20.3021 4.975 20.1979 4.975 20.0938C4.975 20.0729 4.93333 20.0208 4.85 19.9375C4.74583 19.8542 4.63125 19.7604 4.50625 19.6562C4.38125 19.5312 4.2875 19.4271 4.225 19.3438C4.225 19.3229 4.18333 19.2708 4.1 19.1875C4.1 19.1875 4.0375 19.0938 3.9125 18.9062C3.89167 18.8646 3.86042 18.8333 3.81875 18.8125C3.79792 18.7708 3.7875 18.7396 3.7875 18.7188C3.725 18.6562 3.6625 18.4896 3.6 18.2188C3.55833 18.0521 3.51667 17.9062 3.475 17.7812C3.43333 17.6562 3.40208 17.5312 3.38125 17.4062V17.0625L3.31875 16.8125C3.29792 16.7708 3.2875 16.7292 3.2875 16.6875C3.2875 16.6458 3.27708 16.6146 3.25625 16.5938L3.225 16.3125C3.225 16.1667 3.19375 16.0312 3.13125 15.9062C3.04792 15.7188 2.99583 15.5729 2.975 15.4688C2.975 15.3646 2.975 15.2812 2.975 15.2188L2.94375 14.875L3.0375 14.5312C3.18333 14.0521 3.26667 13.75 3.2875 13.625L3.31875 13.4688C3.31875 13.4271 3.21458 13.375 3.00625 13.3125C2.86042 13.25 2.70417 13.1771 2.5375 13.0938C2.4125 13.0312 2.29792 12.9792 2.19375 12.9375C2.08958 12.875 2.00625 12.8229 1.94375 12.7812C1.88125 12.7188 1.83958 12.6875 1.81875 12.6875C1.71458 12.6667 1.55833 12.5312 1.35 12.2812C1.30833 12.1562 1.25625 11.9583 1.19375 11.6875C1.17292 11.6458 1.1625 11.6042 1.1625 11.5625C1.1625 11.5208 1.15208 11.4896 1.13125 11.4688C1.11042 11.4271 1.07917 11.2604 1.0375 10.9688L1.00625 10.75ZM5.1625 16.25C5.1625 16.2917 5.27708 16.3646 5.50625 16.4688C5.52708 16.5312 5.65208 16.6146 5.88125 16.7188C5.94375 16.7604 6.13125 16.8646 6.44375 17.0312C6.48542 17.0521 6.54792 17.0833 6.63125 17.125C6.71458 17.1458 6.76667 17.1458 6.7875 17.125L7.0375 16.6562C7.05833 16.5104 7.08958 16.3854 7.13125 16.2812C7.19375 16.1771 7.24583 16.125 7.2875 16.125L7.50625 15.5938C7.71458 15.1771 7.82917 14.9167 7.85 14.8125C8.05833 14.5 8.19375 14.2812 8.25625 14.1562V14L7.81875 13.9688C7.75625 13.9271 7.69375 13.9062 7.63125 13.9062C7.58958 13.8854 7.55833 13.875 7.5375 13.875L7.38125 13.8438L6.85 13.9062C6.62083 13.9062 6.48542 13.8958 6.44375 13.875H6.225C6.14167 13.875 6.06875 13.9271 6.00625 14.0312L5.6625 14.7812C5.55833 15.0312 5.46458 15.2396 5.38125 15.4062C5.31875 15.5521 5.26667 15.6771 5.225 15.7812C5.1625 16.0312 5.14167 16.1875 5.1625 16.25Z" fill="#4A443D"/>
<path d="M47.8625 28.9375C47.8 28.9375 47.7375 28.8854 47.675 28.7812L47.4875 28.5312C47.4875 28.5312 47.425 28.4688 47.3 28.3438L47.2687 28.2812L47.1437 28.3438C47.1229 28.3854 47.0812 28.4062 47.0187 28.4062C46.9562 28.4062 46.9042 28.3854 46.8625 28.3438L46.8 28.25L46.7062 28.2812C46.6854 28.3021 46.6229 28.3125 46.5187 28.3125C46.4354 28.3333 46.3729 28.3333 46.3312 28.3125L46.3 28.25C46.2583 28.2083 46.2375 27.8854 46.2375 27.2812C46.2167 27.1562 46.2062 27.0312 46.2062 26.9062C46.2062 26.7604 46.1958 26.6354 46.175 26.5312C46.175 26.2604 46.1646 26.0729 46.1437 25.9688C46.1437 25.5729 46.1229 25.3333 46.0812 25.25C46.0604 25.1667 46.05 24.9896 46.05 24.7188C46.05 24.3646 46.0396 24.125 46.0187 24C46.0187 23.7292 46.0292 23.5104 46.05 23.3438V22.9688C46.0292 22.6771 46.0083 22.3021 45.9875 21.8438C45.9875 21.3646 45.9979 21 46.0187 20.75C46.0396 20.7083 46.05 20.3021 46.05 19.5312L46.0812 17.8438V17.4062C46.0812 17.2812 46.0708 17.2083 46.05 17.1875C46.0292 17.1667 45.9771 17.1562 45.8937 17.1562L45.55 17.125L45.1437 17.0938C44.9979 17.0729 44.8937 17.0729 44.8312 17.0938H44.3937C44.2896 17.0729 44.1646 17.0625 44.0187 17.0625C43.9354 17.0625 43.8729 17.0521 43.8312 17.0312L43.55 17C43.4458 17 43.3312 16.9792 43.2062 16.9375C43.1021 16.875 43.0396 16.8333 43.0187 16.8125L42.8937 16.7812C42.8729 16.7604 42.8208 16.75 42.7375 16.75C42.6333 16.75 42.3625 16.6771 41.925 16.5312C41.8833 16.4896 41.7896 16.4479 41.6437 16.4062C41.4562 16.3646 41.3 16.2812 41.175 16.1562C41.1542 16.1354 41.1333 16.0417 41.1125 15.875C41.0917 15.7083 41.0917 15.5521 41.1125 15.4062V15.1875C41.0917 15.1667 41.0812 15.0312 41.0812 14.7812V14.2812C41.0812 14.1979 41.1021 14.1354 41.1437 14.0938C41.2479 13.9688 41.4354 13.875 41.7062 13.8125L41.9562 13.7188C41.9979 13.7188 42.0292 13.7083 42.05 13.6875C42.1542 13.625 42.3 13.5625 42.4875 13.5C42.6958 13.4375 42.8729 13.3958 43.0187 13.375L43.5187 13.2812C43.5812 13.2188 43.5812 13.1146 43.5187 12.9688C43.5187 12.9271 43.4979 12.875 43.4562 12.8125C43.4354 12.75 43.425 12.6979 43.425 12.6562L43.3312 12.3438C43.2896 12.0104 43.2479 11.7917 43.2062 11.6875L43.175 11.5L43.1437 11.125C43.1229 11.0625 43.1125 11.0104 43.1125 10.9688C43.1125 10.9062 43.1021 10.8542 43.0812 10.8125L43.0187 9.5L42.9875 9.0625C42.9667 8.97917 42.9562 8.89583 42.9562 8.8125C42.9562 8.70833 42.9458 8.63542 42.925 8.59375V8.53125C42.925 8.42708 42.9667 8.33333 43.05 8.25L43.1125 8.1875H43.2687C43.4146 8.1875 43.6125 8.20833 43.8625 8.25C44.1125 8.29167 44.2479 8.34375 44.2687 8.40625C44.3104 8.46875 44.3417 8.625 44.3625 8.875C44.3625 8.97917 44.3729 9.08333 44.3937 9.1875C44.4354 9.29167 44.4875 9.42708 44.55 9.59375C44.6333 9.73958 44.6958 9.85417 44.7375 9.9375L44.925 10.4062C45.0708 10.7396 45.175 11.0625 45.2375 11.375L45.3625 11.75L45.55 12.3438C45.6542 12.7396 45.7271 12.9479 45.7687 12.9688C45.8104 12.9896 45.8625 13 45.925 13C45.9875 13 46.05 12.9896 46.1125 12.9688C46.1542 12.9479 46.1854 12.875 46.2062 12.75C46.2271 12.6042 46.2375 12.3646 46.2375 12.0312L46.2687 11.2188C46.2687 11.1979 46.2687 11.1562 46.2687 11.0938C46.2896 11.0312 46.3 10.9167 46.3 10.75C46.3208 10.5833 46.3312 10.3438 46.3312 10.0312C46.3521 9.96875 46.3625 9.82292 46.3625 9.59375C46.3833 9.51042 46.3937 9.4375 46.3937 9.375C46.3937 9.29167 46.4042 9.21875 46.425 9.15625V8.84375C46.4458 8.80208 46.4562 8.75 46.4562 8.6875C46.4771 8.625 46.4979 8.57292 46.5187 8.53125L46.55 8.25C46.5708 8.16667 46.5708 8.11458 46.55 8.09375C46.5083 8.07292 46.4562 8.0625 46.3937 8.0625C46.3312 8.0625 46.2687 8.07292 46.2062 8.09375L46.0187 8.125C45.9771 8.125 45.8729 8.10417 45.7062 8.0625C45.6229 8.04167 45.4979 8.03125 45.3312 8.03125C45.1229 8.01042 44.9667 7.98958 44.8625 7.96875C44.7792 7.92708 44.6854 7.86458 44.5812 7.78125C44.5187 7.71875 44.4458 7.67708 44.3625 7.65625C44.3 7.61458 44.1854 7.57292 44.0187 7.53125C44.0187 7.53125 43.925 7.5 43.7375 7.4375C43.6125 7.33333 43.5396 7.27083 43.5187 7.25C43.5187 7.22917 43.5083 7.20833 43.4875 7.1875C43.4875 7.16667 43.4979 7.13542 43.5187 7.09375V7C43.5187 6.85417 43.5083 6.73958 43.4875 6.65625C43.425 6.61458 43.425 6.51042 43.4875 6.34375C43.4875 6.15625 43.4667 6.05208 43.425 6.03125V5.46875C43.425 5.21875 43.4146 5.0625 43.3937 5C43.3937 4.91667 43.3937 4.875 43.3937 4.875C43.3729 4.875 43.3625 4.86458 43.3625 4.84375C43.3625 4.80208 43.3521 4.77083 43.3312 4.75C43.3312 4.6875 43.3625 4.625 43.425 4.5625C43.4875 4.5 43.55 4.46875 43.6125 4.46875L43.7687 4.375C43.8312 4.35417 43.9354 4.34375 44.0812 4.34375C44.2062 4.34375 44.2896 4.33333 44.3312 4.3125C44.3729 4.27083 44.4354 4.25 44.5187 4.25L44.6437 4.1875C44.6646 4.1875 44.7792 4.17708 44.9875 4.15625C45.1958 4.13542 45.3208 4.13542 45.3625 4.15625C45.425 4.15625 45.4667 4.14583 45.4875 4.125C45.5917 4.08333 45.7062 4.0625 45.8312 4.0625C45.9562 4.04167 46.1333 4.02083 46.3625 4L46.9875 3.96875C47.0292 3.94792 47.1854 3.9375 47.4562 3.9375C47.5812 3.91667 47.9146 3.90625 48.4562 3.90625C48.9354 3.92708 49.2271 3.94792 49.3312 3.96875C49.8521 4.07292 50.2271 4.19792 50.4562 4.34375C50.4771 4.36458 50.5083 4.39583 50.55 4.4375C50.6125 4.45833 50.6854 4.47917 50.7687 4.5C50.9562 4.60417 51.0708 4.70833 51.1125 4.8125C51.1542 4.91667 51.175 5.0625 51.175 5.25C51.1958 5.5 51.1958 5.72917 51.175 5.9375C51.175 6.08333 51.1542 6.19792 51.1125 6.28125C51.0708 6.36458 51.05 6.48958 51.05 6.65625C51.05 6.82292 51.0292 6.92708 50.9875 6.96875C50.8 7.15625 50.6854 7.26042 50.6437 7.28125L50.4562 7.34375L50.2687 7.375L50.0812 7.4375L49.8937 7.46875C49.7479 7.46875 49.6125 7.5 49.4875 7.5625C49.2583 7.66667 49.0396 7.71875 48.8312 7.71875C48.6646 7.71875 48.5396 7.72917 48.4562 7.75C48.2896 7.79167 48.1854 7.83333 48.1437 7.875L48.1125 7.9375C48.1125 8.02083 48.1333 8.125 48.175 8.25C48.1958 8.33333 48.2167 8.70833 48.2375 9.375L48.3 11.3125L48.3625 11.3438C48.4875 11.3438 48.6125 11.2812 48.7375 11.1562C48.8208 11.0729 48.8729 10.9896 48.8937 10.9062C48.9146 10.8438 48.9667 10.7812 49.05 10.7188C49.1333 10.6354 49.2271 10.5521 49.3312 10.4688L49.5812 10.25C49.7687 10.0625 49.8937 9.95833 49.9562 9.9375L50.3 9.59375L50.3937 9.4375C50.4354 9.35417 50.4771 9.3125 50.5187 9.3125C50.6021 9.27083 50.6854 9.1875 50.7687 9.0625C50.7687 9.04167 50.8 9 50.8625 8.9375L51.175 8.5625C51.2375 8.45833 51.3417 8.40625 51.4875 8.40625C51.5708 8.40625 51.6854 8.44792 51.8312 8.53125C52.0604 8.63542 52.1958 8.71875 52.2375 8.78125C52.2792 8.84375 52.3104 8.97917 52.3312 9.1875C52.3937 9.45833 52.4042 9.79167 52.3625 10.1875L52.3 10.75C52.2792 10.875 52.1854 11.0729 52.0187 11.3438C51.8729 11.6146 51.7271 11.8438 51.5812 12.0312C51.4979 12.0729 51.4354 12.1458 51.3937 12.25C51.4354 12.2292 51.2583 12.3958 50.8625 12.75L50.7687 12.9062V12.9375C50.7687 13.0208 50.8833 13.0729 51.1125 13.0938C51.3833 13.0938 51.6854 13.1354 52.0187 13.2188C52.2062 13.2604 52.4042 13.3125 52.6125 13.375C52.8208 13.4375 52.9979 13.5104 53.1437 13.5938L53.4875 13.8125C53.7583 13.9375 53.9354 14.0521 54.0187 14.1562C54.1021 14.2604 54.1333 14.4062 54.1125 14.5938C54.1125 14.6979 54.1229 14.7917 54.1437 14.875L54.175 15.0625C54.1542 15.0625 54.1437 15.1875 54.1437 15.4375C54.1437 15.6458 54.1229 15.7917 54.0812 15.875C54.0396 16.0208 54.0396 16.1562 54.0812 16.2812V16.375C54.0812 16.4792 54.05 16.5625 53.9875 16.625C53.8833 16.7292 53.8312 16.7812 53.8312 16.7812C53.7896 16.8021 53.7479 16.8333 53.7062 16.875C53.6854 16.8958 53.6646 16.9062 53.6437 16.9062L53.55 16.9375C53.5083 16.9375 53.4875 16.9375 53.4875 16.9375H53.3625C53.0917 16.9375 52.9458 16.9479 52.925 16.9688C52.8833 17.0104 52.6854 17.0312 52.3312 17.0312C52.0812 17.0312 51.8312 17.0521 51.5812 17.0938L51.3 17.125H51.1125C51.0083 17.1458 50.8833 17.1562 50.7375 17.1562C50.5917 17.1562 50.4771 17.1458 50.3937 17.125C50.3312 17.125 50.2896 17.1354 50.2687 17.1562C50.1646 17.1979 50.0083 17.1979 49.8 17.1562H49.4875C49.4042 17.1771 49.3417 17.1771 49.3 17.1562H49.1437L48.8312 17.1875H48.7375C48.6542 17.1875 48.6021 17.2083 48.5812 17.25C48.5604 17.2708 48.55 17.3229 48.55 17.4062V18.7188C48.5708 19.0104 48.5812 19.5833 48.5812 20.4375L48.6125 22.8438V25.0938C48.6333 25.3646 48.6229 25.7708 48.5812 26.3125C48.5604 26.8542 48.5292 27.2812 48.4875 27.5938C48.4667 27.6146 48.4562 27.6771 48.4562 27.7812C48.4562 27.9479 48.4042 28.1354 48.3 28.3438C48.1125 28.7396 47.9667 28.9375 47.8625 28.9375ZM31.5188 5.5C31.4979 5.35417 31.5083 5.26042 31.55 5.21875C31.675 5.09375 31.8417 5.02083 32.05 5C32.0917 4.95833 32.1438 4.9375 32.2063 4.9375C32.2479 4.91667 32.3208 4.90625 32.425 4.90625L32.7375 4.8125L33.0812 4.75C33.2062 4.6875 33.3208 4.65625 33.425 4.65625C33.8417 4.55208 34.1542 4.5 34.3625 4.5C34.6542 4.45833 34.8417 4.41667 34.925 4.375C34.9667 4.35417 34.9875 4.3125 34.9875 4.25C34.9875 3.91667 34.9771 3.6875 34.9562 3.5625C34.9562 3.41667 34.9562 3.32292 34.9562 3.28125C34.9354 3.26042 34.925 3.13542 34.925 2.90625C34.925 2.67708 34.9146 2.55208 34.8937 2.53125C34.8729 2.44792 34.8729 2.39583 34.8937 2.375C34.9146 2.35417 34.9667 2.34375 35.05 2.34375C35.2167 2.36458 35.4146 2.4375 35.6437 2.5625C35.9979 2.77083 36.2479 2.95833 36.3937 3.125C36.5604 3.3125 36.6854 3.59375 36.7687 3.96875L36.8312 4.21875C36.8521 4.28125 37.0187 4.32292 37.3312 4.34375L37.9562 4.4375C38.2479 4.52083 38.4146 4.59375 38.4562 4.65625C38.4979 4.65625 38.5396 4.67708 38.5812 4.71875C38.6229 4.76042 38.675 4.80208 38.7375 4.84375C38.8625 4.90625 38.9562 4.95833 39.0187 5C39.0812 5.02083 39.1229 5.07292 39.1437 5.15625C39.1854 5.21875 39.2062 5.3125 39.2062 5.4375C39.2062 5.54167 39.2167 5.61458 39.2375 5.65625C39.2583 5.71875 39.2687 5.79167 39.2687 5.875L39.2375 6.1875C39.2375 6.375 39.2062 6.5 39.1437 6.5625C39.1229 6.64583 39.1229 6.75 39.1437 6.875C39.1437 7 39.1333 7.09375 39.1125 7.15625C39.0917 7.19792 39.0187 7.27083 38.8937 7.375C38.7687 7.47917 38.6646 7.54167 38.5812 7.5625C38.4979 7.60417 38.4146 7.625 38.3312 7.625C38.3104 7.60417 38.2896 7.60417 38.2687 7.625C38.2479 7.625 38.2271 7.625 38.2062 7.625C38.1229 7.66667 38.05 7.6875 37.9875 7.6875C37.7792 7.72917 37.6646 7.76042 37.6437 7.78125H37.55L37.3937 7.84375C37.3521 7.88542 37.2896 7.90625 37.2062 7.90625C37.1021 7.90625 36.9042 7.94792 36.6125 8.03125H36.4875L36.3625 8.09375L36.2375 8.125C36.1542 8.125 36.1021 8.13542 36.0812 8.15625L35.8625 8.21875C35.8 8.21875 35.7271 8.23958 35.6437 8.28125C35.6021 8.30208 35.5083 8.3125 35.3625 8.3125H35.1437L34.9562 8.375L34.8 8.40625C34.6333 8.44792 34.4875 8.46875 34.3625 8.46875L34.0812 8.5C34.0187 8.52083 33.8833 8.53125 33.675 8.53125C33.4667 8.53125 33.3312 8.52083 33.2687 8.5C33.1854 8.45833 33.1021 8.4375 33.0187 8.4375C32.9146 8.4375 32.8313 8.42708 32.7688 8.40625C32.7063 8.38542 32.6542 8.34375 32.6125 8.28125C32.4667 8.13542 32.3417 8.0625 32.2375 8.0625L32.0188 8.03125C31.8313 7.96875 31.7375 7.9375 31.7375 7.9375L31.6125 7.90625L31.5813 7.84375V7.25C31.5604 7 31.55 6.69792 31.55 6.34375V5.75C31.55 5.64583 31.5396 5.5625 31.5188 5.5ZM32.3625 23.125C32.3625 23.0417 32.3729 22.9896 32.3938 22.9688C32.3938 22.9271 32.4042 22.8333 32.425 22.6875C32.4458 22.5417 32.4563 22.3333 32.4563 22.0625V21.8125C32.4771 21.7708 32.4875 21.5521 32.4875 21.1562L32.5188 20.4688C32.5188 20.0521 32.5292 19.6771 32.55 19.3438C32.55 18.9271 32.55 18.6458 32.55 18.5C32.5708 18.3542 32.6229 18.2292 32.7063 18.125L32.925 17.875C33.05 17.75 33.1437 17.6875 33.2062 17.6875C33.2687 17.6875 33.3521 17.6562 33.4562 17.5938C33.5396 17.5729 33.6021 17.5521 33.6437 17.5312C33.7062 17.4896 33.7479 17.4583 33.7687 17.4375C34.1854 17.3542 34.4042 17.3125 34.425 17.3125C34.4458 17.2917 34.4771 17.2812 34.5187 17.2812C34.5604 17.2812 34.5917 17.2708 34.6125 17.25C34.6542 17.2292 34.7062 17.2188 34.7687 17.2188C34.8312 17.2188 34.8937 17.2083 34.9562 17.1875L35.175 17.1562H35.3625C35.8417 17.1562 36.1437 17.1667 36.2687 17.1875C37.0187 17.2708 37.6437 17.4688 38.1437 17.7812C38.3104 17.8646 38.4354 17.9583 38.5187 18.0625C38.6021 18.1458 38.675 18.2812 38.7375 18.4688C38.8 18.6562 38.8417 18.8646 38.8625 19.0938C38.9042 19.3229 38.925 19.5417 38.925 19.75L38.9562 20.0312C38.9771 20.0521 38.9875 20.3958 38.9875 21.0625C38.9875 21.7917 38.9771 22.2396 38.9562 22.4062C38.9562 22.8021 38.9354 23.1979 38.8937 23.5938C38.8729 23.9896 38.8521 24.2917 38.8312 24.5C38.8104 24.5208 38.8 24.5521 38.8 24.5938C38.8 24.6354 38.7896 24.6667 38.7687 24.6875C38.7687 24.7083 38.7271 24.8438 38.6437 25.0938C38.5604 25.2604 38.4667 25.3854 38.3625 25.4688C38.1333 25.6562 37.8729 25.7812 37.5812 25.8438C37.4771 25.8438 37.4146 25.8542 37.3937 25.875L37.3 25.9062C37.2375 25.9062 37.1646 25.9271 37.0812 25.9688L36.8312 26.0312C36.6021 26.0729 36.4667 26.1042 36.425 26.125L36.2687 26.25L35.7375 26.4062L35.5812 26.4688C35.5396 26.5104 35.4771 26.5312 35.3937 26.5312L35.2375 26.5625C35.1958 26.6042 35.1542 26.625 35.1125 26.625L34.9562 26.6875C34.7896 26.7292 34.6229 26.75 34.4562 26.75C34.2062 26.75 34.0812 26.7604 34.0812 26.7812C33.9562 26.8229 33.8625 26.7812 33.8 26.6562C33.7583 26.5729 33.6854 26.4896 33.5812 26.4062C33.5187 26.3646 33.4354 26.3438 33.3312 26.3438C33.2271 26.3438 33.1542 26.3333 33.1125 26.3125C33.0292 26.2708 32.9563 26.25 32.8938 26.25C32.7688 26.25 32.6958 26.2188 32.675 26.1562C32.6542 26.0938 32.6333 25.8958 32.6125 25.5625L32.5813 24.9375C32.5396 24.6875 32.5188 24.3958 32.5188 24.0625V24L32.4563 23.75C32.4354 23.7083 32.425 23.6667 32.425 23.625C32.425 23.5625 32.4146 23.5104 32.3938 23.4688C32.3938 23.2812 32.3833 23.1667 32.3625 23.125ZM32.55 14.5625C32.5708 14.3958 32.5917 14.3021 32.6125 14.2812C32.6333 14.2812 32.6438 14.2708 32.6438 14.25C32.6646 14.2292 32.6854 14.2188 32.7063 14.2188L32.8313 14.125C32.9146 14.0833 32.9771 14.0417 33.0187 14L33.4562 13.75C33.7687 13.6458 33.9354 13.5833 33.9562 13.5625C33.9979 13.5625 34.05 13.5521 34.1125 13.5312C34.175 13.5104 34.2583 13.4896 34.3625 13.4688L34.6437 13.375L35.2062 13.2188L35.55 13.1562L35.9562 13.0938C36.0187 13.0729 36.0917 13.0625 36.175 13.0625C36.1958 13.0417 36.2271 13.0312 36.2687 13.0312C36.3312 13.0312 36.3833 13.0208 36.425 13L36.8 12.9688C36.8208 12.9479 36.8833 12.9375 36.9875 12.9375C37.0917 12.9375 37.1646 12.9271 37.2062 12.9062C37.3312 12.8854 37.4771 12.8854 37.6437 12.9062C37.7687 12.9479 37.9458 13.0312 38.175 13.1562C38.3 13.2396 38.3729 13.3021 38.3937 13.3438C38.4146 13.3646 38.425 13.4271 38.425 13.5312C38.425 13.5521 38.4354 13.5833 38.4562 13.625C38.4771 13.6667 38.4979 13.6979 38.5187 13.7188C38.5396 13.8229 38.5396 13.9062 38.5187 13.9688C38.4771 14.0104 38.4562 14.0521 38.4562 14.0938C38.4979 14.1354 38.5187 14.1979 38.5187 14.2812L38.4562 14.5312V14.7188C38.4979 14.7604 38.5187 14.8125 38.5187 14.875C38.3729 15.0208 38.2792 15.1042 38.2375 15.125L38.05 15.2188C38.0083 15.2604 37.9458 15.2812 37.8625 15.2812C37.8417 15.3021 37.8104 15.3125 37.7687 15.3125C37.7271 15.3125 37.6958 15.3229 37.675 15.3438C37.5292 15.4271 37.4146 15.4688 37.3312 15.4688C37.2062 15.4688 36.9979 15.5312 36.7062 15.6562C36.5812 15.7396 36.4771 15.7812 36.3937 15.7812L36.2375 15.8438L36.05 15.9688L35.8312 16.0625C35.7479 16.0625 35.6646 16.0729 35.5812 16.0938C35.5187 16.1146 35.4771 16.1458 35.4562 16.1875C35.4354 16.1875 35.3833 16.2188 35.3 16.2812C35.2167 16.3229 35.1021 16.3646 34.9562 16.4062C34.8312 16.4062 34.7479 16.4271 34.7062 16.4688L34.0812 16.625C34.0187 16.6667 33.8729 16.6667 33.6437 16.625C33.6229 16.6042 33.5812 16.5938 33.5187 16.5938C33.4771 16.5729 33.4458 16.5521 33.425 16.5312C33.3417 16.4688 33.2062 16.4271 33.0187 16.4062C32.9771 16.3854 32.925 16.375 32.8625 16.375C32.8208 16.375 32.7896 16.3646 32.7688 16.3438C32.7271 16.3229 32.6958 16.2708 32.675 16.1875C32.6542 16.1042 32.6438 15.9688 32.6438 15.7812L32.6125 15.3438C32.5917 15.2812 32.5708 15.1979 32.55 15.0938C32.55 14.9896 32.55 14.9062 32.55 14.8438V14.5625ZM32.5813 10.4062C32.5604 10.3438 32.5604 10.2604 32.5813 10.1562C32.6021 10.0729 32.6125 9.97917 32.6125 9.875C32.6125 9.79167 32.6229 9.73958 32.6438 9.71875C32.7063 9.67708 32.7688 9.67708 32.8313 9.71875L32.8625 9.75L33.0187 9.625C33.1021 9.52083 33.175 9.46875 33.2375 9.46875C33.2583 9.44792 33.2792 9.4375 33.3 9.4375C33.3208 9.4375 33.3312 9.42708 33.3312 9.40625L33.4562 9.375C33.6854 9.33333 33.8208 9.30208 33.8625 9.28125C33.9042 9.26042 33.9771 9.23958 34.0812 9.21875C34.1854 9.17708 34.2792 9.15625 34.3625 9.15625L34.5812 9.125L35.1125 9.0625L35.5187 9.03125C35.6229 9.03125 35.7167 9.02083 35.8 9C36.5917 9 37.0708 9.02083 37.2375 9.0625C37.5708 9.16667 37.7896 9.25 37.8937 9.3125L38.1125 9.40625L38.2062 9.46875C38.2687 9.48958 38.3104 9.55208 38.3312 9.65625V9.8125C38.3312 9.875 38.3417 9.92708 38.3625 9.96875C38.425 10.1354 38.425 10.25 38.3625 10.3125V10.4375L38.3937 10.625C38.3729 10.7083 38.3521 10.7604 38.3312 10.7812L38.2375 10.875C38.2167 10.8958 38.2167 10.9375 38.2375 11C38.2375 11.0417 38.2583 11.0625 38.3 11.0625C38.3208 11.0833 38.3312 11.1042 38.3312 11.125C38.3312 11.1458 38.3208 11.1667 38.3 11.1875C38.2583 11.2292 38.2375 11.2708 38.2375 11.3125C38.1958 11.3542 38.1646 11.375 38.1437 11.375C38.0812 11.4167 38.0083 11.4479 37.925 11.4688C37.8625 11.4688 37.8104 11.4583 37.7687 11.4375L37.6125 11.4688L37.3625 11.5312C37.3 11.5312 37.2479 11.5417 37.2062 11.5625C37.1854 11.5625 37.1646 11.5625 37.1437 11.5625C37.1229 11.5833 37.0708 11.5938 36.9875 11.5938C36.7792 11.6354 36.5604 11.6979 36.3312 11.7812C36.2687 11.8229 36.1125 11.875 35.8625 11.9375L35.7062 11.9688C35.6854 11.9896 35.6542 12.0104 35.6125 12.0312C35.5708 12.0521 35.5396 12.0625 35.5187 12.0625L35.0187 12.1875C34.9354 12.2292 34.8625 12.25 34.8 12.25C34.675 12.2917 34.6125 12.3125 34.6125 12.3125L34.425 12.3438L34.2375 12.4062C34.1958 12.4271 34.1333 12.4375 34.05 12.4375C33.925 12.4375 33.8104 12.4062 33.7062 12.3438C33.6854 12.3229 33.5917 12.2708 33.425 12.1875C33.3625 12.1667 33.2792 12.1562 33.175 12.1562C33.0292 12.1562 32.8938 12.1354 32.7688 12.0938C32.7271 12.0521 32.7063 11.9792 32.7063 11.875L32.675 11.6562C32.6542 11.6354 32.6438 11.5 32.6438 11.25C32.6438 11 32.6333 10.8542 32.6125 10.8125V10.5938C32.6125 10.5104 32.6021 10.4479 32.5813 10.4062ZM34.4562 20.5625C34.4562 20.7083 34.4667 20.7917 34.4875 20.8125V21.5938L34.5187 22.3125C34.5604 22.3542 34.675 22.3646 34.8625 22.3438C34.9042 22.3229 34.9667 22.3125 35.05 22.3125C35.1333 22.3125 35.2062 22.3021 35.2687 22.2812L35.6437 22.25C35.6854 22.2292 35.7271 22.2188 35.7687 22.2188C35.8312 22.2188 35.8833 22.2083 35.925 22.1875L36.2375 22.1562C36.5708 22.1146 36.8 22.1042 36.925 22.125C37.0708 22.1458 37.1542 22.1354 37.175 22.0938C37.175 22.0729 37.175 22.0312 37.175 21.9688C37.1958 21.9062 37.2062 21.7917 37.2062 21.625L37.2375 20.9062L37.3 20.3125C37.3 20.0417 37.2687 19.8854 37.2062 19.8438C37.1646 19.8021 36.9667 19.7812 36.6125 19.7812C36.3208 19.7812 36.1542 19.7917 36.1125 19.8125C36.0083 19.8125 35.925 19.8021 35.8625 19.7812C35.7792 19.7604 35.675 19.7604 35.55 19.7812C35.5292 19.8021 35.4562 19.8333 35.3312 19.875C35.1854 19.8958 35.0812 19.9167 35.0187 19.9375C34.9562 19.9583 34.9042 20 34.8625 20.0625C34.8208 20.1042 34.7375 20.1562 34.6125 20.2188C34.5292 20.2604 34.4771 20.3021 34.4562 20.3438C34.4562 20.3854 34.4562 20.4583 34.4562 20.5625Z" fill="#4A443D"/>
<path d="M63.0312 28.5625C63.0104 28.5625 62.9792 28.5417 62.9375 28.5C62.9375 28.4375 62.8854 28.3542 62.7812 28.25C62.6979 28.1667 62.5208 28.0833 62.25 28C61.9792 27.9167 61.7708 27.8646 61.625 27.8438H61.5625C61.5833 27.8229 61.5938 27.7812 61.5938 27.7188V26.9062C61.5938 26.7812 61.5938 26.6458 61.5938 26.5C61.6146 26.3333 61.6146 26.2188 61.5938 26.1562L61.625 25.8125C61.6667 25.6667 61.6562 25.5417 61.5938 25.4375C61.5729 25.3958 61.5729 25.3646 61.5938 25.3438C61.6354 25.1771 61.6562 25.0521 61.6562 24.9688V24.9375C61.6562 24.9375 61.6354 24.9375 61.5938 24.9375L61.5625 24.8438L61.625 24.4375L61.9375 24.1875C61.9792 24.1458 62.0208 24.1042 62.0625 24.0625C62.125 24.0208 62.1771 24 62.2188 24C62.2188 23.9792 62.2396 23.9688 62.2812 23.9688C62.3021 23.9688 62.3021 23.9583 62.2812 23.9375C62.2812 23.9167 62.4167 23.8542 62.6875 23.75L62.8438 23.625L63.125 23.4062C63.1458 23.3854 63.1562 23.375 63.1562 23.375L63.25 23.3125L63.5 23.0312L63.5312 23C63.5729 22.9792 63.6354 22.9271 63.7188 22.8438L63.75 22.8125C63.8125 22.75 63.9167 22.6875 64.0625 22.625C64.2083 22.5417 64.3021 22.4479 64.3438 22.3438L64.4688 22.1562L65.125 21.4688V21.4375C65.2083 21.3542 65.3021 21.2396 65.4062 21.0938C65.5104 20.9271 65.5833 20.8021 65.625 20.7188C65.625 20.6979 65.6458 20.6667 65.6875 20.625C65.6875 20.625 65.7292 20.5833 65.8125 20.5L66.0312 20.125C66.0938 20.1042 66.1458 20.0521 66.1875 19.9688C66.1875 19.9688 66.2396 19.9167 66.3438 19.8125C66.4271 19.75 66.4896 19.6667 66.5312 19.5625C66.7188 19.1875 66.8958 18.9167 67.0625 18.75L67.2188 18.5938V18.5625L67.2812 18.5C67.3646 18.3333 67.4167 18.1979 67.4375 18.0938C67.4583 17.9896 67.4375 17.9062 67.375 17.8438C67.3125 17.7812 67.2188 17.75 67.0938 17.75C66.9688 17.7292 66.8229 17.7188 66.6562 17.7188H66.3125C66.2708 17.6771 66.1875 17.6354 66.0625 17.5938L65.9375 17.4688C65.7708 17.3021 65.6042 17.2188 65.4375 17.2188C65.125 17.2188 65.0104 16.8646 65.0938 16.1562V15.1562C65.0729 15.0521 65.0521 14.9792 65.0312 14.9375C65.0312 14.875 65.0417 14.8438 65.0625 14.8438C65.0833 14.8229 65.125 14.8021 65.1875 14.7812C65.4167 14.6354 65.5208 14.5625 65.5 14.5625C65.5417 14.5625 65.6042 14.5417 65.6875 14.5L65.7812 14.4688C65.8021 14.4688 65.8333 14.4583 65.875 14.4375C65.9375 14.4167 66.0208 14.3958 66.125 14.375L66.5938 14.2188C66.7604 14.1562 66.8542 14.1146 66.875 14.0938H66.9062C66.9688 14.0938 67.0417 14.0729 67.125 14.0312L67.6562 13.9062L67.7812 13.875H67.8125C67.9583 13.875 68.0729 13.8646 68.1562 13.8438C68.2604 13.8438 68.375 13.8125 68.5 13.75C68.5833 13.7083 68.6771 13.6771 68.7812 13.6562C68.8854 13.6354 68.9583 13.625 69 13.625L69.9688 13.5312C70.0312 13.5104 70.1771 13.5 70.4062 13.5L70.9062 13.4688C71.1146 13.4688 71.25 13.4583 71.3125 13.4375C71.5208 13.4792 71.6354 13.5104 71.6562 13.5312H71.8125C71.8542 13.5521 71.9271 13.5625 72.0312 13.5625L72.625 13.6562L72.7188 13.6875L72.7812 13.7188L72.9062 13.75C72.9688 13.75 73.0417 13.7812 73.125 13.8438L74.0938 14.0938L74.25 14.1875L74.4375 14.25L74.5 14.3125L74.75 14.4375C74.7917 14.4792 74.8125 14.5417 74.8125 14.625C74.8542 14.6875 74.8958 14.7812 74.9375 14.9062C74.9792 15.0312 74.9896 15.125 74.9688 15.1875C74.9896 15.2292 75 15.2812 75 15.3438L75.0938 15.8125C75.1354 15.9375 75.1458 16.1667 75.125 16.5L75.1875 17.4688V17.5625C75.1875 17.7917 75.1667 18.0625 75.125 18.375C75.1042 18.6875 75.0833 18.9167 75.0625 19.0625V19.2812C75.0417 19.3438 75.0312 19.4375 75.0312 19.5625L74.9062 19.9062V19.9375L74.875 20.1562V20.2812C74.8542 20.3021 74.8438 20.3333 74.8438 20.375L74.8125 20.5312C74.8125 20.5729 74.8021 20.6042 74.7812 20.625V20.8125C74.7604 20.8333 74.75 20.8646 74.75 20.9062L74.6875 21.1875L74.6562 21.4375C74.5521 21.6042 74.4479 21.9688 74.3438 22.5312L74.2188 23.1562C74.2188 23.1979 74.2083 23.2292 74.1875 23.25C74.125 23.3958 74.0729 23.5521 74.0312 23.7188C74.0312 23.7604 74.0208 23.7917 74 23.8125L73.9688 24L73.9375 24.125V24.1875L73.9062 24.2188C73.9062 24.2604 73.8958 24.3125 73.875 24.375C73.8542 24.4167 73.8438 24.4688 73.8438 24.5312L73.75 24.7812L73.7188 24.9062L73.6562 25.125L73.5 25.5C73.4167 25.75 73.3438 25.9583 73.2812 26.125C73.2604 26.2083 73.2188 26.2812 73.1562 26.3438L73.0312 26.5938L72.8125 26.8438L72.6562 26.9688L71.75 27.2188H71.5312C71.4688 27.1979 71.3958 27.1667 71.3125 27.125C71.2292 27.0625 71.1562 26.9896 71.0938 26.9062L70.625 26.7188L70.5 26.6875H70.4375C70.1875 26.5625 70 26.4375 69.875 26.3125L69.8438 26.2812H69.875L69.75 26.125L69.6562 25.9688C69.6562 25.9479 69.6458 25.9375 69.625 25.9375C69.625 25.9167 69.625 25.8958 69.625 25.875L69.4688 25.5312L69.3125 25.0312L69.2812 24.8125L69.25 24.7188L69.1875 24.4688C69.1458 24.3438 69.125 24.1562 69.125 23.9062C69.1042 23.7812 69.0938 23.6354 69.0938 23.4688C69.1146 23.2812 69.1146 23.1354 69.0938 23.0312L69.0625 22.75V22.7188L68.9688 22.5312V22.4688C68.9688 22.3646 69.0312 22.3125 69.1562 22.3125C69.3646 22.3125 69.5729 22.4583 69.7812 22.75C69.8438 22.7708 69.9062 22.8333 69.9688 22.9375C70.1354 23.25 70.3021 23.4062 70.4688 23.4062C70.6146 23.4062 70.7604 23.3021 70.9062 23.0938C70.9688 23.0104 71.0312 22.9167 71.0938 22.8125C71.1771 22.6875 71.2396 22.5625 71.2812 22.4375L71.3125 22.3438C71.3125 22.3646 71.3229 22.3542 71.3438 22.3125L71.375 22.2188C71.5 21.9896 71.5729 21.8125 71.5938 21.6875L71.6562 21.5L71.75 21.3125C71.75 21.2708 71.7604 21.25 71.7812 21.25C71.7812 21.1667 71.8021 21.0625 71.8438 20.9375L71.9062 20.6875L72.0312 20.25L72.0625 20.125L72.2188 19.625L72.2812 19.0938C72.3438 18.8854 72.3854 18.7292 72.4062 18.625L72.4375 18.5V18.4375L72.4688 18.3438L72.5 18.0938C72.5208 18.0521 72.5312 17.9896 72.5312 17.9062C72.5312 17.8229 72.4896 17.7396 72.4062 17.6562L72.2812 17.5L71.2188 17.4688L70.7812 17.5C70.6771 17.5 70.5938 17.5104 70.5312 17.5312H70.3438C70.1562 17.5312 70.0312 17.5521 69.9688 17.5938C69.9062 17.6146 69.8542 17.6875 69.8125 17.8125V17.8438C69.7917 17.8646 69.7708 17.9062 69.75 17.9688C69.75 18.0104 69.7396 18.0417 69.7188 18.0625C69.6771 18.1875 69.6562 18.2917 69.6562 18.375C69.6354 18.4167 69.625 18.4688 69.625 18.5312C69.625 18.5729 69.6146 18.6146 69.5938 18.6562L69.5625 18.7812C69.5417 18.9062 69.5 19.0625 69.4375 19.25C69.4375 19.3542 69.4167 19.4479 69.375 19.5312C69.3333 19.6979 69.2396 19.9375 69.0938 20.25L69.0312 20.4062L69 20.5938L68.9062 20.8125L68.7812 21.1562L68.7188 21.25V21.2812L68.3125 22.0938L68.2188 22.3125L68.0625 22.75L67.8438 23.125L67.7188 23.3125L67.5938 23.625L67.4688 23.8125L67.3438 24.125L67.2188 24.3438L67.1875 24.4688L67.0312 24.75L67 24.8125L66.9062 24.9375L66.8438 25.0312L66.7188 25.1875L66.625 25.3125C66.4167 25.6875 66.2917 25.8958 66.25 25.9375L66.0625 26.2188L65.875 26.4375L65.7188 26.625C65.7188 26.625 65.7083 26.6354 65.6875 26.6562C65.6458 26.6979 65.625 26.7292 65.625 26.75L65.5625 26.8125V26.7812L65.4062 26.9375C65.3854 26.9792 65.3125 27.0417 65.1875 27.125C64.8333 27.4792 64.6562 27.6562 64.6562 27.6562L64.3438 27.9062L64.2188 27.9688H64.1875L64.0625 28.0938C64.0625 28.0938 64.0625 28.0833 64.0625 28.0625L63.9688 28.1562C63.9271 28.1771 63.8438 28.2188 63.7188 28.2812C63.6146 28.3438 63.5417 28.375 63.5 28.375C63.375 28.4167 63.2188 28.4792 63.0312 28.5625ZM60.2188 10.375C60.3854 10.1458 60.5729 9.94792 60.7812 9.78125H60.8438L60.9688 9.6875C60.9896 9.6875 61.0208 9.66667 61.0625 9.625C61.25 9.5 61.3542 9.39583 61.375 9.3125H61.4062L61.5625 9.21875L61.6875 9.09375H61.7188L61.7812 9.0625L62.4062 8.71875C62.5312 8.63542 62.6042 8.59375 62.625 8.59375C62.7708 8.46875 62.8854 8.39583 62.9688 8.375C63.0521 8.33333 63.1667 8.3125 63.3125 8.3125L63.625 8.125C63.6875 8.10417 63.7708 8 63.875 7.8125L63.9375 7.75V7.71875C63.9583 7.71875 63.9688 7.70833 63.9688 7.6875H64.0312L64.2188 7.5L64.3125 7.4375L65.8438 6.125C65.8854 6.04167 65.9479 5.95833 66.0312 5.875C66.1354 5.77083 66.2292 5.70833 66.3125 5.6875L66.4062 5.65625L67.375 5.875H67.4062L67.4688 5.9375L67.5938 6C67.6146 6 67.625 5.98958 67.625 5.96875L67.75 6.0625C67.75 6.0625 67.75 6.08333 67.75 6.125C67.75 6.16667 67.75 6.22917 67.75 6.3125C67.7917 6.64583 67.7812 7.07292 67.7188 7.59375L67.5938 8.5C67.5104 8.8125 67.3854 9.13542 67.2188 9.46875C67.0938 9.71875 67 9.875 66.9375 9.9375L66.9062 10.0625C66.8854 10.0833 66.8854 10.0938 66.9062 10.0938L66.8438 10.1562L66.8125 10.2188L66.75 10.375L66.7188 10.4062L66.6875 10.4688L66.5312 10.6875C66.4896 10.75 66.4583 10.7917 66.4375 10.8125C66.4167 10.8333 66.4062 10.8542 66.4062 10.875C66.2604 11.0208 66.1562 11.1562 66.0938 11.2812C66.0729 11.3438 66.0208 11.4167 65.9375 11.5C65.8125 11.625 65.7396 11.7083 65.7188 11.75C65.5938 11.9375 65.4688 12.0938 65.3438 12.2188L65 12.5625L64.75 12.8438L64.6562 12.9062L64.5 13.0938C64.4583 13.1562 64.3542 13.2604 64.1875 13.4062L63.75 13.8125L63.625 13.9375L63.4688 14.0625L63 14.5312L62.875 14.625C62.7917 14.6875 62.6979 14.7604 62.5938 14.8438C62.5104 14.9271 62.4583 14.9688 62.4375 14.9688L61.7188 14.8125L61.5938 14.6875H61.5625L61.5312 14.6562C61.4062 14.5312 61.2292 14.4792 61 14.5C60.9583 14.5208 60.9271 14.5208 60.9062 14.5L60.7812 14.3438L60.4375 14.3125C60.3958 14.2083 60.3646 14.0729 60.3438 13.9062C60.3438 13.7188 60.3438 13.5833 60.3438 13.5L60.3125 13.1562C60.3542 13.0938 60.375 12.9271 60.375 12.6562C60.375 12.3438 60.3646 12.0833 60.3438 11.875V11.6875L60.2812 11.2812L60.375 10.875V10.7812C60.375 10.6771 60.3229 10.5833 60.2188 10.5V10.375ZM61.5312 27.8438C61.5521 27.8646 61.5625 27.8646 61.5625 27.8438H61.5312ZM71.5 6.46875C71.5 6.28125 71.5 6.15625 71.5 6.09375C71.5208 6.01042 71.5312 5.94792 71.5312 5.90625V5.875C71.5521 5.83333 71.6979 5.78125 71.9688 5.71875C72.2604 5.63542 72.4688 5.59375 72.5938 5.59375L73.0938 5.71875C73.1354 5.73958 73.1667 5.76042 73.1875 5.78125C73.2083 5.78125 73.2292 5.79167 73.25 5.8125L73.9062 6.15625L74.125 6.25C74.2292 6.29167 74.4375 6.40625 74.75 6.59375L75 6.75L75.25 6.96875L75.5938 7.15625L75.8125 7.28125L75.875 7.34375C76.25 7.55208 76.5521 7.69792 76.7812 7.78125L77.4375 8L77.625 8.03125C77.75 8.07292 77.8646 8.09375 77.9688 8.09375C78.0104 8.09375 78.0417 8.10417 78.0625 8.125H78.125L78.2812 8.15625C78.3229 8.11458 78.6667 8.22917 79.3125 8.5C79.7083 8.66667 79.9271 8.77083 79.9688 8.8125L80.125 8.96875L80.3438 9.09375L80.6875 9.34375L80.75 9.40625C80.7917 9.44792 80.875 9.48958 81 9.53125L81.0938 9.6875C81.0938 9.8125 81.1146 9.90625 81.1562 9.96875L81.0938 10.2188C81.0938 10.4479 81.1042 10.625 81.125 10.75C81.1667 10.8125 81.1562 10.8958 81.0938 11L81.0312 11.2812L81 11.5312C80.9375 11.5938 80.9271 11.7188 80.9688 11.9062L80.9375 12.0312L80.8125 12.25L80.75 12.4375L80.7188 12.75C80.7188 13.0208 80.7083 13.1667 80.6875 13.1875L80.5625 13.3438C80.5625 13.3438 80.5312 13.375 80.4688 13.4375H80.4062L80.2188 13.625H80.1875L79.4688 13.5625L79.3438 13.5938L78.875 13.5312C78.7917 13.5312 78.7292 13.5104 78.6875 13.4688L78.5625 13.4062C78.3125 13.3854 78.1667 13.3542 78.125 13.3125H78.0625C78 13.3125 77.9167 13.2917 77.8125 13.25C77.7292 13.1875 77.6771 13.1562 77.6562 13.1562C77.5729 13.1354 77.4375 13.0833 77.25 13C77.0625 12.9167 76.9167 12.8438 76.8125 12.7812C76.7292 12.7396 76.6771 12.6979 76.6562 12.6562L75.3125 11.9062C75.3125 11.9062 75.3021 11.9062 75.2812 11.9062C75.2812 11.8854 75.2812 11.875 75.2812 11.875C75.1979 11.8333 75.1354 11.7917 75.0938 11.75C75.0312 11.6875 74.9688 11.6354 74.9062 11.5938C74.8438 11.5521 74.7917 11.5104 74.75 11.4688C74.6875 11.4479 74.625 11.4271 74.5625 11.4062C74.5208 11.3646 74.4792 11.3333 74.4375 11.3125C74.375 11.25 74.3333 11.2188 74.3125 11.2188L74.1875 11.1875C74.1875 11.1875 74.1354 11.1458 74.0312 11.0625L73.5312 10.6875C73.2604 10.4792 73.0104 10.25 72.7812 10C72.6771 9.91667 72.5833 9.82292 72.5 9.71875C72.5 9.71875 72.4896 9.71875 72.4688 9.71875C72.4688 9.69792 72.4688 9.6875 72.4688 9.6875L72.2812 9.4375C72.2188 9.39583 72.125 9.27083 72 9.0625C71.875 8.83333 71.7812 8.6875 71.7188 8.625L71.4375 7.90625C71.3958 7.82292 71.375 7.69792 71.375 7.53125L71.5 6.46875Z" fill="#4A443D"/>
<path d="M94.7938 30.2812C94.7729 30.2812 94.6792 30.2604 94.5125 30.2188C94.2 30.1146 94.0021 30.0729 93.9188 30.0938C93.7521 30.1146 93.6375 30.125 93.575 30.125C93.5125 30.125 93.45 30.1042 93.3875 30.0625C93.0542 29.9792 92.7417 29.6667 92.45 29.125C92.2417 28.7708 92.075 28.3438 91.95 27.8438C91.9083 27.6771 91.825 27.4479 91.7 27.1562C91.575 26.8438 91.5021 26.6458 91.4813 26.5625C91.3979 26.3542 91.3458 26.125 91.325 25.875C91.3042 25.7708 91.3146 25.6771 91.3563 25.5938L91.45 25.5312H91.7938L92.1063 25.5625C92.1688 25.5625 92.2625 25.5833 92.3875 25.625C92.45 25.6667 92.5333 25.75 92.6375 25.875C92.7 25.8958 92.7938 25.9688 92.9188 26.0938L93.1375 26.4062L93.2938 26.625C93.3354 26.6875 93.3771 26.7188 93.4188 26.7188C93.4604 26.7188 93.5438 26.6771 93.6688 26.5938C94.0854 26.2812 94.3667 26.0312 94.5125 25.8438C94.5333 25.7188 94.5854 25.6146 94.6688 25.5312C94.7104 25.4688 94.7417 25.4062 94.7625 25.3438C94.8042 25.2604 94.8458 25.1875 94.8875 25.125C94.8875 25.0833 94.9292 25 95.0125 24.875C95.1375 24.75 95.2 24.6146 95.2 24.4688C95.1792 24.4479 95.1063 24.4271 94.9813 24.4062H94.4813C94.0021 24.4062 93.7208 24.3958 93.6375 24.375C93.6167 24.3542 93.5542 24.3542 93.45 24.375C93.3875 24.3958 93.2938 24.4062 93.1688 24.4062C93.0646 24.3854 92.9396 24.375 92.7938 24.375C92.6688 24.375 92.5646 24.3854 92.4813 24.4062C92.3979 24.4062 92.3458 24.3958 92.325 24.375C92.2833 24.3542 92.1688 24.3438 91.9813 24.3438C91.5854 24.3438 91.3458 24.3229 91.2625 24.2812C91.2208 24.2396 91.1688 24.2188 91.1063 24.2188C91.0646 24.1979 91.0229 24.1875 90.9813 24.1875C90.9604 24.1875 90.9396 24.1771 90.9188 24.1562H90.7L90.325 24.0625C90.3042 24.0417 90.2 24.0104 90.0125 23.9688C89.5542 23.8854 89.2625 23.8021 89.1375 23.7188L88.8875 23.5938L88.5438 23.4062L88.4813 23.3438V22.2188C88.4813 22.0938 88.4917 21.9792 88.5125 21.875C88.5333 21.75 88.5438 21.6771 88.5438 21.6562L88.575 21.4375V21.2188L88.6688 21.1562L88.9188 21.0938C89.1063 21.0938 89.2208 21.0729 89.2625 21.0312C89.2625 20.9896 89.325 20.9375 89.45 20.875C89.4708 20.875 89.4917 20.8646 89.5125 20.8438C89.5333 20.8229 89.5646 20.8125 89.6063 20.8125C89.6479 20.8125 89.7 20.7812 89.7625 20.7188H90.0438L90.2 20.6875C90.2208 20.6667 90.3146 20.6458 90.4813 20.625C90.6688 20.5833 90.8354 20.5625 90.9813 20.5625L91.2938 20.5312C91.3146 20.5104 91.3979 20.4896 91.5438 20.4688C91.6896 20.4271 91.8042 20.4062 91.8875 20.4062C92.0125 20.4062 92.1167 20.3958 92.2 20.375H92.4188C92.7313 20.375 92.9604 20.3438 93.1063 20.2812C93.1271 20.2604 93.3042 20.25 93.6375 20.25C93.9708 20.2292 94.1479 20.2083 94.1688 20.1875V20.0625L94.1375 19.5625L94.1063 19.1562L94.075 18.9688C94.075 18.8229 94.1167 18.7083 94.2 18.625C94.2208 18.6042 94.2521 18.5833 94.2938 18.5625C94.3354 18.5208 94.3563 18.4896 94.3563 18.4688C94.3979 18.3854 94.4188 18.2812 94.4188 18.1562C94.3979 18.1146 94.3563 18.0938 94.2938 18.0938C94.2521 18.0729 94.1792 18.0625 94.075 18.0625C93.825 18.0625 93.6375 18.0312 93.5125 17.9688L93.325 17.875C93.2625 17.875 93.2208 17.8646 93.2 17.8438C93.1792 17.8021 93.1688 17.75 93.1688 17.6875L93.075 17.0312L93.0125 16.7812V16.6875C93.0125 16.5625 93.0542 16.4375 93.1375 16.3125C93.1792 16.2917 93.2208 16.2396 93.2625 16.1562C93.2625 16.1354 93.2833 16.1146 93.325 16.0938C93.3667 16.0521 93.3979 16.0312 93.4188 16.0312C93.5229 16.0104 93.6479 15.9792 93.7938 15.9375C93.9604 15.8958 94.0854 15.8542 94.1688 15.8125L94.4813 15.75H94.7313C95.1063 15.75 95.3979 15.7812 95.6063 15.8438C95.7313 15.8854 95.8771 15.9479 96.0438 16.0312C96.2313 16.1146 96.3875 16.2083 96.5125 16.3125C96.575 16.375 96.6375 16.4479 96.7 16.5312C96.7625 16.5938 96.8042 16.6667 96.825 16.75L96.8875 16.9375C96.9083 17.0625 96.9188 17.3646 96.9188 17.8438C96.8979 17.9271 96.8875 18.0833 96.8875 18.3125C96.8875 18.5417 96.8458 18.7708 96.7625 19C96.7 19.2083 96.575 19.4792 96.3875 19.8125L96.2938 19.9375C96.2313 20.0208 96.2 20.0729 96.2 20.0938C96.3042 20.1146 96.5021 20.1146 96.7938 20.0938C96.8979 20.0729 97.3354 20.0625 98.1063 20.0625C98.8979 20.0625 99.3458 20.0729 99.45 20.0938C99.5333 20.1146 99.7625 20.125 100.138 20.125C100.7 20.1667 101.117 20.2396 101.388 20.3438L102.138 20.625C102.179 20.6667 102.242 20.7083 102.325 20.75L102.888 21.1875L102.919 21.4062C102.94 21.4896 102.94 21.5521 102.919 21.5938C102.898 21.6562 102.898 21.7396 102.919 21.8438C102.94 22.0104 102.94 22.1458 102.919 22.25C102.919 22.2708 102.908 22.3021 102.888 22.3438C102.867 22.3854 102.846 22.4167 102.825 22.4375L102.794 22.6562L102.731 22.9688C102.69 23.0938 102.669 23.2188 102.669 23.3438C102.669 23.5312 102.627 23.6667 102.544 23.75C102.46 23.8125 102.398 23.8438 102.356 23.8438L102.2 23.9062C101.992 23.9896 101.835 24.0104 101.731 23.9688C101.648 23.9688 101.585 23.9792 101.544 24H101.294L100.95 24.0312C100.825 24.0729 100.69 24.0938 100.544 24.0938C100.502 24.1146 100.44 24.1354 100.356 24.1562C100.273 24.1562 100.21 24.1667 100.169 24.1875C100.127 24.1875 100.075 24.1979 100.013 24.2188C99.95 24.2188 99.8771 24.2083 99.7938 24.1875C99.6271 24.1875 99.5333 24.1979 99.5125 24.2188C99.4708 24.2604 99.3042 24.2917 99.0125 24.3125C98.7417 24.3125 98.5333 24.3125 98.3875 24.3125C97.7625 24.3125 97.3979 24.3438 97.2938 24.4062C97.2729 24.4062 97.2521 24.4479 97.2313 24.5312C97.2104 24.5938 97.2 24.7188 97.2 24.9062L97.1375 25.6875C97.1167 25.75 97.0958 25.8125 97.075 25.875C97.0542 25.9375 97.0333 25.9896 97.0125 26.0312L96.9813 26.4375L96.9188 26.7188L96.825 27.1875L96.5438 28.2188C96.5021 28.2604 96.4604 28.3333 96.4188 28.4375C96.3771 28.5417 96.3458 28.6146 96.325 28.6562C96.1167 29.0521 95.9813 29.3021 95.9188 29.4062C95.8771 29.4479 95.8458 29.4896 95.825 29.5312C95.8042 29.5938 95.7938 29.6354 95.7938 29.6562L95.6063 29.8438C95.5021 29.9479 95.45 30.0208 95.45 30.0625C95.3875 30.125 95.3042 30.1771 95.2 30.2188C95.0958 30.2604 94.9917 30.2812 94.8875 30.2812H94.7938ZM88.45 6.03125C88.4708 5.90625 88.4813 5.625 88.4813 5.1875C88.4813 5.04167 88.4917 4.90625 88.5125 4.78125C88.5333 4.63542 88.5438 4.55208 88.5438 4.53125C88.5646 4.38542 88.5646 4.25 88.5438 4.125C88.5438 4.08333 88.5542 4.05208 88.575 4.03125C88.6583 3.98958 88.8042 3.9375 89.0125 3.875C89.2208 3.8125 89.4604 3.77083 89.7313 3.75L89.9813 3.71875C90.0021 3.69792 90.0333 3.6875 90.075 3.6875C90.1375 3.66667 90.1792 3.64583 90.2 3.625C90.3458 3.625 90.45 3.61458 90.5125 3.59375L91.6375 3.4375C91.9083 3.4375 92.1063 3.42708 92.2313 3.40625C92.3354 3.40625 92.4083 3.39583 92.45 3.375C92.5125 3.35417 92.5542 3.34375 92.575 3.34375H93.1375C93.4292 3.34375 93.7 3.33333 93.95 3.3125C94.2208 3.27083 94.4083 3.23958 94.5125 3.21875L94.5438 3.15625C94.5646 3.03125 94.575 2.85417 94.575 2.625C94.5958 2.375 94.5958 2.16667 94.575 2C94.575 1.83333 94.6063 1.63542 94.6688 1.40625C94.7313 1.17708 94.8042 1.05208 94.8875 1.03125L94.9813 1C95.0646 1 95.1479 1.02083 95.2313 1.0625C95.3354 1.08333 95.4188 1.125 95.4813 1.1875C95.5229 1.20833 95.6063 1.28125 95.7313 1.40625C95.8354 1.48958 95.9188 1.58333 95.9813 1.6875C96.0229 1.8125 96.075 2.0625 96.1375 2.4375L96.2 2.90625C96.2 3.07292 96.2313 3.15625 96.2938 3.15625C96.3146 3.21875 96.5229 3.25 96.9188 3.25C97.5021 3.25 98.1063 3.28125 98.7313 3.34375C98.7729 3.34375 98.8146 3.35417 98.8563 3.375C98.9188 3.39583 98.9917 3.40625 99.075 3.40625C99.325 3.44792 99.6167 3.51042 99.95 3.59375C100.346 3.67708 100.648 3.79167 100.856 3.9375L101.169 4.09375C101.44 4.21875 101.585 4.3125 101.606 4.375C101.648 4.58333 101.658 4.72917 101.638 4.8125C101.638 4.89583 101.648 4.96875 101.669 5.03125C101.69 5.11458 101.679 5.21875 101.638 5.34375L101.575 5.71875C101.575 5.88542 101.554 5.98958 101.513 6.03125C101.492 6.09375 101.481 6.19792 101.481 6.34375V6.5625C101.46 6.60417 101.398 6.66667 101.294 6.75C101.21 6.8125 101.138 6.86458 101.075 6.90625C101.013 6.92708 100.94 6.9375 100.856 6.9375H100.669C100.335 6.9375 100.138 6.94792 100.075 6.96875L99.7313 7C99.6688 7.02083 99.6063 7.04167 99.5438 7.0625C99.5021 7.08333 99.4604 7.09375 99.4188 7.09375L98.9188 7.125C98.7313 7.125 98.5958 7.13542 98.5125 7.15625C98.4292 7.15625 98.3771 7.15625 98.3563 7.15625C98.2938 7.19792 98.1167 7.21875 97.825 7.21875C97.6583 7.23958 97.4083 7.25 97.075 7.25C96.9708 7.27083 96.7208 7.28125 96.325 7.28125L95.7 7.3125C95.6792 7.33333 95.6479 7.34375 95.6063 7.34375C95.5854 7.32292 95.5646 7.3125 95.5438 7.3125C95.4604 7.29167 95.3354 7.29167 95.1688 7.3125C95.0438 7.33333 94.8771 7.34375 94.6688 7.34375L93.45 7.3125C93.4292 7.27083 93.3667 7.27083 93.2625 7.3125C93.1375 7.33333 93.0438 7.33333 92.9813 7.3125L92.825 7.28125C92.7625 7.28125 92.6479 7.30208 92.4813 7.34375H92.325C92.2833 7.30208 92.2521 7.28125 92.2313 7.28125H92.075C91.9708 7.23958 91.8458 7.20833 91.7 7.1875C91.5542 7.16667 91.4188 7.16667 91.2938 7.1875C91.2313 7.20833 91.1688 7.19792 91.1063 7.15625C91.0646 7.13542 90.9708 7.125 90.825 7.125C90.7 7.125 90.6167 7.11458 90.575 7.09375C90.5542 7.07292 90.4604 7.04167 90.2938 7C90.1896 7 90.1375 6.98958 90.1375 6.96875C89.9917 6.96875 89.8771 6.95833 89.7938 6.9375H89.5125L89.3875 6.8125C89.2417 6.66667 89.0958 6.58333 88.95 6.5625L88.45 6.375L88.4188 6.3125L88.45 6.03125ZM91.8563 10.5312C91.8354 10.0104 91.8771 9.52083 91.9813 9.0625C92.0438 8.875 92.2104 8.64583 92.4813 8.375L92.6063 8.28125C92.6271 8.23958 92.6583 8.20833 92.7 8.1875C92.7625 8.16667 92.825 8.15625 92.8875 8.15625C92.9917 8.15625 93.0854 8.13542 93.1688 8.09375C93.5854 7.98958 93.95 7.9375 94.2625 7.9375L95.6063 7.90625C95.9813 7.90625 96.2417 7.91667 96.3875 7.9375C96.5542 7.9375 96.6792 7.95833 96.7625 8L96.9813 8.03125C97.1896 8.11458 97.4604 8.23958 97.7938 8.40625C97.9813 8.51042 98.0854 8.59375 98.1063 8.65625C98.2521 8.80208 98.3354 9.09375 98.3563 9.53125L98.3875 9.8125C98.3875 9.83333 98.3771 10.2188 98.3563 10.9688C98.3354 11.7396 98.3042 12.1771 98.2625 12.2812L98.2313 12.5625C98.1688 13.0625 98.0646 13.4688 97.9188 13.7812C97.8354 13.9688 97.7521 14.125 97.6688 14.25L97.325 14.4688L97.075 14.6875C96.95 14.7708 96.8771 14.8333 96.8563 14.875C96.8146 14.875 96.7833 14.8854 96.7625 14.9062L96.45 14.9688C96.2417 14.9688 96.1271 14.9792 96.1063 15L95.9813 15.0312C95.9396 15.0312 95.8979 15.0521 95.8563 15.0938C95.8146 15.1146 95.7729 15.125 95.7313 15.125C95.6688 15.1667 95.5854 15.1875 95.4813 15.1875C95.3563 15.1875 95.2417 15.2083 95.1375 15.25C94.9917 15.2917 94.825 15.3125 94.6375 15.3125C94.5958 15.3333 94.5333 15.3542 94.45 15.375C94.3875 15.375 94.3354 15.3854 94.2938 15.4062C94.2104 15.4271 94.1375 15.4167 94.075 15.375C94.0333 15.3542 93.9604 15.3438 93.8563 15.3438C93.8354 15.3646 93.8042 15.375 93.7625 15.375C93.6792 15.375 93.5854 15.3229 93.4813 15.2188C93.3563 15.0938 93.2417 15.0312 93.1375 15.0312C93.0125 15.0312 92.8875 15 92.7625 14.9375C92.6792 14.9167 92.6271 14.8854 92.6063 14.8438C92.5854 14.8021 92.575 14.7292 92.575 14.625C92.575 14.5417 92.5542 14.4583 92.5125 14.375L92.4813 14.2812L92.3563 14.25C92.2729 14.25 92.2208 14.2292 92.2 14.1875C92.1167 14.125 92.075 13.8646 92.075 13.4062C92.0542 13.3229 92.0438 13.2396 92.0438 13.1562C92.0438 13.0521 92.0333 12.9792 92.0125 12.9375L91.9813 12.4375C91.9813 12.2083 91.9604 12.0521 91.9188 11.9688C91.8771 11.8438 91.8563 11.5312 91.8563 11.0312V10.5312ZM93.9188 12.375H94.7938C95.3563 12.375 95.6583 12.3646 95.7 12.3438C95.95 12.2604 96.2 11.9167 96.45 11.3125C96.4917 11.2292 96.5125 11.1354 96.5125 11.0312C96.5125 10.9688 96.4917 10.9062 96.45 10.8438C96.4083 10.8021 96.3667 10.7812 96.325 10.7812C96.1167 10.7396 95.9292 10.7396 95.7625 10.7812H95.5125C95.3458 10.7812 95.2313 10.7917 95.1688 10.8125L94.825 10.8438L94.6688 10.875C94.6479 10.8958 94.6167 10.9062 94.575 10.9062C94.5542 10.9062 94.5333 10.9167 94.5125 10.9375C94.4708 10.9375 94.2729 11 93.9188 11.125L93.8563 11.1875V12.3438L93.9188 12.375Z" fill="#4A443D"/>
</svg>
