<svg width="156" height="32" viewBox="0 0 156 32" fill="none" xmlns="http://www.w3.org/2000/svg">
<path d="M5.10938 27.4219L4.98438 27.3281L4.95312 27.3594C4.91146 27.401 4.83854 27.401 4.73438 27.3594C4.63021 27.3385 4.55729 27.3385 4.51562 27.3594C4.34896 27.401 4.23438 27.3906 4.17188 27.3281C4.08854 27.2865 4.03646 26.9323 4.01562 26.2656C3.99479 26.1615 3.98438 26.026 3.98438 25.8594C3.96354 25.776 3.95312 25.6927 3.95312 25.6094C3.95312 25.5052 3.94271 25.401 3.92188 25.2969C3.92188 25.0885 3.90104 24.901 3.85938 24.7344L3.79688 24.3906L3.76562 24.1406C3.74479 23.974 3.73438 23.776 3.73438 23.5469C3.73438 23.2969 3.74479 23.0885 3.76562 22.9219C3.80729 22.6719 3.82812 22.1615 3.82812 21.3906C3.84896 19.7031 3.88021 18.7344 3.92188 18.4844L3.98438 17.2344C4.04688 16.9219 4.07812 16.3698 4.07812 15.5781L4.10938 14.9531C4.13021 14.8906 4.14062 14.8281 4.14062 14.7656C4.14062 14.6823 4.15104 14.599 4.17188 14.5156L4.20312 13.6406C4.22396 13.3906 4.23438 13.224 4.23438 13.1406C4.25521 13.0573 4.24479 13.0156 4.20312 13.0156L4.07812 13.0781C3.95312 13.2031 3.80729 13.3073 3.64062 13.3906L3.51562 13.4844L3.20312 13.6719L2.79688 13.8906L2.67188 13.9844C2.60938 13.9844 2.55729 14.0052 2.51562 14.0469L2.32812 14.1094C2.28646 14.1302 2.25521 14.1615 2.23438 14.2031C2.21354 14.2656 2.14062 14.2969 2.01562 14.2969C1.95312 14.3177 1.86979 14.3281 1.76562 14.3281C1.66146 14.3281 1.58854 14.3177 1.54688 14.2969C1.50521 14.276 1.46354 14.224 1.42188 14.1406C1.29688 13.9531 1.08854 13.849 0.796875 13.8281C0.546875 13.8073 0.369792 13.7865 0.265625 13.7656C0.182292 13.7448 0.140625 13.6927 0.140625 13.6094C0.140625 13.3385 0.130208 13.0677 0.109375 12.7969C0.0885417 12.526 0.0677083 12.3281 0.046875 12.2031L0.015625 11.8594C0.0364583 11.776 0.0364583 11.7135 0.015625 11.6719C0.015625 11.6094 0.015625 11.5781 0.015625 11.5781C-0.00520833 11.5156 -0.00520833 11.3802 0.015625 11.1719C0.0572917 11.0469 0.078125 10.9219 0.078125 10.7969C0.078125 10.7344 0.0989583 10.6823 0.140625 10.6406C0.182292 10.6198 0.223958 10.5677 0.265625 10.4844L0.390625 10.3281C0.515625 10.2031 0.578125 10.1406 0.578125 10.1406L0.796875 9.98438C0.838542 9.98438 0.869792 9.94271 0.890625 9.85938L1.04688 9.73438C1.21354 9.63021 1.33854 9.53646 1.42188 9.45312C1.50521 9.36979 1.58854 9.30729 1.67188 9.26562L1.98438 9.04688C2.06771 8.98438 2.17188 8.92188 2.29688 8.85938L2.92188 8.51562C2.96354 8.47396 3.00521 8.44271 3.04688 8.42188C3.10938 8.38021 3.15104 8.33854 3.17188 8.29688L3.35938 8.14062C3.79688 7.84896 4.16146 7.63021 4.45312 7.48438C4.51562 7.48438 4.56771 7.46354 4.60938 7.42188C4.65104 7.38021 4.70312 7.35938 4.76562 7.35938C4.82812 7.35938 4.89062 7.32812 4.95312 7.26562L5.26562 7.14062C5.32812 7.11979 5.38021 7.08854 5.42188 7.04688C5.48438 7.00521 5.54688 6.97396 5.60938 6.95312C5.71354 6.89062 5.79688 6.85938 5.85938 6.85938L6.10938 6.76562C6.25521 6.70312 6.47396 6.65104 6.76562 6.60938L6.95312 6.57812H7.04688L7.29688 6.60938C7.63021 6.65104 7.82812 6.70312 7.89062 6.76562C7.91146 6.80729 8.00521 6.86979 8.17188 6.95312C8.23438 6.99479 8.29688 7.03646 8.35938 7.07812C8.42188 7.09896 8.46354 7.13021 8.48438 7.17188C8.52604 7.19271 8.55729 7.22396 8.57812 7.26562C8.61979 7.32812 8.64062 7.41146 8.64062 7.51562C8.64062 7.64062 8.65104 7.72396 8.67188 7.76562C8.67188 7.80729 8.68229 7.85938 8.70312 7.92188C8.72396 7.98438 8.72396 8.03646 8.70312 8.07812C8.68229 8.09896 8.67188 8.21354 8.67188 8.42188C8.67188 8.63021 8.65104 8.77604 8.60938 8.85938L8.57812 9.01562L8.60938 9.20312C8.63021 9.24479 8.64062 9.30729 8.64062 9.39062C8.64062 9.43229 8.54688 9.57812 8.35938 9.82812C8.29688 9.93229 8.17188 10.0469 7.98438 10.1719L7.60938 10.4531L7.45312 10.5781L7.23438 10.6719C7.15104 10.7552 7.08854 10.7969 7.04688 10.7969L6.57812 11.1719L6.39062 11.3281C6.30729 11.4115 6.25521 11.4844 6.23438 11.5469C6.23438 11.6094 6.24479 11.7344 6.26562 11.9219L6.29688 13.4531L6.32812 15.2344V16.6094L6.35938 17.3594C6.38021 17.401 6.39062 17.9219 6.39062 18.9219C6.39062 19.901 6.38021 20.4115 6.35938 20.4531C6.33854 20.474 6.32812 20.9531 6.32812 21.8906V23.6719C6.32812 23.9844 6.30729 24.276 6.26562 24.5469C6.24479 24.8177 6.23438 24.9635 6.23438 24.9844L6.20312 25.3281L6.17188 25.7656C6.13021 25.9115 6.09896 26.1823 6.07812 26.5781C6.05729 26.8073 6.02604 26.9948 5.98438 27.1406C5.96354 27.2865 5.92188 27.3802 5.85938 27.4219C5.83854 27.4427 5.81771 27.4844 5.79688 27.5469C5.77604 27.5885 5.74479 27.6198 5.70312 27.6406C5.66146 27.724 5.63021 27.7656 5.60938 27.7656C5.58854 27.7865 5.55729 27.7969 5.51562 27.7969C5.47396 27.7969 5.44271 27.7865 5.42188 27.7656L5.10938 27.4219ZM9.89062 18.9219C9.91146 18.7969 9.91146 18.7135 9.89062 18.6719L9.85938 18.4844L9.95312 18.2969C10.0156 18.151 10.0885 18.0365 10.1719 17.9531L10.5469 17.7031C10.776 17.5573 10.9635 17.4115 11.1094 17.2656C11.1094 17.2656 11.1927 17.1823 11.3594 17.0156C11.4219 16.9948 11.4948 16.9531 11.5781 16.8906C11.6615 16.8281 11.7656 16.7656 11.8906 16.7031C11.9115 16.6823 11.9323 16.6615 11.9531 16.6406C11.9948 16.6198 12.026 16.6094 12.0469 16.6094C12.151 16.5677 12.2344 16.4948 12.2969 16.3906L12.4531 16.2344L12.5781 16.1406C12.6406 16.0781 12.7031 16.026 12.7656 15.9844C12.849 15.9427 12.9115 15.9219 12.9531 15.9219C12.9948 15.8802 13.026 15.8281 13.0469 15.7656C13.0677 15.724 13.1302 15.651 13.2344 15.5469L13.4219 15.3906C13.4844 15.349 13.526 15.3073 13.5469 15.2656C13.5885 15.224 13.6198 15.2031 13.6406 15.2031L13.7344 15.0781C13.8802 14.8698 13.9844 14.7552 14.0469 14.7344L14.2344 14.6406C14.2552 14.6198 14.2552 14.599 14.2344 14.5781C14.2135 14.5573 14.2031 14.5365 14.2031 14.5156L14.2656 14.4531L14.3906 14.3594C14.4323 14.3177 14.5365 14.2656 14.7031 14.2031L14.8594 14.1406C14.9219 14.1406 14.9948 14.1927 15.0781 14.2969C15.1615 14.3385 15.2135 14.349 15.2344 14.3281C15.2552 14.3281 15.2656 14.2448 15.2656 14.0781V13.8594C15.2865 13.8177 15.2969 13.6719 15.2969 13.4219C15.3177 13.2969 15.3281 13.1615 15.3281 13.0156L15.3594 12.6719C15.3594 12.5469 15.3698 12.4531 15.3906 12.3906C15.4115 12.3281 15.4427 12.2865 15.4844 12.2656C15.4844 12.2656 15.5156 12.2344 15.5781 12.1719C15.599 12.1094 15.6719 12.0677 15.7969 12.0469L16.4219 12.1094L16.7344 12.2656C16.8385 12.3073 16.901 12.3594 16.9219 12.4219C16.9635 12.4635 17.0052 12.5677 17.0469 12.7344L17.1406 13.0781C17.1406 13.2031 17.151 13.2865 17.1719 13.3281C17.1719 13.4531 17.1823 13.5365 17.2031 13.5781C17.2448 13.8281 17.2656 14.0885 17.2656 14.3594L17.2969 14.7344C17.3802 15.151 17.4219 15.9427 17.4219 17.1094V18.1406C17.401 18.1823 17.3906 18.8177 17.3906 20.0469C17.3906 21.5677 17.3698 22.474 17.3281 22.7656C17.3073 22.7865 17.2969 22.8698 17.2969 23.0156C17.276 23.0573 17.2656 23.1094 17.2656 23.1719C17.2656 23.2135 17.2552 23.2552 17.2344 23.2969L17.2031 23.6406C17.1615 23.8906 17.1302 24.0885 17.1094 24.2344C17.0885 24.3802 17.0677 24.526 17.0469 24.6719C17.0052 24.7969 16.9844 24.901 16.9844 24.9844C16.8594 25.6302 16.776 25.9948 16.7344 26.0781C16.651 26.3281 16.6094 26.4531 16.6094 26.4531L16.4219 26.7969L16.3281 26.9531L16.2031 27.1719C16.1198 27.2552 16.0156 27.3698 15.8906 27.5156C15.7656 27.6615 15.6823 27.7448 15.6406 27.7656C15.5781 27.8281 15.401 27.9219 15.1094 28.0469C15.0052 28.0885 14.8906 28.1094 14.7656 28.1094C14.4948 28.1094 14.2969 28.0781 14.1719 28.0156C14.151 28.0156 14.1094 27.9844 14.0469 27.9219C13.9219 27.8177 13.776 27.724 13.6094 27.6406C13.4635 27.5573 13.3594 27.5156 13.2969 27.5156C13.276 27.5156 13.2448 27.5052 13.2031 27.4844C13.1823 27.4635 13.1406 27.4531 13.0781 27.4531C13.0573 27.4323 13.026 27.4219 12.9844 27.4219C12.9427 27.4219 12.9115 27.4115 12.8906 27.3906C12.8281 27.3906 12.7552 27.3698 12.6719 27.3281C12.526 27.2448 12.4115 27.0885 12.3281 26.8594C12.2865 26.776 12.2656 26.6927 12.2656 26.6094C12.2865 26.5677 12.2969 26.474 12.2969 26.3281V26.0781C12.2969 25.6198 12.2865 25.3177 12.2656 25.1719L12.2344 24.9531V24.8281C12.2552 24.7865 12.2552 24.724 12.2344 24.6406C12.2135 24.5365 12.2135 24.4635 12.2344 24.4219L12.2656 24.1719L12.2969 23.9844L12.2031 23.8906C12.1615 23.8073 12.1406 23.7552 12.1406 23.7344C12.1406 23.6719 12.1615 23.6302 12.2031 23.6094C12.2448 23.5885 12.3073 23.5573 12.3906 23.5156C12.599 23.4531 12.776 23.3906 12.9219 23.3281C13.0469 23.2448 13.1823 23.1823 13.3281 23.1406C13.4323 23.0573 13.5781 22.974 13.7656 22.8906C13.974 22.7865 14.1198 22.6823 14.2031 22.5781C14.3073 22.474 14.3281 22.3385 14.2656 22.1719V22.0781C14.2656 21.9948 14.3281 21.7656 14.4531 21.3906C14.4531 21.3698 14.4844 21.2656 14.5469 21.0781L14.7031 20.8281L14.7656 20.6094L14.8594 20.3281L14.9844 19.6406C15.026 19.4948 15.0573 19.2552 15.0781 18.9219L15.1094 18.4531C15.1302 18.2865 15.1406 18.0781 15.1406 17.8281C15.1615 17.5573 15.1615 17.3594 15.1406 17.2344C15.1406 17.151 15.1302 17.1094 15.1094 17.1094C15.1094 17.1094 15.026 17.276 14.8594 17.6094C14.7552 17.7969 14.5885 18.0365 14.3594 18.3281L14.2344 18.4844C14.2135 18.5469 14.1927 18.6406 14.1719 18.7656C14.151 18.8906 14.1094 18.9844 14.0469 19.0469C13.9427 19.151 13.8906 19.2135 13.8906 19.2344C13.8906 19.2344 13.7448 19.401 13.4531 19.7344C13.349 19.8385 13.2448 19.9427 13.1406 20.0469C13.0573 20.1302 13.0052 20.1927 12.9844 20.2344C12.9635 20.276 12.8698 20.3594 12.7031 20.4844C12.6198 20.5052 12.5469 20.5677 12.4844 20.6719C12.3802 20.8177 12.2656 20.9323 12.1406 21.0156L11.3906 21.4219C11.2448 21.5052 11.151 21.5365 11.1094 21.5156C11.0469 21.5156 11.0052 21.474 10.9844 21.3906C10.8594 21.2448 10.7448 21.1615 10.6406 21.1406C10.5156 21.099 10.3177 21.0781 10.0469 21.0781C9.94271 21.0781 9.89062 21.0365 9.89062 20.9531V20.5469C9.91146 20.4219 9.92188 20.2344 9.92188 19.9844V19.7344C9.90104 19.6927 9.89062 19.5885 9.89062 19.4219L9.85938 19.1719L9.89062 18.9219ZM10.9844 9.26562L11.3281 8.54688C11.3281 8.46354 11.3698 8.33854 11.4531 8.17188L11.8281 7.45312C11.8281 7.41146 11.8385 7.35938 11.8594 7.29688C11.901 7.23438 11.9427 7.18229 11.9844 7.14062C11.9844 7.11979 11.9948 7.08854 12.0156 7.04688C12.0365 6.98438 12.0469 6.92188 12.0469 6.85938L12.1094 6.60938C12.151 6.56771 12.1719 6.49479 12.1719 6.39062L12.2344 6.20312C12.276 6.16146 12.2969 6.10938 12.2969 6.04688C12.2969 6.02604 12.3073 5.98438 12.3281 5.92188C12.349 5.85938 12.3802 5.76562 12.4219 5.64062C12.4219 5.55729 12.4427 5.47396 12.4844 5.39062C12.4844 5.34896 12.5469 5.15104 12.6719 4.79688C12.7135 4.75521 12.7448 4.73438 12.7656 4.73438C12.7865 4.71354 12.8177 4.70312 12.8594 4.70312C12.9219 4.70312 13.0052 4.72396 13.1094 4.76562C13.2135 4.80729 13.3073 4.84896 13.3906 4.89062C13.4323 4.93229 13.4635 4.95312 13.4844 4.95312C13.526 4.97396 13.5781 5.00521 13.6406 5.04688C13.7031 5.08854 13.7552 5.13021 13.7969 5.17188C13.8802 5.33854 13.9323 5.49479 13.9531 5.64062C14.0365 5.93229 14.0781 6.26562 14.0781 6.64062C14.0781 6.74479 14.0781 6.81771 14.0781 6.85938C14.099 6.90104 14.1406 6.93229 14.2031 6.95312L14.7344 6.89062C14.8177 6.84896 14.9115 6.82812 15.0156 6.82812C15.0573 6.82812 15.099 6.81771 15.1406 6.79688C15.2031 6.75521 15.2656 6.73438 15.3281 6.73438L15.7656 6.64062C15.9115 6.59896 16.0573 6.57812 16.2031 6.57812C16.349 6.55729 16.5052 6.53646 16.6719 6.51562L17.2031 6.48438C17.3281 6.44271 17.4427 6.42188 17.5469 6.42188C17.6719 6.42188 17.7552 6.41146 17.7969 6.39062C17.9635 6.39062 18.0885 6.38021 18.1719 6.35938L18.5469 6.32812C18.6719 6.30729 18.8385 6.29688 19.0469 6.29688C19.2552 6.29688 19.4844 6.31771 19.7344 6.35938L20.0156 6.42188C20.0573 6.42188 20.1615 6.46354 20.3281 6.54688L20.5156 6.57812C20.5573 6.57812 20.8385 6.74479 21.3594 7.07812C21.5885 7.22396 21.776 7.38021 21.9219 7.54688C22.0469 7.75521 22.1198 7.98438 22.1406 8.23438C22.1823 8.46354 22.2031 8.85938 22.2031 9.42188C22.2031 9.79688 22.1927 10.0156 22.1719 10.0781L22.1094 10.7344C22.1094 10.901 22.0677 11.0365 21.9844 11.1406C21.9427 11.3281 21.9115 11.4219 21.8906 11.4219L21.8594 11.5156C21.7135 11.7448 21.6094 11.8802 21.5469 11.9219C21.4427 12.0469 21.3385 12.1615 21.2344 12.2656C21.1302 12.349 21.0573 12.401 21.0156 12.4219H20.9844C20.9219 12.4219 20.8594 12.3594 20.7969 12.2344C20.7969 12.2135 20.7448 12.151 20.6406 12.0469L20.4844 11.9219L20.3906 11.9531C20.3073 11.974 20.2448 11.974 20.2031 11.9531C20.1198 11.9323 20.0573 11.9323 20.0156 11.9531C19.8906 11.9948 19.8281 11.9948 19.8281 11.9531C19.7865 11.9115 19.7656 11.7552 19.7656 11.4844L19.7969 11.1094V10.7969C19.776 10.7552 19.7656 10.6719 19.7656 10.5469L19.7031 10.2969L19.4844 10.1719C19.3594 10.1302 19.2448 10.1094 19.1406 10.1094L18.7656 10.1406C18.5365 10.1823 18.3594 10.1823 18.2344 10.1406C18.1927 10.1198 18.1302 10.1094 18.0469 10.1094L17.7031 10.1406C17.6198 10.1406 17.4948 10.151 17.3281 10.1719C17.1615 10.1927 17.026 10.2135 16.9219 10.2344C16.8177 10.2552 16.7448 10.2552 16.7031 10.2344L16.4531 10.2031C16.3281 10.2031 16.2344 10.2135 16.1719 10.2344C16.0885 10.2552 16.0156 10.2656 15.9531 10.2656C15.9115 10.2656 15.849 10.2552 15.7656 10.2344H15.6094L14.9531 10.2969C14.8073 10.2969 14.724 10.3073 14.7031 10.3281L14.3281 10.3594C14.1198 10.3594 13.9844 10.3698 13.9219 10.3906C13.8802 10.4323 13.8073 10.4531 13.7031 10.4531C13.5573 10.4948 13.474 10.5365 13.4531 10.5781C13.4531 10.599 13.4115 10.6302 13.3281 10.6719C13.3073 10.6719 13.2552 10.7031 13.1719 10.7656C13.1094 10.8073 13.0469 10.8906 12.9844 11.0156L12.8281 11.3281C12.6198 11.7448 12.4219 12.0052 12.2344 12.1094C12.1719 12.1302 12.1198 12.1302 12.0781 12.1094C12.0365 12.1094 11.9844 12.0781 11.9219 12.0156L11.7969 11.8594C11.7344 11.8177 11.6823 11.7969 11.6406 11.7969C11.6198 11.776 11.5885 11.776 11.5469 11.7969C11.4844 11.7969 11.4427 11.7865 11.4219 11.7656C11.401 11.7656 11.3802 11.7656 11.3594 11.7656C11.3385 11.7448 11.2969 11.7344 11.2344 11.7344C11.151 11.7344 11.099 11.724 11.0781 11.7031C11.0573 11.6823 11.0469 11.5052 11.0469 11.1719C11.026 11.026 11.0156 10.776 11.0156 10.4219L10.9844 9.82812C11.0052 9.74479 10.9948 9.67188 10.9531 9.60938L10.8906 9.45312L10.9844 9.26562ZM17.7344 16.1719C17.7344 16.0469 17.724 15.9635 17.7031 15.9219C17.6406 15.8385 17.6406 15.7656 17.7031 15.7031C17.7448 15.6198 17.8073 15.5677 17.8906 15.5469H18.1719L18.7031 15.6094C18.8073 15.6927 18.9635 15.7344 19.1719 15.7344C19.2135 15.7552 19.2552 15.7656 19.2969 15.7656C19.3385 15.7656 19.3698 15.776 19.3906 15.7969L19.8906 15.8594L20.0469 15.8906C20.1094 15.9115 20.2031 15.9323 20.3281 15.9531C20.474 15.974 20.6198 15.9844 20.7656 15.9844C20.849 16.0052 21.0885 16.0156 21.4844 16.0156C21.8385 16.0365 22.0885 16.0677 22.2344 16.1094L22.4844 16.1719C22.5469 16.1719 22.599 16.1823 22.6406 16.2031L22.9219 16.2969C23.151 16.3385 23.3073 16.4115 23.3906 16.5156L23.8281 16.7344L24.0469 16.8594L24.1406 16.8906L24.3594 17.0156C24.4635 17.0781 24.5365 17.1406 24.5781 17.2031C24.6406 17.2656 24.6927 17.3802 24.7344 17.5469L24.7969 17.7031L24.7656 17.8906L24.7344 18.1406C24.7344 18.224 24.7552 18.3073 24.7969 18.3906C24.8385 18.4531 24.8594 18.5573 24.8594 18.7031C24.8802 18.8281 24.8698 18.9115 24.8281 18.9531C24.8073 18.9948 24.7969 19.0885 24.7969 19.2344C24.8177 19.3802 24.8177 19.5469 24.7969 19.7344L24.7656 19.9844C24.7656 20.0677 24.7344 20.1406 24.6719 20.2031L24.6094 20.2969L24.5781 20.6094C24.5781 20.8177 24.5885 20.9531 24.6094 21.0156C24.6094 21.0573 24.6094 21.099 24.6094 21.1406C24.6302 21.1615 24.6302 21.1823 24.6094 21.2031C24.6094 21.2448 24.5885 21.2969 24.5469 21.3594C24.5052 21.4219 24.4844 21.4635 24.4844 21.4844C24.4427 21.4844 24.401 21.5365 24.3594 21.6406C24.2969 21.7031 24.2344 21.7448 24.1719 21.7656C24.0885 21.7865 24.0365 21.8281 24.0156 21.8906L23.9844 22.0156L23.8594 21.9844L23.6406 21.9219C23.5781 21.9219 23.474 21.8802 23.3281 21.7969C23.1406 21.6927 23.0052 21.6406 22.9219 21.6406C22.6927 21.5781 22.2344 21.3802 21.5469 21.0469L21.0156 20.7656C20.974 20.7656 20.9115 20.7448 20.8281 20.7031C20.1198 20.349 19.6823 20.099 19.5156 19.9531L19.2969 19.8281C19.2552 19.8281 19.0573 19.6927 18.7031 19.4219C18.6823 19.401 18.651 19.3802 18.6094 19.3594C18.5885 19.3385 18.5677 19.3281 18.5469 19.3281C18.276 19.0573 18.1406 18.9219 18.1406 18.9219L17.9219 18.6719L17.7656 18.4219V17.0469C17.7448 16.9844 17.7344 16.901 17.7344 16.7969C17.7344 16.6719 17.724 16.5573 17.7031 16.4531L17.7344 16.1719Z" fill="#4A443D"/>
<path d="M47.4344 20.2969C47.3719 20.2969 47.3302 20.3073 47.3094 20.3281C47.2469 20.3906 47.1844 20.401 47.1219 20.3594H46.9969C46.9552 20.401 46.9135 20.4219 46.8719 20.4219C46.8094 20.4219 46.7469 20.4115 46.6844 20.3906C46.6219 20.349 46.5385 20.3177 46.4344 20.2969L46.2781 20.2344C46.2573 20.2344 46.2365 20.2344 46.2156 20.2344C46.2156 20.2344 46.2156 20.224 46.2156 20.2031H45.9344C45.9135 20.2031 45.8927 20.1927 45.8719 20.1719C45.851 20.1302 45.8198 20.1094 45.7781 20.1094L45.5281 20.0156C45.4448 19.9948 45.3198 19.974 45.1531 19.9531C45.0073 19.9323 44.8823 19.9115 44.7781 19.8906H44.6531C44.5073 19.8906 44.3927 19.849 44.3094 19.7656L44.1531 19.6406C44.1323 19.599 44.101 19.5677 44.0594 19.5469C44.0177 19.526 43.9865 19.5156 43.9656 19.5156L43.9031 19.4531C43.8823 19.4323 43.8719 19.4115 43.8719 19.3906C43.8719 19.3698 43.851 19.349 43.8094 19.3281C43.7052 19.3073 43.5698 19.2344 43.4031 19.1094C43.2365 18.9635 43.1323 18.8594 43.0906 18.7969C43.0698 18.776 43.0594 18.7448 43.0594 18.7031C43.0594 18.6615 43.049 18.6198 43.0281 18.5781C43.0281 18.3906 43.0073 18.2969 42.9656 18.2969C42.9656 18.276 42.9552 18.2135 42.9344 18.1094C42.9344 17.9844 42.9031 17.8906 42.8406 17.8281C42.8406 17.6823 42.8302 17.599 42.8094 17.5781V17.4219C42.8094 17.4219 42.7781 17.3281 42.7156 17.1406C42.6531 17.0781 42.6219 16.9948 42.6219 16.8906C42.6219 16.8073 42.6115 16.7448 42.5906 16.7031C42.5906 16.6615 42.5698 16.6302 42.5281 16.6094C42.4865 16.5469 42.4656 16.4844 42.4656 16.4219C42.4865 16.401 42.4969 16.2969 42.4969 16.1094C42.4969 15.9844 42.5073 15.9115 42.5281 15.8906V15.7656C42.5281 15.6406 42.5906 15.5573 42.7156 15.5156C42.7365 15.5156 42.7469 15.4844 42.7469 15.4219L42.8406 15.3906C42.924 15.349 43.1531 15.3281 43.5281 15.3281C43.6531 15.3281 43.8094 15.3385 43.9969 15.3594C44.1844 15.3802 44.3406 15.401 44.4656 15.4219C44.5281 15.4219 44.5802 15.4323 44.6219 15.4531C44.6844 15.474 44.7365 15.4844 44.7781 15.4844C44.8406 15.5469 44.9344 15.5781 45.0594 15.5781C45.1219 15.599 45.1948 15.6302 45.2781 15.6719C45.3615 15.7135 45.4135 15.7344 45.4344 15.7344L45.7781 15.7969C45.7781 15.7969 46.0385 15.8906 46.5594 16.0781L46.8719 16.2344C47.0385 16.3385 47.1635 16.4323 47.2469 16.5156C47.3302 16.5781 47.3927 16.6615 47.4344 16.7656C47.4969 16.9115 47.5281 17.0052 47.5281 17.0469C47.5906 17.1927 47.6323 17.2969 47.6531 17.3594C47.7365 17.526 47.7781 17.651 47.7781 17.7344L47.8406 18.1094V18.2969C47.8823 18.4635 47.8927 18.5781 47.8719 18.6406C47.8302 18.8906 47.7573 19.224 47.6531 19.6406C47.549 20.0573 47.476 20.276 47.4344 20.2969ZM30.5594 10.2344C30.5177 10.1927 30.5177 10.1719 30.5594 10.1719C30.6635 10.1302 30.6635 10.099 30.5594 10.0781V9.95312L30.7469 9.67188C30.8302 9.63021 30.924 9.55729 31.0281 9.45312C31.1323 9.34896 31.2156 9.27604 31.2781 9.23438C31.3615 9.10938 31.424 9.04688 31.4656 9.04688C31.4656 9.00521 31.5177 8.96354 31.6219 8.92188L31.7469 8.82812C31.7885 8.78646 31.8198 8.75521 31.8406 8.73438C31.8823 8.71354 31.9135 8.69271 31.9344 8.67188C31.9552 8.65104 31.9969 8.63021 32.0594 8.60938C32.1219 8.58854 32.174 8.56771 32.2156 8.54688C32.2365 8.48438 32.299 8.41146 32.4031 8.32812C32.5281 8.22396 32.6219 8.16146 32.6844 8.14062L32.8094 8.10938C32.8719 8.04688 32.9135 8.01562 32.9344 8.01562L33.1219 7.98438C33.1635 7.98438 33.1948 7.98438 33.2156 7.98438C33.2365 7.96354 33.2469 7.94271 33.2469 7.92188L33.6844 7.67188L33.8406 7.54688C33.8615 7.48438 33.9448 7.42188 34.0906 7.35938L34.3406 7.23438C34.3615 7.23438 34.3823 7.22396 34.4031 7.20312C34.4448 7.16146 34.4969 7.13021 34.5594 7.10938L34.7469 7.04688C34.8302 7.02604 34.8927 7.00521 34.9344 6.98438C34.9969 6.94271 35.049 6.91146 35.0906 6.89062C35.2781 6.82812 35.3719 6.79688 35.3719 6.79688L35.5906 6.76562C35.6948 6.76562 35.7885 6.78646 35.8719 6.82812L36.4031 6.92188C36.4031 6.94271 36.4552 6.95312 36.5594 6.95312C36.6219 7.01562 36.674 7.04688 36.7156 7.04688L36.8719 7.10938C36.976 7.15104 37.0594 7.20312 37.1219 7.26562C37.226 7.36979 37.2781 7.51562 37.2781 7.70312L37.3406 7.95312L37.3719 8.14062C37.3302 8.30729 37.3094 8.65104 37.3094 9.17188V9.51562L37.2469 9.64062C37.1219 9.82812 37.049 9.92188 37.0281 9.92188C36.7781 10.0885 36.6323 10.1927 36.5906 10.2344C36.5698 10.2344 36.5385 10.2656 36.4969 10.3281C36.4552 10.3698 36.4135 10.401 36.3719 10.4219C36.2469 10.4427 36.1844 10.4844 36.1844 10.5469L36.1219 10.6719L35.9656 10.7344L35.8094 10.8281C35.726 10.849 35.674 10.8802 35.6531 10.9219C35.6323 10.9427 35.6219 10.9531 35.6219 10.9531L35.5594 11.0156L35.4344 11.0781L35.1531 11.2656L34.9031 11.4531L34.8406 11.5156H34.8719C35.2885 11.5156 35.549 11.4948 35.6531 11.4531C35.8406 11.4323 36.0698 11.4219 36.3406 11.4219C36.6115 11.4219 36.8406 11.4323 37.0281 11.4531C37.299 11.474 37.5073 11.5156 37.6531 11.5781C37.799 11.6198 37.9865 11.7031 38.2156 11.8281L38.4656 11.9219C38.6323 11.9635 38.7781 12.0573 38.9031 12.2031C38.9865 12.2448 39.0594 12.349 39.1219 12.5156C39.2885 12.9115 39.4031 13.2865 39.4656 13.6406C39.4656 13.7031 39.4865 13.776 39.5281 13.8594L39.6531 14.6094C39.674 14.6719 39.674 14.7344 39.6531 14.7969C39.6531 14.8594 39.6635 14.9115 39.6844 14.9531C39.7052 15.099 39.7156 16.0781 39.7156 17.8906C39.7156 18.2865 39.7052 18.599 39.6844 18.8281C39.6844 19.3281 39.6323 20.151 39.5281 21.2969C39.5281 21.6927 39.5177 22.0469 39.4969 22.3594C39.476 22.6719 39.4552 22.901 39.4344 23.0469C39.3094 23.401 39.1948 23.6719 39.0906 23.8594C39.0698 23.9635 39.0177 24.0573 38.9344 24.1406C38.851 24.224 38.7885 24.276 38.7469 24.2969C38.6635 24.3802 38.5906 24.3906 38.5281 24.3281C38.4865 24.2865 38.4135 24.2656 38.3094 24.2656H38.0594C37.9969 24.224 37.9031 24.224 37.7781 24.2656C37.7573 24.2865 37.7156 24.3177 37.6531 24.3594C37.5906 24.3802 37.5073 24.3906 37.4031 24.3906C37.299 24.4115 37.1844 24.4531 37.0594 24.5156C36.9552 24.5781 36.8615 24.6094 36.7781 24.6094C36.6948 24.5885 36.6219 24.5781 36.5594 24.5781H36.4656C36.4448 24.6198 36.4031 24.651 36.3406 24.6719C36.2781 24.6927 36.226 24.724 36.1844 24.7656C36.1427 24.7865 36.0281 24.8281 35.8406 24.8906L34.7781 24.9219C34.4865 24.9219 34.2885 24.9115 34.1844 24.8906C34.101 24.849 33.976 24.8281 33.8094 24.8281C33.7677 24.8073 33.7156 24.7969 33.6531 24.7969C33.6115 24.7969 33.5698 24.7865 33.5281 24.7656C33.3406 24.724 33.2156 24.7031 33.1531 24.7031C33.0906 24.7031 33.0177 24.7448 32.9344 24.8281C32.851 25.0156 32.7469 25.0156 32.6219 24.8281C32.5802 24.724 32.549 24.6719 32.5281 24.6719C32.4865 24.6719 32.4135 24.6198 32.3094 24.5156C32.2469 24.4531 32.2156 24.4219 32.2156 24.4219L32.1531 24.4844C32.0906 24.526 32.0281 24.5573 31.9656 24.5781C31.924 24.5781 31.8823 24.5573 31.8406 24.5156L31.7469 24.4531L31.6844 24.5156C31.5385 24.5573 31.4552 24.5573 31.4344 24.5156C31.3719 24.4531 31.3302 24.2448 31.3094 23.8906C31.3094 23.849 31.299 23.8177 31.2781 23.7969C31.2781 23.7552 31.2781 23.724 31.2781 23.7031L31.2469 23.5156L31.1219 23.2031C31.1219 23.1406 31.1115 23.0781 31.0906 23.0156C31.0698 22.9323 31.0594 22.8594 31.0594 22.7969C31.0594 22.7552 31.049 22.7135 31.0281 22.6719C31.0073 22.6302 30.9969 22.5677 30.9969 22.4844C30.9344 22.3594 30.9031 22.2656 30.9031 22.2031V21.9844L30.7469 21.7969L30.6844 21.7344V20.8594C30.6844 20.8594 30.6844 20.849 30.6844 20.8281C30.7052 20.7865 30.7156 20.7031 30.7156 20.5781L30.7469 20.2656C30.7469 20.1823 30.7573 20.099 30.7781 20.0156C30.8198 19.9323 30.8406 19.849 30.8406 19.7656L30.8719 19.5156C30.8927 19.4531 30.9031 19.3281 30.9031 19.1406C30.9031 19.0573 30.9135 18.9844 30.9344 18.9219C30.9552 18.8594 30.9656 18.8177 30.9656 18.7969C30.9865 18.7552 30.9969 18.7135 30.9969 18.6719C30.9969 18.6094 31.0177 18.5365 31.0594 18.4531C31.0594 18.0573 31.101 17.6927 31.1844 17.3594C31.1844 17.3385 31.1948 17.276 31.2156 17.1719C31.2365 17.0469 31.2469 16.901 31.2469 16.7344L31.2781 15.9219V13.7031C31.299 13.6823 31.3094 13.599 31.3094 13.4531V13.1094L31.4031 12.9219L31.4969 12.5781C31.4969 12.5573 31.4656 12.5469 31.4031 12.5469C31.3615 12.526 31.2885 12.5156 31.1844 12.5156H30.9031C30.8198 12.5156 30.7677 12.5052 30.7469 12.4844C30.726 12.4427 30.726 12.3698 30.7469 12.2656L30.7156 12.0156C30.7156 11.9948 30.7052 11.9635 30.6844 11.9219C30.6844 11.8802 30.6844 11.8177 30.6844 11.7344V11.4531C30.6635 11.3906 30.6531 11.1302 30.6531 10.6719C30.6531 10.3802 30.6219 10.2344 30.5594 10.2344ZM32.8719 15.1719C32.8719 15.4219 32.8927 15.5677 32.9344 15.6094H33.2469L33.8406 15.5156H34.1844C34.3927 15.4948 34.6531 15.4844 34.9656 15.4844C35.299 15.4844 35.5802 15.4948 35.8094 15.5156L36.4031 15.5469C36.6948 15.5885 36.8406 15.6094 36.8406 15.6094L37.2781 15.6406C37.3823 15.6615 37.4552 15.6719 37.4969 15.6719C37.5385 15.6719 37.5698 15.6615 37.5906 15.6406C37.6323 15.599 37.6635 15.401 37.6844 15.0469C37.6844 14.776 37.6635 14.599 37.6219 14.5156C37.5802 14.4531 37.4969 14.4219 37.3719 14.4219H35.5281L35.1531 14.3906C35.0073 14.3906 34.8823 14.401 34.7781 14.4219C34.6531 14.4219 34.5594 14.4323 34.4969 14.4531C34.4344 14.4948 34.3094 14.5156 34.1219 14.5156C33.9344 14.5156 33.7885 14.5469 33.6844 14.6094L33.4031 14.6719C33.1323 14.7344 32.976 14.7969 32.9344 14.8594C32.8719 14.9844 32.851 15.0885 32.8719 15.1719ZM32.9969 18.9219C32.9969 19.3177 33.0281 19.5677 33.0906 19.6719V20.3906C33.0906 20.8073 33.101 21.0365 33.1219 21.0781L33.1531 21.1094C33.3406 21.1094 33.5177 21.0677 33.6844 20.9844L33.8406 20.9531L34.1844 20.8906L34.7781 20.8281C34.8615 20.8073 34.9552 20.7969 35.0594 20.7969H35.4344L35.6219 20.7344C35.7052 20.7135 35.799 20.7135 35.9031 20.7344C36.0073 20.7344 36.1115 20.724 36.2156 20.7031L36.8094 20.6094L37.0594 20.5781C37.0802 20.5365 37.101 20.3906 37.1219 20.1406C37.1427 19.8906 37.1844 19.6719 37.2469 19.4844L37.2781 19.1094C37.3198 18.9427 37.3406 18.8073 37.3406 18.7031C37.3406 18.6615 37.299 18.6406 37.2156 18.6406C37.1531 18.6198 37.1115 18.6094 37.0906 18.6094L36.9344 18.6406C36.8927 18.6406 36.8094 18.651 36.6844 18.6719C36.5594 18.6927 36.351 18.724 36.0594 18.7656C35.9344 18.7656 35.8615 18.776 35.8406 18.7969C35.799 18.8177 35.7469 18.8281 35.6844 18.8281C35.6219 18.8073 35.5802 18.7865 35.5594 18.7656C35.4969 18.7031 35.3406 18.6719 35.0906 18.6719C35.0281 18.6719 34.8302 18.6927 34.4969 18.7344C34.3719 18.7344 34.2469 18.724 34.1219 18.7031C33.9969 18.6615 33.9135 18.6406 33.8719 18.6406L33.7156 18.6094C33.6948 18.5885 33.6219 18.5781 33.4969 18.5781C33.476 18.5781 33.4448 18.5781 33.4031 18.5781C33.3823 18.5573 33.3302 18.5469 33.2469 18.5469C33.1844 18.526 33.1427 18.526 33.1219 18.5469C33.101 18.5677 33.0906 18.599 33.0906 18.6406C33.0906 18.7865 33.0594 18.8802 32.9969 18.9219ZM42.2469 10.7656C42.2469 10.724 42.2573 10.6823 42.2781 10.6406C42.299 10.599 42.3198 10.5469 42.3406 10.4844L42.5594 10.0469L42.6531 9.92188C42.6948 9.88021 42.7365 9.78646 42.7781 9.64062C42.799 9.57812 42.851 9.51562 42.9344 9.45312C42.9969 9.20312 43.0594 9.04688 43.1219 8.98438C43.1844 8.92188 43.226 8.82812 43.2469 8.70312L43.3406 8.57812L43.5594 7.98438C43.5802 7.96354 43.5906 7.92188 43.5906 7.85938C43.6115 7.79688 43.6427 7.73438 43.6844 7.67188L43.7156 7.39062C43.7781 7.26562 43.8198 7.15104 43.8406 7.04688C43.8406 7.02604 43.8615 6.93229 43.9031 6.76562C44.0073 6.49479 44.0906 6.31771 44.1531 6.23438C44.2156 6.13021 44.299 6.06771 44.4031 6.04688L44.4969 6.01562C44.5177 5.99479 44.549 5.98438 44.5906 5.98438C44.6323 5.96354 44.674 5.94271 44.7156 5.92188H44.8094C44.8302 5.92188 44.8615 5.93229 44.9031 5.95312C44.9656 5.97396 45.0281 5.98438 45.0906 5.98438C45.174 5.98438 45.2365 5.99479 45.2781 6.01562C45.3198 6.01562 45.351 6.03646 45.3719 6.07812C45.4135 6.16146 45.4448 6.20312 45.4656 6.20312L45.7469 6.23438C45.7677 6.27604 45.799 6.31771 45.8406 6.35938C45.9031 6.38021 45.9448 6.40104 45.9656 6.42188C46.0073 6.42188 46.0594 6.44271 46.1219 6.48438C46.1844 6.50521 46.2156 6.52604 46.2156 6.54688L46.2781 6.67188L46.3406 6.92188L46.3719 7.23438C46.4135 7.65104 46.4344 7.94271 46.4344 8.10938C46.4344 8.21354 46.4552 8.29688 46.4969 8.35938C46.5177 8.40104 46.5802 8.42188 46.6844 8.42188C46.8302 8.33854 47.1323 8.29688 47.5906 8.29688L48.0594 8.26562C48.3094 8.22396 48.5177 8.20312 48.6844 8.20312C48.7677 8.20312 49.0906 8.23438 49.6531 8.29688C49.8406 8.33854 50.0594 8.44271 50.3094 8.60938L50.7469 8.70312C50.7885 8.72396 50.8302 8.75521 50.8719 8.79688C50.9135 8.83854 50.9552 8.86979 50.9969 8.89062C51.1219 8.95312 51.1948 9.02604 51.2156 9.10938C51.3198 9.33854 51.4031 9.54688 51.4656 9.73438C51.5281 9.90104 51.5698 10.0156 51.5906 10.0781L51.6219 10.2344L51.6531 10.4844C51.7156 10.5677 51.7469 10.6719 51.7469 10.7969C51.7469 10.9427 51.7573 11.0781 51.7781 11.2031L51.8094 11.5781V12.2969C51.8302 12.3177 51.8406 12.7031 51.8406 13.4531V14.7344C51.9031 15.5052 51.9344 16.224 51.9344 16.8906C51.9552 17.5365 51.9552 17.9844 51.9344 18.2344C51.8719 18.2552 51.8406 18.5365 51.8406 19.0781L51.8094 22.1094C51.7885 22.1719 51.7781 22.2656 51.7781 22.3906L51.7469 22.7656C51.7469 22.7865 51.7052 22.8802 51.6219 23.0469C51.601 23.276 51.5281 23.599 51.4031 24.0156L51.2469 24.4844C51.2052 24.6094 51.1844 24.776 51.1844 24.9844L51.1531 25.1094C51.1323 25.1302 51.1219 25.1823 51.1219 25.2656L51.0906 25.2969C51.0698 25.3177 50.9969 25.5573 50.8719 26.0156C50.6635 26.599 50.4656 26.974 50.2781 27.1406C50.1948 27.2031 50.1531 27.2552 50.1531 27.2969C50.1323 27.2969 50.1115 27.3073 50.0906 27.3281C50.0698 27.349 50.049 27.3594 50.0281 27.3594L49.9656 27.4219C49.9448 27.4427 49.9344 27.474 49.9344 27.5156C49.9344 27.5365 49.924 27.5573 49.9031 27.5781C49.8406 27.6406 49.8094 27.7031 49.8094 27.7656C49.8094 27.7865 49.799 27.8073 49.7781 27.8281C49.7573 27.849 49.7365 27.8594 49.7156 27.8594L49.4969 28.0781L49.2469 28.2031L49.0906 28.3281L48.6844 28.6406C48.6219 28.7031 48.5385 28.7656 48.4344 28.8281C48.3302 28.8906 48.2469 28.9427 48.1844 28.9844L47.9969 29.0469C47.8927 29.0677 47.7781 29.099 47.6531 29.1406C47.549 29.1823 47.4448 29.224 47.3406 29.2656C47.3198 29.3073 47.2885 29.3073 47.2469 29.2656C47.226 29.2448 47.1427 29.2448 46.9969 29.2656C46.9135 29.2656 46.8198 29.2448 46.7156 29.2031L46.4969 29.0469L46.3719 28.9844H45.8406C45.6323 28.9844 45.4656 28.974 45.3406 28.9531C45.2365 28.9531 45.1531 28.9323 45.0906 28.8906C45.049 28.849 45.0073 28.7969 44.9656 28.7344C44.924 28.6719 44.8927 28.6198 44.8719 28.5781L44.8406 28.4219C44.8198 28.401 44.8094 28.3281 44.8094 28.2031L44.7156 27.7344C44.6948 27.6927 44.674 27.6406 44.6531 27.5781C44.6323 27.4948 44.5802 27.3802 44.4969 27.2344C44.4552 27.1302 44.4344 27.0052 44.4344 26.8594C44.4344 26.7135 44.4031 26.6302 44.3406 26.6094C44.2573 26.526 44.2156 26.4219 44.2156 26.2969C44.2156 26.2135 44.2052 26.151 44.1844 26.1094C44.1635 26.0469 44.1219 26.0052 44.0594 25.9844C43.9969 25.9427 43.9656 25.8802 43.9656 25.7969C43.9656 25.6927 44.0177 25.5885 44.1219 25.4844C44.1635 25.4427 44.2156 25.4115 44.2781 25.3906C44.3406 25.3698 44.3927 25.3594 44.4344 25.3594L44.5594 25.2656C44.601 25.2656 44.6531 25.2448 44.7156 25.2031C44.7781 25.1615 44.8198 25.1406 44.8406 25.1406C44.8823 25.099 44.9344 25.0677 44.9969 25.0469C45.0802 25.026 45.1531 24.9844 45.2156 24.9219L45.4344 24.7344L45.6219 24.6719C45.6219 24.6094 45.6427 24.5677 45.6844 24.5469C45.726 24.526 45.7781 24.474 45.8406 24.3906C45.924 24.3073 45.9865 24.2448 46.0281 24.2031C46.1948 24.1406 46.299 24.0781 46.3406 24.0156C46.4448 23.9115 46.5177 23.849 46.5594 23.8281C46.6427 23.7656 46.726 23.6823 46.8094 23.5781C46.8927 23.4531 46.9552 23.3802 46.9969 23.3594C47.0802 23.3177 47.174 23.2135 47.2781 23.0469C47.299 23.026 47.3198 22.9948 47.3406 22.9531C47.3615 22.8906 47.3823 22.8281 47.4031 22.7656C47.6115 22.3073 47.7781 21.9427 47.9031 21.6719C48.049 21.401 48.1323 21.224 48.1531 21.1406L48.3719 20.5469L48.6219 19.8906L48.7469 18.9844L48.7781 18.5469C48.799 18.5052 48.8094 18.3594 48.8094 18.1094C48.8094 17.9844 48.8406 17.8906 48.9031 17.8281C48.924 17.7448 48.9344 17.6302 48.9344 17.4844C48.9344 17.3385 48.9448 17.2135 48.9656 17.1094L49.0594 16.0781C49.0802 15.9323 49.0906 15.7552 49.0906 15.5469C49.174 14.9635 49.2156 14.4531 49.2156 14.0156C49.2156 13.3906 49.226 13.0052 49.2469 12.8594C49.2469 12.5677 49.226 12.3906 49.1844 12.3281C49.1635 12.2656 49.101 12.2135 48.9969 12.1719L48.7781 12.2031C48.6115 12.2448 48.3094 12.2656 47.8719 12.2656H47.7469C47.726 12.2865 47.674 12.2969 47.5906 12.2969L47.4969 12.3281C47.4552 12.3906 47.3719 12.4531 47.2469 12.5156C47.1427 12.5156 47.0698 12.5365 47.0281 12.5781C46.9448 12.6198 46.8927 12.6406 46.8719 12.6406L46.6531 12.8281C46.6531 12.8698 46.6323 12.8906 46.5906 12.8906C46.4865 12.9531 46.424 12.9948 46.4031 13.0156C46.3823 13.0156 46.3615 13.026 46.3406 13.0469C46.3406 13.0677 46.3198 13.0781 46.2781 13.0781C46.2365 13.0781 46.1844 13.0885 46.1219 13.1094C46.0594 13.1302 46.0177 13.1615 45.9969 13.2031L45.8406 13.3906H45.7781C45.5906 13.3906 45.476 13.4427 45.4344 13.5469L45.3719 13.7031C45.2677 13.7448 45.0802 13.8802 44.8094 14.1094C44.5802 14.3177 44.4552 14.4219 44.4344 14.4219C44.2677 14.4219 44.174 14.3802 44.1531 14.2969C44.1531 14.2552 44.1115 14.2031 44.0281 14.1406L43.9031 14.0781C43.8615 14.0573 43.8198 14.0469 43.7781 14.0469C43.7365 14.0469 43.7052 14.0573 43.6844 14.0781C43.5385 14.0781 43.4448 14.0677 43.4031 14.0469H43.2156C43.0073 14.0469 42.8615 14.0365 42.7781 14.0156C42.7365 13.974 42.7156 13.8177 42.7156 13.5469V13.2344C42.6531 13.1302 42.6219 12.9948 42.6219 12.8281L42.5281 12.2656C42.4865 12.224 42.4656 12.1198 42.4656 11.9531V11.5781C42.4448 11.5156 42.4448 11.4219 42.4656 11.2969C42.4656 11.1094 42.424 10.9948 42.3406 10.9531C42.3198 10.9115 42.299 10.8802 42.2781 10.8594C42.2573 10.8385 42.2469 10.8073 42.2469 10.7656Z" fill="#4A443D"/>
<path d="M67.4781 31.2969C67.374 31.2969 67.2906 31.2656 67.2281 31.2031L67.1969 31.1719C67.0927 31.151 67.0094 31.151 66.9469 31.1719H66.6656C66.5823 31.2135 66.5094 31.2344 66.4469 31.2344C66.2802 31.2344 66.1344 31.0885 66.0094 30.7969L65.7906 30.0781L65.7281 29.9531L65.6656 29.7344C65.6656 29.7344 65.6656 29.7448 65.6656 29.7656C65.6865 29.8073 65.6865 29.8177 65.6656 29.7969V29.7344L65.6031 29.5781L65.5719 29.4531C65.551 29.4531 65.5198 29.3906 65.4781 29.2656C65.3323 29.0156 65.2802 28.7448 65.3219 28.4531C65.3427 28.4323 65.3531 28.3906 65.3531 28.3281L65.3844 28.1719C65.3844 28.0469 65.3948 27.9531 65.4156 27.8906V27.8281C65.4365 27.7656 65.4469 27.6615 65.4469 27.5156C65.4677 27.4323 65.4781 27.349 65.4781 27.2656C65.4781 27.1823 65.4885 27.1094 65.5094 27.0469L65.5406 26.9219V26.7344C65.5406 26.5885 65.551 26.474 65.5719 26.3906C65.5927 26.3281 65.6031 26.0885 65.6031 25.6719L65.6656 24.0469V23.7344C65.6656 23.651 65.6969 23.6094 65.7594 23.6094C65.8219 23.6094 65.8635 23.6198 65.8844 23.6406C65.8635 23.6615 65.8323 23.724 65.7906 23.8281C65.749 23.9115 65.6865 24.0156 65.6031 24.1406L65.3844 24.4531L65.1031 24.7969L64.6656 25.3594C64.5823 25.5052 64.3844 25.7344 64.0719 26.0469C63.9052 26.276 63.7698 26.4219 63.6656 26.4844C63.624 26.5469 63.5719 26.599 63.5094 26.6406L63.4156 26.7344C63.124 27.026 62.9781 27.1719 62.9781 27.1719L62.2594 27.7969C61.9677 28.1094 61.7385 28.3073 61.5719 28.3906L61.4156 28.4844C61.1448 28.651 60.9573 28.7344 60.8531 28.7344C60.749 28.7135 60.5615 28.6406 60.2906 28.5156C60.249 28.4531 60.1969 28.4115 60.1344 28.3906C60.0719 28.3698 59.9573 28.3594 59.7906 28.3594C59.5615 28.3594 59.426 28.3073 59.3844 28.2031C59.3427 28.099 59.3115 27.8802 59.2906 27.5469L59.2594 27.0781V26.9844C59.2385 26.9427 59.2281 26.849 59.2281 26.7031L59.1969 26.3906V26.3594C59.1969 26.2552 59.2177 26.1615 59.2594 26.0781L59.4781 26.2031C59.4781 26.099 59.4677 26.026 59.4469 25.9844L59.2594 26.1406C59.1552 25.9948 59.1031 25.8906 59.1031 25.8281C59.1031 25.7031 59.1865 25.5781 59.3531 25.4531L59.4156 25.4219L59.5094 25.3594C59.676 25.2552 59.801 25.2031 59.8844 25.2031C59.926 25.2031 59.9573 25.1719 59.9781 25.1094C60.0406 24.9427 60.2385 24.7865 60.5719 24.6406L60.6344 24.6094C60.6344 24.6094 60.676 24.5677 60.7594 24.4844L60.9781 24.3594L61.0719 24.2969L61.2594 24.2344C61.2802 24.2344 61.2698 24.2448 61.2281 24.2656C61.2073 24.2865 61.1865 24.2969 61.1656 24.2969C61.1448 24.2969 61.1448 24.276 61.1656 24.2344H61.1969C61.2802 24.151 61.3219 24.1094 61.3219 24.1094C61.3427 24.0885 61.374 24.0781 61.4156 24.0781C61.374 24.1198 61.3635 24.1198 61.3844 24.0781C61.3844 24.0781 61.426 24.0365 61.5094 23.9531L61.6656 23.7969C61.8323 23.7135 61.9781 23.6094 62.1031 23.4844L62.7594 22.8281C63.1135 22.5156 63.3427 22.3594 63.4469 22.3594C63.4677 22.3385 63.4885 22.2969 63.5094 22.2344C63.5302 22.1719 63.5823 22.0885 63.6656 21.9844L63.8219 21.8594C63.9469 21.7344 64.0615 21.6719 64.1656 21.6719C64.2073 21.6719 64.2073 21.6927 64.1656 21.7344C64.1448 21.776 64.1135 21.7969 64.0719 21.7969C64.0302 21.7969 64.0302 21.7552 64.0719 21.6719C64.1135 21.5677 64.2073 21.4427 64.3531 21.2969C64.5406 21.1094 64.6865 21.0052 64.7906 20.9844C64.8323 20.9635 64.874 20.9323 64.9156 20.8906C64.9573 20.849 64.9781 20.8073 64.9781 20.7656C65.0615 20.5781 65.1656 20.4427 65.2906 20.3594L65.3844 20.2344C65.4885 20.0885 65.5406 20.0156 65.5406 20.0156L65.7906 20.1094L65.7594 20.0469L65.6344 20.2656C65.676 20.2865 65.7073 20.2969 65.7281 20.2969C65.749 20.276 65.749 20.276 65.7281 20.2969L65.1031 20.4531C65.0615 20.4531 65.0094 20.4635 64.9469 20.4844C64.8844 20.5052 64.8635 20.5052 64.8844 20.4844L64.6969 20.5469L64.4156 20.5781C64.3531 20.5781 64.3115 20.5885 64.2906 20.6094C64.124 20.651 63.9156 20.6927 63.6656 20.7344C63.4365 20.7552 63.2698 20.7552 63.1656 20.7344L63.0094 20.6094C63.0094 20.5885 62.999 20.5781 62.9781 20.5781L62.8844 20.4844L62.5719 20.4531C62.4469 20.4323 62.3219 20.3906 62.1969 20.3281C62.0719 20.2656 61.9885 20.2031 61.9469 20.1406C61.8844 20.0781 61.8427 19.9948 61.8219 19.8906C61.8219 19.7656 61.8219 19.599 61.8219 19.3906C61.8219 19.2656 61.8115 19.1615 61.7906 19.0781C61.7906 18.974 61.8115 18.9531 61.8531 19.0156L61.7906 18.8281V18.5781C61.7698 18.474 61.7594 18.3594 61.7594 18.2344V17.9219V17.9531C61.7594 17.9323 61.7594 17.9219 61.7594 17.9219C61.7594 17.901 61.749 17.8906 61.7281 17.8906C61.7073 17.8281 61.6969 17.7448 61.6969 17.6406C61.6969 17.4948 61.7802 17.3698 61.9469 17.2656C61.9885 17.2448 62.0094 17.2552 62.0094 17.2969C62.0094 17.3177 62.0198 17.2865 62.0406 17.2031L62.4469 16.7656C62.5094 16.6823 62.5615 16.6406 62.6031 16.6406C62.6656 16.6198 62.6865 16.5885 62.6656 16.5469L62.8531 16.3281L63.0406 16.2344C62.999 16.2344 62.9885 16.2135 63.0094 16.1719C63.0094 16.1302 63.0198 16.099 63.0406 16.0781L63.1656 15.8594L63.1969 15.7969C63.2177 15.7344 63.2385 15.6823 63.2594 15.6406C63.2802 15.599 63.301 15.5677 63.3219 15.5469C63.3219 15.5469 63.3219 15.5573 63.3219 15.5781L63.4156 15.4219C63.4156 15.401 63.4469 15.3281 63.5094 15.2031C63.5302 15.1823 63.5302 15.2031 63.5094 15.2656C63.4885 15.3073 63.4781 15.3073 63.4781 15.2656L63.5094 15.1719C63.551 15.0677 63.5927 14.9948 63.6344 14.9531C63.6552 14.9323 63.6656 14.9219 63.6656 14.9219C63.7073 14.8802 63.7281 14.849 63.7281 14.8281L63.9469 14.9531C63.9677 14.8906 63.9677 14.8385 63.9469 14.7969H63.6969V14.8281C63.6552 14.7448 63.6344 14.651 63.6344 14.5469V13.7656L63.8219 13.5469C63.8635 13.5052 63.9469 13.4531 64.0719 13.3906L64.1344 13.3594L64.3219 13.3281C64.5719 13.2656 64.7177 13.2344 64.7594 13.2344L64.9156 13.2031H64.9781L65.1031 13.1719C65.124 13.1719 65.1448 13.1719 65.1656 13.1719C65.1865 13.1719 65.2073 13.1719 65.2281 13.1719L65.3531 13.1406C65.3948 13.1198 65.4156 13.1198 65.4156 13.1406C65.4156 13.1406 65.4052 13.151 65.3844 13.1719L65.5719 13.1094C65.6969 13.1094 65.801 13.099 65.8844 13.0781C65.9885 13.0781 66.0719 13.0677 66.1344 13.0469H66.1969C66.4052 12.9844 66.5094 13.0156 66.5094 13.1406C66.5094 13.2031 66.4781 13.276 66.4156 13.3594C66.3531 13.4427 66.2906 13.4844 66.2281 13.4844C66.1031 13.4844 66.0719 13.3073 66.1344 12.9531L66.1656 12.7344C66.1656 12.6094 66.176 12.5052 66.1969 12.4219L66.2594 12.2031C66.2177 12.224 66.1552 12.2344 66.0719 12.2344C65.9885 12.2344 65.9156 12.2448 65.8531 12.2656C65.7906 12.2656 65.749 12.2656 65.7281 12.2656C65.7073 12.2656 65.7073 12.2344 65.7281 12.1719L65.5094 12.2969C65.4052 12.2969 65.3115 12.276 65.2281 12.2344C65.1031 12.2344 65.0198 12.224 64.9781 12.2031C64.8948 12.2031 64.8323 12.1927 64.7906 12.1719H64.7281L64.5406 12.1094C64.5823 12.1302 64.5719 12.1406 64.5094 12.1406L64.3531 12.1094L64.0094 12.0469L63.6969 11.8906V11.8594C63.5302 11.7969 63.4469 11.6927 63.4469 11.5469L63.4156 11.4844C63.3531 11.401 63.3219 11.2344 63.3219 10.9844C63.3219 10.8802 63.3531 10.8385 63.4156 10.8594C63.499 10.8594 63.5406 10.8802 63.5406 10.9219L63.3219 10.7656C63.2385 10.6406 63.1969 10.5156 63.1969 10.3906V10.2344L63.2281 10.1406C63.2906 10.0156 63.3531 9.93229 63.4156 9.89062L63.5406 9.79688C63.6656 9.67188 63.8115 9.60938 63.9781 9.60938L64.1969 9.51562L64.7281 9.29688C64.8531 9.25521 64.9156 9.27604 64.9156 9.35938C64.9156 9.40104 64.874 9.45312 64.7906 9.51562C64.7281 9.57812 64.6969 9.57812 64.6969 9.51562L64.9469 9.26562H65.1656C65.1865 9.24479 65.2177 9.23438 65.2594 9.23438L65.3844 9.20312H65.4156L65.7906 9.10938C65.8948 9.02604 66.0927 8.98438 66.3844 8.98438L66.5719 8.95312C66.5927 8.95312 66.6031 8.96354 66.6031 8.98438L66.6656 8.95312C66.749 8.91146 67.0927 8.86979 67.6969 8.82812C67.9885 8.80729 68.2802 8.79688 68.5719 8.79688C68.8635 8.79688 69.0823 8.80729 69.2281 8.82812C69.2698 8.84896 69.3427 8.85938 69.4469 8.85938C69.7594 8.88021 70.176 9.02604 70.6969 9.29688C70.8635 9.38021 70.999 9.46354 71.1031 9.54688C71.2073 9.63021 71.2802 9.71354 71.3219 9.79688C71.4052 9.85938 71.4677 9.95312 71.5094 10.0781L71.5406 10.1406V10.2656L71.5719 10.6094V10.9219C71.5719 11.3385 71.5615 11.599 71.5406 11.7031L71.5094 11.9844L71.3844 12.5156L71.3531 12.6406L71.2906 12.8281L71.1969 13.1719L70.9469 14.1406C70.9052 14.349 70.8844 14.4635 70.8844 14.4844L70.8219 14.8281L70.7906 14.9531C70.7698 14.974 70.7594 15.0052 70.7594 15.0469L70.7281 15.1406V15.1719L70.3219 15.2969H69.8219C69.2177 15.2969 68.8531 15.2865 68.7281 15.2656C68.6865 15.4323 68.6552 15.5156 68.6344 15.5156L68.7281 16.5156L68.7906 16.5469C68.8531 16.5469 68.9156 16.5365 68.9781 16.5156C69.0615 16.4948 69.1448 16.474 69.2281 16.4531C69.3531 16.4323 69.7906 16.4219 70.5406 16.4219C70.6656 16.4219 70.8531 16.3698 71.1031 16.2656C71.374 16.1615 71.5615 16.1094 71.6656 16.1094H72.2906C72.5615 16.1094 72.749 16.1198 72.8531 16.1406C72.9573 16.1406 73.0406 16.1406 73.1031 16.1406H73.1969C73.2385 16.1615 73.2906 16.1719 73.3531 16.1719C73.5615 16.1927 73.9365 16.3281 74.4781 16.5781C74.7073 16.724 74.9052 16.8906 75.0719 17.0781C75.301 17.4115 75.426 17.7448 75.4469 18.0781L75.5094 19.3281C75.5302 19.599 75.5094 20.224 75.4469 21.2031C75.4052 21.7031 75.3844 22.026 75.3844 22.1719V22.3281C75.3635 22.4115 75.3531 22.5052 75.3531 22.6094C75.3115 22.6719 75.2906 22.7865 75.2906 22.9531V23.0156C75.2281 23.2656 75.1969 23.4948 75.1969 23.7031C75.0927 24.3281 74.9781 24.7344 74.8531 24.9219C74.7281 25.1927 74.5823 25.3594 74.4156 25.4219L74.2281 25.6094C74.1656 25.6719 74.0927 25.724 74.0094 25.7656C73.9469 25.7865 73.874 25.7969 73.7906 25.7969L73.7594 25.8281L73.6344 25.8594C73.5719 25.901 73.4677 25.9219 73.3219 25.9219L73.0719 25.9844H73.1031L72.9781 26.0156L72.9156 26.0469C72.874 26.0677 72.8115 26.0781 72.7281 26.0781H72.6344C72.6135 26.0573 72.5615 26.0573 72.4781 26.0781C72.374 26.099 72.2177 26.1094 72.0094 26.1094C71.801 26.0885 71.6552 26.0573 71.5719 26.0156C71.4885 25.974 71.4365 25.9427 71.4156 25.9219L71.3531 25.8906C71.374 25.8906 71.3635 25.8802 71.3219 25.8594L71.1344 25.7656C71.051 25.724 70.9573 25.6927 70.8531 25.6719C70.3948 25.6302 70.0823 25.526 69.9156 25.3594C69.7906 25.2969 69.6656 25.1302 69.5406 24.8594C69.4781 24.6927 69.4469 24.5573 69.4469 24.4531C69.4469 24.3281 69.4365 24.2344 69.4156 24.1719V23.7969C69.4156 23.7344 69.4052 23.6823 69.3844 23.6406L69.3531 23.4844L69.2594 22.9219V22.7344C69.2385 22.651 69.2281 22.5365 69.2281 22.3906V22.2031L69.2906 22.2656C69.2906 22.2448 69.2385 22.151 69.1344 21.9844C69.051 21.7969 69.051 21.6719 69.1344 21.6094L69.2594 21.5156C69.301 21.474 69.3844 21.4531 69.5094 21.4531C70.0302 21.4531 70.4573 21.474 70.7906 21.5156C71.124 21.5573 71.3531 21.5781 71.4781 21.5781H71.6656C71.8531 21.5781 72.0094 21.5885 72.1344 21.6094C72.2594 21.6094 72.3635 21.599 72.4469 21.5781C72.551 21.5573 72.6552 21.4323 72.7594 21.2031C72.8635 21.0156 72.9573 20.6719 73.0406 20.1719C73.0406 20.026 73.0615 19.8698 73.1031 19.7031C73.1448 19.5156 73.1552 19.3698 73.1344 19.2656L72.9781 19.0469H72.9156V19.2969H72.7906C72.7698 19.3177 72.7281 19.3281 72.6656 19.3281C72.6031 19.349 72.5302 19.3594 72.4469 19.3594C72.3844 19.3385 72.3219 19.3281 72.2594 19.3281H71.9781L71.4469 19.3594C71.3635 19.4219 71.2281 19.4323 71.0406 19.3906L71.1031 19.1406L70.9156 19.1719L71.0094 19.3906C70.7385 19.5156 70.301 19.5781 69.6969 19.5781H69.5719C69.426 19.6198 69.1344 19.6406 68.6969 19.6406C68.6344 19.6406 68.6031 19.6302 68.6031 19.6094C68.6448 19.5885 68.6656 19.6615 68.6656 19.8281C68.6656 19.974 68.6552 20.151 68.6344 20.3594C68.5927 20.776 68.5719 21.1302 68.5719 21.4219C68.5719 23.026 68.5615 23.901 68.5406 24.0469C68.5406 25.2135 68.551 25.8281 68.5719 25.8906C68.5927 25.9323 68.6031 26.349 68.6031 27.1406C68.6031 28.0365 68.5927 28.5885 68.5719 28.7969L68.5406 29.3906V29.4531L68.5094 29.7031L68.4781 29.9219V29.9531L68.4156 30.1406C68.374 30.1823 68.3635 30.1719 68.3844 30.1094C68.426 30.0469 68.4469 30.0469 68.4469 30.1094C68.426 30.1302 68.4156 30.1719 68.4156 30.2344L68.1031 30.8906C67.9781 31.0573 67.874 31.1615 67.7906 31.2031C67.7073 31.2656 67.6031 31.2969 67.4781 31.2969ZM65.4469 16.9531C65.551 16.9531 65.6135 16.9427 65.6344 16.9219L65.9469 16.8906C66.2177 16.849 66.374 16.7969 66.4156 16.7344C66.4573 16.6927 66.4781 16.6094 66.4781 16.4844C66.4781 16.3594 66.4573 16.2865 66.4156 16.2656C66.4156 16.224 66.3531 16.2031 66.2281 16.2031C66.124 16.2031 66.0302 16.224 65.9469 16.2656L65.8531 16.2969L65.4781 16.2031C65.3948 16.2031 65.3323 16.2031 65.2906 16.2031C65.249 16.1823 65.2177 16.1719 65.1969 16.1719C65.1135 16.1719 65.0719 16.2448 65.0719 16.3906L65.0406 16.5156L64.9781 16.9219C64.9781 16.9635 64.999 16.9948 65.0406 17.0156C65.1031 17.0156 65.176 17.0052 65.2594 16.9844L65.4469 16.9531ZM68.1969 13.1094C68.2594 13.1302 68.3219 13.1406 68.3844 13.1406C68.4677 13.1406 68.5406 13.1302 68.6031 13.1094H68.9781C69.2073 13.1094 69.3427 13.099 69.3844 13.0781C69.426 13.0365 69.4469 12.9115 69.4469 12.7031L69.4781 12.4219V12.3281C69.4781 12.1406 69.4573 12.0052 69.4156 11.9219C69.374 11.901 69.301 11.8906 69.1969 11.8906C69.0927 11.8906 68.999 11.901 68.9156 11.9219H68.5406L68.1969 11.9531C68.176 11.9531 68.1656 12.1406 68.1656 12.5156C68.1656 12.9115 68.176 13.1094 68.1969 13.1094ZM59.7281 8.85938C59.7281 8.83854 59.7281 8.82812 59.7281 8.82812L59.6969 8.67188C59.7177 8.69271 59.7385 8.73438 59.7594 8.79688C59.7802 8.83854 59.7594 8.82812 59.6969 8.76562L59.6031 8.67188H59.6969L59.8219 8.54688C59.7802 8.63021 59.7073 8.68229 59.6031 8.70312C59.5198 8.72396 59.426 8.71354 59.3219 8.67188L59.2281 8.57812C59.249 8.55729 59.2802 8.55729 59.3219 8.57812C59.3844 8.59896 59.426 8.61979 59.4469 8.64062H59.0719L58.9469 8.54688L58.8844 8.39062V8.35938L58.8531 7.92188V7.48438C58.8323 7.38021 58.8219 7.21354 58.8219 6.98438V6.73438C58.8219 6.44271 58.8427 6.21354 58.8844 6.04688V5.98438L58.9156 5.79688L58.9781 5.51562L59.0719 5.32812C59.1135 5.18229 59.1448 5.09896 59.1656 5.07812C59.1656 5.03646 59.1865 4.97396 59.2281 4.89062C59.2281 4.80729 59.2698 4.72396 59.3531 4.64062L59.4469 4.35938V4.26562C59.5302 4.01562 59.5719 3.89062 59.5719 3.89062C59.6969 3.51562 59.7698 3.26562 59.7906 3.14062L59.8219 2.92188L59.8531 2.82812V2.79688C59.8531 2.73438 59.874 2.68229 59.9156 2.64062L59.9469 2.45312V2.35938L59.9781 2.32812C59.9573 2.30729 59.9677 2.26562 60.0094 2.20312C60.0094 2.07812 60.0198 1.99479 60.0406 1.95312C60.124 1.89062 60.2073 1.83854 60.2906 1.79688C60.374 1.73438 60.4365 1.70312 60.4781 1.70312L60.5719 1.48438H60.6031C60.7073 1.48438 60.8323 1.53646 60.9781 1.64062C61.1448 1.72396 61.2594 1.81771 61.3219 1.92188C61.426 2.06771 61.5094 2.22396 61.5719 2.39062C61.5719 2.43229 61.5823 2.46354 61.6031 2.48438C61.6031 2.46354 61.624 2.57812 61.6656 2.82812L61.6969 2.89062V3.10938L61.7594 3.48438V3.45312C61.7594 3.26562 61.7906 3.14062 61.8531 3.07812C61.874 3.03646 61.9156 3.00521 61.9781 2.98438C62.0406 2.94271 62.1031 2.92188 62.1656 2.92188C62.124 2.92188 62.1135 2.91146 62.1344 2.89062C62.1552 2.86979 62.1969 2.83854 62.2594 2.79688C62.3219 2.75521 62.3844 2.73438 62.4469 2.73438H62.4781C62.5615 2.69271 62.624 2.67188 62.6656 2.67188C62.7073 2.67188 62.7385 2.66146 62.7594 2.64062L62.9781 2.57812H63.0094C63.051 2.53646 63.1031 2.51562 63.1656 2.51562C63.3531 2.45312 63.5302 2.42188 63.6969 2.42188C63.9885 2.42188 64.3219 2.51562 64.6969 2.70312C64.8635 2.78646 64.999 2.86979 65.1031 2.95312C65.2073 3.03646 65.2802 3.14062 65.3219 3.26562C65.3635 3.51562 65.3844 3.77604 65.3844 4.04688C65.3844 4.31771 65.374 4.50521 65.3531 4.60938C65.3531 4.69271 65.3323 4.77604 65.2906 4.85938C65.2281 4.98438 65.0719 5.06771 64.8219 5.10938C64.7177 5.10938 64.5198 5.15104 64.2281 5.23438C64.1448 5.27604 64.0823 5.29688 64.0406 5.29688C64.0406 5.29688 64.051 5.28646 64.0719 5.26562C64.1135 5.24479 64.1448 5.24479 64.1656 5.26562C64.124 5.28646 64.0615 5.30729 63.9781 5.32812C63.9156 5.34896 63.9052 5.35938 63.9469 5.35938H63.9781L63.7906 5.39062C63.6656 5.39062 63.6031 5.34896 63.6031 5.26562C63.624 5.18229 63.6656 5.11979 63.7281 5.07812C63.7906 5.03646 63.8219 5.07812 63.8219 5.20312L63.7594 5.04688L63.8844 5.17188C64.0094 5.35938 64.2802 5.58854 64.6969 5.85938C64.801 5.90104 64.926 5.99479 65.0719 6.14062C65.1552 6.26562 65.1969 6.42188 65.1969 6.60938L65.2594 6.79688V6.95312L65.2281 7.10938L65.1969 7.17188L65.1656 7.48438C65.1656 7.56771 65.1448 7.63021 65.1031 7.67188V7.73438C65.1448 7.85938 65.1552 7.95312 65.1344 8.01562L65.1031 8.10938C65.0406 8.23438 64.9156 8.33854 64.7281 8.42188C64.6865 8.44271 64.551 8.45312 64.3219 8.45312C64.1552 8.45312 64.0406 8.44271 63.9781 8.42188L63.8844 8.39062H63.8531L63.4469 8.23438L63.1344 8.07812H63.0406L62.9781 8.04688L62.5719 7.79688L62.3531 7.67188C62.2073 7.58854 62.0406 7.46354 61.8531 7.29688C61.6865 7.13021 61.5719 6.99479 61.5094 6.89062L61.4156 6.73438C61.374 6.65104 61.3323 6.59896 61.2906 6.57812L61.2281 6.39062L61.3844 6.45312L61.5094 6.29688C61.5094 6.33854 61.4885 6.42188 61.4469 6.54688C61.4052 6.67188 61.3844 6.74479 61.3844 6.76562C61.3844 6.86979 61.3531 6.98438 61.2906 7.10938L61.2281 7.35938C61.1448 7.56771 61.0406 7.80729 60.9156 8.07812C60.8115 8.32812 60.7073 8.53646 60.6031 8.70312C60.374 8.95312 60.1865 9.07812 60.0406 9.07812C59.9365 9.07812 59.8323 9.00521 59.7281 8.85938ZM72.1969 7.79688C71.9677 7.73438 71.8219 7.68229 71.7594 7.64062L71.5406 7.57812L71.3844 7.48438C71.3635 7.46354 71.301 7.43229 71.1969 7.39062C71.1135 7.32812 71.0094 7.25521 70.8844 7.17188C70.551 7.02604 70.3115 6.91146 70.1656 6.82812C70.0198 6.74479 69.8635 6.63021 69.6969 6.48438C69.5094 6.25521 69.3948 6.09896 69.3531 6.01562C69.3323 5.95312 69.301 5.91146 69.2594 5.89062C69.2385 5.84896 69.2281 5.81771 69.2281 5.79688C69.2073 5.75521 69.176 5.75521 69.1344 5.79688L69.0406 6.04688C68.8948 6.48438 68.7385 6.84896 68.5719 7.14062C68.4052 7.43229 68.2698 7.57812 68.1656 7.57812C68.124 7.57812 68.0927 7.55729 68.0719 7.51562L68.0094 7.39062C67.9885 7.39062 67.9677 7.38021 67.9469 7.35938C67.926 7.33854 67.9156 7.31771 67.9156 7.29688C67.8948 7.27604 67.8531 7.26562 67.7906 7.26562C67.749 7.28646 67.7073 7.29688 67.6656 7.29688C67.624 7.27604 67.6031 7.26562 67.6031 7.26562C67.5823 7.24479 67.5406 7.23438 67.4781 7.23438C67.3948 7.23438 67.3427 7.20312 67.3219 7.14062C67.3219 7.07812 67.3219 6.96354 67.3219 6.79688C67.3219 6.48438 67.3115 6.26562 67.2906 6.14062C67.2698 5.99479 67.2385 5.89062 67.1969 5.82812C67.1135 5.74479 67.1031 5.65104 67.1656 5.54688C67.1865 5.52604 67.1969 5.48438 67.1969 5.42188L67.2594 5.29688C67.2802 5.27604 67.3323 5.08854 67.4156 4.73438C67.4156 4.69271 67.4365 4.63021 67.4781 4.54688L67.5094 4.39062C67.5302 4.36979 67.551 4.33854 67.5719 4.29688C67.5927 4.23438 67.6135 4.17188 67.6344 4.10938L67.7281 3.79688L67.7906 3.67188C67.8531 3.54688 67.8844 3.47396 67.8844 3.45312L67.9781 3.10938L68.0719 2.82812C68.0719 2.78646 68.0823 2.75521 68.1031 2.73438C68.124 2.69271 68.1344 2.65104 68.1344 2.60938L68.4156 1.76562C68.4156 1.72396 68.426 1.67188 68.4469 1.60938C68.4885 1.54688 68.5198 1.49479 68.5406 1.45312L68.6031 1.32812C68.624 1.22396 68.6865 1.11979 68.7906 1.01562C68.8323 0.994792 68.8948 0.994792 68.9781 1.01562C69.2698 1.20312 69.4156 1.30729 69.4156 1.32812C69.4573 1.39062 69.499 1.52604 69.5406 1.73438C69.5823 1.92188 69.6031 2.09896 69.6031 2.26562C69.6031 2.32812 69.6135 2.38021 69.6344 2.42188C69.6552 2.46354 69.676 2.47396 69.6969 2.45312C69.7594 2.39062 69.801 2.35938 69.8219 2.35938L70.0094 2.23438C70.051 2.17188 70.1031 2.14062 70.1656 2.14062L70.2281 2.07812L70.3531 2.04688L70.5094 1.98438L70.6969 1.92188L70.8219 1.85938C71.0927 1.75521 71.2906 1.70312 71.4156 1.70312L71.6031 1.64062H72.2281C72.3323 1.64062 72.426 1.65104 72.5094 1.67188C72.6344 1.71354 72.7385 1.75521 72.8219 1.79688C72.8635 1.83854 72.8948 1.86979 72.9156 1.89062C72.9573 1.89062 72.9885 1.90104 73.0094 1.92188C73.1135 1.94271 73.2073 2.00521 73.2906 2.10938C73.3115 2.13021 73.3219 2.19271 73.3219 2.29688C73.3219 2.44271 73.3323 2.53646 73.3531 2.57812C73.374 2.61979 73.374 2.67188 73.3531 2.73438L73.3219 2.95312C73.3219 3.03646 73.2906 3.15104 73.2281 3.29688C73.2281 3.35938 73.249 3.41146 73.2906 3.45312C73.2906 3.51562 73.2698 3.57812 73.2281 3.64062C73.2073 3.72396 73.124 3.77604 72.9781 3.79688C72.8948 3.83854 72.8323 3.85938 72.7906 3.85938C72.7073 3.90104 72.624 3.92188 72.5406 3.92188L72.1969 4.04688L71.9469 4.07812C71.8635 4.07812 71.8115 4.08854 71.7906 4.10938L71.6031 4.14062C71.4781 4.14062 71.4156 4.16146 71.4156 4.20312C71.4781 4.24479 71.5927 4.28646 71.7594 4.32812L72.0094 4.45312C72.0302 4.45312 72.1031 4.48438 72.2281 4.54688C72.4156 4.60938 72.6552 4.71354 72.9469 4.85938C73.2385 5.00521 73.4573 5.14062 73.6031 5.26562C73.7073 5.39062 73.7698 5.56771 73.7906 5.79688C73.7906 6.04688 73.7802 6.27604 73.7594 6.48438C73.7594 6.58854 73.7385 6.72396 73.6969 6.89062C73.6552 6.97396 73.6448 7.06771 73.6656 7.17188C73.6656 7.25521 73.6552 7.33854 73.6344 7.42188C73.6135 7.48438 73.5615 7.54688 73.4781 7.60938L73.3219 7.79688H72.1969Z" fill="#4A443D"/>
<path d="M88.5219 19.2031H88.3969C88.3552 19.224 88.324 19.224 88.3031 19.2031C88.2198 19.1615 88.1156 19.1406 87.9906 19.1406H87.8969L87.5219 19.0781C87.4594 19.0573 87.3865 19.0469 87.3031 19.0469L86.9594 19.0781C86.8552 19.0781 86.7823 19.0781 86.7406 19.0781C86.699 19.0573 86.6677 19.0469 86.6469 19.0469C86.5635 19.0052 86.4802 18.9844 86.3969 18.9844L86.2094 18.9531C86.1677 18.9323 86.1156 18.9219 86.0531 18.9219L85.5844 18.7969L85.4906 18.7344L85.2406 18.6719L84.7719 18.5469C84.6469 18.526 84.4802 18.4635 84.2719 18.3594C84.2302 18.3177 84.1677 18.2865 84.0844 18.2656C84.0427 18.2656 84.0219 18.2448 84.0219 18.2031L83.8344 18.1094C83.7719 18.0677 83.5844 17.8906 83.2719 17.5781C83.1677 17.474 83.1156 17.3594 83.1156 17.2344C83.074 17.151 83.0531 17.0781 83.0531 17.0156L83.0219 16.7031C83.0219 16.599 83.001 16.5052 82.9594 16.4219C82.8969 16.2552 82.8656 16.151 82.8656 16.1094L82.8344 15.9844C82.8135 15.9427 82.8031 15.8698 82.8031 15.7656C82.8031 15.6615 82.7719 15.5677 82.7094 15.4844C82.6885 15.4427 82.6885 15.3802 82.7094 15.2969C82.751 15.1927 82.824 15.1302 82.9281 15.1094L83.0219 15.0781C83.0219 15.0573 83.1156 15.0156 83.3031 14.9531C83.449 14.9115 83.876 14.8802 84.5844 14.8594C84.8552 14.8594 84.9906 14.849 84.9906 14.8281L85.2406 14.7969C86.0115 14.7552 86.501 14.7031 86.7094 14.6406L86.8344 14.6094C86.9594 14.6094 87.126 14.5781 87.3344 14.5156C87.376 14.4948 87.4177 14.4844 87.4594 14.4844C87.501 14.4844 87.5323 14.474 87.5531 14.4531L87.8031 14.4219C87.8656 14.401 87.9698 14.3906 88.1156 14.3906L88.3969 14.3594C88.4385 14.3385 88.5531 14.3281 88.7406 14.3281C89.2198 14.2865 89.501 14.2552 89.5844 14.2344L90.7719 14.1719C90.9802 14.1719 91.126 14.1719 91.2094 14.1719C91.2927 14.151 91.3448 14.1406 91.3656 14.1406C91.4073 14.1198 91.7823 14.1094 92.4906 14.1094L93.6469 14.0781L94.0219 14.1094L94.8656 14.1406C95.0948 14.1406 95.251 14.151 95.3344 14.1719C95.4177 14.1719 95.4698 14.1719 95.4906 14.1719C95.5948 14.1927 95.6573 14.1927 95.6781 14.1719L96.5531 14.1094L97.1469 14.0781H97.6156C97.6365 14.0573 97.6885 14.0469 97.7719 14.0469C97.8135 14.0677 97.9698 14.0781 98.2406 14.0781C98.3865 14.099 98.5531 14.1094 98.7406 14.1094L98.9906 14.1719C99.4281 14.2344 99.9281 14.3802 100.491 14.6094C100.761 14.7344 100.939 14.8906 101.022 15.0781C101.022 15.099 101.053 15.1406 101.116 15.2031C101.178 15.2656 101.241 15.349 101.303 15.4531C101.366 15.5573 101.397 15.6406 101.397 15.7031C101.459 15.974 101.501 16.1302 101.522 16.1719L101.584 16.4219C101.584 16.5052 101.595 16.5573 101.616 16.5781C101.657 16.7656 101.668 17.0156 101.647 17.3281C101.647 17.4323 101.678 17.5781 101.741 17.7656C101.761 17.8906 101.73 17.9948 101.647 18.0781C101.626 18.0781 101.605 18.0885 101.584 18.1094C101.564 18.1302 101.553 18.151 101.553 18.1719C101.491 18.3177 101.418 18.349 101.334 18.2656C101.314 18.2656 101.293 18.2552 101.272 18.2344C101.251 18.2135 101.22 18.2031 101.178 18.2031L101.022 18.1094C101.022 18.0885 101.001 18.0885 100.959 18.1094L100.772 18.1406C100.689 18.1406 100.626 18.1615 100.584 18.2031H100.303C100.22 18.1823 100.105 18.1823 99.9594 18.2031H99.4281C99.3865 18.2031 99.3135 18.224 99.2094 18.2656C99.126 18.2865 99.0323 18.2969 98.9281 18.2969L98.6781 18.3281C98.5323 18.3281 98.4594 18.3385 98.4594 18.3594L98.3344 18.3906L98.1469 18.4219C98.0635 18.4635 97.9594 18.4844 97.8344 18.4844H97.6156L96.9594 18.5156L96.7719 18.5469L96.5219 18.5781C96.2094 18.5781 95.9802 18.5885 95.8344 18.6094C95.7719 18.6302 95.6781 18.6302 95.5531 18.6094C95.4281 18.6094 95.3344 18.6198 95.2719 18.6406C95.2302 18.6615 95.0531 18.6719 94.7406 18.6719L94.2094 18.7031C94.1052 18.7031 94.0115 18.6823 93.9281 18.6406C93.8865 18.6198 93.8135 18.6302 93.7094 18.6719C93.626 18.7135 93.5531 18.7344 93.4906 18.7344L92.9281 18.7969H92.7719L92.3656 18.8281L92.2094 18.8594C92.1677 18.8385 92.1052 18.8281 92.0219 18.8281C91.9385 18.8281 91.8552 18.8385 91.7719 18.8594C91.751 18.8594 91.7302 18.8698 91.7094 18.8906C91.6885 18.8906 91.6677 18.8802 91.6469 18.8594C91.6052 18.8594 91.574 18.8698 91.5531 18.8906H91.3656C91.2198 18.8906 91.1156 18.901 91.0531 18.9219C91.0115 18.9219 90.9802 18.9219 90.9594 18.9219C90.9385 18.9427 90.8969 18.9531 90.8344 18.9531L90.6156 18.9844H90.3656C90.3448 18.9635 90.2927 18.9531 90.2094 18.9531L89.8344 19.0156C89.6885 19.0781 89.574 19.1094 89.4906 19.1094C89.449 19.1094 89.3656 19.1094 89.2406 19.1094C89.1156 19.0885 89.0323 19.099 88.9906 19.1406C88.949 19.1615 88.8865 19.1823 88.8031 19.2031C88.7406 19.224 88.6781 19.2344 88.6156 19.2344L88.5219 19.2031Z" fill="#4A443D"/>
<path d="M111.722 27.7656C111.305 27.724 111.086 27.7031 111.066 27.7031L110.878 27.6719C110.836 27.651 110.784 27.6406 110.722 27.6406C110.701 27.6406 110.597 27.5781 110.409 27.4531C110.305 27.3906 110.17 27.3385 110.003 27.2969C109.961 27.2969 109.899 27.2865 109.816 27.2656C109.753 27.224 109.701 27.1823 109.659 27.1406C109.597 27.0781 109.586 27.0156 109.628 26.9531C109.628 26.8698 109.618 26.7969 109.597 26.7344C109.576 26.5885 109.576 26.4531 109.597 26.3281V26.1094C109.576 26.0885 109.555 25.9323 109.534 25.6406V25.2031L109.597 25.0781L109.722 24.8594C109.805 24.776 109.941 24.7031 110.128 24.6406L110.284 24.5781L110.503 24.5469C110.92 24.4427 111.097 24.401 111.034 24.4219H111.128L111.253 24.3594C111.295 24.3177 111.399 24.276 111.566 24.2344C111.586 24.2135 111.607 24.2031 111.628 24.2031C111.67 24.2031 111.701 24.1927 111.722 24.1719L112.409 24.0156C112.472 24.0156 112.514 24.0052 112.534 23.9844C112.576 23.9635 112.597 23.9323 112.597 23.8906C112.597 23.8698 112.576 23.8177 112.534 23.7344L112.472 23.6719V23.1094L112.441 21.5781C112.441 20.5781 112.43 20.0677 112.409 20.0469C112.389 19.8802 112.389 19.6406 112.409 19.3281C112.451 19.0156 112.482 18.8385 112.503 18.7969C112.524 18.7344 112.555 18.6927 112.597 18.6719C112.659 18.651 112.764 18.6302 112.909 18.6094L113.284 18.5469C113.409 18.4844 113.555 18.4531 113.722 18.4531L113.941 18.4219L114.191 18.3906L114.534 18.3594C114.576 18.3385 114.67 18.3281 114.816 18.3281L115.378 18.2344C115.399 18.2135 115.389 18.1719 115.347 18.1094C115.326 18.0885 115.305 18.0677 115.284 18.0469C115.264 18.026 115.253 18.0052 115.253 17.9844C115.232 17.9427 115.211 17.9219 115.191 17.9219C115.17 17.9219 115.149 17.9323 115.128 17.9531C115.107 18.0156 115.055 18.026 114.972 17.9844C114.951 17.9635 114.899 17.9635 114.816 17.9844C114.711 17.9844 114.649 17.9635 114.628 17.9219L114.597 17.6406C114.576 17.5573 114.566 17.4323 114.566 17.2656C114.524 17.0573 114.503 16.776 114.503 16.4219C114.503 16.3177 114.493 16.2448 114.472 16.2031L114.441 15.9844L114.409 15.7031C114.389 15.5573 114.378 15.1823 114.378 14.5781C114.42 14.4115 114.441 14.1927 114.441 13.9219C114.503 13.3385 114.545 13.0365 114.566 13.0156L114.597 12.7969L114.628 12.5469C114.649 12.526 114.659 12.4948 114.659 12.4531C114.659 12.4115 114.67 12.3698 114.691 12.3281C114.691 12.1823 114.722 12.0052 114.784 11.7969L114.847 11.6094C114.847 11.5469 114.868 11.4844 114.909 11.4219C114.951 11.3385 114.993 11.2865 115.034 11.2656C115.055 11.2448 115.097 11.2448 115.159 11.2656C115.201 11.2656 115.264 11.2865 115.347 11.3281C115.389 11.349 115.441 11.3594 115.503 11.3594C115.607 11.3594 115.701 11.3177 115.784 11.2344C116.014 11.1094 116.284 11.026 116.597 10.9844C116.659 10.9844 116.701 10.9844 116.722 10.9844C116.764 10.9635 116.795 10.9531 116.816 10.9531C117.42 10.9531 117.826 10.9635 118.034 10.9844C118.222 10.9844 118.336 10.9948 118.378 11.0156C118.607 11.0365 118.826 11.0677 119.034 11.1094C119.097 11.1302 119.211 11.1719 119.378 11.2344C119.566 11.2969 119.67 11.3385 119.691 11.3594C119.711 11.3594 119.732 11.3698 119.753 11.3906C119.795 11.4115 119.826 11.4323 119.847 11.4531C120.055 11.5156 120.18 11.599 120.222 11.7031C120.326 11.8281 120.389 12.0156 120.409 12.2656L120.441 12.5781L120.472 13.0156C120.493 13.5781 120.482 14.276 120.441 15.1094C120.399 15.9219 120.347 16.4531 120.284 16.7031C120.201 16.9531 120.107 17.1302 120.003 17.2344C119.899 17.3385 119.743 17.4323 119.534 17.5156C119.493 17.5365 119.357 17.5573 119.128 17.5781C118.92 17.5781 118.816 17.5885 118.816 17.6094H118.691L118.284 17.7031H118.097L117.909 17.7344C117.889 17.7552 117.784 17.7656 117.597 17.7656L117.222 17.8281C117.139 17.849 116.878 17.8594 116.441 17.8594C116.316 17.8594 116.232 17.849 116.191 17.8281L116.034 17.7031L115.941 17.6719C115.899 17.6719 115.857 17.7344 115.816 17.8594L115.784 18.0781C115.764 18.099 115.764 18.1302 115.784 18.1719C115.805 18.1927 115.847 18.2031 115.909 18.2031C115.972 18.2031 116.034 18.1927 116.097 18.1719C116.264 18.1302 116.534 18.1094 116.909 18.1094L117.284 18.0781C117.451 18.0365 118.055 18.0156 119.097 18.0156C119.389 18.0156 119.826 18.0365 120.409 18.0781C120.826 18.1406 121.128 18.2135 121.316 18.2969C121.961 18.5469 122.389 18.776 122.597 18.9844C122.659 19.026 122.711 19.0885 122.753 19.1719C122.795 19.2344 122.826 19.3073 122.847 19.3906L122.878 19.5469L122.972 20.2031V21.1719C122.993 21.5052 122.993 21.7865 122.972 22.0156C122.972 22.2448 122.941 22.526 122.878 22.8594C122.836 23.0885 122.836 23.2031 122.878 23.2031C122.878 23.224 122.941 23.2344 123.066 23.2344C123.566 23.276 123.899 23.3281 124.066 23.3906C124.17 23.3906 124.284 23.4115 124.409 23.4531C124.451 23.4531 124.732 23.5573 125.253 23.7656C125.42 23.8281 125.566 23.9115 125.691 24.0156C125.711 24.0156 125.732 24.026 125.753 24.0469C125.795 24.0677 125.826 24.0885 125.847 24.1094C126.097 24.2344 126.274 24.349 126.378 24.4531C126.461 24.5365 126.482 24.6823 126.441 24.8906L126.472 25.2031L126.503 25.3906L126.472 25.6094C126.451 25.9219 126.409 26.1406 126.347 26.2656C126.305 26.3698 126.295 26.5156 126.316 26.7031C126.316 26.8073 126.305 26.8906 126.284 26.9531L125.972 27.4531C125.909 27.5156 125.847 27.5573 125.784 27.5781L125.628 27.6406L125.534 27.7031L125.441 27.7344H124.472C124.097 27.7344 123.847 27.7448 123.722 27.7656C123.597 27.7656 123.524 27.7656 123.503 27.7656L123.034 27.7344C122.909 27.7135 122.743 27.7031 122.534 27.7031C122.326 27.6823 122.159 27.6823 122.034 27.7031C121.889 27.7448 121.753 27.7448 121.628 27.7031H121.347C121.264 27.724 121.201 27.7344 121.159 27.7344C121.118 27.7135 121.097 27.7031 121.097 27.7031C121.076 27.6823 121.034 27.6719 120.972 27.6719C120.909 27.6719 120.868 27.6615 120.847 27.6406C120.805 27.6198 120.68 27.6094 120.472 27.6094C120.368 27.6094 120.211 27.6198 120.003 27.6406C119.816 27.6406 119.691 27.6302 119.628 27.6094H119.378C118.857 27.6094 118.555 27.6198 118.472 27.6406C118.43 27.6615 118.357 27.6615 118.253 27.6406C118.191 27.6198 118.118 27.6094 118.034 27.6094L117.909 27.5781L117.816 27.5469L117.566 27.6094L117.378 27.5781C117.149 27.5781 117.024 27.5885 117.003 27.6094C116.982 27.6302 116.899 27.6406 116.753 27.6406C116.461 27.6406 116.128 27.6615 115.753 27.7031L115.409 27.7344C115.222 27.7135 115.055 27.7135 114.909 27.7344H113.784L113.597 27.7656C113.514 27.7865 113.451 27.7865 113.409 27.7656C113.326 27.7448 113.222 27.7344 113.097 27.7344C112.972 27.7344 112.857 27.7448 112.753 27.7656C112.732 27.7865 112.68 27.7969 112.597 27.7969H112.284L111.722 27.7656ZM108.816 11.2656C108.836 11.224 108.847 11.1719 108.847 11.1094C108.847 11.0469 108.857 10.9844 108.878 10.9219L108.909 10.6406C108.93 10.6198 108.951 10.2344 108.972 9.48438C108.972 9.33854 108.982 9.24479 109.003 9.20312L109.034 9.04688C109.034 8.96354 109.014 8.89062 108.972 8.82812C108.93 8.72396 108.92 8.63021 108.941 8.54688C108.982 8.48438 109.076 8.40104 109.222 8.29688C109.326 8.23438 109.482 8.18229 109.691 8.14062C109.753 8.14062 109.816 8.11979 109.878 8.07812C109.941 8.03646 110.024 7.96354 110.128 7.85938C110.149 7.83854 110.17 7.81771 110.191 7.79688C110.232 7.77604 110.274 7.76562 110.316 7.76562L110.503 7.60938C110.524 7.58854 110.545 7.56771 110.566 7.54688C110.586 7.52604 110.607 7.51562 110.628 7.51562C110.711 7.47396 110.816 7.39062 110.941 7.26562L111.222 7.01562C111.264 7.01562 111.316 6.98438 111.378 6.92188C111.42 6.88021 111.451 6.85938 111.472 6.85938C111.514 6.83854 111.545 6.81771 111.566 6.79688C111.586 6.77604 111.607 6.76562 111.628 6.76562C111.67 6.74479 111.711 6.71354 111.753 6.67188L111.972 6.48438L112.222 6.29688C112.222 6.29688 112.295 6.22396 112.441 6.07812L112.909 5.70312C112.972 5.61979 113.024 5.57812 113.066 5.57812C113.066 5.57812 113.211 5.43229 113.503 5.14062C113.628 5.01562 113.711 4.95312 113.753 4.95312L113.909 4.82812C113.909 4.82812 113.951 4.78646 114.034 4.70312C114.097 4.70312 114.159 4.66146 114.222 4.57812C114.326 4.45312 114.42 4.36979 114.503 4.32812C114.545 4.32812 114.566 4.30729 114.566 4.26562L114.722 4.20312C114.784 4.18229 114.836 4.15104 114.878 4.10938C114.878 4.02604 114.909 3.97396 114.972 3.95312C114.993 3.93229 115.014 3.91146 115.034 3.89062C115.055 3.84896 115.066 3.80729 115.066 3.76562L115.566 3.20312C115.67 3.09896 115.743 3.04688 115.784 3.04688C115.868 3.02604 115.909 2.99479 115.909 2.95312C115.93 2.91146 115.961 2.85938 116.003 2.79688C116.066 2.73438 116.128 2.67188 116.191 2.60938C116.232 2.56771 116.253 2.51562 116.253 2.45312C116.274 2.39062 116.295 2.34896 116.316 2.32812C116.357 2.30729 116.42 2.29688 116.503 2.29688C116.628 2.29688 116.753 2.25521 116.878 2.17188L116.941 2.10938H117.066C117.295 2.13021 117.43 2.17188 117.472 2.23438L117.691 2.39062C117.816 2.47396 117.878 2.59896 117.878 2.76562L117.909 2.89062L118.534 3.32812L118.909 3.57812C119.139 3.78646 119.409 3.96354 119.722 4.10938L119.972 4.26562L120.159 4.35938C120.222 4.35938 120.336 4.40104 120.503 4.48438C120.67 4.58854 120.92 4.69271 121.253 4.79688L121.534 4.89062L121.847 4.98438L122.066 5.01562L122.941 5.29688C123.149 5.33854 123.326 5.39062 123.472 5.45312L123.597 5.48438C123.659 5.48438 123.732 5.50521 123.816 5.54688C123.899 5.56771 123.972 5.59896 124.034 5.64062C124.076 5.64062 124.159 5.67188 124.284 5.73438L124.534 5.82812C124.555 5.84896 124.586 5.86979 124.628 5.89062C124.691 5.91146 124.743 5.94271 124.784 5.98438L125.066 6.14062C125.128 6.20312 125.18 6.23438 125.222 6.23438L125.378 6.39062C125.461 6.45312 125.545 6.50521 125.628 6.54688L125.847 6.70312C125.847 6.70312 125.889 6.74479 125.972 6.82812C126.118 6.89062 126.211 7.02604 126.253 7.23438C126.274 7.25521 126.284 7.28646 126.284 7.32812C126.284 7.36979 126.295 7.40104 126.316 7.42188L126.284 7.70312C126.243 7.82812 126.222 7.89062 126.222 7.89062C126.222 8.05729 126.222 8.20312 126.222 8.32812C126.243 8.43229 126.243 8.49479 126.222 8.51562C126.201 8.55729 126.191 8.63021 126.191 8.73438C126.191 8.85938 126.18 8.94271 126.159 8.98438C126.139 9.02604 126.128 9.08854 126.128 9.17188C126.128 9.29688 126.086 9.42188 126.003 9.54688L125.909 9.67188L125.878 10.0781C125.878 10.3073 125.868 10.4323 125.847 10.4531L125.753 10.6094C125.732 10.651 125.639 10.724 125.472 10.8281C125.472 10.8281 125.441 10.8594 125.378 10.9219C125.378 10.9635 125.357 10.9948 125.316 11.0156L125.222 11.0469C125.18 11.0677 125.128 11.0677 125.066 11.0469L124.753 10.9844L124.597 10.9219C124.576 10.9219 124.545 10.9115 124.503 10.8906C124.482 10.8698 124.461 10.849 124.441 10.8281C124.378 10.7656 124.316 10.724 124.253 10.7031C124.149 10.7031 124.086 10.6927 124.066 10.6719L123.909 10.6094L123.784 10.5156L123.659 10.4531L123.566 10.4219L123.378 10.3281C123.274 10.3281 123.128 10.2656 122.941 10.1406C122.899 10.099 122.753 10.0156 122.503 9.89062L122.316 9.79688C122.253 9.75521 122.201 9.72396 122.159 9.70312C122.118 9.68229 122.086 9.67188 122.066 9.67188L121.628 9.45312L121.409 9.32812L121.034 9.10938L120.753 8.95312L120.597 8.85938C120.472 8.77604 120.378 8.73438 120.316 8.73438C120.253 8.75521 120.222 8.86979 120.222 9.07812C120.222 9.24479 120.211 9.33854 120.191 9.35938C120.17 9.40104 120.159 9.48438 120.159 9.60938C120.159 9.75521 120.149 9.83854 120.128 9.85938L120.066 9.92188L119.972 9.98438C119.909 10.0469 119.847 10.0781 119.784 10.0781C119.722 10.0781 119.649 10.099 119.566 10.1406L119.253 10.2031C118.982 10.2031 118.826 10.224 118.784 10.2656L118.597 10.2969C118.514 10.2969 118.451 10.3073 118.409 10.3281C118.326 10.3698 118.18 10.3906 117.972 10.3906C117.847 10.3906 117.691 10.4219 117.503 10.4844L117.222 10.5469L117.097 10.5781C117.076 10.599 117.003 10.6094 116.878 10.6094C116.732 10.6302 116.639 10.6615 116.597 10.7031L116.441 10.7344C116.378 10.7552 116.305 10.7656 116.222 10.7656C116.139 10.7656 116.076 10.7552 116.034 10.7344H115.941C115.816 10.6927 115.722 10.6615 115.659 10.6406C115.534 10.5156 115.389 10.4531 115.222 10.4531C114.972 10.3906 114.826 10.349 114.784 10.3281L114.753 10.1406C114.753 9.97396 114.743 9.86979 114.722 9.82812L114.691 9.48438C114.691 9.19271 114.659 9.04688 114.597 9.04688C114.576 9.04688 114.503 9.10938 114.378 9.23438C114.357 9.27604 114.264 9.38021 114.097 9.54688C114.034 9.63021 113.868 9.80729 113.597 10.0781L113.191 10.5469L112.847 10.8281L112.191 11.4219L111.941 11.6406L111.659 11.8594L111.409 12.0469L111.128 12.1719C111.003 12.2552 110.909 12.2969 110.847 12.2969C110.764 12.3385 110.639 12.3594 110.472 12.3594C110.347 12.3594 110.253 12.349 110.191 12.3281C110.086 12.2656 109.993 12.1615 109.909 12.0156C109.889 11.9323 109.836 11.8802 109.753 11.8594L109.566 11.7969C109.524 11.7969 109.461 11.776 109.378 11.7344L109.222 11.7031C109.18 11.7031 109.076 11.6615 108.909 11.5781C108.847 11.5156 108.816 11.4115 108.816 11.2656ZM114.222 22.1406L114.253 22.7344C114.274 22.8385 114.284 23.026 114.284 23.2969C114.305 23.4844 114.326 23.599 114.347 23.6406C114.368 23.6615 114.42 23.6615 114.503 23.6406L114.784 23.6094L115.097 23.5156C115.201 23.5156 115.274 23.5052 115.316 23.4844C115.357 23.4635 115.378 23.4115 115.378 23.3281C115.378 23.2656 115.357 23.1927 115.316 23.1094C115.295 23.026 115.274 22.9635 115.253 22.9219C115.232 22.7969 115.211 22.599 115.191 22.3281C115.191 22.0573 115.201 21.776 115.222 21.4844C115.222 21.3385 115.211 21.2552 115.191 21.2344C115.191 21.2344 115.17 21.2344 115.128 21.2344C115.107 21.2135 115.034 21.2031 114.909 21.2031H114.628C114.586 21.224 114.514 21.2448 114.409 21.2656C114.326 21.2656 114.264 21.276 114.222 21.2969C114.18 21.2969 114.17 21.401 114.191 21.6094L114.222 22.1406ZM115.847 7.57812H115.941C116.086 7.57812 116.243 7.55729 116.409 7.51562C116.493 7.49479 116.732 7.47396 117.128 7.45312C117.607 7.45312 117.909 7.46354 118.034 7.48438C118.347 7.48438 118.514 7.47396 118.534 7.45312C118.534 7.43229 118.316 7.20312 117.878 6.76562C117.545 6.43229 117.378 6.24479 117.378 6.20312C117.316 6.11979 117.243 6.04688 117.159 5.98438L116.941 5.76562C116.899 5.76562 116.857 5.80729 116.816 5.89062C116.816 5.91146 116.732 6.05729 116.566 6.32812L116.378 6.60938C116.357 6.63021 116.326 6.67188 116.284 6.73438C116.264 6.77604 116.243 6.82812 116.222 6.89062L115.816 7.51562L115.847 7.57812ZM115.941 14.1094C115.941 14.2344 115.951 14.3073 115.972 14.3281C115.993 14.3281 116.024 14.3385 116.066 14.3594C116.107 14.3594 116.18 14.3594 116.284 14.3594L117.128 14.3906C117.503 14.3906 117.764 14.401 117.909 14.4219L118.316 14.4531C118.357 14.4531 118.43 14.4531 118.534 14.4531C118.639 14.4323 118.711 14.4115 118.753 14.3906C118.795 14.3073 118.816 14.1094 118.816 13.7969C118.816 13.5885 118.805 13.4531 118.784 13.3906C118.764 13.3698 118.722 13.3385 118.659 13.2969L118.534 13.2656H118.441L118.284 13.2344C118.284 13.2344 118.18 13.2135 117.972 13.1719H117.659C117.618 13.151 117.566 13.1406 117.503 13.1406C117.461 13.1406 117.441 13.1406 117.441 13.1406L117.097 13.1719C116.868 13.1719 116.701 13.1927 116.597 13.2344C116.451 13.2969 116.357 13.349 116.316 13.3906C116.149 13.599 116.045 13.7448 116.003 13.8281L115.941 14.1094ZM117.159 21.8594C117.18 21.9844 117.191 22.2656 117.191 22.7031C117.191 23.0365 117.201 23.2135 117.222 23.2344C117.243 23.2552 117.284 23.2656 117.347 23.2656L117.753 23.2344C117.982 23.2135 118.107 23.1927 118.128 23.1719C118.149 23.151 118.18 23.0677 118.222 22.9219C118.284 22.7552 118.316 22.6719 118.316 22.6719L118.378 22.4531L118.503 22.1406L118.628 21.8906C118.628 21.7865 118.649 21.7135 118.691 21.6719C118.753 21.5885 118.805 21.4948 118.847 21.3906C118.889 21.2656 118.899 21.1927 118.878 21.1719C118.878 21.1302 118.836 21.1302 118.753 21.1719L118.378 21.2031H117.847C117.743 21.2448 117.649 21.2448 117.566 21.2031C117.461 21.2031 117.389 21.2135 117.347 21.2344L117.191 21.2656C117.149 21.2865 117.128 21.3385 117.128 21.4219C117.128 21.4844 117.139 21.6302 117.159 21.8594ZM120.034 23.1719C120.118 23.1927 120.232 23.2031 120.378 23.2031C120.524 23.2031 120.639 23.1927 120.722 23.1719C120.764 23.1094 120.784 23.0573 120.784 23.0156L121.003 22.4844C121.024 22.4635 121.034 22.4219 121.034 22.3594L121.097 22.2031L121.316 21.4844C121.316 21.3594 121.336 21.276 121.378 21.2344V21.0469C121.378 21.0052 121.357 20.9844 121.316 20.9844C121.274 20.9635 121.222 20.9531 121.159 20.9531C121.034 20.9531 120.941 20.9427 120.878 20.9219C120.774 20.9219 120.711 20.9323 120.691 20.9531H120.566C120.545 20.9323 120.524 20.9219 120.503 20.9219C120.482 20.9219 120.472 20.9323 120.472 20.9531L120.253 20.9844C120.17 20.9844 120.107 21.0052 120.066 21.0469C120.045 21.0677 120.045 21.099 120.066 21.1406C120.066 21.3698 120.076 21.5781 120.097 21.7656C120.097 22.1615 120.076 22.526 120.034 22.8594C119.993 23.026 119.993 23.1302 120.034 23.1719Z" fill="#4A443D"/>
<path d="M148.672 27.2344C148.297 27.2344 148.068 27.224 147.984 27.2031H147.797C147.734 27.2031 147.682 27.1927 147.641 27.1719L147.484 27.1406L147.234 27.1094L147.016 27.0781L146.641 26.9844L146.359 26.9531C146.234 26.9531 145.995 26.9219 145.641 26.8594C145.474 26.8177 145.349 26.776 145.266 26.7344C145.203 26.6719 145.161 26.5885 145.141 26.4844L145.016 26.1094L144.953 25.8906C144.953 25.724 144.911 25.599 144.828 25.5156C144.786 25.474 144.766 25.4427 144.766 25.4219C144.724 25.151 144.651 24.8906 144.547 24.6406C144.464 24.4531 144.453 24.3073 144.516 24.2031L144.547 24.0156C144.547 23.9115 144.557 23.8385 144.578 23.7969C144.62 23.7344 144.682 23.6615 144.766 23.5781C144.807 23.5365 144.828 23.4948 144.828 23.4531C144.849 23.3906 144.849 23.3177 144.828 23.2344L144.797 22.9844C144.797 22.0677 144.839 21.4844 144.922 21.2344C144.943 21.151 144.953 20.9948 144.953 20.7656C144.953 20.4948 144.953 20.3073 144.953 20.2031C144.974 20.0781 144.984 20.0052 144.984 19.9844C145.005 19.9844 145.016 19.9323 145.016 19.8281C145.016 19.3073 145.036 19.0052 145.078 18.9219C145.099 18.8802 145.109 18.7656 145.109 18.5781C145.109 18.4115 145.12 18.3073 145.141 18.2656C145.161 18.1823 145.161 18.0885 145.141 17.9844C145.141 17.8594 145.151 17.7656 145.172 17.7031C145.234 17.5156 145.266 17.2344 145.266 16.8594V16.6406C145.328 16.5781 145.359 16.4323 145.359 16.2031C145.339 16.1823 145.328 16.151 145.328 16.1094C145.349 16.0469 145.359 16.0156 145.359 16.0156L145.391 15.6406C145.391 15.4323 145.401 15.3073 145.422 15.2656V15.0469L145.453 14.7031C145.474 14.6406 145.484 14.5677 145.484 14.4844C145.484 14.401 145.495 14.3281 145.516 14.2656L145.547 13.8281V13.6719C145.547 13.5885 145.526 13.5052 145.484 13.4219C145.422 13.3594 145.391 13.2448 145.391 13.0781C145.391 12.9948 145.38 12.9427 145.359 12.9219C145.318 12.8802 145.266 12.8594 145.203 12.8594C145.12 12.8594 145.005 12.8385 144.859 12.7969C144.714 12.7552 144.578 12.7135 144.453 12.6719L143.828 12.4219L143.641 12.2969C143.557 12.276 143.495 12.2344 143.453 12.1719C143.432 12.1094 143.422 12.026 143.422 11.9219L143.359 11.4531L143.328 11.1719C143.286 11.1302 143.266 11.0156 143.266 10.8281C143.245 10.7031 143.234 10.5677 143.234 10.4219C143.276 10.3594 143.276 10.2969 143.234 10.2344V10.0781C143.318 9.95312 143.443 9.84896 143.609 9.76562C143.88 9.66146 144.068 9.60938 144.172 9.60938C144.234 9.60938 144.276 9.59896 144.297 9.57812L144.547 9.51562C144.776 9.45312 144.964 9.42188 145.109 9.42188C145.255 9.42188 145.349 9.40104 145.391 9.35938C145.453 9.29688 145.484 9.02604 145.484 8.54688C145.484 8.23438 145.495 8.05729 145.516 8.01562C145.536 7.97396 145.547 7.86979 145.547 7.70312V7.42188C145.568 7.40104 145.578 7.27604 145.578 7.04688C145.578 6.81771 145.589 6.67188 145.609 6.60938C145.63 6.58854 145.641 6.55729 145.641 6.51562C145.641 6.45312 145.651 6.40104 145.672 6.35938C145.672 6.27604 145.693 6.19271 145.734 6.10938L145.828 5.95312L145.891 5.82812H145.922L145.984 5.85938C146.026 5.88021 146.089 5.88021 146.172 5.85938C146.234 5.83854 146.297 5.83854 146.359 5.85938C146.38 5.85938 146.401 5.86979 146.422 5.89062C146.464 5.89062 146.505 5.88021 146.547 5.85938C146.672 5.85938 146.776 5.90104 146.859 5.98438L146.984 6.04688C147.068 6.06771 147.151 6.10938 147.234 6.17188C147.339 6.21354 147.422 6.25521 147.484 6.29688L147.547 6.42188C147.547 6.48438 147.568 6.53646 147.609 6.57812C147.63 6.59896 147.641 6.64062 147.641 6.70312C147.62 6.74479 147.609 6.77604 147.609 6.79688C147.63 6.81771 147.641 6.83854 147.641 6.85938C147.724 7.04688 147.766 7.22396 147.766 7.39062L147.797 7.70312L147.828 8.42188C147.828 8.83854 147.839 9.04688 147.859 9.04688L147.922 9.07812L148.547 9.04688C148.964 9.00521 149.307 8.98438 149.578 8.98438C149.807 8.98438 150.026 8.97396 150.234 8.95312C150.464 8.93229 150.589 8.92188 150.609 8.92188C150.651 8.90104 150.672 8.83854 150.672 8.73438L150.703 8.48438C150.745 8.35938 150.766 8.17188 150.766 7.92188C150.766 7.75521 150.786 7.65104 150.828 7.60938C150.87 7.52604 150.891 7.35938 150.891 7.10938C150.891 6.98438 150.911 6.89062 150.953 6.82812C151.016 6.76562 151.047 6.70312 151.047 6.64062C151.047 6.55729 151.057 6.47396 151.078 6.39062C151.12 6.28646 151.161 6.21354 151.203 6.17188C151.224 6.10938 151.276 6.06771 151.359 6.04688C151.422 6.04688 151.474 6.02604 151.516 5.98438C151.62 5.92188 151.724 5.92188 151.828 5.98438L152.016 6.04688C152.224 6.10938 152.359 6.18229 152.422 6.26562C152.484 6.34896 152.547 6.49479 152.609 6.70312C152.672 6.89062 152.714 7.02604 152.734 7.10938L152.859 8.14062C152.859 8.32812 152.87 8.43229 152.891 8.45312V8.73438C152.891 8.90104 152.901 8.98438 152.922 8.98438L152.984 9.04688C153.526 9.08854 153.911 9.17188 154.141 9.29688C154.161 9.29688 154.339 9.36979 154.672 9.51562L154.891 9.60938C154.953 9.67188 155.005 9.80729 155.047 10.0156L155.078 10.3281C155.141 10.4323 155.151 10.5677 155.109 10.7344C155.068 10.8177 155.057 10.8802 155.078 10.9219C155.12 10.9635 155.141 11.0469 155.141 11.1719C155.141 11.276 155.12 11.349 155.078 11.3906L155.047 11.5469C155.047 11.6302 155.068 11.7135 155.109 11.7969L155.141 11.9531C155.161 11.9948 155.13 12.0573 155.047 12.1406C154.964 12.2865 154.849 12.3594 154.703 12.3594C154.62 12.3594 154.557 12.3802 154.516 12.4219C154.474 12.4635 154.432 12.4844 154.391 12.4844L154.266 12.5156C154.266 12.5573 154.214 12.5781 154.109 12.5781C154.005 12.599 153.807 12.6094 153.516 12.6094L153.016 12.7344C152.932 12.7552 152.88 12.7865 152.859 12.8281C152.839 12.8698 152.828 12.9531 152.828 13.0781L152.797 13.5469C152.755 13.9635 152.734 14.1823 152.734 14.2031L152.797 15.8594C152.818 16.0052 152.839 16.0885 152.859 16.1094C152.964 16.2135 153.016 16.3177 153.016 16.4219C153.016 16.5052 153.036 16.5781 153.078 16.6406C153.12 16.7031 153.141 16.8073 153.141 16.9531C153.141 17.099 153.151 17.2031 153.172 17.2656C153.214 17.4115 153.224 17.4948 153.203 17.5156L153.234 17.7656L153.266 17.9531L153.203 18.0781C153.141 18.1615 153.078 18.2135 153.016 18.2344C152.974 18.2552 152.943 18.276 152.922 18.2969C152.901 18.3177 152.891 18.349 152.891 18.3906C152.87 18.4323 152.859 18.776 152.859 19.4219V20.4531C152.839 20.4948 152.828 20.6719 152.828 20.9844L152.766 22.1094C152.745 22.1719 152.734 22.2552 152.734 22.3594C152.734 22.4635 152.724 22.5677 152.703 22.6719C152.703 23.026 152.693 23.2135 152.672 23.2344L152.609 23.9844C152.609 24.1302 152.62 24.2135 152.641 24.2344C152.641 24.3177 152.651 24.3802 152.672 24.4219C152.672 24.5052 152.682 24.5573 152.703 24.5781L152.797 24.9531V25.5781L152.859 25.7344L152.922 25.9844C152.922 26.0885 152.87 26.224 152.766 26.3906C152.703 26.4948 152.651 26.5781 152.609 26.6406C152.568 26.6823 152.484 26.7135 152.359 26.7344L152.109 26.7969C152.089 26.8177 152.036 26.8281 151.953 26.8281C151.87 26.8281 151.807 26.849 151.766 26.8906H151.547L151.328 26.9219C151.307 26.9427 151.266 26.9531 151.203 26.9531C151.161 26.9531 151.12 26.9635 151.078 26.9844C150.953 26.9844 150.87 26.9948 150.828 27.0156C150.766 27.0365 150.714 27.0365 150.672 27.0156C150.63 26.9948 150.578 26.9844 150.516 26.9844C150.495 26.9844 150.328 27.0156 150.016 27.0781L149.391 27.1719C149.328 27.1927 149.266 27.2031 149.203 27.2031C149.161 27.1823 149.12 27.1823 149.078 27.2031C149.036 27.224 148.901 27.2344 148.672 27.2344ZM133.109 12.0781C133.089 11.9531 133.109 11.8802 133.172 11.8594C133.214 11.8594 133.245 11.8281 133.266 11.7656C133.286 11.7031 133.328 11.6615 133.391 11.6406L133.547 11.5781C133.609 11.5781 133.651 11.5677 133.672 11.5469C133.755 11.5052 133.922 11.474 134.172 11.4531L134.422 11.3906L135.172 11.2969C135.339 11.2552 135.495 11.2344 135.641 11.2344L136.078 11.1719C136.391 11.1302 136.547 11.099 136.547 11.0781C136.568 11.0781 136.578 10.849 136.578 10.3906L136.609 9.64062V9.60938C136.609 9.56771 136.505 9.54688 136.297 9.54688H135.953L135.703 9.48438L135.547 9.45312L135.453 9.42188L135.328 9.35938C135.307 9.33854 135.276 9.32812 135.234 9.32812C135.214 9.32812 135.172 9.31771 135.109 9.29688C135.068 9.27604 135.026 9.24479 134.984 9.20312L134.828 9.14062C134.807 9.14062 134.703 9.10938 134.516 9.04688L134.328 8.98438C134.307 8.98438 134.193 8.93229 133.984 8.82812C133.859 8.74479 133.797 8.64062 133.797 8.51562C133.818 8.47396 133.818 8.43229 133.797 8.39062C133.797 8.34896 133.797 8.30729 133.797 8.26562C133.797 8.07812 133.786 7.94271 133.766 7.85938C133.766 7.67188 133.755 7.56771 133.734 7.54688C133.693 7.38021 133.672 7.14062 133.672 6.82812C133.672 6.68229 133.661 6.58854 133.641 6.54688L133.578 6.42188C133.578 6.33854 133.745 6.24479 134.078 6.14062L134.641 6.01562L134.984 5.89062C135.109 5.89062 135.214 5.86979 135.297 5.82812L136.234 5.67188C136.401 5.67188 136.505 5.65104 136.547 5.60938L136.766 5.57812C136.87 5.57812 136.984 5.55729 137.109 5.51562C137.484 5.43229 137.932 5.39062 138.453 5.39062C138.641 5.36979 138.839 5.35938 139.047 5.35938C139.214 5.35938 139.411 5.39062 139.641 5.45312C139.87 5.51562 140.005 5.56771 140.047 5.60938C140.297 5.73438 140.484 5.81771 140.609 5.85938C140.755 5.92188 140.839 6.00521 140.859 6.10938C140.88 6.17188 140.88 6.24479 140.859 6.32812C140.839 6.39062 140.849 6.47396 140.891 6.57812C140.932 6.70312 140.943 6.79688 140.922 6.85938L140.891 7.20312C140.891 7.30729 140.87 7.42188 140.828 7.54688C140.807 7.58854 140.797 7.64062 140.797 7.70312C140.818 7.74479 140.828 7.79688 140.828 7.85938V8.07812L140.766 8.17188L140.734 8.26562L140.641 8.35938C140.495 8.50521 140.391 8.57812 140.328 8.57812C140.224 8.57812 140.12 8.60938 140.016 8.67188C139.995 8.73438 139.953 8.76562 139.891 8.76562L139.703 8.82812L139.328 8.92188C139.328 8.94271 139.245 8.97396 139.078 9.01562C138.932 9.05729 138.839 9.09896 138.797 9.14062C138.755 9.14062 138.714 9.15104 138.672 9.17188C138.63 9.19271 138.589 9.21354 138.547 9.23438C138.484 9.23438 138.443 9.24479 138.422 9.26562C138.401 9.28646 138.391 9.30729 138.391 9.32812C138.391 9.39062 138.401 9.44271 138.422 9.48438L138.484 9.64062C138.484 9.72396 138.495 9.79688 138.516 9.85938C138.557 9.94271 138.589 10.224 138.609 10.7031C138.609 10.8073 138.62 10.8802 138.641 10.9219C138.661 10.9635 138.682 10.9844 138.703 10.9844C138.703 10.9844 138.828 11.0052 139.078 11.0469C139.516 11.0469 139.859 11.0781 140.109 11.1406L140.266 11.2344L140.547 11.3281C140.714 11.3906 140.828 11.4427 140.891 11.4844C140.974 11.5052 141.036 11.5469 141.078 11.6094C141.12 11.776 141.141 11.8698 141.141 11.8906C141.141 11.9948 141.161 12.0781 141.203 12.1406C141.245 12.224 141.266 12.3073 141.266 12.3906C141.245 12.5156 141.234 12.6094 141.234 12.6719C141.255 12.7344 141.266 12.7865 141.266 12.8281C141.286 12.9323 141.286 13.0156 141.266 13.0781C141.203 13.2031 141.203 13.3385 141.266 13.4844C141.328 13.6302 141.318 13.7552 141.234 13.8594C141.172 13.9219 141.141 13.9635 141.141 13.9844C141.12 13.9844 141.078 14.0156 141.016 14.0781C140.953 14.1406 140.922 14.1719 140.922 14.1719L140.766 14.2344C140.745 14.2552 140.714 14.2656 140.672 14.2656C140.651 14.2656 140.63 14.276 140.609 14.2969C140.547 14.2969 140.505 14.3073 140.484 14.3281C140.443 14.349 140.38 14.3594 140.297 14.3594L140.141 14.3906L139.734 14.5469L139.422 14.5781C139.255 14.5781 139.151 14.5885 139.109 14.6094L138.922 14.6406C138.859 14.6406 138.776 14.6719 138.672 14.7344L138.516 14.7969V14.9219C138.516 15.0052 138.505 15.0573 138.484 15.0781L138.422 16.2031L138.391 16.4219C138.391 16.5469 138.401 16.6198 138.422 16.6406C138.443 16.6615 138.495 16.6719 138.578 16.6719H138.703C139.036 16.6719 139.245 16.6927 139.328 16.7344L139.547 16.7656C139.589 16.7656 139.714 16.8073 139.922 16.8906L140.203 16.9844L140.422 17.0469C140.589 17.151 140.714 17.2865 140.797 17.4531C140.88 17.6198 140.964 17.9427 141.047 18.4219C141.047 18.526 141.068 18.599 141.109 18.6406C141.109 18.7656 141.12 18.849 141.141 18.8906L141.172 19.1719C141.193 19.2969 141.203 19.8073 141.203 20.7031V22.2031C141.203 22.6406 141.224 22.901 141.266 22.9844C141.307 23.0677 141.328 23.1406 141.328 23.2031C141.328 23.3073 141.339 23.3698 141.359 23.3906C141.359 23.4115 141.359 23.4531 141.359 23.5156C141.38 23.5781 141.391 23.7031 141.391 23.8906C141.391 24.1615 141.401 24.3177 141.422 24.3594C141.484 24.4427 141.484 24.5677 141.422 24.7344L141.359 24.8906L141.328 24.9531C141.286 25.0156 141.234 25.0781 141.172 25.1406C141.109 25.2031 141.057 25.2552 141.016 25.2969C140.87 25.3385 140.776 25.4219 140.734 25.5469C140.714 25.6302 140.63 25.7344 140.484 25.8594C140.339 25.9844 140.214 26.0573 140.109 26.0781L139.891 26.1094L139.547 26.1406C139.505 26.1406 139.443 26.151 139.359 26.1719C139.297 26.1719 139.255 26.1615 139.234 26.1406C139.109 26.1406 139.016 26.151 138.953 26.1719L138.766 26.2031C138.745 26.224 138.714 26.2344 138.672 26.2344C138.651 26.2344 138.63 26.2448 138.609 26.2656L138.359 26.3281C138.172 26.3281 137.891 26.4115 137.516 26.5781C137.432 26.6406 137.224 26.6823 136.891 26.7031C136.828 26.724 136.766 26.7344 136.703 26.7344C136.641 26.7344 136.589 26.7448 136.547 26.7656H136.391C136.224 26.7656 136.109 26.7969 136.047 26.8594L135.891 27.0781C135.766 27.2656 135.682 27.3594 135.641 27.3594C135.599 27.3594 135.526 27.3073 135.422 27.2031C135.255 27.0365 135.13 26.9531 135.047 26.9531L134.984 26.9844C134.901 27.0677 134.818 27.0781 134.734 27.0156C134.693 26.9948 134.63 26.9948 134.547 27.0156C134.401 27.099 134.307 27.099 134.266 27.0156C134.224 26.974 134.182 26.8281 134.141 26.5781L134.109 26.3594C134.089 26.3177 134.078 26.276 134.078 26.2344C134.078 26.1719 134.068 26.1198 134.047 26.0781C134.047 25.974 134.026 25.8802 133.984 25.7969C133.964 25.7552 133.932 25.651 133.891 25.4844C133.849 25.3177 133.828 25.2344 133.828 25.2344L133.797 24.9844C133.797 24.776 133.745 24.6615 133.641 24.6406C133.599 24.599 133.578 24.5573 133.578 24.5156V24.3906C133.578 24.1823 133.589 24.0365 133.609 23.9531C133.63 23.8698 133.63 23.8073 133.609 23.7656C133.568 23.599 133.578 23.474 133.641 23.3906L133.703 23.1719V23.0156C133.724 23.0156 133.734 22.974 133.734 22.8906C133.755 22.8073 133.766 22.7344 133.766 22.6719C133.766 22.4427 133.776 22.3177 133.797 22.2969C133.797 22.2135 133.807 22.151 133.828 22.1094C133.828 21.9844 133.839 21.9115 133.859 21.8906L133.891 21.6094L134.016 20.8906L134.047 20.6719L134.078 20.4219C134.099 20.401 134.109 20.3698 134.109 20.3281C134.109 20.2656 134.12 20.2135 134.141 20.1719C134.161 20.1302 134.172 20.0885 134.172 20.0469C134.172 20.0052 134.182 19.974 134.203 19.9531L134.297 19.2969L134.359 18.9844C134.38 18.9635 134.411 18.7865 134.453 18.4531C134.495 18.2031 134.536 18.026 134.578 17.9219C134.578 17.8177 134.609 17.6927 134.672 17.5469C134.734 17.276 134.797 17.1302 134.859 17.1094L135.016 16.9844L135.172 16.8906C135.318 16.8906 135.411 16.901 135.453 16.9219L135.828 17.0781L135.891 17.1094C135.911 17.1719 136.005 17.1823 136.172 17.1406L136.391 17.0781L136.641 17.0156L136.734 16.9531V16.4531C136.734 16.1615 136.714 15.9531 136.672 15.8281C136.63 15.6615 136.609 15.526 136.609 15.4219L136.578 15.1406L136.359 15.1094C136.13 15.1094 135.922 15.0885 135.734 15.0469H135.578L135.359 15.0156L135.109 14.9531L134.672 14.8281C134.547 14.7656 134.38 14.7135 134.172 14.6719C133.839 14.6302 133.62 14.5573 133.516 14.4531C133.474 14.4115 133.432 14.3594 133.391 14.2969C133.37 14.2135 133.37 14.1615 133.391 14.1406L133.328 13.7969L133.297 13.5156C133.297 13.3281 133.276 13.1927 133.234 13.1094L133.172 12.8281L133.141 12.6406C133.12 12.599 133.12 12.4844 133.141 12.2969C133.141 12.1927 133.13 12.1198 133.109 12.0781ZM136.359 22.2969C136.359 22.3177 136.38 22.3281 136.422 22.3281C136.547 22.3281 136.745 22.2865 137.016 22.2031L137.359 22.1406L137.859 22.0469C137.964 22.026 138.078 22.0156 138.203 22.0156C138.245 22.0156 138.286 22.0052 138.328 21.9844C138.391 21.9635 138.432 21.9427 138.453 21.9219C138.453 21.8594 138.464 21.8073 138.484 21.7656C138.484 21.6406 138.495 21.5469 138.516 21.4844L138.547 21.0781C138.609 20.5156 138.651 20.2135 138.672 20.1719C138.714 19.9635 138.714 19.8385 138.672 19.7969L138.547 19.7344C138.464 19.7135 138.37 19.7031 138.266 19.7031C138.161 19.7031 138.078 19.7135 138.016 19.7344C137.849 19.8177 137.714 19.8385 137.609 19.7969H137.422L136.797 19.8594L136.547 19.9219C136.484 19.9219 136.432 19.9427 136.391 19.9844C136.37 20.0052 136.359 20.3906 136.359 21.1406V22.2969ZM147.859 14.2031C147.88 14.3073 147.891 14.4323 147.891 14.5781C147.891 14.724 147.901 14.8698 147.922 15.0156C147.922 15.5365 147.943 15.8385 147.984 15.9219L148.109 15.9531L148.453 15.8906C148.828 15.8281 149.255 15.776 149.734 15.7344C149.984 15.7344 150.13 15.7135 150.172 15.6719L150.234 15.6406V15.3281C150.234 15.099 150.245 14.9635 150.266 14.9219C150.286 14.901 150.297 14.8698 150.297 14.8281C150.297 14.7865 150.286 14.7344 150.266 14.6719C150.266 14.6094 150.255 14.5573 150.234 14.5156C150.234 14.474 150.245 14.4323 150.266 14.3906C150.286 14.349 150.297 14.1823 150.297 13.8906C150.318 13.7448 150.328 13.5573 150.328 13.3281C150.349 13.2865 150.349 13.2448 150.328 13.2031C150.328 13.1615 150.328 13.1406 150.328 13.1406C150.307 13.1198 150.266 13.1198 150.203 13.1406C150.141 13.1406 150.078 13.151 150.016 13.1719C149.974 13.1927 149.901 13.2031 149.797 13.2031C149.693 13.2031 149.62 13.2135 149.578 13.2344C149.516 13.2552 149.411 13.2656 149.266 13.2656C149.141 13.2448 149.026 13.2552 148.922 13.2969C148.797 13.3177 148.661 13.3177 148.516 13.2969C148.432 13.276 148.307 13.276 148.141 13.2969C148.099 13.3177 148.047 13.3281 147.984 13.3281C147.943 13.3281 147.901 13.3385 147.859 13.3594C147.839 13.4219 147.828 13.5469 147.828 13.7344C147.828 13.901 147.839 14.0573 147.859 14.2031ZM148.047 22.4219C148.047 22.651 148.057 22.776 148.078 22.7969C148.099 22.8177 148.432 22.8177 149.078 22.7969C149.349 22.7969 149.495 22.7865 149.516 22.7656C149.557 22.724 149.578 22.6302 149.578 22.4844C149.62 22.151 149.661 21.9531 149.703 21.8906L149.734 21.6406C149.755 21.4115 149.786 21.1927 149.828 20.9844L149.891 20.6406L149.922 20.2656C150.005 19.8906 150.047 19.6719 150.047 19.6094C150.047 19.4844 150.068 19.401 150.109 19.3594C150.151 19.1719 150.161 19.0677 150.141 19.0469C149.641 19.0469 149.349 19.0573 149.266 19.0781C149.245 19.099 149.203 19.099 149.141 19.0781C149.057 19.0781 148.984 19.0677 148.922 19.0469L148.703 19.0156L148.359 18.9844C148.172 18.9844 148.068 18.9948 148.047 19.0156C148.026 19.0365 148.026 19.6198 148.047 20.7656C148.047 21.4115 148.036 21.7656 148.016 21.8281V22.0156L148.047 22.4219Z" fill="#4A443D"/>
</svg>
